<svg xmlns="http://www.w3.org/2000/svg" width="578.523" height="247.25" viewBox="0 0 578.523 247.25">
  <g id="Groupe_498" data-name="Groupe 498" transform="translate(-1141.5 -655.5)">
    <path id="Ligne_27" data-name="Ligne 27" d="M201,1.5H0A1.5,1.5,0,0,1-1.5,0,1.5,1.5,0,0,1,0-1.5H201A1.5,1.5,0,0,1,202.5,0,1.5,1.5,0,0,1,201,1.5Z" transform="translate(1718.523 901.25) rotate(180)" fill="#ee863f"/>
    <path id="Ligne_28" data-name="Ligne 28" d="M0,100a1.5,1.5,0,0,1-1.5-1.5V0A1.5,1.5,0,0,1,0-1.5,1.5,1.5,0,0,1,1.5,0V98.5A1.5,1.5,0,0,1,0,100Z" transform="translate(1718.523 901.25) rotate(180)" fill="#ee863f"/>
    <path id="Ligne_27-2" data-name="Ligne 27" d="M201,1.5H0A1.5,1.5,0,0,1-1.5,0,1.5,1.5,0,0,1,0-1.5H201A1.5,1.5,0,0,1,202.5,0,1.5,1.5,0,0,1,201,1.5Z" transform="translate(1143 657)" fill="#ee863f"/>
    <path id="Ligne_28-2" data-name="Ligne 28" d="M0,100a1.5,1.5,0,0,1-1.5-1.5V0A1.5,1.5,0,0,1,0-1.5,1.5,1.5,0,0,1,1.5,0V98.5A1.5,1.5,0,0,1,0,100Z" transform="translate(1143 657)" fill="#ee863f"/>
  </g>
</svg>
