<svg xmlns="http://www.w3.org/2000/svg" width="557.047" height="290.417" viewBox="0 0 557.047 290.417">
  <g id="_nhbvcx" data-name=",nhbvcx" transform="translate(-27.791 -75.72)">
    <g id="Groupe_184" data-name="Groupe 184" transform="translate(292.385 132.064)">
      <path id="Tracé_2896" data-name="Tracé 2896" d="M477.21,306.331c-.12,2.1,9.819,6.241,10.228,3.209S477.507,301.013,477.21,306.331Z" transform="translate(-381.294 -177.246)" fill="#0a3d56"/>
      <g id="Groupe_179" data-name="Groupe 179" transform="translate(93.766 124.297)">
        <path id="Tracé_2897" data-name="Tracé 2897" d="M485.143,307.528c.168.963,1.075,7.669.65,8.872a.978.978,0,0,1-.056.136c-.489,1.155-1.949,2.254-2.431,3.032-.505.81-1.4.939-2.126,1.58a5.444,5.444,0,0,1-2.551.762s-2.88,2.11-2.96.963c-.1-1.436,1.588-2.687,1.588-2.687l1.284-3.241s-.746-4.372-1.6-4.372-.529,1.813-.963,3.249a1.222,1.222,0,0,1-1.348.8l-.1-2.623s.168-3.762.658-4.476,2.9-3.209,2.9-3.209l1.011-5.407,7.252.433s-1.4,5.222-1.211,6.185Z" transform="translate(-474.53 -300.91)" fill="#ff8b66"/>
        <path id="Tracé_2898" data-name="Tracé 2898" d="M486.757,320.388c-.489,1.155-1.949,2.254-2.431,3.032-.505.81-1.4.939-2.126,1.58a5.444,5.444,0,0,1-2.551.762c.69-.545,1.933-3.6,2.246-3.794s.505.249,1.067.249.81-1.123,1.372-.939a1.125,1.125,0,0,0,1.556-.5.931.931,0,0,1,.866-.4Z" transform="translate(-475.543 -304.762)" fill="#ef6e4b"/>
      </g>
      <path id="Tracé_2899" data-name="Tracé 2899" d="M376.129,221.2c-1.741-2.021-8.8,6.345-6.008,9.369s8.206-3.016,8.206-3.016-.385-4.235-2.206-6.345Z" transform="translate(-359.981 -160.783)" fill="#0a3d56"/>
      <g id="Groupe_180" data-name="Groupe 180" transform="translate(0 49.178)">
        <path id="Tracé_2900" data-name="Tracé 2900" d="M360.576,218.267a19.382,19.382,0,0,1,3.634,1.556c1.909,1.5,2.976,2.318,4.324,2.591s3.273,3.465,3.273,3.465a11.857,11.857,0,0,0,3.241-5.679s-1.476-1.251-1.62-1.845c-.3-1.187.674-2.808-.313-4.861a17.161,17.161,0,0,1-1.227-5.118s-1.147-.505-1.412.65c-.265,1.171.433,2.9.152,3.377a1.6,1.6,0,0,1-.193.265l-.016.024a1.294,1.294,0,0,1-.979.489.263.263,0,0,1-.08,0c-1.34-.184-3.481-2.31-4.34-3.345-1.2-1.436-2.952-3.329-3.522-2.254s.906,1.171,2.96,4.853l-.289.321c.136.273-2.3-1.308-4.179-3.161-1.291-1.267-1.741.016-1.556.61s1.669,1.693,2.591,2.623c.618.61,1.267,1.235,1.652,1.6l-.193.537c-3.417-1.163-3.818-2.551-4.653-1.9s1.2,2.382,2.286,2.767a10.04,10.04,0,0,1,1.973,1.243c-2.792-.385-3.369-1.356-3.915-.69-.562.682,1.42,1.749,2.382,1.877Z" transform="translate(-357.64 -207.266)" fill="#ff8b66"/>
        <path id="Tracé_2901" data-name="Tracé 2901" d="M372.614,218.031c-.666-1.7.489-3.762.634-4.011a1.294,1.294,0,0,1-.979.489A3.129,3.129,0,0,0,372.614,218.031Z" transform="translate(-360.461 -208.602)" fill="#ef6e4b"/>
      </g>
      <path id="Tracé_2902" data-name="Tracé 2902" d="M410.587,192.16l-19.308,35.36s-.866-1.989-1.861-1.187-13.14-10.813-13.14-10.813.931,7.091-6.008,9.369c0,0,16.075,14.214,21.346,17.592s23.118-26.568,23.118-26.568l-4.163-23.744Z" transform="translate(-360.138 -155.099)" fill="#0d527c"/>
      <g id="Groupe_181" data-name="Groupe 181" transform="translate(20.087 217.54)">
        <path id="Tracé_2903" data-name="Tracé 2903" d="M382.68,432.191a11.463,11.463,0,0,0,.088,1.484H408c0-.5-.008-.995-.032-1.484a46.583,46.583,0,0,0-2.366-12.329l-6.305-2.711a10.106,10.106,0,0,1-3.7,6.682,8.766,8.766,0,0,1-1.444.922c-.233.128-.465.241-.706.345a12.192,12.192,0,0,1-1.612.594,39.78,39.78,0,0,1-6.056,1.059c-2.687.417-3.1,3.53-3.1,5.423Z" transform="translate(-382.68 -417.15)" fill="#0e3944"/>
        <path id="Tracé_2904" data-name="Tracé 2904" d="M382.68,435.9a11.463,11.463,0,0,0,.088,1.484H408c0-.5-.008-.995-.032-1.484Z" transform="translate(-382.68 -420.859)" fill="#adbec4"/>
        <path id="Tracé_2905" data-name="Tracé 2905" d="M396.978,426.412l3.5,1.123.738-1.283-2.8-.762a8.765,8.765,0,0,1-1.444.922Z" transform="translate(-385.507 -418.8)" fill="#adbec4"/>
        <path id="Tracé_2906" data-name="Tracé 2906" d="M394.09,427.672l2.358,1.564,1.452-.57-2.2-1.6a12.194,12.194,0,0,1-1.612.594Z" transform="translate(-384.937 -419.113)" fill="#adbec4"/>
      </g>
      <g id="Groupe_182" data-name="Groupe 182" transform="translate(64.848 214.701)">
        <path id="Tracé_2907" data-name="Tracé 2907" d="M438.5,431.49a6.217,6.217,0,0,0,.289,1.484H455.6a7.252,7.252,0,0,0,.473-1.484c1.652-8.046-9.514-17.88-9.514-17.88l-3.546,4.733s.409,7.572-2.591,9.145A3.855,3.855,0,0,0,438.5,431.5Z" transform="translate(-438.48 -413.61)" fill="#0e3944"/>
        <path id="Tracé_2908" data-name="Tracé 2908" d="M456.069,435.9H438.51a6.216,6.216,0,0,0,.289,1.484H455.6a7.252,7.252,0,0,0,.473-1.484Z" transform="translate(-438.486 -418.02)" fill="#adbec4"/>
        <path id="Tracé_2909" data-name="Tracé 2909" d="M441.86,429.705s7.083-1.612,10.308.473v-1.171s-5.952-2.9-10.308.69Z" transform="translate(-439.149 -416.438)" fill="#adbec4"/>
        <path id="Tracé_2910" data-name="Tracé 2910" d="M443.6,427.468a11.537,11.537,0,0,1,8.9,0l-.5-1.179S446.769,424.307,443.6,427.468Z" transform="translate(-439.493 -415.997)" fill="#adbec4"/>
      </g>
      <path id="Tracé_2911" data-name="Tracé 2911" d="M458.718,273.84c0,15.987-1.572,32.271-1.981,36.4s-4.677,50.272-5.278,68.12c-.3,9.145-3.241,20.207-3.241,20.207s-8.712-7.043-13.645-1.813l-1.235-7.131,2.31-5.615s-2.471-4.645-.449-8.254,2.639-80.77,2.639-80.77l-3.891-.249L415.281,384.01V389.1s-4.059,6.474-4.091,10.613l-12.41-4.219,2.021-5.864-1.348-8.367,4.508-10.909s12.9-85.343,11.848-94.912l42.908-1.588Z" transform="translate(-365.779 -171.258)" fill="#8bbddb"/>
      <path id="Tracé_2912" data-name="Tracé 2912" d="M462.442,260.238s-6.73,9.482-26.447,6.361c-11.2-1.773-16.284-7.244-16.284-7.244s-3.6-63.484.361-68.633c2.88-3.738,8.543-5.342,15.923-5.735,2.784-.144,5.808-.12,9.032.032a30.486,30.486,0,0,1,6.746,1.083c8.262,2.3,14.054,7.725,14.928,11.976,1.107,5.334-4.259,62.16-4.259,62.16Z" transform="translate(-369.623 -153.661)" fill="#cfd8dc"/>
      <path id="Tracé_2913" data-name="Tracé 2913" d="M452.859,184.33s3.538,2.062,3.481,5.326c0,0,1.2-7.276-1.636-8.383s-1.845,3.064-1.845,3.064Z" transform="translate(-376.444 -152.909)" fill="#0a3d56"/>
      <path id="Tracé_2914" data-name="Tracé 2914" d="M469.8,267.611s-8.519,5.671-19,3.995c0,0-3.538-66.588-2.583-72.829a53.368,53.368,0,0,1,6.161-5.824c2.479-1.853,3.169-5.631,3.3-6.554,8.262,2.3,14.247,4.131,15.129,8.383,1.107,5.334-3,72.829-3,72.829Z" transform="translate(-375.525 -153.96)" fill="#105e99"/>
      <path id="Tracé_2915" data-name="Tracé 2915" d="M435.8,185.02a27.526,27.526,0,0,0-3.85,11.559c-.417,3.923-7.043,71.9-7.043,71.9-5.984-.032-7.348-3.457-7.348-3.457s-1.644-69.115,2.318-74.265c2.88-3.738,8.543-5.342,15.923-5.736Z" transform="translate(-369.426 -153.687)" fill="#105e99"/>
      <path id="Tracé_2916" data-name="Tracé 2916" d="M453.823,181.32a7.88,7.88,0,0,1,7.308,6.088c1.452,5.984-6.2,10.677-6.2,10.677s-1.251-3.233-2.936-3.225-3.754,2.912-3.754,2.912a16.365,16.365,0,0,1,3.979-5.487c2.382-1.837,4.653-7.027,1.6-10.966Z" transform="translate(-375.563 -152.955)" fill="#0d527c"/>
      <path id="Tracé_2917" data-name="Tracé 2917" d="M439.068,181.15A17.224,17.224,0,0,0,428.8,193.239s1.556-3.04,2.936-2.134,2.511,4.709,2.511,4.709,1.364-9.289,5.88-11.631l-1.059-3.024Z" transform="translate(-371.717 -152.921)" fill="#0d527c"/>
      <path id="Tracé_2918" data-name="Tracé 2918" d="M476.262,194.418c-5.663,2.976-7.669,15.378-7.067,20.407l8.022,24.442s.2,2.84,1.2,3.241l-2.808,42.114c.81-1.6,9.064-.3,10.228,3.209,0,0,5.623-40.654,4.813-51.812-.16-2.214-14.391-41.608-14.391-41.608Z" transform="translate(-379.689 -155.544)" fill="#0d527c"/>
      <path id="Tracé_2919" data-name="Tracé 2919" d="M440.868,176.812l2.623,10.332s2.968,1.4,9.257-2.84c0,0-3.337-7.861-.385-13.444,0,0-.746.048-1.933.185,0,0-1.187,6.145-9.57,5.768Z" transform="translate(-374.103 -150.885)" fill="#ef6e4b"/>
      <g id="Groupe_183" data-name="Groupe 183" transform="translate(59.481)">
        <path id="Tracé_2920" data-name="Tracé 2920" d="M452.646,161.473c.12,12.225-12.939,13.813-15.987,9.3a20.408,20.408,0,0,1-2.431-6.963c-.128-.65-.233-1.316-.313-1.981-.57-4.508-.128-9.073,2.391-10.276C445.066,147.339,452.526,149.248,452.646,161.473Z" transform="translate(-432.167 -146.664)" fill="#ff8b66"/>
        <path id="Tracé_2921" data-name="Tracé 2921" d="M444.721,161.383c.064.674-.193,1.251-.57,1.291s-.73-.481-.794-1.163.193-1.251.57-1.292S444.657,160.7,444.721,161.383Z" transform="translate(-434.076 -148.78)" fill="#1a4850"/>
        <path id="Tracé_2922" data-name="Tracé 2922" d="M437.061,162.743c.064.674-.193,1.251-.57,1.292s-.73-.481-.794-1.163.193-1.251.57-1.292S437,162.061,437.061,162.743Z" transform="translate(-432.561 -149.049)" fill="#1a4850"/>
        <path id="Tracé_2923" data-name="Tracé 2923" d="M447.98,163.862a1.293,1.293,0,1,1-1.556-.441A1.154,1.154,0,0,1,447.98,163.862Z" transform="translate(-434.52 -149.39)" fill="#db614d"/>
        <path id="Tracé_2924" data-name="Tracé 2924" d="M435.638,166.062a1.126,1.126,0,0,1-1.356.77c-.128-.65-.233-1.316-.313-1.981a1.553,1.553,0,0,1,.61-.016,1.153,1.153,0,0,1,1.059,1.219Z" transform="translate(-432.221 -149.689)" fill="#db614d"/>
        <path id="Tracé_2925" data-name="Tracé 2925" d="M444.948,157.24a.5.5,0,0,1-.274-.082,2.939,2.939,0,0,0-2.039-.239.5.5,0,0,1-.251-.968,3.915,3.915,0,0,1,2.839.371.5.5,0,0,1-.275.918Z" transform="translate(-433.911 -148.012)" fill="#8b383e"/>
        <path id="Tracé_2926" data-name="Tracé 2926" d="M434.38,159.491a.5.5,0,0,1-.5-.485c-.03-1,1.161-1.4,1.87-1.482a.5.5,0,0,1,.116.993h0c-.449.054-.992.277-.987.459a.5.5,0,0,1-.485.515Z" transform="translate(-432.302 -148.345)" fill="#8b383e"/>
        <path id="Tracé_2927" data-name="Tracé 2927" d="M437.917,167.437a1.944,1.944,0,0,1-1.3-.4,1.2,1.2,0,0,1-.427-.934l.006-.106.06-.087a10.326,10.326,0,0,0,1.586-5.386l.75-.015a11,11,0,0,1-1.64,5.712.484.484,0,0,0,.165.257c.164.134.6.326,1.674.1l.151.735A5.105,5.105,0,0,1,437.917,167.437Z" transform="translate(-432.734 -148.84)" fill="#db614d"/>
        <path id="Tracé_2928" data-name="Tracé 2928" d="M433.836,153.693s2.439-3.241,9.979-2.39c0,0,1.123,4.484,3.409,5.816s3.161,5.158,3.161,5.158.217-1.9,1.187-2.11-.281,5.936-.281,5.936,3.714-.562,3.9-10.813c.168-9.273-7.8-6.915-7.8-6.915s-1.917-3.818-10.717-1.853l.634.337s-4.075.642-5.519,4.067l.682-.072a2.185,2.185,0,0,0,1.356,2.84Z" transform="translate(-431.79 -145.959)" fill="#8b383e"/>
        <path id="Tracé_2929" data-name="Tracé 2929" d="M454.041,163.917s1.765-2.495,3.73-1.243-.73,5.792-2.719,5.816S454.041,163.917,454.041,163.917Z" transform="translate(-436.144 -149.196)" fill="#ff8b66"/>
        <path id="Tracé_2930" data-name="Tracé 2930" d="M434.429,167.1s1.059,1.484,3.762,1.2c4.588-.465,10.011-2.615,11.655-6.313l.537,1.5s1.428,5.824.786,7.773l-.425-.193s.144,2.431-3.281,4.268a13.833,13.833,0,0,1-5.912,1.861l.505.505s-5.5.417-6.947-3.433l-.064.922s-2.2-4.917-.618-8.086Z" transform="translate(-432.199 -149.131)" fill="#8b383e"/>
        <path id="Tracé_2931" data-name="Tracé 2931" d="M437.73,170.469s.273.385,2.382-.056a14.647,14.647,0,0,0,3.425-1.123s.04,4.316-3.169,4.6c-2.663.233-2.639-3.417-2.639-3.417Z" transform="translate(-432.965 -150.575)" fill="#1a4850"/>
      </g>
    </g>
    <g id="Groupe_188" data-name="Groupe 188" transform="translate(223.515 158.427)">
      <path id="Tracé_2932" data-name="Tracé 2932" d="M308.489,430.271c-1.171-1.2-5.2-6.361-5.27-8.96-.1-3.666-.032-8.7.136-14.19h-5.768c.233,5.984.249,13.444.168,15.7-.12.377-.545,2.888-.754,3.249-.313.554-.048,4.717-.048,4.717l11.68-.473c-.048-.016-.08-.024-.1-.032s-.032-.008-.032-.016Z" transform="translate(-276.743 -223.989)" fill="#ef6e4b"/>
      <path id="Tracé_2933" data-name="Tracé 2933" d="M301.875,386.853c.241-15.49,3.337-38.929,3.762-42.812.273-2.511,2.431-9.064,5.318-18.642,6.69-22.22,7.123-38.255,4.837-52.718l-14.944.345c-2.591,11.487-17.255,23.889-7.276,37.18.4,4.965,3.233,21.795,2.029,29.207-1.42,8.744-2.262,13.027-1.733,23.183.225,4.227,2.519,17.479,2.5,24.258Z" transform="translate(-275.415 -197.392)" fill="#0d527c"/>
      <g id="Groupe_185" data-name="Groupe 185" transform="translate(59.76 44.412)">
        <path id="Tracé_2934" data-name="Tracé 2934" d="M351.254,234.19,348.39,237.6c-2.872,3.409-2.15,3.682-1.612,6.024.505,2.19,4.6,1.709,6.241,1.051,1.38-.545,5.07.3,6.088-.465.409-.3,0-.473-1.187-.594a8.888,8.888,0,0,1-2.631-.746c.882-1.292,5.88-.281,6.61-1.8.353-.746-5.623.578-6.193-.193,0,0,.273-.5,3.153-1.38,1.652-.513,3.361-1.019,3.457-1.572.168-1.011-3.1.658-7.26,1.027,0,0,1.677-.858,3.289-1.556,1.468-.626,2.912-1.059,2.567-1.685-.281-.513-2.543.521-4.019,1.131a17.921,17.921,0,0,1-6.161,1.4,5.713,5.713,0,0,1-.874-.016c2.631-3.714,1.4-4.027,1.4-4.027Z" transform="translate(-346.283 -234.19)" fill="#ff8b66"/>
        <path id="Tracé_2935" data-name="Tracé 2935" d="M350.55,239.21a4.082,4.082,0,0,1-.77,3.016,2.421,2.421,0,0,0,1.644-3A5.71,5.71,0,0,1,350.55,239.21Z" transform="translate(-346.974 -235.183)" fill="#ef6e4b"/>
      </g>
      <path id="Tracé_2936" data-name="Tracé 2936" d="M279.126,184.5c-3.714,4.7-6.714,44.937,0,59.449,0,0,13.139,2.118,23.568-1.452,0,0,2.5-52.285-3.77-58.807Z" transform="translate(-272.448 -179.787)" fill="#0e3944"/>
      <path id="Tracé_2937" data-name="Tracé 2937" d="M306.359,219.9c9.674,2.334,11.479,3.064,16.894,30.274,0,0,14.086-16.2,16.854-14.993,0,0-.906,1.452,1.035,4.829a4.15,4.15,0,0,0,3.169,2.07c.4,3.209-13.886,25.068-18.474,26.472s-16.773-13.509-18.6-18.386-.874-30.274-.874-30.274Z" transform="translate(-278.575 -186.949)"/>
      <path id="Tracé_2938" data-name="Tracé 2938" d="M288.208,214.355c.6-1.115,11.038.746,12.065,1.6s-3.915,4.629-6.562,3.538-6.2-3.834-5.5-5.142Z" transform="translate(-275.016 -185.785)" fill="#b72e48"/>
      <path id="Tracé_2939" data-name="Tracé 2939" d="M291.258,408.54H284.44c.77,7.051,1.34,13.035,1.34,13.035l-.746,10.4h7.436c-.489-3.112-1.893-12.442-1.6-16.38.168-2.31.3-4.677.409-7.059Z" transform="translate(-274.288 -224.27)" fill="#ff8b66"/>
      <path id="Tracé_2940" data-name="Tracé 2940" d="M278.884,323.614h0c.594,4.949,1.709,8.254,2.15,12.418.65,6.064-3.056,14.84-.658,24.6,1.139,4.62,2.784,19.878,3.65,28.316h5.639a1.216,1.216,0,0,1,.016-.241c1.476-20.535,1.147-44.215,2.238-53.521.457-3.923,3.185-10.292,4.251-15.361,0-.024,3.241-14.728,5.455-15.963,9.073-5.054,11.872-31.2,11.872-31.2l-22.3,1.035a35.02,35.02,0,0,0-11.7,30s-.024.2-.072.545c-1.187,9.04-1.075,14.88-.537,19.364Z" transform="translate(-273.113 -197.389)" fill="#105e99"/>
      <path id="Tracé_2941" data-name="Tracé 2941" d="M284.194,427.166s.281-2.559,3.794-2.262,3.08,2.872,3.08,2.872a.811.811,0,0,1,1,0c.433.417-.217,3.971.626,4.717s.425,2.711.425,2.711H282.774s-.377-2.527.714-3.457-1.275-4.3.7-4.58Z" transform="translate(-273.946 -227.503)" fill="#cdcfd0"/>
      <path id="Tracé_2942" data-name="Tracé 2942" d="M279.35,288.041c4.043,9.121,41.352,6.313,40-2.005-3.626-22.212-9.185-35.985-9.185-35.985,10.252-17.5-7.661-29.76-7.661-29.76s-16.709-6.121-25.878,1.741,10.236,32.159,10.236,32.159C284.22,260.687,277.61,284.119,279.35,288.041Z" transform="translate(-272.255 -186.579)" fill="#f24052"/>
      <g id="Groupe_186" data-name="Groupe 186" transform="translate(5.179)">
        <path id="Tracé_2943" data-name="Tracé 2943" d="M285.426,183.531s13.172-4.412,15.827,4.861.241,19.059-5.936,18.4c-8.7-.923-20.118-18.049-9.883-23.263Z" transform="translate(-278.865 -179.548)" fill="#ff8b66"/>
        <path id="Tracé_2944" data-name="Tracé 2944" d="M294.689,199.812a1.3,1.3,0,1,0,1.364-.874A1.163,1.163,0,0,0,294.689,199.812Z" transform="translate(-281.494 -182.802)" fill="#db614d"/>
        <path id="Tracé_2945" data-name="Tracé 2945" d="M295.888,192.587a.253.253,0,0,0,.217-.128,1.817,1.817,0,0,1,1.62-.754.266.266,0,0,0,.3-.241.278.278,0,0,0-.241-.3,2.374,2.374,0,0,0-2.142,1,.279.279,0,0,0,.08.377.231.231,0,0,0,.16.04Z" transform="translate(-281.675 -181.264)" fill="#1a4850"/>
        <path id="Tracé_2946" data-name="Tracé 2946" d="M303.461,190.948a.255.255,0,0,0,.16-.064,1.81,1.81,0,0,1,1.773-.225.27.27,0,0,0,.361-.144.28.28,0,0,0-.136-.361,2.342,2.342,0,0,0-2.342.3.277.277,0,0,0-.032.385.255.255,0,0,0,.225.1Z" transform="translate(-283.175 -181.029)" fill="#1a4850"/>
        <path id="Tracé_2947" data-name="Tracé 2947" d="M303.853,203.31s-1.989,1.283-5.463.16c0,0,1.043,4.115,3.257,3.594S303.853,203.31,303.853,203.31Z" transform="translate(-282.227 -183.669)" fill="#1a4850"/>
        <path id="Tracé_2948" data-name="Tracé 2948" d="M290.219,189.509a15.024,15.024,0,0,0-2.864,8.832s-2.214-2.711-3.369-.353,3.473,5.792,3.473,5.792-7.452.417-8.335-9.225c-.369-4.059,4.9-7.773,11.086-5.046Z" transform="translate(-278.413 -180.754)" fill="#0e3944"/>
        <path id="Tracé_2949" data-name="Tracé 2949" d="M289.37,204.928c1.011,2.719,4.885,7.436,8.992,6.088,0,0-1.035,4.059.674,5.535,0,0,1.8,3.136-2.3,3.586a9,9,0,0,1-7.99-3.586c2.238-4.981-.834-11.126-.834-11.126a.9.9,0,0,0,1.468-.505Z" transform="translate(-280.154 -183.987)" fill="#ef6e4b"/>
        <path id="Tracé_2950" data-name="Tracé 2950" d="M299.308,196.385a3.411,3.411,0,0,0-3.048,0,4.343,4.343,0,0,1,2.719.337l.337-.337Z" transform="translate(-281.806 -182.223)" fill="#1a4850"/>
        <path id="Tracé_2951" data-name="Tracé 2951" d="M306.036,195.623a1.243,1.243,0,0,0-1.556.642l.257.361A1.321,1.321,0,0,1,306.036,195.623Z" transform="translate(-283.432 -182.134)" fill="#1a4850"/>
        <path id="Tracé_2952" data-name="Tracé 2952" d="M304.123,200.85l-.241-.554a1.03,1.03,0,0,0,.618-1.316.808.808,0,0,0-.433-.489,1.037,1.037,0,0,0-.7.08l-.289-.529a1.635,1.635,0,0,1,1.179-.128,1.352,1.352,0,0,1,.794.826,1.6,1.6,0,0,1-.931,2.094Z" transform="translate(-283.155 -182.589)" fill="#db614d"/>
        <path id="Tracé_2953" data-name="Tracé 2953" d="M283.647,180.473c-8.118,3.666-4.685,12.153-4.685,12.153.834-3.241,7.027-5.591,7.027-5.591-.457,2.5,1.885,4.821,1.885,4.821a11.244,11.244,0,0,1,2.142-2.278,11.187,11.187,0,0,0,.449-1.356,9.7,9.7,0,0,0,.257-1.275c.024-.209.056-.409.064-.6s.032-.377.016-.537a5.33,5.33,0,0,0-.048-.81l-.04-.3.072.3a5.4,5.4,0,0,1,.144.81c.032.168.024.353.04.553a5.282,5.282,0,0,1,0,.618,9.771,9.771,0,0,1-.12,1.34c-.04.257-.088.505-.136.754q.445-.3.89-.553c.112-.184.217-.369.321-.562a6.9,6.9,0,0,0,.7-2.021,4.311,4.311,0,0,0,.056-.714v-.273l.032.273a3.834,3.834,0,0,1,.032.73,7.041,7.041,0,0,1-.457,2.174c0,.024-.016.04-.024.064a13,13,0,0,1,2.655-.906c-.024-.249-.056-.505-.1-.762a10.369,10.369,0,0,0-.353-1.548,6.191,6.191,0,0,0-.265-.674,6.614,6.614,0,0,1,.385.626,10.085,10.085,0,0,1,.626,1.5c.088.249.16.505.233.754a15.328,15.328,0,0,1,1.628-.209c-.088-.425-.209-.947-.361-1.468a9.761,9.761,0,0,0-.6-1.58,6.2,6.2,0,0,0-.385-.674,5.736,5.736,0,0,1,.489.61,11.168,11.168,0,0,1,.866,1.492,16.948,16.948,0,0,1,.658,1.58,16.716,16.716,0,0,1,2.4.088v-.209A8.006,8.006,0,0,0,300,185.4a5.948,5.948,0,0,0-.425-1.364c-.08-.176-.16-.329-.217-.425l-.088-.16.12.136a3.29,3.29,0,0,1,.3.385,6.646,6.646,0,0,1,.7,1.316,8.044,8.044,0,0,1,.425,1.444c.032.144.048.273.072.385.5.08.794.144.794.144.6-8.022-9.923-10.428-18.049-6.762Z" transform="translate(-278.241 -178.825)" fill="#0e3944"/>
      </g>
      <path id="Tracé_2954" data-name="Tracé 2954" d="M286.038,217.915c.088,1.973,5.166,5.607,11.246,4.861s3.682-6.04,2.567-6.73c0,0-3.642,2.543-12.065-1.6a1.98,1.98,0,0,0-1,1.829,1.571,1.571,0,0,1-.754,1.636Z" transform="translate(-274.603 -185.873)"/>
      <g id="Groupe_187" data-name="Groupe 187" transform="translate(1.336 113.102)">
        <path id="Tracé_2955" data-name="Tracé 2955" d="M282.361,324.667a5.074,5.074,0,0,1,0,2.4c-.353.914-1.877,2.912-1.636,4.019s-.971,1.6-.866-1.508S279.858,324.057,282.361,324.667Z" transform="translate(-274.716 -320.76)" fill="#ef6e4b"/>
        <path id="Tracé_2956" data-name="Tracé 2956" d="M279.45,324.128l-.866,4.508s-.6,3.112-1.2,3.008-.9-2.5-.9-2.5-1.5-.8-1.6-1.251-.1-2.054-.85-2.254-.553-5.816-.553-5.816,5.342,2.808,5.984,4.316Z" transform="translate(-273.45 -319.82)" fill="#ff8b66"/>
      </g>
      <path id="Tracé_2957" data-name="Tracé 2957" d="M276.153,222.929c4.091-2.92,9.2,12.369,9.819,17.912,1.4,12.562-.4,60.467-3.81,64.51s-7.42-1-9.626-2.687,1.155-35.985,1.155-35.985-5.358-38.167,2.463-43.75Z" transform="translate(-271.785 -187.478)"/>
      <path id="Tracé_2958" data-name="Tracé 2958" d="M295.994,435.333s-.57-7.685.931-9.69c0,0,1.66,2.639,3.939,2.639,1.476,0,2.078-3.4,3.345-2.639,1.107.674,1.861,2.591,4.837,4.556s5.407,1.4,5.591,5.134H295.994Z" transform="translate(-276.553 -227.631)" fill="#bfc0c1"/>
    </g>
    <g id="Groupe_195" data-name="Groupe 195" transform="translate(472.432 129.297)">
      <path id="Tracé_2959" data-name="Tracé 2959" d="M603.009,231.565c-2.358-1.243-5.864,9.129-2.158,10.917s6.53-5.816,6.53-5.816-1.909-3.8-4.372-5.094Z" transform="translate(-585.483 -160.107)" fill="#c96f32"/>
      <g id="Groupe_189" data-name="Groupe 189" transform="translate(0 62.737)">
        <path id="Tracé_2960" data-name="Tracé 2960" d="M587.24,234.06a18.814,18.814,0,0,1,3.955.12c2.326.7,3.618,1.067,4.974.826s4.316,2.021,4.316,2.021a11.873,11.873,0,0,0,.93-6.473,6.861,6.861,0,0,1-2.19-1.123c-.714-.995-.4-2.864-2.07-4.4a17.179,17.179,0,0,1-3.016-4.308s-1.251-.056-1.075,1.123,1.46,2.535,1.38,3.08a1.441,1.441,0,0,1-.08.321v.024a1.31,1.31,0,0,1-.73.818.316.316,0,0,1-.072.032c-1.316.313-4.083-.874-5.262-1.524-1.636-.9-3.971-2.021-4.1-.8s1.267.762,4.532,3.433l-.144.4c.225.209-2.623-.377-5.046-1.412-1.669-.706-1.612.65-1.227,1.139s2.166.963,3.369,1.492c.794.337,1.628.69,2.126.89l.016.57c-3.61.168-4.484-.971-5.022-.064s1.989,1.773,3.144,1.733a9.769,9.769,0,0,1,2.286.433c-2.735.666-3.634-.024-3.9.794-.273.842,1.965,1.107,2.9.874Z" transform="translate(-582.091 -220.719)" fill="#a8604f"/>
        <path id="Tracé_2961" data-name="Tracé 2961" d="M598.083,230.343c-1.243-1.34-.922-3.682-.874-3.963a1.31,1.31,0,0,1-.73.818A3.113,3.113,0,0,0,598.083,230.343Z" transform="translate(-584.936 -221.839)" fill="#874538"/>
      </g>
      <path id="Tracé_2962" data-name="Tracé 2962" d="M639.072,190.29c-5.808,2.8-15.819,38.223-15.819,38.223s-1.54-1.532-2.166-.425-17.68-4.661-17.68-4.661,3.465,6.257-2.158,10.917c0,0,18.217,8.968,24.362,10.179s15.779-29.9,15.779-29.9l-2.318-24.33Z" transform="translate(-585.881 -151.962)" fill="#e28a42"/>
      <g id="Groupe_190" data-name="Groupe 190" transform="translate(21.385 220.307)">
        <path id="Tracé_2963" data-name="Tracé 2963" d="M608.75,432.191a11.463,11.463,0,0,0,.088,1.484h25.228c0-.5-.008-.995-.032-1.484a46.582,46.582,0,0,0-2.366-12.329l-6.3-2.711a10.107,10.107,0,0,1-3.7,6.682,8.763,8.763,0,0,1-1.444.922c-.233.128-.465.241-.706.345a12.2,12.2,0,0,1-1.612.594,39.781,39.781,0,0,1-6.056,1.059c-2.687.417-3.1,3.53-3.1,5.423Z" transform="translate(-608.75 -417.15)" fill="#0e3944"/>
        <path id="Tracé_2964" data-name="Tracé 2964" d="M608.75,435.9a11.463,11.463,0,0,0,.088,1.484h25.228c0-.5-.008-.995-.032-1.484Z" transform="translate(-608.75 -420.859)" fill="#adbec4"/>
        <path id="Tracé_2965" data-name="Tracé 2965" d="M623.048,426.412l3.5,1.123.738-1.283-2.8-.762a8.77,8.77,0,0,1-1.444.922Z" transform="translate(-611.577 -418.8)" fill="#adbec4"/>
        <path id="Tracé_2966" data-name="Tracé 2966" d="M620.16,427.672l2.358,1.564,1.452-.57-2.2-1.6a12.2,12.2,0,0,1-1.612.594Z" transform="translate(-611.007 -419.113)" fill="#adbec4"/>
      </g>
      <g id="Groupe_191" data-name="Groupe 191" transform="translate(66.146 217.468)">
        <path id="Tracé_2967" data-name="Tracé 2967" d="M664.574,431.49a6.215,6.215,0,0,0,.289,1.484h16.805a7.254,7.254,0,0,0,.473-1.484c1.66-8.046-9.514-17.88-9.514-17.88l-3.546,4.733s.409,7.572-2.591,9.145a3.855,3.855,0,0,0-1.917,4.011Z" transform="translate(-664.551 -413.61)" fill="#0e3944"/>
        <path id="Tracé_2968" data-name="Tracé 2968" d="M682.149,435.9H664.59a6.218,6.218,0,0,0,.289,1.484h16.805a7.246,7.246,0,0,0,.473-1.484Z" transform="translate(-664.558 -418.02)" fill="#adbec4"/>
        <path id="Tracé_2969" data-name="Tracé 2969" d="M667.93,429.705s7.083-1.612,10.308.473v-1.171s-5.952-2.9-10.308.69Z" transform="translate(-665.219 -416.438)" fill="#adbec4"/>
        <path id="Tracé_2970" data-name="Tracé 2970" d="M669.68,427.468a11.537,11.537,0,0,1,8.9,0l-.5-1.179S672.848,424.307,669.68,427.468Z" transform="translate(-665.565 -415.997)" fill="#adbec4"/>
      </g>
      <path id="Tracé_2971" data-name="Tracé 2971" d="M684.786,273.84c0,15.987-1.572,32.271-1.981,36.4s-4.677,50.272-5.278,68.12c-.3,9.145-3.241,20.207-3.241,20.207s-8.711-7.043-13.645-1.813l-1.235-7.131,2.31-5.615s-2.471-4.645-.449-8.254,2.639-80.77,2.639-80.77l-3.891-.249L641.341,384.01V389.1s-4.059,6.474-4.091,10.613l-12.41-4.219,2.021-5.864-1.348-8.367,4.508-10.909s12.9-85.343,11.848-94.912l42.908-1.588Z" transform="translate(-590.548 -168.491)" fill="#0d527c"/>
      <path id="Tracé_2972" data-name="Tracé 2972" d="M644.29,210.936v3.233c0,2.021.024,4.107.056,6.209.016,1.067.032,2.142.056,3.217.048,2.567.112,5.15.192,7.677.032,1.091.064,2.174.1,3.241.1,2.944.209,5.792.313,8.439.048,1.147.1,2.254.144,3.313.1,2.407.2,4.588.289,6.441.064,1.316.12,2.479.176,3.441.1,2.038.169,3.209.169,3.209s5.086,5.471,16.284,7.244c19.717,3.12,26.455-6.361,26.455-6.361s.08-.746.217-2.078c.1-.874.209-2.005.345-3.345.168-1.6.353-3.489.562-5.607q.156-1.552.313-3.249c.225-2.366.465-4.925.714-7.6.088-1.043.185-2.11.273-3.185.193-2.142.377-4.348.553-6.554.088-1.075.177-2.158.257-3.233.192-2.374.361-4.749.521-7.067.072-1.107.144-2.19.209-3.265.16-2.535.289-4.981.393-7.26.048-1.147.088-2.246.112-3.3.072-2.366.1-4.484.048-6.273-.032-1.356-.1-2.519-.209-3.441a5.659,5.659,0,0,0-.562-2.246c-1.917-2.816-6.161-4.123-14.423-6.433a30.488,30.488,0,0,0-6.746-1.083c-3.217-.152-6.249-.176-9.032-.032-7.179.385-12.738,1.909-15.682,5.439-.08.1-.16.193-.241.3a8.1,8.1,0,0,0-.971,3.177,61.277,61.277,0,0,0-.6,6.241c-.064,1.019-.112,2.1-.144,3.241-.08,2.326-.128,4.877-.136,7.556Z" transform="translate(-594.396 -150.894)" fill="#ffb878"/>
      <g id="Groupe_192" data-name="Groupe 192" transform="translate(49.894 38.613)">
        <path id="Tracé_2973" data-name="Tracé 2973" d="M645.39,195.037c17.247-3.265,36.972,1.147,47.865,4.324-.032-1.356-.1-2.519-.209-3.441-10.958-3.136-29.464-7.091-46.445-4.356-.08.1-.16.193-.241.3a8.1,8.1,0,0,0-.971,3.177Z" transform="translate(-644.508 -190.646)" fill="#e28a42"/>
        <path id="Tracé_2974" data-name="Tracé 2974" d="M644.46,206.992c14.664-2.1,35.135,1.444,48.451,4.412.048-1.147.088-2.246.112-3.3-13.332-2.96-33.362-6.361-48.419-4.356C644.54,204.77,644.492,205.853,644.46,206.992Z" transform="translate(-644.324 -193.12)" fill="#e28a42"/>
        <path id="Tracé_2975" data-name="Tracé 2975" d="M644.29,217.279v3.233c15.153-1.324,34.71,1.588,47.986,4.147.072-1.107.144-2.19.209-3.265C679.152,218.827,659.756,215.972,644.29,217.279Z" transform="translate(-644.29 -195.85)" fill="#e28a42"/>
        <path id="Tracé_2976" data-name="Tracé 2976" d="M644.36,229.13c.016,1.067.032,2.142.056,3.217,13.573.072,33.122,2.776,47.1,5.022.088-1.075.176-2.158.257-3.233-14.038-2.262-33.547-4.941-47.408-5.006Z" transform="translate(-644.304 -198.26)" fill="#e28a42"/>
        <path id="Tracé_2977" data-name="Tracé 2977" d="M644.67,242.71c.032,1.091.064,2.174.1,3.241,14.487,1.5,32.841,2.912,45.98,3.842.088-1.043.184-2.11.273-3.185-13.252-.955-31.83-2.382-46.349-3.9Z" transform="translate(-644.365 -200.946)" fill="#e28a42"/>
        <path id="Tracé_2978" data-name="Tracé 2978" d="M645.18,257.27c.048,1.147.1,2.254.144,3.313,11.3,2.382,25.156,3.032,36.892,3.032,2.663,0,5.222-.032,7.6-.088q.156-1.552.313-3.249c-13.067.3-31.252-.008-44.953-3.008Z" transform="translate(-644.466 -203.827)" fill="#e28a42"/>
        <path id="Tracé_2979" data-name="Tracé 2979" d="M645.72,269.43c.064,1.316.12,2.479.176,3.441a78.812,78.812,0,0,0,24.819,3.907,91.171,91.171,0,0,0,18.305-1.893c.1-.874.209-2.005.345-3.345C678.4,273.922,662.429,275.278,645.72,269.43Z" transform="translate(-644.573 -206.232)" fill="#e28a42"/>
      </g>
      <path id="Tracé_2980" data-name="Tracé 2980" d="M677.3,184.819c.9.128,2.808,1.356,2.856,2.262.152,2.848-5.326,5.214-10.348,4.813s-5.03-3.12-4.083-4.476C666.7,186.014,668.93,183.607,677.3,184.819Z" transform="translate(-598.54 -150.815)" fill="#c96f32"/>
      <path id="Tracé_2981" data-name="Tracé 2981" d="M667.06,176.495,668.841,187s2.848,1.636,9.458-2.078c0,0-2.7-8.1.706-13.436,0,0-.746-.016-1.941.032C677.063,171.521,675.379,177.546,667.06,176.495Z" transform="translate(-598.901 -148.243)" fill="#874538"/>
      <g id="Groupe_193" data-name="Groupe 193" transform="translate(63.008)">
        <path id="Tracé_2982" data-name="Tracé 2982" d="M662.076,152.1s-3.032-2.479-.289-3.289c0,0-1.155-3.032.168-3.53s2.679.722,3.417-.578,2.342-3.385,5.182-1.34,4.42-1.308,5.639-.225.473,2.832,2.463,3.1,3.85.722,3.4,2.719,1.741,2.126,1.845,3.337-.834,1.572-.914,2.607,1.388,1.476.858,3.032-2.037,1.332-1.917,2.447,1.107,3.586-.321,3.931-1.965,2.864-3.634,2.511-15.907-14.72-15.907-14.72Z" transform="translate(-660.638 -142.51)" fill="#0e3944"/>
        <path id="Tracé_2983" data-name="Tracé 2983" d="M679.951,162.119c.361,9.963-13.861,14.246-16.533,9.5-.858-1.524-1.7-5.744-2.013-8.655-.072-.658-.128-1.332-.152-2-.2-4.54.61-9.056,3.217-10.051,9.072-3.489,15.049-1.011,15.49,11.206Z" transform="translate(-660.754 -143.886)" fill="#a8604f"/>
        <path id="Tracé_2984" data-name="Tracé 2984" d="M672.234,161.219c.008.682-.289,1.235-.666,1.235s-.69-.545-.7-1.219.289-1.235.666-1.235S672.226,160.545,672.234,161.219Z" transform="translate(-662.662 -145.97)" fill="#1a4850"/>
        <path id="Tracé_2985" data-name="Tracé 2985" d="M664.494,161.949c.008.682-.289,1.235-.666,1.235s-.69-.545-.7-1.219.289-1.235.666-1.235S664.486,161.275,664.494,161.949Z" transform="translate(-661.131 -146.114)" fill="#1a4850"/>
        <path id="Tracé_2986" data-name="Tracé 2986" d="M675.288,163.96a1.293,1.293,0,1,1-1.516-.57A1.16,1.16,0,0,1,675.288,163.96Z" transform="translate(-663.054 -146.625)" fill="#db614d"/>
        <path id="Tracé_2987" data-name="Tracé 2987" d="M662.824,165.135a1.127,1.127,0,0,1-1.412.658c-.072-.658-.128-1.332-.152-2a1.573,1.573,0,0,1,.61.032,1.148,1.148,0,0,1,.955,1.3Z" transform="translate(-660.761 -146.718)" fill="#db614d"/>
        <path id="Tracé_2988" data-name="Tracé 2988" d="M672.734,156.908a.39.39,0,0,0,.345-.152.4.4,0,0,0-.072-.561,3.839,3.839,0,0,0-2.727-.586.4.4,0,0,0-.321.465.408.408,0,0,0,.465.329,3.016,3.016,0,0,1,2.094.425.36.36,0,0,0,.217.08Z" transform="translate(-662.481 -145.093)" fill="#0e3944"/>
        <path id="Tracé_2989" data-name="Tracé 2989" d="M662,158.31h.016a.4.4,0,0,0,.417-.385c.016-.3.73-.457,1.115-.473a.4.4,0,0,0,.385-.417.393.393,0,0,0-.417-.385c-.682.024-1.845.3-1.885,1.235a.4.4,0,0,0,.369.417Z" transform="translate(-660.834 -145.307)" fill="#0e3944"/>
        <path id="Tracé_2990" data-name="Tracé 2990" d="M664.818,166.64a4.891,4.891,0,0,0,1.011-.032l-.072-.594a2.2,2.2,0,0,1-1.725-.265.552.552,0,0,1-.16-.337,10.925,10.925,0,0,0,2.094-5.543l-.6-.04a10.553,10.553,0,0,1-2.029,5.286l-.056.064v.08a1.085,1.085,0,0,0,.321.906,1.845,1.845,0,0,0,1.211.473Z" transform="translate(-661.158 -145.936)" fill="#874538"/>
        <path id="Tracé_2991" data-name="Tracé 2991" d="M664.539,169.8s.241.409,2.382.136a14.553,14.553,0,0,0,3.505-.85s-.3,4.308-3.53,4.324c-2.671.016-2.35-3.618-2.35-3.618Z" transform="translate(-661.409 -147.768)" fill="#1a4850"/>
        <path id="Tracé_2992" data-name="Tracé 2992" d="M677.221,161.4s.209-3.61-1.973-5.7-.289-5.158-.289-5.158-8.752-1.484-12.65,2.062c0,0-2.912-5.126,5.415-7.22s21.859,4.38,10.492,21.947l1.853-6.08-2.848.16Z" transform="translate(-660.871 -143.004)" fill="#0e3944"/>
        <path id="Tracé_2993" data-name="Tracé 2993" d="M681.261,164.527s1.965-2.35,3.818-.939-1.2,5.719-3.177,5.575-.634-4.637-.634-4.637Z" transform="translate(-664.63 -146.591)" fill="#a8604f"/>
      </g>
      <path id="Tracé_2994" data-name="Tracé 2994" d="M685.361,244.26c-2.126-.032-3.329,9.746.834,10.773,0,0,4.981-10.677-.834-10.773Z" transform="translate(-602.137 -162.639)" fill="#c96f32"/>
      <g id="Groupe_194" data-name="Groupe 194" transform="translate(66.077 81.001)">
        <path id="Tracé_2995" data-name="Tracé 2995" d="M681.7,252.923c-.915.369-7.284,2.631-8.551,2.463a.454.454,0,0,1-.144-.024c-1.227-.241-2.607-1.444-3.465-1.757-.9-.329-1.2-1.179-1.981-1.757a5.459,5.459,0,0,1-1.275-2.342s-2.655-2.382-1.548-2.7c1.388-.393,2.96,1,2.96,1l3.441.586s4.131-1.628,3.955-2.463-1.885-.144-3.377-.273c-.987-.072-1.059-1.155-1.059-1.155l2.543-.642s3.714-.6,4.516-.273,3.73,2.182,3.73,2.182l5.5-.12,1.067,7.187s-5.4-.289-6.305.08Z" transform="translate(-664.464 -243.487)" fill="#a8604f"/>
        <path id="Tracé_2996" data-name="Tracé 2996" d="M673.462,256.846c-1.227-.241-2.607-1.444-3.465-1.757-.9-.329-1.2-1.179-1.981-1.757a5.459,5.459,0,0,1-1.276-2.342c.674.562,3.923,1.155,4.171,1.42s-.136.545-.024,1.091,1.267.561,1.2,1.147a1.122,1.122,0,0,0,.8,1.42.968.968,0,0,1,.578.77Z" transform="translate(-664.914 -244.972)" fill="#874538"/>
      </g>
      <path id="Tracé_2997" data-name="Tracé 2997" d="M700.49,194.418c-5.663,2.976-7.669,15.378-7.067,20.407l6.233,16.549s-1.219,2.23-.217,2.631l-13.589.385s3.481,3.626.834,10.773c0,0,17.768,5.326,25.373,0,2.2-1.54,3.385-5.936,2.832-9.145-3.9-22.677-14.391-41.608-14.391-41.608Z" transform="translate(-602.618 -152.777)" fill="#e28a42"/>
    </g>
    <g id="Groupe_201" data-name="Groupe 201" transform="translate(27.79 131.555)">
      <path id="Tracé_2998" data-name="Tracé 2998" d="M139.867,256.6c2.647.337-.441,10.845-4.5,10.172s-2.005-8.511-2.005-8.511,3.746-2.013,6.514-1.661Z" transform="translate(-48.573 -167.331)" fill="#a1b1b5"/>
      <g id="Groupe_196" data-name="Groupe 196" transform="translate(86.241 85.258)">
        <path id="Tracé_2999" data-name="Tracé 2999" d="M147.838,266.514a18.882,18.882,0,0,0-3.3-2.174c-2.3-.77-3.578-1.2-4.54-2.182s-4.693-.826-4.693-.826a11.916,11.916,0,0,1,2.952-5.84,6.935,6.935,0,0,0,2.439.337c1.155-.409,1.973-2.11,4.227-2.423a17.134,17.134,0,0,0,4.941-1.8s1.059.674.241,1.532-2.655,1.235-2.9,1.733a1.562,1.562,0,0,0-.112.3s0,.008-.016.024a1.33,1.33,0,0,0,.128,1.091.159.159,0,0,0,.048.072c.89,1.011,3.85,1.628,5.182,1.781,1.861.2,4.412.626,3.818,1.7s-1.476-.1-5.679.2l-.112.417c-.3.04,2.358,1.2,4.941,1.741,1.773.377.947,1.46.345,1.636s-2.326-.457-3.618-.714c-.85-.176-1.725-.377-2.254-.489l-.345.457c2.856,2.214,4.227,1.781,4.147,2.832s-2.647.3-3.57-.385a10.275,10.275,0,0,0-2.126-.963c1.853,2.118,2.984,2.07,2.735,2.888-.257.842-2.246-.217-2.88-.955Z" transform="translate(-135.3 -251.61)" fill="#ff8b66"/>
        <path id="Tracé_3000" data-name="Tracé 3000" d="M146.23,258.843c1.789-.385,2.872-2.479,2.992-2.743a1.33,1.33,0,0,0,.128,1.091,3.116,3.116,0,0,1-3.12,1.652Z" transform="translate(-137.462 -252.498)" fill="#ef6e4b"/>
      </g>
      <path id="Tracé_3001" data-name="Tracé 3001" d="M101.7,192.158c6.185,8.07,11.535,44.464,11.535,44.464s2.134-.369,2.013.89,17.15,6.337,17.15,6.337-6.425,3.128-4.5,10.171c0,0-20.062-3.12-25.782-5.663s-7.043-40.991-7.043-40.991L101.7,192.15Z" transform="translate(-41.101 -154.589)" fill="#cfd8dc"/>
      <g id="Groupe_197" data-name="Groupe 197" transform="translate(41.56 218.049)">
        <path id="Tracé_3002" data-name="Tracé 3002" d="M104.916,432.191a11.458,11.458,0,0,1-.088,1.484H79.6c0-.5.008-.995.032-1.484A46.584,46.584,0,0,1,82,419.861L88.3,417.15a10.106,10.106,0,0,0,3.7,6.682,8.765,8.765,0,0,0,1.444.922c.233.128.465.241.706.345a12.193,12.193,0,0,0,1.612.594,39.779,39.779,0,0,0,6.056,1.059c2.687.417,3.1,3.53,3.1,5.423Z" transform="translate(-79.6 -417.15)" fill="#0e3944"/>
        <path id="Tracé_3003" data-name="Tracé 3003" d="M104.916,435.9a11.457,11.457,0,0,1-.088,1.484H79.6c0-.5.008-.995.032-1.484Z" transform="translate(-79.6 -420.859)" fill="#adbec4"/>
        <path id="Tracé_3004" data-name="Tracé 3004" d="M95.815,426.412l-3.5,1.123-.738-1.283,2.8-.762a8.766,8.766,0,0,0,1.444.922Z" transform="translate(-81.97 -418.8)" fill="#adbec4"/>
        <path id="Tracé_3005" data-name="Tracé 3005" d="M98.81,427.672l-2.358,1.564L95,428.666l2.2-1.6a12.193,12.193,0,0,0,1.612.594Z" transform="translate(-82.647 -419.113)" fill="#adbec4"/>
      </g>
      <g id="Groupe_198" data-name="Groupe 198" transform="translate(9.197 215.209)">
        <path id="Tracé_3006" data-name="Tracé 3006" d="M56.963,431.49a6.217,6.217,0,0,1-.289,1.484H39.869a7.25,7.25,0,0,1-.473-1.484c-1.652-8.046,11.92-17.88,11.92-17.88l1.139,4.733s-.409,7.572,2.591,9.145a3.855,3.855,0,0,1,1.917,4.011Z" transform="translate(-39.256 -413.61)" fill="#0e3944"/>
        <path id="Tracé_3007" data-name="Tracé 3007" d="M39.438,435.9H57a6.217,6.217,0,0,1-.289,1.484H39.9a7.25,7.25,0,0,1-.473-1.484Z" transform="translate(-39.29 -418.02)" fill="#adbec4"/>
        <path id="Tracé_3008" data-name="Tracé 3008" d="M55.448,429.705s-7.083-1.612-10.308.473v-1.171s5.952-2.9,10.308.69Z" transform="translate(-40.42 -416.438)" fill="#adbec4"/>
        <path id="Tracé_3009" data-name="Tracé 3009" d="M54.044,427.468a11.537,11.537,0,0,0-8.9,0l.5-1.179s5.238-1.981,8.407,1.179Z" transform="translate(-40.42 -415.997)" fill="#adbec4"/>
      </g>
      <path id="Tracé_3010" data-name="Tracé 3010" d="M48.188,273.84c0,15.987-5.134,73.671-5.687,77.778-1.059,7.885-.465,21.522-1.917,29.881a86.432,86.432,0,0,0-1.155,17.07s8.712-7.043,13.645-1.813l2.038-7.131L53.6,384.01l2.856-8.254c-2.021-3.61,12.61-80.77,12.61-80.77l1.484-.249-.594,89.273V389.1a57.409,57.409,0,0,1,1.685,10.613l14.816-4.219-2.021-5.864,1.348-7.564L85.3,371.953s4.765-86.947,5.816-96.517L48.2,273.848Z" transform="translate(-30.083 -170.75)" fill="#8b383e"/>
      <path id="Tracé_3011" data-name="Tracé 3011" d="M48.6,260.24s4.083,3.538,24.041,3.153c15.41-.3,19.493-4.027,19.493-4.027s3.6-63.484-.361-68.633c-2.88-3.738-8.543-5.342-15.923-5.736-2.784-.144-5.808-.12-9.032.032a30.487,30.487,0,0,0-6.746,1.083c-8.262,2.3-14.054,7.725-14.928,11.976-1.107,5.334,3.457,62.16,3.457,62.16Z" transform="translate(-31.19 -153.155)" fill="#cfd8dc"/>
      <path id="Tracé_3012" data-name="Tracé 3012" d="M105.208,229.355c1.693,4.412.746,15.329-.842,18.2-1.8,3.257-10.027,1.8-10.027,1.8s.2-27.514-1.1-41.5-7.38-22.669-7.38-22.669,14.7.562,16.9,8.744a26.167,26.167,0,0,1,.521,11.968,13.93,13.93,0,0,1-.521,1.957.69.69,0,0,1,.128.008c.473.088,2.086.81,3.217,6.666,1.34,6.915-1.741,13.428-1.741,13.428a3.836,3.836,0,0,1,.842,1.4Z" transform="translate(-39.279 -153.21)" fill="#f24052"/>
      <path id="Tracé_3013" data-name="Tracé 3013" d="M91.214,197.3s2.527-8.407-.5-12.41-6.3-4.669-6.3-4.669,4.067,3.874,4.612,6.417,2.19,10.669,2.19,10.669Z" transform="translate(-38.994 -152.229)"/>
      <path id="Tracé_3014" data-name="Tracé 3014" d="M79.463,179.709c-4.308-1.291-14.768-3.273-20.054-1.107,0,0-.433,4.516,1.42,6.08s19.838-7.589,25.084,10.428c0,0,1.564-13-6.457-15.41Z" transform="translate(-34.037 -151.718)" fill="#b72e48"/>
      <path id="Tracé_3015" data-name="Tracé 3015" d="M67.247,222.425c-.2,23.118-2.9,29.736-2.9,29.736s-17.03,2.206-20.1-1.2,0-14.174,0-14.174a44.166,44.166,0,0,1-1.4-4.211h-.008c-.3-1.075-.626-2.3-.9-3.626-.281-1.308-.513-2.719-.674-4.155a15.282,15.282,0,0,1,1.275-8.23,9.411,9.411,0,0,1,1.067-1.8s-3.257-13.42-1.813-19.364a8.854,8.854,0,0,1,1.652-3.425C47.77,186.4,57.821,186.4,57.821,186.4c2.824.77,7.107,8.206,8.744,22.429h0a108.867,108.867,0,0,1,.682,13.6Z" transform="translate(-30.436 -153.451)" fill="#f24052"/>
      <path id="Tracé_3016" data-name="Tracé 3016" d="M80.05,176.812l-2.623,10.332s-2.968,1.4-9.257-2.84c0,0,3.337-7.861.385-13.444,0,0,.746.048,1.933.185,0,0,1.187,6.145,9.57,5.768Z" transform="translate(-35.779 -150.377)" fill="#ef6e4b"/>
      <g id="Groupe_199" data-name="Groupe 199" transform="translate(28.387)">
        <path id="Tracé_3017" data-name="Tracé 3017" d="M68.17,161.295c-.12,12.225,11.631,13.982,14.68,9.466A20.408,20.408,0,0,0,85.28,163.8c.128-.65.233-1.316.313-1.981.57-4.508.128-9.073-2.39-10.276-8.76-4.211-14.912-2.471-15.033,9.754Z" transform="translate(-64.166 -146.146)" fill="#ff8b66"/>
        <path id="Tracé_3018" data-name="Tracé 3018" d="M78.8,161.383c-.064.674.193,1.251.57,1.291s.73-.481.794-1.163-.193-1.251-.57-1.292S78.862,160.7,78.8,161.383Z" transform="translate(-66.267 -148.272)" fill="#1a4850"/>
        <path id="Tracé_3019" data-name="Tracé 3019" d="M86.458,162.743c-.064.674.193,1.251.57,1.292s.73-.481.794-1.163-.193-1.251-.57-1.292S86.522,162.061,86.458,162.743Z" transform="translate(-67.782 -148.541)" fill="#1a4850"/>
        <path id="Tracé_3020" data-name="Tracé 3020" d="M75.264,163.861a1.293,1.293,0,1,0,1.556-.441A1.154,1.154,0,0,0,75.264,163.861Z" transform="translate(-65.557 -148.881)" fill="#db614d"/>
        <path id="Tracé_3021" data-name="Tracé 3021" d="M87.806,166.062a1.126,1.126,0,0,0,1.356.77c.128-.65.233-1.316.313-1.981a1.553,1.553,0,0,0-.61-.016,1.153,1.153,0,0,0-1.059,1.219Z" transform="translate(-68.048 -149.181)" fill="#db614d"/>
        <path id="Tracé_3022" data-name="Tracé 3022" d="M78.2,157.041a.478.478,0,0,0,.225-.064,3.045,3.045,0,0,1,2.118-.257.4.4,0,1,0,.2-.778,3.8,3.8,0,0,0-2.767.361.4.4,0,0,0-.112.553.388.388,0,0,0,.337.176Z" transform="translate(-66.071 -147.403)" fill="#ffb878"/>
        <path id="Tracé_3023" data-name="Tracé 3023" d="M89.03,159.294a.4.4,0,0,0,.4-.385c.032-.931-1.107-1.308-1.781-1.38a.4.4,0,1,0-.088.794c.377.048,1.083.257,1.075.562a.408.408,0,0,0,.385.417h.016Z" transform="translate(-67.932 -147.739)" fill="#ffb878"/>
        <path id="Tracé_3024" data-name="Tracé 3024" d="M85.375,167.437a5.1,5.1,0,0,1-1.021-.116l.151-.735c1.09.225,1.524.025,1.685-.113a.484.484,0,0,0,.156-.247,11,11,0,0,1-1.641-5.713l.75.015h0a10.362,10.362,0,0,0,1.586,5.386l.06.087.006.106a1.2,1.2,0,0,1-.427.934A1.944,1.944,0,0,1,85.375,167.437Z" transform="translate(-67.383 -148.331)" fill="#db614d"/>
        <path id="Tracé_3025" data-name="Tracé 3025" d="M84.688,170.469a22.407,22.407,0,0,0-2.519-.6c-2.11-.441-3.289-.578-3.289-.578a3.233,3.233,0,0,0,3.289,2.952c2.663.233,2.519-1.773,2.519-1.773Z" transform="translate(-66.285 -150.066)" fill="#1a4850"/>
        <path id="Tracé_3026" data-name="Tracé 3026" d="M84.116,153.022s2.816-.433,3.882-2.366a5.609,5.609,0,0,1-1.941,0,3.055,3.055,0,0,0,.874-3.209s-2.8.4-3.842,0l1.516-1.139a20.031,20.031,0,0,1-5.15-.537c-2.96-.666-9.161-.939-12.843,1.8S60.5,163.081,68.538,168.6l-.489-2.792s-1.372-2.519-.842-4.26,1.492-.337,1.492-.337,2.784-4.5,2.784-7.468v-2.96s8.816-2.013,12.626,2.238Z" transform="translate(-63.179 -145.325)" fill="#ffb878"/>
        <path id="Tracé_3027" data-name="Tracé 3027" d="M68.671,163.917s-1.765-2.495-3.73-1.243.73,5.792,2.719,5.816S68.671,163.917,68.671,163.917Z" transform="translate(-63.392 -148.688)" fill="#ff8b66"/>
      </g>
      <path id="Tracé_3028" data-name="Tracé 3028" d="M67.5,195.314s2.727-8.776,1.893-11.527-9.458-5.824-10.26-4.981-1.7,3.313-.85,6.289c0,0,5.358.834,9.225,10.228Z" transform="translate(-33.755 -151.921)"/>
      <path id="Tracé_3029" data-name="Tracé 3029" d="M66.64,210.2h0c-2.559,3.329-17.768,3.489-17.768,3.489S38.845,228.4,46.064,232.945c7.083,4.46,19.765,1.324,20.231,1.211-2.8,2.294-20.319,3.85-23.375-.209h-.008a2.427,2.427,0,0,1-.321-.6,12.129,12.129,0,0,1-.578-3.024,67.1,67.1,0,0,1,.6-12.385,9.411,9.411,0,0,1,1.067-1.8s-3.257-13.42-1.813-19.364a8.854,8.854,0,0,1,1.652-3.425c9.008.217,9.762,16.854,9.762,16.854,2.5.906,13,.032,13.356,0h0Z" transform="translate(-30.503 -154.826)"/>
      <path id="Tracé_3030" data-name="Tracé 3030" d="M44.125,306.331c.12,2.1-9.819,6.241-10.228,3.209S43.828,301.013,44.125,306.331Z" transform="translate(-28.996 -176.737)" fill="#a1b1b5"/>
      <g id="Groupe_200" data-name="Groupe 200" transform="translate(5.454 124.805)">
        <path id="Tracé_3031" data-name="Tracé 3031" d="M35.793,307.528c-.168.963-1.075,7.669-.65,8.872a.983.983,0,0,0,.056.136c.489,1.155,1.949,2.254,2.431,3.032.505.81,1.4.939,2.126,1.58a5.445,5.445,0,0,0,2.551.762s2.88,2.11,2.96.963c.1-1.436-1.588-2.687-1.588-2.687L42.4,316.945s.746-4.372,1.6-4.372.529,1.813.963,3.249a1.222,1.222,0,0,0,1.348.8l.1-2.623s-.168-3.762-.658-4.476-2.9-3.209-2.9-3.209l-1.011-5.407-7.252.433s1.4,5.222,1.211,6.185Z" transform="translate(-34.59 -300.91)" fill="#ff8b66"/>
        <path id="Tracé_3032" data-name="Tracé 3032" d="M35.35,320.388c.489,1.155,1.949,2.254,2.431,3.032.505.81,1.4.939,2.126,1.58a5.444,5.444,0,0,0,2.551.762c-.69-.545-1.933-3.6-2.246-3.794s-.505.249-1.067.249-.81-1.123-1.372-.939a1.125,1.125,0,0,1-1.556-.5.931.931,0,0,0-.866-.4Z" transform="translate(-34.74 -304.762)" fill="#ef6e4b"/>
      </g>
      <path id="Tracé_3033" data-name="Tracé 3033" d="M42.261,194.418c5.663,2.976,7.669,15.378,7.067,20.407l-8.022,24.442s-.2,2.84-1.2,3.241l2.808,42.114c-.81-1.6-9.064-.3-10.228,3.209,0,0-5.623-40.654-4.813-51.812.16-2.214,14.391-41.608,14.391-41.608Z" transform="translate(-27.79 -155.036)" fill="#cfd8dc"/>
      <path id="Tracé_3034" data-name="Tracé 3034" d="M96.18,212.957A27.741,27.741,0,0,0,105.325,211a13.927,13.927,0,0,1-.521,1.957S99.252,213.671,96.18,212.957Z" transform="translate(-41.32 -158.318)"/>
      <path id="Tracé_3035" data-name="Tracé 3035" d="M107.746,239.9a42.21,42.21,0,0,1-9.056-.441s5.872.064,8.214-.963A3.836,3.836,0,0,1,107.746,239.9Z" transform="translate(-41.817 -163.758)"/>
    </g>
    <g id="Groupe_205" data-name="Groupe 205" transform="translate(127.196 158.546)">
      <path id="Tracé_3036" data-name="Tracé 3036" d="M172.5,236.374c-.634-1.179-5.824,5.1-4.356,8.96s4.356,3.209,4.356,3.209S174.339,239.791,172.5,236.374Z" transform="translate(-154.912 -190.3)" fill="#c96f32"/>
      <g id="Groupe_202" data-name="Groupe 202" transform="translate(0 36.681)">
        <path id="Tracé_3037" data-name="Tracé 3037" d="M162.78,224.7l2.864,3.409c2.872,3.409,2.15,3.682,1.612,6.024-.505,2.19-4.6,1.709-6.241,1.051-1.38-.546-5.07.3-6.088-.465-.409-.3,0-.473,1.187-.594a8.887,8.887,0,0,0,2.631-.746c-.882-1.292-5.88-.281-6.61-1.8-.353-.746,5.623.578,6.193-.193,0,0-.273-.5-3.152-1.38-1.652-.513-3.361-1.019-3.457-1.572-.168-1.011,3.1.658,7.26,1.027,0,0-1.677-.858-3.289-1.556-1.468-.626-2.912-1.059-2.567-1.685.281-.513,2.543.521,4.019,1.131a17.922,17.922,0,0,0,6.161,1.4,5.714,5.714,0,0,0,.874-.016c-2.631-3.714-1.4-4.027-1.4-4.027Z" transform="translate(-151.712 -224.7)" fill="#ff8b66"/>
        <path id="Tracé_3038" data-name="Tracé 3038" d="M167.013,229.71a4.042,4.042,0,0,0,.77,3.016,2.421,2.421,0,0,1-1.644-3,5.711,5.711,0,0,0,.874-.016Z" transform="translate(-154.549 -225.691)" fill="#ef6e4b"/>
      </g>
      <path id="Tracé_3039" data-name="Tracé 3039" d="M170.979,233.2l2.776,6.73L171,246.356s-2.078-7.637-2.808-10.043S170.979,233.2,170.979,233.2Z" transform="translate(-154.953 -189.7)" fill="#ff8b66"/>
      <path id="Tracé_3040" data-name="Tracé 3040" d="M202.535,220.21s-9.634,3.5-12.514,6.177l-7.829,24.242s-.265-1.693-.8-1l-8.824-16.42s-.144,8.96-4.356,8.96c0,0,8.631,23.8,13.444,25.132s13.1-19.661,13.1-19.661l7.773-27.426Z" transform="translate(-154.976 -187.13)" fill="#f2a668"/>
      <path id="Tracé_3041" data-name="Tracé 3041" d="M181.058,286.37c3.979-4.219,37.2-1.316,40.83,2.495s-5.358-50.288-5.358-50.288-16.372-1.508-17.295,2.775c-4.813,22.461-18.185,45.018-18.185,45.018Z" transform="translate(-157.516 -190.713)" fill="#c96f32"/>
      <path id="Tracé_3042" data-name="Tracé 3042" d="M215.508,216.214s6.153-2.719,11.647-.69l.947,7.821s-13.067,4.765-17.295,3.361S205.449,221.958,215.508,216.214Z" transform="translate(-162.791 -186.055)" fill="#c96f32"/>
      <path id="Tracé_3043" data-name="Tracé 3043" d="M161.27,431.939c1.5-1.211,5.358-6.409,6.145-9.024,1.123-3.69,2.447-8.76,3.8-14.295h5.768c-1.893,6.032-3.1,11.07-3.65,13.348a4.068,4.068,0,0,0,.217,1.067c.16.554.481,8.952.481,8.952H161.11c.048-.016.088-.024.112-.032a.047.047,0,0,0,.04-.016Z" transform="translate(-153.571 -224.404)" fill="#ef6e4b"/>
      <path id="Tracé_3044" data-name="Tracé 3044" d="M214.6,408.63h6.818c-1.275,7.027-2.27,13-2.27,13V432H211.71c.714-3.1,2.784-12.41,2.784-16.332,0-2.3.04-4.661.1-7.035Z" transform="translate(-163.582 -224.406)" fill="#ff8b66"/>
      <path id="Tracé_3045" data-name="Tracé 3045" d="M171.71,388.2c4.051-15.6,9.073-39.218,9.722-43.133.425-2.527.794-10.548,1.8-20.4.257-11.23,1.556-36.908,7.861-51.491l14.848.345c-.6,11.575,10.621,24.065-3.04,37.461-1.781,5-7.677,21.955-8.535,29.423-1.011,8.808-2.655,12.714-7.749,22.549-4.412,8.511-7.532,18.426-9.4,25.252h-5.5Z" transform="translate(-155.668 -197.61)" fill="#ef6e4b"/>
      <path id="Tracé_3046" data-name="Tracé 3046" d="M226.824,323.973h0c-.955,4.933-2.3,8.23-3.048,12.377-1.083,6.04,2,14.792-1.107,24.522-1.468,4.6-4.211,19.814-5.679,28.228H211.35v-.241c0-20.471,2.824-44.881,2.407-54.162-.176-3.915-.842-9.458-1.548-14.511,0-.024-2.182-14.68-4.308-15.907-8.712-5.038-12.041-31.1-12.041-31.1l22.228,1.035s12.947,10.757,9.546,29.913c0,0,.016.193.032.537.545,9.016.008,14.832-.85,19.308Z" transform="translate(-160.446 -197.61)" fill="#ff8b66"/>
      <path id="Tracé_3047" data-name="Tracé 3047" d="M173.442,435.333s.57-7.685-.931-9.69c0,0-1.66,2.639-3.939,2.639-1.476,0-2.078-3.4-3.345-2.639-1.107.674-1.861,2.591-4.837,4.556s-5.407,1.4-5.591,5.134Z" transform="translate(-152.323 -227.75)"/>
      <path id="Tracé_3048" data-name="Tracé 3048" d="M219.953,427.2s-.1-2.551-3.634-2.254-3.289,2.864-3.289,2.864a.8.8,0,0,0-1,0c-.465.417-.072,3.955-.971,4.7s-.618,2.7-.618,2.7h10.348s.562-2.519-.465-3.449,1.588-4.284-.369-4.564Z" transform="translate(-163.322 -227.629)"/>
      <path id="Tracé_3049" data-name="Tracé 3049" d="M218.152,254.7c2.639,6.49,10.805,29.255,8.134,59.689,0,0-7.958,5.006-25.06,4.436-18.506-.618-23.046-6.506-23.046-6.506,7.26-28.365,16.669-61.759,16.669-61.759-10.252-17.5,7.661-29.76,7.661-29.76s.128-.048.369-.128c2.35-.786,15.386-4.773,23.9.674a13.5,13.5,0,0,1,1.612,1.2c9.169,7.861-10.236,32.159-10.236,32.159Z" transform="translate(-156.948 -186.798)"/>
      <g id="Groupe_203" data-name="Groupe 203" transform="translate(42.815)">
        <path id="Tracé_3050" data-name="Tracé 3050" d="M233.929,187.436s3.923-4.027,7.709-.545-.193,10.613,0,11.92,3.257,1.636,2.527,3.281-2.711,1.909-2.527,2.711,2.054,2.094,1.251,2.92-2.559-.032-2.415,1.4,1.075,3.3-.658,3.433c0,0,1.34-1.6.136-2.142s-2.134.056-2.671-1.644,1.949-2.366.834-3.3-3.562-.939-2.406-2.407,1.564-2.808-.578-4.051-1.2-11.583-1.2-11.583Z" transform="translate(-210.751 -180.258)" fill="#8b383e"/>
        <path id="Tracé_3051" data-name="Tracé 3051" d="M211.974,185.48c-4.42-.112-4.709,9.57.594,14.712S219.185,185.664,211.974,185.48Z" transform="translate(-205.786 -180.259)" fill="#8b383e"/>
        <path id="Tracé_3052" data-name="Tracé 3052" d="M227.413,184.051s-13.172-4.412-15.827,4.861-.241,19.059,5.936,18.4c8.7-.922,20.118-18.049,9.883-23.263Z" transform="translate(-206.161 -179.77)" fill="#ff8b66"/>
        <path id="Tracé_3053" data-name="Tracé 3053" d="M222.688,200.332a1.3,1.3,0,1,1-1.364-.874A1.163,1.163,0,0,1,222.688,200.332Z" transform="translate(-208.069 -183.023)" fill="#db614d"/>
        <path id="Tracé_3054" data-name="Tracé 3054" d="M221.5,193.107a.253.253,0,0,1-.217-.128,1.817,1.817,0,0,0-1.62-.754.266.266,0,0,1-.3-.241.278.278,0,0,1,.241-.3,2.374,2.374,0,0,1,2.142,1,.279.279,0,0,1-.08.377.231.231,0,0,1-.16.04Z" transform="translate(-207.912 -181.485)" fill="#8b383e"/>
        <path id="Tracé_3055" data-name="Tracé 3055" d="M213.889,191.458a.255.255,0,0,1-.16-.064,1.81,1.81,0,0,0-1.773-.225.27.27,0,0,1-.361-.144.28.28,0,0,1,.136-.361,2.343,2.343,0,0,1,2.342.3.277.277,0,0,1,.032.385.255.255,0,0,1-.225.1Z" transform="translate(-206.37 -181.248)" fill="#8b383e"/>
        <path id="Tracé_3056" data-name="Tracé 3056" d="M212.8,203.82s1.989,1.283,5.463.16c0,0-1.043,4.115-3.257,3.594S212.8,203.82,212.8,203.82Z" transform="translate(-206.612 -183.888)" fill="#1a4850"/>
        <path id="Tracé_3057" data-name="Tracé 3057" d="M225.04,190.019a15.024,15.024,0,0,1,2.864,8.832s2.214-2.711,3.369-.353-3.473,5.792-3.473,5.792,7.452.417,8.335-9.225c.369-4.059-4.9-7.773-11.086-5.046Z" transform="translate(-209.034 -180.973)" fill="#8b383e"/>
        <path id="Tracé_3058" data-name="Tracé 3058" d="M225.789,205.438c-1.011,2.719-4.885,7.436-8.992,6.088,0,0,1.035,4.059-.674,5.535,0,0-1.8,3.136,2.3,3.586a9,9,0,0,0,7.99-3.586c-2.238-4.981.834-11.126.834-11.126a.9.9,0,0,1-1.468-.505Z" transform="translate(-207.192 -184.207)" fill="#ef6e4b"/>
        <path id="Tracé_3059" data-name="Tracé 3059" d="M213.348,201.36l.241-.553a1.03,1.03,0,0,1-.618-1.316A.808.808,0,0,1,213.4,199a1.037,1.037,0,0,1,.7.08l.289-.529a1.635,1.635,0,0,0-1.179-.128,1.352,1.352,0,0,0-.794.826,1.6,1.6,0,0,0,.931,2.094Z" transform="translate(-206.511 -182.808)" fill="#db614d"/>
        <path id="Tracé_3060" data-name="Tracé 3060" d="M220.565,197.315c-.04.594-.377,1.051-.746,1.027s-.65-.521-.61-1.115.377-1.051.746-1.027S220.6,196.721,220.565,197.315Z" transform="translate(-207.88 -182.38)" fill="#1a4850"/>
        <path id="Tracé_3061" data-name="Tracé 3061" d="M220.606,196.984s-.313-1.364-.794-1.4-1.291.874-1.291.874l-.89-.65.858.337s.738-1.035,1.412-.826.714,1.66.714,1.66Z" transform="translate(-207.568 -182.202)" fill="#1a4850"/>
        <path id="Tracé_3062" data-name="Tracé 3062" d="M213.725,196.255c-.04.594-.377,1.051-.746,1.027s-.65-.521-.61-1.115.377-1.051.746-1.027S213.765,195.661,213.725,196.255Z" transform="translate(-206.526 -182.171)" fill="#1a4850"/>
        <path id="Tracé_3063" data-name="Tracé 3063" d="M213.766,195.924s-.313-1.364-.794-1.4-1.291.874-1.291.874l-.89-.65.858.337s.738-1.035,1.412-.826.714,1.661.714,1.661Z" transform="translate(-206.215 -181.992)" fill="#1a4850"/>
        <path id="Tracé_3064" data-name="Tracé 3064" d="M217.756,185.34s-1.989,10.452,6.193,11.511c0,0,2.928-4.973,6.786-1.492,0,0,4.123-11.335-5.591-13.156,0,0-1.885-4.34-9.45-2.96-10.565,1.925-13.5,14.7-7.621,27.306C208.073,206.549,202.907,183.848,217.756,185.34Z" transform="translate(-205.087 -178.972)" fill="#8b383e"/>
      </g>
      <path id="Tracé_3065" data-name="Tracé 3065" d="M232.292,221.345c-1.107.61-2.423,1.259-3.971,1.949-28.2,12.618-21.578.794-21.578.794a4.363,4.363,0,0,1,.794-2.382,6,6,0,0,1,.858-1.035c2.3-.77,14.848-4.612,23.359.353C231.939,221.12,232.116,221.233,232.292,221.345Z" transform="translate(-162.465 -186.798)" fill="#ef6e4b"/>
      <path id="Tracé_3066" data-name="Tracé 3066" d="M232.292,221.961c-1.107.61-2.423,1.259-3.971,1.949-28.2,12.618-21.578.794-21.578.794a4.363,4.363,0,0,1,.794-2.382,33.921,33.921,0,0,0,3.81,1.588l.449,1.733,2.406-1.556a63.008,63.008,0,0,0,17.551-2.447C231.939,221.736,232.116,221.849,232.292,221.961Z" transform="translate(-162.465 -187.413)" fill="#ff8b66"/>
      <path id="Tracé_3067" data-name="Tracé 3067" d="M228.492,218.53a42.109,42.109,0,0,0-13.019,17c-4.813,11.311,8.623,58.687,8.623,58.687a62.314,62.314,0,0,0,15.241-6.465l-9.827-33.29S240.14,232.4,240.34,228.79c0,0-1.829-7.893-11.848-10.26Z" transform="translate(-164.12 -186.798)" fill="#ffb878"/>
      <path id="Tracé_3068" data-name="Tracé 3068" d="M231.715,218.678s1.243,3.947.329,12.265a9.826,9.826,0,0,0-6.129-1.34,46.9,46.9,0,0,0-10.091,28.437s-4.243-16.38-1.187-24.7,13.669-17.632,13.669-17.632l3.4,2.968Z" transform="translate(-163.942 -186.24)" fill="#f2a668"/>
      <path id="Tracé_3069" data-name="Tracé 3069" d="M205.048,220.21S196.2,232.98,196,237.368s0,18.594,0,18.594l-14.84,30.514s-2.928-6.81,11.367-29.776c0,0-1.741-14.736-.939-19.348S196.4,223.627,205.048,220.21Z" transform="translate(-157.489 -187.13)" fill="#ffb878"/>
      <path id="Tracé_3070" data-name="Tracé 3070" d="M199.487,255.242s-.136-18.249,2.792-25.653,11.415-13.019,11.415-13.019-10.637,3.5-14.7,12.538a5.8,5.8,0,0,1,2.005-.2s-4.412,4.243-1.5,26.335Z" transform="translate(-160.968 -186.41)" fill="#f2a668"/>
      <path id="Tracé_3071" data-name="Tracé 3071" d="M244.208,231.32s8.712,33.49,6.064,36.3-5.88,7.941-10.677-2.84a69.789,69.789,0,0,1-5.615-19.709s4.612-13.549,10.228-13.749Z" transform="translate(-167.987 -189.328)" fill="#f2a668"/>
      <path id="Tracé_3072" data-name="Tracé 3072" d="M238.88,250.541s6.113-.144,7.556-4.155C246.436,246.385,241.72,244.717,238.88,250.541Z" transform="translate(-168.957 -192.265)" fill="#c96f32"/>
      <path id="Tracé_3073" data-name="Tracé 3073" d="M239.43,239.72l2.166,8.888s3.682-.786,4.484-3.193l-1.6-5.7Z" transform="translate(-169.066 -190.99)" fill="#ff8b66"/>
      <g id="Groupe_204" data-name="Groupe 204" transform="translate(70.178 38.034)">
        <path id="Tracé_3074" data-name="Tracé 3074" d="M241.381,228.555l-1.42,4.219c-1.428,4.219-.658,4.211.7,6.193,1.267,1.853,4.909-.088,6.193-1.3,1.091-1.019,4.829-1.572,5.495-2.655.273-.433-.168-.441-1.324-.112a8.787,8.787,0,0,1-2.719.265c.345-1.524,5.375-2.415,5.495-4.1.056-.818-5.022,2.591-5.832,2.086,0,0,.072-.561,2.431-2.439,1.356-1.075,2.751-2.174,2.639-2.727-.209-1-2.655,1.749-6.385,3.61,0,0,1.243-1.412,2.487-2.647,1.139-1.123,2.318-2.046,1.773-2.511-.449-.377-2.182,1.42-3.321,2.519a17.743,17.743,0,0,1-5.23,3.546,6.265,6.265,0,0,1-.818.3c1.091-4.42-.168-4.259-.168-4.259Z" transform="translate(-239.197 -226.386)" fill="#ff8b66"/>
        <path id="Tracé_3075" data-name="Tracé 3075" d="M242.13,234.325a4.046,4.046,0,0,1,.385,3.088,2.418,2.418,0,0,0,.433-3.393,6.264,6.264,0,0,1-.818.3Z" transform="translate(-239.778 -227.897)" fill="#ef6e4b"/>
      </g>
    </g>
    <g id="Groupe_208" data-name="Groupe 208" transform="translate(412.165 158.546)">
      <path id="Tracé_3076" data-name="Tracé 3076" d="M594.154,431.939c-1.5-1.211-5.358-6.409-6.145-9.024-1.123-3.69-2.447-8.76-3.8-14.295H578.44c1.893,6.032,3.1,11.07,3.65,13.348a4.066,4.066,0,0,1-.217,1.067c-.16.554-.481,8.952-.481,8.952h12.923c-.048-.016-.088-.024-.112-.032a.047.047,0,0,1-.04-.016Z" transform="translate(-521.101 -224.404)" fill="#ef6e4b"/>
      <path id="Tracé_3077" data-name="Tracé 3077" d="M578.259,388.2c-4.051-15.6-9.073-39.218-9.722-43.133-.425-2.527-.794-10.548-1.8-20.4-.257-11.23-1.556-36.908-7.861-51.491l-14.848.345c.6,11.575-10.621,24.065,3.04,37.461,1.781,5,7.677,21.955,8.535,29.423,1.011,8.808,2.655,12.714,7.749,22.549,4.412,8.511,7.532,18.426,9.4,25.252h5.5Z" transform="translate(-513.548 -197.61)" fill="#ef6e4b"/>
      <path id="Tracé_3078" data-name="Tracé 3078" d="M581.274,435.333s-.57-7.685.93-9.69c0,0,1.66,2.639,3.939,2.639,1.476,0,2.078-3.4,3.345-2.639,1.107.674,1.861,2.591,4.837,4.556s5.407,1.4,5.591,5.134H581.274Z" transform="translate(-521.641 -227.75)" fill="#0e3944"/>
      <path id="Tracé_3079" data-name="Tracé 3079" d="M542.348,408.63H535.53c1.275,7.027,2.27,13,2.27,13V432h7.436c-.714-3.1-2.784-12.41-2.784-16.332,0-2.3-.04-4.661-.1-7.035Z" transform="translate(-512.612 -224.406)" fill="#ff8b66"/>
      <path id="Tracé_3080" data-name="Tracé 3080" d="M524.538,323.973h0c.955,4.933,2.3,8.23,3.04,12.377,1.083,6.04-2,14.792,1.107,24.522,1.468,4.6,4.211,19.814,5.679,28.228H540v-.241c0-20.471-2.824-44.881-2.406-54.162.176-3.915.842-9.458,1.548-14.511,0-.024,2.182-14.68,4.308-15.907,8.712-5.038,12.041-31.1,12.041-31.1l-22.228,1.035s-12.947,10.757-9.546,29.913c0,0-.016.193-.032.537-.545,9.016-.008,14.832.85,19.308Z" transform="translate(-510.163 -197.61)" fill="#ff8b66"/>
      <path id="Tracé_3081" data-name="Tracé 3081" d="M536.786,427.2s.1-2.551,3.634-2.254,3.289,2.864,3.289,2.864a.8.8,0,0,1,1,0c.465.417.072,3.955.971,4.7s.618,2.7.618,2.7H535.952s-.562-2.519.465-3.449-1.588-4.284.369-4.564Z" transform="translate(-512.665 -227.629)" fill="#0e3944"/>
      <path id="Tracé_3082" data-name="Tracé 3082" d="M575.105,368.944a16.377,16.377,0,0,1-8.519.955v-1.2s-10.332-19.252-11.335-32.488c0,0-2.27-5.872-4.645-13.115-.65-1.989-1.307-4.091-1.933-6.193a84.749,84.749,0,0,1-3.249-14.656c-1-11.158,1.717-40.181,1.717-40.181l10.147-.257.778-.016s3.136,6.113,6.056,18.1a190.043,190.043,0,0,1,4.965,44.9l6.016,44.151Z" transform="translate(-514.526 -195.356)" fill="#8b383e"/>
      <path id="Tracé_3083" data-name="Tracé 3083" d="M545.424,302.719s-4.043,33.226-5.19,69.628c0,0-6.225,1.027-9.971,0v-2.366s-6.425-22.092-4.949-35.648c0,0-7.3-19.781-2.278-48.395A123.513,123.513,0,0,1,529.34,263.2l4.284-.393,14.1-1.291s11.246,19.132-2.3,41.2Z" transform="translate(-509.791 -195.303)" fill="#8b383e"/>
      <path id="Tracé_3084" data-name="Tracé 3084" d="M536.706,264.012s-4.115,18.081-13.236,22.244a123.522,123.522,0,0,1,6.3-22.733l4.284-.393a13.851,13.851,0,0,1,2.647.882Z" transform="translate(-510.226 -195.621)" fill="#662c33"/>
      <path id="Tracé_3085" data-name="Tracé 3085" d="M567.1,279.895a6.977,6.977,0,0,1-1.717-2.912c-1.075-3.746-3.995-12.024-5.118-15.177l.778-.016s3.136,6.112,6.056,18.1Z" transform="translate(-517.507 -195.356)" fill="#662c33"/>
      <path id="Tracé_3086" data-name="Tracé 3086" d="M554.094,314.261a22.95,22.95,0,0,0-2.631,8.92c-.65-1.989-1.308-4.091-1.933-6.193a169.355,169.355,0,0,0,2.326-22.806,196.306,196.306,0,0,0-1.652-31.654l1.139-.289s6.217,22.164.521,37.405c.233-.249,3.939-4.38,4.982-8.006,0,0,1.717,15.434-2.751,22.621Z" transform="translate(-515.382 -195.445)" fill="#662c33"/>
      <g id="Groupe_206" data-name="Groupe 206" transform="translate(73.067 66.297)">
        <path id="Tracé_3087" data-name="Tracé 3087" d="M607.05,261.62l-4.26,1.291c-4.268,1.284-3.81,1.909-4.637,4.163-.778,2.11,2.92,3.947,4.653,4.292,1.46.3,4.083,3.024,5.35,2.936.513-.032.257-.393-.674-1.147a8.859,8.859,0,0,1-1.8-2.062c1.444-.6,5.086,2.976,6.53,2.1.7-.425-5.03-2.591-5.086-3.546,0,0,.505-.265,3.4.562,1.661.473,3.369.979,3.754.57.69-.754-2.96-1.147-6.642-3.1,0,0,1.877.193,3.6.5,1.572.281,3.016.706,3.072-.008.048-.586-2.423-.955-3.987-1.243a17.926,17.926,0,0,1-5.928-2.2,6.293,6.293,0,0,1-.722-.489c4.235-1.677,3.369-2.607,3.369-2.607Z" transform="translate(-598.048 -261.62)" fill="#ff8b66"/>
        <path id="Tracé_3088" data-name="Tracé 3088" d="M604.514,264.868a4.056,4.056,0,0,1-2.294,2.1,2.425,2.425,0,0,0,3.016-1.62,6.3,6.3,0,0,1-.722-.489Z" transform="translate(-598.873 -262.261)" fill="#ef6e4b"/>
      </g>
      <path id="Tracé_3089" data-name="Tracé 3089" d="M550.38,221.2c7.107,1.893,8.31,6.129,15.73,29.784a26.374,26.374,0,0,1,8.423,1.853c4.211,1.749,17.431,3.818,17.431,3.818l-1.187,3.313s-23.792.128-27.073-1.532-10.99-21.306-10.99-21.306l-2.326-15.915Z" transform="translate(-515.55 -187.326)" fill="#ff8b66"/>
      <path id="Tracé_3090" data-name="Tracé 3090" d="M528.209,254.7c17.231,3.9,23.993-1.476,23.993-1.476,10.252-17.5-8.351-32.424-8.351-32.424s-.128-.048-.369-.128c-2.35-.786-15.386-4.773-23.9.674a13.508,13.508,0,0,0-1.612,1.2C508.8,230.4,528.209,254.7,528.209,254.7Z" transform="translate(-508.652 -186.798)" fill="#8bbddb"/>
      <g id="Groupe_207" data-name="Groupe 207" transform="translate(9.769)">
        <path id="Tracé_3091" data-name="Tracé 3091" d="M544.32,207.092s-12.121-3.377-21.971,1.612c0,0-11.182-27.274,8.2-26.985s15.506,20.519,13.773,25.381Z" transform="translate(-519.139 -179.515)" fill="#ffb878"/>
        <path id="Tracé_3092" data-name="Tracé 3092" d="M526.765,184.051s13.172-4.412,15.827,4.861.241,19.059-5.936,18.4c-8.7-.922-20.118-18.049-9.883-23.263Z" transform="translate(-519.85 -179.77)" fill="#ff8b66"/>
        <path id="Tracé_3093" data-name="Tracé 3093" d="M536.029,200.332a1.3,1.3,0,1,0,1.364-.874A1.163,1.163,0,0,0,536.029,200.332Z" transform="translate(-522.48 -183.023)" fill="#db614d"/>
        <path id="Tracé_3094" data-name="Tracé 3094" d="M537.238,193.107a.253.253,0,0,0,.217-.128,1.817,1.817,0,0,1,1.62-.754.266.266,0,0,0,.3-.241.278.278,0,0,0-.241-.3,2.374,2.374,0,0,0-2.142,1,.279.279,0,0,0,.08.377.231.231,0,0,0,.16.04Z" transform="translate(-522.662 -181.485)" fill="#ffb878"/>
        <path id="Tracé_3095" data-name="Tracé 3095" d="M544.811,191.458a.255.255,0,0,0,.16-.064,1.81,1.81,0,0,1,1.773-.225.27.27,0,0,0,.361-.144.28.28,0,0,0-.136-.361,2.342,2.342,0,0,0-2.342.3.277.277,0,0,0-.032.385.255.255,0,0,0,.225.1Z" transform="translate(-524.162 -181.248)" fill="#ffb878"/>
        <path id="Tracé_3096" data-name="Tracé 3096" d="M545.193,203.82s-1.989,1.283-5.463.16c0,0,1.043,4.115,3.257,3.594S545.193,203.82,545.193,203.82Z" transform="translate(-523.213 -183.888)" fill="#1a4850"/>
        <path id="Tracé_3097" data-name="Tracé 3097" d="M531.559,190.019a15.025,15.025,0,0,0-2.864,8.832s-2.214-2.711-3.369-.353,3.473,5.792,3.473,5.792-7.452.417-8.335-9.225c-.369-4.059,4.9-7.773,11.086-5.046Z" transform="translate(-519.398 -180.973)" fill="#ffb878"/>
        <path id="Tracé_3098" data-name="Tracé 3098" d="M530.71,205.438c1.011,2.719,4.885,7.436,8.992,6.088,0,0-1.035,4.059.674,5.535,0,0,1.8,3.136-2.3,3.586a9,9,0,0,1-7.99-3.586c2.238-4.981-.834-11.126-.834-11.126a.9.9,0,0,0,1.468-.505Z" transform="translate(-521.139 -184.207)" fill="#ef6e4b"/>
        <path id="Tracé_3099" data-name="Tracé 3099" d="M545.473,201.36l-.241-.553a1.03,1.03,0,0,0,.618-1.316.808.808,0,0,0-.433-.489,1.037,1.037,0,0,0-.7.08l-.289-.529a1.635,1.635,0,0,1,1.179-.128,1.352,1.352,0,0,1,.794.826,1.6,1.6,0,0,1-.93,2.094Z" transform="translate(-524.142 -182.808)" fill="#db614d"/>
        <path id="Tracé_3100" data-name="Tracé 3100" d="M538.449,197.315c.04.594.377,1.051.746,1.027s.65-.521.61-1.115-.377-1.051-.746-1.027S538.409,196.721,538.449,197.315Z" transform="translate(-522.958 -182.38)" fill="#1a4850"/>
        <path id="Tracé_3101" data-name="Tracé 3101" d="M538,196.984s.313-1.364.794-1.4,1.292.874,1.292.874l.89-.65-.858.337s-.738-1.035-1.412-.826-.714,1.66-.714,1.66Z" transform="translate(-522.868 -182.202)" fill="#1a4850"/>
        <path id="Tracé_3102" data-name="Tracé 3102" d="M545.289,196.255c.04.594.377,1.051.746,1.027s.65-.521.61-1.115-.377-1.051-.746-1.027S545.249,195.661,545.289,196.255Z" transform="translate(-524.312 -182.171)" fill="#1a4850"/>
        <path id="Tracé_3103" data-name="Tracé 3103" d="M544.838,195.924s.313-1.364.794-1.4,1.291.874,1.291.874l.89-.65-.858.337s-.738-1.035-1.412-.826-.714,1.661-.714,1.661Z" transform="translate(-524.221 -181.992)" fill="#1a4850"/>
        <path id="Tracé_3104" data-name="Tracé 3104" d="M535.045,185.34s1.989,10.452-6.193,11.511c0,0-2.928-4.973-6.786-1.492,0,0-4.123-11.335,5.591-13.156,0,0,1.885-4.34,9.45-2.96,10.565,1.925,13.5,14.7,7.621,27.306C544.727,206.549,549.893,183.848,535.045,185.34Z" transform="translate(-519.546 -178.972)" fill="#ffb878"/>
      </g>
      <path id="Tracé_3105" data-name="Tracé 3105" d="M520.59,221.345c1.107.61,2.423,1.259,3.971,1.949,28.2,12.618,21.578.794,21.578.794a4.364,4.364,0,0,0-.794-2.382,6,6,0,0,0-.858-1.035c-2.3-.77-14.848-4.612-23.359.353-.184.1-.361.209-.537.321Z" transform="translate(-509.657 -186.798)" fill="#ef6e4b"/>
      <path id="Tracé_3106" data-name="Tracé 3106" d="M520.59,221.961c1.107.61,2.423,1.259,3.971,1.949,28.2,12.618,21.578.794,21.578.794a4.364,4.364,0,0,0-.794-2.382,33.922,33.922,0,0,1-3.81,1.588l-.449,1.733-2.406-1.556a63.008,63.008,0,0,1-17.551-2.447c-.184.1-.361.209-.537.321Z" transform="translate(-509.657 -187.413)" fill="#ff8b66"/>
      <path id="Tracé_3107" data-name="Tracé 3107" d="M551.26,250.43,547,251.721c-4.268,1.283-3.81,1.909-4.637,4.163-.778,2.11,2.92,3.947,4.653,4.292,1.46.3,4.083,3.024,5.35,2.936.513-.032.257-.393-.674-1.147a8.859,8.859,0,0,1-1.8-2.062c1.444-.6,5.086,2.976,6.53,2.1.7-.433-5.03-2.591-5.086-3.546,0,0,.505-.265,3.4.562,1.661.473,3.369.979,3.754.57.69-.754-2.96-1.147-6.642-3.1,0,0,1.877.192,3.6.5,1.572.281,3.016.706,3.072-.008.048-.586-2.423-.955-3.987-1.243a17.927,17.927,0,0,1-5.928-2.2,6.293,6.293,0,0,1-.722-.489c4.235-1.677,3.369-2.607,3.369-2.607Z" transform="translate(-513.943 -193.109)" fill="#ff8b66"/>
      <path id="Tracé_3108" data-name="Tracé 3108" d="M515.527,224.335c4.412-2.872,7.813,6.225,7.227,12.225-.265,2.7-7.227,22.38-7.227,22.38l20.832-10.717,1.275,3.273s-9.8,6.939-15.69,11.92-12.169,5.03-14.3,3.4,1.34-16.6,2.543-22.757S512.96,226,515.527,224.335Z" transform="translate(-506.96 -187.838)" fill="#ff8b66"/>
    </g>
    <g id="Groupe_209" data-name="Groupe 209" transform="translate(295.513 84.456)">
      <ellipse id="Ellipse_36" data-name="Ellipse 36" cx="26.327" cy="23.126" rx="26.327" ry="23.126" fill="#105e99"/>
      <path id="Tracé_3109" data-name="Tracé 3109" d="M406.538,132,392.3,134.086s5.912,12.586,22.164,17.832C414.464,151.918,405.119,142.757,406.538,132Z" transform="translate(-367.625 -95.59)" fill="#105e99"/>
      <text id="SALAM_" data-name="SALAM!" transform="translate(9.689 28.42) rotate(-6.57)" fill="#fff" font-size="12" font-family="Tenderness"><tspan x="0" y="0">SAL</tspan><tspan y="0" letter-spacing="0.01em">A</tspan><tspan y="0">M!</tspan></text>
    </g>
    <g id="Groupe_210" data-name="Groupe 210" transform="translate(257.218 130.468)">
      <ellipse id="Ellipse_37" data-name="Ellipse 37" cx="21.081" cy="18.522" rx="21.081" ry="18.522" fill="#f24052"/>
      <path id="Tracé_3110" data-name="Tracé 3110" d="M325.945,180.33,337.352,182s-4.733,10.075-17.752,14.287C319.6,196.285,327.084,188.945,325.945,180.33Z" transform="translate(-314.947 -151.163)" fill="#f24052"/>
      <text id="ciao_" data-name="ciao!" transform="translate(8.543 22.594)" fill="#fff" font-size="14" font-family="Tenderness"><tspan x="0" y="0">ciao!</tspan></text>
    </g>
    <g id="Groupe_211" data-name="Groupe 211" transform="translate(124.331 135.129)">
      <ellipse id="Ellipse_38" data-name="Ellipse 38" cx="23.471" cy="20.616" rx="23.471" ry="20.616" transform="translate(0)" fill="#ffb878"/>
      <path id="Tracé_3111" data-name="Tracé 3111" d="M188.248,190.25l-12.7,1.861s5.27,11.214,19.757,15.9c0,0-8.327-8.166-7.059-17.76Z" transform="translate(-153.563 -157.786)" fill="#ffb878"/>
      <text id="Hola_" data-name="Hola!" transform="translate(10.091 23.257)" fill="#fff" font-size="12" font-family="Tenderness"><tspan x="0" y="0">Hola!</tspan></text>
    </g>
    <g id="Groupe_212" data-name="Groupe 212" transform="translate(81.599 92.702)">
      <ellipse id="Ellipse_39" data-name="Ellipse 39" cx="26.327" cy="23.126" rx="26.327" ry="23.126" fill="#8b383e"/>
      <path id="Tracé_3112" data-name="Tracé 3112" d="M110.045,142.29l14.238,2.086s-5.912,12.586-22.164,17.832C102.12,162.208,111.465,153.047,110.045,142.29Z" transform="translate(-96.304 -105.872)" fill="#8b383e"/>
      <text id="Bonjour" transform="matrix(0.99, 0.142, -0.142, 0.99, 7.331, 22.554)" fill="#fff" font-size="12" font-family="Tenderness"><tspan x="0" y="0">Bonjour</tspan></text>
    </g>
    <g id="Groupe_213" data-name="Groupe 213" transform="translate(476.643 75.72)">
      <ellipse id="Ellipse_40" data-name="Ellipse 40" cx="26.327" cy="23.126" rx="26.327" ry="23.126" fill="#e28a42"/>
      <path id="Tracé_3113" data-name="Tracé 3113" d="M632.338,121.12,618.1,123.206s5.912,12.586,22.164,17.832C640.264,141.038,630.919,131.877,632.338,121.12Z" transform="translate(-593.425 -84.702)" fill="#e28a42"/>
      <text id="Hello_" data-name="Hello!" transform="translate(10.147 25.92)" fill="#fff" font-size="16" font-family="Tenderness"><tspan x="0" y="0">Hello!</tspan></text>
    </g>
    <g id="Groupe_214" data-name="Groupe 214" transform="translate(444.34 123.256)">
      <ellipse id="Ellipse_41" data-name="Ellipse 41" cx="31.164" cy="22.148" rx="31.164" ry="22.148" fill="#8bbddb"/>
      <path id="Tracé_3114" data-name="Tracé 3114" d="M571.909,182.58l13.645,2s-5.663,12.057-21.233,17.086C564.32,201.664,573.264,192.888,571.909,182.58Z" transform="translate(-550.483 -144.397)" fill="#8bbddb"/>
      <text id="Guten_tag_" data-name="Guten tag!" transform="matrix(0.985, -0.173, 0.173, 0.985, 5.787, 28.751)" fill="#fff" font-size="12" font-family="Tenderness"><tspan x="0" y="0">Guten tag!</tspan></text>
    </g>
  </g>
</svg>
