<svg xmlns="http://www.w3.org/2000/svg" width="888.995" height="97.846" viewBox="0 0 888.995 97.846">
  <g id="encadré_coin_orange" data-name="encadré coin orange" transform="translate(-524.5 -335.5)">
    <path id="Ligne_6" data-name="Ligne 6" d="M73,1.5H0A1.5,1.5,0,0,1-1.5,0,1.5,1.5,0,0,1,0-1.5H73A1.5,1.5,0,0,1,74.5,0,1.5,1.5,0,0,1,73,1.5Z" transform="translate(526 337)" fill="#ee863f"/>
    <path id="Ligne_26" data-name="Ligne 26" d="M0,33.5A1.5,1.5,0,0,1-1.5,32V0A1.5,1.5,0,0,1,0-1.5,1.5,1.5,0,0,1,1.5,0V32A1.5,1.5,0,0,1,0,33.5Z" transform="translate(526 337)" fill="#ee863f"/>
    <path id="Ligne_27" data-name="Ligne 27" d="M73,1.5H0A1.5,1.5,0,0,1-1.5,0,1.5,1.5,0,0,1,0-1.5H73A1.5,1.5,0,0,1,74.5,0,1.5,1.5,0,0,1,73,1.5Z" transform="translate(1411.995 431.846) rotate(180)" fill="#ee863f"/>
    <path id="Ligne_28" data-name="Ligne 28" d="M0,33.345a1.5,1.5,0,0,1-1.5-1.5V0A1.5,1.5,0,0,1,0-1.5,1.5,1.5,0,0,1,1.5,0V31.845A1.5,1.5,0,0,1,0,33.345Z" transform="translate(1411.995 431.846) rotate(180)" fill="#ee863f"/>
  </g>
</svg>
