<svg xmlns="http://www.w3.org/2000/svg" width="560" height="736.492" viewBox="0 0 560 736.492">
  <g id="illustration_homme" data-name="illustration homme" transform="translate(-1483.495 -293)">
    <g id="aqwyt" transform="translate(1572.396 293)">
      <g id="Groupe_245" data-name="Groupe 245" transform="translate(0 146.382)">
        <path id="Tracé_3292" data-name="Tracé 3292" d="M167.694,142.568c-.944,1.87-1.833,3.7-2.722,5.554-.907,1.833-1.8,3.684-2.666,5.536-1.759,3.684-3.518,7.387-5.239,11.108-3.462,7.405-6.832,14.885-10.164,22.383-.833,1.87-1.666,3.758-2.481,5.628l-2.444,5.665-2.425,5.684c-.8,1.907-1.611,3.8-2.407,5.721-.8,1.907-1.574,3.832-2.351,5.758l-2.3,5.813c-.778,1.925-1.518,3.925-2.277,5.887l-1.129,2.962-1.111,3.036-1.092,3.036-.074.185-.074.241-.167.481-.315.963c-.222.629-.407,1.277-.592,1.925a71.833,71.833,0,0,0-1.87,7.831,76.236,76.236,0,0,0-1.277,16.014,77.465,77.465,0,0,0,.611,8.016l.278,1.981.352,1.981c.111.666.259,1.314.389,1.962l.2.981.111.463.093.37c.926,3.962,1.907,7.905,2.87,11.849q2.944,11.83,6.2,23.6,1.638,5.887,3.388,11.738l.87,2.925.907,2.925c.592,1.944,1.222,3.888,1.87,5.832,9.312,21.18,11.33,12.312,19.328,9.646A15.256,15.256,0,0,0,170.341,332.3c-.2-2.036-.407-4.073-.667-6.091l-.37-3.036-.389-3.036q-.778-6.054-1.685-12.108-1.805-12.08-3.943-24.086c-.722-4-1.444-8-2.2-12l-.074-.37a1.929,1.929,0,0,1-.037-.278l-.074-.518c-.056-.352-.111-.685-.148-1.037l-.13-1.037-.093-1.037a38.809,38.809,0,0,1-.148-4.147,38.337,38.337,0,0,1,.278-4.129c.167-1.37.37-2.74.666-4.073a36.086,36.086,0,0,1,1.092-3.98,10.218,10.218,0,0,1,.333-.981l.37-1.018,1.018-2.684,1.018-2.684,1.092-2.721c.741-1.814,1.426-3.629,2.2-5.461l2.277-5.48c.778-1.833,1.555-3.666,2.314-5.5,3.092-7.368,6.276-14.718,9.479-22.105l9.646-22.161L197,169.45l4.777-11.071a18.781,18.781,0,0,0-34.01-15.9l-.037.093Z" transform="translate(-122.497 -132.156)" fill="#fff8ec"/>
        <g id="Groupe_243" data-name="Groupe 243" transform="translate(16.556 177.732)">
          <path id="Tracé_3293" data-name="Tracé 3293" d="M145.386,251.249a.745.745,0,0,1,.278-.574c7.7-6.757,19.865-22.031,19.995-22.179a.943.943,0,0,1,1.24-.185.75.75,0,0,1,.2,1.129c-.13.148-12.386,15.533-20.2,22.4a.979.979,0,0,1-1.259,0,.75.75,0,0,1-.259-.555Z" transform="translate(-145.386 -228.157)" fill="#fecbaf"/>
          <path id="Tracé_3294" data-name="Tracé 3294" d="M147.339,237.811a.893.893,0,0,1,.2-.555.859.859,0,0,1,1.222-.111L159.3,245.9a.868.868,0,0,1-1.111,1.333l-10.534-8.757A.879.879,0,0,1,147.339,237.811Z" transform="translate(-141.341 -220.68)" fill="#fecbaf"/>
        </g>
        <g id="Groupe_244" data-name="Groupe 244" transform="translate(18.22 118.321)">
          <path id="Tracé_3295" data-name="Tracé 3295" d="M164.5,203.573a.928.928,0,0,0,.87-.648.905.905,0,0,0-.611-1.129,99.909,99.909,0,0,0-18.18-3.555.9.9,0,0,0-.13,1.8,97.565,97.565,0,0,1,17.792,3.481,1.251,1.251,0,0,0,.259.037Z" transform="translate(-145.618 -194.217)" fill="#fecbaf"/>
          <path id="Tracé_3296" data-name="Tracé 3296" d="M155.331,204.645a.907.907,0,0,0,.685-1.5,50.029,50.029,0,0,0-7.442-6.906.9.9,0,1,0-1.055,1.463,48.864,48.864,0,0,1,7.146,6.628.917.917,0,0,0,.685.315Z" transform="translate(-139.258 -196.066)" fill="#fecbaf"/>
        </g>
      </g>
      <g id="Groupe_259" data-name="Groupe 259" transform="translate(16.278 0)">
        <g id="Groupe_250" data-name="Groupe 250" transform="translate(0 297.979)">
          <path id="Tracé_3297" data-name="Tracé 3297" d="M80.693,415.88l1.851,26.049-26.752.5L54.33,417.991Z" transform="translate(108.202 -42.202)" fill="#a54b4a"/>
          <g id="Groupe_247" data-name="Groupe 247" transform="translate(158.205 390.544)">
            <g id="Groupe_246" data-name="Groupe 246">
              <path id="Tracé_3298" data-name="Tracé 3298" d="M43.649,465.016v.611c.019.926.056,1.759.093,2.462.093,1.555.2,2.518.2,2.518H95.858a27.952,27.952,0,0,0,.056-4.98c-.333-5.295-2.111-13.682-9.275-19.217-9.812-7.591-6.017-6-8.035-9.46-.222-.389-2-6.258-2.185-6.665-1.685-3.592-3.24-5.295-12.534-5.295-12.33,0-13.422,5.98-14.737,9.146a59,59,0,0,0-2.055,7.331c-.315,1.314-.629,2.721-.926,4.147-.759,3.573-1.463,7.313-1.962,10.294a51.7,51.7,0,0,0-.574,9.127Z" transform="translate(-43.618 -424.99)" fill="#7f2a36"/>
              <path id="Tracé_3299" data-name="Tracé 3299" d="M68.365,457.473v.611c.019.926.056,1.759.093,2.462a14.476,14.476,0,0,0,5.387-7c3.2-8.757-1.722-19.254-1.925-19.7l-.111.056c-.315,1.314-.629,2.721-.926,4.147,1.166,3.573,2.518,9.572.648,14.663a11.931,11.931,0,0,1-3.184,4.758Z" transform="translate(-68.334 -417.447)" fill="#47000e"/>
              <path id="Tracé_3300" data-name="Tracé 3300" d="M43.6,446.93c.074,2.962.315,4.98.315,4.98H95.825a27.952,27.952,0,0,0,.056-4.98Z" transform="translate(-43.548 -406.311)" fill="#47000e"/>
            </g>
            <path id="Tracé_3301" data-name="Tracé 3301" d="M55.652,435.486a.862.862,0,0,0,.37-.055,25.666,25.666,0,0,1,12.034-.241,1.478,1.478,0,1,0,.778-2.851,28.4,28.4,0,0,0-13.571.241,1.478,1.478,0,0,0,.37,2.907Z" transform="translate(-37.07 -419.324)" fill="#47000e"/>
            <path id="Tracé_3302" data-name="Tracé 3302" d="M56.115,432.256a.861.861,0,0,0,.37-.056,25.666,25.666,0,0,1,12.034-.241,1.478,1.478,0,1,0,.778-2.851,28.4,28.4,0,0,0-13.57.241,1.478,1.478,0,0,0,.37,2.907Z" transform="translate(-38.385 -422.074)" fill="#47000e"/>
            <path id="Tracé_3303" data-name="Tracé 3303" d="M54.452,438.026a.861.861,0,0,0,.37-.056,25.732,25.732,0,0,1,12.034-.241,1.478,1.478,0,1,0,.778-2.851,28.4,28.4,0,0,0-13.57.241,1.478,1.478,0,0,0,.37,2.907Z" transform="translate(-33.648 -417.161)" fill="#47000e"/>
            <path id="Tracé_3304" data-name="Tracé 3304" d="M53.042,440.906a.861.861,0,0,0,.37-.056,25.732,25.732,0,0,1,12.034-.241,1.478,1.478,0,1,0,.778-2.851,28.4,28.4,0,0,0-13.57.241,1.478,1.478,0,0,0,.37,2.907Z" transform="translate(-29.628 -414.709)" fill="#47000e"/>
          </g>
          <path id="Tracé_3305" data-name="Tracé 3305" d="M140.063,415.88l1.851,26.049-24.216.352-4-24.29Z" transform="translate(-61.084 -42.202)" fill="#a54b4a"/>
          <g id="Groupe_248" data-name="Groupe 248" transform="translate(0 393.587)">
            <path id="Tracé_3306" data-name="Tracé 3306" d="M110.087,470.042l87.144-.926a12.358,12.358,0,0,0,1.092-4.851c.463-7.368-2.018-19.125-3.24-26.53-.148-.87-.278-1.666-.37-2.407-.167-1.24-.278-2.277-.3-3.018-.056-6.054-5.406-4.962-5.406-4.962-8.72,8.738-18.847-4.129-24.642.2,0,0-2.5,1.833-9.349,8.128s-18.569,10.534-28.548,14.829c-12.867,5.536-16.477,10.979-17.162,14.718a6.831,6.831,0,0,0,.759,4.832Z" transform="translate(-109.179 -426.633)" fill="#7f2a36"/>
            <path id="Tracé_3307" data-name="Tracé 3307" d="M110.118,452.736l87.144-.926a12.358,12.358,0,0,0,1.092-4.851l-89.014.944a6.831,6.831,0,0,0,.759,4.832Z" transform="translate(-109.21 -409.328)" fill="#47000e"/>
            <path id="Tracé_3308" data-name="Tracé 3308" d="M115.264,465.2h2.592a19.283,19.283,0,0,1-4.832-13.922c.333-8.609,5.424-14.478,9-17.532-.148-.87-.278-1.666-.37-2.407-3.832,3-10.294,9.534-10.682,19.865a21.218,21.218,0,0,0,4.314,14.015Z" transform="translate(-36.099 -422.626)" fill="#47000e"/>
            <path id="Tracé_3309" data-name="Tracé 3309" d="M137.907,436.2a1.435,1.435,0,0,0,.315-2.833l-5.462-1.3a1.435,1.435,0,1,0-.648,2.8l5.462,1.3a2.263,2.263,0,0,0,.352.037Z" transform="translate(-90.53 -422.04)" fill="#47000e"/>
            <path id="Tracé_3310" data-name="Tracé 3310" d="M134.687,433.627a1.435,1.435,0,0,0,.315-2.833l-5.462-1.3a1.435,1.435,0,1,0-.648,2.8l5.462,1.3a2.264,2.264,0,0,0,.352.037Z" transform="translate(-81.348 -424.228)" fill="#47000e"/>
            <path id="Tracé_3311" data-name="Tracé 3311" d="M140.827,437.937a1.435,1.435,0,0,0,.315-2.833l-5.462-1.3a1.435,1.435,0,1,0-.648,2.8l5.462,1.3a1.141,1.141,0,0,0,.352.037Z" transform="translate(-98.856 -420.559)" fill="#47000e"/>
            <path id="Tracé_3312" data-name="Tracé 3312" d="M143.757,439.617a1.435,1.435,0,0,0,.315-2.833l-5.462-1.3a1.435,1.435,0,1,0-.648,2.8l5.462,1.3a2.263,2.263,0,0,0,.352.037Z" transform="translate(-107.21 -419.128)" fill="#47000e"/>
            <path id="Tracé_3313" data-name="Tracé 3313" d="M146.937,441.167a1.435,1.435,0,0,0,.315-2.833l-5.462-1.3a1.435,1.435,0,1,0-.648,2.8l5.461,1.3a1.141,1.141,0,0,0,.352.037Z" transform="translate(-116.277 -417.809)" fill="#47000e"/>
            <path id="Tracé_3314" data-name="Tracé 3314" d="M150.407,442.5a1.435,1.435,0,0,0,.315-2.833l-5.462-1.3a1.435,1.435,0,1,0-.648,2.8l5.462,1.3a1.14,1.14,0,0,0,.352.037Z" transform="translate(-126.172 -416.676)" fill="#47000e"/>
          </g>
          <g id="Groupe_249" data-name="Groupe 249" transform="translate(81.424 43.155)">
            <path id="Tracé_3315" data-name="Tracé 3315" d="M53.23,269.416l1.611,4.314,52.116,140.333c0,57.985,26.215,162.586,26.215,162.586l31.418-1.5L155.981,411.6l-.111-2.24c-.056-.2-.093-.407-.148-.611-8.053-32.214-24.827-112.692-36.231-151.5-.315-1.092-.629-2.148-.926-3.166-1.814-6.165-3.221-10.923-4.054-13.756l-.889-2.981-8.812,4.684-2.536,1.351-49.024,26.03Z" transform="translate(-53.23 -237.35)" fill="#23221e"/>
            <path id="Tracé_3316" data-name="Tracé 3316" d="M58.782,331.666a33.112,33.112,0,0,0,12.256,2.222,41.072,41.072,0,0,0,4.406-.241l-.111-2.24c-.056-.2-.093-.407-.148-.611-1.314.13-2.722.222-4.2.222a30.05,30.05,0,0,1-11.145-2,1.392,1.392,0,0,0-1.833.8,1.418,1.418,0,0,0,.8,1.851Z" transform="translate(27.269 -159.397)" fill="#5b5058"/>
            <path id="Tracé_3317" data-name="Tracé 3317" d="M134.174,488.567c.963-.037,1.759,0,2.7-.056-1.37-7.072-3.092-17.051-3.851-21.254-3.721-20.754-5.295-75.2-5.313-75.758a1.346,1.346,0,0,0-.13-.537c-8.85-19.81-49.357-130.614-49.765-131.724a1.417,1.417,0,0,0-2.666.963c.407,1.111,40.6,111.082,49.728,131.65.13,4.3,1.722,55.707,5.332,75.887.741,4.129,2.61,13.885,3.943,20.809Z" transform="translate(-65.951 -219.509)" fill="#5b5058"/>
          </g>
          <path id="Tracé_3318" data-name="Tracé 3318" d="M206.245,266.082c-.148,1.611-.315,3.221-.518,4.814-.13,1.018-.278,2.037-.463,3.055-.3,1.722-.629,3.407-1.037,5.036-.222.907-.463,1.8-.741,2.666a.139.139,0,0,1-.018.093c-.37,1.185-.778,2.314-1.2,3.388-3.906,9.553-34.065,10.96-63.761,7.646-23.049-2.573-45.8-8-55.782-14.681-2-1.333-2.666-5-2.481-9.96.037-.963.111-1.962.2-3a128.12,128.12,0,0,1,2.87-16.459c.963-4.147,2.036-8.35,3.147-12.33,3.388-12.219,6.869-22.309,6.869-22.309L206,237.682s.352,3.258.574,8.257a157.175,157.175,0,0,1-.315,20.143Z" transform="translate(-63.93 -214.04)" fill="#23221e"/>
          <path id="Tracé_3319" data-name="Tracé 3319" d="M135.3,259.278c.13-.037.222-.056.315-.093a26.981,26.981,0,0,0,5.887-2.851c.5-.315.981-.648,1.463-1a33.693,33.693,0,0,0,4.888-4.406c9.127-10,11.849-24.123,11.978-24.845a1.384,1.384,0,1,0-2.722-.5c-.037.167-2.814,14.607-11.923,24.123a28.5,28.5,0,0,1-4.443,3.832c-.241.167-.481.333-.722.481a24.457,24.457,0,0,1-4.5,2.277c-.093,1.037-.167,2.036-.2,3Z" transform="translate(-119.003 -205.181)" fill="#5b5058"/>
          <path id="Tracé_3320" data-name="Tracé 3320" d="M112.42,244.544c0,.889,0,1.759.018,2.629,0,2.074.037,4.129.056,6.184,0,1.074.018,2.129.037,3.184v.426c0,.981,0,1.962.037,2.925.759,63.816,3.018,122.134,7.609,163.993h0l.518,2.888,25.7,144.721,33.084-2.8s-1.2-114.6-8.479-140.74l.13-160.4V244.47l-44.562,4.684-2.777-.907-1.648-.537-2.721-.889-7-2.3Z" transform="translate(-96.275 -188.133)" fill="#23221e"/>
          <path id="Tracé_3321" data-name="Tracé 3321" d="M119.462,281.067a1.133,1.133,0,0,0,1.092,1.166h0a1.137,1.137,0,0,0,1.2-1.055c.2-4.166.444-8.442.722-12.7.056-.759.093-1.5.148-2.259.907-13.922,2.055-27.6,2.925-37.249.074-.778.13-1.537.2-2.259.185-2.111.37-4,.518-5.591-.759-.111-1.537-.241-2.277-.37-.148,1.592-.333,3.481-.518,5.628-.074.722-.13,1.481-.2,2.259-.852,9.572-2,23.123-2.907,36.972-.056.759-.093,1.537-.148,2.3-.278,4.425-.537,8.85-.741,13.163Z" transform="translate(-56.108 -208.327)" fill="#5b5058"/>
          <path id="Tracé_3322" data-name="Tracé 3322" d="M115.034,265.737a30.034,30.034,0,0,0,4.017,1.537,20.474,20.474,0,0,0,2.277.574,14.689,14.689,0,0,0,2.185.278,8.057,8.057,0,0,0,3.869-.611A4.7,4.7,0,0,0,130.012,264c.833-4.3,2.592-22.031,3.777-34.583.074-.778.148-1.518.222-2.259.185-2,.352-3.832.5-5.387-.759-.093-1.518-.185-2.3-.278-.148,1.555-.315,3.406-.5,5.443-.074.722-.148,1.481-.2,2.259-1.185,12.515-2.944,30.233-3.758,34.4a2.492,2.492,0,0,1-1.389,1.944,8.125,8.125,0,0,1-4.869.056c-.778-.167-1.555-.389-2.277-.611a27.725,27.725,0,0,1-3.166-1.24,1.15,1.15,0,0,0-1.537.5A1.12,1.12,0,0,0,115.034,265.737Z" transform="translate(-54.975 -207.697)" fill="#5b5058"/>
          <path id="Tracé_3323" data-name="Tracé 3323" d="M132.007,343.823h0l.518,2.888c.518.019,1.018.037,1.537.037,10.775,0,19.81-5.276,20.291-5.554a1.44,1.44,0,0,0,.5-1.944,1.423,1.423,0,0,0-1.944-.5c-.167.093-10.016,5.813-20.883,5.073Z" transform="translate(-108.105 -108.033)" fill="#5b5058"/>
          <path id="Tracé_3324" data-name="Tracé 3324" d="M128.342,548.919h-.167a1.383,1.383,0,0,1-1.37-1.389c.778-96.623-11.33-134.909-11.46-135.279a1.244,1.244,0,0,1-.074-.444l2.407-153.256a1.38,1.38,0,1,1,2.759.055L118.03,411.641c1.018,3.332,12.275,42.655,11.534,135.927a1.4,1.4,0,0,1-1.222,1.37Z" transform="translate(-51.676 -177.296)" fill="#5b5058"/>
          <path id="Tracé_3325" data-name="Tracé 3325" d="M77.641,233.513A60.489,60.489,0,0,0,84.1,248.176c2.666,4.3,6.2,8.59,10.775,11.33.518.315,1.074.611,1.629.889a19.937,19.937,0,0,0,4.8,1.666c-.315-1.092-.629-2.148-.926-3.166a17.612,17.612,0,0,1-2.629-1.037,19.239,19.239,0,0,1-2.388-1.407,31.781,31.781,0,0,1-8.72-9.609,60.039,60.039,0,0,1-6.239-14.07,1.419,1.419,0,0,0-2.74.741Z" transform="translate(46.346 -198.985)" fill="#5b5058"/>
        </g>
        <g id="Groupe_258" data-name="Groupe 258" transform="translate(17.7)">
          <g id="Groupe_254" data-name="Groupe 254" transform="translate(0 127.191)">
            <path id="Tracé_3326" data-name="Tracé 3326" d="M211.963,259.7c-.278,2.833-.592,5.684-.963,8.516-.37,2.8-1.092,6.887-2.074,11.775-3.98,19.958-6.943,41.156-9.5,55.763a102.03,102.03,0,0,0-1.389,10.923c-23.512,0-77.461,3.092-126.967-13.126-1.463-1.2,2.721-5.7,1.426-6.98,5.739-19.921,10.516-56.467,13.219-72,.518-2.888.963-5.721,1.389-8.479.407-2.684.778-5.313,1.111-7.868.3-2.314.574-4.591.815-6.813.056-.574.13-1.129.185-1.685.315-2.962.574-5.832.8-8.59.222-2.962.407-5.813.555-8.572,1.851-37.546-4.48-56.281-2.407-65.223,2.222-9.646,9.294-12.108,17.366-14.181,3.018-.778,6.2-1.5,9.312-2.518.852-.278,1.685-.574,2.518-.907l1.333-.555c3.962-1.759,9.035-3.147,12.034-7.257l32.158-.13a45.969,45.969,0,0,0,7.442,4.925c.444.241.907.5,1.407.741a60.012,60.012,0,0,0,12.608,4.665c1.222.315,2.5.592,3.814.833a21.785,21.785,0,0,1,4.925,1.537c11.812,5.2,18.291,20.55,19.051,43.507.426,13.108.926,25.456,1.148,37.36,0,.8.037,1.592.037,2.37A376.788,376.788,0,0,1,212,259.7Z" transform="translate(-70.759 -121.79)" fill="#fff8ec"/>
            <path id="Tracé_3327" data-name="Tracé 3327" d="M76.282,301.2a.928.928,0,0,0,.907-.741c12.312-61.595,16.162-124,16.2-124.615a.927.927,0,1,0-1.851-.111c-.037.629-3.888,62.909-16.162,124.374A.939.939,0,0,0,76.1,301.2Z" transform="translate(40.724 -76.609)" fill="#fecbaf"/>
            <g id="Groupe_251" data-name="Groupe 251" transform="translate(72.536 43.076)">
              <path id="Tracé_3328" data-name="Tracé 3328" d="M99.766,149.691a1.8,1.8,0,0,0,.444-.037,4.018,4.018,0,0,0,.444-.13,2.576,2.576,0,0,0,.389-.2,1.759,1.759,0,0,0,.352-.3,2.707,2.707,0,0,0,.3-.352,1.678,1.678,0,0,0,.2-.407,2.592,2.592,0,0,0,.185-.889,1.719,1.719,0,0,0-.056-.444,2.86,2.86,0,0,0-.13-.426,4.174,4.174,0,0,0-.2-.407,1.758,1.758,0,0,0-.3-.352,2.707,2.707,0,0,0-.352-.3l-.389-.222a4.026,4.026,0,0,0-.444-.13,2.49,2.49,0,0,0-.907,0,1.624,1.624,0,0,0-.426.13,1.743,1.743,0,0,0-.407.222,2.708,2.708,0,0,0-.352.3,1.659,1.659,0,0,0-.278.352,2.787,2.787,0,0,0-.2.407,3.731,3.731,0,0,0-.13.426,1.8,1.8,0,0,0-.037.444,1.954,1.954,0,0,0,.037.463,2.859,2.859,0,0,0,.13.426,4.174,4.174,0,0,0,.2.407,2.578,2.578,0,0,0,.278.352,2.709,2.709,0,0,0,.352.3,2.79,2.79,0,0,0,.407.2,3.736,3.736,0,0,0,.426.13A1.879,1.879,0,0,0,99.766,149.691Z" transform="translate(-81.437 -145.057)" fill="#fecbaf"/>
              <path id="Tracé_3329" data-name="Tracé 3329" d="M103.278,263.06a2.307,2.307,0,0,0-2.111-2.5h0a2.307,2.307,0,0,0-2.5,2.111h0a2.307,2.307,0,0,0,2.111,2.5h.2A2.3,2.3,0,0,0,103.278,263.06Zm1.389-15.329a2.283,2.283,0,0,0-2.074-2.518h0a2.306,2.306,0,0,0-2.518,2.074h0a2.283,2.283,0,0,0,2.074,2.518h.222a2.3,2.3,0,0,0,2.3-2.092ZM106.24,232.4a2.311,2.311,0,0,0-2.055-2.555h0a2.324,2.324,0,0,0-2.555,2.055h0a2.311,2.311,0,0,0,2.055,2.555h.259a2.321,2.321,0,0,0,2.3-2.073Zm1.722-15.311h0a2.315,2.315,0,0,0-2.036-2.573h0a2.325,2.325,0,0,0-2.573,2.036h0a2.336,2.336,0,0,0,2.036,2.573h.278a2.305,2.305,0,0,0,2.3-2.055Zm1.851-15.311a2.311,2.311,0,0,0-2.018-2.573h0a2.288,2.288,0,0,0-2.573,2.018h0a2.3,2.3,0,0,0,2,2.573h0c.093,0,.2.019.3.019h0a2.316,2.316,0,0,0,2.3-2.036Zm1.944-15.292h0a2.3,2.3,0,0,0-2-2.592h0a2.312,2.312,0,0,0-2.592,2h0a2.312,2.312,0,0,0,2,2.592h0c.093,0,.2.018.3.018h0A2.315,2.315,0,0,0,111.757,186.488Zm2.036-15.292a2.327,2.327,0,0,0-1.981-2.61h0a2.34,2.34,0,0,0-2.61,1.981h0a2.3,2.3,0,0,0,1.981,2.592h0c.111,0,.2.018.315.018h0a2.343,2.343,0,0,0,2.3-2Zm2.129-15.274h0a2.316,2.316,0,0,0-1.962-2.61h0a2.293,2.293,0,0,0-2.61,1.962h0a2.306,2.306,0,0,0,1.962,2.61h0c.111,0,.222.018.333.018h0a2.327,2.327,0,0,0,2.3-2Z" transform="translate(-97.501 -138.051)" fill="#fecbaf"/>
              <path id="Tracé_3330" data-name="Tracé 3330" d="M108.434,224.131a2.031,2.031,0,0,0,.463-.037,2.857,2.857,0,0,0,.426-.13,2.786,2.786,0,0,0,.407-.2,1.759,1.759,0,0,0,.352-.3,1.66,1.66,0,0,0,.278-.352,2.864,2.864,0,0,0,.222-.407,3.737,3.737,0,0,0,.13-.426,1.879,1.879,0,0,0,.037-.463,1.731,1.731,0,0,0-.037-.444,4.027,4.027,0,0,0-.13-.444,1.625,1.625,0,0,0-.222-.389,2.579,2.579,0,0,0-.278-.352,2.709,2.709,0,0,0-.352-.3c-.13-.074-.259-.148-.407-.222a3.73,3.73,0,0,0-.426-.13,2.49,2.49,0,0,0-.907,0,2.012,2.012,0,0,0-.444.13,1.625,1.625,0,0,0-.389.222,2.693,2.693,0,0,0-.648.648,4.158,4.158,0,0,0-.222.389,1.761,1.761,0,0,0-.13.444,1.8,1.8,0,0,0-.037.444,1.954,1.954,0,0,0,.037.463,2.861,2.861,0,0,0,.13.426,2.308,2.308,0,0,0,.518.759,2.709,2.709,0,0,0,.352.3,3.915,3.915,0,0,0,.389.2,4.02,4.02,0,0,0,.444.13A1.8,1.8,0,0,0,108.434,224.131Z" transform="translate(-106.12 -81.682)" fill="#fecbaf"/>
            </g>
            <g id="Groupe_252" data-name="Groupe 252" transform="translate(29.122 41.355)">
              <path id="Tracé_3331" data-name="Tracé 3331" d="M123.263,148.742a1.223,1.223,0,0,0,.444-.056,1.623,1.623,0,0,0,.426-.13,2.788,2.788,0,0,0,.407-.2,2.709,2.709,0,0,0,.352-.3,2.33,2.33,0,0,0,.685-1.629,1.376,1.376,0,0,0-.056-.463,2.015,2.015,0,0,0-.13-.444,2.576,2.576,0,0,0-.2-.389,2.706,2.706,0,0,0-.3-.352,1.659,1.659,0,0,0-.352-.278,1.678,1.678,0,0,0-.407-.2,1.626,1.626,0,0,0-.426-.13,2.49,2.49,0,0,0-.907,0,1.624,1.624,0,0,0-.426.13,2.788,2.788,0,0,0-.407.2,2.581,2.581,0,0,0-.352.278,2.706,2.706,0,0,0-.3.352,4.158,4.158,0,0,0-.222.389,1.761,1.761,0,0,0-.13.444,1.879,1.879,0,0,0-.037.463,2.253,2.253,0,0,0,.685,1.629,2.33,2.33,0,0,0,1.629.685Z" transform="translate(-104.953 -144.127)" fill="#fecbaf"/>
              <path id="Tracé_3332" data-name="Tracé 3332" d="M126.736,262.111a2.307,2.307,0,0,0-2.111-2.5h0a2.307,2.307,0,0,0-2.5,2.111h0a2.307,2.307,0,0,0,2.111,2.5h.185A2.33,2.33,0,0,0,126.736,262.111Zm1.389-15.329a2.283,2.283,0,0,0-2.074-2.518h0a2.283,2.283,0,0,0-2.518,2.074h0a2.3,2.3,0,0,0,2.074,2.518h.222a2.3,2.3,0,0,0,2.3-2.092Zm1.592-15.329h0a2.324,2.324,0,0,0-2.055-2.555h0a2.322,2.322,0,0,0-2.555,2.055h0a2.324,2.324,0,0,0,2.055,2.555h.241a2.32,2.32,0,0,0,2.3-2.055Zm1.722-15.311h0a2.315,2.315,0,0,0-2.036-2.573h0a2.308,2.308,0,0,0-2.555,2.036h0a2.315,2.315,0,0,0,2.036,2.573h.259a2.319,2.319,0,0,0,2.3-2.055Zm1.851-15.292a2.288,2.288,0,0,0-2.018-2.573h0a2.329,2.329,0,0,0-2.592,2.018h0a2.329,2.329,0,0,0,2.018,2.592h0c.093,0,.185.018.3.018h0a2.332,2.332,0,0,0,2.3-2.036Zm1.944-15.292a2.326,2.326,0,0,0-2-2.592h0a2.326,2.326,0,0,0-2.592,2h0a2.326,2.326,0,0,0,2,2.592h0c.093,0,.2.018.3.018h0A2.329,2.329,0,0,0,135.233,185.558Zm2.036-15.292a2.34,2.34,0,0,0-1.981-2.61h0a2.33,2.33,0,0,0-2.61,1.981h0a2.33,2.33,0,0,0,1.981,2.61h0c.111,0,.2.018.315.018h0a2.313,2.313,0,0,0,2.3-2Zm2.111-15.274a2.313,2.313,0,0,0-1.962-2.61h0a2.3,2.3,0,0,0-2.61,1.962h0a2.3,2.3,0,0,0,1.962,2.61h0a2.014,2.014,0,0,0,.333.018h0a2.327,2.327,0,0,0,2.3-2Z" transform="translate(-120.978 -137.121)" fill="#fecbaf"/>
              <path id="Tracé_3333" data-name="Tracé 3333" d="M131.884,223.181a1.376,1.376,0,0,0,.463-.056,1.623,1.623,0,0,0,.426-.13,1.743,1.743,0,0,0,.407-.222,2.694,2.694,0,0,0,.648-.648,1.678,1.678,0,0,0,.2-.407,1.626,1.626,0,0,0,.13-.426,1.8,1.8,0,0,0,.037-.444,2.031,2.031,0,0,0-.037-.463,1.623,1.623,0,0,0-.13-.426,2.79,2.79,0,0,0-.2-.407,2.708,2.708,0,0,0-.3-.352,1.658,1.658,0,0,0-.352-.278,1.677,1.677,0,0,0-.407-.2,1.871,1.871,0,0,0-.426-.13,2.49,2.49,0,0,0-.907,0,1.624,1.624,0,0,0-.426.13,2.79,2.79,0,0,0-.407.2,2.58,2.58,0,0,0-.352.278,1.3,1.3,0,0,0-.278.352,2.233,2.233,0,0,0-.352.833,1.866,1.866,0,0,0-.056.463,1.175,1.175,0,0,0,.056.444,1.625,1.625,0,0,0,.13.426,1.743,1.743,0,0,0,.222.407,2.706,2.706,0,0,0,.3.352,2.253,2.253,0,0,0,1.629.685Z" transform="translate(-129.57 -80.769)" fill="#fecbaf"/>
            </g>
            <path id="Tracé_3334" data-name="Tracé 3334" d="M109.875,339a.928.928,0,0,0,.926-.852c7.239-102.973,20.661-209.259,20.791-210.315a.945.945,0,0,0-.8-1.037.934.934,0,0,0-1.037.8c-.13,1.055-13.552,107.416-20.809,210.426a.916.916,0,0,0,.852.981Z" transform="translate(-59.666 -117.536)" fill="#fecbaf"/>
            <g id="Groupe_253" data-name="Groupe 253" transform="translate(12.964 29.487)">
              <path id="Tracé_3335" data-name="Tracé 3335" d="M139.953,190.875h.13a.9.9,0,0,0,.759-1.037c-.037-.3-4.5-29.862-2.333-51.116a.912.912,0,1,0-1.814-.185c-2.185,21.476,2.3,51.283,2.333,51.579a.91.91,0,0,0,.889.759Z" transform="translate(-132.145 -137.717)" fill="#fecbaf"/>
              <path id="Tracé_3336" data-name="Tracé 3336" d="M142.541,150.028a.938.938,0,0,0,.741-.37.9.9,0,0,0-.2-1.259c-1.574-1.148-2.907-3.777-3.647-5.85a.9.9,0,0,0-1.7.592c.518,1.463,1.962,5.036,4.3,6.72a.965.965,0,0,0,.537.167Z" transform="translate(-137.676 -134.12)" fill="#fecbaf"/>
            </g>
            <path id="Tracé_3337" data-name="Tracé 3337" d="M93.28,146.517a.893.893,0,0,1,1.055-.722,22.532,22.532,0,0,0,17.5-3.592c5.813-4.092,9.757-10.664,12.312-16.644h2.018c-2.647,6.369-6.832,13.589-13.274,18.125a24.118,24.118,0,0,1-18.865,3.906.893.893,0,0,1-.722-1.055Z" transform="translate(-25.224 -118.58)" fill="#fecbaf"/>
          </g>
          <g id="Groupe_257" data-name="Groupe 257" transform="translate(42.245)">
            <g id="Groupe_255" data-name="Groupe 255" transform="translate(2.206 42.281)">
              <path id="Tracé_3338" data-name="Tracé 3338" d="M90.927,113.349a52.036,52.036,0,0,1-2.129-12.83c-.167-6.443,2.777-8.2,2.777-8.2s-3.092-6.184,7.35-12.978c7.554-4.943,27.159-5.406,39.36,4.628,15.163,12.46,12.182,15.477,9.664,30.233-1.907,11.219-8.183,24.327-8.183,24.327s-3.814,10.571-15.922,2.74c-9.368-6.054-20.772-28.474-32.9-27.9Z" transform="translate(-85.206 -75.926)" fill="#23221e"/>
              <path id="Tracé_3339" data-name="Tracé 3339" d="M89.039,127.271s14.607,2.925,15.44-13.626c.352-7.017-2.777-6.35-1.722-21.365,0,0-18.81,13.7-13.719,34.991Z" transform="translate(-38.552 -62.004)" fill="#23221e"/>
              <path id="Tracé_3340" data-name="Tracé 3340" d="M95.682,126.607l-.352,8.516a26.184,26.184,0,0,0,2.925,2.24c14.4,9.5,30.825-.833,30.825-.833l1.24-29.511L99.829,124.275,95.7,126.607Z" transform="translate(-77.631 -49.455)" fill="#a54b4a"/>
              <path id="Tracé_3341" data-name="Tracé 3341" d="M100.87,120.356l-.37,8.757a26.183,26.183,0,0,0,2.925,2.24c12.793-4.462,22.513-17.273,22.513-17.273l-20.957,4.184Z" transform="translate(-82.819 -43.444)" fill="#23221e"/>
              <path id="Tracé_3342" data-name="Tracé 3342" d="M127.919,98.241s-4.591-5.906-7.572-.315-1.352,17.255,6.091,15.662l1.481-15.348Z" transform="translate(-118.94 -59.245)" fill="#6b2131"/>
              <path id="Tracé_3343" data-name="Tracé 3343" d="M93.65,131.778s-.759,17.606,17.551,18.328c18.2.722,31.2-13.034,31.862-13.682h.019l.352-3.7,1.833-19.162.981-10.238s3.092-18.384-14.33-22.476c-12.719-3-24.845-1.37-31.2,5.073-.2.2-.407.426-.592.648a15.718,15.718,0,0,0-3.814,8.461l-1.333,18.4-.333,4.517-1,13.848Z" transform="translate(-90.65 -72.973)" fill="#a54b4a"/>
              <path id="Tracé_3344" data-name="Tracé 3344" d="M140.249,98.45s-5.776,10.275-11.145,8.053c-5.369-2.24-11.923-2.814-17.2-.981,0,0-7.813-5.85-13.219-2.888-3.61,1.981-4.073,25.253,7.48,29.807s27.993,2.018,33.01-8.794,5.517-22.9,5.517-22.9l-4.48-2.277Z" transform="translate(-94.02 -56.751)" fill="#23221e"/>
              <path id="Tracé_3345" data-name="Tracé 3345" d="M114.688,108.414c6.35.648,12.108-4.258,12.2-4.332a.722.722,0,0,0-.944-1.092c-.37.333-9.312,7.905-16.588,1.5a.721.721,0,0,0-.963,1.074,11.124,11.124,0,0,0,6.295,2.833Z" transform="translate(-98.192 -53.033)" fill="#5b5058"/>
              <path id="Tracé_3346" data-name="Tracé 3346" d="M115.375,93.123h0a4.144,4.144,0,0,1-5.5,1.87,22.441,22.441,0,0,0-4.091-1.537,3.812,3.812,0,0,1-2.684-4.832h0s8.553-.426,12.256,4.5Z" transform="translate(-76.737 -65.124)" fill="#23221e"/>
              <path id="Tracé_3347" data-name="Tracé 3347" d="M113.959,91.95h0a4.153,4.153,0,0,0,5.313,2.333,23.439,23.439,0,0,1,4.2-1.185,3.81,3.81,0,0,0,3.073-4.591h0s-8.5-1.129-12.589,3.462Z" transform="translate(-108.442 -65.321)" fill="#23221e"/>
              <path id="Tracé_3348" data-name="Tracé 3348" d="M130.765,113.958c-.5,1.981.8,3.906,2.814,3.61h0c2.111-.444,5.2-4.017,5.2-4.017l.981-10.238s3.092-18.384-14.33-22.476c-12.719-3-24.845-1.37-31.2,5.073-.2.2-.407.426-.592.648,2.907-.889,2.647.444,7.054,2.592,6.35,3.11,12.275,1.981,19.217.167,4.7-1.24,9.9,2.111,9.386,5.239a17.655,17.655,0,0,0,.13,7.239c.056.222.111.444.167.685,1.685,6.461,2.259,7.183,1.166,11.515Z" transform="translate(-84.166 -72.981)" fill="#23221e"/>
              <path id="Tracé_3349" data-name="Tracé 3349" d="M102.24,100.489c-.056,1.277,2.536,2.425,5.795,2.573,3.258.13,5.943-.8,6-2.074s-2.536-2.425-5.795-2.573C104.98,98.286,102.3,99.212,102.24,100.489Z" transform="translate(-74.137 -56.79)" fill="#6b2131"/>
              <path id="Tracé_3350" data-name="Tracé 3350" d="M117.62,102.291c.444.056.926.111,1.426.13,3.258.13,5.943-.8,6-2.074s-2.536-2.425-5.795-2.573c-.444-.019-.87,0-1.277,0l-.333,4.517Z" transform="translate(-113.62 -57.334)" fill="#6b2131"/>
              <path id="Tracé_3351" data-name="Tracé 3351" d="M106.4,97.081c-.074,1.759.666,3.221,1.648,3.258s1.851-1.352,1.925-3.11-.666-3.221-1.648-3.258S106.476,95.322,106.4,97.081Z" transform="translate(-77.78 -60.565)" fill="#23221e"/>
              <path id="Tracé_3352" data-name="Tracé 3352" d="M115.952,96.681c-.074,1.759.666,3.221,1.648,3.258s1.851-1.351,1.925-3.11-.666-3.221-1.648-3.258S116.026,94.922,115.952,96.681Z" transform="translate(-105.011 -60.906)" fill="#23221e"/>
              <path id="Tracé_3353" data-name="Tracé 3353" d="M95.309,106.21c.074.2,2.166,5.665,5.425,7.387h.019l.352-3.7a12.676,12.676,0,0,1-5.813-3.666Z" transform="translate(-48.339 -50.144)" fill="#23221e"/>
              <path id="Tracé_3354" data-name="Tracé 3354" d="M89.839,101.778s7.424-9.164,12.275-1.518c4,6.295-4.7,21.92-12.885,16.107Z" transform="translate(-39.13 -57.802)" fill="#a54b4a"/>
              <path id="Tracé_3355" data-name="Tracé 3355" d="M92.161,111.319a.723.723,0,0,0,.741-.611,12.089,12.089,0,0,1,7.442-9.46.737.737,0,0,0,.444-.926.73.73,0,0,0-.926-.444,13.6,13.6,0,0,0-8.387,10.608.741.741,0,0,0,.611.833Z" transform="translate(-40.99 -55.568)" fill="#23221e"/>
              <path id="Tracé_3356" data-name="Tracé 3356" d="M97.028,105.333a.77.77,0,0,0,.574-.241.727.727,0,0,0-.056-1.018c-.278-.241-2.8-2.407-4.98-1.944a.707.707,0,0,0-.555.852.716.716,0,0,0,.852.555c1.259-.259,3.11,1.074,3.721,1.611a.851.851,0,0,0,.444.185Z" transform="translate(-38.914 -53.673)" fill="#23221e"/>
              <path id="Tracé_3357" data-name="Tracé 3357" d="M117.233,107.882a.723.723,0,1,0,.074-1.444,4.973,4.973,0,0,1-4.24-2.2c3.129-5.832,6.258-11.719,6.295-11.775a.725.725,0,0,0-1.277-.685c-.037.056-3.277,6.165-6.461,12.108a.748.748,0,0,0-.037.629,6.192,6.192,0,0,0,5.665,3.369Z" transform="translate(-96.757 -62.758)" fill="#23221e"/>
            </g>
            <g id="Groupe_256" data-name="Groupe 256">
              <path id="Tracé_3358" data-name="Tracé 3358" d="M148.311,88.254a13.6,13.6,0,0,1-2.2,12.2s-18.273-14.089-58.429-13c0,0-2.74-5.48,3.166-12.737C90.844,74.72,122.28,74.369,148.311,88.254Z" transform="translate(-78.659 -34.673)" fill="#fff8ec"/>
              <path id="Tracé_3359" data-name="Tracé 3359" d="M142.092,106.669a10.231,10.231,0,0,0,3.666,7.683c4.314,3.888,17.588.778,12.885-7.683,0,0,12.737-.7,10.886-13.5-1.851-12.774-19.217-10.46-19.217-10.46s13.089-10.979,1.148-20.92c-11.941-9.96-27.2,7.035-27.2,7.035s-5.2-15.959-19.2-15.737S94.1,65.828,94.1,65.828,84.5,59.349,77.017,64.44s-5.5,15.033,3.814,20.143c0,0-6.48,8.572-3.184,14s11.349-4.24,14.7-3.221,49.746,11.312,49.746,11.312Z" transform="translate(-72.441 -53.089)" fill="#fff8ec"/>
              <path id="Tracé_3360" data-name="Tracé 3360" d="M139.873,86.552a.673.673,0,0,0,.629-.426.686.686,0,0,0-.352-.907c-.241-.111-24.827-10.682-49.468-10.849h0a.712.712,0,0,0-.7.685.7.7,0,0,0,.685.7c24.364.167,48.672,10.627,48.913,10.719a.743.743,0,0,0,.278.056Z" transform="translate(-75.757 -34.971)" fill="#fecba2"/>
            </g>
          </g>
        </g>
      </g>
      <g id="Groupe_260" data-name="Groupe 260" transform="translate(68.524 121.544)">
        <path id="Tracé_3361" data-name="Tracé 3361" d="M108.07,118.74s18.014,4.573,21.143,16.81c0,0-34.713,5.443-44.8,2.666l.833-7.368s18.9-4.739,22.827-12.108Z" transform="translate(-46.402 -118.74)" fill="#7f2a36"/>
        <path id="Tracé_3362" data-name="Tracé 3362" d="M121.768,119.72a14.553,14.553,0,0,0-13.608,10.849s14.218,9.59,24.29,6.813l.37-7.368a24.282,24.282,0,0,1-11.053-10.294Z" transform="translate(-93.979 -117.906)" fill="#7f2a36"/>
        <path id="Tracé_3363" data-name="Tracé 3363" d="M119.2,125.113a6.661,6.661,0,0,1,4.869,6.406c0,5.147-5.61,10.331-12.108,6.2,0,0-2.388,2.721-7.035.13s-3.3-11.312,3.166-13.219a15.714,15.714,0,0,1,11.09.5Z" transform="translate(-74.136 -114.357)" fill="#7f2a36"/>
        <path id="Tracé_3364" data-name="Tracé 3364" d="M90.614,129.609s12.719-1.74,18.662,6.591a53.868,53.868,0,0,0,12.108,12.5S94.021,152.548,88.8,131.109l1.814-1.5Z" transform="translate(-46.7 -109.615)" fill="#7f2a36"/>
        <path id="Tracé_3365" data-name="Tracé 3365" d="M142.31,128.509s-12.719-1.74-18.662,6.591a53.867,53.867,0,0,1-12.108,12.5s27.363,3.851,32.584-17.588l-1.814-1.5Z" transform="translate(-111.54 -110.551)" fill="#7f2a36"/>
      </g>
      <path id="Tracé_3366" data-name="Tracé 3366" d="M201.278,248.155l-1.166,1.463L240.1,383.767s-103.547,29.974-182.211-1.5L75.385,232.4S109.987,248.729,201.278,248.155Z" transform="translate(-39.668 99.57)" fill="#7f2a36"/>
      <path id="Tracé_3367" data-name="Tracé 3367" d="M142.452,321.172c12.96,0,25.049-.648,35.509-1.555a434.612,434.612,0,0,0,59-8.961,1.163,1.163,0,0,0-.555-2.259A431.377,431.377,0,0,1,177.72,317.3c-31.158,2.666-76.721,3.184-116.8-9.479a1.154,1.154,0,0,0-.685,2.2c26.956,8.516,56.337,11.127,82.219,11.127Z" transform="translate(-40.251 163.739)" fill="#47000e"/>
      <path id="Tracé_3368" data-name="Tracé 3368" d="M129.7,261.5s-18.291,4.665-42.822,1.37c0,0,2.055,42.4,20.717,43.785,24.068,1.777,24.679-22.7,22.105-45.136Z" transform="translate(16.045 124.344)" fill="#47000e"/>
      <path id="Tracé_3369" data-name="Tracé 3369" d="M163.832,265.327s-18.865.5-42.081-8.128c0,0-7.368,41.8,10.553,47.265,23.087,7.054,29.085-16.681,31.529-39.156Z" transform="translate(-78.849 120.683)" fill="#47000e"/>
      <path id="Tracé_3370" data-name="Tracé 3370" d="M102.316,370.626a.78.78,0,0,0,.352-.056,1.172,1.172,0,0,0,.759-1.463c-13.274-41.619-38.342-128.262-38.6-129.132a1.155,1.155,0,0,0-2.222.629c.259.87,25.327,87.532,38.619,129.188a1.15,1.15,0,0,0,1.111.815Z" transform="translate(88.306 105.306)" fill="#47000e"/>
      <path id="Tracé_3371" data-name="Tracé 3371" d="M205.258,243.726s-84.5,4.073-124.93-15.866c0,0-3.147,6.035-2.314,10.59,0,0,35.361,21.642,124.875,15.015,0,0,4.684-3.332,2.37-9.757Z" transform="translate(-42.462 95.704)" fill="#47000e"/>
      <g id="Groupe_263" data-name="Groupe 263" transform="translate(140.208 149.111)">
        <path id="Tracé_3372" data-name="Tracé 3372" d="M58.487,133.63a18.8,18.8,0,0,1,16.755,10.034l2.944,5.591,2.851,5.573c1.888,3.721,3.777,7.424,5.647,11.164l5.536,11.219L97.643,188.5q5.36,11.33,10.5,22.864c3.388,7.72,6.739,15.477,9.868,23.512,1.574,4.017,3.092,8.109,4.554,12.4.722,2.148,1.426,4.351,2.111,6.7.333,1.166.666,2.388.981,3.666.148.629.315,1.333.463,2l.222,1.074.111.537v.13l.093.352.074.444.056.444.037.37.056.629v.315l.037.241v1.277c.019.259,0,.463,0,.667l-.037.574c-.037.722-.111,1.222-.167,1.74-.13.963-.259,1.74-.389,2.462-.259,1.426-.537,2.629-.815,3.814-.555,2.333-1.129,4.48-1.722,6.591-1.185,4.221-2.444,8.276-3.7,12.311-2.555,8.053-5.165,15.977-7.868,23.864l-4.129,11.793c-1.389,3.925-2.777,7.813-4.24,11.775a14.9,14.9,0,0,1-28.344-9.109v-.056l3.3-11.83,3.258-11.849c2.166-7.887,4.314-15.774,6.295-23.6,1-3.906,1.944-7.813,2.8-11.59.426-1.888.833-3.74,1.148-5.443.074-.37.13-.722.185-1.055l-.037-.111c-.222-.722-.463-1.481-.741-2.277-.537-1.592-1.166-3.314-1.833-5.054-1.351-3.481-2.851-7.072-4.443-10.664-3.184-7.22-6.591-14.515-10.127-21.791-3.518-7.294-7.146-14.57-10.812-21.865l-5.536-10.923-5.591-10.9-5.61-10.9-3.832-7.387a94.522,94.522,0,0,1,14.681-30.992ZM92.57,265.3c.037-.3.056-.555.056-.611l-.037.2v.407Z" transform="translate(-40.509 -133.63)" fill="#fff8ec"/>
        <path id="Tracé_3373" data-name="Tracé 3373" d="M57.692,241.335a2.438,2.438,0,1,1,2.944,1.8A2.432,2.432,0,0,1,57.692,241.335Z" transform="translate(-1.779 -44.498)" fill="#fecbaf"/>
        <g id="Groupe_261" data-name="Groupe 261" transform="translate(39.786 178.817)">
          <path id="Tracé_3374" data-name="Tracé 3374" d="M53.706,230.26a.7.7,0,0,1,.629.074c8.868,5.147,27.215,11.793,27.4,11.867a.977.977,0,0,1,.574,1.129.763.763,0,0,1-1,.555c-.185-.074-18.662-6.776-27.659-12a.975.975,0,0,1-.389-1.2.83.83,0,0,1,.444-.426Z" transform="translate(-53.186 -230.217)" fill="#fecbaf"/>
          <path id="Tracé_3375" data-name="Tracé 3375" d="M69.475,232.3a1.073,1.073,0,0,1,.592,0,.876.876,0,0,1,.5,1.129L65.625,246.2A.873.873,0,1,1,64,245.573L68.939,232.8A.8.8,0,0,1,69.475,232.3Z" transform="translate(-61.384 -228.479)" fill="#fecbaf"/>
        </g>
        <path id="Tracé_3376" data-name="Tracé 3376" d="M95.143,205.358a.86.86,0,0,0,.426-.111.894.894,0,0,0,.37-1.222L72.853,160.981a.9.9,0,1,0-1.592.852l23.087,43.044A.935.935,0,0,0,95.143,205.358Z" transform="translate(-60.374 -110.753)" fill="#fecbaf"/>
        <path id="Tracé_3377" data-name="Tracé 3377" d="M87.488,170.071a.905.905,0,0,0,.3-1.759l-6.443-2.259a.9.9,0,1,0-.592,1.7l6.443,2.259A.838.838,0,0,0,87.488,170.071Z" transform="translate(-69.362 -106.069)" fill="#fecbaf"/>
        <g id="Groupe_262" data-name="Groupe 262" transform="translate(52.234 125.277)">
          <path id="Tracé_3378" data-name="Tracé 3378" d="M54.854,207.76a.8.8,0,0,0,.352-.074c2.851-1.222,13.163-2.777,13.274-2.8a.909.909,0,1,0-.278-1.8c-.426.074-10.645,1.611-13.719,2.925A.912.912,0,0,0,54,207.2a.9.9,0,0,0,.833.555Z" transform="translate(-53.934 -199.776)" fill="#fecbaf"/>
          <path id="Tracé_3379" data-name="Tracé 3379" d="M58.439,208.819a.912.912,0,0,0,.7-.333c1.481-1.777,5.276-5.61,5.332-5.647a.9.9,0,0,0-1.277-1.277c-.167.167-3.906,3.925-5.424,5.776a.925.925,0,0,0,.111,1.277.842.842,0,0,0,.574.2Z" transform="translate(-56.149 -201.298)" fill="#fecbaf"/>
        </g>
        <path id="Tracé_3380" data-name="Tracé 3380" d="M80.786,248.992h0a26.494,26.494,0,0,0-7.572-.222c-4.758.537-8.646,3.684-10.96,4.776s.889,3.888,4.869,3.166a30.958,30.958,0,0,1,8.794-.444,28.13,28.13,0,0,0-7.831,2.036c-1.24.629-3.092,1.407-4.8,2.277a22.428,22.428,0,0,0-2.314,1.333c-1.24.833-2.092,1.722-2.055,2.61.093,1.5,2.5,1.352,5.276.907,1.129-.185,2.314-.407,3.425-.592.481-.074.926-.148,1.37-.2,4.055-.518,5.869-1.333,9.257-1.018a21.848,21.848,0,0,0-5.961,2.462c-.333.241-.722.518-1.148.815-.759.537-1.629,1.129-2.462,1.74a17.572,17.572,0,0,0-3.388,2.944c-1.111,1.555,3.24,2.833,7.165,1.259a23.617,23.617,0,0,0,3.573-1.851,13.394,13.394,0,0,1,2.888-1.481c.111-.037.222-.056.333-.093a3.465,3.465,0,0,1,1.629.018s-.963.685-2.092,1.592h0s-.13.111-.185.167c-.7.574-1.463,1.2-2.074,1.8a12.3,12.3,0,0,0-2.814,5.406c-.241,1.111-.13,2.055.555,2.388.741.389,2.129-.315,3.74-1.314,2.407-1.481,5.295-3.629,7.35-3.906a167.677,167.677,0,0,0,18.18-3.74c6.906-1.759,11.923-8.924,13.015-12.108a13.632,13.632,0,0,1,.685-1.611L98.855,242.382s-1.722-.629-3.943-1.259a27.426,27.426,0,0,0-6.683-1.2,7.539,7.539,0,0,0-2.2.315c-.907.259-1.555.963-2.3,1.074l-4.536,1.944,1.629,5.776Z" transform="translate(-58.92 -43.139)" fill="#a54b4a"/>
      </g>
      <path id="Tracé_3381" data-name="Tracé 3381" d="M151.571,232.371l1.314-4.221s-7.5,4.073-8.053,11.293c-.555,7.2-2.462,15.922-3.24,20.124s-4.073,12.571-2.425,15.57c1.629,3,4.721,3.906,10.257,4.221,5.536.3,5.924-3.055,3.518-5.221a42.608,42.608,0,0,0-6.869-4.721,56.134,56.134,0,0,1,8.609,1.092c7.072,1.2,6.869-3.388,3.962-5.628-4.017-3.092-11.5-6.628-11.5-6.628s7.461,1.518,12.256,2.536c4.814,1.018,4.573-5.128-2.87-7.942s-6.943-3.888-6.943-3.888,2.3-.259,8.09,1.24c5.795,1.481,9.831-.685,7.146-3.5-2.647-2.777-14.367-6.165-14.367-6.165l.37-3.832a21.693,21.693,0,0,1,.741-4.314Z" transform="translate(-114.872 95.951)" fill="#a54b4a"/>
    </g>
    <line id="Ligne_59" data-name="Ligne 59" x2="557" transform="translate(1484.995 1027.992)" fill="none" stroke="#ee863f" stroke-linecap="round" stroke-width="3"/>
  </g>
</svg>
