<svg xmlns="http://www.w3.org/2000/svg" width="560" height="676.732" viewBox="0 0 560 676.732">
  <g id="Illustration" transform="translate(118.183 -313.5)">
    <g id="tytrdc" transform="translate(93.82 223.063)">
      <g id="Groupe_265" data-name="Groupe 265" transform="translate(153.616 97.653)">
        <path id="Tracé_3382" data-name="Tracé 3382" d="M219.65,175.092c-1.735,8.782-7.373,19.7-11.854,25.986a163.129,163.129,0,0,1-15.071,18.233,100.6,100.6,0,0,1-9.252,8.547,73.882,73.882,0,0,1-11.511,7.752,51.638,51.638,0,0,1-7.192,3.18,43,43,0,0,1-8.62,2.078,37.9,37.9,0,0,1-10.011-.018,36.788,36.788,0,0,1-14.637-5.439l-1.03-.687-.867-.614c-.289-.2-.542-.4-.8-.578-.253-.2-.542-.4-.777-.578-1.391-1.066-2.62-2.1-3.795-3.09-.488-.416-.958-.831-1.428-1.247-3.162-2.8-5.963-5.53-8.692-8.258-2.711-2.747-5.313-5.493-7.861-8.258-2.548-2.747-5.06-5.512-7.5-8.294-.7-.813-1.391-1.608-2.1-2.4h0c-.235-.614-13.192-34.208,5.71-54.013L115,162.479q3.253,4.2,6.542,8.331c2.168,2.765,4.355,5.53,6.56,8.258,2.2,2.711,4.391,5.439,6.6,8.1q2.738,3.307,5.475,6.469c.379.452.777.885,1.157,1.337,2.187,2.53,4.391,4.987,6.487,7.138,1.03,1.066,2.042,2.042,2.873,2.8l.542.488.235.2a.494.494,0,0,1,.072.09,1.908,1.908,0,0,1,.163.235c.072.126.036.2.126.307s.307.2.759.253a12.255,12.255,0,0,0,4.753-1.012,37.937,37.937,0,0,0,6.867-3.614,86.535,86.535,0,0,0,7.319-5.313,162.229,162.229,0,0,0,14.366-13.426c4.662-4.861,10.138-8.981,14.493-14.24,4.463,7.572,12.18,7.282,19.263,6.289Z" transform="translate(-92.076 -51.688)" fill="#a66464"/>
        <path id="Tracé_3383" data-name="Tracé 3383" d="M157.226,172.932a18.434,18.434,0,0,1-3.614-2.4,8.57,8.57,0,0,1,.651-13.517h.036a15.041,15.041,0,0,1,5.2-1.825,1.626,1.626,0,0,0,.289-.054c.4-.054.777-.108,1.157-.163,8.059-.867,17.221,3.614,17.221,3.614s15.541-1.12,22.209-1.662,16.191.361,14.2,2.693-17.6,4.247-25.8,9.126c-8.2,4.861-31.569,4.174-31.569,4.174Z" transform="translate(-44.832 -45.661)" fill="#a66464"/>
        <rect id="Rectangle_89" data-name="Rectangle 89" width="114.748" height="9.469" rx="1.73" transform="translate(192.881 114.369) rotate(180)" fill="#23221e"/>
        <path id="Tracé_3384" data-name="Tracé 3384" d="M177.339,164.255H156.594a16.828,16.828,0,0,1-16.824-16.824V137.89h54.392v9.541a16.828,16.828,0,0,1-16.824,16.824Z" transform="translate(-53.614 -59.355)" fill="#ed9b1b"/>
        <path id="Tracé_3385" data-name="Tracé 3385" d="M157.759,168.953s-16.426-5.457-4.734-15.089,38.4-29.654,6.686-35.364c-31.732-5.71-2.873-23.492,14.98-24.07,0,0-17.763,4.319-11.366,11.475s29.22,9.668,29.509,25.1c.271,15.45-46.206,27.576-35.075,37.93Z" transform="translate(-48.978 -94.43)" fill="#fff8ec"/>
        <path id="Tracé_3386" data-name="Tracé 3386" d="M186.983,159.717s-10.427-3.47-3-9.577,24.4-18.83,4.247-22.462c-20.167-3.632-1.825-14.926,9.523-15.288,0,0-11.294,2.747-7.228,7.282,4.066,4.554,18.577,6.144,18.739,15.956.181,9.812-29.347,17.51-22.281,24.106Z" transform="translate(-21.786 -79.935)" fill="#fff8ec"/>
        <path id="Tracé_3387" data-name="Tracé 3387" d="M173.52,142.35h37.406v1.337a16.789,16.789,0,0,1-16.788,16.788h-3.831a16.789,16.789,0,0,1-16.788-16.788V142.35h0Z" transform="translate(-26.376 -55.756)" fill="#867832"/>
        <path id="Tracé_3388" data-name="Tracé 3388" d="M141.818,189.2s-.614,1.9-1.663,4.933c-2.982,8.547-9.487,26.148-15.9,36.268a32.081,32.081,0,0,1-3.885,5.132L96.642,201.942h0c-.235-.614-13.192-34.208,5.71-54.013.4-.416.8-.831,1.229-1.229A77.806,77.806,0,0,1,118.8,161.391c6.325,8.421,23.04,27.829,23.04,27.829Z" transform="translate(-92.092 -52.245)" fill="#ed9b1b"/>
        <g id="Groupe_264" data-name="Groupe 264" transform="translate(54.28 154.689)">
          <path id="Tracé_3389" data-name="Tracé 3389" d="M123.431,191.557a1,1,0,0,0,.632-.632c.018-.054,2.024-6.017,4.427-9.306a1,1,0,0,0-.217-1.391.99.99,0,0,0-1.391.217c-2.584,3.542-4.626,9.6-4.7,9.848a1,1,0,0,0,.632,1.265.949.949,0,0,0,.632,0Z" transform="translate(-122.13 -180.032)" fill="#8a4747"/>
          <path id="Tracé_3390" data-name="Tracé 3390" d="M128.273,189.987s.126-.054.2-.09a.981.981,0,0,0,.343-1.355c-.018-.036-2.223-3.759-2.367-7.084a.995.995,0,1,0-1.988.072c.163,3.813,2.548,7.843,2.638,8.005a.975.975,0,0,0,1.157.434Z" transform="translate(-120.25 -179.655)" fill="#8a4747"/>
        </g>
      </g>
      <path id="Tracé_3391" data-name="Tracé 3391" d="M39.93,292.4,154.7,296.99c-7.77-7.481-13.228-141.348-12.469-158.5a45.588,45.588,0,0,0-4.21-21.106c-1.355-6.2-3.578-11.384-7.066-14.529-15.794-14.149-27.485-11.764-27.485-11.764-6.4-1.861-26.455-.8-37.153,17h0a45.987,45.987,0,0,0-9.939,30.395C57.133,155.624,47.7,284.919,39.93,292.4Z" transform="translate(19.425 0)" fill="#5c1d1d"/>
      <g id="Groupe_273" data-name="Groupe 273" transform="translate(63.768 345.256)">
        <path id="Tracé_3392" data-name="Tracé 3392" d="M49.234,231.45S38.193,290.938,71.5,298.6c33.3,7.644,72.571-1.464,92.7-13.047,14.854-8.547,0-40.044,0-40.044s-72.969-7.3-114.965-14.041Z" transform="translate(-38.251 -231.45)" fill="#867832"/>
        <g id="Groupe_266" data-name="Groupe 266" transform="translate(75.983 25.227)">
          <path id="Tracé_3393" data-name="Tracé 3393" d="M124.02,436.95l1.807,13.5h22.5l-1.807-13.5Z" transform="translate(-52.461 -90.826)" fill="#a66464"/>
          <path id="Tracé_3394" data-name="Tracé 3394" d="M120.362,408.253s-4.482,51.013,7.427,93.822c8.078,29.039,16.932,61.133,21.775,78.77.307,1.084.578,2.114.849,3.09,1.789,6.505,2.855,10.372,2.855,10.372l4.283-.217,2.295-.108,20.42-1.03-.958-9.017-.325-3.09-18.5-173.369-1.012-9.541-.072-.6-.072-.7-.036-.325-.235-1.807-.108-.8-15.36-116.14-.307-2.295L139.77,248.69l-20.076,6.2-2.2.687L84.42,265.785c2.6,64.042,20.293,91.256,35.942,142.468Z" transform="translate(-84.42 -242.763)" fill="#867832"/>
          <path id="Tracé_3395" data-name="Tracé 3395" d="M114.64,333.95a1.413,1.413,0,0,0,1.482,1.337,100.2,100.2,0,0,0,14.944-2.1c1.3-.289,2.638-.614,3.957-.994l-.072-.7-.036-.325-.235-1.807a98.656,98.656,0,0,1-18.7,3.108,1.387,1.387,0,0,0-1.319,1.482Z" transform="translate(-60.031 -177.658)" fill="#4f4c32"/>
          <path id="Tracé_3396" data-name="Tracé 3396" d="M150.224,435.59H121.329c-.271-.976-.56-2.006-.849-3.09h29.4l.325,3.09Z" transform="translate(-55.318 -94.418)" fill="#4f4c32"/>
          <path id="Tracé_3397" data-name="Tracé 3397" d="M130.478,280.214a26.273,26.273,0,0,1-12-4.084c-6.975-4.5-11.4-11.728-14.1-17.89a57.625,57.625,0,0,1-3.686-11.511,1.12,1.12,0,0,1,2.2-.4,55.865,55.865,0,0,0,3.686,11.24c2.584,5.837,6.74,12.6,13.119,16.679a23.627,23.627,0,0,0,10.481,3.686l.307,2.295Z" transform="translate(-71.297 -245.41)" fill="#4f4c32"/>
          <path id="Tracé_3398" data-name="Tracé 3398" d="M153.864,570.16h-2.331c-.253-.976-.524-2.024-.8-3.09-5.295-20.438-14.764-57.248-20.98-82.727-8.674-35.563-6.27-91.419-6.054-96.027C93.183,327.707,88.665,267.55,88.611,266.954a1.129,1.129,0,0,1,1.048-1.193,1.144,1.144,0,0,1,1.211,1.048c.036.6,4.554,60.5,34.985,120.766a1.211,1.211,0,0,1,.126.56c-.036.578-2.964,59.055,5.963,95.666,6.27,25.7,15.866,62.958,21.125,83.251.289,1.084.542,2.114.8,3.09Z" transform="translate(-81.039 -228.988)" fill="#4f4c32"/>
        </g>
        <g id="Groupe_268" data-name="Groupe 268" transform="translate(142.697 373.906)">
          <path id="Tracé_3399" data-name="Tracé 3399" d="M204.411,482.057H122.5a11.465,11.465,0,0,1-1.084-4.554c-.506-6.921,1.7-17.98,2.783-24.955.127-.813.235-1.572.325-2.259a25.206,25.206,0,0,0,.235-2.855c0-5.692,5.042-4.716,5.042-4.716,8.294,8.132,17.673-4.066,23.166-.054,0,0,2.367,1.7,8.873,7.535,6.505,5.855,17.565,9.722,26.979,13.661,12.161,5.078,15.613,10.156,16.282,13.661a6.483,6.483,0,0,1-.669,4.554Z" transform="translate(-121.339 -435.568)" fill="#ed9b1b"/>
          <path id="Tracé_3400" data-name="Tracé 3400" d="M204.378,466.124H122.464a11.465,11.465,0,0,1-1.084-4.554h83.667A6.483,6.483,0,0,1,204.378,466.124Z" transform="translate(-121.306 -419.636)" fill="#c7711b"/>
          <g id="Groupe_267" data-name="Groupe 267" transform="translate(18.874)">
            <path id="Tracé_3401" data-name="Tracé 3401" d="M139.52,445.4s1.464-3.578,4.716-2.44,2.927,6.505,2.927,6.505S145.212,454.344,139.52,445.4Z" transform="translate(-125.539 -434.836)" fill="#fff"/>
            <path id="Tracé_3402" data-name="Tracé 3402" d="M139.565,459.551a1.353,1.353,0,0,1-1.355-1.355,17.216,17.216,0,0,1,5.313-12.722,1.33,1.33,0,0,1,1.9.163,1.346,1.346,0,0,1-.145,1.9,14.53,14.53,0,0,0-4.355,10.662,1.353,1.353,0,0,1-1.355,1.355Z" transform="translate(-126.597 -432.887)" fill="#fff"/>
            <path id="Tracé_3403" data-name="Tracé 3403" d="M153.676,449.355a1.348,1.348,0,0,1-.9-.343c-1.717-1.518-6.74-1.807-9.523-1.626a1.349,1.349,0,0,1-.163-2.693c.849-.054,8.385-.452,11.475,2.295a1.346,1.346,0,0,1-.9,2.349Z" transform="translate(-123.685 -433.297)" fill="#fff"/>
            <path id="Tracé_3404" data-name="Tracé 3404" d="M146.975,452.106a47.581,47.581,0,0,1-6.523-.506c-4.283-.578-7.517-2.566-8.421-5.15a4.2,4.2,0,0,1,.976-4.373,5.7,5.7,0,0,1,4.229-1.807h.108c5.656,0,12.5,6.632,13.282,7.391l-1.391,1.41h.072l.578,2.855a16.258,16.258,0,0,1-2.909.2Zm-9.632-8.909h-.072a2.783,2.783,0,0,0-2.15.9,1.259,1.259,0,0,0-.343,1.391c.434,1.247,2.494,2.729,6.072,3.217a41.718,41.718,0,0,0,7.12.452c-2.259-2.078-7.192-5.963-10.607-5.963Z" transform="translate(-131.783 -436.826)" fill="#fff"/>
            <path id="Tracé_3405" data-name="Tracé 3405" d="M144.815,452.163l-1.247-2.638c2.693-1.265,5.277-4.626,5.1-6.65-.036-.488-.253-1.1-1.518-1.464a1.6,1.6,0,0,0-1.59.181c-1.41,1.084-1.861,4.789-1.807,6.867l-2.927.072c-.018-.7-.09-6.9,2.927-9.252a5.057,5.057,0,0,1,7.825,3.343c.289,3.6-3.325,7.915-6.776,9.541Z" transform="translate(-124.492 -438.364)" fill="#fff"/>
          </g>
          <path id="Tracé_3406" data-name="Tracé 3406" d="M129.57,478.278h-2.44a18.057,18.057,0,0,0,4.409-13.119c-.4-8.1-5.259-13.553-8.62-16.39.127-.813.235-1.572.325-2.259,3.632,2.783,9.776,8.873,10.246,18.558a19.8,19.8,0,0,1-3.921,13.21Z" transform="translate(-120.063 -431.79)" fill="#c7711b"/>
          <path id="Tracé_3407" data-name="Tracé 3407" d="M143.579,450.9a1.347,1.347,0,0,1-.307-2.656l5.114-1.265a1.325,1.325,0,0,1,1.626.994,1.352,1.352,0,0,1-.994,1.644l-5.114,1.265a1.984,1.984,0,0,1-.325.036Z" transform="translate(-104.473 -431.445)" fill="#fff"/>
          <path id="Tracé_3408" data-name="Tracé 3408" d="M146.409,452.55a1.347,1.347,0,0,1-.307-2.656l5.114-1.265a1.325,1.325,0,0,1,1.626.994,1.354,1.354,0,0,1-.976,1.644l-5.114,1.265a1,1,0,0,1-.325.036Z" transform="translate(-102.189 -430.113)" fill="#fff"/>
          <path id="Tracé_3409" data-name="Tracé 3409" d="M149.239,454.138a1.332,1.332,0,0,1-1.3-1.03,1.354,1.354,0,0,1,.976-1.644l5.114-1.265a1.348,1.348,0,1,1,.632,2.62l-5.114,1.265a1,1,0,0,1-.325.036Z" transform="translate(-99.905 -428.846)" fill="#fff"/>
          <path id="Tracé_3410" data-name="Tracé 3410" d="M152.329,455.6a1.347,1.347,0,0,1-.307-2.656l5.114-1.265a1.354,1.354,0,0,1,1.644.976,1.325,1.325,0,0,1-.994,1.626l-5.114,1.265a1,1,0,0,1-.325.036Z" transform="translate(-97.411 -427.652)" fill="#fff"/>
          <path id="Tracé_3411" data-name="Tracé 3411" d="M155.679,456.848a1.332,1.332,0,0,1-1.3-1.03,1.351,1.351,0,0,1,.994-1.644l5.114-1.265a1.341,1.341,0,0,1,.651,2.6l-5.114,1.265a1,1,0,0,1-.325.036Z" transform="translate(-94.707 -426.659)" fill="#fff"/>
        </g>
        <g id="Groupe_269" data-name="Groupe 269" transform="translate(9.646 25.191)">
          <path id="Tracé_3412" data-name="Tracé 3412" d="M53.48,436.95l-.94,13.5h22.5l.94-13.5Z" transform="translate(-43.812 -90.79)" fill="#a66464"/>
          <path id="Tracé_3413" data-name="Tracé 3413" d="M52.065,403.547c.036.976.054,1.952.09,2.927v.145c.036,1.084.072,2.186.108,3.289q.081,2.385.163,4.825l2.729,164.551.054,3.09.2,11.909H80.815s.47-4.482,1.283-11.909c.108-.976.217-2.006.343-3.09C85.17,554.761,90.989,505.5,96.952,471.89c7.7-43.333,1.355-62.542,1.355-62.542s11.8-106.616,12.667-134.282l-40.514-8.15-2.548-.506L47.71,248.7S49.156,265,48.957,273c0,.723.235,3.795.217,4.572-.452,21.4.976,65.542,2.855,125.988Z" transform="translate(-47.71 -242.719)" fill="#867832"/>
          <path id="Tracé_3414" data-name="Tracé 3414" d="M50.12,334.39c.036.976.054,1.952.09,2.927a60.581,60.581,0,0,0,9.324,1.59,99.469,99.469,0,0,0,15.089.271,1.412,1.412,0,0,0,1.3-1.5,1.387,1.387,0,0,0-1.5-1.3C74.262,336.378,60.33,337.281,50.12,334.39Z" transform="translate(-45.765 -173.562)" fill="#4f4c32"/>
          <path id="Tracé_3415" data-name="Tracé 3415" d="M79.117,431.64c-.126,1.084-.235,2.114-.343,3.09H51.884l-.054-3.09Z" transform="translate(-44.385 -95.076)" fill="#4f4c32"/>
          <path id="Tracé_3416" data-name="Tracé 3416" d="M80.308,246.727c-.126.669-2.548,13.246-10.5,22.841a32.1,32.1,0,0,1-7.282,6.56c-3.686,2.367-9.614,3.741-13.987,4.1v-2.223c3.921-.361,9.469-1.663,12.758-3.777a28.366,28.366,0,0,0,5.963-5.186c8.24-9.324,10.806-22.57,10.842-22.733a1.12,1.12,0,1,1,2.2.4Z" transform="translate(-47.04 -245.39)" fill="#4f4c32"/>
          <path id="Tracé_3417" data-name="Tracé 3417" d="M65.853,566.6c.126-.994.253-2.024.4-3.09C70.37,530.745,79.1,460.776,81.14,440.465a224.275,224.275,0,0,0-.379-48.267L95.145,269.5a1.119,1.119,0,0,0-.976-1.247,1.146,1.146,0,0,0-1.247.994L78.52,392.09v.289a218.6,218.6,0,0,1,.4,47.869c-2.042,20.366-10.806,90.642-14.908,123.277q-.19,1.6-.379,3.09h2.259Z" transform="translate(-34.862 -226.943)" fill="#4f4c32"/>
        </g>
        <g id="Groupe_272" data-name="Groupe 272" transform="translate(0 369.861)">
          <g id="Groupe_270" data-name="Groupe 270" transform="translate(0 8.898)">
            <path id="Tracé_3418" data-name="Tracé 3418" d="M90.111,477.571v.56c0,.849-.054,1.59-.09,2.241-.09,1.428-.181,2.295-.181,2.295H42.495a25.953,25.953,0,0,1-.054-4.554c.307-4.843,1.915-12.487,8.457-17.528,8.945-6.921,5.493-5.475,7.337-8.638.2-.343,1.825-5.71,1.988-6.072,1.536-3.271,2.964-4.825,11.439-4.825,11.258,0,12.234,5.457,13.445,8.331a56.292,56.292,0,0,1,1.879,6.686c.289,1.193.56,2.476.849,3.777.687,3.271,1.337,6.668,1.789,9.379a48.944,48.944,0,0,1,.524,8.331Z" transform="translate(-42.372 -441.05)" fill="#ed9b1b"/>
            <path id="Tracé_3419" data-name="Tracé 3419" d="M71.466,470.88v.56c0,.849-.054,1.59-.09,2.241a13.18,13.18,0,0,1-4.915-6.379c-2.927-7.987,1.572-17.547,1.771-17.962l.09.036c.289,1.193.56,2.476.849,3.777-1.066,3.253-2.295,8.728-.6,13.372a10.955,10.955,0,0,0,2.909,4.355Z" transform="translate(-23.728 -434.359)" fill="#c7711b"/>
            <path id="Tracé_3420" data-name="Tracé 3420" d="M90.111,461.57c-.054,2.692-.271,4.554-.271,4.554H42.495a25.952,25.952,0,0,1-.054-4.554Z" transform="translate(-42.372 -424.489)" fill="#c7711b"/>
          </g>
          <g id="Groupe_271" data-name="Groupe 271" transform="translate(11.092)">
            <path id="Tracé_3421" data-name="Tracé 3421" d="M61.7,451.973a1.263,1.263,0,0,1-.56-.126c-1.193-.542-11.746-5.439-12.577-10.571a4.247,4.247,0,0,1,1.5-3.939,3.948,3.948,0,0,1,3.831-1.066c4.771,1.265,8.4,11.836,9.071,13.95a1.346,1.346,0,0,1-1.283,1.771Zm-8.782-13.155a1.505,1.505,0,0,0-1.012.488,1.618,1.618,0,0,0-.669,1.536c.343,2.169,4.373,5.024,8.023,7.03-1.662-4.12-4.084-8.511-6.054-9.017a1.587,1.587,0,0,0-.307-.036Z" transform="translate(-48.51 -436.118)" fill="#fff"/>
            <path id="Tracé_3422" data-name="Tracé 3422" d="M57.692,451.981a1.406,1.406,0,0,1-.9-.343,1.356,1.356,0,0,1-.379-1.428c.669-2.114,4.3-12.686,9.071-13.951a3.94,3.94,0,0,1,3.831,1.066,4.259,4.259,0,0,1,1.5,3.939c-.831,5.132-11.366,10.029-12.577,10.571a1.489,1.489,0,0,1-.56.127Zm8.782-13.155a1.594,1.594,0,0,0-.307.036c-1.952.524-4.373,4.9-6.054,9.017,3.668-2.024,7.68-4.861,8.023-7.03a1.618,1.618,0,0,0-.669-1.536,1.506,1.506,0,0,0-1.012-.488Z" transform="translate(-42.188 -436.126)" fill="#fff"/>
            <path id="Tracé_3423" data-name="Tracé 3423" d="M57.491,442.815s-2.2-1.048-2.367,1.988c-.145,2.458,1.608,2.982,2.313,2.566a2.049,2.049,0,0,0,2.259-.759c.759-1.211.253-5.006-2.187-3.795Z" transform="translate(-43.179 -430.917)" fill="#fff"/>
            <path id="Tracé_3424" data-name="Tracé 3424" d="M51.676,450.285a1.373,1.373,0,0,1-.813-.271,1.353,1.353,0,0,1-.271-1.9,11.53,11.53,0,0,1,11.1-4.409,1.342,1.342,0,0,1,1.048,1.59,1.372,1.372,0,0,1-1.59,1.066,8.817,8.817,0,0,0-8.4,3.379,1.335,1.335,0,0,1-1.084.542Z" transform="translate(-47.05 -430.129)" fill="#fff"/>
            <path id="Tracé_3425" data-name="Tracé 3425" d="M68.006,452.267a1.336,1.336,0,0,1-1.229-.8c-2.187-4.807-9.83-5.981-9.9-5.981a1.352,1.352,0,1,1,.4-2.674c.379.054,9.18,1.409,11.963,7.535a1.358,1.358,0,0,1-.669,1.789,1.263,1.263,0,0,1-.56.126Z" transform="translate(-42.69 -430.738)" fill="#fff"/>
          </g>
          <path id="Tracé_3426" data-name="Tracé 3426" d="M65.247,450.786a1.17,1.17,0,0,1-.343-.036,23.322,23.322,0,0,0-10.969-.217,1.35,1.35,0,1,1-.723-2.6,26.174,26.174,0,0,1,12.378.217,1.349,1.349,0,0,1-.325,2.656Z" transform="translate(-34.422 -427.106)" fill="#fff"/>
          <path id="Tracé_3427" data-name="Tracé 3427" d="M64.135,453.156a1.172,1.172,0,0,1-.343-.036A23.474,23.474,0,0,0,52.8,452.9a1.36,1.36,0,0,1-1.662-.94,1.345,1.345,0,0,1,.94-1.663,26.174,26.174,0,0,1,12.378.217,1.349,1.349,0,0,1-.325,2.656Z" transform="translate(-35.334 -425.193)" fill="#fff"/>
          <path id="Tracé_3428" data-name="Tracé 3428" d="M62.825,455.846a1.173,1.173,0,0,1-.343-.036,23.472,23.472,0,0,0-10.987-.217,1.36,1.36,0,0,1-1.662-.94,1.345,1.345,0,0,1,.94-1.662,26.173,26.173,0,0,1,12.378.217,1.349,1.349,0,0,1-.325,2.656Z" transform="translate(-36.392 -423.022)" fill="#fff"/>
        </g>
      </g>
      <g id="Groupe_274" data-name="Groupe 274" transform="translate(59.34 178.826)">
        <path id="Tracé_3429" data-name="Tracé 3429" d="M43.081,193.869c1.807,4.21,3.524,8.565,5.132,12.957.217.6.434,1.175.651,1.771,5.367,14.908,7.59,15.812,9.089,25.787,3.09,20.673-.56,50.833-2.62,71.4,0,0,57.609,20.564,111.767-3.018-1.084-7.608-8.349-31.822-12.161-55.151-.307-1.861-.542-3.506-.723-4.879-.054-.361-.09-.7-.126-1.03v-.127s.289-.289.8-.849c2.241-2.4,8.439-9.559,10.644-17.492,2.711-9.758-8.258-28.262-12.053-48.3s-1.753-25.841-33.937-29.437L85.421,139.35s-11.674,2.982-24.052,7.1c-18.938,6.325-26.184,29.076-18.306,47.435Z" transform="translate(-39.921 -139.35)" fill="#ed9b1b"/>
        <path id="Tracé_3430" data-name="Tracé 3430" d="M56.586,270.037h-.145a.882.882,0,0,1-.741-1.012c.072-.434,6.74-43.532,1.879-66.3a150.565,150.565,0,0,0-8.186-26.853.878.878,0,0,1,1.608-.7,152.394,152.394,0,0,1,8.294,27.2c4.915,23.094-1.807,66.518-1.861,66.951a.888.888,0,0,1-.867.741Z" transform="translate(-32.338 -110.871)" fill="#c7711b"/>
        <path id="Tracé_3431" data-name="Tracé 3431" d="M110.878,225.595a.886.886,0,0,1-.669-1.464c9.523-10.951,6.668-19.769.849-33.015-5.945-13.517-10.138-38.617-10.174-38.87a.879.879,0,1,1,1.735-.289c.036.253,4.192,25.136,10.047,38.436,5.927,13.463,9.053,23.185-1.12,34.876a.9.9,0,0,1-.669.307Z" transform="translate(9.271 -129.767)" fill="#c7711b"/>
        <path id="Tracé_3432" data-name="Tracé 3432" d="M96.19,169.726a8.5,8.5,0,0,0,6.27-2.656c5.475-5.566,5.331-18.053,5.313-18.577a.914.914,0,0,0-.94-.9.926.926,0,0,0-.9.94c0,.126.145,12.252-4.789,17.257a6.667,6.667,0,0,1-4.951,2.1c-10.553,0-30.214-16.137-30.413-16.3a.912.912,0,0,0-1.157,1.41c.831.687,20.384,16.715,31.587,16.715Z" transform="translate(-20.261 -132.7)" fill="#c7711b"/>
      </g>
      <g id="Groupe_275" data-name="Groupe 275" transform="translate(74.095 182.332)">
        <path id="Tracé_3433" data-name="Tracé 3433" d="M192.416,424.564C144.944,411.987,100,440,50.67,434.033,48.1,262.688,70.909,222.644,70.909,222.644c10.1-36.105-15.432-78.209-15.739-78.734a31.683,31.683,0,0,1,9.126-2.62c12.306,22.227,16.444,40.767,16.444,40.767,18.305-1.428,47.905-4.156,47.905-4.156l-11.222-33.413s8.6-.452,10.409,1.608c16.806,38.273,17.6,29.527,30.106,57.41,7.59,16.914-9.957,35.129-7.77,45.719,4.138,19.986,8.367,39.249,12.487,57.211,3.271,14.24,6.469,27.684,9.487,40.026,11.439,46.893,20.221,78.083,20.221,78.083Z" transform="translate(-46.165 -141.29)" fill="#23221e"/>
        <path id="Tracé_3434" data-name="Tracé 3434" d="M118.167,169.436a.884.884,0,0,0-1.1-.759,82.025,82.025,0,0,1-15.631,2.313,102.557,102.557,0,0,1-28.606-2.566.888.888,0,0,0-.452,1.717,104.81,104.81,0,0,0,29.094,2.62,82.109,82.109,0,0,0,16.029-2.367.9.9,0,0,0,.669-.958h0Z" transform="translate(-29.02 -119.416)" fill="#5b5058"/>
        <path id="Tracé_3435" data-name="Tracé 3435" d="M66.411,236.587s17.2,3.2,39.7-1.337c0,0,.687,39.34-16.517,41.743C67.441,280.1,65.4,257.513,66.411,236.587Z" transform="translate(-33.463 -65.459)" fill="#5b5058"/>
        <path id="Tracé_3436" data-name="Tracé 3436" d="M132.6,272.716a11.175,11.175,0,0,1-2.331.994C107.75,280.6,101.9,257.429,99.51,235.491a108.811,108.811,0,0,0,23.618-2.8c5.367,11.348,8.728,24.955,9.487,40.026Z" transform="translate(-6.586 -67.525)" fill="#5b5058"/>
        <path id="Tracé_3437" data-name="Tracé 3437" d="M49.646,220.43s-3.2,6.433-.434,11.764l11.276,1.988.759-11.457-11.6-2.277Z" transform="translate(-48.087 -77.419)" fill="#23221e"/>
        <path id="Tracé_3438" data-name="Tracé 3438" d="M165.466,288.066a.809.809,0,0,1-.361-.072c-11.945-5.475-19.1-4.915-29.943-4.066a178.311,178.311,0,0,1-36.99-.343c-13.571-1.464-22.028-7.68-26.744-12.631a33.9,33.9,0,0,1-7.084-10.571.906.906,0,0,1,.524-1.138.89.89,0,0,1,1.138.524c.072.2,7.517,19.354,32.364,22.046a177.621,177.621,0,0,0,36.647.343c11.113-.867,18.45-1.446,30.81,4.21a.892.892,0,0,1-.361,1.7Z" transform="translate(-35.009 -46.137)" fill="#5b5058"/>
        <path id="Tracé_3439" data-name="Tracé 3439" d="M129.977,240.837c-17.33,0-31.786-8.312-41.472-16.011a104.5,104.5,0,0,1-20.058-21.251.887.887,0,0,1,1.482-.976,102.973,102.973,0,0,0,19.733,20.872c11.312,9,29.274,18.811,50.634,14.583a.873.873,0,0,1,1.03.687.882.882,0,0,1-.687,1.03,54.726,54.726,0,0,1-10.644,1.048Z" transform="translate(-31.776 -92.134)" fill="#5b5058"/>
      </g>
      <g id="Groupe_279" data-name="Groupe 279" transform="translate(85.912 95.332)">
        <path id="Tracé_3440" data-name="Tracé 3440" d="M75.252,160.665s-21.07-7.987-20.619-31.208S67.969,90.371,91.822,93.551c0,0,7.535,65.831-16.571,67.132Z" transform="translate(-54.626 -93.146)" fill="#5c1d1d"/>
        <path id="Tracé_3441" data-name="Tracé 3441" d="M95.229,103s4.879,19.155,1.753,22.5-7.752-3.831-7.752-3.831,2.277-17.89,5.981-18.667Z" transform="translate(-26.699 -85.193)" fill="#5c1d1d"/>
        <g id="Groupe_278" data-name="Groupe 278" transform="translate(7.693 7.582)">
          <path id="Tracé_3442" data-name="Tracé 3442" d="M89.57,118.224s5.042-5.963,7.9,0,.651,18.016-7.011,16.047l-.885-16.047Z" transform="translate(-34.117 -82.627)" fill="#8a4747"/>
          <g id="Groupe_276" data-name="Groupe 276" transform="translate(8.199 57.263)">
            <path id="Tracé_3443" data-name="Tracé 3443" d="M97.935,137.939v16.426s-8.656,14.185-34.515-3c4.9-5.475,5.042-16.029,3.072-22.335a35.821,35.821,0,0,0,5.024,2.674c.632.289,1.337.578,2.06.885,6.469,2.711,16.191,5.981,24.359,5.349Z" transform="translate(-63.42 -129.03)" fill="#a66464"/>
            <path id="Tracé_3444" data-name="Tracé 3444" d="M94.319,136.744v7.7c-7.029-1.572-19.354-5.4-26.419-13.932.632.289,1.337.578,2.06.885,6.469,2.711,16.191,5.981,24.359,5.349Z" transform="translate(-59.804 -127.836)" fill="#211c19"/>
          </g>
          <path id="Tracé_3445" data-name="Tracé 3445" d="M115.407,132.92c0,1.7,0,3.307-.036,4.825-.181,11.366-.958,17.583-3.686,20.4-13.806,14.276-44.454-2.765-45.429-3.307h-.018q-.434-1.925-.759-3.795a99.939,99.939,0,0,1-.994-29.871,22.6,22.6,0,0,1,14.673-22.48c9.632-3.506,18.287.723,23.474,2.331,7.843,2.421,12.776,12.541,12.812,26.979v4.951Z" transform="translate(-54.912 -97.341)" fill="#a66464"/>
          <path id="Tracé_3446" data-name="Tracé 3446" d="M84.206,107.02s2.873.289,1.861,2.909-6.758-.271-10.86,4.572c0,0-1.753-6.307,9.017-7.481Z" transform="translate(-45.794 -89.53)" fill="#5c1d1d"/>
          <path id="Tracé_3447" data-name="Tracé 3447" d="M88.248,107.02s-2.873.289-1.861,2.909,6.758-.271,10.86,4.572c0,0,1.753-6.307-9.017-7.481Z" transform="translate(-36.86 -89.53)" fill="#5c1d1d"/>
          <path id="Tracé_3448" data-name="Tracé 3448" d="M85.118,119.441c0,1.337-2.747,2.421-6.144,2.421s-6.144-1.084-6.144-2.421,2.747-2.421,6.144-2.421S85.118,118.1,85.118,119.441Z" transform="translate(-47.627 -81.459)" fill="#8a4747"/>
          <path id="Tracé_3449" data-name="Tracé 3449" d="M89.461,126.08c-4.662,0-8.764-3.307-8.818-3.361a.758.758,0,0,1,.958-1.175h0c.307.253,7.662,6.18,13.192.777a.754.754,0,0,1,1.066,1.066,8.844,8.844,0,0,1-6.379,2.674Z" transform="translate(-41.543 -77.942)" fill="#211c19"/>
          <path id="Tracé_3450" data-name="Tracé 3450" d="M87.5,122.474a7.317,7.317,0,0,1-3.488-.849.76.76,0,0,1,.723-1.337,5.934,5.934,0,0,0,3.09.669l-2.494-7.138a.754.754,0,1,1,1.428-.488l2.8,8.005a.738.738,0,0,1-.054.614.813.813,0,0,1-.47.379,7.575,7.575,0,0,1-1.518.163Z" transform="translate(-38.919 -84.853)" fill="#211c19"/>
          <path id="Tracé_3451" data-name="Tracé 3451" d="M94.854,117.03c0,1.7,0,3.307-.036,4.825-3.126-.127-5.548-1.157-5.548-2.4s2.458-2.295,5.584-2.4Z" transform="translate(-34.359 -81.451)" fill="#8a4747"/>
          <g id="Groupe_277" data-name="Groupe 277" transform="translate(34.076 29.615)">
            <path id="Tracé_3452" data-name="Tracé 3452" d="M81.463,117.055c0,1.843-.831,3.325-1.861,3.325s-1.861-1.482-1.861-3.325.831-3.325,1.861-3.325S81.463,115.212,81.463,117.055Z" transform="translate(-77.74 -113.73)" fill="#211c19"/>
            <path id="Tracé_3453" data-name="Tracé 3453" d="M91.513,117.055c0,1.843-.831,3.325-1.861,3.325s-1.861-1.482-1.861-3.325.831-3.325,1.861-3.325S91.513,115.212,91.513,117.055Z" transform="translate(-69.629 -113.73)" fill="#211c19"/>
          </g>
          <path id="Tracé_3454" data-name="Tracé 3454" d="M71.478,125.03c-.09.2-2.494,5.8-5.981,7.445h-.018c-.289-1.3-.542-2.566-.759-3.813a14.021,14.021,0,0,0,6.758-3.632Z" transform="translate(-54.172 -74.995)" fill="#211c19"/>
          <path id="Tracé_3455" data-name="Tracé 3455" d="M72.828,120.241s-7.337-9.867-12.722-2.114c-4.427,6.379,3.921,23.383,12.884,17.167l-.163-15.071Z" transform="translate(-58.883 -82.964)" fill="#a66464"/>
          <path id="Tracé_3456" data-name="Tracé 3456" d="M69.859,130.239a.745.745,0,0,1-.741-.669A12.609,12.609,0,0,0,61.781,119.4a.75.75,0,0,1,.56-1.391,14.127,14.127,0,0,1,8.276,11.4.754.754,0,0,1-.669.831h-.09Z" transform="translate(-56.926 -80.71)" fill="#211c19"/>
          <path id="Tracé_3457" data-name="Tracé 3457" d="M62.476,123.653a.736.736,0,0,1-.578-.271.752.752,0,0,1,.108-1.066c.307-.253,3-2.385,5.277-1.789a.755.755,0,0,1,.542.922.763.763,0,0,1-.922.542c-1.3-.325-3.343,1.012-3.957,1.5a.78.78,0,0,1-.47.163Z" transform="translate(-56.59 -78.714)" fill="#211c19"/>
          <path id="Tracé_3458" data-name="Tracé 3458" d="M81.13,131.686a11.038,11.038,0,1,1,13.155-8.4A11.046,11.046,0,0,1,81.13,131.686ZM85.539,111.7a9.429,9.429,0,1,0,7.174,11.24A9.438,9.438,0,0,0,85.539,111.7Z" transform="translate(-47.922 -87.234)" fill="#fff"/>
          <path id="Tracé_3459" data-name="Tracé 3459" d="M78.778,116.444a.948.948,0,0,1-.307-.036,16.491,16.491,0,0,0-11.6,1.084.809.809,0,1,1-.8-1.41,17.82,17.82,0,0,1,12.848-1.229.8.8,0,0,1,.542.994.813.813,0,0,1-.7.578Z" transform="translate(-53.412 -83.756)" fill="#fff"/>
          <path id="Tracé_3460" data-name="Tracé 3460" d="M94.73,131.206a11.038,11.038,0,1,1,13.155-8.4A11.046,11.046,0,0,1,94.73,131.206Zm4.409-19.986a9.429,9.429,0,1,0,7.174,11.24A9.438,9.438,0,0,0,99.139,111.22Z" transform="translate(-36.946 -87.622)" fill="#fff"/>
          <path id="Tracé_3461" data-name="Tracé 3461" d="M84.12,115.865a.9.9,0,0,1-.343-.235.8.8,0,0,1,.09-1.138,4.972,4.972,0,0,1,5.584-.4.809.809,0,0,1-.8,1.41,3.35,3.35,0,0,0-3.759.217.8.8,0,0,1-.8.145Z" transform="translate(-38.949 -84.37)" fill="#fff"/>
        </g>
        <path id="Tracé_3462" data-name="Tracé 3462" d="M101.822,94.65a26.487,26.487,0,0,1,16.462,13.3c2.1,4.1,4.174,9.614-2.006,9.776C99.419,118.178,88,102.312,88,102.312s-.867,16.318-14.167,16.318-14.348-9.867-7.77-16.516C71.41,96.692,86.119,90.2,101.822,94.65Z" transform="translate(-48.579 -93.125)" fill="#5c1d1d"/>
        <path id="Tracé_3463" data-name="Tracé 3463" d="M73.883,106.695s-6.216,9.035-2.295,17.2c3.921,8.15,5.132,14.98,3.036,19.986,0,0-2.06-8.891-6.361-15.233-3.542-5.2-6.7-9.09-5.71-15.848.687-4.644,3.289-9.379,11.33-6.108Z" transform="translate(-48.378 -83.087)" fill="#5c1d1d"/>
      </g>
      <g id="Groupe_281" data-name="Groupe 281" transform="translate(15.861 195.061)">
        <path id="Tracé_3464" data-name="Tracé 3464" d="M91.575,177.043l-6.18,11.493-6.126,11.637c-2.024,3.885-4.048,7.77-6.018,11.674s-3.939,7.788-5.855,11.692c-3.813,7.807-7.554,15.613-10.842,23.347-1.662,3.849-3.217,7.7-4.536,11.384-.651,1.843-1.247,3.65-1.735,5.313a43.073,43.073,0,0,0-1.03,4.229l-.651-6.831a98.383,98.383,0,0,0,3.614,10.878,58.445,58.445,0,0,0,4.861,9.541c.958,1.518,2.006,3,3.144,4.518,1.138,1.5,2.367,3.036,3.686,4.59,2.638,3.108,5.638,6.307,8.71,9.65h0a14.551,14.551,0,0,1-20.311,20.781c-3.415-3-6.921-6.108-10.5-9.614-1.789-1.753-3.6-3.6-5.367-5.566s-3.488-4.066-5.15-6.271a91.6,91.6,0,0,1-8.638-14.041,123.072,123.072,0,0,1-6-14.547,14.121,14.121,0,0,1-.723-6.072l.072-.759a65.677,65.677,0,0,1,1.536-8.909c.632-2.656,1.319-5.114,2.042-7.517,1.464-4.789,3.054-9.306,4.716-13.734,3.361-8.837,6.957-17.312,10.752-25.66q2.819-6.261,5.783-12.414c1.97-4.1,3.957-8.2,6-12.252,2.024-4.066,4.1-8.1,6.2-12.125l3.18-6.036c.524-1.012,1.066-2.006,1.626-3.018l1.681-3.054a18.319,18.319,0,0,1,32.2,17.474l-.108.2Z" transform="translate(-15.861 -147.125)" fill="#a66464"/>
        <path id="Tracé_3465" data-name="Tracé 3465" d="M69.937,148.923s-12.577-4.987-23.185,14.059C36.163,182.028,27.76,199.918,27.76,199.918l34.768,14.908s21.016-32.111,22.715-37.3c1.681-5.186,1.138-24.5-15.306-28.588Z" transform="translate(-6.258 -148.334)" fill="#ed9b1b"/>
        <path id="Tracé_3466" data-name="Tracé 3466" d="M48.285,199.537a.84.84,0,0,1-.416-.108.873.873,0,0,1-.361-1.193l17.2-32.346a.881.881,0,0,1,1.554.831l-17.2,32.346A.877.877,0,0,1,48.285,199.537Z" transform="translate(9.593 -134.544)" fill="#c7711b"/>
        <path id="Tracé_3467" data-name="Tracé 3467" d="M55.773,171.961a.884.884,0,0,1-.235-1.735l7.572-2.132a.881.881,0,0,1,.47,1.7l-7.572,2.132a1.628,1.628,0,0,1-.235.036Z" transform="translate(15.64 -132.412)" fill="#c7711b"/>
        <g id="Groupe_280" data-name="Groupe 280" transform="translate(19.279 110.758)">
          <path id="Tracé_3468" data-name="Tracé 3468" d="M40.77,215.164a.7.7,0,0,1-.271-.036c-2.873-.958-13.047-1.626-13.137-1.626a.887.887,0,0,1,.108-1.771c.434.036,10.5.687,13.589,1.717a.869.869,0,0,1,.56,1.12.884.884,0,0,1-.831.614Z" transform="translate(-26.53 -207.928)" fill="#8a4747"/>
          <path id="Tracé_3469" data-name="Tracé 3469" d="M36.591,216.518a.877.877,0,0,1-.632-.271c-1.59-1.608-5.6-5.024-5.638-5.06a.885.885,0,0,1,1.138-1.355c.163.145,4.12,3.506,5.765,5.168a.883.883,0,0,1,0,1.247.926.926,0,0,1-.614.253Z" transform="translate(-23.724 -209.626)" fill="#8a4747"/>
        </g>
        <path id="Tracé_3470" data-name="Tracé 3470" d="M91.34,252.715c.036,1.464-2.313,1.518-5.06,1.319-1.1-.072-2.277-.2-3.379-.289-.47-.036-.922-.072-1.355-.09-3.976-.163-5.819-.813-9.089-.235a21.565,21.565,0,0,1,6,1.9c.343.217.759.452,1.193.7.777.452,1.662.958,2.53,1.482a16.478,16.478,0,0,1,3.542,2.584c1.211,1.428-2.909,3.018-6.849,1.825a23.156,23.156,0,0,1-3.632-1.518,13.459,13.459,0,0,0-2.927-1.211l-.325-.054a3.23,3.23,0,0,0-1.59.163s.994.6,2.168,1.373h0s.126.09.2.145c.741.488,1.518,1.048,2.168,1.572a12.093,12.093,0,0,1,3.18,5.024c.325,1.066.289,1.988-.343,2.367-.687.434-2.1-.126-3.741-.958-2.458-1.247-5.457-3.09-7.481-3.2a164.426,164.426,0,0,1-17.98-2.132c-6.849-1.138-12.324-7.68-13.661-10.7-.325-.723-.8-1.518-.8-1.518a50.811,50.811,0,0,1,16.571-16.806s1.626-.759,3.741-1.554a27.459,27.459,0,0,1,6.4-1.717,7.71,7.71,0,0,1,2.168.127c.9.181,1.59.8,2.331.849,2.223.181,2.259.578,2.259.578l-1.048.072,1.048-.072c.434,2.349.361,3.6.614,5.674l.126.922.018.2c.054-.018-.145.036.416-.108a26.806,26.806,0,0,1,7.355-.849c4.662.145,8.728,2.873,11.059,3.741s-.542,3.867-4.463,3.488a30.214,30.214,0,0,0-8.6.289,28.2,28.2,0,0,1,7.788,1.319c1.265.506,3.126,1.12,4.843,1.825a18.994,18.994,0,0,1,2.349,1.1c1.283.7,2.187,1.5,2.2,2.367Z" transform="translate(-1.133 -81.485)" fill="#a66464"/>
      </g>
    </g>
    <path id="Ligne_60" data-name="Ligne 60" d="M557,1.5H0A1.5,1.5,0,0,1-1.5,0,1.5,1.5,0,0,1,0-1.5H557A1.5,1.5,0,0,1,558.5,0,1.5,1.5,0,0,1,557,1.5Z" transform="translate(-116.683 988.731)" fill="#ee863f"/>
  </g>
</svg>
