<svg xmlns="http://www.w3.org/2000/svg" xmlns:xlink="http://www.w3.org/1999/xlink" width="400" height="400" viewBox="0 0 400 400">
  <defs>
    <clipPath id="clip-path">
      <circle id="Ellipse_21" data-name="Ellipse 21" cx="200" cy="200" r="200" transform="translate(554 1657)" fill="#fff"/>
    </clipPath>
  </defs>
  <g id="Groupe_de_masques_2" data-name="Groupe de masques 2" transform="translate(-554 -1657)" clip-path="url(#clip-path)">
    <g id="kjh" transform="translate(451.012 1654.449)">
      <g id="a" transform="translate(2.83 3.54)">
        <rect id="Rectangle_37" data-name="Rectangle 37" width="600.316" height="399.011" fill="#fff"/>
      </g>
      <g id="b" transform="translate(44.316 15.372)">
        <g id="Groupe_52" data-name="Groupe 52">
          <path id="Tracé_1965" data-name="Tracé 1965" d="M288.184,342.915S178.152,373.157,97.246,289.149,56.194,59.336,166.081,44.613C254.454,32.767,281.393,27.736,374.628,19.3,467,10.939,552.972,53.976,568.708,120.553c15.672,66.3-42.716,236.081-161.507,228.655-89.538-5.6-119.009-6.3-119.009-6.3Z" transform="translate(-54.45 -18.262)"/>
          <path id="Tracé_1966" data-name="Tracé 1966" d="M284.082,380.8,265.63,113.01l165.606,2.716L420.523,380.941Z" transform="translate(-95.909 -36.863)" fill="#fff"/>
        </g>
      </g>
      <g id="c" transform="translate(51.824 24.846)">
        <g id="Groupe_62" data-name="Groupe 62" transform="translate(259.361 54.648)">
          <g id="Groupe_53" data-name="Groupe 53" transform="translate(113.602 38.886)">
            <path id="Tracé_1967" data-name="Tracé 1967" d="M587.954,167.157s3.552-31.4,22.455-16.9c15.214,11.669-23.95,44.468-12.473,45.384s26.513-15.334,27.928,1.5-43.632,23.427-34.189,33.53c2.13,2.282,8.607.418,14.442,1.463,10.231,1.832,10.9,13.855-20.55,28.884-36.085,17.247-56.37,71.7-56.37,71.7l-.707-16.829s19.353-78.077,15.977-91.41,8.511-27.839,20.751-3.793c2.62,5.144,7.354-1.76,4.935-9.725-3.641-12-14.571-29.423-4.059-34.711,17.488-8.792,13.454,40.658,21.86-9.106Z" transform="translate(-527.984 -146.432)" fill="#74c1bd"/>
            <path id="Tracé_1968" data-name="Tracé 1968" d="M562.5,275.381,555.491,231.7a.88.88,0,1,1,1.738-.279l6.657,41.509,43.181-17.272a.88.88,0,1,1,.654,1.634Z" transform="translate(-533.455 -163.144)" fill="#c1eee6"/>
            <path id="Tracé_1969" data-name="Tracé 1969" d="M527.86,342.6a.88.88,0,0,1-.88-.88c0-2.907,1.075-7.818,3.285-15.013,1.964-6.392,4.849-14.619,8.576-24.453,6.271-16.544,15.012-37.891,25.983-63.451,18.675-43.508,37.593-84.7,37.782-85.11a.88.88,0,1,1,1.6.735c-.189.411-19.1,41.584-37.765,85.072-10.96,25.535-19.692,46.859-25.954,63.378-7.794,20.564-11.746,33.632-11.746,38.841A.88.88,0,0,1,527.86,342.6Z" transform="translate(-527.86 -147.929)" fill="#c1eee6"/>
            <path id="Tracé_1970" data-name="Tracé 1970" d="M608.808,176.078l2.186-20.113a.88.88,0,0,1,1.75.19l-1.832,16.856,11-5.678a.88.88,0,0,1,.807,1.564Z" transform="translate(-543.958 -148.322)" fill="#c1eee6"/>
            <path id="Tracé_1971" data-name="Tracé 1971" d="M586.009,219.763l-9.49-30.945a.88.88,0,1,1,1.683-.516l8.995,29.331L627.769,207a.88.88,0,1,1,.446,1.7Z" transform="translate(-537.578 -154.702)" fill="#c1eee6"/>
          </g>
          <g id="Groupe_54" data-name="Groupe 54" transform="translate(141.931 125.702)">
            <path id="Tracé_1972" data-name="Tracé 1972" d="M634.41,271.794s24.368-7.635,18.87-16.339C649.551,249.541,634.41,271.794,634.41,271.794Z" transform="translate(-577.108 -254.456)" fill="#7a8db5"/>
            <path id="Tracé_1973" data-name="Tracé 1973" d="M624.08,279.142s17.625-18.485,8.6-23.443C626.547,252.331,624.08,279.142,624.08,279.142Z" transform="translate(-575.08 -254.642)" fill="#7a8db5"/>
            <path id="Tracé_1974" data-name="Tracé 1974" d="M616.435,286.933s10.094-21.3-.04-22.206C609.507,264.108,616.435,286.933,616.435,286.933Z" transform="translate(-572.972 -256.47)" fill="#7a8db5"/>
            <path id="Tracé_1975" data-name="Tracé 1975" d="M604.915,299.013s10.094-21.3-.04-22.206C597.987,276.188,604.915,299.013,604.915,299.013Z" transform="translate(-570.71 -258.841)" fill="#7a8db5"/>
            <path id="Tracé_1976" data-name="Tracé 1976" d="M594.843,313.4s11.661-18.782,1.648-20.012C589.692,292.548,594.843,313.4,594.843,313.4Z" transform="translate(-568.973 -262.093)" fill="#7a8db5"/>
            <path id="Tracé_1977" data-name="Tracé 1977" d="M624.47,282.424s24.954,5.417,24.488-4.862C648.645,270.578,624.47,282.424,624.47,282.424Z" transform="translate(-575.156 -258.559)" fill="#7a8db5"/>
            <path id="Tracé_1978" data-name="Tracé 1978" d="M617.84,291.981s21.49,11.621,22.792,1C641.516,285.761,617.84,291.981,617.84,291.981Z" transform="translate(-573.855 -261.333)" fill="#7a8db5"/>
            <path id="Tracé_1979" data-name="Tracé 1979" d="M606.27,303.641s21.49,11.621,22.792,1C629.946,297.421,606.27,303.641,606.27,303.641Z" transform="translate(-571.583 -263.623)" fill="#7a8db5"/>
            <path id="Tracé_1980" data-name="Tracé 1980" d="M596.02,316.761s21.137,7.691,20.888-2.162C616.739,307.913,596.02,316.761,596.02,316.761Z" transform="translate(-569.571 -265.772)" fill="#7a8db5"/>
            <path id="Tracé_1981" data-name="Tracé 1981" d="M563.11,355.677a.605.605,0,0,1-.571-.8A163.9,163.9,0,0,1,580.385,319.3a224.073,224.073,0,0,1,21.672-27.815,247.375,247.375,0,0,1,18.292-18.127c4.684-4.167,7.687-6.469,7.717-6.492a.605.605,0,0,1,.735.961c-.03.023-3.008,2.307-7.665,6.451a246.2,246.2,0,0,0-18.2,18.041c-12.808,14.089-30.015,36.447-39.253,62.949A.605.605,0,0,1,563.11,355.677Z" transform="translate(-563.11 -256.987)" fill="#5d77a6"/>
            <path id="Tracé_1982" data-name="Tracé 1982" d="M626.355,280.748q-.374,0-.726-.012l-.71-.025.137-.7a77.391,77.391,0,0,1,5.6-16.518.6.6,0,0,1,1.088.529,76.223,76.223,0,0,0-5.351,15.513c6.82-.017,17.432-3.278,17.543-3.312a.605.605,0,1,1,.358,1.156c-.029.009-2.946.909-6.674,1.766A53,53,0,0,1,626.355,280.748Z" transform="translate(-575.388 -256.282)" fill="#5d77a6"/>
            <path id="Tracé_1983" data-name="Tracé 1983" d="M637.223,291.077H637.2c-.609-.019-14.969-.479-20.234-2.092l-.423-.13-.182-16.628a.605.605,0,0,1,.6-.612h.007a.605.605,0,0,1,.6.6l.172,15.736c5.449,1.468,19.351,1.913,19.495,1.918a.605.605,0,0,1-.018,1.21Z" transform="translate(-573.684 -257.943)" fill="#5d77a6"/>
            <path id="Tracé_1984" data-name="Tracé 1984" d="M623.891,303.556a.608.608,0,0,1-.078,0l-18.176-2.329-.039-.489c-.031-.382-.744-9.412.037-14.692a.605.605,0,0,1,1.2.177c-.659,4.46-.2,11.954-.063,13.929l17.2,2.2a.605.605,0,0,1-.076,1.205Z" transform="translate(-571.506 -260.674)" fill="#5d77a6"/>
            <path id="Tracé_1985" data-name="Tracé 1985" d="M597.477,314.59c-.513,0-1.011-.011-1.488-.036l-.648-.033.078-.644c.012-.1,1.211-10.048.857-16.1a.6.6,0,1,1,1.208-.071,110.917,110.917,0,0,1-.787,15.666c6.364.159,16.139-1.809,16.241-1.829a.605.605,0,0,1,.241,1.186A96.63,96.63,0,0,1,597.477,314.59Z" transform="translate(-569.571 -262.953)" fill="#5d77a6"/>
          </g>
          <g id="Groupe_56" data-name="Groupe 56" transform="translate(79.445 149.606)">
            <path id="Tracé_1986" data-name="Tracé 1986" d="M494.3,388.132s71.849,9.516,82.023-1.985-17.448-10.183-15.27-20.9,39.565-1.591,47.417-12.055-19.337-10.737-14.683-20.888,51.918-26.256,29.149-44.21-25.533,31.737-43.849,34.349-5.32-18-18.838-15.865-7.386,36.278-22.5,38.577S527.54,299.253,494.3,388.132Z" transform="translate(-487.115 -284.199)" fill="#74c1bd"/>
            <g id="Groupe_55" data-name="Groupe 55" transform="translate(0 9.533)">
              <path id="Tracé_1987" data-name="Tracé 1987" d="M485.359,394.541a.88.88,0,0,1-.147-1.748l7.049-1.206c1.6-.834,18.812-9.891,40.932-24.4,21.32-13.988,51.688-36.051,75.286-61.719a.88.88,0,1,1,1.3,1.191,335.52,335.52,0,0,1-37.641,34.609c-11.591,9.247-24.374,18.467-37.994,27.4-23.189,15.213-41.014,24.455-41.191,24.546l-.121.063-7.319,1.253A.885.885,0,0,1,485.359,394.541Z" transform="translate(-485.36 -298.023)" fill="#c1eee6"/>
              <path id="Tracé_1988" data-name="Tracé 1988" d="M631.241,311.886l2.662-15.97a.88.88,0,1,1,1.736.289l-2.16,12.962,11.431-4.287a.88.88,0,1,1,.618,1.648Z" transform="translate(-514.219 -296.06)" fill="#c1eee6"/>
              <path id="Tracé_1989" data-name="Tracé 1989" d="M568.666,359.932l6.086-35.013a.88.88,0,1,1,1.734.3l-5.712,32.866,35.8-1.435a.88.88,0,0,1,.071,1.759Z" transform="translate(-501.922 -301.755)" fill="#c1eee6"/>
              <path id="Tracé_1990" data-name="Tracé 1990" d="M566.4,397.646a.885.885,0,0,1-.1-.006l-47.584-5.421L525.4,359.4a.88.88,0,1,1,1.725.351l-6.3,30.933,45.675,5.2a.88.88,0,0,1-.1,1.754Z" transform="translate(-492.115 -308.53)" fill="#c1eee6"/>
            </g>
          </g>
          <g id="Groupe_57" data-name="Groupe 57" transform="translate(85.923 203.882)">
            <path id="Tracé_1991" data-name="Tracé 1991" d="M590.48,371.278s24.271,4.075,23.267-7.828C613.071,355.365,590.48,371.278,590.48,371.278Z" transform="translate(-512.475 -353.583)" fill="#7a8db5"/>
            <path id="Tracé_1992" data-name="Tracé 1992" d="M575.09,372.361s28.016-9.6,21.378-19.521C591.959,346.1,575.09,372.361,575.09,372.361Z" transform="translate(-509.453 -351.733)" fill="#7a8db5"/>
            <path id="Tracé_1993" data-name="Tracé 1993" d="M564.03,375.661S585.8,359.146,575.86,352.8C569.109,348.481,564.03,375.661,564.03,375.661Z" transform="translate(-507.282 -351.85)" fill="#7a8db5"/>
            <path id="Tracé_1994" data-name="Tracé 1994" d="M575.91,376.79s22.784,18.919,27.8,8.085C607.117,377.513,575.91,376.79,575.91,376.79Z" transform="translate(-509.614 -356.652)" fill="#7a8db5"/>
            <path id="Tracé_1995" data-name="Tracé 1995" d="M564.58,381.94s15.9,23.451,22.921,13.212C592.267,388.2,564.58,381.94,564.58,381.94Z" transform="translate(-507.39 -357.663)" fill="#7a8db5"/>
            <path id="Tracé_1996" data-name="Tracé 1996" d="M493.421,407.227a.7.7,0,0,1-.386-1.284,228.032,228.032,0,0,1,26.756-15.1,275.2,275.2,0,0,1,28.4-11.683,231.455,231.455,0,0,1,35.09-9.688.7.7,0,1,1,.25,1.378,230.116,230.116,0,0,0-34.878,9.632,247.834,247.834,0,0,0-54.849,26.63A.7.7,0,0,1,493.421,407.227Z" transform="translate(-493.42 -355.35)" fill="#5d77a6"/>
            <path id="Tracé_1997" data-name="Tracé 1997" d="M597.924,381.165a.7.7,0,0,1-.125-.011c-.035-.006-3.517-.638-7.811-1.748a57.221,57.221,0,0,1-13.192-4.777l-.715-.4.513-.642a89.579,89.579,0,0,1,14.6-14,.7.7,0,0,1,.835,1.124,88.31,88.31,0,0,0-13.808,13.107c7.025,3.629,19.692,5.944,19.824,5.967a.7.7,0,0,1-.123,1.389Z" transform="translate(-509.856 -353.383)" fill="#5d77a6"/>
            <path id="Tracé_1998" data-name="Tracé 1998" d="M583.593,390.816a.7.7,0,0,1-.341-.089c-.616-.345-15.147-8.5-19.7-12.97l-.366-.359,8.71-17.214a.7.7,0,1,1,1.249.632L564.9,377.107c4.822,4.418,18.89,12.316,19.035,12.4a.7.7,0,0,1-.343,1.311Z" transform="translate(-507.284 -353.454)" fill="#5d77a6"/>
          </g>
          <g id="Groupe_59" data-name="Groupe 59" transform="translate(0 51.344)">
            <path id="Tracé_1999" data-name="Tracé 1999" d="M461.131,362.151s-35.362-22.5-60.276-36.969c-27.727-16.1-9.644-32.951,11.252-29.736,39.782,6.124-44.2-51.435-21.7-69.044,9.291-7.273,12.859,1.511,32.147,7.571s-23.307-67.4,4.822-71.945c20.655-3.335,15.085,83.285,33.755,67.4,24.914-21.2,34.365,3.93,19.288,25.75s-21.45,52.255-7.233,36.35C511.763,248.358,492.475,315.956,461.131,362.151Z" transform="translate(-386.508 -161.933)" fill="#74c1bd"/>
            <g id="Groupe_58" data-name="Groupe 58" transform="translate(22.384 16.979)">
              <path id="Tracé_2000" data-name="Tracé 2000" d="M472.114,376.823a.88.88,0,0,1-.878-.84c-.792-17.418-33.411-191.009-33.74-192.76a.88.88,0,0,1,1.73-.325c.082.438,8.334,44.33,16.577,89.817,11.073,61.1,16.857,95.817,17.192,103.189a.88.88,0,0,1-.839.919Z" transform="translate(-419.072 -183.06)" fill="#c1eee6"/>
              <path id="Tracé_2001" data-name="Tracé 2001" d="M452.306,302.534l-38.593-41.878a.88.88,0,1,1,1.294-1.193l36.952,40.1,21.106-37.521a.88.88,0,0,1,1.534.863Z" transform="translate(-414.36 -198.177)" fill="#c1eee6"/>
              <path id="Tracé_2002" data-name="Tracé 2002" d="M442.531,213.872l-9.91-15.316a.88.88,0,0,1,1.478-.956l7.771,12.009,4.3-15.781a.88.88,0,0,1,1.7.463Z" transform="translate(-418.09 -185.22)" fill="#c1eee6"/>
              <path id="Tracé_2003" data-name="Tracé 2003" d="M465.146,376.058l-48.2-25.323a.88.88,0,1,1,.819-1.558l46.639,24.505,23.7-45.032a.88.88,0,0,1,1.557.82Z" transform="translate(-414.949 -211.723)" fill="#c1eee6"/>
            </g>
          </g>
          <g id="Groupe_60" data-name="Groupe 60" transform="translate(114.375)">
            <path id="Tracé_2004" data-name="Tracé 2004" d="M581.41,120.11s20.855-13.06,12.208-21.3C587.743,93.219,581.41,120.11,581.41,120.11Z" transform="translate(-539.147 -98.047)" fill="#7a8db5"/>
            <path id="Tracé_2005" data-name="Tracé 2005" d="M571.963,131.392s14.579-25.774,3.03-28.8C567.149,100.547,571.963,131.392,571.963,131.392Z" transform="translate(-537.005 -98.921)" fill="#7a8db5"/>
            <path id="Tracé_2006" data-name="Tracé 2006" d="M564.54,142.622s5.32-26.8-6.325-24.954C550.3,118.921,564.54,142.622,564.54,142.622Z" transform="translate(-534.123 -101.881)" fill="#7a8db5"/>
            <path id="Tracé_2007" data-name="Tracé 2007" d="M555,159.472s5.32-26.8-6.325-24.954C540.759,135.771,555,159.472,555,159.472Z" transform="translate(-532.25 -105.189)" fill="#7a8db5"/>
            <path id="Tracé_2008" data-name="Tracé 2008" d="M547.791,178.484s7.8-24.424-3.817-22.969C536.089,156.5,547.791,178.484,547.791,178.484Z" transform="translate(-531.261 -109.317)" fill="#7a8db5"/>
            <path id="Tracé_2009" data-name="Tracé 2009" d="M541.449,194.768s4.364-21.378-5.7-17.826C528.912,179.362,541.449,194.768,541.449,194.768Z" transform="translate(-529.782 -113.458)" fill="#7a8db5"/>
            <path id="Tracé_2010" data-name="Tracé 2010" d="M536.23,209.256s2.8-18.758-5.77-15.206C524.633,196.47,536.23,209.256,536.23,209.256Z" transform="translate(-528.823 -116.807)" fill="#7a8db5"/>
            <path id="Tracé_2011" data-name="Tracé 2011" d="M572.52,133.986s29.6-.972,26.16-12.4C596.341,113.813,572.52,133.986,572.52,133.986Z" transform="translate(-537.401 -102.319)" fill="#7a8db5"/>
            <path id="Tracé_2012" data-name="Tracé 2012" d="M567.47,146.857s27.462,6.984,25.911-5.328C592.328,133.162,567.47,146.857,567.47,146.857Z" transform="translate(-536.41 -106.052)" fill="#7a8db5"/>
            <path id="Tracé_2013" data-name="Tracé 2013" d="M557.76,163.237s27.462,6.984,25.911-5.328C582.618,149.542,557.76,163.237,557.76,163.237Z" transform="translate(-534.504 -109.268)" fill="#7a8db5"/>
            <path id="Tracé_2014" data-name="Tracé 2014" d="M550.1,180.932s25.951,2.66,22.881-8.342C570.9,165.116,550.1,180.932,550.1,180.932Z" transform="translate(-533 -112.288)" fill="#7a8db5"/>
            <path id="Tracé_2015" data-name="Tracé 2015" d="M543.47,196.388s23.146,2.845,18.774-7.539C559.27,181.793,543.47,196.388,543.47,196.388Z" transform="translate(-531.698 -115.495)" fill="#7a8db5"/>
            <path id="Tracé_2016" data-name="Tracé 2016" d="M538.43,210.779s19.128,2.355,15.519-6.229C551.5,198.716,538.43,210.779,538.43,210.779Z" transform="translate(-530.709 -118.643)" fill="#7a8db5"/>
            <path id="Tracé_2017" data-name="Tracé 2017" d="M529.671,230.764l-.063,0a.7.7,0,0,1-.635-.759,190.015,190.015,0,0,1,10-45.052,259.774,259.774,0,0,1,16.5-37.416A286.807,286.807,0,0,1,570.9,121.97c4.088-6.012,6.813-9.451,6.84-9.485a.7.7,0,0,1,1.1.871c-.027.034-2.73,3.446-6.794,9.425a285.42,285.42,0,0,0-15.362,25.441c-10.415,19.471-23.435,49.485-26.317,81.9A.7.7,0,0,1,529.671,230.764Z" transform="translate(-528.989 -100.967)" fill="#5d77a6"/>
            <path id="Tracé_2018" data-name="Tracé 2018" d="M573.19,133.065l-.042-.821a89.989,89.989,0,0,1,1.629-20.166.7.7,0,1,1,1.37.286,88.656,88.656,0,0,0-1.63,18.968c7.662-1.95,18.67-8.62,18.784-8.69a.7.7,0,0,1,.728,1.2c-.03.018-3.054,1.855-7,3.874a57.319,57.319,0,0,1-13.034,5.182Z" transform="translate(-537.651 -100.83)" fill="#5d77a6"/>
            <path id="Tracé_2019" data-name="Tracé 2019" d="M566.33,145.034c-.3,0-.592-.006-.863-.02l-.512-.025-4.912-18.651a.7.7,0,0,1,1.354-.357l4.649,17.65.291,0c6.709,0,22.017-3.335,22.177-3.37a.7.7,0,0,1,.3,1.368C588.153,141.776,573.2,145.034,566.33,145.034Z" transform="translate(-535.085 -103.566)" fill="#5d77a6"/>
            <path id="Tracé_2020" data-name="Tracé 2020" d="M556.28,161.962l-.183-.537c-.143-.421-3.5-10.369-4.124-16.534a.7.7,0,1,1,1.393-.14c.523,5.207,3.164,13.506,3.879,15.686l19.966-2.391a.7.7,0,0,1,.167,1.39Z" transform="translate(-533.504 -107.23)" fill="#5d77a6"/>
            <path id="Tracé_2021" data-name="Tracé 2021" d="M548.614,179.779l-.094-.745c-.015-.116-1.48-11.646-3.6-18.353a.7.7,0,0,1,1.335-.422c1.863,5.9,3.188,15.138,3.553,17.846,7.2-1.622,17.639-6.6,17.747-6.653a.7.7,0,0,1,.605,1.262c-.463.222-11.432,5.456-18.812,6.919Z" transform="translate(-532.114 -110.302)" fill="#5d77a6"/>
            <path id="Tracé_2022" data-name="Tracé 2022" d="M542.4,196.9l-.217-.658a64.117,64.117,0,0,1-2.6-11.162.7.7,0,1,1,1.394-.134,60.054,60.054,0,0,0,2.331,10.2l12.537-3.983a.7.7,0,0,1,.424,1.334Z" transform="translate(-531.072 -115.12)" fill="#5d77a6"/>
            <path id="Tracé_2023" data-name="Tracé 2023" d="M536.759,211.65l-.283-.933a94.631,94.631,0,0,0-3.49-10.221.7.7,0,0,1,.976-1c.2.187.548.5,2.269,5.778.527,1.616,1.025,3.214,1.317,4.164,3.7-2.083,10.663-3.218,10.98-3.269a.7.7,0,0,1,.222,1.382c-.081.013-8.09,1.319-11.2,3.536Z" transform="translate(-529.739 -118.065)" fill="#5d77a6"/>
          </g>
          <g id="Groupe_61" data-name="Groupe 61" transform="translate(42.838 93.105)">
            <path id="Tracé_2024" data-name="Tracé 2024" d="M538.237,245.588s19.971-20.494,11.034-28.378-20.63-2.29-31.006,23.122c-10.512,25.75-17.866-24.7-28.9-4.2s22.069,39.935,9.982,45.191-14.322-28.161-26.272-17.866c-18.919,16.291,19.513,45.4,2.106,58.853-11.557,8.929-18.895-22.8-29.423-10.512-15.76,18.388,3.464,66.754,15.4,73.416,22.591,12.61,82.337-38.207,70.258-46.613s-41.51,12.087-18.919-11.557c7.482-7.828,48.864-21.016,34.679-30.476-13-8.664-32.051,4.726-24.175-11.035s43.616-10.512,39.935-24.175-39.412,7.354-24.7-15.76Z" transform="translate(-439.81 -213.896)" fill="#88d2d0"/>
            <path id="Tracé_2025" data-name="Tracé 2025" d="M470.361,388.3a.881.881,0,0,1-.85-1.11c3.608-13.346,9.827-30.194,18.484-50.076,6.919-15.89,15.4-33.746,25.219-53.074,16.708-32.9,31.684-59.013,31.833-59.273a.88.88,0,0,1,1.526.877c-.149.26-15.106,26.338-31.794,59.2-15.391,30.309-35.444,72.747-43.569,102.8A.88.88,0,0,1,470.361,388.3Z" transform="translate(-445.808 -216.117)" fill="#c1eee6"/>
            <path id="Tracé_2026" data-name="Tracé 2026" d="M553.55,242.407v-8.7a.88.88,0,0,1,1.76,0v6.027l9.808-4.207a.88.88,0,0,1,.694,1.617Z" transform="translate(-462.313 -217.786)" fill="#c1eee6"/>
            <path id="Tracé_2027" data-name="Tracé 2027" d="M527.566,283.13l-15.078-24.762a.88.88,0,0,1,1.5-.915l14.353,23.571,28.238-9.242a.88.88,0,1,1,.547,1.673Z" transform="translate(-454.226 -222.536)" fill="#c1eee6"/>
            <path id="Tracé_2028" data-name="Tracé 2028" d="M498.842,334.935l-11.3-43.463a.88.88,0,0,1,1.7-.443l10.814,41.582L537.479,318.8a.88.88,0,1,1,.609,1.651Z" transform="translate(-449.348 -229.082)" fill="#c1eee6"/>
            <path id="Ligne_14" data-name="Ligne 14" d="M11.034,10.339a.877.877,0,0,1-.572-.212L-.573.668a.88.88,0,0,1-.1-1.241.88.88,0,0,1,1.241-.1L11.607,8.791a.88.88,0,0,1-.573,1.548Z" transform="translate(33.794 70.052)" fill="#c1eee6"/>
            <path id="Tracé_2029" data-name="Tracé 2029" d="M472.061,397.975l-17.169-39.686a.88.88,0,0,1,1.615-.7l16.473,38.078,42.28-18.044a.88.88,0,1,1,.691,1.619Z" transform="translate(-442.93 -242.174)" fill="#c1eee6"/>
          </g>
        </g>
        <g id="Groupe_70" data-name="Groupe 70" transform="translate(0 48.451)">
          <g id="Groupe_63" data-name="Groupe 63" transform="translate(87.065)">
            <path id="Tracé_2030" data-name="Tracé 2030" d="M192.06,110.962s8.929-19.1-1.382-20.59C183.67,89.359,192.06,110.962,192.06,110.962Z" transform="translate(-175.219 -90.337)" fill="#7a8db5"/>
            <path id="Tracé_2031" data-name="Tracé 2031" d="M189.781,124.342s-2.644-25.71-12.393-22.021C170.766,104.829,189.781,124.342,189.781,124.342Z" transform="translate(-172.883 -92.619)" fill="#7a8db5"/>
            <path id="Tracé_2032" data-name="Tracé 2032" d="M189.971,136.076s-9.757-21.764-17.11-14.563c-5,4.894,17.11,14.563,17.11,14.563Z" transform="translate(-172.124 -96.171)" fill="#7a8db5"/>
            <path id="Tracé_2033" data-name="Tracé 2033" d="M191.7,152.886s-9.757-21.764-17.11-14.563C169.591,143.218,191.7,152.886,191.7,152.886Z" transform="translate(-172.464 -99.471)" fill="#7a8db5"/>
            <path id="Tracé_2034" data-name="Tracé 2034" d="M192.79,123.487s20.574-15.648,12.353-22.045C199.557,97.094,192.79,123.487,192.79,123.487Z" transform="translate(-176.182 -92.422)" fill="#7a8db5"/>
            <path id="Tracé_2035" data-name="Tracé 2035" d="M194.94,135.308s23.066-8.9,15.752-16.885C205.717,113,194.94,135.308,194.94,135.308Z" transform="translate(-176.604 -95.684)" fill="#7a8db5"/>
            <path id="Tracé_2036" data-name="Tracé 2036" d="M196.3,151.878s23.066-8.9,15.752-16.885C207.077,129.567,196.3,151.878,196.3,151.878Z" transform="translate(-176.871 -98.937)" fill="#7a8db5"/>
            <path id="Tracé_2037" data-name="Tracé 2037" d="M217.516,211.164a.61.61,0,0,1-.527-.3,165.871,165.871,0,0,1-15.648-37.114,226.751,226.751,0,0,1-7.165-34.962,250.328,250.328,0,0,1-1.929-25.993c-.128-6.344.073-10.168.075-10.206a.61.61,0,0,1,1.218.066c0,.038-.2,3.832-.073,10.14a249.121,249.121,0,0,0,1.922,25.867c2.426,19.118,8.325,47.057,22.653,71.587a.61.61,0,0,1-.526.918Z" transform="translate(-176.186 -92.748)" fill="#5d77a6"/>
            <path id="Tracé_2038" data-name="Tracé 2038" d="M191.341,125l-.444-.562a78.291,78.291,0,0,1-9.026-15.171.61.61,0,1,1,1.118-.488,77.193,77.193,0,0,0,8.42,14.319c4.469-5.256,8.931-15.568,8.977-15.675a.61.61,0,0,1,1.121.482c-.012.028-1.235,2.863-3.024,6.295a49.932,49.932,0,0,1-6.658,10.271Z" transform="translate(-174.148 -93.738)" fill="#5d77a6"/>
            <path id="Tracé_2039" data-name="Tracé 2039" d="M191.219,137.3l-12.92-10.79a.61.61,0,1,1,.782-.936l12.229,10.213c4.7-3.228,14.188-13.64,14.286-13.747a.61.61,0,0,1,.9.821c-.415.456-10.211,11.21-14.9,14.2Z" transform="translate(-173.413 -96.641)" fill="#5d77a6"/>
            <path id="Tracé_2040" data-name="Tracé 2040" d="M193.611,154.022l-.4-.29c-.314-.227-7.732-5.609-11.289-9.681a.61.61,0,0,1,.919-.8c3.006,3.441,9.078,8.013,10.687,9.2l13-11.793a.61.61,0,0,1,.82.9Z" transform="translate(-174.138 -100.305)" fill="#5d77a6"/>
          </g>
          <g id="Groupe_64" data-name="Groupe 64" transform="translate(55.334 37.423)">
            <path id="Tracé_2041" data-name="Tracé 2041" d="M154.484,164.627s-17.464-17.93-9.652-24.826,18.043-2.009,27.124,20.229c9.194,22.527,15.632-21.6,25.284-3.681s-19.3,34.936-8.736,39.533,12.529-24.633,22.985-15.632c16.548,14.249-17.07,39.718-1.84,51.484,10.11,7.812,16.524-19.947,25.742-9.194,13.791,16.09-2.435,55.775-12.875,61.594-19.762,11.035-72.629-30.8-62.06-38.151S196.774,256.56,177,235.873c-6.55-6.855-42.748-18.388-30.339-26.658,11.372-7.579,28.04,4.139,21.145-9.652s-38.151-9.194-34.936-21.145,34.478,6.437,21.6-13.791Z" transform="translate(-132.642 -136.902)" fill="#74c1bd"/>
            <path id="Tracé_2042" data-name="Tracé 2042" d="M228.43,302.479a.77.77,0,0,1-.743-.569c-7.108-26.3-25.829-66.963-40.282-96.446-15.67-31.965-29.84-58.037-29.981-58.3a.77.77,0,0,1,1.353-.736c.141.26,14.324,26.355,30.008,58.349C198,223.575,205.92,240.7,212.331,255.675c8.021,18.739,13.688,34.16,16.843,45.833a.771.771,0,0,1-.744.971Z" transform="translate(-137.64 -138.845)" fill="#c1eee6"/>
            <path id="Tracé_2043" data-name="Tracé 2043" d="M165.092,161.837l-10.725-4.59a.77.77,0,0,1,.606-1.416l8.579,3.672V154.24a.77.77,0,0,1,1.54,0Z" transform="translate(-136.967 -140.305)" fill="#c1eee6"/>
            <path id="Tracé_2044" data-name="Tracé 2044" d="M180.864,197.466,155,189a.77.77,0,1,1,.479-1.464l24.7,8.088L192.741,175a.77.77,0,0,1,1.315.8Z" transform="translate(-137.079 -144.46)" fill="#c1eee6"/>
            <path id="Tracé_2045" data-name="Tracé 2045" d="M201.493,240.941l-31.056-10.818a.77.77,0,1,1,.507-1.454l29.621,10.318,12.607-34.68a.77.77,0,1,1,1.447.526Z" transform="translate(-140.112 -150.186)" fill="#c1eee6"/>
            <path id="Ligne_15" data-name="Ligne 15" d="M0,9.04a.768.768,0,0,1-.585-.269A.77.77,0,0,1-.5,7.685L9.151-.585A.77.77,0,0,1,10.237-.5.77.77,0,0,1,10.153.585L.5,8.855A.767.767,0,0,1,0,9.04Z" transform="translate(68.729 61.279)" fill="#c1eee6"/>
            <path id="Tracé_2046" data-name="Tracé 2046" d="M225.945,297.939l-38.4-16.391a.77.77,0,0,1,.6-1.416l36.988,15.789,14.4-33.316a.77.77,0,1,1,1.414.611Z" transform="translate(-143.481 -161.64)" fill="#c1eee6"/>
          </g>
          <g id="Groupe_65" data-name="Groupe 65" transform="translate(0 64.374)">
            <path id="Tracé_2047" data-name="Tracé 2047" d="M83.163,189.734s-23.427-7.539-17.07-17.641C70.409,165.23,83.163,189.734,83.163,189.734Z" transform="translate(-64.029 -170.523)" fill="#7a8db5"/>
            <path id="Tracé_2048" data-name="Tracé 2048" d="M96.417,197.941s-20.47-21.4-10.014-27.164C93.508,166.863,96.417,197.941,96.417,197.941Z" transform="translate(-67.647 -170.436)" fill="#7a8db5"/>
            <path id="Tracé_2049" data-name="Tracé 2049" d="M106.324,206.956s-11.75-24.673,0-25.75C114.3,180.475,106.324,206.956,106.324,206.956Z" transform="translate(-71.116 -172.547)" fill="#7a8db5"/>
            <path id="Tracé_2050" data-name="Tracé 2050" d="M119.7,220.946s-11.75-24.673,0-25.75c7.981-.731,0,25.75,0,25.75Z" transform="translate(-73.743 -175.294)" fill="#7a8db5"/>
            <path id="Tracé_2051" data-name="Tracé 2051" d="M131.416,237.605s-13.558-21.764-1.945-23.2C137.356,213.422,131.416,237.605,131.416,237.605Z" transform="translate(-75.763 -179.062)" fill="#7a8db5"/>
            <path id="Tracé_2052" data-name="Tracé 2052" d="M141.668,251.879s-9.491-19.65,1.149-18.677C150.042,233.86,141.668,251.879,141.668,251.879Z" transform="translate(-78.315 -182.751)" fill="#7a8db5"/>
            <path id="Tracé_2053" data-name="Tracé 2053" d="M150.494,264.616s-7.322-17.5,1.856-16.154C158.587,249.37,150.494,264.616,150.494,264.616Z" transform="translate(-80.27 -185.739)" fill="#7a8db5"/>
            <path id="Tracé_2054" data-name="Tracé 2054" d="M92.208,201.748s-28.924,6.333-28.41-5.594C64.152,188.053,92.208,201.748,92.208,201.748Z" transform="translate(-63.792 -174.982)" fill="#7a8db5"/>
            <path id="Tracé_2055" data-name="Tracé 2055" d="M100.378,212.823s-24.9,13.518-26.425,1.206C72.916,205.662,100.378,212.823,100.378,212.823Z" transform="translate(-65.781 -178.197)" fill="#7a8db5"/>
            <path id="Tracé_2056" data-name="Tracé 2056" d="M113.818,226.313s-24.9,13.518-26.425,1.206C86.356,219.152,113.818,226.313,113.818,226.313Z" transform="translate(-68.419 -180.845)" fill="#7a8db5"/>
            <path id="Tracé_2057" data-name="Tracé 2057" d="M126.27,241.519s-24.5,8.953-24.231-2.459C102.224,231.3,126.27,241.519,126.27,241.519Z" transform="translate(-71.3 -183.337)" fill="#7a8db5"/>
            <path id="Tracé_2058" data-name="Tracé 2058" d="M137.439,254.642s-21.74,8.447-20.052-2.692C118.536,244.379,137.439,254.642,137.439,254.642Z" transform="translate(-74.295 -185.892)" fill="#7a8db5"/>
            <path id="Tracé_2059" data-name="Tracé 2059" d="M146.623,267.194s-17.962,6.984-16.572-2.226C131,258.716,146.623,267.194,146.623,267.194Z" transform="translate(-76.785 -188.543)" fill="#7a8db5"/>
            <path id="Tracé_2060" data-name="Tracé 2060" d="M151.934,286.6a.7.7,0,0,1-.661-.469C140.506,255.4,120.5,229.5,105.61,213.183A285.326,285.326,0,0,0,84.467,192.3c-5.4-4.788-8.847-7.42-8.881-7.446a.7.7,0,1,1,.848-1.114c.035.026,3.521,2.69,8.961,7.512a286.757,286.757,0,0,1,21.248,20.984,259.763,259.763,0,0,1,25.186,32.214,190.043,190.043,0,0,1,20.764,41.216.7.7,0,0,1-.661.932Z" transform="translate(-66.19 -173.158)" fill="#5d77a6"/>
            <path id="Tracé_2061" data-name="Tracé 2061" d="M91.678,199.8a61.687,61.687,0,0,1-13.035-1.837c-4.323-.987-7.706-2.024-7.739-2.035a.7.7,0,0,1,.412-1.338c.128.039,12.439,3.8,20.346,3.809a88.694,88.694,0,0,0-6.241-17.982.7.7,0,0,1,1.258-.614,89.95,89.95,0,0,1,6.535,19.145l.161.807-.822.03Q92.129,199.8,91.678,199.8Z" transform="translate(-65.228 -172.335)" fill="#5d77a6"/>
            <path id="Tracé_2062" data-name="Tracé 2062" d="M78.64,211.8a.7.7,0,0,1-.022-1.4c.167-.005,16.292-.551,22.6-2.263l.164-18.253a.7.7,0,0,1,1.4.013l-.173,19.286-.489.151c-6.1,1.879-22.752,2.443-23.458,2.466Z" transform="translate(-66.707 -174.255)" fill="#5d77a6"/>
            <path id="Tracé_2063" data-name="Tracé 2063" d="M94.759,226.248a.7.7,0,0,1-.089-1.394l19.943-2.587c.157-2.289.675-10.98-.1-16.153a.7.7,0,0,1,1.385-.207c.918,6.125.1,16.594.07,17.036l-.045.566L94.85,226.242A.706.706,0,0,1,94.759,226.248Z" transform="translate(-69.871 -177.42)" fill="#5d77a6"/>
            <path id="Tracé_2064" data-name="Tracé 2064" d="M125.618,238.981c-7.478,0-17.681-2.037-18.146-2.13a.7.7,0,0,1,.276-1.372c.118.024,11.455,2.287,18.84,2.09-.312-2.714-1.3-11.989-.943-18.168a.7.7,0,0,1,1.4.08c-.4,7.023,1.01,18.556,1.025,18.672l.092.746-.75.039C126.836,238.967,126.235,238.981,125.618,238.981Z" transform="translate(-72.394 -180.056)" fill="#5d77a6"/>
            <path id="Tracé_2065" data-name="Tracé 2065" d="M139.631,253.957l-14.522-.861a.7.7,0,0,1,.083-1.4l13.133.778a59.277,59.277,0,0,0-.251-10.46.7.7,0,1,1,1.383-.215,63.287,63.287,0,0,1,.224,11.465Z" transform="translate(-75.838 -184.468)" fill="#5d77a6"/>
            <path id="Tracé_2066" data-name="Tracé 2066" d="M148.884,266.879l-.909-.354c-3.556-1.386-11.642-.686-11.723-.678a.7.7,0,0,1-.124-1.394c.32-.029,7.347-.637,11.447.473.05-.993.14-2.665.253-4.36.37-5.535.62-5.923.769-6.154a.7.7,0,0,1,1.2.723,96.274,96.274,0,0,0-.867,10.771Z" transform="translate(-78.005 -186.996)" fill="#5d77a6"/>
          </g>
          <g id="Groupe_66" data-name="Groupe 66" transform="translate(2.107 153.783)">
            <path id="Tracé_2067" data-name="Tracé 2067" d="M89.557,298.918s-25.533.161-22.961-9.8C68.348,282.338,89.557,298.918,89.557,298.918Z" transform="translate(-66.414 -282.825)" fill="#7a8db5"/>
            <path id="Tracé_2068" data-name="Tracé 2068" d="M103.675,302.07s-22.423-12.224-15.342-19.7C93.146,277.293,103.675,302.07,103.675,302.07Z" transform="translate(-70.445 -281.686)" fill="#7a8db5"/>
            <path id="Tracé_2069" data-name="Tracé 2069" d="M114.227,306.791s-16.114-17.2-6.743-21.153C113.85,282.954,114.227,306.791,114.227,306.791Z" transform="translate(-73.902 -282.421)" fill="#7a8db5"/>
            <path id="Tracé_2070" data-name="Tracé 2070" d="M128.887,314.781s-16.114-17.2-6.743-21.153C128.51,290.944,128.887,314.781,128.887,314.781Z" transform="translate(-76.78 -283.989)" fill="#7a8db5"/>
            <path id="Tracé_2071" data-name="Tracé 2071" d="M142.808,325.432s-16.837-14.33-7.675-18.557C141.354,304.006,142.808,325.432,142.808,325.432Z" transform="translate(-79.369 -286.579)" fill="#7a8db5"/>
            <path id="Tracé_2072" data-name="Tracé 2072" d="M101.069,306.134s-22.109,12.779-24.8,2.837C74.436,302.22,101.069,306.134,101.069,306.134Z" transform="translate(-68.33 -286.264)" fill="#7a8db5"/>
            <path id="Tracé_2073" data-name="Tracé 2073" d="M110.748,312.43s-16.917,17.625-21.4,7.908C86.3,313.74,110.748,312.43,110.748,312.43Z" transform="translate(-70.864 -287.722)" fill="#7a8db5"/>
            <path id="Tracé_2074" data-name="Tracé 2074" d="M125.318,320s-16.917,17.625-21.4,7.908C100.87,321.31,125.318,320,125.318,320Z" transform="translate(-73.724 -289.208)" fill="#7a8db5"/>
            <path id="Tracé_2075" data-name="Tracé 2075" d="M139.491,329.8s-17.785,13.775-20.558,4.316C117.052,327.694,139.491,329.8,139.491,329.8Z" transform="translate(-76.702 -291.067)" fill="#7a8db5"/>
            <path id="Tracé_2076" data-name="Tracé 2076" d="M172.036,360.708a.6.6,0,0,1-.484-.241c-16.884-22.421-40.092-38.461-56.589-47.969a246.126,246.126,0,0,0-22.838-11.625c-5.7-2.525-9.233-3.791-9.268-3.8a.6.6,0,0,1,.406-1.14c.035.013,3.6,1.289,9.33,3.827a247.319,247.319,0,0,1,22.952,11.68,224.02,224.02,0,0,1,29.126,19.875,163.87,163.87,0,0,1,27.848,28.428.605.605,0,0,1-.483.969Z" transform="translate(-69.682 -284.594)" fill="#5d77a6"/>
            <path id="Tracé_2077" data-name="Tracé 2077" d="M82.87,306.428a.605.605,0,0,1-.006-1.21c.115,0,11.218-.13,17.711-2.2a76.311,76.311,0,0,0-9.832-13.141.6.6,0,1,1,.875-.836A77.4,77.4,0,0,1,102,303.063l.343.621-.668.241a49.185,49.185,0,0,1-11.9,2.15c-3.811.321-6.863.352-6.893.353Z" transform="translate(-69.644 -283.212)" fill="#5d77a6"/>
            <path id="Tracé_2078" data-name="Tracé 2078" d="M93.58,316.929a.605.605,0,0,1-.2-1.175c.135-.048,13.24-4.719,17.976-7.775l-4.641-15.04a.6.6,0,0,1,1.156-.357l4.9,15.894-.363.252c-4.515,3.136-18.053,7.962-18.627,8.166A.6.6,0,0,1,93.58,316.929Z" transform="translate(-71.747 -283.86)" fill="#5d77a6"/>
            <path id="Tracé_2079" data-name="Tracé 2079" d="M110.51,324.775a.605.605,0,0,1-.257-1.153l15.706-7.345c-.472-1.924-2.323-9.2-4.308-13.251a.6.6,0,1,1,1.087-.532c2.35,4.8,4.427,13.611,4.514,13.984l.112.478-16.6,7.763A.6.6,0,0,1,110.51,324.775Z" transform="translate(-75.071 -285.823)" fill="#5d77a6"/>
            <path id="Tracé_2080" data-name="Tracé 2080" d="M123.659,330.25a.605.605,0,0,1-.066-1.206c.1-.011,10.006-1.122,16.026-3.216a110.879,110.879,0,0,1-5.535-14.677.6.6,0,1,1,1.172-.3c1.512,5.875,5.692,14.98,5.734,15.071l.272.59-.608.229c-6.077,2.291-16.488,3.459-16.928,3.507A.616.616,0,0,1,123.659,330.25Z" transform="translate(-77.652 -287.441)" fill="#5d77a6"/>
          </g>
          <g id="Groupe_67" data-name="Groupe 67" transform="translate(20.775 197.477)">
            <path id="Tracé_2081" data-name="Tracé 2081" d="M186.62,403.037s-25.485,11.541-37.781,3.617,21.852-12.312,4.645-16.692c-11.091-2.821-29.76,6.823-34.036-2.146s18.5-9.041,10.689-18.043c-4.372-5.039-45.914-6.445-39.9-22.455,8.447-22.495,30.347-6.012,37.99,3.978s14.868,12.1,11.485-3.552,12.4-10.191,17.753,5.754,11.814,26.73,13.936,21.756-3.914-21.145,4.147-21.024c12.867.193,18.75,39.38,11.059,48.807Z" transform="translate(-89.642 -336.053)" fill="#74c1bd"/>
            <path id="Tracé_2082" data-name="Tracé 2082" d="M193.224,410.147a.678.678,0,0,1-.491-.209c-15.721-16.4-38.95-31.831-55.668-41.884-18.132-10.9-32.727-18.011-32.873-18.082a.68.68,0,1,1,.594-1.224c.146.071,14.786,7.2,32.968,18.133,10.681,6.422,20.479,12.883,29.122,19.2A205.128,205.128,0,0,1,193.715,409a.68.68,0,0,1-.491,1.151Z" transform="translate(-92.557 -338.666)" fill="#c1eee6"/>
            <path id="Tracé_2083" data-name="Tracé 2083" d="M141.46,388.723a.68.68,0,0,1-.2-1.331l22.977-6.942c-.717-2.887-3.819-15.339-7.446-29.481a.68.68,0,0,1,1.317-.338c4.124,16.083,7.57,29.981,7.6,30.119l.156.628-24.215,7.316A.68.68,0,0,1,141.46,388.723Z" transform="translate(-99.815 -338.948)" fill="#c1eee6"/>
            <path id="Tracé_2084" data-name="Tracé 2084" d="M128.345,360.475l-17.584-2.037a.68.68,0,1,1,.157-1.351l14.322,1.66-10.2-12.874a.68.68,0,0,1,1.066-.845Z" transform="translate(-93.803 -337.898)" fill="#c1eee6"/>
            <path id="Ligne_16" data-name="Ligne 16" d="M0,7.672A.677.677,0,0,1-.306,7.6a.68.68,0,0,1-.3-.913L2.921-.306a.68.68,0,0,1,.913-.3.68.68,0,0,1,.3.913L.607,7.3A.68.68,0,0,1,0,7.672Z" transform="translate(60.797 16.915)" fill="#c1eee6"/>
            <path id="Tracé_2085" data-name="Tracé 2085" d="M174.039,410.422a.68.68,0,0,1-.1-1.353l22.727-3.339c.118-1.241.392-4.618.366-9.061a82.656,82.656,0,0,0-2.482-20.312.68.68,0,0,1,1.313-.354,84.046,84.046,0,0,1,2.529,20.68,89.53,89.53,0,0,1-.429,9.722l-.06.518-23.767,3.491A.687.687,0,0,1,174.039,410.422Z" transform="translate(-106.211 -343.931)" fill="#c1eee6"/>
          </g>
          <g id="Groupe_68" data-name="Groupe 68" transform="translate(118.247 166.325)">
            <path id="Tracé_2086" data-name="Tracé 2086" d="M231.069,400.033s27.719-3.753,33.931-16.99-25.051,1.165-12.795-11.686c7.9-8.286,28.844-10.014,27.7-19.883s-20.478,2.162-18.637-9.612c1.029-6.59,35.49-29.833,21.892-40.208-19.1-14.579-28.908,11.018-30.082,23.54s-6.18,18.139-11.621,3.094-15.921-2.049-11.991,14.3,4.179,28.924-.257,25.838-7.916-20-14.683-15.616c-10.8,6.992,5.023,43.326,16.54,47.224Z" transform="translate(-210.924 -297.292)" fill="#74c1bd"/>
            <path id="Tracé_2087" data-name="Tracé 2087" d="M234.621,408.319a.681.681,0,0,1-.667-.818,205.268,205.268,0,0,1,10.582-33.668c3.97-9.944,8.843-20.621,14.484-31.734,9.6-18.918,18.224-32.732,18.31-32.869a.68.68,0,0,1,1.153.722c-.086.137-8.679,13.909-18.256,32.775-8.83,17.4-20.324,42.8-24.941,65.051A.68.68,0,0,1,234.621,408.319Z" transform="translate(-215.576 -299.706)" fill="#c1eee6"/>
            <path id="Tracé_2088" data-name="Tracé 2088" d="M250.143,371.385l-.2-.614c-.044-.136-4.5-13.736-9.549-29.565a.68.68,0,1,1,1.3-.413c4.437,13.919,8.42,26.114,9.345,28.94l23.157-6.316a.68.68,0,1,1,.358,1.312Z" transform="translate(-216.836 -305.873)" fill="#c1eee6"/>
            <path id="Tracé_2089" data-name="Tracé 2089" d="M272.693,332.29l2.174-19.585a.68.68,0,1,1,1.352.15l-1.812,16.323,11.264-9.005a.68.68,0,0,1,.849,1.062Z" transform="translate(-223.219 -300.332)" fill="#c1eee6"/>
            <path id="Ligne_17" data-name="Ligne 17" d="M6.7,4.739a.677.677,0,0,1-.352-.1L-.352.582A.68.68,0,0,1-.582-.352.68.68,0,0,1,.352-.582l6.7,4.059A.68.68,0,0,1,6.7,4.739Z" transform="translate(21.23 42.971)" fill="#c1eee6"/>
            <path id="Tracé_2090" data-name="Tracé 2090" d="M235.507,410.712l-.326-.407a89.6,89.6,0,0,1-5.523-8.01,84.156,84.156,0,0,1-8.838-18.867.68.68,0,1,1,1.3-.4,82.766,82.766,0,0,0,8.683,18.53c2.336,3.778,4.36,6.494,5.12,7.483l21.03-9.23a.68.68,0,1,1,.547,1.245Z" transform="translate(-212.994 -314.163)" fill="#c1eee6"/>
          </g>
          <g id="Groupe_69" data-name="Groupe 69" transform="translate(50.961 146.162)">
            <path id="Tracé_2091" data-name="Tracé 2091" d="M213.3,388.766s12.28-28.539,7.563-42.828-12.168-9.917-17.8.137-5.425-2.507-4.1-17.536-3.946-26.955-10.359-28.723-7.346,20.309-12.578,15.206-2.524-38.3-19.843-41.936-23.749,4.549-28.241,14.418,12.545,24.657,23.572,34.767,3.142,12.851-4.428,9-14.884,11.035-3.528,16.821,29.913,12.915,28.233,17.753-10.207-3.7-10.014,3.673,41.807,36.262,51.524,19.256Z" transform="translate(-127.202 -272.203)" fill="#88d2d0"/>
            <path id="Tracé_2092" data-name="Tracé 2092" d="M212.705,405.171a.75.75,0,0,1-.747-.691c-1.864-23.493-18.579-52.562-32.274-72.812a427.869,427.869,0,0,0-29.617-38.752.75.75,0,0,1,1.125-.993c.037.042,3.728,4.231,9.212,11.088,5.059,6.327,12.727,16.288,20.523,27.816a280.95,280.95,0,0,1,21.225,36.453c6.663,14.069,10.466,26.545,11.3,37.081a.75.75,0,0,1-.688.807Z" transform="translate(-131.801 -276.172)" fill="#c1eee6"/>
            <path id="Tracé_2093" data-name="Tracé 2093" d="M172.376,320.668l-22.465-13.151a.75.75,0,1,1,.758-1.294l19.134,11.2-6.044-19.542a.75.75,0,1,1,1.433-.443Z" transform="translate(-131.734 -277.201)" fill="#c1eee6"/>
            <path id="Tracé_2094" data-name="Tracé 2094" d="M193.617,356.676l-.67-.062c-.186-.017-18.826-1.761-36.2-5.057a.75.75,0,1,1,.28-1.474c15.434,2.928,31.877,4.627,35.377,4.972,1.642-9.091,1.865-30.344,1.867-30.563a.75.75,0,0,1,.75-.743h.007a.75.75,0,0,1,.743.757c-.009.923-.238,22.7-2.024,31.509Z" transform="translate(-133.03 -282.47)" fill="#c1eee6"/>
            <path id="Tracé_2095" data-name="Tracé 2095" d="M215.337,400.151a60.5,60.5,0,0,1-8.394-.757,136.728,136.728,0,0,1-24.086-6.084.75.75,0,0,1,.487-1.419,135.214,135.214,0,0,0,23.818,6.019,62.885,62.885,0,0,0,7.88.738c3.784-9.033,9.2-30.412,9.251-30.631a.75.75,0,0,1,1.454.367c-.23.913-5.685,22.455-9.522,31.313l-.191.441-.48.011C215.537,400.149,215.464,400.151,215.337,400.151Z" transform="translate(-138.176 -291.049)" fill="#c1eee6"/>
          </g>
        </g>
        <g id="Groupe_83" data-name="Groupe 83" transform="translate(263.855 64.383)">
          <ellipse id="Ellipse_24" data-name="Ellipse 24" cx="12.32" cy="67.774" rx="12.32" ry="67.774" transform="translate(1.04 282.079) rotate(-87.37)" fill="#2f3f5c" opacity="0.1"/>
          <g id="Groupe_75" data-name="Groupe 75" transform="translate(16.339 120.536)">
            <g id="Groupe_73" data-name="Groupe 73" transform="translate(0 145.225)">
              <g id="Groupe_71" data-name="Groupe 71" transform="translate(0 0.707)">
                <path id="Tracé_2096" data-name="Tracé 2096" d="M425.771,442.258s-17.705,8.27-12.32,8.575c8.977.5,22.5-2.146,22.5-2.146l.539-6.968-10.713.538Z" transform="translate(-412.431 -441.72)" fill="#2f3f5c"/>
                <path id="Tracé_2097" data-name="Tracé 2097" d="M413.21,451.337a3.739,3.739,0,0,1-.5-.056c-.5.595-.378,1,.731,1.061,8.977.5,22.5-2.146,22.5-2.146l.064-.8C432.353,450.011,421.126,451.747,413.21,451.337Z" transform="translate(-412.431 -443.228)" fill="#fff"/>
              </g>
              <g id="Groupe_72" data-name="Groupe 72" transform="translate(83.469)">
                <path id="Tracé_2098" data-name="Tracé 2098" d="M527.011,441.378s17.705,8.27,12.32,8.575c-8.977.5-22.5-2.146-22.5-2.146l-.538-6.968,10.713.538Z" transform="translate(-516.29 -440.84)" fill="#2f3f5c"/>
                <path id="Tracé_2099" data-name="Tracé 2099" d="M539.69,450.457a3.739,3.739,0,0,0,.5-.056c.5.595.378,1-.731,1.061-8.977.5-22.5-2.146-22.5-2.146l-.064-.8C520.547,449.131,531.774,450.867,539.69,450.457Z" transform="translate(-516.408 -442.348)" fill="#fff"/>
              </g>
            </g>
            <g id="Groupe_74" data-name="Groupe 74" transform="translate(10.302)">
              <path id="Tracé_2100" data-name="Tracé 2100" d="M435.964,260.15s-6.429,21.37-6.357,36.238C429.743,323.2,428.16,403.2,428.16,403.2l12.152,1.23L451.6,304.368l6.679.772,39.871,101.135,11.645-3.343s-29.712-108.794-33.216-123.791-40.618-18.975-40.618-18.975Z" transform="translate(-425.821 -260.142)" fill="#5d77a6"/>
              <path id="Tracé_2101" data-name="Tracé 2101" d="M446.012,311.794c-5.578-1.688-10.946-4.034-16.4-6.084.121,27.18-1.447,106.423-1.447,106.423l12.152,1.23,11.284-99.978c-1.873-.506-3.737-1.021-5.586-1.583Z" transform="translate(-425.823 -269.086)" fill="#2f3f5c" opacity="0.2"/>
              <path id="Tracé_2102" data-name="Tracé 2102" d="M478.267,283.109c-.426-1.68-.755-3.03-.98-3.994-3.5-15-40.618-18.975-40.618-18.975a196.175,196.175,0,0,0-4.919,21.281c15.4,2.347,30.926,3.319,46.525,1.68Z" transform="translate(-426.526 -260.14)" fill="#2f3f5c" opacity="0.2"/>
              <path id="Tracé_2103" data-name="Tracé 2103" d="M425.25,435.7l15.776,1.085.121,4.292-15.053,1.085Z" transform="translate(-425.25 -294.606)" fill="#6c8cbc"/>
              <path id="Tracé_2104" data-name="Tracé 2104" d="M527.965,432.86l-15.455,4.428.78,4.227,15.182-2.154Z" transform="translate(-442.381 -294.048)" fill="#6c8cbc"/>
            </g>
          </g>
          <g id="Groupe_79" data-name="Groupe 79" transform="translate(62.889 0)">
            <g id="Groupe_77" data-name="Groupe 77">
              <path id="Tracé_2105" data-name="Tracé 2105" d="M479.58,176.1l1.342-5.851s-10.818-.948-8.945-10.97,9.13-32.605,9.13-32.605,18.292-6.212,29.624,7.313l-16.387,47.1Z" transform="translate(-470.628 -113.122)" fill="#e8a196"/>
              <g id="Groupe_76" data-name="Groupe 76">
                <path id="Tracé_2106" data-name="Tracé 2106" d="M473.4,156.459s-5.2,12.176-2.025,15.591,18.637,10.014,24.85,1.9S506.5,152.529,506.5,152.529l-3.3-5.449s-7.86,24.343-11.79,23.2,4.251-6.863-2.54-10.649c-3.97-2.218-11.541-3.681-12.931.635s-3.167,6.084-3.681,4.693,1.141-8.495,1.141-8.495Z" transform="translate(-470.352 -117.408)" fill="#2f3f5c"/>
                <path id="Tracé_2107" data-name="Tracé 2107" d="M502.4,145.787l1.141-3.8s-2.025-2.154.257-10.649c0,0-19.144-.378-26.883-11.035l2.025.257s-3.552-4.943-1.9-10.4c0,0,3.3,3.552,6.212,4.436a7.57,7.57,0,0,1-1.013-3.3,20.6,20.6,0,0,0,8.495,3.8,10.381,10.381,0,0,1-3.552-2.789,53.9,53.9,0,0,0,13.944,3.3c6.976.506,13.566,1.648,13.438,7.1,0,0,6.341-1.4,3.93,6.719s-10.649,18.131-15.72,27.9l-.378-11.541Z" transform="translate(-471.578 -110.16)" fill="#2f3f5c"/>
              </g>
              <path id="Tracé_2108" data-name="Tracé 2108" d="M510.75,162.78l3.8-10.52s3.424-4.693,4.436.129-7.225,13.438-8.238,10.4Z" transform="translate(-478.283 -118.023)" fill="#e8a196"/>
            </g>
            <g id="Groupe_78" data-name="Groupe 78" transform="translate(6.805 20.033)">
              <path id="Tracé_2109" data-name="Tracé 2109" d="M485.685,156.422c-1.575-.41-3.1-.932-4.613-1.487l-.442-.161.233-.474c.257-.522.538-1.037.812-1.559s.555-1.029.844-1.543c.563-1.029,1.165-2.025,1.76-3.03q.916-1.495,1.889-2.958c.659-.972,1.334-1.929,2.065-2.861-.426,1.1-.916,2.17-1.422,3.231s-1.045,2.1-1.6,3.126-1.125,2.049-1.728,3.054c-.3.506-.587,1.013-.9,1.5s-.611,1-.932,1.487l-.217-.635c1.447.707,2.877,1.463,4.259,2.315Z" transform="translate(-479.175 -136.513)" fill="#ce7e76"/>
              <path id="Tracé_2110" data-name="Tracé 2110" d="M494.97,141.4a1.907,1.907,0,0,1,.354-.305,4.731,4.731,0,0,1,1.037-.571,5.436,5.436,0,0,1,1.615-.362,6.226,6.226,0,0,1,.948,0,7.192,7.192,0,0,1,.98.177,4.764,4.764,0,0,1,.94.37,3.882,3.882,0,0,1,.836.53c.121.1.249.2.362.305a3.971,3.971,0,0,1,.3.346,2.749,2.749,0,0,1,.458.683,3.24,3.24,0,0,1,.378,1.157,3.7,3.7,0,0,1,.04.458s-.169-.072-.418-.2a4.663,4.663,0,0,1-.418-.233c-.161-.072-.338-.161-.53-.249a4.963,4.963,0,0,0-.587-.265,4.853,4.853,0,0,0-.627-.249c-.209-.1-.434-.153-.659-.233s-.466-.137-.691-.209-.482-.121-.715-.193c-.249-.048-.482-.129-.723-.177l-1.374-.338c-.418-.1-.788-.217-1.061-.3s-.434-.137-.434-.137Z" transform="translate(-481.991 -136.08)" fill="#2f3f5c"/>
              <path id="Tracé_2111" data-name="Tracé 2111" d="M480.3,136.4a2,2,0,0,1,.33-.33,3.891,3.891,0,0,1,1.021-.619,4.652,4.652,0,0,1,1.64-.362,5.009,5.009,0,0,1,.972.056,4.894,4.894,0,0,1,.989.273,4.049,4.049,0,0,1,.924.482,4.254,4.254,0,0,1,.763.643,3.63,3.63,0,0,1,.555.739,3.207,3.207,0,0,1,.346.739,2.487,2.487,0,0,1,.169.659,4.6,4.6,0,0,1,.04.522,3,3,0,0,1-.016.458,3.8,3.8,0,0,1-.4-.233c-.112-.072-.257-.161-.4-.265s-.338-.193-.5-.305a4.476,4.476,0,0,0-.547-.33c-.2-.1-.362-.241-.579-.321s-.386-.217-.6-.289a4.87,4.87,0,0,0-.627-.257c-.2-.1-.434-.153-.643-.241-.225-.072-.45-.145-.667-.209-.474-.137-.924-.257-1.3-.362-.434-.121-.788-.217-1.037-.289-.265-.08-.434-.129-.434-.129Z" transform="translate(-479.109 -135.087)" fill="#2f3f5c"/>
              <path id="Tracé_2112" data-name="Tracé 2112" d="M485.736,143.492s-.008.177-.04.466a2.13,2.13,0,0,1-.1.53,6.039,6.039,0,0,1-.281.7,3.659,3.659,0,0,1-.555.715c-.129.1-.257.217-.394.33a3.088,3.088,0,0,1-.49.241,2.048,2.048,0,0,1-.547.161,1.6,1.6,0,0,1-.587.048,3.189,3.189,0,0,1-1.157-.257c-.177-.1-.354-.193-.522-.289-.153-.121-.3-.257-.442-.386a3.171,3.171,0,0,1-.627-.932,2.9,2.9,0,0,1-.273-.989,4.069,4.069,0,0,1,.016-.892,7.1,7.1,0,0,1,.2-.707,2.607,2.607,0,0,1,.249-.5c.153-.265.249-.4.249-.4s0,.177-.032.466c0,.145-.048.313-.04.514s.024.41.024.643c.064.225.08.466.161.707a3.4,3.4,0,0,0,.329.691,2.59,2.59,0,0,0,.506.6c.1.08.209.161.313.249l.354.185a2.277,2.277,0,0,0,.755.193,1,1,0,0,0,.378,0,.939.939,0,0,0,.37-.056c.121-.04.241-.064.354-.113l.321-.177c.209-.121.37-.305.555-.434.137-.169.273-.33.4-.474a3.883,3.883,0,0,0,.281-.442c.153-.249.257-.394.257-.394Z" transform="translate(-478.994 -136.312)" fill="#2f3f5c"/>
              <path id="Tracé_2113" data-name="Tracé 2113" d="M500.716,148.364s-.008.169-.04.466a2.131,2.131,0,0,1-.1.53,6.046,6.046,0,0,1-.281.7,3.658,3.658,0,0,1-.555.715l-.394.33a3.087,3.087,0,0,1-.49.241,2.047,2.047,0,0,1-.546.161,1.6,1.6,0,0,1-.587.048,3.189,3.189,0,0,1-1.157-.257c-.177-.1-.354-.193-.522-.289-.153-.121-.3-.257-.442-.386a3.171,3.171,0,0,1-.627-.932,2.9,2.9,0,0,1-.273-.989,4.069,4.069,0,0,1,.016-.892,7.112,7.112,0,0,1,.2-.707,2.3,2.3,0,0,1,.249-.49c.153-.265.249-.4.249-.4s0,.177-.032.466c0,.145-.048.313-.04.514s.024.41.024.643c.064.225.08.466.161.707a3.4,3.4,0,0,0,.329.691,2.591,2.591,0,0,0,.506.6c.1.08.209.161.313.249l.354.185a2.506,2.506,0,0,0,.755.2,1,1,0,0,0,.378,0,.939.939,0,0,0,.37-.056c.121-.04.241-.072.354-.113l.321-.177c.209-.121.37-.305.555-.434.137-.169.273-.33.4-.474a3.885,3.885,0,0,0,.281-.442c.161-.249.257-.394.257-.394Z" transform="translate(-481.934 -137.27)" fill="#2f3f5c"/>
              <path id="Tracé_2114" data-name="Tracé 2114" d="M478.82,164.1s9.692,1.857,13,2.017C491.824,166.117,486.656,170.4,478.82,164.1Z" transform="translate(-478.82 -140.783)" fill="#fff"/>
            </g>
          </g>
          <g id="Groupe_82" data-name="Groupe 82" transform="translate(0 28.801)">
            <g id="Groupe_80" data-name="Groupe 80">
              <path id="Tracé_2115" data-name="Tracé 2115" d="M440.192,197.925s-28.04,4.87-34.486,5.184-17.906-78.576-11.935-49.957c0,0,.305-16.339,2.668.362,0,0,1.037-14.442,2.419-.185,0,0,1.736-11.469,2.355,1.688,0,0,5.071-7.064.691,3.239,0,0,10.5,27.43,10.769,27.438s25.557-8.214,33.9-9.258,42.965,9.25,47.136,12.61,28.531,37.2,26.763,41.7-45.713,23.4-48.542,19.819,1.053-5.256,1.053-5.256L500.717,226.3l-13.486-16.821-47.039-11.557Z" transform="translate(-392.101 -145.996)" fill="#e8a196"/>
              <path id="Tracé_2116" data-name="Tracé 2116" d="M501.778,196.465a7.919,7.919,0,0,0-1.037-.659,22,22,0,0,1-16.99,4.043,20.27,20.27,0,0,1-12-6.317c-1.149-1.278-2.218-2.612-3.3-3.946-1.053-.715-2.09-1.463-3.094-2.242a2.363,2.363,0,0,1-.78-2.371c-.04-.048-.08-.1-.121-.137-4.268-.812-7.812-1.222-9.821-.964-4.452.563-13.719,3.158-21.442,5.465,1.085,6,2.363,11.983,3.52,17.97,6.389-1.045,11.541-1.945,11.541-1.945L495.3,216.919l5.987,7.466c4.332-3.986,8.744-7.884,13.036-11.911-5.457-7.756-10.793-14.579-12.545-15.993Z" transform="translate(-400.169 -153.417)" fill="#d3877f"/>
            </g>
            <g id="Groupe_81" data-name="Groupe 81" transform="translate(31.126 30.409)">
              <path id="Tracé_2117" data-name="Tracé 2117" d="M499.834,195.267c-1.784-1.326-5.465-2.837-11.79-4.557a13.394,13.394,0,0,1-7.836,3.006c-6.775.563-9.435-2.355-12.457-7.9a1.908,1.908,0,0,1-.137-.33c-5.827-1.1-10.826-1.784-13.446-1.631-8.591.506-19.7,3.633-19.7,3.633l2.95,21.434,6.245-.506s-8.206,35.362-12.835,52.9c0,0,16.917,6.759,47.755,6.486l14.064-49.635,4.155,3.9,15.624-13.413a58.141,58.141,0,0,0-12.594-13.4Z" transform="translate(-430.83 -183.834)" fill="#eec142"/>
              <path id="Tracé_2118" data-name="Tracé 2118" d="M458.87,248.017c-7.78,1.816-15.535,3.335-23.323,4.525-1.68,6.9-3.351,13.6-4.718,18.766,0,0,16.917,6.759,47.755,6.486L490.793,234.7c-8.824,7.394-20.622,10.673-31.922,13.317Z" transform="translate(-430.83 -193.82)" fill="#2f3f5c" opacity="0.1"/>
            </g>
            <path id="Tracé_2119" data-name="Tracé 2119" d="M495.892,258.054c-11.838-6.446-2.676-.1-2.676-.1-13.992-2.226-1.527,1.551-1.527,1.551-15.471,1.736-.33,1.865-.33,1.865-14.434,6.6.048,2.411.048,2.411s-2.009,5.393-1.816,7.539,5.545.675,5.545.675-1.615.571.362-6.325.4-7.627.4-7.627Z" transform="translate(-410.285 -167.428)" fill="#e8a196"/>
          </g>
        </g>
        <g id="Groupe_99" data-name="Groupe 99" transform="translate(101.482 90.648)">
          <ellipse id="Ellipse_25" data-name="Ellipse 25" cx="67.774" cy="12.32" rx="67.774" ry="12.32" transform="translate(0 237.449) rotate(-2.63)" fill="#2f3f5c" opacity="0.1"/>
          <g id="Groupe_89" data-name="Groupe 89" transform="translate(2.826 0)">
            <g id="Groupe_87" data-name="Groupe 87">
              <path id="Tracé_2120" data-name="Tracé 2120" d="M217.89,149.728s11.388-12.963,25.051-3.319,1.27,19.795,9.909,30.242-2.21,18.284-2.21,18.284l-17.279-1-15.471-44.2Z" transform="translate(-198.352 -142.841)" fill="#2f3f5c"/>
              <g id="Groupe_85" data-name="Groupe 85" transform="translate(10.094 7.983)">
                <g id="Groupe_84" data-name="Groupe 84" transform="translate(0 16.175)">
                  <path id="Tracé_2121" data-name="Tracé 2121" d="M223.115,248.459c1.519,3.038-14.916-42.82-16.475-42.193,6.028-2.411,39.854-7.844,44.275-2.218s-.072,28.74-3.689,43.608S223.115,248.459,223.115,248.459Z" transform="translate(-206.238 -178.531)" fill="#ffc1b7"/>
                  <path id="Tracé_2122" data-name="Tracé 2122" d="M218.4,172.91s3.817,20.293,1.808,22.3-14.064,6.028-14.064,6.028l37.95-4.9L232.9,195.212c-2.009-2.411.161-20.9.161-20.9Z" transform="translate(-206.14 -172.902)" fill="#ffc1b7"/>
                  <path id="Tracé_2123" data-name="Tracé 2123" d="M223.777,192.381a36.1,36.1,0,0,0,11.79,2.178c-1.406-4.034.49-20.253.49-20.253L221.39,172.9S223.906,186.265,223.777,192.381Z" transform="translate(-209.134 -172.9)" fill="#ffa398"/>
                </g>
                <path id="Tracé_2124" data-name="Tracé 2124" d="M230.465,152.883s-13.574,2.29-12.578,16.588c.8,11.549,9.041,18.782,18.485,17.978,9.242-.788,10.737-15.945,9.443-23.106a13.888,13.888,0,0,0-15.35-11.452Z" transform="translate(-208.436 -152.774)" fill="#ffc1b7"/>
              </g>
              <g id="Groupe_86" data-name="Groupe 86" transform="translate(0 5.326)">
                <path id="Tracé_2125" data-name="Tracé 2125" d="M220.551,154.315a11.862,11.862,0,0,1-1.808,12.457s.121,1,1,7.434c.8,5.827.6,12.658-2.009,17.279s-11.549,1.607-18.782,10.85c0,0-7.924-9-4.533-16.54,2.491-5.537,10.159-7.37,9.049-17.159-1.406-12.457,4.822-20.14,11.653-17.126s5.425,2.813,5.425,2.813Z" transform="translate(-193.58 -149.74)" fill="#2f3f5c"/>
                <path id="Tracé_2126" data-name="Tracé 2126" d="M225.14,152.837s5.738,8.736,18.187,6.751L239,156.855s8.463,3.006,8.664,4.814c0,0-1.029-3.408-2.234-6.823S229.56,145.8,225.14,152.837Z" transform="translate(-199.776 -149.467)" fill="#2f3f5c"/>
              </g>
            </g>
            <g id="Groupe_88" data-name="Groupe 88" transform="translate(27.518 16.539)">
              <path id="Tracé_2127" data-name="Tracé 2127" d="M230.7,174.163s-.064-.169-.161-.474a3.1,3.1,0,0,1-.137-.555,7.791,7.791,0,0,1-.032-.8,3.956,3.956,0,0,1,.233-.932c.08-.161.161-.321.241-.49a3.78,3.78,0,0,1,.37-.45,1.988,1.988,0,0,1,.466-.386,1.629,1.629,0,0,1,.547-.289,3.223,3.223,0,0,1,1.23-.241c.209.016.418.032.627.056.2.056.4.121.595.185a3.429,3.429,0,0,1,.538.281,1.831,1.831,0,0,1,.466.354,3.322,3.322,0,0,1,.683.844,5.2,5.2,0,0,1,.362.876c.056.281.08.546.1.772a2.629,2.629,0,0,1-.032.587c-.04.321-.072.49-.072.49s-.072-.177-.169-.466a4.6,4.6,0,0,0-.185-.514c-.1-.185-.193-.394-.3-.611-.153-.193-.281-.418-.458-.611a3,3,0,0,0-.619-.522,2.771,2.771,0,0,0-.739-.37c-.137-.032-.273-.064-.41-.1l-.418-.032a2.523,2.523,0,0,0-.812.129,1.016,1.016,0,0,0-.37.161,1.274,1.274,0,0,0-.329.209c-.1.088-.2.161-.3.257l-.233.305a7.449,7.449,0,0,0-.354.659c-.056.225-.121.434-.185.635s-.056.4-.088.555c-.04.313-.08.49-.08.49Z" transform="translate(-228.32 -164.623)" fill="#2f3f5c"/>
              <path id="Tracé_2128" data-name="Tracé 2128" d="M243.03,174.1a20.39,20.39,0,0,1,1.7,2.13q.772,1.109,1.447,2.29l.145.257-.185.2a19.932,19.932,0,0,1-2.684,2.516,19.848,19.848,0,0,1,2.1-3.022l-.04.458c-.49-.755-.948-1.535-1.366-2.331a17.791,17.791,0,0,1-1.109-2.491Z" transform="translate(-230.806 -165.517)" fill="#db958d"/>
              <path id="Tracé_2129" data-name="Tracé 2129" d="M234.11,185.38h11.653S241.745,191.609,234.11,185.38Z" transform="translate(-229.055 -167.731)" fill="#fff"/>
              <path id="Tracé_2130" data-name="Tracé 2130" d="M227.828,166.193a2.071,2.071,0,0,1,.177-.418,3.772,3.772,0,0,1,.731-.956,4.418,4.418,0,0,1,1.439-.964,4.368,4.368,0,0,1,.948-.305,7.084,7.084,0,0,1,1.021-.129,8.461,8.461,0,0,1,1.021.08,6.816,6.816,0,0,1,.948.241c.289.113.571.233.828.354.249.145.466.289.667.434a2.834,2.834,0,0,1,.522.418c.145.137.265.265.362.362.193.209.289.338.289.338s-.169-.016-.45-.064c-.281-.032-.651-.153-1.1-.217-.225-.04-.458-.08-.7-.137-.249-.024-.506-.064-.763-.1s-.53-.032-.8-.072c-.265-.016-.538,0-.8-.024-.265.032-.53.016-.8.056a7.565,7.565,0,0,0-.763.121c-.257.04-.49.121-.723.169-.225.08-.458.129-.659.217a11.944,11.944,0,0,0-1.406.611Z" transform="translate(-227.82 -163.42)" fill="#5d77a6"/>
              <path id="Tracé_2131" data-name="Tracé 2131" d="M245.146,174.613s-.064-.161-.153-.442a3.868,3.868,0,0,1-.137-.514c-.024-.209-.048-.458-.056-.731a5.132,5.132,0,0,1,.113-.876,3.217,3.217,0,0,1,.442-.94,2.647,2.647,0,0,1,.86-.8,3.228,3.228,0,0,1,.579-.233,4.183,4.183,0,0,1,.627-.08c.209.024.426.032.627.072.193.064.386.137.579.209a3.03,3.03,0,0,1,.884.723,3.591,3.591,0,0,1,.538.868,4.784,4.784,0,0,1,.233.844c.032.265.04.506.056.715a4.281,4.281,0,0,1-.056.538c-.048.3-.08.458-.08.458s-.064-.161-.161-.442c-.04-.137-.1-.3-.161-.482-.08-.177-.177-.378-.257-.587-.1-.209-.249-.4-.362-.627-.072-.1-.161-.185-.249-.281a1.382,1.382,0,0,0-.265-.265,2.7,2.7,0,0,0-.3-.233c-.113-.056-.217-.113-.321-.177-.121-.032-.233-.064-.346-.1-.113-.024-.233-.016-.346-.032-.113,0-.225.032-.346.04-.113.024-.217.08-.33.113a1.9,1.9,0,0,0-.563.418,2.845,2.845,0,0,0-.434.587c-.08.233-.209.45-.265.659s-.113.418-.169.6c-.032.2-.056.378-.08.522-.048.289-.088.458-.088.458Z" transform="translate(-231.154 -164.712)" fill="#2f3f5c"/>
              <path id="Tracé_2132" data-name="Tracé 2132" d="M243.9,166.594a2.364,2.364,0,0,1,.1-.41,3.4,3.4,0,0,1,.522-.989,4.073,4.073,0,0,1,.506-.579,3.961,3.961,0,0,1,.7-.522,3.435,3.435,0,0,1,.876-.378,4.054,4.054,0,0,1,.98-.177,4.3,4.3,0,0,1,1.881.346c.265.129.522.265.755.4.217.161.4.321.579.474a2.022,2.022,0,0,1,.426.45c.121.145.209.273.289.386a3.7,3.7,0,0,1,.225.354s-.161-.032-.41-.1-.579-.2-.989-.289c-.2-.048-.41-.1-.627-.177-.217-.04-.45-.08-.675-.137s-.458-.048-.691-.1c-.233,0-.458-.016-.691-.016a6.186,6.186,0,0,0-.675.08,4.633,4.633,0,0,0-.659.161,8.533,8.533,0,0,0-1.189.5c-.354.185-.659.362-.876.5S243.9,166.594,243.9,166.594Z" transform="translate(-230.977 -163.444)" fill="#5d77a6"/>
            </g>
          </g>
          <g id="Groupe_93" data-name="Groupe 93" transform="translate(5.321 86.853)">
            <g id="Groupe_91" data-name="Groupe 91" transform="translate(12.47 36.535)">
              <g id="Groupe_90" data-name="Groupe 90">
                <path id="Tracé_2133" data-name="Tracé 2133" d="M303.868,406.217c-1.214-14.008-5.545-44.934-20.59-58.516,0,0-1.471-27.775-7.707-51.331-21.2,1.752-42.1,5.827-62.96,10.191-1.334,25.485-.1,76.277,14.394,111.334-4.846,5.586-15.728,17.287,1.423,5.28v.153l1.559-2.861s11.364-38.986,1.728-66.641c0,0,10.793-30.564,11.959-46.2,0,0,39.854,87.264,60.461,105.547v.08c16.226,11.356,2.628-3.874-.265-7.048Z" transform="translate(-212.201 -296.37)" fill="#ffc1b7"/>
                <path id="Tracé_2134" data-name="Tracé 2134" d="M226.477,450.53s.177,3.038,5.039.04c0,0-.313,2.636-.747,3.07s-10.271,7.233-10.97,5.626,6.679-8.736,6.679-8.736Z" transform="translate(-213.683 -326.635)" fill="#fff"/>
                <path id="Tracé_2135" data-name="Tracé 2135" d="M320.768,435.73a37.013,37.013,0,0,0,4.444,5.433c.635.611,6.767,5.537,8.447,3.858s-6.421-9.291-6.421-9.291,1.238,2.869-.94,2.869-5.537-2.869-5.537-2.869Z" transform="translate(-233.513 -323.729)" fill="#fff"/>
              </g>
              <path id="Tracé_2136" data-name="Tracé 2136" d="M283.278,347.7s-1.471-27.775-7.707-51.331c-21.2,1.752-42.1,5.827-62.96,10.191a365.273,365.273,0,0,0,2.13,60.011c6.791,1.479,13.534,3.006,20.317,3.906a68.862,68.862,0,0,0-3.343-16.652s10.793-30.564,11.959-46.2c0,0,12.955,28.362,27.912,56.129.346-.113.7-.209,1.053-.321a79.12,79.12,0,0,0,17.3-7.675,38.956,38.956,0,0,0-6.646-8.069Z" transform="translate(-212.201 -296.37)" fill="#4b6590" opacity="0.15"/>
            </g>
            <g id="Groupe_92" data-name="Groupe 92">
              <path id="Tracé_2137" data-name="Tracé 2137" d="M220.558,255.33s-15.069,11.653-20.695,40.988a186.051,186.051,0,0,0-2.548,49.563s58.4,12.722,97.784-17.014c0,0-18.083-65.9-47.819-77.957,0,0-13.462,8.037-26.722,4.42Z" transform="translate(-196.685 -250.91)" fill="#de7356"/>
              <path id="Tracé_2138" data-name="Tracé 2138" d="M248.986,330.952c-13.116-2.564-25.332-8.937-33.819-19.449-4.284-5.312-9.4-11.163-12.57-17.633a98.622,98.622,0,0,0-2.724,10.882,186.051,186.051,0,0,0-2.548,49.563s58.4,12.722,97.784-17.014c0,0-1.422-5.2-4.139-12.939-12.827,6.574-27.341,9.451-41.984,6.59Z" transform="translate(-196.687 -259.344)" fill="#4b6590" opacity="0.15"/>
            </g>
          </g>
          <g id="Groupe_98" data-name="Groupe 98" transform="translate(7.472 45.639)">
            <g id="Groupe_94" data-name="Groupe 94" transform="translate(48.035 4.237)">
              <path id="Tracé_2139" data-name="Tracé 2139" d="M267.577,204.908s12.859,5.626,24.11,6.229a143.015,143.015,0,0,1,24.006-2.315c12.152,0,24.81.707,13.96,1.3,0,0,11.854,1.808.6,1.406,0,0,9.242,1.206.2,1.406,0,0,6.831,0,.2,1.3-7.362,1.447-32.75,9.339-41.189,8.342-6.413-.764-30.339-5.425-30.339-5.425l8.439-12.256Z" transform="translate(-259.13 -204.9)" fill="#ffc1b7"/>
              <path id="Tracé_2140" data-name="Tracé 2140" d="M270.755,206.172c-1.977-.739-3.167-1.262-3.167-1.262l-8.439,12.256s3.44.667,8.053,1.543c1.358-4.115,2.532-8.3,3.552-12.537Z" transform="translate(-259.134 -204.902)" fill="#ffa398"/>
              <path id="Tracé_2141" data-name="Tracé 2141" d="M342.02,210.391s4.517-6.735,1.607-.5l-1.206.5" transform="translate(-275.403 -205.36)" fill="#ffc1b7"/>
            </g>
            <g id="Groupe_95" data-name="Groupe 95">
              <path id="Tracé_2142" data-name="Tracé 2142" d="M210.435,203.672s7.836,12.256,21.5,10.649,13.261-14.667,13.261-14.667a20.611,20.611,0,0,1,13.06,4.018s-2.813,6.831-5.827,9.845c0,0,9.041,13.06-3.617,21.1l1,6.028s-11.251,5.023-31.343,3.617c0,0-.4-13.863-2.813-21.7,0,0-10.247,3.922-14.667,4.42C200.992,226.979,193.558,207.088,210.435,203.672Z" transform="translate(-199.361 -199.628)" fill="#fff"/>
              <path id="Tracé_2143" data-name="Tracé 2143" d="M259.607,230.089a29.888,29.888,0,0,1-12.2,3.472c-8.945.482-18.894,0-27.277-3.681,2.065,7.972,2.427,20.317,2.427,20.317,20.092,1.406,31.344-3.617,31.344-3.617l-1-6.028c4.862-3.086,6.518-6.92,6.719-10.464Z" transform="translate(-203.438 -205.567)" fill="#4b6590" opacity="0.1"/>
            </g>
            <g id="Groupe_97" data-name="Groupe 97" transform="translate(2.732 21.709)">
              <g id="Groupe_96" data-name="Groupe 96">
                <path id="Tracé_2144" data-name="Tracé 2144" d="M217.331,226.656s8.937,11.854,15.768,17.078c0,0,13.156-1.511,25.316-1.511s24.81.707,13.96,1.3c0,0,11.854,1.808.6,1.406,0,0,9.242,1.206.2,1.406,0,0,6.831,0,.2,1.3-7.362,1.447-36.953,10.223-47.514,8.133-7.635-1.511-23.106-23.709-23.106-23.709l14.563-5.425Z" transform="translate(-202.76 -226.64)" fill="#ffc1b7"/>
                <path id="Tracé_2145" data-name="Tracé 2145" d="M284.52,246.641s4.517-6.735,1.607-.5l-1.206.5" transform="translate(-218.811 -229.949)" fill="#ffc1b7"/>
              </g>
              <path id="Tracé_2146" data-name="Tracé 2146" d="M218.659,228.364c-.836-1.053-1.326-1.7-1.326-1.7l-14.563,5.425s.948,1.358,2.483,3.416a111.694,111.694,0,0,0,13.413-7.137Z" transform="translate(-202.762 -226.644)" fill="#ffa398"/>
            </g>
          </g>
        </g>
        <g id="Groupe_101" data-name="Groupe 101" transform="translate(141.503)">
          <path id="Tracé_2147" data-name="Tracé 2147" d="M242.689,90.808,443.062,89.6l8.969-52.528L239.86,30.05Z" transform="translate(-239.86 -30.05)" fill="#e8a196"/>
          <g id="Groupe_100" data-name="Groupe 100" transform="translate(25.965 5.482)">
            <text id="WELCOME" transform="translate(2.414 33.996) rotate(2.55)" fill="#de7356" font-size="35" font-family="Tenderness" letter-spacing="0.05em"><tspan x="0" y="0">WELCOME</tspan></text>
            <text id="WELCOME-2" data-name="WELCOME" transform="translate(0.606 32.967) rotate(2.55)" fill="#fff" font-size="35" font-family="Tenderness" letter-spacing="0.05em"><tspan x="0" y="0">WELCOME</tspan></text>
          </g>
        </g>
      </g>
    </g>
  </g>
</svg>
