<svg xmlns="http://www.w3.org/2000/svg" width="364.666" height="343.092" viewBox="0 0 364.666 343.092">
  <g id="b" transform="translate(-3.263 -20.686)">
    <g id="Groupe_4" data-name="Groupe 4" transform="translate(3.263 20.686)">
      <g id="Groupe_3" data-name="Groupe 3">
        <path id="Tracé_211" data-name="Tracé 211" d="M306.074,216.671h0a1.419,1.419,0,0,1-.3-1.275,2.322,2.322,0,0,0-.386-.855,6.526,6.526,0,0,0-.637-.721c-.117-.117-.235-.235-.352-.335a7.126,7.126,0,0,0-.788-.621,9.711,9.711,0,0,0-.872-.57,4.487,4.487,0,0,0-2.063-.906l-.6.05c-.184.084-.386.151-.57.218-5.8,8.219-14.307,9.695-23.532,9.51-6.759-.134-13.519-.017-20.278-.034-16.421,0-21.436-4.143-24.622-20.161-.319-1.56-.084-3.556-2.18-4.277a42.923,42.923,0,0,1-9.041-.47l-3.2-.3a26.677,26.677,0,0,0-3.841-.017c-1.627,1.61-1.292,3.69-1.308,5.636-.084,9.309.05,18.6-.084,27.91-.017,1.493,0,3.053-2.13,3.12-1.979.067-2.9-.99-3.1-2.851a45.5,45.5,0,0,1-.134-4.78V195.034c-2.969-.235-5.938-.453-8.923-.7v1.543c-.084,3.187.084,6.374-.1,9.56-.1,1.694-.923,2.8-2.667,2.868a2.838,2.838,0,0,1-3.287-2.7,35.037,35.037,0,0,1-.168-4.78v-7.045c-2.5-.235-5-.5-7.5-.788-1.325.05-3.053.05-5.334.134-6.642.235-13.2-1.124-19.842-.47-2.566,2.1-3.237,5.065-1.728,9.108,1.141,3.069,2.248,6.156,3.422,9.225,1.392,5.82.553,6.927-5.283,6.978-1.979,0-3.975.05-5.954-.017-6.374-.252-7.514-1.979-5.25-7.85.855-2.5,2.214-4.831,2.8-7.4.688-3.036,1.694-6.206-.906-8.957a11.369,11.369,0,0,0-4.68-.654c-10.047-.2-20.06,1.241-30.124.872a6.592,6.592,0,0,0-4.478,1.342c-1.694,1.929-1.409,4.21-.923,6.374a49.005,49.005,0,0,0,2.952,8.588c2.5,5.669,1.426,7.43-4.78,7.7-2.65.117-5.317.117-7.967,0-3.891-.184-4.864-1.493-4.193-5.384.134-.788.419-1.543.621-2.3.906-2.986,2.315-5.787,3.254-8.755.637-1.979,1.308-4.076-1.023-5.535a13.384,13.384,0,0,0-6.709-.218c-5.954,1.107-12.043,1.09-17.98,2.164a5.844,5.844,0,0,1-6.206.235c-.788.05-1.577.084-2.365.117v2.6c0,1.325.034,2.667-.05,3.992-.1,1.711-.453,3.237-2.583,3.355-2.013.1-3.287-.721-3.539-2.868a7.8,7.8,0,0,0-1.023-3.807c-3.321-1.191-6.39-.671-9.376.4a4.146,4.146,0,0,1-1.694,1.661,23.415,23.415,0,0,1-2.2,1.006,18.2,18.2,0,0,0-.3,4.579c-.067,6.776.084,13.552-.084,20.329-.034,1.51-.285,3.086-2.331,3a2.794,2.794,0,0,1-2.868-2.734,37.938,37.938,0,0,1-.151-4.78v-19a25.162,25.162,0,0,1-5.384-.05,1.277,1.277,0,0,0-.671.335,5.926,5.926,0,0,1-.772,0c-.252.268-.57.486-.822.772-.268,0-.537.017-.805.034-.906.889-2.281-.067-3.2.788a3.785,3.785,0,0,1-.755,0c-.268.268-.587.486-.839.772a5.922,5.922,0,0,1-.772.017c-.654.721-1.761.084-2.415.788h0c-.419.486-1.157.335-1.593.788h0c-.419.486-1.141.319-1.577.755-.268,0-.537.017-.805.034-.252.268-.52.52-.805.772a5.96,5.96,0,0,1-.772.05c-.436.47-1.191.319-1.627.788h0c-.252.268-.52.52-.788.772a5.685,5.685,0,0,1-.755.034c-.285.268-.57.52-.839.772h0c-.4.5-1.157.335-1.577.839h0a7.135,7.135,0,0,0-.805.788l-.805.805h0a9.118,9.118,0,0,0-.805.805h0c-.486.419-.335,1.157-.805,1.577a6.37,6.37,0,0,0,0,4.78c.486.419.335,1.174.805,1.593h0c.268.268.537.52.788.805l.805.805h0c.268.268.537.537.805.788h0c.419.47,1.174.319,1.577.805h0c.285.252.537.537.822.788h0c.419.486,1.174.3,1.593.805a6.064,6.064,0,0,1,.788.034l.805.755h0c.436.47,1.174.319,1.61.788h0c.973,1.426,2.768.839,4.009,1.593h.772c1.292.671,2.734.889,3.992,1.593h0c1.661,1.241,3.841.721,5.6,1.593.52,0,1.04.017,1.577.034.654.688,1.744.034,2.4.772h0c.923.872,2.3-.084,3.2.805.537,0,1.057.017,1.593.034,2.063.788,4.277.956,6.39,1.577h1.593c2.382.654,4.831.906,7.2,1.593,1.057,0,2.113.017,3.17.034,2.868.839,5.854.99,8.772,1.56h0a4.659,4.659,0,0,0,3.2,1.124c4.076-.134,8.051.7,12.043,1.308a17.4,17.4,0,0,0,4.176.3c3.724-.939,7.38,1.124,10.969.486a9.546,9.546,0,0,1,6.424.822,25.466,25.466,0,0,0,6.676.319c27.91-.185,55.82.151,83.713,0a30.21,30.21,0,0,0,6.625-.285c6.038-.738,12.093-1.308,18.182-1.493a4.21,4.21,0,0,0,1.879-.973c.788,0,1.593,0,2.382-.017.218.05.419.084.637.134,4.109.688,8.085-1.191,12.177-.6a10.036,10.036,0,0,0,3.237-.486c2.969-1.862,6.273-.839,9.426-1.107a15.762,15.762,0,0,0,3.187-.386c2.65-.486,5.216-1.359,7.95-1.258a11.8,11.8,0,0,0,2.432-.335c2.113-.52,4.16-1.325,6.39-1.275a11.9,11.9,0,0,0,2.3-.352,19.433,19.433,0,0,1,5.334-1.325,8.486,8.486,0,0,0,1.56-.285c.788-.252,1.543-.537,2.331-.772a7.987,7.987,0,0,0,.889-.319,7.817,7.817,0,0,1,2.248-.4,6.1,6.1,0,0,0,1.359-.268c.587-.2,1.157-.4,1.744-.587.285-.1.57-.2.839-.319a6.75,6.75,0,0,1,1.711-.436,6.065,6.065,0,0,0,1.325-.3c.419-.168.822-.335,1.241-.537l.805-.352a9.907,9.907,0,0,1,1.258-.352,7.625,7.625,0,0,0,1.258-.285c.537-.2,1.057-.47,1.56-.7.252-.117.52-.252.772-.386.386-.185.788-.369,1.191-.553a8.792,8.792,0,0,0,.805-.386,15.9,15.9,0,0,1,2.147-.855,4.111,4.111,0,0,0,.855-.436c.352-.335.52-.805.855-1.174.252-.268.52-.52.788-.772a5.939,5.939,0,0,1,.772-.034,1.978,1.978,0,0,1,.738-.4c.134-.05.252-.117.386-.168a3.414,3.414,0,0,0,.671-.52l.3-.3a3.994,3.994,0,0,0,.52-.671,4.027,4.027,0,0,1,.184-.386,2.439,2.439,0,0,1,.436-.721c.453-.436.3-1.174.805-1.593h0c.268-.285.52-.57.788-.839v-3.137c-.486-.419-.319-1.174-.805-1.61Z" transform="translate(-3.263 95.661)" fill="#cce9ff"/>
        <path id="Tracé_212" data-name="Tracé 212" d="M209.995,268.122c-1.962,1.744-2.684,4.428-5.032,6.021a25.777,25.777,0,0,1-13.821,4.277c-9.946.436-19.893.3-29.839.067a31.247,31.247,0,0,1-9.711-1.845c-5.166-1.862-8.3-5.77-10.114-10.969-1.459-4.143-1.526-8.571-2.952-12.68-.57-8.2-1.375-16.387-1.627-24.589-.285-9.426-.319-18.886.05-28.312a79.494,79.494,0,0,1,2.784-19.607,20.7,20.7,0,0,1,4.445-7.414,88.615,88.615,0,0,0,13.8-21.721,42.732,42.732,0,0,0,3-21.385c-.553-5.535-.252-11.154-.4-16.722-.05-1.744.872-2.13,2.382-2.449,3.438-.738,6.894-.185,10.332-.57a6.329,6.329,0,0,1,1.174-.688,4.141,4.141,0,0,1,2.7.084c2.432.738,5.015-.252,7.447.587l6.256.1a3.27,3.27,0,0,1,.939.788l-.034-.034a6.491,6.491,0,0,1,.084,4.763l-.1,7.028a102.247,102.247,0,0,0,0,18.685c.034.486.067.956.1,1.442.436.5.352,1.224.688,1.778a.829.829,0,0,0,.067.6c.822.99-.017,2.331.755,3.338a.936.936,0,0,0,.117.671,2.534,2.534,0,0,1,.671,1.04.643.643,0,0,0,.084.554c.453.453.335,1.174.721,1.661l-.034-.05c.57.386.436,1.157.855,1.627l-.034-.034c.537.4.4,1.157.822,1.627v-.034a2.635,2.635,0,0,1,.788.872l-.067-.05c.6.386.453,1.141.839,1.627l-.034-.05c.57.369.419,1.157.889,1.577h0c.47.436.352,1.157.788,1.627v-.034a2.425,2.425,0,0,1,.772,1.006.959.959,0,0,0,.151.6c.235.285.453.57.671.855l-.05-.034a11.2,11.2,0,0,1,1.627,2.432v-.034a2.367,2.367,0,0,1,.822.855l-.067-.05c.587.335.4,1.141.923,1.526h0c.235.3.52.553.772.839h0a3.5,3.5,0,0,1,.788.855l-.05-.034a2.508,2.508,0,0,1,.822.855l-.05-.05c.587.352.4,1.141.906,1.56h0c.268.268.537.537.788.822h-.017c.4.688,1.124,1.157,1.543,1.845a.625.625,0,0,0,.151.537c.235.285.47.554.688.855l-.05-.05c.553.369.386,1.157.889,1.543h0c.436.52.352,1.241.721,1.761a.975.975,0,0,0,.1.654,2.826,2.826,0,0,1,.688,1.023c.05.47.1.923.151,1.392.772,1.258-.168,2.818.688,4.059l.084,1.51c.6.755.117,1.795.671,2.566.034.738.067,1.476.1,2.2,1.292,2.13.369,4.361.419,6.575.218,10.315-.872,20.664.621,30.946.352,2.432-.6,4.7-.621,7.078a6.739,6.739,0,0,1,.4,4.176,14.6,14.6,0,0,0-.57,3.187,10.915,10.915,0,0,1-.486,3.12c-1.292,1.644-1.224,3.489-.755,5.367a2.414,2.414,0,0,1-.654,1.744.93.93,0,0,0-.067.637,2.837,2.837,0,0,0-.134,2.415,4.827,4.827,0,0,1-.084.99,15.343,15.343,0,0,0-.537,2.885,6.621,6.621,0,0,1-.235.956c-.218.621-.436,1.224-.6,1.862a8.756,8.756,0,0,1-.3.939,3.3,3.3,0,0,1-1.375,2Z" transform="translate(87.098 39.363)" fill="#ffc66d"/>
        <path id="Tracé_213" data-name="Tracé 213" d="M189.83,234.084c-.05,5.166-.067,10.332-.134,15.5-.05,3.774-.252,3.942-4.076,4.025-.654,0-1.308-.151-1.979-.168-2.013-.05-2.8-1.141-2.784-3.069.034-4.243.034-8.487.034-12.731v-94.3c0-3.422-.05-3.472-3.539-3.472-3.841,0-7.682.1-11.523.151-3.925,2.113-8.118.805-12.211,1.04q-37.236.327-74.454,0c-6.726.168-13.469.1-20.194.034-3.153-.034-4.613,1.057-4.5,4.361.084,2.18.52,4.529-1.107,6.458,0,4.512-.05,9.024-.034,13.536.067,26.82-.235,53.656.185,80.476.017,1.459,0,2.918-.117,4.378-.218,2.952-.235,2.969-3.3,3.187a12.992,12.992,0,0,1-1.979,0c-3.137-.268-3.321-.47-3.455-3.556-.067-1.593-.134-3.17-.185-4.763-1.694-2.063-1.241-4.545-1.241-6.894q-.05-44.054-.017-88.091V146.6c-.084-5.032-1.661-6.239-6.676-5.3a2.66,2.66,0,0,0-2.533,2.549,45.5,45.5,0,0,0-.134,4.78q0,45.639-.017,91.278c0,2.348.436,4.831-1.258,6.894-.05,2.516-.134,5.032-.134,7.548-.017,6.374.034,12.731-.05,19.1-.017,1.375.5,3.254-.973,3.992-1.828.906-3.891.3-5.8-.285-.906-.285-1.073-1.107-1.073-1.929-.017-1.728-.034-3.455-.034-5.166q.1-63.074.151-126.148c0-1.275.939-2.935-.805-3.925-2.147.369-4.294.788-6.374-.252l.134.117c-2.231-4.864-2.03-7.313.855-10.215a5.058,5.058,0,0,0,2.952-.05,5.7,5.7,0,0,1,1.275-.822c7.279-.923,14.592-.319,21.905-.369,8.118-.134,16.236-.185,24.337,0,1.258-.05,2.533.067,3.807-.067,9.024-.067,18.048-.319,27.055.034,16.689.637,33.361-.369,50.033-.034,3.019.067,6.122-.335,8.94,1.241l.805.218a42.825,42.825,0,0,0,12.764-1.023c5.283-1.409,11.02-.436,16.572-.4,2.684.017,5.585-.788,8,1.208q6.164.075,12.345.168c2.751.05,2.952.235,3.287,2.8.067.52.067,1.057.1,1.593q.2,5.585-5.451,5.753c-3.22.1-3.271.1-3.271,3.321q0,47.224.034,94.431c0,.654.117,1.325.168,1.979-.067,4.109-.151,8.219-.168,12.328-.034,7.162,0,14.341-.05,21.5,0,1.375.252,3.153-1.141,3.908-1.828.99-3.875.486-5.8-.151a1.5,1.5,0,0,1-.923-1.593c-.034-1.191-.034-2.382-.034-3.589q.05-63.527.117-127.071c0-5.418-.5-5.854-5.887-4.9-.168.034-.285.386-.436.6,1.292,1.56,1.224,3.455,1.224,5.317q.025,41.412,0,82.824c0,1.828.218,3.757-1.157,5.317Z" transform="translate(5.452 52)" fill="#5a5665"/>
        <path id="Tracé_214" data-name="Tracé 214" d="M175.893,169.624h-2.449a8.93,8.93,0,0,1-1.174-2.868c-.168-2.063-.486-4.109-.553-6.172-.084-3.271-.57-6.508-.319-9.846.285-3.791-2.231-6.407-5.233-8.3a27.861,27.861,0,0,1-9.829-11.137c-.52-1.174-1.258-2.231-1.795-3.4-.285-.671-.537-1.359-.872-2.013-.2-.335-.352-.688-.52-1.04a40.953,40.953,0,0,0-6.81-12.06c-7.112-8.3-9.309-17.93-8.152-28.531.621-5.753,3.875-10.064,8.118-13.653,2.432-2.046,4.78-4.193,7.162-6.273.5-.335,1.157-.352,1.627-.772h0a8.952,8.952,0,0,1,.839-.772h-.017a7.3,7.3,0,0,1,.805-.805h-.017a6.284,6.284,0,0,1,.839-.788h-.017a6.087,6.087,0,0,1,.805-.805h-.017a6.09,6.09,0,0,1,.822-.788h-.017a9.031,9.031,0,0,1,.788-.822h0q.377-.4.805-.805h0c.252-.252.5-.52.755-.788a1.892,1.892,0,0,0,.084-.688,5.12,5.12,0,0,1,.772-.923h0c.47-.419.335-1.157.788-1.593h0c.721-1.258.939-2.7,1.593-3.992a2.572,2.572,0,0,0,.05-.721,12.381,12.381,0,0,1,1.526-3.271,2.166,2.166,0,0,0,.05-.738c.436-.47.3-1.224.805-1.661h0c.436-.436.319-1.157.788-1.61h0c.587-.755,1.006-1.644,1.61-2.4h0a19.835,19.835,0,0,1,4.747-4.8h.017c.3-.252.553-.52.822-.772h0a7.33,7.33,0,0,1,.822-.788h-.017c.386-.486,1.157-.3,1.526-.839l.034-.034a6.817,6.817,0,0,0,.805-.755h0a9.346,9.346,0,0,1,.855-.772l-.034.034c.386-.52,1.157-.352,1.56-.855h0c.285-.252.537-.537.855-.772h0c.369-1.141,1.577-1.073,2.4-1.593h-.017a3.824,3.824,0,0,1,.923-.788,1.956,1.956,0,0,0,.688-.1l.822-.721h-.017a5.359,5.359,0,0,1,.839-.788l-.034.034c.4-.537,1.157-.386,1.61-.822h-.017c.4-.5,1.157-.335,1.56-.839h0c.436-.453,1.174-.285,1.56-.805h.017c.3-.252.553-.537.839-.772h-.017a1.893,1.893,0,0,1,2.382,0h0c.252.285.537.537.788.822h0a3.706,3.706,0,0,1,.772.923c0,1.258,0,2.533.017,3.791a14.463,14.463,0,0,0,0,7.279c.017.788.034,1.577.05,2.348.906,1.51-.218,3.338.738,4.847l.067,1.526c.671.671.017,1.744.755,2.4l.05.805c.637.7.05,1.761.721,2.466a2.616,2.616,0,0,0,.05.721,3.883,3.883,0,0,1,.738.923,2.227,2.227,0,0,0,.05.671c.721.637,0,1.744.805,2.365h0c.252.319.52.6.738.923a2.078,2.078,0,0,0,.084.721c.419.436.235,1.157.755,1.56h0c.235.3.52.554.755.855l-.034-.034c.788.587.05,1.744.872,2.331l.034.034c.235.285.486.57.738.839h-.017c.5.436.386,1.174.788,1.677a1.7,1.7,0,0,0,.084.7,9.213,9.213,0,0,1,.738.872,2.77,2.77,0,0,0,.084.738c.4.453.252,1.157.721,1.577h0a4.526,4.526,0,0,1,.755.939,1.8,1.8,0,0,0,.067.671c.453.453.3,1.174.755,1.61h0c.5.4.352,1.141.822,1.577h0c.486.453.369,1.191.772,1.694a2.381,2.381,0,0,0,.05.688,4.812,4.812,0,0,1,.755.906,2.512,2.512,0,0,0,.067.7c.453.47.3,1.191.721,1.677a2.015,2.015,0,0,0,.067.7,4.352,4.352,0,0,1,.738.923,1.793,1.793,0,0,0,.05.671c.688.688.067,1.778.755,2.466a2.575,2.575,0,0,0,.034.721c.47.453.319,1.191.755,1.661a3.413,3.413,0,0,0,.034.721,39.165,39.165,0,0,1,0,11.959,2,2,0,0,0-.034.7,8.9,8.9,0,0,1-.7.872,2.373,2.373,0,0,0-.084.772c-.721.654-.05,1.778-.822,2.432h0c-.453.419-.3,1.174-.839,1.577h.017c-.419.436-.285,1.191-.805,1.593l.034-.034a7.508,7.508,0,0,1-.788.839h0c-.47.419-.319,1.174-.822,1.593h.017c-.252.268-.52.52-.755.805h0c-.5.419-.369,1.124-.721,1.593l-.05.084c-.57.335-.369,1.107-.822,1.51h0l-.386.335c-.352.067-.688.1-1.04.134-2.818,1.9-3.673,5.116-5.132,7.866-2.365,4.5-5.485,8.051-10.114,10.215a19.187,19.187,0,0,0-8.672,7.85c-.671,1.141-1.51,2.516-2.969,2.264-1.543-.252-1.61-2.046-1.828-3.22-1.057-5.72-3.489-11-4.914-16.605-.5-6.189-1.811-12.278-1.728-18.567.168-12.714,2.516-24.706,9.862-35.391a14.917,14.917,0,0,0,2.65-9.393c-.151-3.187-.05-6.374-.017-9.561a21.783,21.783,0,0,1,2.365-9.158c-3.153,5.9-2.516,11.925-2.466,17.829a19.145,19.145,0,0,1-3.22,11.3c-6.189,9.057-8.487,19.289-9.091,29.99a88.17,88.17,0,0,0,2.4,25.579c1.073,4.613,2.935,8.99,4.109,13.586a18.823,18.823,0,0,1-.235,10.131c-1.426,4.831-1.224,9.661-1.191,14.525.335.872,1.258.855,1.912,1.241l.1,1.51c-.2.3-.419.6-.637.906-.05.52-.084,1.057-.134,1.577-.855.923.067,2.248-.7,3.2Z" transform="translate(87.922 -20.055)" fill="#b3d8cf"/>
        <path id="Tracé_215" data-name="Tracé 215" d="M162.434,125.7a1.769,1.769,0,0,1-2.2.134c-1.124-2.264.3-4.512.067-6.776a27.532,27.532,0,0,0,1.661-4.478A76.116,76.116,0,0,1,166.9,104.47c2.18-2.6,4.73-4.16,8.252-2.9.537,3.1-2.617,2.113-3.589,3.355,8.068-3.455,16.37-4.411,24.924-1.023a23.16,23.16,0,0,1,9.376,7.2c2.6,3.187,5.9,4.713,9.728,5.72,8.487,2.264,16.068,6.105,22.006,12.848,4.093,4.646,5.9,10.2,7.045,14.592-.47-6.994-6.91-16.706-15.314-21.905-3.4-2.113-6.894-4.143-10.768-5.065-6.055-1.459-10.667-4.763-14.995-9.124-6.491-6.541-14.643-8.135-23.549-6.122-1.409.319-2.784,1.006-4.243.2-1.342-1.879.587-2.248,1.476-2.818,5.887-3.724,10.282-8.588,12.211-15.431a3.265,3.265,0,0,1,.805-.788c.369-.1.738-.218,1.09-.319l-.067-.184c.4-.47,1.174-.268,1.493-.839l.05-.067a6.228,6.228,0,0,1,1.711-1.459l-.034.034a2.913,2.913,0,0,1,.855-.839l-.05.05c.369-.57,1.157-.386,1.56-.889h0a9.343,9.343,0,0,1,.855-.772l-.05.05c.419-.537,1.157-.419,1.644-.805l-.05.034c.47-.587,1.224-.486,1.811-.805l1.392-.168a20.284,20.284,0,0,1,7.917.017l1.375.134c.587.3,1.325.235,1.828.738h-.017c.654.7,1.711.1,2.4.721a.718.718,0,0,0,.587.117,2.343,2.343,0,0,1,1.023.772h-.034c.453.419,1.224.285,1.61.839l-.05-.05a3.9,3.9,0,0,1,.855.805h-.017c.285.218.537.5.839.7l.05.034a2.874,2.874,0,0,0,.755.738l.05.05a6.806,6.806,0,0,0,.738.822h0a4.676,4.676,0,0,1,.788.839l-.034-.034a3.068,3.068,0,0,1,.805.872l-.067-.05c.6.319.4,1.141.939,1.51v.034c.537.805.99,1.644,1.56,2.415h0c.47.436.352,1.157.788,1.627v-.034a2.109,2.109,0,0,1,.755,1.023.739.739,0,0,0,.134.587c.4.47.268,1.157.7,1.61h0a1.944,1.944,0,0,1,.755,1.023.656.656,0,0,0,.117.554c.419.5.335,1.224.688,1.761a.776.776,0,0,0,.2.654,9.81,9.81,0,0,0,.637.822l-.034-.05c.537.419.419,1.157.788,1.661l-.034-.05c.587.352.419,1.157.906,1.56h0a2.152,2.152,0,0,1,.721,1.073.529.529,0,0,0,.2.52,8.234,8.234,0,0,1,1.476,1.577h0c.7.671,1.694.973,2.331,1.728l-.05-.034a23.494,23.494,0,0,1,3.3,2.264h.034c.352.57,1.157.369,1.51.923l-.05-.034c.486.4,1.241.268,1.644.822l-.05-.05a6.263,6.263,0,0,1,.872.755h0c.419.486,1.141.352,1.593.788h0c.386.52,1.191.335,1.543.923l-.05-.034c.5.386,1.258.252,1.644.839l-.05-.067a4.242,4.242,0,0,1,.889.755h0c.419.47,1.107.319,1.577.7a.568.568,0,0,0,.553.151,2.1,2.1,0,0,1,1.057.755h-.017c.453.436,1.191.3,1.61.805h-.034c.285.218.537.5.839.721h.017c.369.537,1.191.352,1.526.939l-.05-.067a2.1,2.1,0,0,1,.855.855l-.067-.05c.587.319.386,1.141.939,1.493v.034c.235.319.52.553.755.855l-.034-.034c.52.47.419,1.224.772,1.761a.865.865,0,0,0,.117.637,2.337,2.337,0,0,1,.671,1.073c.05.436.1.889.134,1.325a15.581,15.581,0,0,1-.034,7.145.9.9,0,0,0-.067.654c-.369.52-.268,1.224-.688,1.728a.866.866,0,0,0-.1.7c-.637.721-.1,1.761-.688,2.482a.859.859,0,0,0-.134.637c-.352.553-.235,1.308-.805,1.761l.034-.05c-.671.671.017,1.828-.872,2.415l.067-.067a3.016,3.016,0,0,1-.772.889h0c-.738.6,0,1.795-.906,2.365l.067-.067a2.242,2.242,0,0,1-.805.872v-.034c-.6,1.023-.386,2.482-1.644,3.187h.05c-.369.486-.252,1.224-.805,1.644l.05-.05c-.2.319-.5.57-.721.872v.034c-.537.369-.369,1.073-.738,1.526a.705.705,0,0,0-.168.6,2.811,2.811,0,0,1-.738,1.023h0c-.486.419-.335,1.107-.7,1.56a.65.65,0,0,0-.151.6,3.1,3.1,0,0,1-.7,1.023h0c-.788.621-.067,1.778-.872,2.365l.034-.05c-.218.268-.453.554-.654.839a.625.625,0,0,0-.185.6c-.319.57-.235,1.308-.738,1.811h0c-.47.419-.319,1.191-.855,1.577l.034-.05c-.4.47-.285,1.174-.7,1.644a.6.6,0,0,0-.117.553,2.7,2.7,0,0,1-.721,1.057h0c-.755.637-.084,1.744-.805,2.4h0c-.47.419-.335,1.157-.788,1.593h0c-.755.637-.1,1.711-.755,2.382a.769.769,0,0,0-.117.6c-.335.57-.218,1.325-.805,1.778l.034-.05c-.369.486-.285,1.141-.637,1.644a.908.908,0,0,0-.134.688l-.6.906a.874.874,0,0,0-.185.7,4.114,4.114,0,0,1-.772.939h0a1.024,1.024,0,0,1-1.577-.067l.05.05c-1.577-2.5-.872-5.434-1.61-8.1a.853.853,0,0,0-.067-.671c-.436-.872-.587-1.929-1.526-2.5l.067.05q-.805-.855-1.661-1.661l.067.067-1.661-1.661.067.067-1.66-1.661.067.067a11.8,11.8,0,0,1-1.711-2.365v.034a10.869,10.869,0,0,1-1.543-2.583.838.838,0,0,0-.1-.6,10.593,10.593,0,0,1-1.493-3.355.82.82,0,0,0-.117-.654c-.419-.453-.285-1.174-.721-1.61v.034c-.486-.419-.352-1.174-.805-1.627v.034c-.486-.436-.386-1.174-.755-1.661l.034.05c-.587-.386-.436-1.157-.839-1.627l.034.05c-.553-.4-.419-1.157-.839-1.644l.034.05c-.553-.335-.335-1.157-.922-1.459l-.05-.067c-.486-.5-1.04-.939-1.493-1.459L217,146.4a5.594,5.594,0,0,0-4.26,0l-1.476.084a27.44,27.44,0,0,1-12.731,0c-.486-.034-.973-.067-1.476-.117-.721-.637-1.862,0-2.516-.839l.05.034c-.5-.369-1.224-.268-1.661-.772h.017c-.436-.436-1.224-.285-1.593-.872l.05.067a2.81,2.81,0,0,1-.872-.788l.034.034a7.579,7.579,0,0,1-.839-.805h.017a5.221,5.221,0,0,1-.805-.805h.034a3.818,3.818,0,0,1-.822-.822l.034.034a15.668,15.668,0,0,1-1.61-2.432l.034.05c-.939-1.51-1.141-3.271-1.61-4.931l-.168-1.459c-.621-1.459-1.929-2.281-3.036-3.287l.05.067a2.061,2.061,0,0,1-.839-.855l.05.05a3.28,3.28,0,0,1-.889-.772h.017a4.528,4.528,0,0,1-1.627-1.56h0a3.925,3.925,0,0,1-1.526-1.694l.034.05a8.5,8.5,0,0,1-1.61-2.566.676.676,0,0,0-.2-.6,4.527,4.527,0,0,1-1.409-1.677l.034.05a15.367,15.367,0,0,0-1.644-1.66l.05.034c-3.069-2.331-5.233-.4-7.38,1.577h.05c-.352.5-.268,1.208-.7,1.677h0c-.5.419-.319,1.141-.755,1.577a.614.614,0,0,0-.117.6c-.554.788-.084,1.828-.688,2.6l-.184-.067Z" transform="translate(102.757 16.67)" fill="#81b4a7"/>
        <path id="Tracé_216" data-name="Tracé 216" d="M174.793,119.984c2.835,4.646,6.072,8.755,10.852,11.741,3.74,2.348,5.887,5.938,4.629,10.835-.587,2.3.855,4.629.369,7.011-.688.352,0,2.03-1.51,1.577-2.717-7.2-8.521-9.309-15.515-9.393-5.183-.067-10.366,0-15.548.034-8.252.05-14.777-3.371-20.077-9.611a64.6,64.6,0,0,1-11.758-21.016c-1.392-4.042-1.107-8.152-.839-12.227a9.666,9.666,0,0,0-3.069-8.135c-5.569-5.569-7.866-12.714-9.108-20.278-.252-1.577-.537-3.137-.788-4.713-.453-8.386-.5-16.79-1.124-25.159a2.639,2.639,0,0,1,1.141-2.751l.034-.034a7.794,7.794,0,0,1,.956-.7h1.325c.5.4,1.241.268,1.711.738a.741.741,0,0,0,.621.084c.537.335,1.224.268,1.744.654a.716.716,0,0,0,.6.134,3.113,3.113,0,0,1,1.006.671.65.65,0,0,0,.6.151c.57.319,1.258.252,1.795.654a.769.769,0,0,0,.6.117,3.213,3.213,0,0,1,1.006.7.708.708,0,0,0,.6.117c.57.319,1.292.252,1.811.721h0c.419.5,1.157.335,1.577.822h0c.923.855,2.3-.084,3.2.805h-.017c.436.436,1.141.3,1.593.688a.955.955,0,0,0,.738.1c.956.822,2.3-.05,3.254.738a.844.844,0,0,0,.637.1c.553.352,1.292.252,1.761.755H139.6c.923.839,2.264-.05,3.2.738a.692.692,0,0,0,.621.1c.554.352,1.308.235,1.795.755a.548.548,0,0,0,.553.05c.788.537,1.845.05,2.617.688a.906.906,0,0,0,.621.117c2.315-.067,4.361,1.023,6.558,1.476a.866.866,0,0,0,.7.05c1.795.973,3.875-.2,5.669.721l2.264.084c1.258.839,2.835-.117,4.109.7a.65.65,0,0,0,.6.1,3.28,3.28,0,0,1,.99.654.686.686,0,0,0,.587.168c.587.319,1.342.218,1.811.805h-.067c.252.084.352.218.319.386-.05.185-.1.268-.184.268a29.067,29.067,0,0,1-5.9,5.837c-3.791,2.969-7.095,6.39-8.588,11.171a14.07,14.07,0,0,0-.654,2.281c-1.208,10.751.923,20.513,8.168,28.95a31.227,31.227,0,0,1,6.961,13.217A35.162,35.162,0,0,1,159.043,104.6c-5.015-6.508-6.575-14.374-8.923-21.939-2.113-6.776-5.954-12.16-12.294-15.465-7.011-3.656-10.869-10.2-15.414-16.135,3.355,7.246,8.034,13.435,15.263,17.159,7.866,4.059,11.791,10.818,13.8,18.987,2.684,10.852,7.078,20.547,17.209,26.568,2.566,1.526,3.958,4.227,6.139,6.156Z" transform="translate(69.902 -9.529)" fill="#81b4a7"/>
        <path id="Tracé_217" data-name="Tracé 217" d="M92.611,21.213a.534.534,0,0,0,.637-.084,21.178,21.178,0,0,1,8.772.034c.117.2.268.218.453.084.654.235,1.409.2,1.912.772l-.05-.034c.688.671,1.811,0,2.449.839l-.067-.05c.285.218.57.419.855.637a.431.431,0,0,0,.553.218c.587.3,1.392.185,1.795.872l-.1-.084a1.645,1.645,0,0,1,.906.839l-.067-.05a8.177,8.177,0,0,1,3.3,3.1h0a8.931,8.931,0,0,0,.788.805h0a2.349,2.349,0,0,1,.688.973L115.355,30a1.151,1.151,0,0,1,.855.923l-.117-.117c1.09.486.3,1.728.956,2.4l-.05-.067c.889.637.218,1.795.855,2.516a.559.559,0,0,0,.084.654c1.006,3.137-.3,6.474.738,9.611v-.034a1.274,1.274,0,0,1,.134,1.644c-2.583.1-2.9-1.9-3.271-3.69-.688-3.371-.99-6.81-1.845-10.148.788,3.2,1.157,6.474,1.627,9.745a6.5,6.5,0,0,0,4.025,5.451c6.625,3.053,12.244,11.892,10.517,21.335-.57,3.153-2.784,5.065-4.864,7.078a10.73,10.73,0,0,0-3.69,8.051,8.382,8.382,0,0,0,3.724,7.464c3,2.063,4.562,5.065,5.569,8.437.185.621.688,1.292.084,1.811-.822.7-1.526,0-2.029-.554-1.962-2.147-3.287-4.847-5.434-6.608a33.027,33.027,0,0,1,6.441,9.711c1.526,3.74,2.952,7.531.252,11.422.335-.486,0,.185.218-.285,3.371-7.078.889-19-4.982-23.935a9.5,9.5,0,0,1-2.164-12.462,6.6,6.6,0,0,1,1.141-1.627c4.831-4.244,7.2-9.376,5.8-15.9a1.868,1.868,0,0,1,.855-2.08c2.885,6.089,2.1,12.026-.738,17.863-.855,1.778-2.13,3.3-2.8,5.216a8.391,8.391,0,0,0,1.761,8.823,16,16,0,0,0,1.661,1.711c5.032,4.327,6.223,9.913,5.3,16.2a46.527,46.527,0,0,1-2.013,8.068,18.418,18.418,0,0,1-8.252,10.282c-2.734.889-3.623-.688-4.009-2.969-.268-8.2-.855-16.37-3.455-24.253a53.946,53.946,0,0,0-13.871-21.905,23.216,23.216,0,0,1-2.1-1.962,4.269,4.269,0,0,1-.671-.889,2.406,2.406,0,0,1-.017-1.644A23.883,23.883,0,0,1,104,71.665c.855-.99,2.03-1.761,2.6-2.952.923-1.929,1.459-3.875-1.593-4.428a7.547,7.547,0,0,1-1.627-.168,5.782,5.782,0,0,1-3.036-1.627c-.939-1.073-1.51-1.51-1.711.369-4.26-2.851-4.881-7.514-5.887-11.976-.134-.5-.6.2-.134-.05.084-.05.117.067.2.335A3.983,3.983,0,0,1,93.03,53.5c-.134.5-.335,1.057-.973,1.107s-.839-.52-1.073-.973c-.939-1.845-.47-3.824-.671-5.736-.235,4.847,2.533,11.439,6.172,14.408a2.672,2.672,0,0,0,2.5.822c1.795.772,2.768,2.365,2.248,4.009-.52,1.627-2.466,1.107-3.875,1.057-2.382-.1-5.233.788-5.971-2.868-.117-.537-1.073-.671-1.661-.973a13.632,13.632,0,0,1-7.833-10.215c.252,2.818,2.415,4.965,1.191,7.665a1.456,1.456,0,0,1-1.04.352c-3.086-1.577-4.344-4.5-5.434-7.514-.352-.956-.3-.956-1.627-1.644-.805-.419-.839-1.275-.906-2.08-.268-3.556,0-6.927,1.9-8.588-1.275,1.174-2.13,3.757-1.979,6.843.084,1.543.453,3.187-.5,4.646-.3.57-2.1-1.459-1.459.889.185.654-.453,1.426-1.006,1.979-1.459,1.023-2.449.5-3.153-.973a46.28,46.28,0,0,1,.537-8.2l.134-1.342c.57-.772-.1-1.979.906-2.6l-.067.1c.268-.57.2-1.275.721-1.728v.05c.4-.47.235-1.275.906-1.593l-.084.1a2.375,2.375,0,0,1,.721-.956h0c.671-.7.889-1.761,1.811-2.281l-.1.1a9.053,9.053,0,0,1,3.237-2.482l-.084.067c.3-.671,1.124-.486,1.56-.956h-.017c.453-.47,1.174-.369,1.644-.772h-.017c.872-.889-.235-2.365.939-3.187l-.05.1c.285-.554.185-1.292.788-1.711l-.034.067A8.4,8.4,0,0,1,83,26.06l-.084.084a19.992,19.992,0,0,1,1.711-1.661l-.117.1c.319-.7,1.124-.554,1.627-.906l-.067.05c.352-.621,1.141-.47,1.593-.906h-.034c.688-.738,1.795-.134,2.516-.772a.568.568,0,0,0,.688-.134c.52-.369,1.208-.3,1.744-.654Z" transform="translate(40.477 -20.686)" fill="#924654"/>
        <path id="Tracé_218" data-name="Tracé 218" d="M42.5,150.525c-7.481.235-14.961.252-22.442-.034-1.292-5.049-.755-10.114,0-15.163,0-.788.017-1.577.034-2.365.47-.436.319-1.191.805-1.627h0c.252-.252.52-.52.772-.788.017-.268.034-.52.034-.788.6-.755,1.006-1.644,1.61-2.4h0c.268-.268.537-.537.805-.788h0l.805-.805h0c.419-.47,1.174-.319,1.593-.805.268-.252.537-.537.805-.788h0a13.135,13.135,0,0,0,3.992-3.992h0c.738-.637.084-1.744.805-2.382h0a78.82,78.82,0,0,0,0-17.561h0a1.058,1.058,0,0,1,0-1.577h0c.268-.268.537-.52.788-.805h0c.268-.268.57-.5.822-.788h3.958a8.289,8.289,0,0,0,5.619,0H47.26c.235.285.554.5.805.772.268.268.537.553.805.822a4.706,4.706,0,0,1,0,3.975c0,3.724-.017,7.43-.034,11.154a2.37,2.37,0,0,1-1.325,1.61c-3.237,1.124-3.724,3.858-3.774,6.726-.151,7.7-.017,15.4-.067,23.079,0,1.845.168,3.74-1.09,5.334Z" transform="translate(7.582 31.047)" fill="#cefaf7"/>
        <path id="Tracé_219" data-name="Tracé 219" d="M119.675,83.215c.134,1.962.5,3.707,3.086,3.522-1.694.755-2.533,1.644-1.979,3.858.956,3.858.553,7.9.621,11.858.034,2.013-1.224,3.489-2.231,4.982-2.147,3.17-4.478,6.223-6.726,9.326-2.667,5.216-6.894,9.158-10.785,13.368-4.763,3.17-8.672,7.414-13.4,10.651-4.914,3.371-4.378,3.522-10.969.285-.235-1.711,1.392-2.264,2.03-3.338-1.107.822-1.661,2.4-3.237,2.784-4.814-3.472-5-5.267-.839-9.175.889-.822,1.744-1.275.889-2.868-1.124-2.063.352-3.153,2.281-3.589a10.858,10.858,0,0,1,3.958-.168c4.982.7,8.822-.788,11.238-5.367,3.925-4.73,7.665-9.611,11.255-14.592,1.442-1.694,2.231-3.958,4.294-5.132a8.525,8.525,0,0,0,2.583-.772c.553,0,.1-.3.05-.268a1.415,1.415,0,0,1-2.248-.637c-.671-4.009-2.264-7.866-1.694-12.043a3.1,3.1,0,0,1,.7-1.141c3.673-.822,7.229-2.432,11.137-1.543Z" transform="translate(43.487 21.487)" fill="#e49765"/>
        <path id="Tracé_220" data-name="Tracé 220" d="M33.126,143.63c0-9.225-.034-18.45,0-27.675a20.721,20.721,0,0,1,.352-3.522c.788-4.478.805-4.478,5.233-5.015,2.9-.067,5.8-.453,8.672.235l1.577.05c.654.7,1.728.1,2.415.738,1.057.017,2.1.05,3.153.067.889.923,2.415-.252,3.2.99l.084,1.392c1.006,3.69-.319,7.548.738,11.238v9.493c.7,4.093,1.224,8.152-.855,12.043q-12.278,0-24.539-.034Z" transform="translate(16.953 37.941)" fill="#ffb3a5"/>
        <path id="Tracé_221" data-name="Tracé 221" d="M50.565,90.362a.6.6,0,0,0,.084-.6,34.025,34.025,0,0,1,1.56-4.193h0c.671-1.258.939-2.7,1.56-3.992a.618.618,0,0,0,.1-.587c.839-2.348.956-5.015,3-6.843,1.711-.654,2.751.6,3.74,1.526a32.147,32.147,0,0,0,10.03,6.055c1.375.855.872,2.03.537,3.187-1.862,3.573-2.835,7.581-5.267,10.869-1.459.788-1.711-.805-2.482-1.325-1.56-1.04-2.986-2.331-5.233-1.191,1.61-.7,2.835-.218,4.176.436,1.241.6,1.577,2.583,3.422,2.147,2.331.637,2.851,3.053,4.378,4.5.218.3.419.6.621.923.218.335.419.671.637,1.006q4.126,6.089,10.517,2.851c4.7-2.382,8.638-.956,11.355,4.143a1.513,1.513,0,0,1-.419,1.006c-2.5.034-4.143-2.415-6.726-2.164,2.768-.3,4.411,2.969,7.363,2.13,1.191,3.942-.939,6.827-5.116,6.374-3.019-.335-4.747.084-5.317,3.455a5.512,5.512,0,0,1-3.992,4.109,63.209,63.209,0,0,1-18.3-10.735,14.451,14.451,0,0,0-2.147-2.482l.067.067c-.554-.553-1.107-1.107-1.677-1.66l.067.067-1.661-1.661.067.067c-1.845-2.231-4.545-3.875-4.914-7.145h0c-1.761-3.422-.855-6.877-.034-10.332Z" transform="translate(28.112 15.396)" fill="#e49765"/>
        <path id="Tracé_222" data-name="Tracé 222" d="M68.5,96.285c-3.4-.419-6-2.449-8.672-4.361-1.577-1.141-2.768-2.8-4.68-3.506-1.04-.067-1.141-1.073-1.694-1.644h0c-1.828-1.862-.889-3.707.017-5.569h0c.453-.419.3-1.191.855-1.577v.034c.386-.47.252-1.224.788-1.644v.034c.486-.805.973-1.627,1.476-2.432a1.255,1.255,0,0,0,.151-.654,4.235,4.235,0,0,1,1.51-2.549h0c.486-.419.319-1.191.855-1.577l-.034.034c.218-.3.486-.57.738-.855a.957.957,0,0,0,.084-.6,2.274,2.274,0,0,1,.805-.973v.034a17.729,17.729,0,0,1,1.577-2.432l-.034.034A8.964,8.964,0,0,1,63,65.239a.853.853,0,0,0,.1-.57c.47-.654,1.141-1.124,1.56-1.811h-.034c.252-.268.52-.537.788-.805h0a6.664,6.664,0,0,0,.738-.805l.034-.05c.7-.654.973-1.644,1.711-2.3l-.05.05a23.2,23.2,0,0,1,2.365-1.677h0a9.322,9.322,0,0,1,.839-.788l-.034.034c.419-.52,1.174-.369,1.61-.822h-.017a2.5,2.5,0,0,1,1.006-.755.892.892,0,0,0,.587-.084c.688-.671,1.778-.067,2.466-.738a1.316,1.316,0,0,0,.721-.05c.7-.671,1.778-.067,2.482-.738.3,0,.6.034.923.05,1.795.285,1.795,1.627,1.761,2.986-2.7,11.439-3.355,23.2-5.569,34.72-1.04,5.451-1.711,10.969-4.193,16.018-.57,1.174-.654,3.019-2.717,2.868a12.268,12.268,0,0,1-1.325-9.108c1.811-3.707.554-7.766,1.258-11.674a121.969,121.969,0,0,1,3.321-13.737c-2.281,5.8-3.3,12.244-3.908,18.769a2.4,2.4,0,0,1-.889,2.1Z" transform="translate(30.021 1.423)" fill="#8dd4cf"/>
        <path id="Tracé_223" data-name="Tracé 223" d="M136.806,132.3c-2.08.855-4.193.134-6.273.134-9.275.034-18.551-.1-27.826.067-17.46.335-34.921-.2-52.381-.2-2.348-2.7-2.432-5.451-.218-8.269a3.733,3.733,0,0,1,1.493-.1c26.333.134,52.667,0,79,.067,2.08,0,4.277-.436,6.089,1.124.05,2.382.084,4.763.134,7.162Z" transform="translate(27.379 49.218)" fill="#e49765"/>
        <path id="Tracé_224" data-name="Tracé 224" d="M71.169,65.126a5.144,5.144,0,0,0-1.308-2.315c-.084-.285-.151-.587-.235-.889a4.571,4.571,0,0,1-.923-4.378c-.218-2.851-.067-5.7-.168-8.554a7.888,7.888,0,0,1,1.811-5.384c.369-1.359.755-2.717,1.157-4.143.436.621.872,1.224,1.292,1.828,1.811,2.382,3.556,4.831,6.021,6.625a4.2,4.2,0,0,1,.587.939,1.585,1.585,0,0,1-.1,1.073c-.755.956-1.879.721-2.885.855,2.1-.185,4.462.671,5.988-1.593-.05-2.969-2.013-5.686-1.157-9.812,2.063,6.776,5.418,11.255,11.858,12.462-.923,2.868-.839,3.187,1.392,2.6,2-.52,3.908,1.023,6.072-.352-1.124-.939-.621-2.684-2.063-3.506-.252-.084-.352-.2-.335-.369.034-.185.084-.268.151-.268.1-.6-.2-1.275.5-1.912,1.409.923,2.65,2.214,4.361,2.717,2.13,2.013.889,4.361.486,6.525a31.359,31.359,0,0,1-2.046,5.434c0,.52-.034,1.04-.034,1.56-.386,3.908-2.9,6-6.256,7.4-1.593.319-3.086.99-4.646,1.409a16.784,16.784,0,0,1-6.206,0c-2.566-.99-5.2-1.862-7.766-2.868a8.3,8.3,0,0,1-5.6-3.975,1.023,1.023,0,0,1,.017-1.09Z" transform="translate(40.936 -8.025)" fill="#e49765"/>
        <path id="Tracé_225" data-name="Tracé 225" d="M59.331,97.047c5.468,4.311,11.875,7.145,17.561,11.12a2.749,2.749,0,0,1-1.828,1.929c-6.122,2.784-7.934,8-8.152,14.19A53.629,53.629,0,0,0,67.7,134.9c.235,1.392.788,2.835-.017,4.26-4.512,2.533-9.259,1.241-13.955.923a2.109,2.109,0,0,1-1.409-1.56c-.017-1.325-.05-2.65-.067-3.975a101.143,101.143,0,0,1,0-19.121l.05-3.137c.587-1.862.956-3.791,1.56-5.652a2.7,2.7,0,0,0,.034-.738c.537-1.073.7-2.331,1.56-3.254a2.487,2.487,0,0,0,.034-.7,4.986,4.986,0,0,1,.788-.889h0a8.039,8.039,0,0,0,.721-.788,2.9,2.9,0,0,0,.084-.755c.872-.721.621-2.449,2.248-2.482Z" transform="translate(29.611 31.02)" fill="#acf3ee"/>
        <path id="Tracé_226" data-name="Tracé 226" d="M138.983,135.184c-3.422.05-6.843.2-10.265.117-7.766-.185-15.515.352-23.264.5-1.275.034-2.633.453-3.824-.4,3.1-.587,6.256-.05,10.013-.4-3.556-2.633-6.34-5.3-7.078-9.376-.335-.5-.218-1.174-.637-1.644h0a.917.917,0,0,1,.017-1.51h0c3.774-1.879,7.934-1.661,11.925-1.879,6.474-.335,12.965-.084,19.456-.1a11.709,11.709,0,0,0,4.311-.5c2.717-.151,5.535-1.073,8.017.939-.52,6.206-2.969,11.221-8.688,14.24Z" transform="translate(63.36 46.337)" fill="#8eb5dc"/>
        <path id="Tracé_227" data-name="Tracé 227" d="M90.407,116.012c3.573-4.428,7.2-8.789,11.154-12.882,2.549,4.227,3.623,8.839,4.21,13.72a124.6,124.6,0,0,1,.6,17.679c-5.87,1.107-11.724,2.986-17.7.453a2.223,2.223,0,0,1-.268-1.51C90,127.752,90.156,121.882,90.407,116.012Z" transform="translate(54.371 35.151)" fill="#acf3ee"/>
        <path id="Tracé_228" data-name="Tracé 228" d="M115.264,122.021c1.258,1.09,2.8.688,4.16.52,4.445-.554,8.906-.252,13.368-.453,1.929.587,4.16.906,3.3,3.858a4.345,4.345,0,0,1-2.717.386H52.433a4.892,4.892,0,0,1-2.348-.285l-.3-.184c-.889-1.476-.335-2.415,1.124-3.019a.7.7,0,0,0,.6-.084,3.5,3.5,0,0,1,3.086-.1c4.982.067,9.98.6,14.928-.553A6.5,6.5,0,0,1,73,121.518c13.066,0,26.132.034,39.181-.017a5.536,5.536,0,0,1,3.069.52Z" transform="translate(27.955 47.592)"/>
        <path id="Tracé_229" data-name="Tracé 229" d="M113.114,56.754a11.14,11.14,0,0,0,.151,3.942,12.464,12.464,0,0,1-2.986,11.355c-.855,1.006-1.845,1.912-2.784,2.851-2.768,2.717-2.768,6.156-2.382,9.628.2,1.862,1.912,2.818,3.12,3.992,2.516,2.432,4.864,5,5.2,8.638.369,4.076,1.426,8.068,1.174,12.194a6.861,6.861,0,0,1-4.26,6.239c-.084-.235-.285-.587-.2-.688,3.388-4.277,2.986-8.739.772-13.351a37.742,37.742,0,0,0-5.2-7.95c-1.04-1.258-2.4-2.415-2.65-4.73,2.4,1.224,3.74,3.036,5.2,4.613,1.493,1.627,2.684,3.539,4.21,5.183-1.04-3.724-2.164-7.246-5.921-9.46-4.629-2.734-5.485-10.567-1.862-14.71a14.987,14.987,0,0,1,2.248-2.248c3.589-2.751,4.864-6.29,4.5-10.8A18.382,18.382,0,0,0,102.111,46.3c-3.388-1.962-5.434-4.244-5.72-7.816-.335-4.042-.738-8.017-2.331-11.858a5.969,5.969,0,0,1,2.969,4.126,70.285,70.285,0,0,1,1.627,8.537c.117,1.744.553,3.438,2.583,4.059q.327-.352.6.05l.034.034c.352.554,1.174.352,1.493.923l-.067-.05a5.346,5.346,0,0,1,.906.721h.017c.352.537,1.224.319,1.476,1.023l-.1-.1a1.226,1.226,0,0,1,.906.872l-.084-.084a1.591,1.591,0,0,1,.923.822l-.067-.05a2.87,2.87,0,0,1,.889.788h-.017c1.811,1.224,3.891,2.248,3.958,4.881.4,1.174,1.141,2.264.99,3.589Z" transform="translate(58.233 -16.661)" fill="#72394c"/>
        <path id="Tracé_230" data-name="Tracé 230" d="M189.687,83.959c-1.761,8.822-8,13.972-15.129,18.366h0c-3.069,0-5.87.671-7.9,3.237a11.152,11.152,0,0,0-2.751,4.126c-.386.872-.486,2.784-2.466,2.013a5.647,5.647,0,0,1,1.476-6.525,29.684,29.684,0,0,0,3.355-4.411c1.778-2.667,3.891-5.2,6.978-6.273,7.045-2.449,10.567-7.967,13.3-14.358.839-1.946,1.174-4.428,3.858-5.015l.285.235a1.894,1.894,0,0,1-.185,2.231,2.268,2.268,0,0,0-.05.671c-.4.5-.252,1.241-.738,1.711a2.207,2.207,0,0,0-.034.738,3.287,3.287,0,0,0,0,3.22Z" transform="translate(103.547 16.181)" fill="#b2d7ce"/>
        <path id="Tracé_231" data-name="Tracé 231" d="M103.137,115.962c1.107-.906,2.432-.872,3.774-.872q18.064.025,36.145,0c3.2,0,3.2.05,3.791,3.069-1.308,1.51-3.1,1.258-4.8,1.258-6.592.034-13.2.034-19.792,0a53.628,53.628,0,0,0-9.829.688,15.766,15.766,0,0,1-7.414-.772c-1.728-.52-2.935-1.342-1.862-3.4Z" transform="translate(64.117 43.252)" fill="#94b9de"/>
        <path id="Tracé_232" data-name="Tracé 232" d="M147.139,118.313l-.034,2.4c-5.736,1.543-11.59,1.661-17.477,1.61-8.554-.57-17.041.939-25.6.621a2.158,2.158,0,0,1-1.493-1.493v-2.214a3.223,3.223,0,0,1,.7-.872h0c.218-.151.436-.419.654-.419,13.8.453,27.591-1.006,41.4-.319a3.234,3.234,0,0,1,1.811.7Z" transform="translate(63.976 44.842)" fill="#93b9de"/>
        <path id="Tracé_233" data-name="Tracé 233" d="M147.185,119.558c-8.99.034-17.98.1-26.987.034-2.03,0-3.875.721-5.87.772a41.906,41.906,0,0,1-11.02-.788c-.57-1.325-1.56-2.667.017-3.975.017,1.057-.151,2.164,1.392,2.382,3.388.47,6.726,1.308,10.2.319a15.35,15.35,0,0,1,3.942-.252q14.089-.126,28.178-.218c.05.57.1,1.157.151,1.728Z" transform="translate(63.93 43.597)" fill="#d4e6f9"/>
        <path id="Tracé_234" data-name="Tracé 234" d="M49.79,124.257q28.279-.05,56.541-.117H135.8v.822q-40.733,0-81.482-.034c-1.51,0-3.187.621-4.529-.688Z" transform="translate(28.25 49.381)" fill="#b57a54"/>
        <path id="Tracé_235" data-name="Tracé 235" d="M103.305,120.689c8.789.419,17.528-1.342,26.317-.738,3.153,1.073,6.508-.4,9.644.805-1.124,1.023-2.5.671-3.791.7-3.438.067-6.894.235-10.332.05-7.3-.4-14.508.839-21.788.855l-.855-1.66a.494.494,0,0,1,.805,0Z" transform="translate(63.949 46.458)" fill="#d7e8f9"/>
        <path id="Tracé_236" data-name="Tracé 236" d="M70.989,41.9c-.855,3.371-.637,6.827-.7,10.248-.034,1.392.554,2.935-.7,4.143-.386.3-.637.2-.788-.235a.617.617,0,0,0-.168-.6,6.708,6.708,0,0,1-.671-1.107A33.075,33.075,0,0,1,68.2,42.923a1.27,1.27,0,0,1,.688-.99,1.585,1.585,0,0,0,2.1-.017Z" transform="translate(40.294 -6.319)" fill="#a16440"/>
        <path id="Tracé_237" data-name="Tracé 237" d="M128.314,121.044l-7.112-.05c-.923,0-1.862.1-2.533-.738,5.854.268,11.657-.872,17.511-.855-.017.57-.034,1.141-.05,1.728l-7.8-.05Z" transform="translate(74.901 46.171)" fill="#ddeefe"/>
        <path id="Tracé_238" data-name="Tracé 238" d="M157.68,105.757c.5-.52,1.006-1.057,1.51-1.577,0,2.382.017,4.78.034,7.162a1.205,1.205,0,0,1-.05,1.728A16.67,16.67,0,0,1,157.68,105.757Z" transform="translate(101.321 35.862)" fill="#90beb2"/>
        <path id="Tracé_239" data-name="Tracé 239" d="M158.617,110.178c.017-.57.034-1.157.05-1.728.956.57.755,1.51.805,2.382H158.5A4.462,4.462,0,0,1,158.617,110.178Z" transform="translate(101.877 38.754)" fill="#8dbcb0"/>
        <path id="Tracé_240" data-name="Tracé 240" d="M103.27,121.33c0,.5,0,1.006-.017,1.51C102.4,122.32,102.364,121.816,103.27,121.33Z" transform="translate(64.018 47.478)" fill="#d7e8f9"/>
        <path id="Tracé_241" data-name="Tracé 241" d="M103,122.23a1.458,1.458,0,0,1,.637,1.644A1.64,1.64,0,0,1,103,122.23Z" transform="translate(64.275 48.087)" fill="#d7e8f9"/>
        <path id="Tracé_242" data-name="Tracé 242" d="M103.305,120.7H102.5c.017-.3.05-.587.067-.889.252.285.486.587.721.872Z" transform="translate(63.949 46.448)" fill="#d4e6f9"/>
        <path id="Tracé_243" data-name="Tracé 243" d="M103.268,117.98c-.252.285-.486.587-.738.872A.963.963,0,0,1,103.268,117.98Z" transform="translate(63.969 45.209)" fill="#d4e6f9"/>
        <path id="Tracé_244" data-name="Tracé 244" d="M178.09,80.708c0-.268.017-.52.017-.788.285.067.587.117.872.185A.989.989,0,0,1,178.09,80.708Z" transform="translate(115.145 19.432)" fill="#b2d7ce"/>
        <path id="Tracé_245" data-name="Tracé 245" d="M103.989,186.115c-.151,3.338-1.677,6.374-2.231,9.628a19.815,19.815,0,0,0-.4,3.137c-.772,3.086-.99,6.038.537,9.108a60.928,60.928,0,0,1,2.818,8.168c-.3.252-.637.554-1.04.436A31.868,31.868,0,0,0,87.736,216a1.908,1.908,0,0,1-1.476-.4c.05-2.18,1.224-4.042,2.03-5.921a20.756,20.756,0,0,0,1.291-10.013,74.928,74.928,0,0,0-.5-13.569,19.389,19.389,0,0,1,14.911.017Z" transform="translate(52.95 90.34)" fill="#e49765"/>
        <path id="Tracé_246" data-name="Tracé 246" d="M59.114,201.387c.168-3.757-1.241-7.212-1.962-10.8-.235-1.157-.889-2.214-.788-3.455a16.992,16.992,0,0,1,14.223,0c-.017,4.5-.034,9.007-.067,13.5-.721,4.411,1.208,8.269,2.633,12.211a6.191,6.191,0,0,1,.654,2.264,3.911,3.911,0,0,1-3.036-.335,17.667,17.667,0,0,0-12.345-.017,3.767,3.767,0,0,1-3.036.285c.99-2.8,1.811-5.686,3.036-8.37a7.751,7.751,0,0,0,.671-5.25Z" transform="translate(32.042 90.986)" fill="#e49766"/>
        <path id="Tracé_247" data-name="Tracé 247" d="M55.818,204.135c6.156-3.2,12.294-3.522,18.417.067a9.733,9.733,0,0,1,1.107,1.644c1.51,3.64.688,5.384-3.069,6.424-4.68,1.292-9.443.872-14.173.436-2.684-.252-3.573-1.627-3.254-4.361.168-1.426.05-2.935.973-4.193Z" transform="translate(31.631 101.857)" fill="#5b5765"/>
        <path id="Tracé_248" data-name="Tracé 248" d="M86.98,203.7a24.531,24.531,0,0,1,18.467.57,5.9,5.9,0,0,1,.671,1.392c1.006,5.3-.1,6.692-5.5,6.894a48.65,48.65,0,0,1-9.879-.218c-5.9-.956-6.977-3.438-3.757-8.638Z" transform="translate(52.23 102.228)" fill="#5b5765"/>
        <path id="Tracé_249" data-name="Tracé 249" d="M139.967,161.9c4.126-.688,7.967.7,11.892,1.006,1.308.1,2.617.352,3.942.352,15.683,0,31.348-.05,47.031.034,2.516,0,4.914-1.191,7.447-.57.352,1.308-.671,1.292-1.342,1.476a13.292,13.292,0,0,1-3.1.654c-13.653.436-27.306,1.677-40.959.788-7.9-.5-15.884-.57-23.666-2.4-.5-.117-1.04-.235-1.258-1.359Z" transform="translate(89.313 74.825)" fill="#ffeed6"/>
        <path id="Tracé_250" data-name="Tracé 250" d="M152.357,167.477c7.665.6,14.676,1.711,21.771,1.577,7.145-.134,14.307-.034,21.452-.034,0,1.409-.889,1.493-1.644,1.493-13.62,0-27.306,1.107-40.791-1.845-.084-.017-.134-.185-.805-1.208Z" transform="translate(97.705 78.721)" fill="#ffedd3"/>
        <path id="Tracé_251" data-name="Tracé 251" d="M199.715,166.16a11.787,11.787,0,0,1-7.179,2.113c-4.881-.084-9.745.352-14.643.134-6.089-.268-12.211-.05-18.316-.1-1.292,0-2.65.335-3.908-.335.184-1.359,1.241-1.258,2.13-1.224,6.474.218,12.965-.47,19.456.553a20.413,20.413,0,0,0,8.3-.252,11.641,11.641,0,0,1,3.153-.3,88.781,88.781,0,0,0,10.986-.587Z" transform="translate(99.96 77.84)" fill="#ffe9c8"/>
        <path id="Tracé_252" data-name="Tracé 252" d="M151.63,112.32h26.836a20.872,20.872,0,0,1-11.473,1.174,23.6,23.6,0,0,0-7.447.034c-2.516.386-5.183.7-7.9-1.208Z" transform="translate(97.224 41.375)" fill="#fff0da"/>
        <path id="Tracé_253" data-name="Tracé 253" d="M151.95,114.22h21.587C166.341,116.283,159.146,115.914,151.95,114.22Z" transform="translate(97.441 42.662)" fill="#ffeed5"/>
        <path id="Tracé_254" data-name="Tracé 254" d="M128.481,135.282c-.134,1.258-.923,2.4-.755,3.707.268,1.979-.923,3.036-2.4,3.942-7.632,1.409-15.3,2.516-23.1,1.795-3.422,0-6.843,0-10.248-.05-2.231-.017-4.445.151-6.642-.587a4.657,4.657,0,0,0-3.807.52c-5.619-.923-11.288-1.627-16.873-2.717-2.147-.419-4.445-.923-6.105-2.684-2.013-.923-3.925-1.979-5.065-4.009.923-.05,1.845-.168,2.768-.168q34.72,0,69.456.05c.923,0,1.845.117,2.768.168Z" transform="translate(30.756 56.757)" fill="#acf3ee"/>
        <path id="Tracé_255" data-name="Tracé 255" d="M170.987,115.452c-.47.537-.923.419-1.292-.067a34.752,34.752,0,0,0-8.957-7.749,21.532,21.532,0,0,1-6.827-7.581c-2.415-4.26-4.831-8.437-6.189-13.2-.721-2.516-1.442-5.049-2.2-7.565-2.046-6.927-6.441-11.489-12.663-14.945A34.117,34.117,0,0,1,117.33,45.963c-.252-.671-.906-1.56.2-2.013.973-.386,1.459.436,1.778,1.157,1.761,4.093,4.965,7.145,7.548,10.651a21.054,21.054,0,0,0,7.732,6.105c6.256,3.187,10.114,8.42,12.311,14.928,1.426,4.227,2.4,8.621,3.891,12.831,2.331,6.592,5.652,12.6,12.009,16.236,2.231,1.275,3.438,3.69,5.736,4.864h0c.436.436.268,1.191.805,1.593.47,1.09,1.644,1.795,1.66,3.12Z" transform="translate(73.708 -4.997)" fill="#6999a7"/>
        <path id="Tracé_256" data-name="Tracé 256" d="M159.214,118.162c-1.174-5.3-2.348-10.584-2.466-16.052-.185-7.967-.3-15.968,1.694-23.734a49.072,49.072,0,0,1,6.24-14.961,22.226,22.226,0,0,0,4.025-14.223c-.369-5.451-.05-10.869,2.348-15.951A20.835,20.835,0,0,1,173.6,29.3c1.107,1.006.637,1.845.218,2.633a22.464,22.464,0,0,0-2.784,11.808c.134,2.516-.1,5.065.084,7.581A16.71,16.71,0,0,1,167.8,62.51c-3.019,4.26-4.982,8.99-6.86,13.821-1.141,2.9-1.224,5.988-1.677,8.957a71.827,71.827,0,0,0,.453,25.679,29.917,29.917,0,0,1,.252,4.763c.252.973,1.04,2.113-.755,2.432Z" transform="translate(100.626 -14.852)" fill="#6b9ba9"/>
        <path id="Tracé_257" data-name="Tracé 257" d="M158.194,87.642c.889-.621.654-1.577.755-2.432a110.258,110.258,0,0,1,4.747,15.045,20.359,20.359,0,0,0,1.124,3.69c1.526-.52,1.862-1.912,2.566-2.986,1.761-2.684,3.74-5.3,6.776-6.508,6.776-2.684,10.584-8.034,13.435-14.324a20.655,20.655,0,0,1,3.422-5.3c.973-1.073,1.208-.067,1.258.805-1.66,1.275-2.214,3.2-3.019,5.015-.956,2.164-1.912,4.344-3,6.441a15.45,15.45,0,0,1-8.588,7.715,19.566,19.566,0,0,0-9.846,8.168,17.113,17.113,0,0,1-2.063,2.9,7.714,7.714,0,0,0-2.18,6.474,5.309,5.309,0,0,1-.319,3.338c-.436,1.241-.3,2.65-1.141,3.774.3,2.516-1.09,4.864-.805,7.38-1.442.134-.805-.973-.855-1.56a53.434,53.434,0,0,1,1.912-17.93c.855-3.3-.034-6.273-.788-9.275-.906-3.539-2.264-6.977-3.422-10.449Z" transform="translate(101.646 15.668)" fill="#71a0ac"/>
        <path id="Tracé_258" data-name="Tracé 258" d="M148.476,85.33a1.568,1.568,0,0,1-.805-1.61A1.635,1.635,0,0,1,148.476,85.33Z" transform="translate(94.541 22.005)" fill="#81b4a7"/>
        <path id="Tracé_259" data-name="Tracé 259" d="M171.3,92.017a10.5,10.5,0,0,0,3.137-.369q15.523-4.579,26.937,6.91c1.308,1.325,2.633,2.633,3.942,3.958a7.671,7.671,0,0,0,3.724,2.18,61.745,61.745,0,0,1,16.119,6.575c8.755,5.049,13.5,12.831,16.152,22.207a10.5,10.5,0,0,1,.151,3.17c-.05,1.157.335,2.4-.47,3.472-1.543-.067-1.057-1.275-1.09-2.063-.369-9.091-4.5-16.253-11.473-21.788a44.305,44.305,0,0,0-17.829-8.42A16.022,16.022,0,0,1,201.04,102a20.6,20.6,0,0,0-9.359-7.112,29.676,29.676,0,0,0-18.6-.654,58.784,58.784,0,0,1-7.33,1.644c1.375-2.046,4.042-2.1,5.535-3.875h0Z" transform="translate(106.787 26.489)" fill="#6999a7"/>
        <path id="Tracé_260" data-name="Tracé 260" d="M160.99,102.935c.017-1.124-.1-2.281.7-3.237,1.845-1.577,1.828-4.21,3.438-5.938.453-.47.805-1.09,1.51-.352-1.56,3.2-2.8,6.558-4.763,9.561-.3.419-.6.419-.872-.034Z" transform="translate(103.563 28.336)" fill="#e5eeec"/>
        <path id="Tracé_261" data-name="Tracé 261" d="M207.963,132.515a9.638,9.638,0,0,1-2.633-5.485C207.913,128.2,208.433,129.8,207.963,132.515Z" transform="translate(133.594 51.338)" fill="#6c9da7"/>
        <path id="Tracé_262" data-name="Tracé 262" d="M205.061,129.363c-.5-.05-.671,0-.755-.084-.839-.621-1.661-1.291-1.325-2.5a.686.686,0,0,1,.889-.5c1.359.537,1.342,1.66,1.208,3.086Z" transform="translate(131.951 50.8)" fill="#6c9da7"/>
        <path id="Tracé_263" data-name="Tracé 263" d="M161.295,98.95c.285,0,.587.017.872.034-.05,1.493.151,3.086-1.627,3.841.117-1.308,0-2.684.755-3.858Z" transform="translate(103.258 32.32)" fill="#e7f0ed"/>
        <path id="Tracé_264" data-name="Tracé 264" d="M131.5,49.51a2.77,2.77,0,0,1,2.818,2.147c.2.805-.671,1.006-1.342.956a2.632,2.632,0,0,1-2.684-2.315c-.1-.637.621-.7,1.208-.788Z" transform="translate(82.767 -1.164)" fill="#6d9ea7"/>
        <path id="Tracé_265" data-name="Tracé 265" d="M130.508,53.056c-.084.117-.235.587-.486.654-.671.168-.805-.369-.822-.906a.635.635,0,0,1,.671-.7c.4.017.654.3.621.956Z" transform="translate(82.032 0.589)" fill="#6d9ea7"/>
        <path id="Tracé_266" data-name="Tracé 266" d="M110.012,101.986c-3.623,1.006-7.2,2.248-11.053,1.778-3.841-.3-4.478-.939-3.774-4.579,1.224-6.256,1.359-12.6,1.811-18.819-.017-.621-.923-.084-.4-.168.067,0,.117.034.117.168a85.249,85.249,0,0,1-1.56,18.467c-.57,2.818-.352,4.965,2.952,5.6-3.74,4.143-2.986,9.728-4.629,14.559-3.942-1.275-4.16-5-5.1-8.118-1.04-3.422-.654-7.112-1.493-10.584-.235-6.055-.755-12.11.369-18.131.352-1.879-.721-3.623-.352-5.485a25.009,25.009,0,0,0,.7-5.686,7.615,7.615,0,0,1,.218-1.208,10.087,10.087,0,0,0,.537-2.918,12.933,12.933,0,0,1,.352-2.4c1.442-2.935.235-6.759,3.069-9.225,5.669,3.891,8.672,9.862,11.875,15.582,3.472,6.206,5.032,13.016,5.585,20.094.285,3.69,1.224,7.313.755,11.053Z" transform="translate(53.15 2.716)" fill="#8dd4cf"/>
        <path id="Tracé_267" data-name="Tracé 267" d="M95.6,60.711c3.321-.973,4.478-4.009,6.223-6.491a2.423,2.423,0,0,1,.688.352c.889,2.566-.134,4.982-.587,7.447-.168.554-.2,1.141-.319,1.694a6.427,6.427,0,0,0-.654,2.734,10.314,10.314,0,0,1-.2,2.382,5.489,5.489,0,0,0-.587,2.516c-.4,7.632-.369,8.118-7.7,8.386-7.112.268-14.257-.52-21.4-.621-2.147-.034-3.019-1.543-2.784-3.556.788-6.659,1.375-13.334,3.3-19.792,1.795,1.04,2.868,3.2,5.233,3.371a3.818,3.818,0,0,1,1.577,1.56,57.673,57.673,0,0,0,3.556,7.917c2.2,3.908,4.193,4.109,7.279.721a23.447,23.447,0,0,0,3.992-6.323A7.358,7.358,0,0,1,95.6,60.678Z" transform="translate(40.744 2.026)" fill="#8dd4cf"/>
        <path id="Tracé_268" data-name="Tracé 268" d="M77.07,28.373c.168-.99,1.073-1.157,1.761-1.342,9.259-2.466,19.758,2.935,23.5,11.909,2.65,6.34,2.768,12.747.906,19.507-1.442-.688-1.208-1.862-.939-2.734,1.778-5.971-.419-11.473-1.946-17.041a5.939,5.939,0,0,0-1.409-1.9c-5.317-6.407-12.06-9.326-20.412-8.3-.486.05-.99.386-1.459-.1Z" transform="translate(46.726 -16.793)" fill="#70384c"/>
        <path id="Tracé_269" data-name="Tracé 269" d="M96.736,64.307c-.889-.134-1.342.923-2,.453-.872-.621.017-1.006.319-1.526,3.187-5.552,2.466-11.053-.335-16.5-.285-.537-.956-.99-.369-1.694.671-.168.923.268,1.241.7,1.661,2.315,2.835,4.914,4.445,7.3,2.7,4.025.906,11.1-2.851,14.475-.6.537-1.191,1.308-1.962.6-.872-.788.117-1.375.553-1.946.386-.5.99-.872,1.006-1.862Z" transform="translate(58.274 -4.22)" fill="#75394d"/>
        <path id="Tracé_270" data-name="Tracé 270" d="M76.712,53.561c-2.734-1.694-5.334-3.489-5.652-7.112,0-1.593.1-3.187.034-4.78-.184-4.562,1.56-7.95,5.787-9.929.654.453.285.973-.067,1.258-3.908,3.019-4.847,7.011-3.858,11.657.05,0,.285.034.3,0,.185-.486.319-.973.671-2.063,1.426,4.562,2.952,8.537,5.938,11.707a1.525,1.525,0,0,1-2.3,0h-.034c-.285-.252-.553-.5-.822-.755Z" transform="translate(42.655 -13.2)" fill="#783b4e"/>
        <path id="Tracé_271" data-name="Tracé 271" d="M89.964,52.619a2.78,2.78,0,0,1,.184.637c-.973,1.342-1.929.939-3.019.1a14.687,14.687,0,0,1-4.344-6.089c-1.543-3.556-2.7-7.33-1.191-11.808,1.04,3.053-.537,6.122,1.526,8.588,1.409-2.08-.956-3.925.067-6.172,2.1,2.248,1.593,5.2,2.734,7.531,1.208,2.482,2.231,5.049,4.025,7.2Z" transform="translate(49.313 -10.68)" fill="#773a4d"/>
        <path id="Tracé_272" data-name="Tracé 272" d="M90.726,46.4c.554-.285,1.057-.839,1.744-.218a4.459,4.459,0,0,1,.486,6.038A8.291,8.291,0,0,1,89.8,55.107c-.973-3.036,0-5.87.923-8.705Z" transform="translate(55.076 -3.608)" fill="#de9263"/>
        <path id="Tracé_273" data-name="Tracé 273" d="M77.338,45.2h2.3c.268.017.553.034.822.067.151.621-1.761.788-.386,1.711.6.419,1.56.486,1.627,1.51-1.526.05-9.141-1.375-10.3-1.979,1.845-1.375,4.277.3,5.921-1.292Z" transform="translate(42.886 -4.084)" fill="#a86942"/>
        <path id="Tracé_274" data-name="Tracé 274" d="M91.494,46.227c.268,2.969-.839,5.787-.923,8.705-.654,1.141-.939,2.549-2.281,3.187-.285-3.506,1.811-6.575,1.795-10.047a6.053,6.053,0,0,0-.252-1.912c.553.017,1.107.05,1.66.067Z" transform="translate(54.307 -3.433)"/>
        <path id="Tracé_275" data-name="Tracé 275" d="M87.76,62.112C88.28,59.546,88.783,57,89.3,54.43c.839.1,1.04.99,1.677,1.359-1.174,3.086-.621,6.625-2.415,9.56-1.174-.855.151-2.331-.805-3.254Z" transform="translate(53.966 2.168)"/>
        <path id="Tracé_276" data-name="Tracé 276" d="M84.7,112.751a21.7,21.7,0,0,0-2.113-2.331c-2.382-2-4.931-2.868-7.967-1.258a30.468,30.468,0,0,0-4.7,2.9c-1.677,1.342-2.835.956-3.858-.721-1.375-2.231-3.271-4.126-4.344-6.558.889-1.577,1.778-3.153,2.8-4.663,5.132-8.269,5.938-17.729,7.229-26.987.419-2.986,1.275-4.059,4.344-4.16,8.47-.252,16.89.923,25.344.872,1.862,0,3.321.654,2.986,2.734-1.224,7.783-.772,15.532.168,23.3.5,5.619,1.795,10.936,5.8,15.213a20.1,20.1,0,0,0,2.281,2.348.985.985,0,0,1,.034,1.006c-.185,1.56-1.426,2.482-2.264,3.623-2.348,3.17-4.8,6.256-7.162,9.426a2.827,2.827,0,0,1-1.811,1.359c-3.824-.134-6.239-1.929-7.179-5.367a30.618,30.618,0,0,1-.5-3.925c-.637-4.68-1.04-5.065-5.837-5.6a4.55,4.55,0,0,1-3.22-1.224Z" transform="translate(36.33 11.994)" fill="#acf3ee"/>
        <path id="Tracé_277" data-name="Tracé 277" d="M85.874,95.06c1.308.017,2.633.034,3.942.067q4.914.117,5.921,4.747a8.053,8.053,0,0,1,.319,2.331c-.5,4.562,1.744,7.212,5.854,8.621a5.521,5.521,0,0,1,.7.352c-.57,2.264-2.365,3.74-3.69,5.5-.805,1.057-2.13.889-3.321.889-2.65,0-5.283,0-7.934-.017-1.224,0-2.466,0-2.885,1.476-.537,1.811,1.593,1.325,2.08,2.315-.772,1.677-2.449,2.315-3.757,3.371a5.458,5.458,0,0,0-1.711,2.617c-.47,1.426,1.057,1.208,1.577,1.811.755.889.117,2.9,2.2,2.717a.652.652,0,0,1,.419.486c1.442,1.51,4.042.034,5.4,2.2.335.537,1.946-.47,2.751-1.073,3.1-2.4,6.508-4.394,9.292-7.2a20.231,20.231,0,0,1,6.592-4.78c1.493,2.868.923,5.971.721,8.923a26.6,26.6,0,0,1-2.281,9.51,7.559,7.559,0,0,1-3.841.755q-19.222-.025-38.46,0a5.45,5.45,0,0,1-3.438-.654,32.606,32.606,0,0,1-1.006-21.3c1.09-3.656,3.438-6.827,7.5-8.1a24.127,24.127,0,0,0,2.533-1.107c2.4-1.342,4.16-3,4.193-6.122.017-2.13,1.006-2.734,3.1-2.516,1.04.1,2.03.57,3.069.671,3.187.3,5.116-2.348,4.076-5.5h0l.084-.973Z" transform="translate(35.155 29.686)" fill="#fbc14a"/>
        <path id="Tracé_278" data-name="Tracé 278" d="M95.8,95.952c-.2,0-.419-.034-.621-.034L94,95.767c-2.835-.335-3.1-.553-2.868-3.388.184-2.348.6-4.7.889-7.045.671-5.451,1.694-10.886.889-16.421-.034-.184.268-.4.419-.6.235.084.637.151.654.268a48.181,48.181,0,0,1-.017,13.8,63.065,63.065,0,0,1-1.023,7.011c-.889,3.422-.319,4.076,2.969,5.518-.034.352-.067.688-.1,1.04Z" transform="translate(56.208 11.568)" fill="#65aba6"/>
        <path id="Tracé_279" data-name="Tracé 279" d="M75.419,119.295a1.074,1.074,0,0,1-.419-.486c1.073-2.013,2.248-3.925,4.747-4.478A14.332,14.332,0,0,1,75.419,119.295Z" transform="translate(45.324 42.737)" fill="#995d37"/>
        <path id="Tracé_280" data-name="Tracé 280" d="M94.41,94.486c.285-.537.554-1.09.839-1.627a13.89,13.89,0,0,1,5.233-1.409C98.3,93.614,96.607,94.536,94.41,94.486Z" transform="translate(58.47 27.241)" fill="#9f633c"/>
        <path id="Tracé_281" data-name="Tracé 281" d="M81.106,109.979c-1.879,1.224-2.935,1.308-4.176.486C77.97,108.956,79.11,109.392,81.106,109.979Z" transform="translate(46.631 39.422)" fill="#a6673f"/>
        <path id="Tracé_282" data-name="Tracé 282" d="M33.9,111.236c3.958-1.191,19.155-1.124,21.956-.117C53.474,112.176,38.7,112.377,33.9,111.236Z" transform="translate(17.488 40.044)" fill="#f69887"/>
        <path id="Tracé_283" data-name="Tracé 283" d="M62.966,92.8c-.3-.553-.621-1.124-.923-1.677-.067-.788.889-1.593-.034-2.365.252-9.611,3.12-21.469,5.971-24.3.319,3.187-1.359,5.87-1.962,8.772C64.727,79.395,63.05,85.5,64.006,91.907,64.107,92.561,63.52,92.729,62.966,92.8Z" transform="translate(36.526 8.954)" fill="#5ea39e"/>
        <path id="Tracé_284" data-name="Tracé 284" d="M63.257,88.659c-.738.839-1.392.47-1.962-.168-1.879-2.08-3.875-3.12-6.441-1.006a.984.984,0,0,1-1.426-.117c-.554-.822.2-1.107.738-1.442,3.271-2,5.887-1.258,9.024,2.549l.067.184Z" transform="translate(30.583 22.769)" fill="#a3653d"/>
        <path id="Tracé_285" data-name="Tracé 285" d="M79.051,96.809c-.084,1.241-.688,1.9-1.711.889-2.03-2-4.5-2.466-7.43-2.231,1.929-1.912,4.176-2.063,6.642-.587a23.067,23.067,0,0,1,2.5,1.929Z" transform="translate(41.876 28.892)" fill="#a5673f"/>
        <path id="Tracé_286" data-name="Tracé 286" d="M68.47,98.98c2.113-3.623,2.331-3.757,5.485-2.5a9.827,9.827,0,0,1,4.16,2.432c-1.04.99-1.728.335-2.466-.134C73.284,97.269,70.9,96.4,68.47,98.98Z" transform="translate(40.901 30.16)" fill="#a1633c"/>
        <path id="Tracé_287" data-name="Tracé 287" d="M61.59,91.861c.772-1.476,1.526-2.952,2.3-4.411.755.335.486,1.157.805,1.694-.822,1.174-.99,2.952-2.9,3.1A.582.582,0,0,1,61.59,91.861Z" transform="translate(36.242 24.532)" fill="#73b1ad"/>
        <path id="Tracé_288" data-name="Tracé 288" d="M63.765,111.291c-.637-.386-.688-1.057-.805-1.694a2.172,2.172,0,0,1,.067-.654c3.371-5.5,4.68-11.674,5.485-17.913.436-3.4,1.292-6.709,1.694-10.1.688-5.736,1.325-11.489,2.482-17.125.621-3.019.168-6.39,2.231-9.057a2.6,2.6,0,0,1,.235.721q-1.132,8.6-2.281,17.209c-.067.52-.2,1.04-.252,1.56-.268,3.22.084,3.623,3.371,3.656,3.17.034,6.357-.084,9.527.017,4.831.151,9.644.4,14.458.654,1.275.067,2.013-.235,2.147-1.627.218-2.365.537-4.713.822-7.061.486-.436.3-1.174.738-1.644l.1-2.365c.637-.7.067-1.744.688-2.449.017-.5.034-1.006.067-1.493,1.157.855.637,2.13.805,3.254-.034.788-.067,1.56-.084,2.348-.654.7-.067,1.744-.688,2.466a3.322,3.322,0,0,1-.05.7c-1.04,1.778.2,3.875-.755,5.669.822,8.2-.47,16.387,0,24.589.235,1.929,1.342,3.992-.772,5.6-1.057-6.323-.788-12.7-.772-19.071a19.806,19.806,0,0,0,0-2c-.117-1.56,1.375-3.321.134-4.579s-3.287-.772-4.965-.721c-6.91.235-13.754-1.191-20.664-.671a25.7,25.7,0,0,1-2.784.034c-1.543-.05-2.013.738-2.1,2.2a92.245,92.245,0,0,1-3,18.366c-1.073,4.059-3.237,7.531-5.082,11.187Z" transform="translate(37.169 2.384)" fill="#5ba29d"/>
        <path id="Tracé_289" data-name="Tracé 289" d="M86.106,54.08c-3.053,4.394-7.38,4.545-10.466.47,2.046-.436,3.4,1.409,5.25,1.325C82.752,55.791,84.06,54.147,86.106,54.08Z" transform="translate(45.757 1.931)" fill="#9f623b"/>
        <path id="Tracé_290" data-name="Tracé 290" d="M78.519,59.026l7.045.034c1.057-.436,1.811-.386,1.627,1.073-3.472,2.5-6.927,2.482-10.382,0-.168-1.526.671-1.476,1.728-1.09Z" transform="translate(46.534 5.137)" fill="#915732"/>
        <path id="Tracé_291" data-name="Tracé 291" d="M78.768,49.6c-1.61,1.51-3.187,1.208-4.68.788-.855-.235-2.03-.923-1.661-1.879.621-1.593,1.459-.067,2.13.218,1.241.537,2.667-.185,4.193.855Z" transform="translate(43.535 -2.327)" fill="#9e623b"/>
        <path id="Tracé_292" data-name="Tracé 292" d="M88.528,50.522c-2.851,2.65-3.3,2.583-5.518-.822C84.956,49.985,86.616,50.237,88.528,50.522Z" transform="translate(50.749 -1.036)" fill="#9d6039"/>
        <path id="Tracé_293" data-name="Tracé 293" d="M80.841,60.146c-.637.117-1.308.185-1.677.839-2.4.939-3.656-.587-4.864-2.231a2.424,2.424,0,0,1-.939-1.593c2.549.855,5.233,1.409,7.5,2.986Z" transform="translate(44.213 4.017)" fill="#a76a41"/>
        <path id="Tracé_294" data-name="Tracé 294" d="M77.18,51.95c1.66,1.442,3.2.5,4.73,1.04C79.243,55.757,78.74,55.707,77.18,51.95Z" transform="translate(46.8 0.488)" fill="#a3653d"/>
        <path id="Tracé_295" data-name="Tracé 295" d="M83.63,60.381c-.335-.654-.99-.721-1.61-.822A7.879,7.879,0,0,1,86.264,58.1a3.422,3.422,0,0,1-1.577,2.382.663.663,0,0,1-1.073-.1Z" transform="translate(50.078 4.653)" fill="#ab7954"/>
        <path id="Tracé_296" data-name="Tracé 296" d="M74.43,44.75a1.007,1.007,0,0,1,.822.738C74.983,45.236,74.715,45,74.43,44.75Z" transform="translate(44.938 -4.388)" fill="#a86942"/>
        <path id="Tracé_297" data-name="Tracé 297" d="M67.289,43.269a2.365,2.365,0,0,0,1.526-.839h.755l-.1,11.925c-.453-.084-.889-.168-1.342-.252A3.9,3.9,0,0,0,66.4,51.873c0-2.382-.034-4.763-.05-7.145a2.365,2.365,0,0,0,.956-1.442Z" transform="translate(39.465 -5.96)" fill="#e49a6a"/>
        <path id="Tracé_298" data-name="Tracé 298" d="M59.972,137.537a120.565,120.565,0,0,0,20.983,3.824,1.991,1.991,0,0,1,2,1.56c-1.677,12.58-3.2,25.193-5.082,37.739-1.459,9.695-2.466,19.406-3.153,29.185-.235,3.287-.923,6.541-1.409,9.8H59.083a184.388,184.388,0,0,1-6.474-24.924,59.219,59.219,0,0,1-1.124-14.609c.453-7.447,1.51-14.76,4.294-21.7a54.916,54.916,0,0,0,3.791-18.165,21.8,21.8,0,0,1,.436-2.717Z" transform="translate(29.339 58.443)" fill="#5a5665"/>
        <path id="Tracé_299" data-name="Tracé 299" d="M82.55,141.757a120.166,120.166,0,0,1,15.3-1.677c2.6-.067,5.183-1.392,7.8-.117a8.04,8.04,0,0,1,.4,1.946c-.134,6.424,2.617,12.093,4.428,18.048a70.516,70.516,0,0,1,1.661,36.162c-1.258,5.7-2.851,11.3-4.176,16.974a11.579,11.579,0,0,1-1.442,3.673c-4.965,0-9.946,0-14.911-.017-.721-1.761-.5-3.673-.7-5.5-.755-6.977-1.224-13.988-1.979-20.983-.621-5.669-1.493-11.288-2.231-16.941q-2.063-15.775-4.109-31.533Z" transform="translate(50.437 59.724)" fill="#5a5665"/>
        <path id="Tracé_300" data-name="Tracé 300" d="M86.83,87.872c1.442-1.711.419-3.74.772-5.6,1.526,2.751.772,5.887,1.375,8.823a23.81,23.81,0,0,0,4.244,9.527,2.313,2.313,0,0,1,.889,1.493c.168.839-.2,1.141-1.006,1.04a27.162,27.162,0,0,1-6.273-15.28Z" transform="translate(53.336 21.023)" fill="#66aca7"/>
        <path id="Tracé_301" data-name="Tracé 301" d="M87.329,69.9c.235-1.9-.738-3.942.755-5.669C87.849,66.125,88.671,68.155,87.329,69.9Z" transform="translate(53.608 8.805)"/>
        <path id="Tracé_302" data-name="Tracé 302" d="M87.781,64.806c-.017-.889-.2-1.828.7-2.466C88.535,63.246,88.636,64.151,87.781,64.806Z" transform="translate(53.962 7.525)"/>
        <path id="Tracé_303" data-name="Tracé 303" d="M89.109,60.368c.352.034.7.067,1.073.1a18.07,18.07,0,0,1-5.988,8.672c-2.516,2.063-3.724,1.946-5.6-.654A24.97,24.97,0,0,1,73.93,58.12a18.783,18.783,0,0,0,4.864,2.231,15.977,15.977,0,0,0,10.315,0Z" transform="translate(44.599 4.667)"/>
        <path id="Tracé_304" data-name="Tracé 304" d="M88.013,59.91c.017.889.2,1.828-.688,2.449A2.507,2.507,0,0,1,88.013,59.91Z" transform="translate(53.646 5.879)"/>
        <path id="Tracé_305" data-name="Tracé 305" d="M87.548,62.78a1.637,1.637,0,0,1-.738,1.644A1.8,1.8,0,0,1,87.548,62.78Z" transform="translate(53.322 7.823)"/>
        <path id="Tracé_306" data-name="Tracé 306" d="M74.976,85.543c-3.355-1.661-4.009-4.646-3.891-7.984.05-1.61.906-2.566,2.533-2.2,3.791.855,7.632.352,11.439.57a9.833,9.833,0,0,1,1.577.084c3.12.755,4.277.486,3.522,4.613-1.275.335-1.577-1.174-2.583-1.342-3.539-.05-7.028-.621-10.55-.755-.906-.034-2-.168-2.516.738-.637,1.09.235,1.962.822,2.818.738,1.04,2.164,1.577,2.331,3.053-.755,1.107-1.728.772-2.7.419Z" transform="translate(42.664 16.291)" fill="#61a8a3"/>
        <path id="Tracé_307" data-name="Tracé 307" d="M73.4,84.333c.889-.134,1.9.117,2.516-.822A2.314,2.314,0,0,1,78,82.538c4.411.419,7.279-1.644,9.124-5.468.99.47.537,1.845,1.476,2.331-1.342,4.009-4.311,5.7-8.336,5.669-2.3-.017-4.7.637-6.86-.738Z" transform="translate(44.24 17.501)" fill="#6db4af"/>
        <path id="Tracé_308" data-name="Tracé 308" d="M90.57,95.14c.335-.352.671-.688,1.006-1.04a2.981,2.981,0,0,1,1.375,2.533A2.5,2.5,0,0,1,90.57,95.14Z" transform="translate(55.869 29.035)" fill="#8dc5c1"/>
        <path id="Tracé_309" data-name="Tracé 309" d="M62.52,124.819c4.143-2.533,6.189-6.525,7.816-10.886,1.459-3.942,4.545-5.954,8.521-6.894a37.917,37.917,0,0,1,10.181-1.375,34.95,34.95,0,0,0,6.608-.185,9.3,9.3,0,0,1-6.139,1.811A39.16,39.16,0,0,0,78.924,108.5c-4.73,1.308-6.86,4.529-8.37,8.621-.872,2.365-1.56,4.831-3.975,6.189a5.554,5.554,0,0,0-.788.755h0c-.772.805-1.577,1.51-2.818,1.124l-.4-.352Z" transform="translate(36.871 36.743)" fill="#fed582"/>
        <path id="Tracé_310" data-name="Tracé 310" d="M70.73,102.6c4.965-1.845,10.315-1.023,15.414-2.2C81.481,104.308,75.93,102.195,70.73,102.6Z" transform="translate(42.432 33.302)" fill="#fed583"/>
        <path id="Tracé_311" data-name="Tracé 311" d="M66.379,117.365c.537-.034,1.057-.05,1.593-.084.285-.235.57-.47.839-.721.268,0,.52.034.788.034.319.218.772.285.822.772-2.7,1.543-5.518,2.918-7.665,5.384-1.661-3.3-1.61-3.69.419-5.434l.034.034c1.124,1.292-.352,2.1-.57,3.12a5.3,5.3,0,0,1,3.757-3.1Z" transform="translate(36.232 44.247)" fill="#fed47e"/>
        <path id="Tracé_312" data-name="Tracé 312" d="M79.6,103.524c-3.355.772-6.743,1.241-10.08,0C72.858,102.333,76.229,102.8,79.6,103.524Z" transform="translate(41.612 34.925)" fill="#fed47f"/>
        <path id="Tracé_313" data-name="Tracé 313" d="M67.182,121l-.822-.772c1.241-.57,1.359-1.828,1.845-2.885.956-2.063,1.694-4.344,4.663-6.156-1.778,3.673-3.153,6.575-4.6,9.426-.134.252-.7.268-1.073.4Z" transform="translate(39.472 40.61)" fill="#fed480"/>
        <path id="Tracé_314" data-name="Tracé 314" d="M65.972,117.365c-.671,1.694-2.885,1.694-3.489,3.64-.906-1.577.52-2.5.3-3.656,1.073-.268,2.13-.52,3.2-.788v.805Z" transform="translate(36.64 44.247)" fill="#fcc658"/>
        <path id="Tracé_315" data-name="Tracé 315" d="M66.229,116.56c-.285.235-.553.486-.839.721C65.675,117.046,65.944,116.812,66.229,116.56Z" transform="translate(38.815 44.247)" fill="#fcc658"/>
        <path id="Tracé_316" data-name="Tracé 316" d="M64.45,116.855c.268-.252.52-.5.788-.755C64.97,116.352,64.718,116.6,64.45,116.855Z" transform="translate(38.179 43.936)" fill="#fcc658"/>
        <path id="Tracé_317" data-name="Tracé 317" d="M60.871,143.74c.335,1.526.621,2.835.973,4.411C59.261,146.625,59.177,146.256,60.871,143.74Z" transform="translate(34.981 62.656)" fill="#3e384e"/>
        <path id="Tracé_318" data-name="Tracé 318" d="M93.823,143.73c.637,0,1.023.252,1.023.654a5.435,5.435,0,0,1-.335,1.51c-.285.973-.319,2.231-1.811,2.113-.621-.05-.7-.721-.654-1.241.134-1.325.436-2.583,1.761-3.019Z" transform="translate(56.86 62.649)" fill="#3e384e"/>
        <path id="Tracé_319" data-name="Tracé 319" d="M88,77.4c-.369,4.394-2.281,6.29-6.541,6.407-1.56.05-3.1.034-4.663.034-2.348-.436-3.556-2.113-4.344-4.143-.805-2.08-.252-2.885,1.962-3.019a13.142,13.142,0,0,1,3.539.034c3.321.755,6.743,0,10.047.688Z" transform="translate(43.361 17.167)" fill="#abf2ed"/>
      </g>
    </g>
  </g>
</svg>
