<svg xmlns="http://www.w3.org/2000/svg" width="317.487" height="364.93" viewBox="0 0 317.487 364.93">
  <g id="b" transform="translate(-37.69 -20.087)">
    <g id="Groupe_6" data-name="Groupe 6" transform="translate(37.69 20.088)">
      <g id="Groupe_5" data-name="Groupe 5">
        <path id="Tracé_320" data-name="Tracé 320" d="M280.913,230.375h-.791a.921.921,0,0,1-.716.414c-.415,0-.848,0-1.262.038-.264.075-.528.151-.791.245-.245.132-.509.226-.754.358-.245.151-.509.264-.772.4-.546.264-1.074.546-1.639.754a9.115,9.115,0,0,1-.961.264,11.665,11.665,0,0,0-2.977,1.055,5.551,5.551,0,0,1-.942.32,19.182,19.182,0,0,0-2.3.49,3.056,3.056,0,0,1-.923.151c-.886-.3-1.47.207-2.054.754a3.93,3.93,0,0,1-1.394.377,10.68,10.68,0,0,0-1.884.339,8.325,8.325,0,0,1-.9.283c-.754.207-1.507.452-2.242.716a5.856,5.856,0,0,1-1.413.264,9.326,9.326,0,0,0-2.788.4,8.629,8.629,0,0,1-.923.283,19.292,19.292,0,0,0-2.864.716,9.148,9.148,0,0,1-2.016.3,9.081,9.081,0,0,0-3.015.377,9.316,9.316,0,0,1-1.036.283,21.935,21.935,0,0,0-3.768.773,11.083,11.083,0,0,1-2.374.32,66.109,66.109,0,0,0-10,1.319,11.39,11.39,0,0,1-2.657.32c-4.974-.17-9.892,1.262-14.9.49h-.772a4.342,4.342,0,0,1-3.636,1.017c-4.616-1.639-9.195.151-13.754.433a125.038,125.038,0,0,1-18.6-.038,96.589,96.589,0,0,0-13.415,0c-8.667.509-17.353.961-26.058.132-4.936-.471-9.911-2.035-14.922-.471a12.158,12.158,0,0,1-3.693-.207c-5.238-.716-10.476-1.526-15.808-1.357a14.5,14.5,0,0,1-3.373-.3,57.764,57.764,0,0,0-10.777-1.357,10.153,10.153,0,0,1-2.393-.3,24.021,24.021,0,0,0-3.844-.81,6.649,6.649,0,0,1-1.055-.264A13.965,13.965,0,0,0,74,239.231a8.25,8.25,0,0,1-1.658-.283,26.231,26.231,0,0,0-6.01-1.244,8.349,8.349,0,0,1-1.639-.3,23.975,23.975,0,0,0-4.578-1.3,7.531,7.531,0,0,1-1.47-.3,11.5,11.5,0,0,0-2.223-.773,7.607,7.607,0,0,1-.848-.3,5.881,5.881,0,0,0-1.7-.415,5,5,0,0,1-1.3-.283,10.122,10.122,0,0,1-1.225-.546c-.264-.113-.528-.245-.791-.377a12.045,12.045,0,0,0-1.244-.433,7.446,7.446,0,0,1-.848-.283c-.415-.17-.81-.358-1.206-.565-.264-.132-.528-.264-.791-.414-.264-.132-.528-.264-.791-.415a6.137,6.137,0,0,1-.754-.452c-.471-.32-.923-.659-1.413-.961-.245-.132-.471-.283-.716-.433-.358-.207-.716-.415-1.093-.6a5.709,5.709,0,0,1-.716-.452c-.226-.17-.433-.358-.641-.546-.113-.094-.207-.207-.32-.3-.226-.188-.433-.4-.641-.6-.113-.094-.226-.207-.339-.32-.245-.207-.452-.433-.678-.659-.113-.132-.207-.245-.3-.377a2.654,2.654,0,0,1-.377-.923,9.243,9.243,0,0,0,.075-1.036v-3.184a1.449,1.449,0,0,1,.377-.98h0a1.332,1.332,0,0,0,.32-1.168,2.065,2.065,0,0,1,.32-.791c.17-.226.339-.452.528-.659.094-.094.188-.207.3-.3a5.967,5.967,0,0,1,.641-.528,6.55,6.55,0,0,1,.7-.4l.678-.4a3.619,3.619,0,0,0,.32-.245c.188-.188.415-.339.622-.509a4.158,4.158,0,0,1,.678-.433c.358-.188.716-.377,1.074-.546.245-.132.49-.226.735-.339.358-.17.735-.358,1.093-.528a5.331,5.331,0,0,1,.772-.264,8.609,8.609,0,0,0,1.168-.414c.245-.132.509-.245.772-.358a9.545,9.545,0,0,1,1.244-.4,3.422,3.422,0,0,1,.867-.113,1.732,1.732,0,0,0,1.507-.772,5.213,5.213,0,0,1,1.262-.509c.433-.151.867-.32,1.3-.471a7.929,7.929,0,0,1,.9-.226,11.982,11.982,0,0,0,2.3-.4c.3-.113.6-.188.9-.283a19.65,19.65,0,0,0,2.261-.716,5.282,5.282,0,0,1,.942-.226,12.286,12.286,0,0,0,2.845-.565,5.991,5.991,0,0,1,.961-.245,16.022,16.022,0,0,0,2.449-.6,7.243,7.243,0,0,1,1.526-.283,19.294,19.294,0,0,0,3.109-.433,11.241,11.241,0,0,1,1.6.132c1,.094,1.7-.622,2.506-1a5.481,5.481,0,0,1,1.093-.283c1.677-.207,3.41,0,5.049-.565a10.674,10.674,0,0,1,1.7-.3,13.177,13.177,0,0,0,3.41-.565,11.225,11.225,0,0,1,1.771-.3c2.2-.17,4.447.188,6.613-.471a8.554,8.554,0,0,1,1.828-.264,9.612,9.612,0,0,0,4.239-.622,6.62,6.62,0,0,1,2.581-.132,19.868,19.868,0,0,0,9.176.094h1.583a3.255,3.255,0,0,1,2.054-.942c1.752-.151,3.523.113,5.276-.17a2.927,2.927,0,0,0,.791-.433,2.959,2.959,0,0,0,.49-1.3c.17-1.074.019-2.261,1.168-2.92,2.317,2.864,2.694,9.195.471,11.644-3.844,4.2-7.4,8.724-12.247,11.908a35.938,35.938,0,0,1-10.57,5.389,24.018,24.018,0,0,0-3.693,1.488c-1.394.7-3.278,1.262-2.77,3.3.452,1.884,2.336,1.96,3.919,2.016a58.853,58.853,0,0,0,8.742-.113c10.269-1.112,20.349-3.448,30.6-4.786,3.354-.433,3.862-2.054,2.9-7.574A55.572,55.572,0,0,0,140,206.692c-1-2.261-2.412-4.823-.075-7.254a27.192,27.192,0,0,1,12.793-.038c2.261,2.016,1.413,4.578,1.149,7.009-.433,3.919-1.357,7.8-1.187,11.795a4.43,4.43,0,0,0,.791,3.165,129.371,129.371,0,0,0,3.391-15.959c.4-2.223.659-4.465,2.657-5.954a11.813,11.813,0,0,1,7.668-.848c3.241.6,6.538-.188,9.8.32,1.752,1.733,1.074,3.976,1.168,6.029.132,3.033,0,6.086.283,9.176.848-1.733.659-3.674,1.093-5.5a63.831,63.831,0,0,0,1.262-6.5c.17-1.413.226-2.92,2.035-3.391,12.7-.659,25.247,1.394,37.89,1.865a15.238,15.238,0,0,1,5.389,1.13c2.525,2.694,2.242,6.331,3.052,9.571.867,3.523,1.281,7.16,2.638,10.57a39.787,39.787,0,0,0-1-10.777c-.509-2.694-1.149-5.464.358-8.1,1.715-1.244,3.561-.641,5.37-.358,3.278.509,6.538,1.281,9.835.188,3.165,2.2,2.374,5.709,3.165,9.044.584-3.467-1.093-6.99.886-10.08,1.507-1.488,3.523-1.9,5.426-2.223,3.825-.622,4.9-2.826,4.71-6.406-.188-3.561-.113-7.141,0-10.7.057-1.526-.226-3.26,1.507-4.2,1.978,1.206,1.583,3.2,1.583,4.974.057,8.592,0,17.164.038,25.756,0,1.564-.283,3.184.659,4.616,1.3,1.6,3.128,1.168,4.786,1.168q19.388.057,38.794,0c7.763,0,15.506-.019,23.25,0h1.394c4.578-.17,9.176.264,13.735-.283,1.715-1,1.13-2.92,1.733-4.371a2.156,2.156,0,0,1,.622-.791,1.416,1.416,0,0,1,.961.075c.377.264.716.6,1.074.9a6.536,6.536,0,0,1,.7.565c.226.188.452.377.659.584.113.094.207.207.32.3.226.207.433.415.659.622.113.094.226.207.339.32.245.207.452.433.678.659.113.132.207.245.32.377a3.94,3.94,0,0,1,.49.867,6.214,6.214,0,0,1,.245.98,14.12,14.12,0,0,1,0,3.09,4.554,4.554,0,0,1-.245,1,4.3,4.3,0,0,1-.49.867c-.094.132-.207.245-.32.377a7.507,7.507,0,0,1-.659.678c-.113.113-.226.207-.339.32a5.248,5.248,0,0,1-.716.565,5.992,5.992,0,0,1-.754.433c-.245.151-.49.283-.735.433-.113.075-.226.17-.339.245a5.545,5.545,0,0,1-1.036.7,6.229,6.229,0,0,1-1.187.377c-.264.094-.509.188-.772.3-.245.132-.509.264-.773.377-.546.264-1.074.546-1.639.754a8.493,8.493,0,0,1-.923.264,13.337,13.337,0,0,0-3.241,1.168,6.535,6.535,0,0,1-1.451.358,9.374,9.374,0,0,0-2.374.415,8.629,8.629,0,0,1-.923.283,16.551,16.551,0,0,0-2.845.716,8.181,8.181,0,0,1-1.507.283,14.081,14.081,0,0,0-3.655.452,3.844,3.844,0,0,1-1.13.113,4.545,4.545,0,0,0-4.5.791,6.18,6.18,0,0,1-3.994.188,4.368,4.368,0,0,0-2.336-.4,72.34,72.34,0,0,1-30.3,0,2.489,2.489,0,0,0-1.545.264,3.4,3.4,0,0,1-3.523-.659Z" transform="translate(-37.69 119.759)" fill="#e4d7ff"/>
        <path id="Tracé_321" data-name="Tracé 321" d="M82.763,156.363c.057-.433.113-.886.17-1.319a58.466,58.466,0,0,1,1.507-5.878.438.438,0,0,0,.075-.584A51.494,51.494,0,0,1,86.1,142.8v.038c.6-1.846.886-3.787,1.526-5.634a.485.485,0,0,0,.075-.6c.49-1.941.9-3.9,1.545-5.784a.363.363,0,0,0,.075-.509c.4-1.451.923-2.864,1.451-4.258a.55.55,0,0,0,.113-.622,21.815,21.815,0,0,1,1.639-4.145l-.038.075c1.036-1.865,1.9-3.844,3.976-4.861h-.038a2.245,2.245,0,0,1,.923-.754l-.113.094c.659-.961,1.846-.339,2.657-.867a.316.316,0,0,0,.49-.094c.7-.7,1.79-.113,2.506-.754a.632.632,0,0,0,.7-.075c2.336-.7,4.748-.433,7.1-.3,6.764.4,13.472-.791,20.217-.754,13.622,1.6,27.245,3.316,40.6,6.594,1.225.32,2.431.678,3.674.961,1.168.358,2.355.584,3.5.98a10.586,10.586,0,0,1,4.032,2.939c5.521,7.895,7.593,16.92,8.083,26.321.17,3.3,1.771,6.877-.678,10.061-4.6,3.429-10.042,2.186-15.148,2.77a45.835,45.835,0,0,1-10.438-3.9c-13.076-6.689-26.924-11.361-41.018-15.186a25.276,25.276,0,0,0-16.825.98c-4.428,1.922-6.689,5.144-6.9,10.174-.358,9.082,1.526,17.937,2.3,26.887a4.632,4.632,0,0,1,.3,1.112c-.113,1.488-1.244,2.525-1.79,3.806a7.211,7.211,0,0,1-.471.829c-.226.4-.471.773-.678,1.168a4.8,4.8,0,0,1-.452.735c-.17.226-.339.452-.528.678-.075.113-.17.245-.245.358-.226.4-.433.791-.641,1.206a6.412,6.412,0,0,1-.528.848c-.81,1.168-1.583,2.355-2.3,3.58a7.424,7.424,0,0,1-.584.9c-1.394,1.865-2.638,3.844-3.919,5.784-.17.283-.377.565-.565.829a5.823,5.823,0,0,1-.622.735c-.094.113-.226.226-.32.339-.3.32-.641.622-.942.923-.188.207-.377.4-.565.6a7.227,7.227,0,0,0-.659,1.017,5.5,5.5,0,0,1-.452.7,5.98,5.98,0,0,1-.565.641c-.094.113-.188.207-.283.32-.188.226-.377.433-.584.659l-.283.339c-.264.358-.528.716-.754,1.093a5.087,5.087,0,0,1-.509.735,6.6,6.6,0,0,1-.546.678c-.075.113-.17.226-.245.339-.226.358-.452.7-.716,1.055a4.143,4.143,0,0,1-.565.584,7.1,7.1,0,0,0-.81.867c-.132.226-.283.452-.433.678-.188.377-.377.735-.565,1.112a6.072,6.072,0,0,1-.471.735c-.264.358-.546.7-.81,1.055-.132.283-.283.565-.4.848a9.775,9.775,0,0,0-.113,3.052c0,1.79.264,3.6-.659,5.276a2.22,2.22,0,0,1-1.658.98c-5.9,0-10.664,2.789-15.092,6.293-2.261,1.79-3.825,1.074-4.315-1.432-.886-4.522-3.26-8.328-5.313-12.3a2.471,2.471,0,0,1,.113-1.112c.528-.829,1.451-.98,2.261-1.357.3-.151.622-.283.923-.415.3-.151.6-.3.9-.433.3-.151.6-.283.923-.415a16.878,16.878,0,0,0,3.862-2.261c.245-.188.509-.377.772-.546.358-.264.716-.528,1.055-.829a4.586,4.586,0,0,1,.641-.565c.339-.226.7-.415,1.055-.622.207-.151.433-.3.641-.452a7.6,7.6,0,0,1,.6-.49,3.374,3.374,0,0,1,.641-.414c.207-.151.415-.283.622-.452a2.917,2.917,0,0,0,.452-.622c.151-.4.264-.791.4-1.187.094-.3.207-.584.32-.867a18.006,18.006,0,0,0,1.055-2.751,8.377,8.377,0,0,1,.358-.961,11.242,11.242,0,0,0,1.187-3.373,8.273,8.273,0,0,1,.245-.98c.207-.622.433-1.244.641-1.865a7.157,7.157,0,0,1,.339-.886,11.85,11.85,0,0,0,.565-1.809,8.939,8.939,0,0,1,.283-.942,24.582,24.582,0,0,0,1.187-4.334,6.165,6.165,0,0,1,.32-1c.641-1.244,1.715-2.261,2.016-3.693a.605.605,0,0,0,.094-.659,26.661,26.661,0,0,1,1.507-4.936.442.442,0,0,0,.113-.584,22.763,22.763,0,0,1,1.488-4.993.677.677,0,0,0,.094-.678c.509-1.9.98-3.806,1.507-5.709a.7.7,0,0,0,.075-.716c.528-1.884.49-3.9,1.488-5.671a.785.785,0,0,0,.094-.735c.546-1.865.509-3.9,1.488-5.652Z" transform="translate(-26.428 62.051)" fill="#ac6e45"/>
        <path id="Tracé_322" data-name="Tracé 322" d="M79.757,261.188c4.823-3.3,8.215-8.064,12.36-12.04.471-.452,1.149-1.055.942-1.639-1.036-2.9.075-6.048-1.187-8.893a3,3,0,0,1-1.093-2.261,25.472,25.472,0,0,0-1.225-8.573c-.132-.6-.151-1.206-.226-1.809a34.756,34.756,0,0,0-1.413-6.35,8.1,8.1,0,0,1-.3-1.771,23.614,23.614,0,0,0-1.281-6.952,8.079,8.079,0,0,1-.264-1.168,45.516,45.516,0,0,0-1.375-7.65,11.457,11.457,0,0,1-.3-1.79,36.764,36.764,0,0,0-1.281-7.725,8.542,8.542,0,0,1-.245-1.206c-.377-2.638.17-5.351-.584-7.989a.388.388,0,0,0-.057-.546,1.517,1.517,0,0,1-.4-1.036,10.148,10.148,0,0,0-1.733-5.954,5.609,5.609,0,0,1-.339-1.13,30.1,30.1,0,0,1-.377-4.692c.132-.942-.735-1.451-.98-2.242.4-8.366-1.884-16.505-1.96-24.889-.094-8.7,5.784-12.643,13.453-13.547,9.308-1.13,17.654,2.657,26.152,5.407a160.236,160.236,0,0,1,27.094,11.192c1.149.622,3.486.49,2.77,2.977-3.957,2.751-8.4,1.545-12.624,1.338-3.128-.17-6.274-.528-9.421-.6a72.972,72.972,0,0,1-10.74-.245c-2.242-.3-2.92.622-2.506,2.694.452,2.336,1,4.673,1.564,6.99,2.807,11.644.829,23.288-.32,34.838-1.507,15.167-3.373,30.3-5.219,45.427-.17,1.451-.188,2.939-1.244,4.107-.415,2.336.471,4.484,1.413,6.463a38.758,38.758,0,0,1,3.523,12.058c-1.168,1.055-2.694,1.13-4.107,1.281a19.367,19.367,0,0,0-11.1,4.842c-1.846,1.658-3.391,1.639-5.031-.32a14.549,14.549,0,0,0-8.384-4.974c-.867-.188-1.865-.377-1.96-1.6Z" transform="translate(-3.43 76.322)" fill="#ac6e45"/>
        <path id="Tracé_323" data-name="Tracé 323" d="M113.6,122.982a.4.4,0,0,0,.151-.528c.3-.6.188-1.394.829-1.828l-.057.075c.584-.716,0-1.809.773-2.487v.038c.528-1.6.7-3.335,1.6-4.823v.038c.528-1.6.7-3.335,1.62-4.823v.038c.6-1.319.886-2.751,1.545-4.051a.308.308,0,0,0,.094-.471,29.165,29.165,0,0,1,2.11-7.329,9.168,9.168,0,0,1,.4-1,21.042,21.042,0,0,0,1.413-3.354,5.869,5.869,0,0,1,.4-.942,16.473,16.473,0,0,0,1.3-3.222,8,8,0,0,1,.4-.923,12.456,12.456,0,0,0,1.112-2.807,8.673,8.673,0,0,1,.358-.98c.622-1.244,1.244-2.487,1.846-3.731a7.712,7.712,0,0,1,.471-.867c.226-.415.452-.81.678-1.225a4.556,4.556,0,0,1,.471-.754c.32-.452.678-.9.961-1.394.132-.245.283-.471.415-.7.207-.339.4-.7.584-1.055a4.075,4.075,0,0,1,.415-.678c.17-.226.339-.415.528-.622.094-.094.188-.188.283-.3.188-.207.377-.4.584-.6.094-.094.207-.188.3-.3a7.008,7.008,0,0,1,1.357-1.055c.358-.245.716-.509,1.074-.772.226-.207.452-.4.7-.584a6.955,6.955,0,0,1,.754-.546,4.942,4.942,0,0,1,.867-.358,15.942,15.942,0,0,0,2.261-.584c.3-.113.6-.188.9-.283.6-.17,1.206-.377,1.809-.584a4.042,4.042,0,0,1,.942-.226,6.069,6.069,0,0,0,2.3-.565c.264-.207.509-.415.754-.641,1.281-1.488,2.3-3.052,2.11-5.144a19.567,19.567,0,0,1,.283-4.8A2.512,2.512,0,0,1,152,54.174a1.1,1.1,0,0,1,1.168.339,21.838,21.838,0,0,1,1.093,9.666c-.377,4.691-4.522,6.35-8.309,7.951-1.62-.678-1.752.641-2,1.6-2.638,9.986-5.031,20.01-6.708,30.2a15.834,15.834,0,0,0,.735,7.066,10.241,10.241,0,0,1-.678,8.083,88.174,88.174,0,0,1-10.721,18.709,85.242,85.242,0,0,1-7.084,7.442,5.068,5.068,0,0,1-4.013,1.338c-3.09-1.884-6.519-1.715-9.948-1.771-3-.038-6.067.038-8.629-1.96-.264-1.017.4-1.6,1.055-2.186l-.094.094a17.828,17.828,0,0,1,1.639-1.733l-.075.075c.546-.565,1.112-1.13,1.677-1.677l-.075.094a23.734,23.734,0,0,1,1.7-1.677l-.075.094c.528-.584,1.093-1.149,1.677-1.7l-.075.075c.546-.584,1.112-1.13,1.677-1.677l-.075.094a13.01,13.01,0,0,1,1.733-1.639l-.094.094a29.589,29.589,0,0,1,2.939-2.6.392.392,0,0,0,.226-.49,1.466,1.466,0,0,1,.848-1.055l-.038.075c.151-1.7,1.432-2.77,2.242-4.107Z" transform="translate(14.614 10.005)" fill="#ac6e45"/>
        <path id="Tracé_324" data-name="Tracé 324" d="M107.725,100.992c1.884,1.545,4.2,1.112,6.35,1.338a26.89,26.89,0,0,0,6.274.057,6.654,6.654,0,0,1,6.708,3c1.9.377,2.657,2.186,4.051,3.222.622.622,1.281,1.206,1.884,1.846,2.355,3.222,5.577,5.634,8.1,8.7,2.939,2.826,5.539,5.973,8.29,8.987,1.281,1.394,2.9,3,.791,5.049a2.313,2.313,0,0,1-1.7-.188c-1.093-.132-2.261,0-3.184-.81-5.294-3.448-8.535-8.931-13-13.189a46.284,46.284,0,0,1-6.086-7.292c-2.826-4.089-6.651-5.822-11.606-4.9-1.583-.132-3.335.358-4.522-1.244-2.789-.81-5.709.075-8.5-.622-3.09-.848-6.236-.565-9.383-.339a10.453,10.453,0,0,1-1.055.452c-2.751,1-4.861.019-6.538-2.2a1.3,1.3,0,0,1,0-1.093h0a10.744,10.744,0,0,0,.81-.791H97.362a23.4,23.4,0,0,0,9.571,0l.075-.038c.264-.32.49-.3.678.075Z" transform="translate(3.684 51.194)" fill="#cdf3fd"/>
        <path id="Tracé_325" data-name="Tracé 325" d="M157.38,127.528a2.039,2.039,0,0,1,1.771-1.677c2.864-.151,5.652-1.036,8.535-1a4.874,4.874,0,0,1,3.41,1.074h2.393a6.138,6.138,0,0,1,7.179,0h1.6c1.752-1.375,3.825-1.187,5.86-1.112,6.218-.245,12.379,1.375,18.6.754,5.483-.565,10.928-.923,16.373.038.49.038,1.451.17,1.357.3-.923,1.262.057,3.391-1.9,4.164a14.057,14.057,0,0,1-3.957.4q-27.216.028-54.433,0a14.836,14.836,0,0,1-3.542-.283,3.373,3.373,0,0,1-1.187-.528q.471-1.941,3.26-2.11c-1.526-.358-3.41.7-5.313,0Z" transform="translate(68.133 72.459)" fill="#cc9682"/>
        <path id="Tracé_326" data-name="Tracé 326" d="M161.893,53.189c.019.81.057,1.6.075,2.412a1.329,1.329,0,0,1,0,1.564c-.075.961-.132,1.9-.207,2.864a6.994,6.994,0,0,1-.641,1.922.58.58,0,0,0-.113.641.645.645,0,0,1-1.093-.094c-.057-4.352-.471-8.724,0-13.076a.773.773,0,0,1,1.149-.188.883.883,0,0,0,.094.754c.546.772.094,1.79.659,2.562a.543.543,0,0,0,.075.6Z" transform="translate(70.177 5.526)" fill="#6d6976"/>
        <path id="Tracé_327" data-name="Tracé 327" d="M194.65,125.521c4.258-.057,8.516-.094,12.774-.151l3.844.094c1.3.358,1.244,1.6,1.677,2.544l.113,1.413q-.028,29.449-.075,58.9V252.4c0,1.319.094,2.638.151,3.976-.471,1.828.4,3.9-1.017,5.558-2.958.546-2.657-1.978-2.977-3.486-1.62-7.4-1.941-14.979-2.77-22.478-1.225-11.06-2.544-22.12-3.749-33.2q-2.487-22.525-5.238-45.031c-.509-4.2-.264-8.479-1.338-12.6.132-5.2-2.317-10.061-1.978-15.28a7.193,7.193,0,0,1-.226-1.244c-.49-1.13-2.317-.452-2.6-1.922.923-1.017,2.562.057,3.391-1.168Z" transform="translate(98.069 72.997)" fill="#b47862"/>
        <path id="Tracé_328" data-name="Tracé 328" d="M195.271,135.627a14.168,14.168,0,0,1,.772,6.255c-.283,2.317.528,4.465.867,6.67.942,6.123,1.375,12.322,2.035,18.465s2.186,12.247,1.884,18.5c-.075,1.771.678,3.354.848,5.087.678,7.744,1.47,15.506,2.562,23.194,1.055,7.442,1.564,14.941,2.751,22.365.791,4.9.9,9.967,1.809,14.9.188,1.017.358,1.809,1.564,1.9-.528,1.055-1.526.867-2.431.867q-6.331,0-12.661-.038a1.65,1.65,0,0,1-.509-1.432,10.171,10.171,0,0,1,.17-1.093,14.421,14.421,0,0,0,.038-1.809c-.094-4.842-.094-9.666-.038-14.508.038-11.041.546-22.1-.132-33.1-.829-13.547-.433-27.075-.678-40.622a10.336,10.336,0,0,0-.49-3.128c-.245-7.348-.886-14.715.339-22.063a.93.93,0,0,1,1.3-.4Z" transform="translate(99.842 81.977)" fill="#c9907b"/>
        <path id="Tracé_329" data-name="Tracé 329" d="M140.865,145.036c.716,5.9.848,11.832,1.941,17.692.735,3.9.433,7.895,1.036,11.851,1.338,8.742.9,17.654,2.3,26.434.716,4.541.32,9.232.923,13.848.716,5.5,1.187,11.022,1.79,16.543a4.711,4.711,0,0,0,.659,1.394c-.358,6.161,1.752,12.058,2,18.144.019.528.264,1.036.32,1.545.075.678,0,1.357-.735,1.658s-1.262-.132-1.752-.584a4.5,4.5,0,0,1-1.206-2.468c-1.244-6.368-2.449-12.737-3.674-19.105-1.959-9.609-4.183-19.162-5.822-28.827-1.978-11.757-3.41-23.608-5.181-35.384-.528-3.523-1.394-7.009-2.2-10.495a21.434,21.434,0,0,1-.961-5.879,2.012,2.012,0,0,1,2.6-.283c2.374,3.41,2.449,7.5,3.26,11.324,2.449,11.795,3.881,23.74,5.426,35.686,1.206,3.58.264,7.48,1.526,11.06-.019,2.468.678,4.9.622,6.463-.528-2.412-.113-5.8-1.225-9.044-.057-5.257-1.206-10.382-1.7-15.6-1.036-14.225-2.261-28.432-3.429-42.638a4.208,4.208,0,0,1,2.807-3.561c.207.075.433.151.641.207Z" transform="translate(44.177 90.184)" fill="#ffc66e"/>
        <path id="Tracé_330" data-name="Tracé 330" d="M121.976,145.837c.038,3.222-1.093,6.255-1.639,9.364-1.715,9.779-3.881,19.482-5.8,29.223-1.809,9.232-3.467,18.483-5.257,27.716q-1.1,5.652-2.487,11.248a19.489,19.489,0,0,0-.622,5.521c-1.922,4.56-1.978,9.534-3.165,14.244-.6,2.431-1.074,4.9-1.639,7.329a3.051,3.051,0,0,1-.678,1.375,1.819,1.819,0,0,1-1.733.735c-.81-.207-.848-.942-.867-1.583A72.551,72.551,0,0,1,98.5,241.1c.49-4.051,1.6-8.045,1.206-12.19,1.112-9.176,1.677-18.408,3.071-27.546,1.093-7.179,1.639-14.433,2.544-21.63,1.055-8.516,2.506-16.976,3.278-25.53a15.064,15.064,0,0,1,.735-2.657c1.168-.358,1.809.3,2.318,1.225a15.788,15.788,0,0,1,.245,7.5c-2.393,14.282-3.693,28.714-5.765,43.053-1.112,7.725-2.336,15.488-2.675,23.326a21.908,21.908,0,0,0-.886,7.273,18.409,18.409,0,0,1,.829-6.8c3.41-24.984,9.063-49.553,13.83-74.292.32-1.7.471-3.429.9-5.087.791-1.639,1.846-2.732,3.844-1.922Z" transform="translate(15.698 90.834)" fill="#ffc66f"/>
        <path id="Tracé_331" data-name="Tracé 331" d="M155.615,232.188c-.678-5.389-2.2-10.608-3.3-15.9-1.357-6.613-2.751-13.208-3.787-19.878-.565-3.655-1.319-7.292-1.978-10.928-1.715-9.5-2.958-19.086-4.616-28.582-.32-1.828-.9-3.6-1.357-5.389,1.093-.886,2.186-1.771,3.561-.471,2.242,4.371,2.2,9.27,2.977,13.943C149.3,178.452,151.64,191.9,154,205.357a15.642,15.642,0,0,0,.754,5.671,28.958,28.958,0,0,1,.452,4.767c.3,1.055.433,2.167.528,2.487-.3-.377-.151-1.658-.509-2.789a26.246,26.246,0,0,0-.829-6.18,126.572,126.572,0,0,0-2.016-14.112c-1.149-15.77-3.184-31.465-4.39-47.235.4-2.035,1.507-2.883,3.561-2.129.9,5.5,1.281,11.06,1.846,16.6.942,9.364,1.3,18.785,2.77,28.092.622,3.938.377,7.932.848,11.908,1.13,9.609,1.828,19.256,2.694,28.9a37.2,37.2,0,0,0,.3,7.932,2.238,2.238,0,0,1-1.338,2.789c-1.865-3.033-1.677-6.689-3.033-9.835Z" transform="translate(53.279 90.853)" fill="#ffc66f"/>
        <path id="Tracé_332" data-name="Tracé 332" d="M86.845,199.22a5,5,0,0,0,1.413.584c4.993.339,8.441,3.146,11.324,7.367,4.9-5.464,10.966-7.4,17.843-7.179,1.036,1.865.509,3.9.49,5.86,0,2.11-1.922,2.544-3.429,2.6-3.749.132-7.329,1.055-10.985,1.658-6.387,1.074-12.812,2.035-19.218,2.977a67.363,67.363,0,0,1-11.531.339,4.931,4.931,0,0,1-3.26-1.3,3.042,3.042,0,0,1,.546-5.012,38,38,0,0,1,5.5-2.28,51.576,51.576,0,0,0,11.324-5.615Z" transform="translate(-10.519 138.29)" fill="#ffc66d"/>
        <path id="Tracé_333" data-name="Tracé 333" d="M156.679,223.7c.019-21.686,0-43.373.094-65.04.019-6.5.377-13,.584-19.52,1.564-2.732.471-5.709.829-8.554.17-1.319-.6-3.071,1.526-3.542l.094.17c1.545,1.677,1.13,3.749,1.13,5.709.038,27.414-.019,54.81.019,82.224.019,12.906-.075,25.813-.019,38.719a11.227,11.227,0,0,1-.415,4.334,2.583,2.583,0,0,1-2.525,1.62c-1.3-1.168-.754-2.732-.773-4.107-.057-9.251-.038-18.5-.075-27.753,0-1.432.358-2.92-.49-4.258Z" transform="translate(67.496 74.473)" fill="#ce9b88"/>
        <path id="Tracé_334" data-name="Tracé 334" d="M128.769,145.785c-.151,4.484-1.093,8.893-1.715,13.321-1.451,10.57-2.958,21.159-4.729,31.691-1.526,9.1-2.581,18.276-4.3,27.358-.6,3.222-.829,6.538-1.206,9.8-1.187,3.165-.735,6.708-2.242,9.816-1.922-1.149-2.393-2.958-2.449-5.049-.188-7.1.226-14.206.471-21.291.057-1.357-.057-3.015,1.9-3.429,2.355,3.486.283,7.216.6,10.815a43.472,43.472,0,0,0-1,9.5c-.151,1.093.339,2.3.17,2.544a14.122,14.122,0,0,1-.151-2.28c-.057-2.9.415-5.747.6-8.629,1.168-2.657.546-5.521.886-8.271,2.11-16.467,4.409-32.9,6.745-49.327.659-4.6.923-9.251,2.393-13.717.867-1.583,1.488-3.523,3.976-2.845Z" transform="translate(28.085 90.924)" fill="#ffc770"/>
        <path id="Tracé_335" data-name="Tracé 335" d="M114.943,204.714c-.226.452-.678.9-.678,1.357.038,7.612-1.262,15.167-.98,22.817.075,2.148,2.091,3.373,1.752,5.464a19.15,19.15,0,0,1-.886,7.066c-.245.773-.4,1.677-1.432,1.507-1.017-.17-.961-1.13-.961-1.9-.038-2,0-3.976-.019-5.973-.038-3.448-.113-6.9-.17-10.344.094-4.767.245-9.553.264-14.319.075-12.737,1.3-25.4,2.468-38.06.6-6.463,1-12.925,1.507-19.388.094-1.187-.075-2.412.7-3.448A2.533,2.533,0,0,1,118.9,151c1.055,5.916.6,11.814-.113,17.749-1.3,10.627-1.149,21.366-2.487,31.974-.188,1.432-.075,2.939-1.338,4.013Z" transform="translate(27.63 94.322)" fill="#ffc770"/>
        <path id="Tracé_336" data-name="Tracé 336" d="M227.391,236.412V252.39a10.747,10.747,0,0,0-.791.81h0c-.528.4-.3,1.168-.81,1.583-7.989.377-15.977.113-23.966-.038-4.22-.791-8.46-.3-12.7-.339-9.176-.094-18.333,0-27.508-.057-1.244,0-2.657.546-3.806-.735,1.658-1.828,3.825-1.545,5.879-1.545,12.624-.038,25.266-.207,37.871.075,6.218.132,12.379-1.809,18.634-.207,2.186.565,3.523-.754,3.636-3.071.057-1.319.038-2.657.038-3.994V141.207a22.5,22.5,0,0,1,.245-5.163c.17-.735.377-1.846,1.319-1.62,1.319.32.735,1.394.377,2.223v22.327c.622.98.4,2.073.377,3.109-.546,23.891,1.3,47.744.829,71.635a4.183,4.183,0,0,0,.4,2.694Z" transform="translate(68.513 80.975)" fill="#b47862"/>
        <path id="Tracé_337" data-name="Tracé 337" d="M226.2,143.042l-.151-1.526-.641-.057V254c0,5.652-1.093,6.613-6.613,5.351a17.145,17.145,0,0,0-8.234-.038,16.27,16.27,0,0,1-3.957.264q-21.734,0-43.486.038c-1.3,0-2.638-.32-4.051.358,1.319.773,2.638.4,3.881.4,11.7.038,23.4,0,35.1.038,1.394,0,2.958-.509,4.164.735H160.272c-1.187,0-2.449.094-2.9-1.432a2.1,2.1,0,0,1,1.846-1c1.658-1.488,3.731-1.206,5.69-1.225,8.234-.038,16.486-.207,24.72.019,9.986.264,19.915-1.036,29.882-.716,2.506.075,3.712-.9,3.731-3.429,0-1.6.057-3.184.057-4.786q0-57.231.019-114.461c0-2.355-.471-4.823,1.036-6.971,1.583.81.923,2.317,1.036,3.542.188,2.317-.226,4.578,1.262,6.858.867,1.338.283,3.618.358,5.464h-.791Z" transform="translate(68.124 74.562)" fill="#b57a64"/>
        <path id="Tracé_338" data-name="Tracé 338" d="M193.9,199.023a1.606,1.606,0,0,1,.81-1.583v1.6h-.81Z" transform="translate(100.421 136.717)" fill="#b57a64"/>
        <path id="Tracé_339" data-name="Tracé 339" d="M125.39,156.2c-.075-.113-.188-.207-.207-.32q-1.13-4.692-5.86-3.674a7.39,7.39,0,0,1-3.147-.132c-3.448-.9-6.708-.659-9.647,1.564-.188-1.545-.075-3.2-2.506-3.165-1.752.038-2.449-1.319-2.487-2.958-.057-1.846-.038-3.674-.057-5.521,5.558-.772,11.041.867,16.6.471a23.818,23.818,0,0,0,5.879-.735c1.828-1.244,3.693-.283,5.539-.057,5.049-.678,10.287-.132,15.111-2.261a9.8,9.8,0,0,1,4.616.019,10.38,10.38,0,0,0,2.261.415c.6,0,1.187.038,1.771.019,1.846-.019,3.693-.019,5.558-.038a16.011,16.011,0,0,0,3.109-.528c4.974-.546,10.174.32,14.809-2.355a4.844,4.844,0,0,1,4.126.6,16.044,16.044,0,0,1,1.677,7.593c.151,6.048-2.167,7.989-8.253,6.99-2.638.283-5.276-1.6-7.895.057l-.264-.132c-1.545.038-3.071.565-4.635.358-2.807-.358-5.087.415-6.557,2.977q-1.13-4.07-5.69-4.07c-2.487,0-4.993.094-7.461-.038a3.5,3.5,0,0,0-3.222,1.733c-3.429-2.016-7.009-.377-10.495-.377-2.073,0-1.036,2.864-2.6,3.561Z" transform="translate(18.709 83.057)" fill="#ffc66d"/>
        <path id="Tracé_340" data-name="Tracé 340" d="M85.42,104.412v-.81c2.77-.98,5.615-.188,8.422-.264a128.091,128.091,0,0,1,13.717.113c3.128,1.545,6.481.961,9.741.886,2.6-.057,4.654.6,6.218,2.675,5.37,7.066,11.531,13.434,17.522,19.934.9.98.848,1.017.132,2.336-4.032.075-7.8-1.357-11.644-2.148a228.763,228.763,0,0,0-24.268-3.5c-1.564-.151-3.109-.565-4.654-.848-.791-.98-1.6-1.941-2.393-2.92.245-.942,1.093-1.017,1.828-1.225,1.733-.49,3.241-1.338,3.486-3.26.226-1.941-1.6-2.468-2.807-3.373a2.337,2.337,0,0,1-.584-.942c-.433-2.393-2.468-2.336-4.2-2.789-2.977-.754-6.331-.113-8.931-2.336a2.859,2.859,0,0,0-1.583-1.526Z" transform="translate(4.51 53.314)" fill="#cef4ff"/>
        <path id="Tracé_341" data-name="Tracé 341" d="M137.632,158.2h-1.677c-2.091-1.112-1.809-3.015-1.507-4.842a30.468,30.468,0,0,0-.565-14.093c-1-6.218-3.429-11.682-8.158-16.015a7.3,7.3,0,0,0-4.07-2.318c-1.055-.735-2.129-1.488-3.184-2.223.546-.075,1.093-.151,1.639-.207a8.832,8.832,0,0,1,5.031-1.017c1.828,0,3.674.283,5.483-.245a6.711,6.711,0,0,1,1.187-.264c2.751-.678,4.955,1.639,7.631,1.357a43.3,43.3,0,0,1,7.781,1.47c1.658.528,3.3,1.112,4.9,1.771,1.583.791,3.354,1.244,4.654,2.525.245.207.49.433.716.659.113.094.226.207.339.32.245.188.471.377.716.546.264.151.49.32.735.49a7.323,7.323,0,0,1,1,.867c.32.3.641.622.942.942a3.631,3.631,0,0,1,.772,1.149,2.652,2.652,0,0,1,.057.942,1.451,1.451,0,0,1-.584.754,2.509,2.509,0,0,1-1.828-.641,8.422,8.422,0,0,1-.773-.659c-.132-.113-.245-.226-.377-.339-.283-.207-.546-.415-.829-.622-.151-.094-.3-.188-.452-.264-.339-.151-.659-.32-1-.471a49.247,49.247,0,0,0-5.709-2.487,44.963,44.963,0,0,1,5.106,13.453,44.18,44.18,0,0,1,.377,12.7,12.55,12.55,0,0,1-1.055,3.844c-.584,1.319-1.488,2.318-3.071,1.884s-1.357-1.809-1.187-2.977c.9-5.916-.264-11.663-1.488-17.391a24.762,24.762,0,0,0-6.858-13.114c6.67,8.629,8.384,18.37,6.689,28.922-.32,2-.678,3.957-2.544,5.181a2.168,2.168,0,0,1-2.393.452c-1.828-2.054-1.168-4.56-1.074-6.858.3-7.537-.452-14.809-3.976-21.63a20.784,20.784,0,0,0-7.254-8.422c8.4,9.59,9.8,20.537,8.422,32.143-.226,1.884-.772,3.636-2.562,4.71Z" transform="translate(33.731 65.467)" fill="#a3ceae"/>
        <path id="Tracé_342" data-name="Tracé 342" d="M41.486,171.867c3.033-.038,6.067-.038,9.082-.113,1.3-.038,2.657.264,3.825-.622l3.071-.113c.528-.414,1.225-.358,1.79-.659.452.057.923.094,1.375.151a3.3,3.3,0,0,0,.98,2.091,22.064,22.064,0,0,1,4.522,9.967c.207,1.13.226,2.355,1.375,3.184,5.445-4.164,10.834-8.554,18.408-7.5a.706.706,0,0,1,.4,0,1.3,1.3,0,0,1-.075,1.564c-.038.772-.057,1.545-.094,2.317-.678.7-.057,1.809-.791,2.487h0c-.961,1.168.226,2.826-.867,3.976l.057-.057a6.722,6.722,0,0,1-.754.867h0c-.509.415-.339,1.187-.867,1.583l.057-.057c-2.355,2.317-4.767.17-7.141.113l-1.451-.094c-.735-.6-1.865,0-2.544-.791h.038c-.942-.791-2.317.113-3.26-.754l-.3-.094-.3.038c-1.394-.49-2.807-.9-4.183-1.507l-.339-.094h-.339a26.178,26.178,0,0,1-4.9-1.47l-.377-.094H57.5c-1.6-.546-3.354-.678-4.842-1.62H52.7c-1.055-.546-2.487-.3-3.26-1.507l-.283-.113h-.3c-1.074-.622-2.3-.961-3.373-1.583l.038.038a18.852,18.852,0,0,1-2.449-1.6h.038a4.439,4.439,0,0,1-1.658-1.526h0a4.407,4.407,0,0,1-1.526-1.7v.057a3.87,3.87,0,0,1,.057-3.957l-.057.057a1.782,1.782,0,0,1,1.036-.81.542.542,0,0,0,.528-.094Z" transform="translate(-36.173 112.774)" fill="#ffc66d"/>
        <path id="Tracé_343" data-name="Tracé 343" d="M120.159,119.394a1.839,1.839,0,0,1,2.789-.283c5.445,4.767,9.609,10.287,10.024,17.88,2,6.425,1.168,12.831-.019,19.237-1.639-.17-3.429.565-4.9-.773,1.357-3.919.4-7.951-.094-11.776-.772-6.123-1.658-12.322-4.484-17.975-1.055-2.129-2.223-4.2-3.335-6.293Z" transform="translate(35.207 67.008)" fill="#d0febc"/>
        <path id="Tracé_344" data-name="Tracé 344" d="M152,148.8a23.689,23.689,0,0,1-5.539.057,119.787,119.787,0,0,0-18.54-8.742,245.574,245.574,0,0,0-27.508-9.006c-5.86-1.47-11.851-1.281-17.428,1.6a9.139,9.139,0,0,0-5.106,8.026,60.731,60.731,0,0,0,1.168,17.014c.848,3.655.226,7.423.452,11.135.264.415.132.641-.339.7-1.507-.942-1.357-2.468-1.319-3.919a52.966,52.966,0,0,0-1.225-11.418,54.693,54.693,0,0,1-.188-15.488c.4-3.787,3.165-6.425,6.594-7.932a25.805,25.805,0,0,1,8.441-2.054c6.971-.565,13.377,1.526,19.746,3.674q9.383,3.165,18.672,6.708c6.086,2.336,11.682,5.652,17.73,8.008,1.451.565,3.165.471,4.39,1.639Z" transform="translate(-3.847 75.924)" fill="#714427"/>
        <path id="Tracé_345" data-name="Tracé 345" d="M130.361,129.187c.961-.9,0-1.394-.471-1.9-3.712-3.806-7.593-7.424-10.871-11.644-1.941-2.506-4.22-4.767-6.048-7.367a6.886,6.886,0,0,0-6.312-3.278c-2.977.038-6.086.886-8.969-.678,1.752-1.168,3.881.3,5.652-.829,5.973-1.187,9.609,2.016,12.869,6.444a81.63,81.63,0,0,0,9.157,10.438,97.686,97.686,0,0,1,8.29,9.571c-1.149,0-2.374.264-3.278-.754Z" transform="translate(15.358 53.429)" fill="#acd4df"/>
        <path id="Tracé_346" data-name="Tracé 346" d="M78.65,151.584c-.3-.057-.584-.132-.886-.188a2.8,2.8,0,0,0-.094-.678,2.183,2.183,0,0,0,.339-.7,1.277,1.277,0,0,1,.659,1.564Z" transform="translate(-2.342 94.791)" fill="#dac3b6"/>
        <path id="Tracé_347" data-name="Tracé 347" d="M166.083,89.187v12.774c-.038,1.846-.094,3.693-.132,5.521a3.314,3.314,0,0,0-.584,2.261q-.028,20.857-.075,41.715c-.019.49-.057,1-.075,1.488-.659.716-.075,1.79-.735,2.487a.893.893,0,0,0-.075.659c-.622.735-.057,1.828-.754,2.525h0c-.471.415-.32,1.187-.848,1.583v-.038c-.4.471-.283,1.206-.791,1.639-2.393,3.184-5.426,5.294-9.515,5.615-1.79.641-2.374-.49-1.865-1.771,6.274-15.733,3-32.2,3.919-48.347,3.467-9.8-.584-19.557-.188-29.336a12.582,12.582,0,0,1,.057-3.147c3.071-2.242,6.858-2.317,10.344-3.316.735.188.961.829,1.244,1.413v1.262a1.735,1.735,0,0,0,0,1.941c.038,1.017.075,2.016.113,3.033Z" transform="translate(62.011 34.21)" fill="#ffc66d"/>
        <path id="Tracé_348" data-name="Tracé 348" d="M145.522,144.468l-4.051-.057a.766.766,0,0,1,.094-1.112c1.809-1.13,3.825-.7,5.765-.791,5.709-.264,7.122-1.432,8.177-6.971a9.172,9.172,0,0,1,1.206-3.712c1.13-1.074,1.846-2.77,3.806-2.6.415,4.6-.17,8.987-2.694,12.963a4.3,4.3,0,0,0-.414,2.694c.075,2.393.132,4.767.094,7.16-.057,5.709-.716,6.406-6.237,6.877-4.371.019-4.258.019-4.277-4.183,0-3.467.7-7.066-1.451-10.25Z" transform="translate(53.895 76.395)" fill="#ffc66e"/>
        <path id="Tracé_349" data-name="Tracé 349" d="M156.721,100.409c.019,10.212.433,20.424-.057,30.6-.3,6.086-.622,12.416-3.994,17.937-.754,1.244-.188,1.658.98,1.79l-.057,1.564c-1.488.6-2.92.867-4.032-.716a3.306,3.306,0,0,1,.094-3.41c3.467-5.709,3.241-12.209,3.5-18.465.358-8.441.17-16.9,0-25.342a4.027,4.027,0,0,1,3.542-3.976Z" transform="translate(60.841 50.911)" fill="#cc9745"/>
        <path id="Tracé_350" data-name="Tracé 350" d="M146.58,137.319c1.677.075,2.242,1.149,2.261,2.619.038,3.41.32,6.821-.264,10.287.886,1.244,2.883.038,3.731,1.526-.113.452-.207.923-.32,1.375a4.864,4.864,0,0,0-3.09,1.677,5.028,5.028,0,0,1-4.767,3.3,6,6,0,0,1-3.109.716c-.32-2.393-.622-4.786-.942-7.179a8.578,8.578,0,0,1,3.429-.829c2.826-.226,3.674-1.149,3.731-4.051.038-1.978.245-3.976-.509-5.916a7.041,7.041,0,0,1-.151-3.542Z" transform="translate(52.837 83.545)" fill="#c89443"/>
        <path id="Tracé_351" data-name="Tracé 351" d="M159.456,128.118c-1.545,2.562-.49,5.351-.754,8.045-.151,1.545.245,3.222-1.6,4.07q-.085-5.765-.151-11.512a2.225,2.225,0,0,1,.81-2.11c2.393-1.093,4.861-.791,7.781-.6-1.677,2.6-4.541.471-6.067,2.129Z" transform="translate(67.752 73.396)" fill="#b77d68"/>
        <path id="Tracé_352" data-name="Tracé 352" d="M150.407,128.216a2.267,2.267,0,0,1,3,0,4.682,4.682,0,0,1-.019,2.393c-1.3.452-1.394,2.468-3.109,2.355a2.384,2.384,0,0,1-.754-1.074c-.264-1.357-.4-2.675.886-3.655Z" transform="translate(61.031 75.012)" fill="#ca9644"/>
        <path id="Tracé_353" data-name="Tracé 353" d="M135.231,67.263a24.156,24.156,0,0,0-6.274.641,5.008,5.008,0,0,1-6.368-2.468.387.387,0,0,0-.132-.509,25.726,25.726,0,0,1-2.3-7.329l.075.057c-.678-.3-.49-1.13-.961-1.564h0a11.975,11.975,0,0,1-3.222-3.165h0a3.909,3.909,0,0,1-1.564-1.658l.038.038a1.412,1.412,0,0,1,.075-2.28l-.075.038a2.208,2.208,0,0,1,.81-.9l-.038.038a2.342,2.342,0,0,1,.886-.829l-.038.057a20.662,20.662,0,0,1,1.488-2.487.492.492,0,0,0,.113-.622c1.394-2.186,1.451-4.616,1.432-7.1a18.769,18.769,0,0,1,.245-5.031c2.675.415,3.806,3.071,6.086,4.145,1.432.678,2.807,1.47,4.315,2.035.339.113.678.245,1,.377a7.935,7.935,0,0,0,3.184.4c1.13,0,2.261,0,3.391-.057a6.218,6.218,0,0,0,2.789-.622c2.3-1.017,4.786-1.6,7.028-2.789,3.109-1.62,6.312-2.3,9.27.226,2.28,1.96,3.391,7.2,1.338,10-3.165,4.3-3.58,8.611-2.2,13.453,1.79,6.274,3.693,12.511,8.479,17.3a46.205,46.205,0,0,0,6.067,5.125c.923.641,2.261,1.093,1.752,2.713-2.657,4.993-2.3,10.551-2.77,15.9-.528,6.029-1.017,7.084-6.821,6.274-10.985-1.545-21.894-.961-32.8.188-3.033.32-3.881-.829-3.184-3.618,1.017-4.126.678-8.724,4.145-12a11.76,11.76,0,0,1,3.429-2.562c3.862-2,4.484-3.618,3.9-7.838a59.416,59.416,0,0,1-.17-7.1,5.253,5.253,0,0,1,.735-2.638c.546-1.338,1.488-2.92.565-4.107-.942-1.225-2.393.49-3.674.226Z" transform="translate(29.763 -9.396)" fill="#ac6e45"/>
        <path id="Tracé_354" data-name="Tracé 354" d="M127.211,66.926a57.1,57.1,0,0,0-3.5,14.64,105.011,105.011,0,0,0,16.335-1.62,8.941,8.941,0,0,1,3.165-.075c6.029,1.017,12.172.735,18.22,1.488,2.77.339,3.015.226,3-2.581-.038-4.145.829-8.177,1.244-12.247.245-2.449-.057-5.407,2.9-6.821l.509.509c1.036,4.371-.7,8.573-1.017,12.869-.471,6.18-.471,12.36-.584,18.54a29.959,29.959,0,0,0-.094,3.184c.019,2.864-1.281,4.145-4.2,3.806a158.045,158.045,0,0,0-28.639-.188,44.069,44.069,0,0,0-11.814,2.035,37.325,37.325,0,0,0,10.8.151c9.967-1.262,19.9-.358,29.845.377a5.491,5.491,0,0,1,3.938,1.677,2.556,2.556,0,0,1-.038,2.732c-2.054,1.507-4.334.942-6.519.546-10.269-1.79-20.631-1-30.956-.942a11.845,11.845,0,0,0-6.444,1.545c1.47,1.036,2.9.678,4.22.7,10.457.17,20.952-.528,31.39.81,2.751.358,5.558.358,8.121,1.639,2.091,4.635,1.036,9.647,1.639,14.451a3.713,3.713,0,0,1-.565,1.206c-7.725,3.862-16.034,6.312-24.06,9.4-3.844,1.47-7.537,3.3-11.493,4.447-2.939.848-5.577.678-7.668-1.677-2.016-2.3-5.219-3.241-6.745-6.048a2.248,2.248,0,0,1,.791-2.11c1.752-1.583.942-2.789-.415-3.976-1.017-3.731.057-7.574-.7-11.3a10.63,10.63,0,0,0,.471-8.422c-1.017-3.2-.735-6.538-.132-9.854,1.6-9.006,3.862-17.843,6.029-26.717a56.482,56.482,0,0,1,1.96-5.407c1.7.923.735,2.28,1.074,3.241Z" transform="translate(33.016 14.944)" fill="#d1ffbd"/>
        <path id="Tracé_355" data-name="Tracé 355" d="M125.269,51.7a2.77,2.77,0,0,1,1.752-1.488c3.26-.886,3.523-.565,3.146,2.789a8.324,8.324,0,0,1-2.525,5.2l-.3-.075h-.32c-1.187-1.47-1.225-3.335-1.7-5.068a.312.312,0,0,0-.075-.509V51.7Z" transform="translate(39.725 6.17)"/>
        <path id="Tracé_356" data-name="Tracé 356" d="M105.59,93.163a5.975,5.975,0,0,1,7.442,1.168c.264.264.565.6.32,1.036a.875.875,0,0,1-1.281.433,30.568,30.568,0,0,0-6.481-2.638Z" transform="translate(22.343 43.819)" fill="#744728"/>
        <path id="Tracé_357" data-name="Tracé 357" d="M109.789,106.443c-.377-.4-.773-.791-1.149-1.187l6.613-6.9-.057,1.526c.32,2.167-1.809,2.977-2.525,4.578a7.314,7.314,0,0,1-1.865,1.865,1.569,1.569,0,0,1-1.017.113Z" transform="translate(25.04 49.116)" fill="#e6d2c6"/>
        <path id="Tracé_358" data-name="Tracé 358" d="M165.348,165.669v.716c-1.884,1.941-4.352,2.28-6.839,2.393-2.77.132-5.539.057-8.328.075a35.5,35.5,0,0,0,1.47-19.067c-1.112-6.557-4.239-12.058-9.157-17.334,2.449-.038,3.674.471,4.842,1.771a27.082,27.082,0,0,1,6.444,12.6c1.093,5.012,2.242,10.061,1.922,15.3a12.1,12.1,0,0,1-.546,3.919,1.19,1.19,0,0,0,.528,1.7c.961.4,1.545-.226,1.809-1.017a22.168,22.168,0,0,0,1.413-6.557c.32-8.968-1.3-17.372-6.9-24.663-.057-.075.019-.264.038-.4q2.2-.283,9.195,3.373a8.251,8.251,0,0,1,.848.772h0c.264.264.528.546.81.791h0a5.962,5.962,0,0,0,.791.754c.528.3,1.055.584,1.6.886.659-.264.151-.584.038-.867a5.11,5.11,0,0,0-.075-.754,4.752,4.752,0,0,0-.754-.754l-.848-.848a3.971,3.971,0,0,0-.754-.735c-.245-.038-.509-.057-.754-.075-.283-.245-.565-.509-.829-.773h0a10.254,10.254,0,0,0-.791-.773c-1.394-1.206-3.184-1.658-4.767-2.468a.692.692,0,0,1-.264-.546c0-.207.038-.32.075-.32-1.47-2.713-4.371-2.355-6.708-2.845a42.445,42.445,0,0,0-13.886-1.036h0c-1.771,1.036-3.844-.245-5.615.772-1.846-.019-3.693-.057-5.539-.075.923-1.846-.264-3.052-1.432-4.07-2.77-2.412-4.5-5.822-7.631-7.895-.339-.226-.358-.942-.509-1.432,1.752-3.749,3.373-7.593,6.18-10.758,2.562.132,4.767,1.526,7.179,2.186,7.141,1.941,14.169.565,21.215-.546,4.955-.773,9.779-2.261,14.809-2.6a6.9,6.9,0,0,1,3.5.188c2.864,2.487,3.015,6.2,3.618,9.421,2.054,11.06,3,22.233,1.639,33.5-1.055,3.957-1.564,8.045-3.052,11.908-.9,2.355-1.715,4.748-3.976,6.236Z" transform="translate(30 54.403)" fill="#d1ffbd"/>
        <path id="Tracé_359" data-name="Tracé 359" d="M115.087,104.864c-1.7,1.526-3.768.471-5.652.829-7.706-.17-15.45.584-23.1-.829a4.141,4.141,0,0,0-.7-.113c-.038-.226-.094-.433-.151-.659a5.2,5.2,0,0,1-.7-.867h-.038a1,1,0,0,1,0-1.545l.038.038c.886-.019,1.319.716,1.978,1.093,1.338.81,2.789,1.564,4.371.433a30.638,30.638,0,0,0,6.632,1.338c-1.47.283-3.994-.923-6.67-1.3a17.042,17.042,0,0,1,10.4-.038c2.845,1.168,5.916-.264,8.761.81,1.413,1.394,3.2.528,4.8.791Z" transform="translate(3.595 52.052)" fill="#a3ccd8"/>
        <path id="Tracé_360" data-name="Tracé 360" d="M102.241,103.33H95.967c-.923,0-1.846.057-2.487-.81,2.9.057,5.8.094,8.7.17.075,0,.188.188.188.283a1.131,1.131,0,0,1-.132.377Z" transform="translate(11.636 52.794)"/>
        <path id="Tracé_361" data-name="Tracé 361" d="M111.749,105.474c-.32.509-.622,1.036-.942,1.545-1.281.17-1.771-.471-1.715-1.677l.358-.132a1.859,1.859,0,0,1,.773-.433,2.929,2.929,0,0,1,.9.057,1.119,1.119,0,0,1,.622.622Z" transform="translate(25.435 54.776)" fill="#496369"/>
        <path id="Tracé_362" data-name="Tracé 362" d="M103.735,102.742c-.961.9-1.79.433-3.5.6A3.717,3.717,0,0,1,103.735,102.742Z" transform="translate(17.604 52.817)" fill="#a3cdd8"/>
        <path id="Tracé_363" data-name="Tracé 363" d="M135.268,50.823c-1.338,0-2.675,0-4.013.019-.942-.829-2.28.038-3.26-.735a2.983,2.983,0,0,1-.716-.057c-.283-1.017.471-1.225,1.168-1.488a6.8,6.8,0,0,1,2.054.038c.226-.17.433.584.678,0a1.842,1.842,0,0,1-.716-.113c-.452-.057-.9-.075-1.357-.132-4.352-1.809-8.121-4.315-10.457-8.573-.452-1.715-2.694-2.789-1.79-4.974l.075-1.507h0c.452-.433.264-1.244.886-1.6l-.075.075a3.506,3.506,0,0,1,.754-.9h0a5.57,5.57,0,0,1,1.564-1.62h0c.509-.6.923-1.3,1.752-1.47l-.075.057a5.609,5.609,0,0,1,2.487-1.62l-.075.057c.283-.7,1.13-.509,1.564-.98h-.038c.471-.49,1.168-.433,1.733-.7l-.075.057c.339-.716,1.112-.565,1.677-.886l-.094.057c.9-1.13,2.374-.151,3.391-.886a.384.384,0,0,0,.565-.113,6.571,6.571,0,0,1,1.941-.659l.245.094.207-.17h10.344c.641.716,1.828,0,2.412.886l-.057-.038a2.534,2.534,0,0,0,2.581,0l-.038.038a1.693,1.693,0,0,1,.9-.829l-.094.094c.528-.961,1.752-.188,2.355-.942h0c.716-.7,1.809-.151,2.544-.754.49-.038.961-.057,1.451-.094a2.067,2.067,0,0,1,2.393.038.44.44,0,0,0,.6.075c.565.339,1.281.245,1.79.7a.347.347,0,0,0,.528.113c.6.283,1.338.245,1.865.716h0c.415.49,1.244.3,1.545.961l-.075-.057a5.005,5.005,0,0,1,2.544,2.28h0a8.494,8.494,0,0,1,.754.886l-.038-.057c.546.377.377,1.168.867,1.564h0a2.911,2.911,0,0,1,.716.942l-.075-.094c1.112.848.038,2.3.923,3.2V31.68c.9.961,0,2.336.773,3.335a.518.518,0,0,0,.075.659c1.017,2.883-.283,5.954.754,8.818v-.038c.735.678.132,1.771.754,2.468h-.038c.038,1.112-.038,2.261.791,3.165A1.658,1.658,0,0,0,176,51.633h0c.283.283.641.509.7.961l-.094-.075a1.1,1.1,0,0,1,.886.9l-.038.038a.862.862,0,0,0,.829.678.923.923,0,0,0,.867.716,1.686,1.686,0,0,0,1.507.9.919.919,0,0,0,.81.772,5.337,5.337,0,0,0,2.355,1.658.918.918,0,0,0,.961.6h0c.716.641,1.6,1.036,2.374,1.6h0a2.376,2.376,0,0,0,.735.641.51.51,0,0,0,.584.3,2,2,0,0,0,1.677.867.92.92,0,0,0,.829.754c.584.471,1.168.961,1.752,1.432.528.528,1.074,1.055,1.6,1.564v.038c.264.283.509.565.773.81h0a2.155,2.155,0,0,1,.678,1l-.075-.094a1.227,1.227,0,0,1,.9,1.074.281.281,0,0,0,.17.433,2.222,2.222,0,0,1,.641,1.112.334.334,0,0,0,.188.49,9.578,9.578,0,0,1,.641.886h-.038c.075.923.17,1.884.245,2.826a9.671,9.671,0,0,0,0,3.128,14.975,14.975,0,0,1-.075,8.912,6.267,6.267,0,0,0,.057,1.96c.151.49-.019.754-.528.791a1.927,1.927,0,0,1-1.13-1.941,20.787,20.787,0,0,0,.4-3.41,21.409,21.409,0,0,0,.773-2.864,15.411,15.411,0,0,1-.773,2.562,9.85,9.85,0,0,1-.433,3.146,9.44,9.44,0,0,1-1.394,3.26,5.963,5.963,0,0,0-1,1.564c-.094.283-.207.546-.32.829-.132.358-.283.716-.415,1.055-.094.188-.057.339.188.415a2.646,2.646,0,0,1,.641-.245.967.967,0,0,1,.754.207,1.488,1.488,0,0,1,.358,1.639,1.215,1.215,0,0,1-.49.754l.057-.057a1.931,1.931,0,0,1-.886.848l.075-.075a1.764,1.764,0,0,1-.867.867l.057-.075a3.626,3.626,0,0,1-.7.9c0,.264,0,.546-.019.81.452.415.245,1.168.791,1.545h0c.358.565,1.225.339,1.47,1.055l-.094-.094a1.273,1.273,0,0,1,.923.848l-.075-.057a9.684,9.684,0,0,1,3.222,2.487l-.094-.094a1.181,1.181,0,0,1,.9.867l-.094-.094a1.239,1.239,0,0,1,.886.886l-.094-.094a1.2,1.2,0,0,1,.867.923l-.113-.113c.735.264.546,1.112.98,1.564V109.1a1.673,1.673,0,0,1,.735.942l-.094-.113c1.036,1.733,1.036,3.787,1.715,5.615l-.038-.057c.546.377.471.961.528,1.507a4.631,4.631,0,0,1-.188,2.77q-.2.82-.452,1.639a7.415,7.415,0,0,1-4.654,5.935c-2.091,1.262.678,2.091.3,3.2-.867.867-1.978,1.451-2.789,2.374l.057-.075a5.887,5.887,0,0,1-1.62,2.487l.038-.075a.753.753,0,0,1-.735.678c-3.2,1.79-6.519,3.165-10.306,2.713-1.884-3.354-1.96-7.084-1.9-10.721a130.323,130.323,0,0,0-1.545-19.727,11.725,11.725,0,0,0-6.821-9.553c-1.922-.923-3.787-1.9-4.936-3.825l-.094-.151C159.2,89.014,153.883,80.008,151.98,68.722c-.132-.773-.377-1.545-.509-2.317-.509-2.845-1.093-5.539,1.733-7.857,2.016-1.658,2.261-4.315,2.073-6.952-.415-5.577-4.56-6.952-8.7-4.974a76.313,76.313,0,0,1-8.837,3.41c-.7.641-1.771.038-2.449.716Z" transform="translate(32.119 -20.088)" fill="#5a5665"/>
        <path id="Tracé_364" data-name="Tracé 364" d="M223.538,127.222c.057.923.151,1.865.151,2.789V253.327c0,4.786-.038,4.786-4.635,4.729-5.313-.075-10.627.433-15.94.528-14.9.226-29.788.151-44.692.188-.057-10.363-.132-20.744-.132-31.107q0-49.063.019-98.126c0-.791.038-1.6.075-2.393l64.626-.057a.714.714,0,0,0,.546.113Z" transform="translate(68.937 74.517)" fill="#fefdfd"/>
        <path id="Tracé_365" data-name="Tracé 365" d="M165.989,74.139c.283-.848.565-1.715.848-2.562.32-.207.546-.151.678.207v-.057a1.7,1.7,0,0,1,.754,1.074.371.371,0,0,0,.151.49,26.65,26.65,0,0,1-.113,7.141,1.75,1.75,0,0,0-.886,1.507,2.79,2.79,0,0,0-1,1.564.419.419,0,0,0-.452.283c-.546.546-.98,1.225-1.828,1.394h-.32l-.264.17a1.113,1.113,0,0,1-1.583-.132,10.372,10.372,0,0,1-1.658-.98c-1.262-1.13-.98-1.865,1.017-2.883,1.677,1.809,2.449.038,3.391-.886,1.244-1.187,1.225-2.845,1.451-4.39.188-.678.4-1.375-.207-1.978Z" transform="translate(70.056 25.33)" fill="#6d6a77"/>
        <path id="Tracé_366" data-name="Tracé 366" d="M158.738,63.936a1.78,1.78,0,0,0-.848-1.62c-.32-.923.151-1.715.415-2.562.961-1.074,1.187-2.525,1.846-3.768a.793.793,0,0,1,.961-.038,1.841,1.841,0,0,0,.848,1.658,1.126,1.126,0,0,1,.057,1.583.314.314,0,0,0-.151.452,2.088,2.088,0,0,1-.7,1.168h0c-.49.433-.358,1.13-.754,1.6v.038c-.584.339-.358,1.206-1.036,1.47l.094-.113c-.188.415-.433.433-.735.113Z" transform="translate(68.489 11.49)" fill="#6d6976"/>
        <path id="Tracé_367" data-name="Tracé 367" d="M100.852,110.149c3.146.829,4.315,1.828,4.239,3.693-.075,1.7-1.941,3.712-4.07,4.277a21.09,21.09,0,0,1-2.694.4,19.846,19.846,0,0,1-7.97-1.941,4.158,4.158,0,0,0-2.3-1.7c-.245-.264-.509-.528-.754-.791a7.986,7.986,0,0,0-1.752-3.052c-.075-1.13-.132-2.28-.226-3.41A2.728,2.728,0,0,1,87.1,104.61c3.9.584,7.819,1.149,11.719,1.79,2.6.433,2.732.772,2,3.749-3.26,1.884-6.406.075-9.59-.264,3.184.415,6.331,2.2,9.609.283Z" transform="translate(4.415 54.642)" fill="#ac6f46"/>
        <path id="Tracé_368" data-name="Tracé 368" d="M129.255,42.315a1.78,1.78,0,0,0-1.639.81A21.707,21.707,0,0,1,117.4,35.984a32.285,32.285,0,0,0-.772-3.749c-.433-1.451-.716-3.033.565-4.315.3,1.846,2.525,2.732,2.431,4.786.415,4.013,3.957,5.163,6.576,7.122C127.258,40.619,128.953,40.581,129.255,42.315Z" transform="translate(31.782 -13.162)" fill="#655961"/>
        <path id="Tracé_369" data-name="Tracé 369" d="M84.96,101.7v1.564h-.81V101.68h.81Z" transform="translate(3.387 52.052)" fill="#cdf3fd"/>
        <path id="Tracé_370" data-name="Tracé 370" d="M84.618,102.51c.245.283.471.584.716.867a5.052,5.052,0,0,1-.754-.038c0-.283.038-.546.057-.829Z" transform="translate(3.767 52.785)" fill="#cdf3fd"/>
        <path id="Tracé_371" data-name="Tracé 371" d="M114.17,149.725c.339-4.8.339-4.842,5.012-4.842a22.471,22.471,0,0,0,5.012-.7c1.846-.415,3.071.226,3.071,2.355a3.446,3.446,0,0,1-.339.641c-1.413.415-2.2,1.545-3.09,2.581-1.244,2.016-3.5,2.506-5.37,3.561-.452.245-.9.471-1.338.735a3.618,3.618,0,0,1-1.338.622c-.773,0-1.093-.6-1.488-1.093-.038-1.281-.075-2.581-.132-3.862Z" transform="translate(29.929 89.527)" fill="#c69343"/>
        <path id="Tracé_372" data-name="Tracé 372" d="M129.82,148.579c.075-.923.094-1.846.226-2.77a1.253,1.253,0,0,1,1.319-1.225c3.222.264,6.519-.81,9.666.641-.735.791-1.488,1.583-2.223,2.393a8.659,8.659,0,0,1-5.747,4.013l-2.317.113c-.923-.886-.848-2.054-.923-3.165Z" transform="translate(43.766 89.863)" fill="#c89546"/>
        <path id="Tracé_373" data-name="Tracé 373" d="M104.247,147.16a4.52,4.52,0,0,1,4.616-3.09c2.845,0,5.69-.057,8.177,1.658l-.339,1.413a5.324,5.324,0,0,0-3.015,1.564,21.787,21.787,0,0,1-8.026,4.842c-.546-.245-1.074-.471-1.62-.716l.188-5.69Z" transform="translate(20.973 89.53)" fill="#c89444"/>
        <path id="Tracé_374" data-name="Tracé 374" d="M114.285,149.12c.509.245,1.017.49,1.545.735a.608.608,0,0,1,.188.584c-.038.207-.094.3-.132.3a1.7,1.7,0,0,1-1.7-.961.893.893,0,0,1,.113-.659Z" transform="translate(29.927 93.995)" fill="#ffc66d"/>
        <path id="Tracé_375" data-name="Tracé 375" d="M195.521,224.878c-1-.791-.81-1.9-.772-2.939.584-19.934-1.244-39.812-.829-59.746.094-4.918,0-9.835.019-14.753,1.187,1.055.754,2.468.773,3.749.038,5.181,0,10.363.038,15.563.17,19.388,1.281,38.757.791,58.145Z" transform="translate(100.383 92.51)" fill="#b57a64"/>
        <path id="Tracé_376" data-name="Tracé 376" d="M194.32,197.83c.264-.264.528-.528.791-.81C194.848,197.284,194.584,197.548,194.32,197.83Z" transform="translate(100.793 136.345)" fill="#b57a64"/>
        <path id="Tracé_377" data-name="Tracé 377" d="M135.85,176.693c1.583-2.28.339-4.88.848-7.273a76.1,76.1,0,0,1,1.658,16c.075.98,1.074,2.28-.923,2.487q-.791-5.6-1.564-11.211Z" transform="translate(49.097 111.943)" fill="#fff1e0"/>
        <path id="Tracé_378" data-name="Tracé 378" d="M136.69,180.4c1-.565.735-1.62.923-2.487a2.53,2.53,0,0,1,.641,1.79c-.207,2.939.528,5.841.81,9.684-2.091-3.335-1.564-6.331-2.374-8.987Z" transform="translate(49.84 119.449)" fill="#ffdfb0"/>
        <path id="Tracé_379" data-name="Tracé 379" d="M101.033,189c.264-.019.528-.038.791-.038-.019,2.449-1.055,4.748-1.093,7.216C100.336,193.727,99.62,191.3,101.033,189Z" transform="translate(17.574 129.219)" fill="#f1dbd6"/>
        <path id="Tracé_380" data-name="Tracé 380" d="M147.375,182.416a2.777,2.777,0,0,0,.509-3.222c-.867-2.393-.565-4.823-.509-7.254A53.3,53.3,0,0,1,149,186.372c.245.829.678,1.771-.867,1.658-.132-1.884-1.13-3.655-.754-5.6Z" transform="translate(59.202 114.171)" fill="#fef4e7"/>
        <path id="Tracé_381" data-name="Tracé 381" d="M147.73,181.248c.659-.358.716-1.017.867-1.658,1.281,2.054.452,4.315.7,6.481a.425.425,0,0,1-.735-.038c.17-1.677-.641-3.165-.81-4.786Z" transform="translate(59.601 120.935)" fill="#ffe4bd"/>
        <path id="Tracé_382" data-name="Tracé 382" d="M148.175,183.01c.245.019.49.038.735.038,1.206.886.716,2.073.773,3.58A3.563,3.563,0,0,1,148.175,183.01Z" transform="translate(59.966 123.958)" fill="#fed699"/>
        <path id="Tracé_383" data-name="Tracé 383" d="M113.739,184.7l.9.886c.264,2.958-.886,5.784-.867,8.724-.245.4-.49.377-.754,0,.094-3.222-.641-6.5.735-9.628Z" transform="translate(28.815 125.435)" fill="#feeed7"/>
        <path id="Tracé_384" data-name="Tracé 384" d="M112.989,189.8h.754a8.272,8.272,0,0,1-.283,3.486c-.848-1.187-.415-2.355-.471-3.467Z" transform="translate(28.83 129.962)" fill="#eed0c3"/>
        <path id="Tracé_385" data-name="Tracé 385" d="M132.681,156.629c1.941-4.578,2.2-9.289,1.79-14.244a43.108,43.108,0,0,0-2.28-12,23.844,23.844,0,0,0-8.121-11.248c4.089-1.7,5.784,1.319,7.537,3.222,2.977,3.222,4.428,7.367,5.954,11.474,1.809,4.88,1.545,9.892,1.564,14.9,0,2.657,0,5.313.019,7.951A23.208,23.208,0,0,1,132.681,156.629Z" transform="translate(38.682 67.042)" fill="#d0febc"/>
        <path id="Tracé_386" data-name="Tracé 386" d="M126.99,147.587c-.433-2.939.565-5.747.848-8.629.339-3.618-.9-7.047-.829-10.608,2.3,4.616,1.828,9.5,1.149,14.338-.264,1.865-.716,3.636.339,5.37a1.241,1.241,0,0,1-1.507-.471Z" transform="translate(41.169 75.632)" fill="#d0febc"/>
        <path id="Tracé_387" data-name="Tracé 387" d="M125.259,117.844c3.26-1.7,6.764-.886,10.1-.678a29.629,29.629,0,0,1,13.453,3.994c-.942,1.036-1.922.528-2.789.7a27.949,27.949,0,0,0-4.936-1.432c-2.544-.829-5.068-1.941-7.838-.98-1.13-.038-2.355.245-3.3-.584-1.413-1.262-3.09-.942-4.71-1Z" transform="translate(39.716 65.412)" fill="#afdab1"/>
        <path id="Tracé_388" data-name="Tracé 388" d="M129.5,118.614c2.845-1.639,5.445-.773,7.97.791q.424.254.283.509c-.094.17-.188.264-.283.264a30.341,30.341,0,0,0-7.97-1.564Z" transform="translate(43.483 66.243)" fill="#c5f2b9"/>
        <path id="Tracé_389" data-name="Tracé 389" d="M133.739,119.4v-.773c1.809-.075,3.542.038,4.786,1.62v.735l-4.8-1.583Z" transform="translate(47.214 67.021)" fill="#c8f6b9"/>
        <path id="Tracé_390" data-name="Tracé 390" d="M122.27,118.158c1.715-1.432,3.749-.509,5.615-.773C126.189,118.892,124.135,117.913,122.27,118.158Z" transform="translate(37.09 65.89)" fill="#afdab1"/>
        <path id="Tracé_391" data-name="Tracé 391" d="M141.388,123.69c.414.245.772.509.509,1.074,0,0-.358-.132-.546-.207Z" transform="translate(53.96 71.511)" fill="#add8b0"/>
        <path id="Tracé_392" data-name="Tracé 392" d="M140.881,124.044c-.264-.245-.528-.509-.791-.754C140.354,123.535,140.618,123.8,140.881,124.044Z" transform="translate(52.846 71.158)" fill="#add8b0"/>
        <path id="Tracé_393" data-name="Tracé 393" d="M140.93,122.89l.754.754Z" transform="translate(53.588 70.804)" fill="#add8b0"/>
        <path id="Tracé_394" data-name="Tracé 394" d="M140.47,123.651c-.264-.264-.528-.528-.81-.791C139.924,123.124,140.188,123.388,140.47,123.651Z" transform="translate(52.466 70.778)" fill="#add8b0"/>
        <path id="Tracé_395" data-name="Tracé 395" d="M140.058,123.223c-.283-.264-.565-.509-.848-.773C139.493,122.714,139.775,122.959,140.058,123.223Z" transform="translate(52.068 70.415)" fill="#add8b0"/>
        <path id="Tracé_396" data-name="Tracé 396" d="M140.08,122.05c.245.245.49.49.754.735Z" transform="translate(52.837 70.061)" fill="#add8b0"/>
        <path id="Tracé_397" data-name="Tracé 397" d="M139.24,121.59l.829.773Z" transform="translate(52.094 69.655)" fill="#add8b0"/>
        <path id="Tracé_398" data-name="Tracé 398" d="M138.81,121.19c.264.264.528.509.791.773C139.338,121.7,139.074,121.454,138.81,121.19Z" transform="translate(51.714 69.301)" fill="#add8b0"/>
        <path id="Tracé_399" data-name="Tracé 399" d="M176.223,59.8c2,1.017,3.994,2.035,5.992,3.033,4.239,2.167,6.274,5.652,6.934,10.363a123.144,123.144,0,0,1,1.488,20.556c-.094,3.335,1.131,6.538.791,9.873a22.476,22.476,0,0,1,.754,5.841,86.256,86.256,0,0,0,1.394,14.075,25.448,25.448,0,0,1-1.47,12.756,9.74,9.74,0,0,1-3.128,3.071c-4.955,4.691-11,5.69-17.485,5.144-6.312.509-12.435,2.223-18.672,3.222-6.594,1.055-13.245,2.393-20.01.678a52.294,52.294,0,0,1-8.4-3.316c-1.922-1.9-4.239-1.79-6.576-1.149a37.444,37.444,0,0,1-6.1,1.3c-.32-.075-.641-.17-.942-.245-.886-1.375.245-1.865,1.112-2.393a23.494,23.494,0,0,1,6.8-3.052c-2.675,1.206-6.689,1.451-8.611,5.351a1.56,1.56,0,0,1-.659.094,9.264,9.264,0,0,1-.057-4.428,4.086,4.086,0,0,1,.659-.132c2.845-1.093,5.238-3.09,7.932-3.938-2.242.075-3.806,3-6.594,2.167.49-2.016,2.638-2.807,3.391-4.635,2.713-1.432,5.238-3.373,8.554-3.335.923-.509,1.828-.716,2.6.283,2.77,2.223,5.9,4.013,8.1,6.877.867,1.112,2.129.867,3.316.772,2.939-.264,5.577-1.545,8.271-2.581q13.679-5.2,27.377-10.4a18.61,18.61,0,0,1,2.3-.565,17.692,17.692,0,0,1,9.157,2.675A15.9,15.9,0,0,0,175.3,125.1c-.245-5.012-.509-10.042-.754-15.054a3.737,3.737,0,0,1,0-4.842c-.038-.772-.057-1.545-.094-2.317-1.319-1.79-.546-3.636-.32-5.539.226-1.865.509-3.844-.264-5.709a148.635,148.635,0,0,1,1.394-26.359c.264-1.809,1.168-3.523.942-5.407Z" transform="translate(25.474 15.024)" fill="#ac6e45"/>
        <path id="Tracé_400" data-name="Tracé 400" d="M156.473,154.927c-.075-.113-.188-.207-.207-.32q-.886-4.5-5.464-4.484c-1.3,0-2.6-.038-3.919-.075.019-5.276-.094-10.551.113-15.808.226-5.86-1.3-11.531-1.922-17.278a28.621,28.621,0,0,0-2.864-9.8,8.693,8.693,0,0,1,2.6-.829c5.426.094,10.118-2.2,14.9-4.315,1.074.923.81,2.186.81,3.354,0,8.234.32,16.486-.132,24.7-.264,4.691,0,9.571-2.016,14.056-.32.716-.415,1.7-.942,2.129-1.715,1.375-1.281,2.939-.716,4.6-.075,1.357-.17,2.713-.245,4.051Z" transform="translate(54.72 52.352)" fill="#ffc66d"/>
        <path id="Tracé_401" data-name="Tracé 401" d="M125.04,36.93a4.321,4.321,0,0,1-3.015,3.674,2.132,2.132,0,0,1-2.958-1.168c-.264-.6-.113-1.733.565-1.47,1.922.772,3.391-.886,5.389-1.036Z" transform="translate(34.151 -5.196)" fill="#77492a"/>
        <path id="Tracé_402" data-name="Tracé 402" d="M118.879,49.381c2.054-2.242,4.145-3.241,6.048-4.465a.913.913,0,0,1,1.375.188.832.832,0,0,1-.132,1.055c-1.752,2.035-3.994,2.92-7.31,3.222Z" transform="translate(34.076 1.665)" fill="#784a2b"/>
        <path id="Tracé_403" data-name="Tracé 403" d="M133.727,41.2a1.012,1.012,0,0,1-.735-1.319,6.205,6.205,0,0,1,2.016-3.335c.433-.358.942-.6,1.394-.151a1.338,1.338,0,0,1,.283,1.055,6.549,6.549,0,0,1-2.035,3.335A3.261,3.261,0,0,1,133.727,41.2Z" transform="translate(46.529 -5.886)" fill="#78492a"/>
        <path id="Tracé_404" data-name="Tracé 404" d="M122.68,36.04c1.13.057,2.374-.4,3.26.735C124.809,36.737,123.584,37.1,122.68,36.04Z" transform="translate(37.453 -6.021)" fill="#655961"/>
        <path id="Tracé_405" data-name="Tracé 405" d="M126.53,36.748c.622-.9,1.564-.735,2.449-.716C128.339,36.879,127.416,36.785,126.53,36.748Z" transform="translate(40.857 -6.013)" fill="#655961"/>
        <path id="Tracé_406" data-name="Tracé 406" d="M165.394,84.669v4.842c-4.465-.433-8.968-.6-13.4-1.432a9,9,0,0,0-1.583-.151c-9.571.075-19.143-.509-28.7.358-1.658.151-1.658-.791-2.054-1.733-.471-1.112,0-1.715.98-2.186a15.28,15.28,0,0,1,5.445-.942,234.753,234.753,0,0,1,27.49-.113c2.619.132,5.2.923,7.819,1.262a34.917,34.917,0,0,0,3.976.075Z" transform="translate(34.626 35.506)" fill="#a4cfae"/>
        <path id="Tracé_407" data-name="Tracé 407" d="M164.853,76.669c1.281,3.693.565,7.5.584,11.248a17.39,17.39,0,0,0-3.467-.791c-7.292-.226-14.546-1.244-21.837-.829-6.218.358-12.435.641-18.634,1.017-.923.057-1.922.6-2.11-.848-.17-1.244-.094-2.355,1.62-2.619,2.751-.415,5.464-1.507,8.177-1.451,7.047.132,14.018-1.262,21.046-.867,4.22.226,8.441.546,12.643,1.074,1.545.188,1.922-.245,1.941-1.564,0-1.47.038-2.92.057-4.39Z" transform="translate(34.489 29.922)" fill="#a3ceae"/>
        <path id="Tracé_408" data-name="Tracé 408" d="M161.321,78.15c-11.4-2.28-22.7-1.112-33.952-1.262-1.432-.019-2.845.565-4.3.7-1.112.094-2.544.415-2.845-1.319-.245-1.526.245-2.431,2-2.751,3.128-.565,6.2-1.432,9.383-1.451,6.519-.057,13.019-.094,19.538.038a58.233,58.233,0,0,1,7.876.886c2.487.415,2.77,1.093,2.3,5.2Z" transform="translate(35.233 25.821)" fill="#a3ceae"/>
        <path id="Tracé_409" data-name="Tracé 409" d="M158.293,80.653c-4.032.32-7.744-1.017-11.625-.81-6.048.32-12.1.659-18.107,1.488-2.487.339-5.031-.264-7.48.678a1.116,1.116,0,0,1-1.583-.716,1.811,1.811,0,0,1,.3-1.865,3.93,3.93,0,0,1,2.468-1.149c5.483-.678,10.89-1.771,16.505-1.828,4.315-.038,8.667-.584,13.038-.659a83.155,83.155,0,0,1,9.458.81c1.941.188,1.978,1.413,1.846,2.807-.132,1.375-.923,1.715-2.223,1.413a14.116,14.116,0,0,0-2.581-.188Z" transform="translate(34.53 29.159)" fill="#a4cfae"/>
        <path id="Tracé_410" data-name="Tracé 410" d="M119.26,100.023l-2.6-.283c.7-1.884,2.732-2.751,3.448-4.616.867-.226,1.865-.772,2.506.132.546.754-.283,1.432-.735,1.978-.81.98-1.733,1.865-2.619,2.789Z" transform="translate(32.13 45.927)" fill="#4c6b6c"/>
        <path id="Tracé_411" data-name="Tracé 411" d="M110.939,103.13c1.677-.791,3.354-1.545,5.012-2.355a5.9,5.9,0,0,1,4.936-.471c-.113.3-.151.735-.264.754a23.337,23.337,0,0,0-9.289,4.051,1.11,1.11,0,0,1-1.715-.188c.452-.584.886-1.187,1.338-1.771Z" transform="translate(25.906 50.526)" fill="#7c4d2e"/>
        <path id="Tracé_412" data-name="Tracé 412" d="M87.96,102.553c2.939-.339,5.652,1.187,8.554,1.093a11.1,11.1,0,0,1-8.535-1.112v.038Z" transform="translate(6.756 52.78)" fill="#cdf3fd"/>
        <path id="Tracé_413" data-name="Tracé 413" d="M109.673,107.836c-.057-.659-.283-1.526.283-1.884,3.6-2.355,7.066-5.219,11.908-3.957-.019,1.733-1.262,1.244-2.016,1.244-3.2.038-5.822,1.507-8.422,3.128a2.05,2.05,0,0,0-1.036,1.583h-.358l-.339-.094Z" transform="translate(25.872 52.057)" fill="#7b4c2c"/>
        <path id="Tracé_414" data-name="Tracé 414" d="M135.49,24.335c1.225-.772,2.073-.791,2.468-.4,3.429,3.354,8.29,5.332,9.892,10.419,1.432,4.578,2.713,9.119,1.281,14.018a49.961,49.961,0,0,0-2.3,15.243c.226,7.442.98,15.148,6.952,20.9a13.938,13.938,0,0,0,5.031,3.09,16.859,16.859,0,0,1,3.787,1.978c-6.858-.49-11.663-3.976-14.433-10.231-3.806-8.554-4.107-17.447-2.148-26.472a18.293,18.293,0,0,0-.094-9.025c-.6-2.167-.735-4.465-1.451-6.576-1.715-5.031-3.693-9.967-8.987-12.925Z" transform="translate(48.779 -16.907)" fill="#333145"/>
        <path id="Tracé_415" data-name="Tracé 415" d="M156.777,62.2c.151.4.17,1.338.791.622.9-1.036.848-2.468.829-3.806a18.8,18.8,0,0,1,.565-5.69c1.225,3.373,1.62,6.8.3,10.174-.867,2.223-2.751,4.277-2.864,6.481-.113,2.242,2.544,3.825,3.636,5.935,2.864,5.521,4.22,11.116,1.3,17.089-.923,1.9-1.846,3.768-3.844,4.861-.9-1.281.264-1.79.678-2.487,3.731-6.293,3.674-12.53-.226-18.691-1.281-2.016-2.751-3.881-4.164-5.8-.923-1.262-1.564-2.506-.188-3.881,1.545-1.262.565-4.239,3.184-4.786Z" transform="translate(64.082 9.303)" fill="#373548"/>
        <path id="Tracé_416" data-name="Tracé 416" d="M123.37,25.44A68.059,68.059,0,0,0,140.5,40.362a2.988,2.988,0,0,1-3.5,1.7c-6.952-1.451-12.68-5.144-17.786-9.911a1.669,1.669,0,0,1-.245-2.468c5.068,5.106,10.74,9.213,17.937,10.627a85.893,85.893,0,0,1-13.83-12.963c-.32-.377-.622-.9.32-1.9Z" transform="translate(33.786 -15.355)" fill="#383649"/>
        <path id="Tracé_417" data-name="Tracé 417" d="M155.512,64.35c-.471-1.13,1.262-3.3-1.583-3.316a1.409,1.409,0,0,1-.038-.377c.509-3.957-.791-7.706-1.432-11.587,2,1.13,1.828,3.222,2.468,4.936.829-.32.452-1.074.6-1.639,2.261,2.939,2.242,9.458,0,11.964Z" transform="translate(63.783 5.537)" fill="#3b384b"/>
        <path id="Tracé_418" data-name="Tracé 418" d="M128.028,40.069C126.05,38.3,123.28,38,121.246,36.263a16.545,16.545,0,0,1-3.184-3.41,1.556,1.556,0,0,1,.339-2.393c2.845,3.862,6.35,6.858,11.116,8.064.3.245.546.528.848.772h0c.264.188.339.358.245.528s-.188.245-.283.245Z" transform="translate(33.009 -10.917)" fill="#9f6a4a"/>
        <path id="Tracé_419" data-name="Tracé 419" d="M154.851,64.021a22.241,22.241,0,0,0,0-11.964c-.019-.791-.057-1.6-.075-2.393a.549.549,0,0,1,.867-.019h0c.433.452.283,1.168.754,1.62l.057,3.165a22.6,22.6,0,0,1,0,8.855l-.038,2.355c-1.074.829-1.3,2.073-1.733,3.241-.226.6-.057,1.9-1.451,1.545-.264-2.336,1.846-4.051,1.62-6.387Z" transform="translate(64.444 5.866)" fill="#323044"/>
        <path id="Tracé_420" data-name="Tracé 420" d="M166.348,73.875a7.084,7.084,0,0,1-1.507,5.935,4.31,4.31,0,0,1-2.864,1.96c-.735.094-1.658.471-1.941-.641-.207-.773.546-1.112.942-1.6,2.638-1.017,3.655-3.316,4.522-5.747.32-.339.622-.32.867.094Z" transform="translate(70.45 27.176)" fill="#ece9ea"/>
        <path id="Tracé_421" data-name="Tracé 421" d="M161.523,73.92c.9,4.616-.358,6.425-5.8,8.29C158.565,79.554,160.977,77.387,161.523,73.92Z" transform="translate(66.665 27.508)" fill="#383549"/>
        <path id="Tracé_422" data-name="Tracé 422" d="M156.737,52.857c-.283,0-.584,0-.867.019-1.846-2.073-2.091-4.974-3.9-7.066,3.033,1.3,3.976,2.77,4.767,7.047Z" transform="translate(63.349 2.655)" fill="#3b384b"/>
        <path id="Tracé_423" data-name="Tracé 423" d="M154.93,60.935V52.08A10.977,10.977,0,0,1,154.93,60.935Z" transform="translate(65.966 8.198)" fill="#373548"/>
        <path id="Tracé_424" data-name="Tracé 424" d="M160.543,56.394a6.651,6.651,0,0,1-1.7,3.976,1.321,1.321,0,0,1-1.074-.848.686.686,0,0,1,.415-.754c.471-1.074.961-2.148,1.432-3.222.773-.226,1.093.038.923.829Z" transform="translate(68.474 11.194)" fill="#c9c6cb"/>
        <path id="Tracé_425" data-name="Tracé 425" d="M159.179,55.588c0-1.187.6-2.186,1.206-3.768.377,1.677.735,2.77-.452,3.731-.226.377-.49.377-.772.057Z" transform="translate(69.706 7.968)" fill="#6d6976"/>
        <path id="Tracé_426" data-name="Tracé 426" d="M158.6,57.64c.226.264.471.528.7.81-.32.735-.622,1.488-.942,2.223h.019c-.113.113-.207.226-.32.358a.879.879,0,0,1-.754-.49,1.643,1.643,0,0,1,.264-1.357.578.578,0,0,0,.188-.565c.151-.433.17-1,.848-.961Z" transform="translate(68.029 13.114)" fill="#f4f1f3"/>
        <path id="Tracé_427" data-name="Tracé 427" d="M159.533,53.847a5.14,5.14,0,0,1,.772-.057c0,1.3-.038,2.619-.057,3.919-.188.038-.377.094-.565.151-.3-.283-.622-.565-.923-.829a8.9,8.9,0,0,0,.791-3.2Z" transform="translate(69.353 9.71)" fill="#97949d"/>
        <path id="Tracé_428" data-name="Tracé 428" d="M163.777,74.463l-.867-.094c.038-.49.094-1,.132-1.488a1.383,1.383,0,0,1,.735,1.583Z" transform="translate(73.022 26.588)" fill="#c5c3c8"/>
        <path id="Tracé_429" data-name="Tracé 429" d="M157.971,60.24c-1.244.659-.867-.377-.961-.923a.544.544,0,0,1,.886.151l-.057-.075a.585.585,0,0,1,.264.528c-.038.207-.075.3-.132.3Z" transform="translate(67.805 14.452)" fill="#d3d0d4"/>
        <path id="Tracé_430" data-name="Tracé 430" d="M157.9,60.08c-.3-.057-.6-.094-.886-.151a1.554,1.554,0,0,1,.773-1.47Z" transform="translate(67.805 13.839)" fill="#6d6976"/>
        <path id="Tracé_431" data-name="Tracé 431" d="M158.385,58.011l-.848.961c-.113-.791,0-1.47.886-1.752C158.4,57.484,158.385,57.748,158.385,58.011Z" transform="translate(68.239 12.743)" fill="#6d6976"/>
        <path id="Tracé_432" data-name="Tracé 432" d="M155.254,51.162a1.657,1.657,0,0,1-.754-1.6A1.608,1.608,0,0,1,155.254,51.162Z" transform="translate(65.586 5.97)" fill="#3b384b"/>
        <path id="Tracé_433" data-name="Tracé 433" d="M124.39,35.941c.019-.264.038-.528.038-.791.4.038,1,0,.98.415,0,.415-.622.358-1.017.358Z" transform="translate(38.965 -6.77)" fill="#655961"/>
        <path id="Tracé_434" data-name="Tracé 434" d="M124.808,35.513c-.283-.264-.565-.528-.848-.772C124.243,35,124.525,35.268,124.808,35.513Z" transform="translate(38.585 -7.133)" fill="#655961"/>
        <path id="Tracé_435" data-name="Tracé 435" d="M157.582,60.154c-.038-.283-.094-.565-.132-.848a5.074,5.074,0,0,1,.754-.057,1.007,1.007,0,0,1-.622.9Z" transform="translate(68.194 14.538)" fill="#6d6976"/>
        <path id="Tracé_436" data-name="Tracé 436" d="M213.669,165.78c0,.773.038,1.545.057,2.318.038,1.338-.735,1.752-1.941,1.828-1.262.075-2.6-.339-3.731.584A2.831,2.831,0,0,0,207,172.054c-.81,2.657-2.412,3.2-3.9,1.036-2.317-3.391-5.031-2.506-7.838-1.338-1.206.509-2.242,1.338-3.655.961-3.448-3.015-6.99-2.845-10.589-.3-1.338.942-3.09.565-4.484,1.319-2,1.13-3.2,3.862-6.142,3.128l-2.864.283c-2.054-.226-2.054-1.922-2.11-3.278-.283-6.632-.188-13.283-.057-19.934.057-2.826,1.451-3.787,4.315-3.768q20.123.2,40.264,0c2.562-.019,3.448.659,3.41,3.335-.057,4.089-.565,8.2.339,12.266Z" transform="translate(75.075 94.914)" fill="#c2947a"/>
        <path id="Tracé_437" data-name="Tracé 437" d="M218.656,165.956c-.98-.791-.754-1.9-.772-2.939-.019-2.525,0-5.031,0-7.555,0-4.616,0-4.635-4.465-4.654-7.028-.019-14.037-.019-21.065-.038-5.822,0-11.663-.038-17.485,0-3.184.019-3.278.094-3.3,3-.057,6.9,0,13.773,0,20.669,0,1.055-.057,2.148.961,2.864-1.6,3.052-.923,6.5-1.7,9.722a74.02,74.02,0,0,0-1.639,10.966c-.188,2.016-1.112,2.374-2.807,2.355-8.253-.057-6.651.622-6.708-6.368-.075-13.151-.038-26.284-.057-39.435,0-.659.038-1.338,0-2-.151-1.9.773-2.562,2.6-2.525,3.58.057,7.179-.057,10.758-.057q20.914,0,41.828.038c3.919,0,3.976.038,3.976,3.976,0,3.976-.075,7.97-.113,11.945Z" transform="translate(70.088 94.738)" fill="#dfb49c"/>
        <path id="Tracé_438" data-name="Tracé 438" d="M172.5,142.552c-.9,1.112-.81,2.449-.98,3.768-.735,5.5-1.62,10.985-2.355,16.486-.207,1.507-.923,1.922-2.336,2.035-7.2.6-7.2.641-7.216-6.708,0-8.761,0-17.522-.075-26.284,0-1.828.245-3.033,2.544-3,11.945.113,23.891-.32,35.836.075-.791,2.468-2.977,1.809-4.654,1.865-5.407.17-10.834.113-16.26.038-3-.038-4.352,1.13-4.239,4.2a29.378,29.378,0,0,1-.283,7.5Z" transform="translate(70.042 75.994)" fill="#dfb49c"/>
        <path id="Tracé_439" data-name="Tracé 439" d="M170.818,198.02c-.546,3.391-1.13,6.783-1.639,10.193a1.857,1.857,0,0,1-2.167,1.79c-1.733,0-3.467-.057-5.181,0-1.771.057-2.261-.848-2.261-2.468.057-8.516,0-17.033.094-25.53.019-2.864.358-3.09,3.768-3.109q17.749-.085,35.516-.094c5.445,0,10.909,0,16.354.057,1.13,0,2.431-.452,3.316.773-2.468,1.9-5.407,1.149-8.1,1.149-10.231,0-20.462,0-30.693.075-7.16.038-7.16.019-6.821,7.066-.678,3.373.528,7.141-2.167,10.08Z" transform="translate(70.069 120.216)" fill="#dfb59d"/>
        <path id="Tracé_440" data-name="Tracé 440" d="M167.009,142.495c-1.413-1.112-.942-2.675-.9-4.07.075-2.751-1.149-6.161.584-8.083,1.809-2,5.276-.678,8.008-.754,4.635-.132,9.289,0,13.943-.057,1.281,0,2.675.4,3.806-.659,5.841,0,11.663-.075,17.5-.038,3.165,0,3.222.132,3.26,3.033.038,3-.038,3.146-3.015,3.241-1.922.057-3.58,0-4.315,2.468-.433,1.451-2.242,1.187-2.845-.339a8.33,8.33,0,0,1-.245-1.959c-2.675.339-5.577-.622-8.008,1.3-1.262,1.262-4.126.886-3.768,3.787-.226.961-.358,1.978-1.62,2.186-1.583-1.375-1.055-3.2-1.074-4.9a5.375,5.375,0,0,1,.151-.961,1.138,1.138,0,0,0-.3-1.168,8.97,8.97,0,0,0-4.522.3c-1.677.151-2.77,1.375-4.032,2.261-2.3.622-4.8.867-6.161,3.278-1.62,1.96-3.9.207-5.728,1.036-.245.038-.471.075-.716.132Z" transform="translate(75.537 76.051)" fill="#c2957b"/>
        <path id="Tracé_441" data-name="Tracé 441" d="M183.505,133.289l.075,6.067c1.7,2.223.622,4.673.264,6.9-.829,5.144-.528,10.513-2.883,15.375-1.96.057-3.938.17-5.9.132-2.864-.038-3.052-.113-2.77-2.845q.763-7.631,1.922-15.205a31.526,31.526,0,0,0,.452-6.651,2.693,2.693,0,0,1-.433-1.074,2.326,2.326,0,0,1,.339-1.112c.659-1.715,2.054-2.336,3.749-2.525a12.982,12.982,0,0,1,4.352.038,1.3,1.3,0,0,1,.81.9Z" transform="translate(81.235 79.02)" fill="#8d393f"/>
        <path id="Tracé_442" data-name="Tracé 442" d="M180.995,190.3a26.073,26.073,0,0,1-5.935.245c-2.977-.019-3.071-.075-2.751-3.2.509-4.861,1.036-9.722,1.828-14.527a32,32,0,0,0,.546-7.084,2.784,2.784,0,0,1-.415-1.281,2.567,2.567,0,0,1,.509-1.262c2.977-2.864,6.293-2.223,9.666-.9a4.585,4.585,0,0,1,.942,2.638c-.961,7.668-2.393,15.28-3.165,22.986a3.3,3.3,0,0,1-1.206,2.393Z" transform="translate(81.221 104.646)" fill="#8d393f"/>
        <path id="Tracé_443" data-name="Tracé 443" d="M181.015,208.868c-1.451.075-2.9.226-4.352.226-4.842.038-4.936-.283-4.164-5.2.9-5.709,1.507-11.474,2.223-17.221a16.664,16.664,0,0,0-.019-2.374,1.961,1.961,0,0,1-.245-1.074,4.5,4.5,0,0,1,1.206-2.619,3.755,3.755,0,0,1,1.168-.49c2.431-.094,4.936-.81,7.1.923,1.055,1.752.584,3.693.791,5.558-.433,6.67-1.959,13.208-2.506,19.859A3.152,3.152,0,0,1,181,208.83Z" transform="translate(81.182 121.2)" fill="#8d393f"/>
        <path id="Tracé_444" data-name="Tracé 444" d="M189.644,133.359l.151,5.483a12.491,12.491,0,0,1-.038,6.293,52.932,52.932,0,0,0-1.281,11.437A6.6,6.6,0,0,1,186.517,162l-5.577.038c-1.96-2.92-1.281-6.2-.98-9.308.528-5.276,1.394-10.532,1.733-15.827,1.733-5.332,3.9-6.312,7.932-3.561Z" transform="translate(87.776 78.725)" fill="#ab555b"/>
        <path id="Tracé_445" data-name="Tracé 445" d="M186.529,208.921c-1.865,0-3.731.038-5.6.038-1.865-2.638-1.3-5.652-1.036-8.479.528-5.652,1.394-11.286,1.9-16.957,1.922-3.844,3.165-4.3,7.97-2.845,1.319,1.47,1.017,3.241.867,4.974-.6,6.1-2.374,12.077-2.186,18.295a6.131,6.131,0,0,1-1.941,4.974Z" transform="translate(87.783 121.223)" fill="#ab555b"/>
        <path id="Tracé_446" data-name="Tracé 446" d="M189.947,162.221a5.3,5.3,0,0,1,5.5,0,69.728,69.728,0,0,1-1.79,25.511,5.518,5.518,0,0,1-1.394,2.374h-5.558a3.508,3.508,0,0,1-.886-2.92c1.112-7.009,1.055-14.169,2.751-21.1a6.342,6.342,0,0,1,1.375-3.844Z" transform="translate(93.239 104.898)" fill="#faa4aa"/>
        <path id="Tracé_447" data-name="Tracé 447" d="M192.272,209.208h-5.558a3.829,3.829,0,0,1-.848-3.354c1.074-6.538.923-13.264,2.77-19.689.414-1.79-.132-3.636.283-5.445,2.129-1.6,4.334-1.338,6.557-.207,0,3.976,0,7.97.019,11.945-.716,3.862-.509,7.819-1.281,11.663-.358,1.809-.546,3.655-1.941,5.068Z" transform="translate(93.25 120.936)" fill="#faa4aa"/>
        <path id="Tracé_448" data-name="Tracé 448" d="M189.691,137.3a17.328,17.328,0,0,1,0-1.978c.283-2.167,1.017-2.732,3.071-2.675,1.828.057,2.6,1,2.562,2.77-.038,3.052-.038,6.086-.057,9.138-.678,3.862-.49,7.819-1.262,11.663-.358,1.809-.546,3.655-1.941,5.087h-5.558c-1.583-3.957.678-21.084,3.165-24Z" transform="translate(93.42 79.423)" fill="#faa4aa"/>
        <path id="Tracé_449" data-name="Tracé 449" d="M213.06,180.85c-2.11.283-4.334-.7-6.331.678-.188,1.47.4,3.5-1.846,3.749-2.807.283-2.261-2.261-2.826-3.825-2.374-.923-4.71-1.168-6.934.4-.546,2.261-3.919,1.017-4.277,3.486-.283.867-.245,2-1.639,1.884-.019-1.846-.038-3.712-.057-5.558a.944.944,0,0,0-.886-.791,8.016,8.016,0,0,0-1.9.075c-1.658.772-3.6-.339-5.2.754l.075-.038c-.678.546-.791,1.545-1.6,1.978-1.055.565-2.336.226-3.391.81-.3.151-.6.283-.886.452-.942.49-1.432,1.432-2.148,2.148-1.187,1.036-2.694,1.206-4.126,1.6a2.423,2.423,0,0,1-2.186-.49c-1.752-2.393-.7-5.068-.773-7.631-.019-.942.867-1.225,1.715-1.262,1.055-.038,2.11-.038,3.165-.038q21.027,0,42.035.038v1.62Z" transform="translate(75.647 120.616)" fill="#c3967d"/>
        <path id="Tracé_450" data-name="Tracé 450" d="M176.869,189.03c.414-8.573,1.922-17.014,3.391-25.455a3.967,3.967,0,0,1,4.786-.32c1.828,2.657,1.112,5.6.829,8.441-.377,3.806-1.112,7.555-1.338,11.4-.188,3.241,1.017,4.993,4.277,5.257a2.371,2.371,0,0,1,1.055.867c-1.9,1.319-4.145.98-6.048.528-2.336-.565-4.654-.452-6.971-.716Z" transform="translate(85.347 105.918)" fill="#f7d7d9"/>
        <path id="Tracé_451" data-name="Tracé 451" d="M179.47,185.219c.9-.622.754-1.639.961-2.506.848-1.752,2.562-.829,3.844-1.244a1.767,1.767,0,0,1,.9.565c.094,6.726-1.715,13.3-1.733,20.028,0,1.846-.038,3.693-.057,5.539l-6.519-.113c.113-7.518,2-14.809,2.619-22.252Z" transform="translate(85.364 122.597)" fill="#f7d7d9"/>
        <path id="Tracé_452" data-name="Tracé 452" d="M185.2,134.663c.075,6.745-1.733,13.3-1.752,20.047,0,1.846-.038,3.693-.057,5.539l-6.538-.113c.132-7.5,2-14.809,2.619-22.252.886-.622.754-1.62.942-2.487.81-1.809,2.336-1.583,3.862-1.357a2.209,2.209,0,0,1,.9.641Z" transform="translate(85.347 80.53)" fill="#f7d7d9"/>
        <path id="Tracé_453" data-name="Tracé 453" d="M169.043,184.715c.923-1.357,2.826-.528,3.825-1.715a2.165,2.165,0,0,1,2.223,1.149c-.716,3.429-.057,6.99-.81,10.419a20.667,20.667,0,0,0-.6,3.222c-1.13,2.694.188,5.784-1.394,8.384q-6.387.245-6.293-5.879v-1.168c.678-3.222.3-6.519.735-9.76.264-1.865.452-3.674,2.355-4.673Z" transform="translate(75.744 123.95)" fill="#f9a3a9"/>
        <path id="Tracé_454" data-name="Tracé 454" d="M172.362,187.49c-.4.019-.791.075-1.187.075-5.577.094-5.652.075-5.087-5.332.433-4.164,1.319-8.253,1.79-12.416.226-2.035.452-4.71,3.693-4.692a2.564,2.564,0,0,1,3.278-.188c.7.867.339,1.79.188,2.713.207,6.1-1.79,11.983-1.9,18.05a2.831,2.831,0,0,1-.754,1.79Z" transform="translate(75.629 107.533)" fill="#f9a3a9"/>
        <path id="Tracé_455" data-name="Tracé 455" d="M172.446,158.553c-.4.038-.791.094-1.187.113-5.558.132-5.973,0-5.049-5.332.923-5.426.7-11.079,2.977-16.241,1.677-1.658,3.636-1.733,5.728-.961.377,3.335-.264,6.651-.283,9.986a14.5,14.5,0,0,0-.735,3.787,15.831,15.831,0,0,0-.433,2.506c-.716,2,.452,4.3-1,6.161Z" transform="translate(75.601 82.093)" fill="#f8a2a8"/>
        <path id="Tracé_456" data-name="Tracé 456" d="M192.041,183.549c-1.922,7.631-2.054,15.506-3.128,23.25H183.28c1.055-6.839,1.074-13.792,2.449-20.594.17-.886-.057-1.865.754-2.544,1.828-1.846,3.674-1.715,5.558-.094Z" transform="translate(91.032 123.344)" fill="#feb4ba"/>
        <path id="Tracé_457" data-name="Tracé 457" d="M184.48,188.526c-.339-.057-.659-.113-1-.17a36.539,36.539,0,0,1,.622-14.922c.716-3.147-.226-6.8,2.562-9.383,1.941-.867,3.862-1.017,5.671.358-1.206,2-1.149,4.39-1.281,6.481-.377,5.879-1.526,11.644-1.865,17.522l-4.729.113Z" transform="translate(90.755 106.61)" fill="#feb5ba"/>
        <path id="Tracé_458" data-name="Tracé 458" d="M192.07,135.11c-1.225,2-1.149,4.39-1.281,6.481-.377,5.879-1.526,11.663-1.865,17.522H183.29c1.074-6.708.98-13.566,2.431-20.236.207-1-.132-2.148.848-2.92,1.715-1.13,3.693-.546,5.521-.848Z" transform="translate(91.041 81.608)" fill="#ffb5ba"/>
        <path id="Tracé_459" data-name="Tracé 459" d="M189.253,189.745c-.245-2.167.49-4.258,1.036-6.236a74.214,74.214,0,0,0,2.148-21.649c1.055.754.791,1.884.791,2.9V184.62a13.958,13.958,0,0,1-.132,1.978c-.471,3.109-.471,3.109-3.844,3.147Z" transform="translate(96.27 105.259)" fill="#fecdd2"/>
        <path id="Tracé_460" data-name="Tracé 460" d="M196.216,166.947c-1.846.038-3.693.075-5.539.094-2.449-4.729-3.2-4.88-7.216-1.62h-4.748c-.038-.791-.094-1.564-.132-2.355a.57.57,0,0,1,1-.075c.9-.075,1.978.207,2.6-.6,1.733-2.28,4.183-1.79,6.5-1.865,1.564-.038,2.9.17,2.977,2.2a1.613,1.613,0,0,0,1.733,1.733c1.036,0,1.262-.735,1.357-1.583a1.472,1.472,0,0,1,1.488-1.507c-.038.565-.867,1.168.075,1.7-.038,1.3-.057,2.6-.094,3.881Z" transform="translate(86.876 104.072)" fill="#fcf8f8"/>
        <path id="Tracé_461" data-name="Tracé 461" d="M189.256,203.161c-.283-1.884.584-3.6.886-5.389.641-3.806,1.545-7.574,2.336-11.342.339,4.71-.49,9.44.659,14.15.546,2.242-.094,2.544-3.862,2.6Z" transform="translate(96.266 126.982)" fill="#fecdd2"/>
        <path id="Tracé_462" data-name="Tracé 462" d="M189.256,155.71c-.283-1.884.584-3.6.886-5.389.641-3.806,1.526-7.574,2.317-11.361v16.467c-.829.659-2.054.207-3.2.264Z" transform="translate(96.266 85.012)" fill="#feced3"/>
        <path id="Tracé_463" data-name="Tracé 463" d="M169.317,186.086A26.4,26.4,0,0,1,170,178.3a31.609,31.609,0,0,0,.942-9.308c0-1.036-.113-2.11.678-2.977,1.13,1.187-.019,2.826.81,4.07-.245,5.012-1.62,9.911-1.677,14.96C170.749,185.822,170.052,186.1,169.317,186.086Z" transform="translate(78.674 108.937)" fill="#bd7479"/>
        <path id="Tracé_464" data-name="Tracé 464" d="M169.431,183.919c-2,3.844-1.357,8.215-2.355,12.247-.188.754-.113,1.564-.735,2.167-.339-1.6.565-3.41-.791-4.861.829-3.109,0-6.519,1.658-9.5.754-.019,1.488-.038,2.242-.075Z" transform="translate(75.356 124.745)" fill="#fcf2f2"/>
        <path id="Tracé_465" data-name="Tracé 465" d="M172.727,167.219c-1,0-2,.038-3.015.057-.377-.7-1.093-.735-1.752-.867,1.6-.7,3.391-1.074,3.994-3.128.17-.6,1-.754,1.677-.791,1.771-.038,3.862-1.62,5.031,1.112a.67.67,0,0,1-.113.565c-1.526.81-3.806-.32-4.767,1.884a1.6,1.6,0,0,1-1.055,1.187Z" transform="translate(77.487 105.383)" fill="#f5eeeb"/>
        <path id="Tracé_466" data-name="Tracé 466" d="M170.189,195.455a66.042,66.042,0,0,1,.622-11.248c-.3-.7-.264-1.3.509-1.677,1.526.961.791,2.317.622,3.561-.075,3.146.4,6.35-1.017,9.345a.44.44,0,0,1-.735.019Z" transform="translate(79.403 123.534)" fill="#ba6b71"/>
        <path id="Tracé_467" data-name="Tracé 467" d="M170.187,147.16a71.546,71.546,0,0,1,.622-10.438,1.11,1.11,0,0,1,.509-1.6c1.526.9.772,2.2.584,3.391-.094,2.336-.188,4.692-.283,7.028a11.937,11.937,0,0,0-.452,1.658h-.132C170.734,147.536,170.451,147.536,170.187,147.16Z" transform="translate(79.423 81.617)" fill="#ae5b61"/>
        <path id="Tracé_468" data-name="Tracé 468" d="M169.35,199.449a32.738,32.738,0,0,1,.791-8.78c.886-.151,1.338.094,1,1.074-.094,2.091-.188,4.183-.3,6.274a1.328,1.328,0,0,1-1.47,1.432Z" transform="translate(78.659 130.694)" fill="#bb6f75"/>
        <path id="Tracé_469" data-name="Tracé 469" d="M188.608,133.486a2.149,2.149,0,0,0-.358-.188c-4.409-1.319-5.106-.961-6.538,3.3h-.358c-.9-.9-.207-2.11-.584-3.128.3-.773.829-1.488,1.639-1.488,2.374,0,4.88-.961,7.084.716l-.886.773Z" transform="translate(88.813 78.597)" fill="#d6b5a9"/>
        <path id="Tracé_470" data-name="Tracé 470" d="M171.558,186.968c-.32-1.112.283-2.412-.735-3.373-.772-.942.226-1.187.659-1.658l-.057.038c1.262-.791,2.675-.226,4.013-.415a.911.911,0,0,1,.867.622.8.8,0,0,1-.151.678q-3.354.226-4.578,4.107Z" transform="translate(79.767 122.657)" fill="#c28588"/>
        <path id="Tracé_471" data-name="Tracé 471" d="M170.68,164.878c1.13-2.826,3.542-1.432,5.464-1.658l-.132.848q-3.335.226-4.578,4.032C170.4,167.214,171.339,165.858,170.68,164.878Z" transform="translate(79.892 106.33)" fill="#c4878b"/>
        <path id="Tracé_472" data-name="Tracé 472" d="M171.54,139.648c-.358-1.093.207-2.374-.678-3.354l-.3-.6c1.545-2.449,3.523-2.167,5.671-.923-.038.283-.094.565-.132.848q-3.316.226-4.578,4.032Z" transform="translate(79.786 80.48)" fill="#c4878b"/>
        <path id="Tracé_473" data-name="Tracé 473" d="M169.393,150.807c.132-2.129-.659-4.371.678-6.387.9.6.132,1.752.772,2.449C170.581,148.264,171.956,150.261,169.393,150.807Z" transform="translate(78.653 89.84)" fill="#bf767b"/>
        <path id="Tracé_474" data-name="Tracé 474" d="M174.186,135.21c-.132.528-.283,1.036-.415,1.564-1.828.17-3.731-.075-5.445.829a1.61,1.61,0,0,0-1.526-.754c1.47-1.658,3.938-.226,5.445-1.771a2.373,2.373,0,0,1,1.526.226A2.673,2.673,0,0,0,174.186,135.21Z" transform="translate(76.461 81.564)" fill="#f4e0df"/>
        <path id="Tracé_475" data-name="Tracé 475" d="M170.857,164.03c1.055.886.358,2.186.754,3.222-.075,1.526-.151,3.052-.226,4.6-1.225-1.168-.433-2.732-.81-4.07-.038-.772-.057-1.564-.094-2.336.113-.471.245-.942.358-1.413Z" transform="translate(79.715 107.178)" fill="#ae5a60"/>
        <path id="Tracé_476" data-name="Tracé 476" d="M170.548,141.51l.848.038c-.075,1.394.207,2.864-.7,4.126-.528-.094-.6-.641-.923-.942A5.235,5.235,0,0,1,170.548,141.51Z" transform="translate(79.063 87.267)" fill="#c38286"/>
        <path id="Tracé_477" data-name="Tracé 477" d="M170.729,192.847c-.339-.358-.659-.716-1-1.074.038-.867-.075-1.79.791-2.374.245,0,.49,0,.735-.019A4.938,4.938,0,0,1,170.729,192.847Z" transform="translate(79.052 129.59)" fill="#c38286"/>
        <path id="Tracé_478" data-name="Tracé 478" d="M169.822,143.22l.923.942c-.094,1.262-.188,2.506-.283,3.768-.867-.622-.584-1.6-.772-2.449l.113-2.261Z" transform="translate(79.016 88.779)" fill="#b05a60"/>
        <path id="Tracé_479" data-name="Tracé 479" d="M170.719,142.308a1.6,1.6,0,0,1,.452-1.658A1.328,1.328,0,0,1,170.719,142.308Z" transform="translate(79.871 86.506)" fill="#f8a2a8"/>
        <path id="Tracé_480" data-name="Tracé 480" d="M99.342,108.408a4.319,4.319,0,0,1-4.955,1.338c-2.525-.829-5.558-.32-7.367-3.165,4.013,1.338,8.064,2.355,12.3,1.828Z" transform="translate(5.925 56.384)" fill="#784a2b"/>
        <path id="Tracé_481" data-name="Tracé 481" d="M116.34,148.812a.729.729,0,0,1-.81.49A.729.729,0,0,1,116.34,148.812Z" transform="translate(31.131 93.719)" fill="#ffc66d"/>
        <path id="Tracé_482" data-name="Tracé 482" d="M144.269,94.666c5.012-1.507,9.27.415,10.853,5.2-2.939-3.26-7.216-3.561-10.871-5.2h0Z" transform="translate(56.524 45.405)" fill="#754729"/>
        <path id="Tracé_483" data-name="Tracé 483" d="M148.827,120.481a7.659,7.659,0,0,1-1.149-.132,1.439,1.439,0,0,1-.886-2.412c1.017-1.206,1.281.7,2.073.829a1.3,1.3,0,0,1-.019,1.733Z" transform="translate(58.428 66.073)" fill="#d6a04d"/>
        <path id="Tracé_484" data-name="Tracé 484" d="M148.846,112.6c-.075.415-.075,1-.773.98-.659-.019-.735-.584-.754-1.093,0-.641.075-1.375.961-1.225.509.094.6.735.565,1.319Z" transform="translate(59.238 60.503)" fill="#d39e4b"/>
        <path id="Tracé_485" data-name="Tracé 485" d="M147.69,120.141c0-.584,0-1.149.019-1.733.358-.471.867-.7,1.262-.226a1.727,1.727,0,0,1,0,2.148c-.377.471-.9.264-1.262-.207Z" transform="translate(59.565 66.412)"/>
        <path id="Tracé_486" data-name="Tracé 486" d="M175.991,164.981c-1.357-1.828-3.354-.754-5.031-1.112,3.787-.4,6.594-3.561,10.683-3.448,2.939.075,2.958-.377,4.654,2.638-.339.019-.659.057-1,.075-2.223,0-4.447.075-6.67-.019-1.451-.057-2.054.829-2.657,1.846Z" transform="translate(80.139 103.984)" fill="#f3eae6"/>
        <path id="Tracé_487" data-name="Tracé 487" d="M182.637,132.64c1.262.848.622,2.035.584,3.128-1.507.057-3.033-.151-4.409.716-.264-1.7-.377-3.26,2.129-3a1.866,1.866,0,0,0,1.7-.829Z" transform="translate(86.965 79.424)" fill="#f7f1ed"/>
        <path id="Tracé_488" data-name="Tracé 488" d="M171.216,136.735c-.546.188-1.149.735-1.526-.226.17-1.771,1.413-2.506,2.939-2.77a32,32,0,0,1,3.561-.264c.867-.132,1.319.113.98,1.074a.981.981,0,0,1-.151.565c-2.073.038-4.39-.772-5.8,1.62Z" transform="translate(79.016 80.134)" fill="#f5eeeb"/>
        <path id="Tracé_489" data-name="Tracé 489" d="M180.8,133.71l-.754-.4c-1.394-.7-2.9-.113-4.334-.377-.151-.113-.3-.207-.452-.32,2.11-.98,4.2-1.451,6.274.057a3.973,3.973,0,0,1-.678.584A1.858,1.858,0,0,0,180.8,133.71Z" transform="translate(83.941 78.599)" fill="#e3cec5"/>
        <path id="Tracé_490" data-name="Tracé 490" d="M174.12,135.731c-.32-.358-.659-.716-.98-1.074.659-1.922,1.828-3,3.994-2.374l-.038-.038c.264.17.358.339.3.528q-.113.283-.226.283c-1.809,0-2.374,1.394-3.052,2.675Z" transform="translate(82.067 78.953)" fill="#e7d4d0"/>
        <path id="Tracé_491" data-name="Tracé 491" d="M178.24,132.814c.226-.188.452-.4.678-.584C178.956,132.739,178.711,132.908,178.24,132.814Z" transform="translate(86.576 79.062)" fill="#fcf7f7"/>
        <path id="Tracé_492" data-name="Tracé 492" d="M175.3,133.047c-.019-.264-.038-.546-.057-.81,1.639.075,3.391-.641,4.823.735-1.583.038-3.165.057-4.767.094Z" transform="translate(83.923 78.961)" fill="#c2957b"/>
        <path id="Tracé_493" data-name="Tracé 493" d="M173.989,181.245c1.583-1.677,4.013-.283,5.709-1.545a1.933,1.933,0,0,0,2.167,0c.961.452.867.961.094,1.526-2.657,0-5.332.019-7.989.038Z" transform="translate(82.8 121.032)"/>
        <path id="Tracé_494" data-name="Tracé 494" d="M173.11,182.007a2.662,2.662,0,0,1,1.733-1.507,3.338,3.338,0,0,1-.81,2.6,1.09,1.09,0,0,0-.132-.4,1.158,1.158,0,0,1-.791-.716Z" transform="translate(82.04 121.739)"/>
        <path id="Tracé_495" data-name="Tracé 495" d="M190.654,185.507a5.978,5.978,0,0,0-5.558.094c-.038-1.526-.094-3.071-.132-4.6a.628.628,0,0,1,.188-.9c.848.4.848,1.187.961,1.959.132.961.471,1.733,1.62,1.79,1.3.057,1.3-.9,1.507-1.79a5.515,5.515,0,0,1,.716-1.3c1.432,1.413.528,3.165.7,4.767Z" transform="translate(92.419 121.386)" fill="#f9edec"/>
        <path id="Tracé_496" data-name="Tracé 496" d="M188.627,180.566c-.057.3-.132.6-.188.9a27.248,27.248,0,0,1-3.523-.17c-2.016-.358-2.807.791-3.335,2.412h-.358a1.927,1.927,0,0,1,.188-2.318A5.448,5.448,0,0,1,188.627,180.566Z" transform="translate(88.944 120.92)" fill="#d9b8af"/>
        <path id="Tracé_497" data-name="Tracé 497" d="M183.357,180.54c-.057.754-.132,1.526-.188,2.28-1.488.057-3.015-.132-4.371.7.075-.641-.528-1.922.735-1.62,1.733.415,2.6-.791,3.825-1.357Z" transform="translate(86.998 121.775)" fill="#faf4f3"/>
        <path id="Tracé_498" data-name="Tracé 498" d="M172.268,181.75c-.226.546-.433,1.112-.659,1.658-.132.49-.245.98-.377,1.488a1.638,1.638,0,0,1-1.6-.772,2.545,2.545,0,0,1,2.638-2.374Z" transform="translate(78.963 122.845)" fill="#efddda"/>
        <path id="Tracé_499" data-name="Tracé 499" d="M174.967,181.3c.264.245.528.471.791.716-1.583.057-3.165.132-4.748.188,1.055-1.432,2.675-.471,3.957-.886Z" transform="translate(80.183 122.447)" fill="#e4cec5"/>
        <path id="Tracé_500" data-name="Tracé 500" d="M179.2,179.69c-.716.942-1.451.961-2.186,0Z" transform="translate(85.488 121.023)" fill="#e3cdc1"/>
        <path id="Tracé_501" data-name="Tracé 501" d="M181.956,164.559c.358-1.055.038-2.562,1.62-2.845a11.664,11.664,0,0,1,4.71.038c.528.132.716.716.735,1.281.057,1.055.094,2.11.132,3.165a93.51,93.51,0,0,0-2.318,14.809c-.207,3.033-.17,6.086-1,9.044-6.463.339-5.483.452-5.483-5.294,0-5.6,1.47-11.022,1.6-16.6.038-1.187,0-2.393,0-3.58Z" transform="translate(88.399 104.934)" fill="#ab555b"/>
      </g>
    </g>
  </g>
</svg>
