<svg xmlns="http://www.w3.org/2000/svg" width="450.174" height="470.55" viewBox="0 0 450.174 470.55">
  <g id="b" transform="translate(-7.983 -3.425)">
    <path id="Tracé_502" data-name="Tracé 502" d="M391.382,41.142l.042,2.57a.658.658,0,0,1-.292,1.065c-2.966.021-5.411-1.629-8-2.695-12.3-4.993-25.09-5.661-38.1-4.45a88.024,88.024,0,0,0-32.046,9.589c-4.575,2.319-6.6,5.912-6.685,10.926-.146,8.837,2.4,17.13,5.16,25.34,8.816,26.26,23.022,49.03,44.038,67.331a61.713,61.713,0,0,0,18.76,11.594c4.095,1.546,7.709,1.483,11.072-1.588a14.965,14.965,0,0,1,3.969-2.486c1.149-.5,2.194-.627,2.925.689,1.421,2.778,1.316,5.787,1.358,8.753.251,16.19-1.107,32.339-1.734,48.508-.877,22.9,1.379,45.709,2.006,68.542.5,18.279,1.4,36.6,4.136,54.754a12.081,12.081,0,0,0,.564,2.465c.857,2.361-.146,4.429-1.065,6.518-9.108,20.515-16.357,41.781-24.943,62.5-.627,1.546-2.34,3.865-.146,4.742,1.546.606,2.235-2.173,2.82-3.656,6.957-17.569,14.686-34.8,21.434-52.436.669-1.713.585-4.408,3.531-4.471,2.068,5.432,2.9,11.239,4.847,16.713a76.908,76.908,0,0,0,3.343,8.273c1.128,7.709-.042,15.5.857,23.23,1.421-4.826-.585-10.007,1.5-14.749.543-.46,1.086-.564,1.546.1a9.028,9.028,0,0,1,.669,2.089c.1.292.209.606.313.9.125.272.251.543.376.836.146.251.292.5.46.752.188.23.334.46.5.689a3.236,3.236,0,0,1,.439.731c.209.355.376.731.564,1.107a49558.356,49558.356,0,0,1,.71,1.462,4.614,4.614,0,0,1,.376.71,4.721,4.721,0,0,1,.355.731,7.785,7.785,0,0,0,.334.731,2.59,2.59,0,0,0,.585.585,2.248,2.248,0,0,1,.5.669c.167.23.292.48.46.71.188.23.355.439.522.669a5.3,5.3,0,0,1,.48.71c.146.251.292.5.418.752.167.23.313.48.48.71a3.817,3.817,0,0,0,.272.334,3.863,3.863,0,0,1,.48.71,5.222,5.222,0,0,1,.313.794,7.805,7.805,0,0,0,.418,1.17l.439.689a3.412,3.412,0,0,1,.4.71,1.752,1.752,0,0,1,.167.794,1.546,1.546,0,0,0,.439,1.107h0c.5.439.334,1.253.877,1.692h0c.292.313.355.752.585,1.086a3.99,3.99,0,0,0,.669.5,2.683,2.683,0,0,1,.606.585,5.3,5.3,0,0,1,.48.71c.146.251.292.48.46.731.188.23.355.46.522.689a5.673,5.673,0,0,1,.5.731c.146.251.292.522.418.794.146.251.272.522.418.794.146.251.272.522.4.794.146.251.272.522.4.794.146.251.251.522.376.794.125.251.251.5.4.773.146.23.272.5.4.752.146.23.272.48.418.731.167.209.334.439.5.669a4.908,4.908,0,0,1,.48.669,4.828,4.828,0,0,1,.376.731c.125.23.251.48.376.71a4.615,4.615,0,0,1,.376.71c.125.23.251.46.376.71a7.563,7.563,0,0,0,.46.669,4.892,4.892,0,0,1,.5.648,4.055,4.055,0,0,1,.439.71c.146.23.292.46.439.71a7.966,7.966,0,0,1,.5.669,4.054,4.054,0,0,1,.48.689,8.145,8.145,0,0,1,.4.731l.439.689s.251.334.251.313a1.881,1.881,0,0,1,.418.71,2.535,2.535,0,0,1,.23.773,1.729,1.729,0,0,0,.71.961,2.954,2.954,0,0,1,.4.71c.125.23.251.48.376.71a7.763,7.763,0,0,1,.4.71c.146.23.272.48.4.71.167.23.313.46.46.669a4.058,4.058,0,0,1,.48.689,1.549,1.549,0,0,1,.167.815,1.51,1.51,0,0,0,.439,1.128h0c.272.292.564.585.836.877h0c.5.46.355,1.253.857,1.692h0a7.638,7.638,0,0,0,1.128.669,3.27,3.27,0,0,1,.48.71c.146.23.313.48.46.71l.251.334a5.077,5.077,0,0,1,.5.669,3.461,3.461,0,0,1,.376.731c.188.376.355.731.543,1.107a4.153,4.153,0,0,1,.355.752c.125.251.251.5.4.752a4.279,4.279,0,0,1,.4.752c.146.251.292.48.439.731a8.193,8.193,0,0,1,.522.669,3.14,3.14,0,0,1,.48.689,8.133,8.133,0,0,1,.4.731l.439.689s.251.334.251.313a3.99,3.99,0,0,1,.5.669,4.827,4.827,0,0,1,.376.731c.188.376.355.731.543,1.086a4.724,4.724,0,0,1,.355.731c.125.23.251.48.376.731a8.152,8.152,0,0,1,.4.731c.146.23.272.48.418.71.167.209.334.439.5.669a4.058,4.058,0,0,1,.48.689,4.212,4.212,0,0,1,.376.752c.188.376.4.752.585,1.128.146.251.272.522.418.794a6.486,6.486,0,0,1,.418.857,5.466,5.466,0,0,1,.272,1,3.794,3.794,0,0,1-.251,1.671,4.514,4.514,0,0,1-.71,1.065,5.455,5.455,0,0,1-2.34,1.5,7.7,7.7,0,0,1-1.546.251c-5.661-.167-11.511-.857-16.942-.376-10.926.982-21.81-.877-32.715.689-5.035.731-10.362,0-15.564,0-4.659,0-9.3-.439-13.955.251-4.471.669-9-.125-13.474-.251-12.493-.376-24.985-.46-37.457-.084-12.263.376-24.484-.209-36.7,0-5.035.084-10.111-.94-15.125.272h-5.1a7.308,7.308,0,0,1-8.544,0h-1.713a4.473,4.473,0,0,1-5.975,0h-2.57a5.332,5.332,0,0,1-6.831,0H226.471a3.065,3.065,0,0,1-4.262,0H205.141a1.816,1.816,0,0,1-2.57,0H196.6c-3.7,1.128-7.291-.5-10.968-.48-35.807.1-71.634.063-107.441.063-21.016,0-42.011-1.253-63.027-.857a3.65,3.65,0,0,1-2.047-.4H10.587c-.292-.313-.606-.585-.877-.857h0c-.272-.292-.564-.585-.857-.877h0c-1.024-1.441.355-2.3.815-3.384a5.513,5.513,0,0,0,.021-.836c1.065-1.316,1.5-2.987,2.57-4.283h0c.292-.272.543-.585.836-.857,0-.272.021-.543,0-.815.292-.292.543-.606.857-.9h0c.292-.272.543-.585.836-.857.021-.272.021-.543.021-.815.292-.292.564-.606.836-.877.522-.46.355-1.253.857-1.713h0c.648-.794,1.065-1.755,1.692-2.57,0-.272.021-.543,0-.815.292-.292.543-.606.857-.9h0c.292-.272.543-.585.836-.857.021-.272.021-.543.021-.836.292-.292.564-.585.836-.877h0c.522-.46.355-1.253.857-1.713h0c.648-.794,1.086-1.734,1.713-2.57h0c.648-.794,1.086-1.734,1.713-2.57.522-.439.355-1.253.877-1.692h0c.272-.292.564-.564.836-.857h0c.522-.439.355-1.253.877-1.692h0c.292-.272.543-.585.836-.857.021-.272.021-.543.021-.815.292-.292.564-.606.836-.877h0c.292-.272.564-.564.836-.836.021-.272.042-.564.042-.836.627-.815,1.065-1.755,1.713-2.59h0c.522-.46.355-1.253.877-1.692h0c.292-.272.543-.585.836-.857a5.309,5.309,0,0,0,.021-.815,15.746,15.746,0,0,1,3.405-5.16c0-.272.021-.543,0-.815.292-.292.543-.606.857-.9h0c.272-.272.564-.564.815-.857.021-.272.042-.564.042-.836.648-.815,1.086-1.755,1.692-2.57.522-.46.355-1.253.857-1.713h0c.292-.272.543-.564.836-.857.021-.272.021-.564.021-.836.627-.815,1.065-1.776,1.692-2.59,0-.272.021-.543,0-.815.292-.292.543-.606.857-.9h0c.272-.272.543-.564.815-.857.021-.272.042-.564.042-.836.627-.815,1.065-1.776,1.713-2.59h0c.648-.794,1.086-1.734,1.692-2.57h0c.648-.794,1.065-1.734,1.692-2.549.021-.272.021-.543.021-.815.292-.292.564-.606.836-.9h0c.522-.46.355-1.253.857-1.713h0c.5-.46.355-1.233.836-1.713h0a.891.891,0,0,1,1.253.251c1.671,3.468.292,7.312,1.441,10.884.376-7.416.209-14.832.355-22.249.1-4.659-.731-9.38.648-13.976,2.235-1.316,2.214.669,2.382,1.817a42.517,42.517,0,0,1,.1,8.147c2.883-6.246,3.593-13.224,6.225-19.616,2.966-.606,2.946,2.047,3.551,3.572,5.452,13.892,11.636,27.471,16.984,41.384,1.525,3.99,3.363,7.834,5.1,11.72.439.961.877,2.549,2.256,1.943,1.3-.564.5-1.985.251-3.071-.125-.564.084.125-.146-.4-7.521-18.091-13.976-36.621-21.664-54.65-1.4-3.259-2.528-6.643-4.178-9.8a4.1,4.1,0,0,1-.125-4.095c1.776-15.793,3.447-31.566,4.032-47.484.627-16.733,1.462-33.467,2.131-50.2.543-13.746.439-27.534-.23-41.322a414.377,414.377,0,0,1,.1-45.563c.355-.794.752-1.546,1.859-1.253a4.983,4.983,0,0,1,2.214,1.253c6.476,6.539,13.182,4.262,19.763.376,17.068-10.09,29.644-24.63,40.152-41.134a153.336,153.336,0,0,0,20.41-48.989,55.021,55.021,0,0,0,1.274-9.714c.272-5.62-1.734-10.174-7.186-12.931a90.636,90.636,0,0,0-37.708-9.672c-12.534-.522-24.672,1.233-36.162,6.56-1.17.543-2.382.982-3.677.272a.717.717,0,0,1-.084-1.149V36.8c-.731-9.213-1.5-18.426-1.316-27.68.042-2.319,1.191-3.259,3.05-3.865h2.549c1.483-.773,3.071-.376,4.6-.376,16-.042,32,0,48.028-.042,1.525,0,3.113.4,4.575-.418h5.933c1.462.815,3.071.418,4.6.418,21.747.021,43.515.146,65.262-.042,8.189-.084,16.378.188,24.567.1,13.307-.146,26.615-.167,39.922.042,5.828.1,11.594-1.609,17.381-.794,8.92,1.274,17.862.439,26.782.689,1.379.042,2.841.376,4.178-.4h5.933a2.714,2.714,0,0,0,1.609.439H384.55a4.065,4.065,0,0,0,1.233-.272,5.757,5.757,0,0,1,3.092-.167,8.137,8.137,0,0,1,3.447,1.588,4.328,4.328,0,0,1,.669,1.4c-1.107,6.936,0,13.976-.94,20.912v5.1c-1.128,2.486.272,5.223-.836,7.709Z" transform="translate(0 0)" fill="#cefaf7"/>
    <path id="Tracé_502_-_Contour" data-name="Tracé 502 - Contour" d="M290.323,3.425a24.35,24.35,0,0,1,3.423.225,89.158,89.158,0,0,0,12.452.725c1.717,0,3.464-.023,5.154-.046s3.441-.046,5.163-.046c1.454,0,2.748.017,3.957.05.3.009.6.031.887.052.37.027.752.055,1.12.055A3.634,3.634,0,0,0,324.386,4l.116-.067h6.224l.129.09a2.223,2.223,0,0,0,1.323.349H384.55a3.142,3.142,0,0,0,.941-.2l.135-.043a6.252,6.252,0,0,1,3.355-.18l.023.006a8.546,8.546,0,0,1,3.649,1.7l.037.033.03.04a4.781,4.781,0,0,1,.749,1.56l.031.108-.018.111a66.029,66.029,0,0,0-.524,10.785,72.312,72.312,0,0,1-.41,10.081v5.172l-.045.1a7.569,7.569,0,0,0-.381,3.637,9.656,9.656,0,0,1-.248,3.53l.045,2.766a1.176,1.176,0,0,1,.13.873,1.255,1.255,0,0,1-.689.774l-.107.056h-.18a14.38,14.38,0,0,1-6.2-1.854c-.633-.3-1.288-.612-1.934-.878A71.347,71.347,0,0,0,355.65,37.61c-3.359,0-6.82.17-10.579.52a87.018,87.018,0,0,0-31.866,9.537c-4.291,2.175-6.329,5.508-6.412,10.488-.144,8.7,2.346,16.873,5.134,25.173,9.1,27.092,23.863,49.672,43.892,67.113a60.947,60.947,0,0,0,18.608,11.5,13.082,13.082,0,0,0,4.611.962,8.549,8.549,0,0,0,5.947-2.451,15.35,15.35,0,0,1,4.1-2.573l0,0a3.953,3.953,0,0,1,1.572-.4,2.214,2.214,0,0,1,1.989,1.3l.008.015c1.35,2.64,1.377,5.464,1.4,8.2q0,.389.009.778c.173,11.147-.426,22.453-1,33.386-.263,4.965-.534,10.1-.73,15.148-.576,15.044.215,30.312.981,45.077.4,7.679.81,15.619,1.025,23.433.475,17.327,1.3,35.946,4.131,54.694a11.551,11.551,0,0,0,.539,2.367c.888,2.447-.049,4.565-.954,6.613l-.123.279c-5.292,11.92-10.036,24.3-14.624,36.277-3.3,8.623-6.72,17.54-10.315,26.218-.119.293-.27.6-.431.931-.441.9-.941,1.926-.7,2.553a1.141,1.141,0,0,0,.707.6.655.655,0,0,0,.236.049c.7,0,1.276-1.613,1.659-2.681.1-.266.185-.517.275-.744,3.083-7.787,6.371-15.634,9.55-23.222,3.995-9.535,8.126-19.394,11.882-29.209a10.872,10.872,0,0,0,.346-1.146,6.909,6.909,0,0,1,.948-2.366,3.184,3.184,0,0,1,2.693-1.28l.352-.008.125.329a79.187,79.187,0,0,1,2.6,8.852c.657,2.608,1.337,5.3,2.248,7.871a77.051,77.051,0,0,0,3.32,8.219l.035.071.011.078a74.826,74.826,0,0,1,.521,11.572,12.046,12.046,0,0,1,.888-3.22l.047-.106.088-.075a1.753,1.753,0,0,1,1.127-.489,1.383,1.383,0,0,1,1.154.692l.014.021.012.022a6.992,6.992,0,0,1,.6,1.755c.034.141.07.286.107.426s.1.289.152.436.1.284.147.421c.118.255.239.519.36.8.138.236.268.458.415.681.13.161.24.318.346.471.049.07.1.14.149.211a3.7,3.7,0,0,1,.486.8c.154.264.285.535.412.8.05.1.1.206.152.31.143.263.265.514.363.746.137.252.254.492.349.716a5.049,5.049,0,0,1,.376.711,5.343,5.343,0,0,1,.371.77c.1.235.19.457.3.656a2.09,2.09,0,0,0,.456.449l.021.015.019.017a2.725,2.725,0,0,1,.6.78c.085.12.158.24.228.356s.131.215.2.311c.193.236.356.441.521.668a5.87,5.87,0,0,1,.516.764c.142.243.287.492.415.744.082.114.157.23.23.342s.146.224.22.326c.025.032.051.065.077.1a1.817,1.817,0,0,0,.15.183l.033.037a4.276,4.276,0,0,1,.541.8,5.691,5.691,0,0,1,.344.87c.023.073.046.149.07.225a5.756,5.756,0,0,0,.307.846l.416.654a3.933,3.933,0,0,1,.438.783,2.235,2.235,0,0,1,.212,1v.024a1.031,1.031,0,0,0,.3.734,2.083,2.083,0,0,1,.538,1.035,1.152,1.152,0,0,0,.294.618l.027.022.024.026a2.42,2.42,0,0,1,.447.767,2.681,2.681,0,0,0,.156.333,3.325,3.325,0,0,0,.537.4l.022.013.02.015a3.186,3.186,0,0,1,.708.684,5.864,5.864,0,0,1,.516.764c.126.216.26.429.431.686.188.231.354.459.515.681a6.181,6.181,0,0,1,.537.785c.167.286.311.56.43.815.09.157.172.318.252.475.051.1.1.205.158.306.152.262.281.539.4.807.149.258.275.53.4.794a6.045,6.045,0,0,1,.284.587c.032.074.065.148.1.222.119.239.241.481.378.736a6.93,6.93,0,0,1,.339.632l.062.126c.092.146.174.3.255.442.046.083.093.169.141.252.162.2.322.424.477.637a5.44,5.44,0,0,1,.512.714,5.286,5.286,0,0,1,.405.783c.061.112.121.228.18.34s.118.226.176.333a5.14,5.14,0,0,1,.4.747c.118.217.239.44.36.68a7.038,7.038,0,0,0,.406.593,5.349,5.349,0,0,1,.527.68,4.487,4.487,0,0,1,.467.754c.134.21.271.427.41.662a5.805,5.805,0,0,1,.372.49l.113.16a4.572,4.572,0,0,1,.517.743,8.42,8.42,0,0,1,.406.745l.414.651c.052.07.113.149.154.2l.057.063a2.381,2.381,0,0,1,.511.858,3,3,0,0,1,.255.858,1.246,1.246,0,0,0,.52.663l.051.038.04.05a3.342,3.342,0,0,1,.458.806c.061.112.121.228.18.341s.118.226.176.333c.135.214.263.443.4.717.113.18.211.364.306.542l.079.148c.1.135.186.267.272.4.053.079.1.156.156.23a4.632,4.632,0,0,1,.519.748l.015.028a2.048,2.048,0,0,1,.22,1.054,1.006,1.006,0,0,0,.292.759l.013.013c.132.143.274.289.411.431s.277.287.412.433a2.189,2.189,0,0,1,.554,1.066,1.263,1.263,0,0,0,.278.6,3.01,3.01,0,0,0,.614.375c.145.074.3.151.446.243l.062.038.049.054a3.744,3.744,0,0,1,.544.8c.069.108.142.219.214.331s.151.231.221.342l.226.3a5.6,5.6,0,0,1,.528.7,3.909,3.909,0,0,1,.417.8c.092.185.181.367.266.543s.169.349.258.527a4.658,4.658,0,0,1,.377.795c.12.24.234.467.366.695a4.873,4.873,0,0,1,.421.793c.064.109.128.214.2.325s.132.216.2.33c.185.21.348.433.506.65a3.644,3.644,0,0,1,.526.757c.15.238.276.489.4.732l.414.651c.052.07.113.148.154.2l.057.064a4.54,4.54,0,0,1,.556.742,5.31,5.31,0,0,1,.4.784c.061.123.12.243.179.363.116.236.225.458.342.681a5.092,5.092,0,0,1,.374.766c.122.225.243.467.361.7.149.238.275.488.4.731.075.119.143.239.208.355s.121.213.182.311c.163.205.326.428.483.644a4.579,4.579,0,0,1,.518.743,4.72,4.72,0,0,1,.407.81c.089.176.184.357.277.533s.2.372.291.561c.092.159.175.323.256.481.05.1.1.2.156.3a7,7,0,0,1,.444.909l.009.021a6,6,0,0,1,.3,1.091l0,.026,0,.026a4.3,4.3,0,0,1-.283,1.886l-.015.035a5.016,5.016,0,0,1-.786,1.181l-.012.013a5.964,5.964,0,0,1-2.553,1.638l-.012,0a8.212,8.212,0,0,1-1.646.269l-.027,0h-.027c-1.754-.052-3.552-.155-5.291-.255-2.471-.142-5.025-.288-7.479-.288-1.509,0-2.854.054-4.113.166-2.314.208-4.746.3-7.653.3-2.419,0-4.873-.069-7.246-.136s-4.809-.135-7.21-.135a73.567,73.567,0,0,0-10.578.652,36.081,36.081,0,0,1-5.188.33c-1.738,0-3.517-.083-5.237-.163s-3.486-.162-5.209-.162c-1.312,0-2.64-.035-3.925-.069s-2.6-.069-3.89-.069a41.04,41.04,0,0,0-6.067.383,26.7,26.7,0,0,1-3.972.27c-1.805,0-3.634-.136-5.4-.268-1.377-.1-2.8-.209-4.188-.248-7.312-.22-14.108-.327-20.778-.327-5.69,0-11.291.082-16.65.243-2.842.087-5.914.13-9.39.13-3.587,0-7.229-.045-10.751-.088s-7.148-.088-10.719-.088c-2.11,0-4.024.015-5.851.046-.2,0-.407,0-.615,0-1.48,0-2.981-.084-4.432-.166s-2.928-.164-4.384-.164a23.379,23.379,0,0,0-5.585.582l-.058.014h-5.011a7.766,7.766,0,0,1-8.835,0h-1.4a4.921,4.921,0,0,1-6.308,0h-2.243a5.782,5.782,0,0,1-7.15,0h-13.33a3.509,3.509,0,0,1-4.607,0H205.314a2.261,2.261,0,0,1-2.916,0h-5.728a10.131,10.131,0,0,1-2.913.4,25.451,25.451,0,0,1-4.1-.445,24.807,24.807,0,0,0-3.958-.434h-.068c-21.552.063-43.222.071-59.693.071q-11.94,0-23.879,0t-23.872,0c-9.078,0-18.3-.238-27.221-.467s-18.127-.467-27.189-.467c-3.028,0-5.843.025-8.608.078h-.009a4.319,4.319,0,0,1-2.184-.4H10.369l-.148-.159c-.167-.179-.347-.349-.521-.513-.115-.108-.233-.22-.345-.331l-.013-.013c-.267-.287-.56-.581-.844-.864l-.03-.03-.024-.034c-.944-1.329-.231-2.348.289-3.092a5.132,5.132,0,0,0,.442-.707,4.57,4.57,0,0,0,.014-.676l-.014-.2.124-.153a11.165,11.165,0,0,0,1.22-2.045,11.789,11.789,0,0,1,1.352-2.24l.021-.026.025-.023c.133-.123.258-.258.391-.4.093-.1.188-.2.288-.3q0-.035,0-.07a4.887,4.887,0,0,0,0-.492l-.018-.229.163-.163c.117-.117.227-.238.344-.366.163-.178.331-.363.525-.544.134-.124.26-.26.393-.4.1-.1.193-.208.3-.312.008-.192.008-.387.008-.591v-.207l.146-.146c.142-.143.284-.295.421-.442s.275-.3.415-.436l.023-.022a1.22,1.22,0,0,0,.288-.626,2.158,2.158,0,0,1,.532-1.052,10.869,10.869,0,0,0,.834-1.263c.225-.377.457-.766.727-1.135,0-.039,0-.077,0-.115a4.848,4.848,0,0,0,0-.492l-.018-.229.163-.163c.117-.117.227-.237.343-.366.163-.179.331-.363.526-.545.133-.124.259-.259.392-.4.1-.1.193-.208.3-.312.008-.2.008-.4.008-.612v-.207l.146-.146c.287-.287.56-.581.823-.864l.017-.019.019-.017a1.221,1.221,0,0,0,.288-.626,2.157,2.157,0,0,1,.532-1.052,12.128,12.128,0,0,0,.873-1.3c.249-.406.506-.827.807-1.228l.013-.016a11.85,11.85,0,0,0,.893-1.325c.249-.406.506-.827.807-1.228l.034-.046.044-.037a1.165,1.165,0,0,0,.279-.6,2.066,2.066,0,0,1,.573-1.071c.136-.146.276-.285.411-.421s.275-.275.4-.415l.021-.023.024-.02a1.165,1.165,0,0,0,.279-.6,2.047,2.047,0,0,1,.587-1.083c.13-.121.253-.254.384-.395.1-.1.193-.208.3-.312.008-.192.008-.387.008-.591v-.207l.146-.146c.143-.143.284-.295.421-.442s.275-.3.415-.435l.013-.013c.187-.173.37-.361.547-.543l.144-.147c.015-.208.027-.42.027-.615v-.17l.1-.135a13.509,13.509,0,0,0,.806-1.223A14.544,14.544,0,0,1,31.5,428.3l.029-.038.036-.031a1.215,1.215,0,0,0,.287-.612,2.042,2.042,0,0,1,.588-1.078c.13-.121.253-.254.384-.395.1-.1.2-.21.3-.315a3.817,3.817,0,0,0,.007-.549l-.008-.1.034-.1a15.649,15.649,0,0,1,3.381-5.189c0-.031,0-.062,0-.093a4.887,4.887,0,0,0,0-.492l-.018-.229.163-.163c.116-.116.227-.237.343-.365.161-.176.327-.359.519-.538.231-.231.466-.467.677-.7.015-.214.028-.432.028-.632V416.5l.109-.137a12.635,12.635,0,0,0,.889-1.337c.246-.406.5-.826.794-1.22l.031-.042.04-.035a1.221,1.221,0,0,0,.288-.626,2.115,2.115,0,0,1,.561-1.08c.16-.148.31-.308.47-.477.07-.074.142-.15.216-.227.009-.2.009-.413.009-.619v-.17l.1-.135a12.961,12.961,0,0,0,.814-1.248c.241-.4.49-.816.777-1.207q0-.058,0-.115a4.868,4.868,0,0,0,0-.492l-.018-.229.163-.163c.117-.117.227-.238.344-.366.161-.176.327-.359.518-.538.223-.224.452-.468.677-.709.015-.211.027-.426.027-.624v-.17l.1-.135a12.979,12.979,0,0,0,.788-1.2,13.153,13.153,0,0,1,.93-1.4l0,0a11.839,11.839,0,0,0,.923-1.379c.234-.387.475-.786.752-1.168l.017-.023a10.957,10.957,0,0,0,.857-1.282c.227-.375.46-.762.733-1.132.01-.206.01-.415.01-.634v-.207l.146-.146c.189-.19.375-.394.555-.592.09-.1.179-.2.267-.293l.017-.018.019-.017a1.22,1.22,0,0,0,.288-.626,2.115,2.115,0,0,1,.561-1.08,1.276,1.276,0,0,0,.287-.631,2.261,2.261,0,0,1,.533-1.067l.048-.048.059-.034a1.564,1.564,0,0,1,.77-.22,1.418,1.418,0,0,1,1.118.592l.037.045.025.052a8.949,8.949,0,0,1,.735,2.317c.02-1.79.027-3.569.035-5.327.011-2.67.023-5.43.077-8.148.031-1.374-.022-2.784-.073-4.147-.123-3.273-.25-6.657.742-9.963l.056-.188.169-.1a3.018,3.018,0,0,1,1.482-.5,1.357,1.357,0,0,1,1.306.934,5.341,5.341,0,0,1,.3,1.4c.015.123.029.24.044.347a30.933,30.933,0,0,1,.231,5.392c.924-2.522,1.606-5.143,2.271-7.7a71.506,71.506,0,0,1,2.871-9.278l.1-.246.261-.053a4.537,4.537,0,0,1,.9-.1c2.079,0,2.567,1.758,2.923,3.041a9.552,9.552,0,0,0,.292.935c2.557,6.515,5.32,13.069,7.993,19.406,3.025,7.173,6.152,14.591,8.994,21.983,1.146,3,2.494,5.967,3.8,8.838.425.936.864,1.9,1.29,2.858.056.122.111.253.169.391.333.787.622,1.39,1.06,1.39a.943.943,0,0,0,.37-.092c.548-.238.523-.639.162-1.8-.071-.23-.145-.469-.2-.7-.009-.043-.018-.08-.024-.113-.029-.054-.059-.118-.092-.2l0-.009c-3.493-8.4-6.809-17.037-10.016-25.388-3.7-9.638-7.529-19.6-11.646-29.258-.483-1.126-.941-2.283-1.384-3.4a66.365,66.365,0,0,0-2.777-6.359,4.6,4.6,0,0,1-.168-4.478c1.785-15.881,3.434-31.454,4.018-47.351.348-9.3.768-18.748,1.173-27.888.325-7.314.66-14.876.957-22.314.528-13.359.451-27.247-.23-41.278a411.768,411.768,0,0,1,.1-45.617l.005-.091.037-.083c.27-.6.722-1.614,1.861-1.614a2.294,2.294,0,0,1,.583.081h0A5.494,5.494,0,0,1,78.1,158.8c2.655,2.68,5.471,3.983,8.611,3.983,3.816,0,7.64-1.969,10.544-3.684,15.2-8.989,27.91-22.008,39.984-40.972A153.476,153.476,0,0,0,157.587,69.3a54.738,54.738,0,0,0,1.263-9.627c.285-5.89-1.977-9.966-6.913-12.463a90.651,90.651,0,0,0-37.5-9.619c-1.394-.058-2.789-.088-4.144-.088A74,74,0,0,0,78.5,44.1a5.94,5.94,0,0,1-2.474.687,3.405,3.405,0,0,1-1.653-.431l-.045-.024-.039-.033a1.3,1.3,0,0,1-.507-.905,1.223,1.223,0,0,1,.247-.8V36.817l-.09-1.127c-.692-8.7-1.407-17.687-1.226-26.582.052-2.857,1.745-3.792,3.395-4.33l.076-.025H78.7a5.2,5.2,0,0,1,2.37-.478c.409,0,.818.027,1.213.052s.763.05,1.132.05c8-.021,16.137-.021,24.006-.021s16.009,0,24.02-.021c.392,0,.786.025,1.168.049s.749.048,1.115.048a4.029,4.029,0,0,0,2.051-.451l.113-.063h6.193l.113.063a4.053,4.053,0,0,0,2.061.451c.369,0,.753-.024,1.124-.048s.777-.049,1.167-.049c5.438.005,10.968.017,16.316.029,7.176.016,14.6.032,21.894.032,10.4,0,19-.032,27.048-.1,1.067-.011,2.163-.016,3.349-.016,2.982,0,6.013.035,8.944.068s5.955.068,8.932.068c1.183,0,2.277-.005,3.342-.016,6.884-.076,13.222-.112,19.377-.112,7.222,0,13.947.05,20.558.154.169,0,.341,0,.513,0a60.281,60.281,0,0,0,6.722-.508A60.719,60.719,0,0,1,290.323,3.425ZM306.2,5.375a90.1,90.1,0,0,1-12.593-.735,23.362,23.362,0,0,0-3.283-.216,59.967,59.967,0,0,0-6.672.5,61.035,61.035,0,0,1-6.835.514c-.178,0-.356,0-.53,0-6.605-.1-13.325-.154-20.542-.154-6.151,0-12.485.037-19.366.112-1.069.011-2.165.016-3.352.016-2.982,0-6.013-.035-8.943-.068s-5.956-.068-8.933-.068c-1.183,0-2.275.005-3.34.016-8.053.07-16.651.1-27.057.1-7.3,0-14.72-.016-21.9-.032-5.348-.012-10.877-.023-16.314-.029-.358,0-.721.023-1.1.047s-.787.05-1.187.05a5.156,5.156,0,0,1-2.43-.514H136.14a5.126,5.126,0,0,1-2.419.514c-.4,0-.794-.025-1.178-.05s-.743-.047-1.1-.047c-8.011.021-16.15.021-24.022.021s-16,0-24,.021c-.4,0-.807-.026-1.2-.052s-.771-.05-1.148-.05a4.189,4.189,0,0,0-2.02.421l-.109.057H76.347c-1.6.534-2.593,1.3-2.631,3.374-.18,8.847.534,17.813,1.223,26.484l.093,1.187v6.166l-.127.142a.387.387,0,0,0-.122.223.341.341,0,0,0,.121.18,2.373,2.373,0,0,0,1.125.282,4.983,4.983,0,0,0,2.053-.595A70.509,70.509,0,0,1,93.876,38.06,83.808,83.808,0,0,1,110.29,36.5c1.37,0,2.778.03,4.186.088a94.939,94.939,0,0,1,19.465,2.8,90.071,90.071,0,0,1,18.447,6.927,13.234,13.234,0,0,1,5.956,5.606,15.016,15.016,0,0,1,1.5,7.8,55.736,55.736,0,0,1-1.286,9.8A154.706,154.706,0,0,1,150.462,95a156.007,156.007,0,0,1-12.376,23.669,151.2,151.2,0,0,1-17.675,23.047,111.3,111.3,0,0,1-10.587,9.843,99.63,99.63,0,0,1-12.057,8.405c-3.014,1.78-6.994,3.823-11.053,3.823-3.421,0-6.469-1.4-9.319-4.277a4.491,4.491,0,0,0-1.991-1.123,1.3,1.3,0,0,0-.323-.047c-.4,0-.615.291-.911.94a410.953,410.953,0,0,0-.1,45.416c.682,14.06.759,27.978.23,41.366-.3,7.44-.633,15-.958,22.319-.406,9.138-.825,18.588-1.173,27.881-.587,15.964-2.243,31.588-4.035,47.522l-.011.1-.048.087a3.6,3.6,0,0,0,.131,3.621,67.118,67.118,0,0,1,2.821,6.455c.44,1.113.9,2.264,1.374,3.377,4.124,9.672,7.955,19.647,11.66,29.293,3.192,8.31,6.492,16.9,9.963,25.259l.119.206a.592.592,0,0,1,.076.286c0,.024.011.054.02.092.044.189.109.4.178.623a4.829,4.829,0,0,1,.3,1.554,1.581,1.581,0,0,1-1.02,1.461,1.922,1.922,0,0,1-.77.176c-1.136,0-1.624-1.156-1.981-2-.056-.131-.108-.256-.159-.368-.426-.956-.865-1.922-1.289-2.856-1.31-2.885-2.664-5.868-3.82-8.893-2.835-7.376-5.96-14.786-8.981-21.953-2.675-6.344-5.44-12.9-8-19.428a10.241,10.241,0,0,1-.325-1.035c-.4-1.437-.729-2.309-1.959-2.309a3.181,3.181,0,0,0-.443.033,72.853,72.853,0,0,0-2.724,8.895,62.151,62.151,0,0,1-3.406,10.486l-1.073,2.326.144-3.066a39.378,39.378,0,0,0-.124-7.544c-.017-.119-.032-.241-.048-.371-.119-.985-.241-1.453-.611-1.453a1.812,1.812,0,0,0-.805.27,30.053,30.053,0,0,0-.644,9.446c.052,1.378.105,2.8.074,4.206-.053,2.708-.065,5.465-.076,8.131-.02,4.63-.04,9.417-.279,14.132l-.138,2.73-.837-2.6a16.478,16.478,0,0,1-.548-5.116,12.824,12.824,0,0,0-.841-5.647c-.16-.18-.269-.18-.306-.18a.51.51,0,0,0-.213.057,1.652,1.652,0,0,0-.234.579,2.165,2.165,0,0,1-.574,1.1,1.28,1.28,0,0,0-.273.608,2.132,2.132,0,0,1-.57,1.093c-.081.088-.163.177-.245.268-.143.157-.29.319-.443.478,0,.212-.005.429-.022.649l-.011.149-.091.118a12.364,12.364,0,0,0-.763,1.163,11.974,11.974,0,0,1-.929,1.385c-.249.345-.467.706-.7,1.088a12.783,12.783,0,0,1-1,1.493,12.252,12.252,0,0,0-.854,1.288c-.233.385-.474.782-.749,1.157-.006.235-.023.475-.041.7l-.013.174-.119.128c-.27.291-.549.592-.828.87l-.012.012c-.165.154-.312.316-.468.487-.072.079-.145.159-.221.239,0,.124,0,.244,0,.363,0,.09,0,.175,0,.259v.17l-.1.135a12.963,12.963,0,0,0-.813,1.247c-.241.4-.489.815-.775,1.205,0,.229,0,.474-.022.707l-.014.184-.131.131c-.113.113-.223.23-.33.343-.164.174-.333.353-.519.526a1.277,1.277,0,0,0-.275.61,2.161,2.161,0,0,1-.548,1.072c-.253.345-.477.714-.713,1.1a14.963,14.963,0,0,1-.855,1.3c-.006.234-.023.472-.041.7l-.013.163-.106.124c-.262.306-.568.612-.838.882l-.015.014c-.165.154-.313.316-.469.487-.071.078-.144.159-.22.239,0,.124,0,.244,0,.363,0,.09,0,.175,0,.259v.189l-.125.142a15.459,15.459,0,0,0-3.275,4.9,6.393,6.393,0,0,1-.027.783l-.015.195-.143.133c-.133.123-.258.259-.392.4s-.284.306-.444.454l-.019.017a1.156,1.156,0,0,0-.281.6,2.153,2.153,0,0,1-.549,1.053,14.186,14.186,0,0,0-.819,1.244c-.238.391-.484.794-.766,1.177-.006.235-.023.475-.041.7l-.014.184-.131.131c-.088.088-.177.179-.266.271-.184.188-.373.383-.575.571-.125.125-.251.26-.384.4-.1.1-.2.212-.3.319,0,.212-.005.429-.022.649l-.015.195-.143.133c-.133.123-.259.259-.392.4s-.284.306-.444.454l-.019.017a1.164,1.164,0,0,0-.279.6,2.066,2.066,0,0,1-.573,1.071c-.136.145-.276.285-.411.421s-.276.276-.405.415l-.021.023-.024.02a1.164,1.164,0,0,0-.279.6,2.1,2.1,0,0,1-.55,1.05c-.261.353-.5.737-.724,1.11a12.854,12.854,0,0,1-.964,1.427c-.271.362-.514.759-.749,1.143a12.78,12.78,0,0,1-.972,1.436l-.023.028-.027.024a1.279,1.279,0,0,0-.273.608,2.131,2.131,0,0,1-.571,1.094c-.22.237-.447.481-.687.726,0,.226,0,.445-.022.668l-.015.195-.143.133c-.133.123-.259.259-.392.4s-.284.306-.444.454-.312.315-.468.486c-.072.078-.145.159-.22.239,0,.124,0,.244,0,.363,0,.09,0,.175,0,.259v.17l-.1.135a11.941,11.941,0,0,0-.763,1.173,11.534,11.534,0,0,1-.938,1.407l-.023.028-.027.024a1.28,1.28,0,0,0-.273.608,2.121,2.121,0,0,1-.578,1.1c-.123.124-.248.258-.379.4-.1.1-.2.212-.3.319,0,.212-.005.429-.022.649l-.015.195-.143.133c-.133.123-.258.259-.392.4s-.284.306-.444.455-.311.315-.467.486c-.072.079-.145.159-.221.239,0,.124,0,.244,0,.363,0,.09,0,.175,0,.259v.218l-.16.148c-.133.123-.259.259-.392.4s-.268.289-.418.43a11.025,11.025,0,0,0-1.212,2.031,12.967,12.967,0,0,1-1.216,2.072c.005.251-.013.484-.03.711l-.006.081-.032.075a5.334,5.334,0,0,1-.575.96c-.536.767-.8,1.205-.316,1.907.278.278.564.565.832.853.1.1.205.2.317.3.135.128.274.259.413.4h2.46l.123.078a3.248,3.248,0,0,0,1.777.319c2.769-.052,5.588-.078,8.62-.078,9.075,0,18.3.238,27.215.467s18.13.467,27.2.467q11.935,0,23.872,0t23.879,0c16.47,0,38.139-.008,59.688-.071h.072a25.557,25.557,0,0,1,4.12.447,24.7,24.7,0,0,0,3.937.432,9.111,9.111,0,0,0,2.694-.376l.071-.022h6.23l.139.115a1.325,1.325,0,0,0,1.931,0l.139-.115h17.425l.138.111a2.573,2.573,0,0,0,3.633,0l.138-.111h14l.131.1a4.837,4.837,0,0,0,6.244,0l.131-.1h2.9l.135.1a3.979,3.979,0,0,0,5.365,0l.135-.1h2.03l.123.079a7.42,7.42,0,0,0,4.01,1.3,7.344,7.344,0,0,0,3.993-1.3l.124-.08H270.8a24.431,24.431,0,0,1,5.761-.6c1.484,0,2.986.084,4.44.166,1.438.081,2.924.164,4.376.164.2,0,.4,0,.6,0,1.833-.031,3.753-.047,5.868-.047,3.577,0,7.214.045,10.732.088s7.158.088,10.739.088c3.466,0,6.527-.042,9.359-.129,5.368-.162,10.98-.244,16.68-.244,6.68,0,13.486.107,20.807.327,1.409.04,2.845.146,4.233.25,1.75.13,3.559.265,5.328.265a25.721,25.721,0,0,0,3.825-.259,42,42,0,0,1,6.215-.394c1.307,0,2.634.035,3.916.069s2.6.069,3.9.069c1.747,0,3.531.083,5.256.163,1.709.08,3.476.162,5.191.162a35.1,35.1,0,0,0,5.045-.32,74.541,74.541,0,0,1,10.721-.662c2.415,0,4.867.069,7.238.135s4.813.135,7.218.135c2.877,0,5.28-.1,7.564-.3,1.289-.114,2.663-.169,4.2-.169,2.482,0,5.052.148,7.536.29,1.723.1,3.5.2,5.236.253a7.231,7.231,0,0,0,1.413-.228,4.976,4.976,0,0,0,2.115-1.362,3.989,3.989,0,0,0,.62-.926,3.312,3.312,0,0,0,.214-1.413,4.943,4.943,0,0,0-.239-.878,5.987,5.987,0,0,0-.38-.781l-.014-.025c-.061-.114-.118-.226-.173-.334-.08-.158-.156-.307-.236-.445l-.015-.028c-.092-.183-.191-.372-.288-.555s-.2-.38-.3-.573l-.02-.044a3.726,3.726,0,0,0-.331-.663l-.01-.017a3.646,3.646,0,0,0-.42-.607l-.017-.019-.015-.021c-.162-.223-.328-.451-.487-.65l-.017-.021-.015-.023c-.08-.126-.152-.254-.222-.377s-.129-.229-.2-.333l-.014-.022-.012-.023a7.7,7.7,0,0,0-.372-.686l-.014-.022-.012-.023c-.121-.242-.246-.492-.368-.715l-.012-.023-.01-.024a4.312,4.312,0,0,0-.315-.655l-.02-.035c-.128-.242-.243-.477-.365-.726-.06-.122-.12-.245-.183-.371l-.014-.031a4.305,4.305,0,0,0-.336-.655l-.01-.017a3.416,3.416,0,0,0-.428-.572,3.632,3.632,0,0,1-.292-.362l-.022-.031-.453-.711-.012-.023a7.685,7.685,0,0,0-.372-.686l-.014-.022-.012-.023a2.649,2.649,0,0,0-.4-.579l-.017-.019-.015-.021a7.738,7.738,0,0,0-.49-.628l-.034-.038-.026-.044c-.071-.121-.141-.236-.214-.357s-.149-.244-.224-.374l-.02-.035-.015-.038a3.816,3.816,0,0,0-.352-.663l-.01-.016c-.154-.265-.285-.527-.412-.78l-.019-.044a3.67,3.67,0,0,0-.31-.663l-.014-.022-.012-.023c-.1-.191-.186-.378-.274-.559s-.176-.363-.269-.548l-.014-.031a3.052,3.052,0,0,0-.319-.629l-.017-.026a4.588,4.588,0,0,0-.451-.6l-.028-.034-.272-.366c-.072-.113-.149-.231-.226-.349s-.159-.244-.234-.361l-.014-.022-.012-.023a2.811,2.811,0,0,0-.357-.545c-.1-.058-.206-.112-.316-.168a3.81,3.81,0,0,1-.817-.513,2.088,2.088,0,0,1-.581-1.081,1.325,1.325,0,0,0-.284-.619l-.029-.028c-.133-.143-.275-.29-.412-.432s-.281-.292-.419-.44a2.017,2.017,0,0,1-.577-1.474v-.036a1.043,1.043,0,0,0-.109-.542,3.593,3.593,0,0,0-.412-.592l-.02-.023-.017-.025c-.061-.087-.121-.177-.183-.269-.087-.129-.177-.262-.271-.392l-.019-.026-.016-.028c-.033-.06-.066-.122-.1-.184-.09-.168-.182-.342-.281-.5l-.014-.022-.012-.023a7.193,7.193,0,0,0-.371-.665l-.017-.029c-.065-.119-.13-.243-.192-.363s-.123-.236-.184-.347l-.013-.023-.01-.024a2.606,2.606,0,0,0-.291-.545,2.192,2.192,0,0,1-.84-1.2l-.009-.045a2.024,2.024,0,0,0-.183-.625l-.018-.037-.012-.04a1.363,1.363,0,0,0-.3-.51,3.669,3.669,0,0,1-.291-.361l-.022-.032-.453-.711-.012-.023a7.688,7.688,0,0,0-.372-.686l-.01-.017a3.643,3.643,0,0,0-.42-.607l-.017-.019-.015-.021c-.047-.064-.092-.129-.137-.193a4.611,4.611,0,0,0-.332-.436l-.034-.038-.026-.044c-.142-.243-.288-.472-.429-.694l-.014-.022-.012-.023a3.556,3.556,0,0,0-.382-.622l-.017-.021-.014-.023a4.381,4.381,0,0,0-.451-.582l-.019-.022a7.988,7.988,0,0,1-.491-.712l-.014-.022-.012-.023c-.121-.242-.24-.461-.367-.692l-.013-.023-.011-.026a4.093,4.093,0,0,0-.336-.634l-.017-.029c-.065-.119-.13-.244-.193-.364s-.123-.236-.183-.346l-.012-.023-.01-.024a4.315,4.315,0,0,0-.336-.655,4.476,4.476,0,0,0-.43-.6l-.017-.019-.015-.021c-.161-.221-.327-.45-.487-.65l-.023-.029-.018-.032c-.06-.1-.117-.206-.171-.3-.08-.146-.156-.284-.237-.41l-.014-.022-.012-.023-.076-.154a6.026,6.026,0,0,0-.3-.553l-.018-.031c-.149-.277-.278-.534-.4-.782l-.009-.018c-.038-.082-.074-.164-.11-.245a5.019,5.019,0,0,0-.244-.506l-.022-.042c-.124-.269-.241-.522-.375-.751l-.022-.042c-.125-.27-.241-.522-.375-.752l-.008-.015c-.061-.114-.118-.226-.173-.334-.08-.158-.156-.307-.236-.445l-.022-.042c-.107-.232-.24-.485-.4-.751a5.162,5.162,0,0,0-.456-.666l-.017-.023c-.16-.22-.325-.448-.5-.667l-.029-.039c-.189-.283-.336-.517-.475-.757a4.848,4.848,0,0,0-.436-.646l-.017-.023a2.138,2.138,0,0,0-.477-.461,4.565,4.565,0,0,1-.728-.548l-.044-.04-.034-.049a3,3,0,0,1-.283-.559,1.72,1.72,0,0,0-.237-.45,2.066,2.066,0,0,1-.595-1.1,1.223,1.223,0,0,0-.264-.581l-.026-.023-.023-.026a2.026,2.026,0,0,1-.561-1.444,1.249,1.249,0,0,0-.114-.56l-.014-.031a2.909,2.909,0,0,0-.34-.608l-.017-.026-.453-.711-.012-.023a6.423,6.423,0,0,1-.379-1.023c-.022-.073-.045-.147-.068-.22a4.716,4.716,0,0,0-.284-.721,3.293,3.293,0,0,0-.406-.6,2.773,2.773,0,0,1-.221-.268c-.023-.03-.045-.06-.067-.088l-.014-.018c-.091-.125-.174-.253-.255-.376s-.15-.23-.226-.334l-.024-.034-.019-.037c-.118-.236-.255-.472-.4-.722a4.848,4.848,0,0,0-.437-.648l-.017-.023c-.157-.216-.315-.415-.5-.646l-.017-.023c-.1-.131-.175-.263-.252-.389s-.136-.223-.207-.321l-.024-.033-.018-.037a1.751,1.751,0,0,0-.372-.5,3.1,3.1,0,0,1-.672-.678l-.019-.026-.016-.028a8.162,8.162,0,0,1-.356-.777,4.33,4.33,0,0,0-.316-.657l-.023-.036-.017-.04a4.1,4.1,0,0,0-.336-.634l-.023-.036-.017-.04a7.349,7.349,0,0,0-.333-.684l-.013-.023-.01-.024a7.361,7.361,0,0,0-.333-.684l-.008-.016c-.055-.11-.108-.22-.161-.33-.128-.263-.248-.512-.387-.748l-.023-.044a2.754,2.754,0,0,0-.372-.624l-.017-.023c-.058-.079-.113-.159-.168-.238-.1-.149-.2-.291-.316-.429l-.029-.039c-.175-.262-.327-.523-.474-.775l-.016-.027-.013-.031c-.123-.286-.249-.559-.37-.823l-.017-.041c-.053-.147-.105-.3-.158-.452s-.1-.3-.156-.446l-.012-.04c-.041-.156-.08-.313-.117-.465a6.264,6.264,0,0,0-.495-1.489c-.113-.158-.219-.238-.315-.238a.707.707,0,0,0-.395.183c-1.042,2.445-.97,4.989-.895,7.681a21.957,21.957,0,0,1-.54,6.9l-.693,2.354-.283-2.438a88.072,88.072,0,0,1-.352-11.074,78.968,78.968,0,0,0-.492-12.064,78.448,78.448,0,0,1-3.33-8.255c-.927-2.612-1.612-5.331-2.275-7.962a81.789,81.789,0,0,0-2.438-8.4c-1.636.186-1.967,1.441-2.347,2.879a11.751,11.751,0,0,1-.38,1.251c-3.761,9.826-7.894,19.693-11.892,29.235-3.177,7.584-6.463,15.426-9.542,23.2-.083.212-.171.456-.263.714-.534,1.49-1.2,3.343-2.6,3.343a1.655,1.655,0,0,1-.6-.12,2.1,2.1,0,0,1-1.272-1.172c-.4-1.034.2-2.266.733-3.352.153-.312.3-.608.4-.872,3.592-8.669,7.005-17.579,10.307-26.2,4.592-11.987,9.341-24.381,14.643-36.324l.123-.279c.864-1.954,1.679-3.8.929-5.866a12.413,12.413,0,0,1-.589-2.563c-2.834-18.8-3.665-37.454-4.141-54.813-.214-7.8-.626-15.736-1.024-23.408-.767-14.787-1.56-30.077-.982-45.167.2-5.057.468-10.194.731-15.162.578-10.917,1.175-22.205,1-33.319q-.006-.392-.009-.783c-.027-2.733-.052-5.314-1.29-7.742-.386-.69-.8-.779-1.111-.779a3.028,3.028,0,0,0-1.172.312,14.374,14.374,0,0,0-3.834,2.4,9.5,9.5,0,0,1-6.62,2.712,14.052,14.052,0,0,1-4.965-1.026,61.926,61.926,0,0,1-18.912-11.685,144.96,144.96,0,0,1-26.685-30.786,155.209,155.209,0,0,1-9.831-17.682,173.6,173.6,0,0,1-7.667-19.08c-2.817-8.386-5.333-16.646-5.186-25.508a13.163,13.163,0,0,1,1.729-6.722,12.335,12.335,0,0,1,5.23-4.641,97.3,97.3,0,0,1,15.641-6.362,83.2,83.2,0,0,1,16.585-3.279c3.79-.353,7.28-.524,10.671-.524a72.328,72.328,0,0,1,27.668,5.009c.673.277,1.34.594,1.985.9a13.59,13.59,0,0,0,5.692,1.757c.065-.045.088-.078.09-.089A.382.382,0,0,0,391,43.98l-.076-.119-.036-2.218h-.446l.314-.705a7.623,7.623,0,0,0,.368-3.608,8.625,8.625,0,0,1,.424-4V28.3l0-.033a71.322,71.322,0,0,0,.405-9.974,67.492,67.492,0,0,1,.518-10.835,3.754,3.754,0,0,0-.528-1.1,7.8,7.8,0,0,0-3.2-1.442,5.251,5.251,0,0,0-2.814.156l-.008,0-.135.043a4.009,4.009,0,0,1-1.248.252H332.177a3.241,3.241,0,0,1-1.757-.439h-5.655a4.789,4.789,0,0,1-2.287.5c-.4,0-.8-.029-1.193-.058-.292-.021-.569-.042-.843-.05-1.2-.034-2.483-.05-3.928-.05-1.715,0-3.461.023-5.15.046S307.921,5.375,306.2,5.375Z" transform="translate(0 0)" fill="#707070"/>
    <path id="Tracé_503" data-name="Tracé 503" d="M55.274,349.71c0,11.908-.042,23.815-.042,35.723,0,.857.063,1.713.021,2.549-.063,1.024-.251,2.089-1.588,2.026a1.871,1.871,0,0,1-1.734-2.047c-.1-2.131-.084-4.262-.125-6.372-.042-2.131-.125-4.241-.188-6.372-.815-13.788-1.379-27.576-1.17-41.384.021-1.671.334-3.384-.334-5.014a58.074,58.074,0,0,0-.1-10.78c-.313-.251-.334-.648-.48-.982a.8.8,0,0,1-.48.9h.042c-.648.731.042,1.943-.877,2.611l.042-.084c-.4.543-.272,1.337-.877,1.776l.042-.063c-.689.731,0,1.964-.9,2.611l.042-.063c-.4.543-.272,1.358-.919,1.776l.042-.063c-.669.752.063,1.985-.94,2.632l.063-.084c-.355.564-.23,1.379-.9,1.8l.063-.084c-.648.752.084,2.005-.919,2.632l.063-.1c-.334.585-.209,1.4-.9,1.8l.063-.084c-.627.773.084,2.006-.919,2.632l.063-.084c-.334.585-.209,1.379-.9,1.8l.063-.063c-.648.752.063,1.985-.9,2.632l.042-.084c-.376.564-.251,1.358-.9,1.8l.042-.063c-.668.752.042,1.964-.9,2.632l.042-.083c-.4.543-.251,1.358-.9,1.776l.042-.063c-.689.752.042,1.985-.919,2.632l.042-.083c-.376.564-.251,1.358-.877,1.8l.042-.063c-.668.752,0,1.964-.877,2.632l.042-.063c-.418.522-.292,1.316-.857,1.776v-.042c-.689.731-.021,1.9-.815,2.611h0c-.794.627.063,1.985-1.065,2.486l.084-.084a9.136,9.136,0,0,1-1.525,3.593h0c-1.086.9.23,2.549-1.107,3.343l.063-.1c-.272.606-.167,1.421-.877,1.818l.063-.084c-.606.773.1,2.026-.919,2.653l.063-.1c-.313.585-.209,1.4-.9,1.818l.063-.084c-.627.773.084,2.005-.9,2.653l.063-.084c-.355.564-.23,1.379-.877,1.8l.042-.063c-.668.752,0,1.943-.857,2.632v-.063c-.4.522-.272,1.3-.836,1.776v-.042c-.71.731-.063,1.88-.815,2.611h0c-.522.46-.376,1.233-.836,1.713h0c-1.045.919.209,2.528-1.045,3.363l.063-.1c-.313.606-.209,1.379-.857,1.817l.042-.063c-.648.773,0,1.943-.857,2.653v-.063c-.585,1.421-.982,2.9-1.588,4.324a.352.352,0,0,0-.167.522c-.272.669-.188,1.5-.857,2.026l.042-.063c-.439,1.588-.522,3.342-2.173,4.345-1.671,1.024-2.9.731-3.635-1.17v-1.943c.543-1.5.627-3.175,1.588-4.554a.411.411,0,0,0,.125-.585,9.7,9.7,0,0,1,1.588-3.7.3.3,0,0,0,.125-.5,9.454,9.454,0,0,1,1.546-3.76.46.46,0,0,0,.125-.627,20.032,20.032,0,0,1,1.734-4.471l-.042.063a40.649,40.649,0,0,1,1.692-4.345v.042c.731-1.358.627-3.05,1.629-4.324a.365.365,0,0,0,.125-.543,9.438,9.438,0,0,1,1.588-3.739c.23-.125.272-.272.125-.5a9.283,9.283,0,0,1,1.567-3.781.435.435,0,0,0,.125-.606c.564-1.5.773-3.154,1.8-4.471l-.063.084a11.545,11.545,0,0,1,1.483-3.551.609.609,0,0,0,.167-.689c.627-1.462.836-3.092,1.776-4.408l-.042.084c.606-1.441.836-3.029,1.734-4.345l-.042.063c.648-1.421.836-3.029,1.776-4.324l-.042.084c.606-1.441.836-3.029,1.734-4.345l-.042.063c.627-1.421.836-3.029,1.755-4.345l-.042.063c.627-1.421.857-3.008,1.734-4.345l-.042.063a14.92,14.92,0,0,1,1.546-3.489.5.5,0,0,0,.167-.648,34.931,34.931,0,0,1,1.671-4.471v.042c.71-1.379.877-2.987,1.755-4.283l-.042.063c.669-1.4.877-2.987,1.734-4.324l-.042.063c.627-1.421.961-2.946,1.65-4.345a.389.389,0,0,0,.1-.564,35.731,35.731,0,0,1,1.609-4.554.41.41,0,0,0,.1-.585,5.536,5.536,0,0,0,0-4.011,4.462,4.462,0,0,0,.188-.71c0-.1-.125-.209-.209-.313a89.85,89.85,0,0,0,0-17.736,186.35,186.35,0,0,0-.1-21.872c-.71-1.337-.376-2.779-.376-4.178-.042-6.393-.084-12.785,0-19.178.292-24-.857-47.986-.376-71.968.23-11.636.334-23.272.376-34.908a3.5,3.5,0,0,1,.418-2.047,16.23,16.23,0,0,0,.084-5.682A28.212,28.212,0,0,0,48.3,112.35h0a13.683,13.683,0,0,1-1.65-3.489v.042c-.543-.48-.46-1.253-.752-1.838l.063.1c-.773-.439-.648-1.316-.94-1.964a.332.332,0,0,0-.125-.522c-1.817-3.3-2.486-6.957-3.3-10.571a.314.314,0,0,0-.063-.522,61.149,61.149,0,0,1-.021-26.468.433.433,0,0,0,.084-.606,22.532,22.532,0,0,1,1.588-5.348.411.411,0,0,0,.125-.585,18.5,18.5,0,0,1,1.734-4.512L45,56.134c.5-1.191.668-2.57,1.713-3.489l-.042.063c.439-.522.251-1.379,1-1.713l-.1.1c.063-.439.439-.689.668-1.024a.445.445,0,0,0,.188-.564c.313-1.274,1.964-2.57-.063-3.8l.042.042a3.588,3.588,0,0,1-1.776-1.692h0A2.813,2.813,0,0,1,45,42.22l.063.084c-1.253-.752-1.191-2.256-1.9-3.322h0c-.48-.543-.439-1.274-.71-1.88l.063.1c-1.4-1.734-.209-2.9.857-4.115l-.1.1a1.4,1.4,0,0,1,.94-.961l-.146.1c1.65-1.065,3.343-.773,5.056-.188h0c.46.5,1.316.313,1.692.982l-.084-.042c.543.4,1.421.209,1.734,1l-.125-.1a1.46,1.46,0,0,1,1.024.857l-.084-.063a3.942,3.942,0,0,1,1,.752h.042c.71.773,1.776,1.065,2.465,1.838h-.042c1.734.48,2.256-1.358,3.489-1.8h0a3.129,3.129,0,0,1,1-.794l-.084.084a1.728,1.728,0,0,1,.94-.94L62,34.01c.292-.669,1.212-.439,1.546-1.045l.042-.063c.606-.543,1-1.358,1.922-1.462l-.084.063A21.761,21.761,0,0,1,71.36,27.91h-.021c.272-.272.313-.94.982-.648,3.154-1.253,6.288-2.59,9.463-3.781,10.445-3.907,21.329-4.638,32.318-4.074A92.835,92.835,0,0,1,150.014,29c7.207,3.489,8.377,7.813,8.064,14.853-.313,7.416-2.423,14.519-4.659,21.559a155.585,155.585,0,0,1-26.677,50.451c-9.338,11.7-19.825,22.207-33.279,29.268a13.674,13.674,0,0,1-2.3,1.107c-10.09,3.05-8.795,2.758-16.232-2.695-.919-.669-1.859-1.274-2.8-1.922-2.131.125-3.342-1.4-4.638-2.674a146.417,146.417,0,0,1-11.636-12.158c-.334,7.165-.857,14.331-.167,21.392a246.358,246.358,0,0,1,.648,25.131c-.355,38.648-.961,77.3-1,115.964a59.641,59.641,0,0,0,6,26.636c1.88,3.907,4.241,7.771,4.136,12.388,2.946,7.166,5.954,14.331,8.816,21.517,4.45,11.156,8.795,22.374,13.2,33.55q2.256,5.734,4.554,11.427c.251.648.5,1.316.731,1.985.815,2.57.376,4.262-1.274,4.617-2.047.439-2.737-1.212-3.342-2.59-1.859-4.136-3.781-8.252-5.327-12.493-3.99-10.9-8.9-21.434-13.224-32.193-1.9-4.721-3.363-9.61-5.787-14.122a4.329,4.329,0,0,1-2.089-3.029c-1.817-6.351-5.139-12.158-6.748-18.53-.021.063-.042-.167-.042,0a4.745,4.745,0,0,0,.167.857c.522,8.962,1.609,17.862,1.253,26.824a4.949,4.949,0,0,1-1.107,3.572Z" transform="translate(2.567 16.679)" fill="#5a5665"/>
    <path id="Tracé_504" data-name="Tracé 504" d="M236.783,141.37c-2.194,1.546-4.471,2.966-6.539,4.659-2.716,2.235-5.62,2.382-8.795,1.462a40.642,40.642,0,0,1-10.842-4.784,119.189,119.189,0,0,1-27.471-25.152A156.758,156.758,0,0,1,156.312,69.11c-3.008-8.67-5.912-17.485-5.828-26.886,0-1.985-.23-4.053.669-5.87a13.3,13.3,0,0,1,5.787-6.455C173.631,21.1,191.3,17.99,210.022,19.745c9.484.9,18.217,3.927,26.7,7.959a.5.5,0,0,1,.773.313l-.063-.063c.585.334,1.4.188,1.8.9l-.1-.1a1.962,1.962,0,0,1,.982.857h-.042c.522.418,1.337.251,1.734.919l-.084-.084a3.356,3.356,0,0,1,.982.815h0c.46.5,1.316.313,1.671,1l-.1-.084a1.76,1.76,0,0,1,.94.919l-.063-.042a10.206,10.206,0,0,1,3.405,2.695l-.084-.042a3.406,3.406,0,0,1,.877.23c.146.063.272.1.418.167.272.1.522.23.773.355a2.646,2.646,0,0,0,.376.125,1.719,1.719,0,0,0,1.149-.272c.23-.188.46-.355.689-.543.23-.209.46-.4.71-.585s.5-.355.773-.522c.4-.251.773-.522,1.17-.773a6.331,6.331,0,0,1,.794-.5c.4-.23.815-.439,1.233-.668.251-.188.522-.376.773-.564a7.143,7.143,0,0,1,.836-.543,5.371,5.371,0,0,1,.982-.313,9.791,9.791,0,0,1,3.217.042,3.848,3.848,0,0,1,1.024.4,5.651,5.651,0,0,1,1.567,1.5,2.448,2.448,0,0,1,.313,1c-.125,1.045.5,2.026.313,3.092a5.255,5.255,0,0,1-.272.982c-.23.627-.439,1.274-.648,1.922a3.859,3.859,0,0,1-.48.919,6.164,6.164,0,0,1-.648.815c-.1.125-.23.251-.355.4a20.706,20.706,0,0,0-1.985,2.486,4.757,4.757,0,0,1-.794.794c-2.3,1.609-.961,3.217,0,4.8a8.071,8.071,0,0,1,.564.9c.251.439.439.9.669,1.337.146.272.292.564.418.857.209.418.4.857.606,1.274a6.155,6.155,0,0,1,.355.857c.146.439.272.877.439,1.316.125.272.251.564.355.857.188.418.4.857.585,1.274a6.688,6.688,0,0,1,.355.9c.209.606.418,1.233.648,1.838a8.258,8.258,0,0,1,.313.94c.167.48.313.961.481,1.441a9.225,9.225,0,0,1,.313,1q.251,1.849.627,3.7c-.021.376-.063.731-.1,1.107a8.237,8.237,0,0,0,.334,3.343c.042.46.084.919.125,1.4.877,3.092.1,6.267.48,9.38a3.008,3.008,0,0,1,.146,2.006c-.794,1.045-1.316,2.131-.689,3.447a5.42,5.42,0,0,1-.1,1.17,19.247,19.247,0,0,0-.71,4.366A8.5,8.5,0,0,1,267.2,96.2c-.251.669-.48,1.316-.669,2.006-.084.334-.209.669-.313.982a20.066,20.066,0,0,0-.48,2.006,3.98,3.98,0,0,1-.313.961c-.188.46-.418.9-.627,1.337-.125.292-.251.585-.4.877-.167.46-.313.9-.46,1.358a4.916,4.916,0,0,1-.355.919l-.627,1.379a4.183,4.183,0,0,1-.564.919,4.588,4.588,0,0,0-1.316,3.154c0,.46,0,.919-.021,1.379-1.4,6.915-.209,13.913-.564,20.891-.272,5.473.836,11.093.1,16.65l-.167.251.146.272c1.65,2.152,1.525,4.638,1.379,7.145-.689,10.947-1.609,21.914-.125,32.882.334,2.486-1.253,4.993.042,7.479-.334,2.674.418,5.536-1.3,8a1.312,1.312,0,0,0,.042,1.379c-.94,5.452,0,10.884.376,16.295.376,5.452-1.233,10.717-.71,16.107.689,7.145.042,14.31.648,21.476.627,7.186-.961,14.352-.543,21.622.4,7.019-.439,14.1.752,21.12a10.254,10.254,0,0,1,.355,1.379c.146.627.251,1.274.4,1.9.125.355.209.752.313,1.107.188.689.355,1.4.543,2.11a5.49,5.49,0,0,1,.084,1.024,4.943,4.943,0,0,0,.313,1.462.41.41,0,0,0,.146.564c.4.5.46,1.191.9,1.671a6.125,6.125,0,0,1,.439.815c.188.418.376.836.564,1.233.146.251.292.522.418.794.209.4.4.794.585,1.191a7.074,7.074,0,0,1,.376.815c.209.418.418.836.606,1.253a7.649,7.649,0,0,1,.313.9c.146.46.313.919.481,1.358a6.733,6.733,0,0,1,.292.919c.146.46.272.919.439,1.358.125.292.23.585.334.9.146.439.272.9.439,1.337.125.292.23.585.355.857.188.418.376.857.585,1.274a6.156,6.156,0,0,1,.355.857l.439,1.316c.125.272.23.564.355.857.188.418.376.836.585,1.253a6.156,6.156,0,0,1,.355.857c.146.439.292.877.46,1.316l.376.877c.209.439.4.877.606,1.316a5.685,5.685,0,0,1,.4.982,19.954,19.954,0,0,0,1.024,2.57,5.283,5.283,0,0,1,.4.94c.188.606.334,1.233.564,1.838.125.272.251.564.355.857.188.418.376.836.585,1.253a6.164,6.164,0,0,1,.355.857c.146.439.272.857.439,1.3.125.272.23.564.355.857.188.439.4.857.585,1.274a4.723,4.723,0,0,1,.355.9c.167.46.292.94.418,1.4a7.557,7.557,0,0,1,.125.961,1.951,1.951,0,0,0,.439,1.337h0c.794.648.084,1.859.877,2.528h0a12.326,12.326,0,0,1,1.044,1.045,3.388,3.388,0,0,1,.418.877c.188.606.355,1.233.585,1.838a3.488,3.488,0,0,1,.23.919,1.585,1.585,0,0,0,.251,1.358v-.042c.481.46.564,1.17,1,1.65a4.846,4.846,0,0,1,.46.857c.209.439.4.877.606,1.316a7.726,7.726,0,0,1,.355.877c.146.439.292.9.439,1.337.125.272.23.564.355.857.188.418.376.857.585,1.274a6.156,6.156,0,0,1,.355.857c.146.439.292.877.46,1.337l.376.877c.209.439.4.877.606,1.3a4.769,4.769,0,0,1,.313.919c.146.627.251,1.253.439,1.859.125.292.209.585.313.9.188.439.376.877.564,1.3a5.5,5.5,0,0,1,.355.877l.439,1.316c.125.272.23.564.355.857l.564,1.253a6.149,6.149,0,0,1,.355.857l.439,1.316c.125.272.23.564.355.857l.564,1.253a6.164,6.164,0,0,1,.355.857l.439,1.316c.125.272.23.564.355.857.188.418.376.836.585,1.253a5.5,5.5,0,0,1,.355.877c.146.439.292.9.46,1.337.146.292.251.585.376.877.209.439.418.9.627,1.358a5.1,5.1,0,0,1,.313,1,8.174,8.174,0,0,1-.146,3.76,2.145,2.145,0,0,1-.669.877,3.833,3.833,0,0,1-2.758.292,3.016,3.016,0,0,1-1-.5,7.426,7.426,0,0,1-1.629-2.3,9.067,9.067,0,0,1-.418-1.045,13.706,13.706,0,0,0-1.212-3.7,8.764,8.764,0,0,1-.418-1.024c-.313-1.212-.836-2.361-1.17-3.551a9.124,9.124,0,0,1-.251-1.024,6.539,6.539,0,0,0-1.5-3.865,5.706,5.706,0,0,1-.48-.94,16.959,16.959,0,0,0-1.337-3.405,7.848,7.848,0,0,1-.418-.961,16.955,16.955,0,0,0-1.337-3.405,6.317,6.317,0,0,1-.4-1.045,13.78,13.78,0,0,0-1.233-3.844,8.446,8.446,0,0,1-.418-1,16.236,16.236,0,0,0-1.316-3.384,5.479,5.479,0,0,1-.4-.961,16.353,16.353,0,0,0-1.316-3.343,5.483,5.483,0,0,1-.4-.961,24.359,24.359,0,0,0-1.253-3.384,8.711,8.711,0,0,1-.167-1.024c.167-1.421-1.17-2.089-1.609-3.217a6.373,6.373,0,0,1-.418-.961,18.024,18.024,0,0,0-1.316-3.384,7.251,7.251,0,0,1-.355-.94c-.146-.46-.272-.94-.439-1.4l-.376-.877c-.251-.585-.543-1.17-.815-1.755-.146-.334-.251-.648-.376-1a18.581,18.581,0,0,0-1.086-2.57,5.31,5.31,0,0,1-.355-.961c-.146-.46-.272-.94-.439-1.4-.146-.292-.251-.606-.376-.9-.272-.606-.564-1.212-.815-1.817a9.07,9.07,0,0,1-.292-1,29.728,29.728,0,0,0-.9-3.029c-.084-.355-.167-.689-.272-1.045a4.079,4.079,0,0,0-.355-1.567l.084.042c-.669-.334-.815-1.17-1.462-1.546a4.3,4.3,0,0,1-.439-1,12.052,12.052,0,0,0-.961-3.05c-.167-.292-.292-.627-.439-.94q-.313-.689-.564-1.379a4.866,4.866,0,0,1-.167-.961,3.926,3.926,0,0,0-.334-1.379l.063.042a14.964,14.964,0,0,1-2.319-3.781,4.458,4.458,0,0,1-.313-1.024,9.3,9.3,0,0,1-.084-1.274,8.921,8.921,0,0,0,0,1.3c-.669,8.064-.418,16.107-.439,24.15a12.478,12.478,0,0,0,.251,4.22,9.82,9.82,0,0,1,.251,5.432c-1.462,3.865.5,8.252-1.734,12.012a7.042,7.042,0,0,0-.063,3.426c.836,1.128,1.045,2.214-.146,3.259-.94,4.053-.292,8.168-.48,12.242-.063,1.546-.084,3.113-.188,4.659a1.491,1.491,0,0,1-1.274,1.483,1.6,1.6,0,0,1-1.88-1.337,17.293,17.293,0,0,1-.125-2.946c-.084-7.5-.167-14.979-.251-22.478-1.65-4.262-1.233-8.649-.815-13.036.982-10.007.209-20.1,1.462-30.1-2.047,4.847-3.677,9.777-5.766,14.54-.627,1.4-.982,3.008-2.611,3.719q-10.5,25.727-21.037,51.433c-1.17,2.883-2.361,5.766-3.593,8.607-1.191,2.758-2.423,3.614-3.907,2.9-1.421-.71-1.817-2.465-.857-4.951,1.567-4.095,3.3-8.126,4.909-12.2q5.891-15.01,11.741-30.02c3.322-8.565,6.81-17.068,10.592-25.445.292-.648.46-1.337.689-2.006a9.384,9.384,0,0,1,1.128-5.766c2.549-5.244,4.387-10.8,7.019-16a15.034,15.034,0,0,0,1.546-7c0-21.455.689-42.93-.188-64.343-1.128-27.7-.167-55.381-.71-83.082-.125-6.56,1.337-13.015.877-19.554-.1-1.4.292-2.841-.48-4.491-4.784,4.742-8.5,10.362-13.976,14.206a5.61,5.61,0,0,1-1.379.668c-.251.021-.5.042-.773.063Z" transform="translate(154.619 16.718)" fill="#5a5665"/>
    <path id="Tracé_505" data-name="Tracé 505" d="M191.128,144.272c3.781,6.142,7.521,12.3,11.344,18.426,5.452,8.691,10.007,17.82,12.179,27.889,1.943,9.087,3.614,18.2,3.907,27.576a40.718,40.718,0,0,0,5.975,20.515c2.214,3.572,4.742,7.061,5.975,11.218.836,2.82.146,4.993-2.57,5.682-3.343.857-6.225,2.695-9.484,3.656-5.724-7.771-8.628-16.775-11.009-25.967-.836-3.259-2.11-6.455-2.173-9.9a42.426,42.426,0,0,1-1.943-8.377c-.439-.46-.648.5-.23.1,1.212,2.674.9,5.724,2.11,8.4,2.047,11.009,5.1,21.664,10.341,31.649.627,1.17,2.361,2.361,1.17,4.157a4.636,4.636,0,0,1-3.426,1.671c-2.82-1.88-3.154-5.223-4.575-7.9-3.99-7.6-8-15.229-8.168-24.15-.146-15.689-2.82-31-6.413-46.21a148.983,148.983,0,0,0-5.494-18.718c-.731-3.781-2.528-7.165-3.551-9.61,1.629,3.029,2.841,7.479,4.408,11.8,5.891,17.193,8.586,35.034,10.8,52.958.689,5.578,0,11.3,1.024,16.9,1.671,6.957,5.536,12.994,8.356,19.449.773,1.776,1.964,3.405,1.8,5.494-4.512,0-9.025.042-13.537.063a1.665,1.665,0,0,1-1.567.4c-5.808-2.59-11.636-.94-17.465-.167-1.734,0-3.531.272-5.035-.94a188.536,188.536,0,0,0-5.39-19.491c-1.421-4.241-.272-8.983-.439-13.516-.251-15.041.668-30.02,1.671-45,.564-8.5-.439-16.984-1.4-25.424-.23-1.964-.334-3.886-.4-5.828.188,5.348.794,10.654,1.421,15.96,1.233,10.216.084,20.389-.564,30.542-.836,13.182-.585,26.343-.731,39.525-.48,3.719,1.818,6.748,2.549,10.174.9,4.345,3.217,8.44,2.507,13.1-6.372.919-12.618.042-18.843-1.233-7-1.629-13.976-2.194-20.87.564a1.866,1.866,0,0,1-1.985-.4,23.5,23.5,0,0,0-5.39.669c-4.68.773-9.422.272-14.143.021-.355,0-.669-.439-1.024-.689-.71-3.886,2.089-6.581,3.572-9.589,3.531-7.124,8.273-13.558,12.681-20.159,2.946-4.408,4.115-9.338,4.993-14.331,1.588-9.192,3.781-18.238,6.184-27.241,1.421-5.348,2.9-10.654,4.512-15.94a28.953,28.953,0,0,1,1.483-4.095c-.731.627-.731,2.194-1.379,3.405q-4.826,15.574-8.44,31.482c-.9,3.948-1.755,7.938-2.361,11.991-.9,5.87-2.507,11.553-6.142,16.5-6.455,8.795-11.678,18.363-16.8,27.973-7.4.9-14.1-1.776-20.849-4.095a15.219,15.219,0,0,1-5.64-3.593c.48-4.262,4.638-6.058,6.017-9.067-2.131,2.4-4.22,5.536-6.894,8.189a2.538,2.538,0,0,1-2.549-1.671c-.313-2.653,1.734-4.032,3.2-5.64a90.523,90.523,0,0,1,8.879-8.335c-4.408,3.907-9,7.6-12.284,12.6a1.085,1.085,0,0,1-1.4.564c-2.214-1.337-3.7-3.468-5.578-5.16-1.609-1.462-1.421-2.778.021-4.324a28.394,28.394,0,0,1,7.73-5.849c5.306-2.8,9.067-7.145,12.263-11.991,4.178-6.351,8.879-12.367,12.263-19.24a5.7,5.7,0,0,1,1.128-1.233c2.883,2.674,3.426,6.664,5.536,9.777,1.88,2.758,3.489,5.7,6.622,8.126,1.107-3.154-.313-5.62-.522-8.147-.188-2.3-1.358-4.742,1.086-6.6,1.441-.1,1.8,1.8,3.426,1.776.292-5.828-2.194-10.32-6.33-14.08-.731-2.674-.334-5.39-.4-8.106a7.052,7.052,0,0,1,.146-1.316c3.175-8.106,8.335-15.125,12.472-22.708,4.554-8.356,8.753-16.859,13.1-25.319,2.173-4.241,1.692-7.646-1.692-11.135-4.053-4.178-7.667-8.774-9.108-14.644.836-9.756,2.611-19.407,2.173-29.247a3.155,3.155,0,0,1,1.379-2.382c2.11-.334,2.8,1.4,3.155,2.737,1.421,5.452,4.533,10.195,6.309,15.48.188.334.355.689.522,1.024,0-.5-.4-.857-.543-1.3-1.128-3.489-3.029-6.643-4.408-10.028-.48-1.191-1.525-2.59,0-3.28,1.441-.648,2.026,1.086,2.59,2.173,1.546,2.925,2.925,5.912,4.638,8.753-2.549-4.157-4.095-8.858-7.207-12.7a8.467,8.467,0,0,1-.689-1.692,2.953,2.953,0,0,1,.063-1.212c.71-1.212,1.734-.794,2.737-.564,5.264,3.029,9.046,7.709,13.119,11.991a221.947,221.947,0,0,1,20.222,24.63,110.309,110.309,0,0,1,8.795,15.417,10.925,10.925,0,0,1,1.462,4.826c-.251,2.026-1.943,3.468-2.214,5.473-.063.376-.167.752-.251,1.107-.334,1.671-1.4,3.8,2.005,3.008,2.695-.1,5.578-.836,7.437,2.047Z" transform="translate(67.995 78.054)" fill="#fff"/>
    <path id="Tracé_506" data-name="Tracé 506" d="M97.22,146.054c-5.849-3.927-6.393-11.678-4.262-17.256.877-2.3.773-3.76-1.337-4.993-6.727-3.927-8.858-10.007-7.959-17.381.919-7.6,3.614-14.268,10.445-18.551a27.526,27.526,0,0,1,6.664-2.695c5.6-1.713,7.291-3.886,7.437-9.819.167-6.393-1.086-12.722-.731-19.136a24.2,24.2,0,0,1,.648-5.473c2.59-9.171,7.688-15.334,19.345-15.9a33.712,33.712,0,0,1,11.385,1.107c-.9,2.486-3.76,1.943-5.348,3.468a34.175,34.175,0,0,0-3.468,3.05c3.113-3.531,7.207-5.139,11.7-6a36.059,36.059,0,0,1,24.442,2.486c4.011,1.922,6.894,4.847,7.876,9.359,1.065,2.444,1.629,4.638-2.235,4.763-2.966-.334-3.426-3.259-5.056-4.93.648.919,1.3,1.859.919,3.113a1.8,1.8,0,0,1-1.964,1.107c-3.154-1.671-4.784-4.6-6.309-7.562a1.6,1.6,0,0,1-.251-.669q-.251.282.125.627c2.319,4.93,6.163,8.4,10.592,11.344,1.671,1.107,3.113,1.358,4.115-.836a1.6,1.6,0,0,1,1.212-.313c1.253,2.653,2.549,5.327-.439,7.73-3.907-.313-7.834-.167-11.573-1.943-5.64-2.674-8.941-7.186-11.114-13.454-1.755,4.241-2.528,8.314-4.951,11.511-1.128,1.483-2.507,4.554-4.909,1a7.638,7.638,0,0,0,2.026-5.536c-.167,1.4-.292,3.531-1.8,5.2-.71.313-1.086-.084-1.421-.606-.564-1.3-.084-2.528.48-4.366-.71,1.65-.689,2.9-1.629,3.739a12.869,12.869,0,0,1-2.11,1.421c-4.6,2.841-5.64,7.186-2.152,11.469,2.173,2.674,2.423,5.118,1.525,8.231-1.755,6.121-2.214,12.576-4.491,18.593-2.57,6.769-6.455,12.284-13.412,15.146-.752.334-1.567.564-2.3.94-6.518,2.758-10.257,7.98-12.869,14.289-.585,1.441-.4,3.51-2.549,3.969-3.99-2.632-2.57-6.184-1.462-9.505,1.609-4.784,1.588-5.16-2.987-7.416-1.3-.648-2.549-1.233-3.238-2.758.648,1.943,2.319,2.4,3.8,3.092,1.274.606,2.59,1.191,3.2,2.632a2.49,2.49,0,0,1-.71,3.071c-1.107.982-1.776,0-2.4-.752a10.172,10.172,0,0,0-3.531-2.319c-4.429-2.194-6.957-5.62-6.894-10.7.877-1.838.146-4.136,1.253-5.306a4.918,4.918,0,0,0-.752,2.966c-1.588,6.852.9,10.257,6.288,12.994,3.51,1.776,4.847,3.781,2.987,7.688-2.026,4.283,1.212,6.622,4.095,8.92-.313,4.053.439,8.482-3.948,11.093Z" transform="translate(81.662 33.614)" fill="#512e2a"/>
    <path id="Tracé_507" data-name="Tracé 507" d="M176.49,213.32c6.56.94,13.182,1.462,18.384,6.539,2.026,1.985,5.223,1.964,7.9,2.737a23.6,23.6,0,0,1,4.324,1.713c7.312,3.76,5.056,11.636.1,14.686-5.515,3.405-11.573,4.93-17.924,6.017-6,1.024-12.033,1.588-18.05,2.194-4.2.418-8.4,1.149-12.66,1.107-7.667-.063-15.334-.084-23,0a223.988,223.988,0,0,1-24.526-1.5,101.94,101.94,0,0,1-18.655-3.635c-3.886-1.107-7.228-3.008-9.3-6.769-1.734-3.134-1.692-6.288.564-9.046a17.1,17.1,0,0,1,6.037-4.6c6.748-3.154,14-4.283,21.308-5.181a8.236,8.236,0,0,0,3.238-.9c1.922,3.551,2.214,7.521,2.82,11.385.376,2.361.585,4.784,1,7.312.522-2.214,0-4.366.418-6.434.188-.982.418-2.026,1.609-2.256,1.17-.23,1.8.669,2.361,1.5a15.692,15.692,0,0,1,1.964,5.139,6.06,6.06,0,0,0,5.327,4.784,45.66,45.66,0,0,0,11.448.292c.836-.063,1.8-.251,2.068-1.212.272-.982-.585-1.483-1.233-2.026-2.089-1.755-4.888-2.256-7-4.011-3.7-5.828-2.611-11.8-.669-17.841,2.507-2.4,5.724-2.026,8.795-2.131,3.823-.125,7.249-.836,8.9-4.847.439-.084,1,.042,1.045.418.585,5.6,4.554,10.069,5.181,15.605.167.251.251.146.355-.272,1.5-6.706,2.695-7.082,7.834-2.382.522.48,1.212.877,1.483,1.5,2.4,5.348,6.56,5.975,11.594,4.429a10.074,10.074,0,0,1,3.8-.292c1.128.1,2.423.313,2.8-1.17.334-1.233-.418-2.173-1.274-2.987-2.277-2.194-5.557-2.005-8.189-3.405a3.311,3.311,0,0,1-.23-4.554Z" transform="translate(79.917 220.42)" fill="#b0daea"/>
    <path id="Tracé_508" data-name="Tracé 508" d="M98.986,91.255A46.46,46.46,0,0,1,103.9,80.538a19.789,19.789,0,0,1,10.028-8.168.967.967,0,0,1,.857.5c.334.648.543,1.316.815,1.985a6.084,6.084,0,0,1,.334,1.045c.794,1.943.334,4.032.773,6,.042,2.674.084,5.348.084,8.022,0,3.656.167,7.312-.9,10.884-1.128,3.781-.355,7.876-1.734,11.615a11.78,11.78,0,0,1-.836,5.808c-3.593,10.445-6.852,21-9.568,31.691a77.917,77.917,0,0,0-2.778,21.392c.125,4.7-.669,9.234-1.3,13.809-.021.272-.063.543-.1.815-1.3,3.134-.815,6.351-.376,9.547A12.951,12.951,0,0,1,105,203.793c.689,3.071-.125,3.76-2.862,3.447-1.441,1.964-.606,4.011-.334,6.079.376,2.653,1.4,5.181,1.233,7.918-.042.836.021,1.8-1.024,2.089a2.072,2.072,0,0,1-1.922-.648,22.258,22.258,0,0,1-4.241-5.244c-2.82-4.22-5.452-8.565-6.727-13.558a5.64,5.64,0,0,0,.23-2.089c-1.546-5.056-1.525-10.32-2.173-15.5q-.815-6.518-1.065-13.1c-.209-5.536.063-11.072-.188-16.587-.313-6.894,1.421-13.433,2.883-20.055,1.525-6.852,3.7-13.579,4.178-20.682a58.052,58.052,0,0,1,1.776-8.711,3.575,3.575,0,0,0-.209-2.047c.376-.4,1.045-.773,1.107-1.233.48-3.447,2.131-6.622,2.319-10.132-.564-1.191-.042-1.964,1-2.528Z" transform="translate(84.304 74.542)" fill="#bc812b"/>
    <path id="Tracé_509" data-name="Tracé 509" d="M118.722,261.365c-.125,1.379-.167,2.8-.4,4.157-.794,4.617-.857,9.15,1.274,13.5-5.181,3.113-8.022,2.235-10.111-3.113-1.379-3.51-1.421-7.207-1.776-10.842,0-1.212.627-2.277.836-3.468.439-.355-.251-.585-.251-.251,0,.627-.648,1.045-1.358,1.17-1.065-.23-2.006-.606-1.985-1.943,4.471-7.019,2.862-14.456,1.128-21.747-2.57-10.821-6.518-21.308-7.98-32.443-.648-4.909-1.65-9.756-1.483-14.728.313-9.129,1.483-18.029,6.643-25.9a2.582,2.582,0,0,0,.188-.815,30.642,30.642,0,0,1,20.536-1.692,19.966,19.966,0,0,1,2.319.94c1.567,3.865.731,7.876.355,11.72-2.026,21.2-4.011,42.408-6.393,63.591-.606,5.369-.1,10.8-.209,16.211-.042,1.985.146,4.011-1.358,5.661Z" transform="translate(95.966 172.376)" fill="#bc812b"/>
    <path id="Tracé_510" data-name="Tracé 510" d="M138.261,260.248c.272,1.462-.376,3.134.982,4.366-2.8,3.531-5.682,3.844-8.649,1.065-3.322-3.134-6.5-6.163-6.581-11.323-.042-2.883-2.987-4.721-3.865-7.437a25.1,25.1,0,0,0,.522-11.8c-1.838-11.2-3.468-22.478-3.677-33.8-.209-11.365.585-22.75,7.688-32.569a12.3,12.3,0,0,1,4.22-4.074c4.721-.627,9.338-2.173,14.247-1.045,1.713.4,2.9,1.838,4.68,1.9.021,6-1.483,11.761-2.695,17.548-1.776,8.419-3.948,16.754-5.828,25.152-1.379,6.184-2.611,12.43-3.865,18.634-1.065,5.264-1.9,10.571-3.175,15.772a7.265,7.265,0,0,0,.752,5.64,75.109,75.109,0,0,1,5.244,11.949Z" transform="translate(118.146 173.492)" fill="#bc812b"/>
    <path id="Tracé_511" data-name="Tracé 511" d="M138.852,55.121c2.549-1.943,2.57-4.868.063-6.831l-.376-.084a2.128,2.128,0,0,1-.627-.439l-.272-.272a6.662,6.662,0,0,1-.543-.543l-.251-.292a1.92,1.92,0,0,1-.418-.648v-.4A4.215,4.215,0,0,0,139,41.27c2.507,4.763,3.907,9.777,2.361,15.083a51.8,51.8,0,0,0-2.026,11.7,11.644,11.644,0,0,0,.334,3.8c1.086,3.886,2.778,4.763,6.622,3.426a35.044,35.044,0,0,1,11.636-2.3,16.714,16.714,0,0,1,16.587,13.2c.71,3.3-.669,6.184-2.068,8.941a24.883,24.883,0,0,1-6.163,7.521c-1.483,1.274-1.8,2.423-.961,4.408,3.05,7.228,2.277,18.3-5.16,24.108-1.149.731-2.3.627-2.966-.522-2.152-3.635-5.16-6.831-5.808-11.26.543-2.277,1.755-4.408,1.546-6.685-.669,1.5.251,3.865-1.985,4.93-2.173-.167-2.444-2.131-3.28-3.531-2.862-4.742-5.494-9.631-9-13.955-2.382-2.925-5.035-5.411-8.962-6.058-2.423-.5-4.784.125-7.166.4-2.089.23-4.241.585-6.1-.9-1.086-2.256-1.253-4.3,1.149-5.87a7.145,7.145,0,0,1,2.486-.418c9.15-.5,10.236-1.421,12.91-10.341,1.128-3.8,1.943-7.667,2.966-11.49.668-2.486.355-4.512-2.737-5.056-1.107-.188-2.423-.606-2.173-2.068.23-1.337,1.546-1.588,2.695-1.588a7.674,7.674,0,0,0,5.139-1.567Z" transform="translate(116.74 40.672)" fill="#512e2a"/>
    <path id="Tracé_512" data-name="Tracé 512" d="M144.383,91.938c1.546,3.99,4.3,7.312,6.2,11.135.46.94,1.379.857,2.194.94-.9,2.277.836,3.739,1.817,5.327,2.549,4.074,5.411,7.938,6.915,12.6,1.692,5.264,1.253,10.028-2.758,14.143a53.691,53.691,0,0,1-7.291,6.476c-5.515,3.927-10.988,7.959-16.462,11.949a13.953,13.953,0,0,0-8.44-.9c-.46-3.51,2.966-2.946,4.262-4.366-1.4-.23-3.134,2.966-4.8,0a4.292,4.292,0,0,1,3.2-3.405c-1.943-.46-2.235,2.883-4.408,2.444-.021-2.152,1.629-3.468,2.528-5.16a4.87,4.87,0,0,1,1.5-1.692,4.94,4.94,0,0,1,2.214-.71c4.136,1.546,6.121-.669,7.98-4.032,1.9-3.468,3.154-7.709,7.646-9.067a.977.977,0,0,0,1.692-.334c1.859-3.823,5.035-4.3,8.711-3.489-3.739-.857-6.915-.313-8.795,3.51a1.01,1.01,0,0,1-1.421.46c-3.51-7.061-8.774-13.015-12.6-19.888-.71-13.788-5.223-26.448-11.427-38.606a5.316,5.316,0,0,1-.4-1.274,2.6,2.6,0,0,1,.188-1.316c.146-.167.313-.313.48-.48,4.095-.084,6.288,2.946,8.523,5.557,4.053,4.721,7.04,10.195,10.027,15.647.543.982.815,2.131,1.776,2.841a.965.965,0,0,1,.585.522,1.916,1.916,0,0,1,.272.752l.042.4Z" transform="translate(124.099 67.821)" fill="#bc812b"/>
    <path id="Tracé_513" data-name="Tracé 513" d="M104.12,209.3c.669.522,1.358,1.024,2.026,1.546a2.41,2.41,0,0,1,1.462,1.817c1.128,4.471.5,9.234,2.737,13.537.857,1.671,1.421,2.361,3.384,1.859a25.193,25.193,0,0,1,5.035-.313,20.235,20.235,0,0,1,8.9,4.742c1.9,1.629,1.567,2.653-.9,3.468a16.242,16.242,0,0,1-5.494.439,70.353,70.353,0,0,1-9.359-.439,5.68,5.68,0,0,1-5.264-4.721c-.648-2.59-1.17-5.223-3.259-7.625-1.609,3.927.292,8.147-1.817,11.782-1.609-2.507-4.3-16.713-4.22-21.914a8.3,8.3,0,0,1,6.748-4.2Z" transform="translate(96.781 223.646)" fill="#5b5766"/>
    <path id="Tracé_514" data-name="Tracé 514" d="M123.4,121.913c-1.713,6.539-3.322,13.1-5.16,19.6-2.82,9.9-4.22,20.118-6.685,30.1a26.1,26.1,0,0,1-3.2,7.771q-5.7,8.9-11.3,17.882A60.572,60.572,0,0,0,90.932,209.8H89.24a83.9,83.9,0,0,1,8.941-17.778c2.068-3.217,4.095-6.5,6.434-9.505,4.345-5.578,5.933-11.991,6.915-18.822a155.237,155.237,0,0,1,3.865-17.36c2.235-8.461,4.742-16.838,7.124-25.257.773-.188,1.191-.042.857.877Z" transform="translate(87.95 127.509)" fill="#d2d7ef"/>
    <path id="Tracé_515" data-name="Tracé 515" d="M146.95,182.358c-2.716-5.557-5.766-11.009-7.521-16.963-1.838-6.2-3.969-12.346-4.45-18.885.292-.4.564-.418.857,0,1.483,2.444,1.525,5.369,2.11,8.022,2.11,9.589,6.058,18.363,10.55,26.97a3.319,3.319,0,0,1,.188.815c-.585,0-1.149.021-1.734.042Z" transform="translate(137.763 154.951)" fill="#d5d9f0"/>
    <path id="Tracé_516" data-name="Tracé 516" d="M133.852,149.191c1.191,1.149.773,2.653.773,4.011a18.548,18.548,0,0,0,1.859,8.147c3.154,6.455,6.518,12.806,9.275,19.449h-1.8A193.141,193.141,0,0,1,133,156.879c1.17-2.465-1.337-5.327.836-7.709Z" transform="translate(135.507 158.182)" fill="#d1d6ef"/>
    <path id="Tracé_517" data-name="Tracé 517" d="M74.13,166.112c3.489-5.369,8.106-9.651,13.119-13.558A20.449,20.449,0,0,1,89.38,151.2c.355-.209.752-.439,1.17.042-.042,1.107-1.086,1.379-1.776,1.985-4.742,4.178-9.693,8.168-12.994,13.7a1.71,1.71,0,0,1-1.629-.815Z" transform="translate(71.494 160.125)" fill="#d7dbf1"/>
    <path id="Tracé_518" data-name="Tracé 518" d="M118.513,36c-1.065,1.316-2.632,1.567-4.115,2.047-3.175,1.045-5.954,2.57-7.688,5.62a2.135,2.135,0,0,1-1.838,1.233c-.4-2.173,1.274-3.3,2.423-4.533,2.256-2.444,5.285-3.7,8.314-4.909,1.024-.084,2.11-.648,2.9.543Z" transform="translate(104.908 34.117)" fill="#77492a"/>
    <path id="Tracé_519" data-name="Tracé 519" d="M76.13,164.824a23.759,23.759,0,0,1,9.777-10.4A98.038,98.038,0,0,0,77.028,165.7l-.877-.877Z" transform="translate(73.672 163.899)" fill="#d8dcf2"/>
    <path id="Tracé_520" data-name="Tracé 520" d="M118.365,28.831a20.18,20.18,0,0,1-.021,9.213A159.2,159.2,0,0,1,99.417,87.43c-7.688,13.078-17.673,24.254-29.017,34.2-5.411,4.742-11.072,9.317-18.05,11.782-5.536,1.964-7.959.522-8.67-5.411-.71-6.058.627-11.908,2.465-17.59C51.494,93.843,60.77,79.45,71.633,66.1c9.589-11.782,20.18-22.645,32.9-31.19a74.35,74.35,0,0,1,9.15-5.369,6.438,6.438,0,0,1,4.638-.71Z" transform="translate(38.122 26.934)" fill="#fff"/>
    <path id="Tracé_521" data-name="Tracé 521" d="M32.689,162.688h-.961c-.272-.627-.585-1.5.292-1.567C32.836,161.059,32.71,162.041,32.689,162.688Z" transform="translate(25.006 171.195)" fill="#e3e0e4"/>
    <path id="Tracé_522" data-name="Tracé 522" d="M227.431,123.96a52.639,52.639,0,0,1-.272,5.306c-.71,4.742-2.946,6.079-7.479,4.6a38.052,38.052,0,0,1-9.8-4.993,135.634,135.634,0,0,1-33.279-33.7,144.758,144.758,0,0,1-19.47-40.361q-2.35-7.521-4.032-15.188a33.388,33.388,0,0,1-.9-8.022c.063-2.9.877-3.593,3.656-2.57A49.7,49.7,0,0,1,166.2,34.8c14.561,9.881,26.531,22.478,37.123,36.371a142.9,142.9,0,0,1,19.763,34.052,98.734,98.734,0,0,1,3.844,13.015,36.705,36.705,0,0,1,.522,5.745Z" transform="translate(156.514 26.858)" fill="#fff"/>
    <path id="Tracé_523" data-name="Tracé 523" d="M203.544,162.921c-.46,0-.94,0-1.4-.021-.209-.669-.334-1.838.188-1.859C203.251,161,203.481,162.043,203.544,162.921Z" transform="translate(210.713 171.108)" fill="#adaab2"/>
    <path id="Tracé_524" data-name="Tracé 524" d="M192.616,77.38c-.272.23-.564.48-.836.71A.958.958,0,0,1,192.616,77.38Z" transform="translate(199.622 79.998)" fill="#cefaf7"/>
    <path id="Tracé_525" data-name="Tracé 525" d="M155.707,56.558c-.209,1.88-.648,3.3-3.155,2.57a5.05,5.05,0,0,0-4.074.439c.5,1.5,1.671,1,2.528,1.149,3.2.606,3.8,1.3,3.2,4.512a122.667,122.667,0,0,1-4.993,18.384c-1.462,4.074-4.2,5.87-8.231,6.121-1.838.1-3.7,0-5.536,0-2.4-.167-4.45-1.588-7.542-2.277,1.5,5.181,6.977,8.335,5.285,13.057a6.073,6.073,0,0,1-.376-2.235c.042-1.107-.251-2.319.877-3.113,2.8-.313,5.578-.752,8.377-.9,1.755-.084,3.656-.752,5.306.543-.1.125-.209.23-.334.355a4.34,4.34,0,0,0-1.107,3.551c.125,5.118-.731,10.257-.606,15.313.251,10.592-1.922,20.953-1.964,31.482a8.384,8.384,0,0,1-1.462,5.244c-.209.167-.4.313-.606.48-4.115-4.074-7.207-9-10.947-13.391a203.251,203.251,0,0,0-21.058-21.977,3.831,3.831,0,0,0-1.149-.5c-.752-1.17-2.277-1.233-3.2-2.173a6.759,6.759,0,0,1-.794-.752,8.717,8.717,0,0,1-.752-.773l-.376-.376c-.272-.23-.5-.5-.752-.752-.815-1.107-2.34-1.818-2.026-3.551A23.959,23.959,0,0,0,112.8,93.848a60.346,60.346,0,0,0,3.593-13.036,58.21,58.21,0,0,1,1.859-8.67,4.253,4.253,0,0,0-1.3-5.139c-2.528-2.4-3.384-5.494-2.235-9.275,1.128-3.719,4.032-4.345,6.915-5.369a1.564,1.564,0,0,0,.439-.042,2.219,2.219,0,0,1,.794.334,3.3,3.3,0,0,1,.564.648.825.825,0,0,0,.794.668l.084.063c.669,1.358,1.441,1.567,2.549.355,2.737-3.029,3.865-6.81,5.118-10.55.439-1.274.773-2.59,1.149-3.886,1.776.522,1.964,1.838,2.382,3.029a19.1,19.1,0,0,0,11.281,11.845,12.16,12.16,0,0,0,4.074.794c1.671.1,3.426-.167,4.909.919Z" transform="translate(99.886 39.234)" fill="#bc812b"/>
    <path id="Tracé_526" data-name="Tracé 526" d="M139.61,164.992c-4.429,6.121-8.21,12.534-9.631,20.118a34.586,34.586,0,0,0-.5,4.638,41.785,41.785,0,0,1-.648,8.043,10.85,10.85,0,0,0,0,4.638,30.915,30.915,0,0,1,.585,6.33c.209,8.5,1.755,16.859,3.05,25.236.48,3.113.272,6.2.71,9.317.23,1.588-.919,2.925-2.026,4.053a20.583,20.583,0,0,1-5.891,6.413c-.1.084-.23.167-.334.251-1.337,1.253.313,3.8-1.525,4.491a19.42,19.42,0,0,1-6.581,1.086,49.091,49.091,0,0,0-9.589.94c.042-6.81-.4-13.662.209-20.431.794-8.983,1.274-18.029,2.883-26.949.773-4.3.606-8.732,1.065-13.1,1.191-10.947,2.444-21.914,2.8-32.945a29.414,29.414,0,0,1,.627-3.76c.564-.669,1.233-.4,1.9-.209,5.536,1.5,11.344.564,16.921,1.776.334-.46.689-.46,1.024,0,1.629,0,3.28.021,4.909.042Z" transform="translate(107.417 173.174)" fill="#cefaf7"/>
    <path id="Tracé_527" data-name="Tracé 527" d="M92.91,164.239a2.6,2.6,0,0,1-.71-2.737c1.086-4.2.606-8.461.794-12.7a111.154,111.154,0,0,1,4.554-26.636c2.925-9.9,6.142-19.679,9.15-29.539a5.311,5.311,0,0,1,.668-1.065c2.716,3.739,4.492,8.147,7.855,11.469a13.191,13.191,0,0,0,1.086,1.3c4.617,3.614,4.721,7.855,2.173,12.785-5.244,10.111-10.257,20.368-16,30.208-3.259,5.6-6.748,11.072-9.589,16.921Z" transform="translate(91.049 95.441)" fill="#cefaf7"/>
    <path id="Tracé_528" data-name="Tracé 528" d="M97.689,154.331c-1.107-3.635,1.086-6.622,2.11-9.651,1.734-5.2,2.862-10.654,5.745-15.459.209-.334.4-.982.251-1.191-1.985-2.423.063-4.241,1-6.079a74.463,74.463,0,0,1,9.693-15.417,3.478,3.478,0,0,0,.836-1.4c.418-2.235.418-2.34,1.964-1.817,6.706,2.277,13.642,2.507,20.577,2.194a81.412,81.412,0,0,0,9.192-1.4c.836-.146,1.671-.418,2.465.23.042,1.713-1.567,1.588-2.4,1.713-7.709,1.212-15.459,2.11-23.23.585-6.706-1.316-9.4,0-12.451,6.2-.23.48-.669,1.421-.167,1.441,2.82.125,1.191,1.609.669,2.34-5.891,8.356-8.837,18.05-12.346,27.471-1.024,2.778-1.713,5.682-2.59,8.5-.209.648-.376,1.379-1.3,1.713Z" transform="translate(96.819 107.96)" fill="#d4d9f0"/>
    <path id="Tracé_529" data-name="Tracé 529" d="M140.3,183.834c-.418,2.549.752,5.285-.836,7.709a32.962,32.962,0,0,1-.877-10.111c.167-4.847-.877-9.547-1.358-14.31-.5-4.93-1.5-9.756-2.131-14.665a94.789,94.789,0,0,0-1.985-10.821c-1.776-7.27-3.76-14.477-5.661-21.705-.251-1.045-1.253-2.319.857-2.57a173.158,173.158,0,0,1,8.085,29.226c1.024,5.348,1.8,10.8,2.507,16.232a148.1,148.1,0,0,1,1.421,21.037Z" transform="translate(129.063 123.539)" fill="#cad0ed"/>
    <path id="Tracé_530" data-name="Tracé 530" d="M117.121,199.2c0-11.657-.564-23.356.23-34.95.439-6.476.418-12.973,1.17-19.47a82.35,82.35,0,0,0-.251-19.094c-.564-4.7-1.65-9.484-1-14.561a7.339,7.339,0,0,1,1.525,4.888c0,2.277.439,4.512.648,6.748.815,8.753,1.65,17.548.961,26.322q-1.6,19.93-1.629,39.9c-.877,2.549-.146,5.2-.439,7.771-.1.9.731,2.4-1.212,2.444Z" transform="translate(118.103 116.743)" fill="#cbd1ed"/>
    <path id="Tracé_531" data-name="Tracé 531" d="M101.158,72.054c.9,1.107,1.8,2.194,2.695,3.3a11.042,11.042,0,0,0,.857.857h-.021a11.361,11.361,0,0,0,.877.857h0a10.663,10.663,0,0,1,1.713,3.405c.021.292.063.564.084.857a4.893,4.893,0,0,0,.773.836c3.154,5.181,5.745,10.654,8.544,16.253q-2.047-.961-4.8-6.2c-1.212-2.34-2.4-4.68-3.8-7.416-1.128,1.692-.23,2.611.167,3.51,1.483,3.3,3.447,6.413,4.2,10.028.313.9-.1,1.086-.877.877-2.841-6.267-5.264-12.722-8.544-18.76-1.588-1.337-1.65-3.447-2.59-5.118v.042c-.648-.71-.146-1.734-.627-2.486a.948.948,0,0,0-.48-.167,2.245,2.245,0,0,1,1.88-.689Z" transform="translate(98.927 74.168)" fill="#d7dcf1"/>
    <path id="Tracé_532" data-name="Tracé 532" d="M117.06,158.595c1.483-1.5.564-3.405.815-5.1.251-1.713-.648-3.593.836-5.1,0,1.713.167,3.426,0,5.118-.48,5.223,1.045,10.007,2.653,14.9,1.316,3.99,2.778,8.043,2.57,12.388h-1.024c-1.316-5.411-2.486-10.884-4.3-16.169-.689-1.985-1.943-3.781-1.546-6.017Z" transform="translate(118.164 157.343)" fill="#d3d8f0"/>
    <path id="Tracé_533" data-name="Tracé 533" d="M95.4,143.278c-.063-.689-.919-1.525-.355-1.964,1.525-1.149,1.3,1.588,2.674,1.3.292-4.638-2.214-7.771-5.64-10.424a1.2,1.2,0,0,1,1-1.065c2.131.961,4.22,2.256,4.8,4.533.877,3.405,2.382,6.727,1.838,10.4-.084.606-.355,1.128-.982,1.212a1.542,1.542,0,0,1-1.483-.689c-.689-1.065-1.274-2.194-1.9-3.3Z" transform="translate(91.043 138.524)" fill="#77492a"/>
    <path id="Tracé_534" data-name="Tracé 534" d="M131.841,112.779c-.564.334-1.107.669-1.671.982a66.02,66.02,0,0,0-9-17.423,5.55,5.55,0,0,1-1.3-3.05h-.021c1.943-.522,2.987.9,3.823,2.089a72.794,72.794,0,0,1,8.168,14.916,3.355,3.355,0,0,1,0,2.507Z" transform="translate(121.286 97.201)" fill="#d6daf0"/>
    <path id="Tracé_535" data-name="Tracé 535" d="M125.643,106.295c1.274,1.5,2.256-.042,3.322-.376,1.692-.543,3.238-.919,4.429,1.546-3.468-.564-6.017.418-7.583,3.3-1.337,1.045-2.319.919-2.611-.919a4.884,4.884,0,0,1,.836-3.551A1.078,1.078,0,0,1,125.643,106.295Z" transform="translate(124.873 110.642)" fill="#77492a"/>
    <path id="Tracé_536" data-name="Tracé 536" d="M131.149,123.928c-1,.627-.773,1.65-.857,2.57-1.922-4.909-3.823-9.819-5.912-15.187,2.778,2.047,4.45,5.306,6.769,12.6Z" transform="translate(126.219 116.95)" fill="#d4d9f0"/>
    <path id="Tracé_537" data-name="Tracé 537" d="M93.561,135.911l-1,1.065c-1.483-3.05-.71-6.246-.585-9.38.021-.627.773-.71,1.3-.857.1,3.05.188,6.1.292,9.15Z" transform="translate(90.585 133.754)" fill="#77492a"/>
    <path id="Tracé_538" data-name="Tracé 538" d="M125.206,108.1H123.6a1.425,1.425,0,0,1,.021-.836c1.316-.606,1.671-2.214,3.05-2.8,1.734-.731,3.363-1.086,5.306.689-2.716.669-5.578.084-6.769,2.925Z" transform="translate(125.31 108.839)" fill="#77492a"/>
    <path id="Tracé_539" data-name="Tracé 539" d="M136.72,151h-.857c-1.212-2.716-2.214-5.473-1.4-8.92C136.553,144.963,135.864,148.2,136.72,151Z" transform="translate(136.88 150.46)" fill="#d7dbf0"/>
    <path id="Tracé_540" data-name="Tracé 540" d="M99.83,73.63a9.467,9.467,0,0,1,2.59,5.118,2.118,2.118,0,0,0-.919,1.8A13.82,13.82,0,0,1,99.83,73.63Z" transform="translate(99.483 75.914)" fill="#f7f4f0"/>
    <path id="Tracé_541" data-name="Tracé 541" d="M106.037,124.065c-.292-.292-.564-.585-.857-.877.794-1.149.585-2.925,2.361-4.157a7.471,7.471,0,0,1-1.5,5.035Z" transform="translate(105.309 125.357)" fill="#dadef2"/>
    <path id="Tracé_542" data-name="Tracé 542" d="M105.181,85.517l.877-.877a4.2,4.2,0,0,1,1.483,3.781c-1.755-.4-1.671-1.943-2.382-2.9Z" transform="translate(105.288 87.904)" fill="#e0e3f4"/>
    <path id="Tracé_543" data-name="Tracé 543" d="M104.013,77.856A4.472,4.472,0,0,1,102.3,74.43c1.3,1,3.05,1.525,3.551,3.363-.606.063-1.253-.9-1.838.042Z" transform="translate(102.173 76.785)" fill="#f6f3ef"/>
    <path id="Tracé_544" data-name="Tracé 544" d="M103.933,77.316l-.773-.836Z" transform="translate(103.109 79.018)" fill="#f6f3ef"/>
    <path id="Tracé_545" data-name="Tracé 545" d="M100.071,95.666c-.334.836-.668,1.671-1,2.528-5.452-.731-6.288-5.2-4.408-9.651,1.379-3.3,1.358-3.614-1.629-5.348-1.233-.71-2.465-1.379-3.635-2.173-4.011-2.653-5.16-6.434-4.157-11.009a14.971,14.971,0,0,0,.188-1.692c2.089.251,1.107,1.525.836,2.549.418,5.327,3.217,8.9,8.126,10.863a8.32,8.32,0,0,1,3.384,3.113c1.191-3.05,1.128-3.656-1.985-4.784a7.061,7.061,0,0,1-4.763-4.93A1.023,1.023,0,0,1,91.38,74a16.687,16.687,0,0,0,5.829,4.826c3.3,1.776,3.907,3.28,2.549,6.831-1.274,3.363-2.34,6.706.313,9.944Z" transform="translate(83.219 70.131)" fill="#77492a"/>
    <path id="Tracé_546" data-name="Tracé 546" d="M120.393,39.453c1.964,2.59,3.489,5.536,6.058,7.646,1.859.418,3.3,1.9,5.244,2.11,1.4.23,2.068,1.567,3.238,2.131.5.376.815.961.334,1.4-.982.9-2.068,1.4-3.426.543-5.473-3.426-10.09-7.6-12.451-13.83a.6.6,0,0,1,1,0Z" transform="translate(120.785 38.394)" fill="#77492a"/>
    <path id="Tracé_547" data-name="Tracé 547" d="M131.53,50.674c-.4.606-.836.46-1.274.063-.689-.585-1.4-1.149-2.11-1.734-1.943-.376-2.507-2.089-3.405-3.489-.23-1.964-2.528-3.05-2.194-5.724,2.9,2.068,3.969,5.411,6.393,7.458l.063.063a5.015,5.015,0,0,0,.794.836h.021a11.269,11.269,0,0,0,.815.9h0a11.042,11.042,0,0,1,.857.857h-.021a4.855,4.855,0,0,0,.084.773Z" transform="translate(124.187 39.06)" fill="#77492a"/>
    <path id="Tracé_548" data-name="Tracé 548" d="M111.67,51.485c.668-2.946,1.337-5.891,2.089-9.255,1.588,3.7.668,7.4-2.006,9.317Z" transform="translate(112.377 41.717)" fill="#77492a"/>
    <path id="Tracé_549" data-name="Tracé 549" d="M86,73.819c-.084-.919.167-1.943-.836-2.549.418-2.361,1.316-4.408,3.656-5.64C87.73,68.325,86.977,71.124,86,73.819Z" transform="translate(83.506 67.201)" fill="#77492a"/>
    <path id="Tracé_550" data-name="Tracé 550" d="M124.462,42.54c1.922.4,2.214,2.382,3.405,3.489a1.028,1.028,0,0,1-1.692.334c-1.149-.94-2.256-1.943-3.405-2.925a1.739,1.739,0,0,0,1.692-.9Z" transform="translate(124.466 42.055)" fill="#77492a"/>
    <path id="Tracé_551" data-name="Tracé 551" d="M112.216,48.66l-.877-.292a5.569,5.569,0,0,0-.9-.668h0c.355-1.17.71-2.319,1.065-3.489h.71v4.471Z" transform="translate(111.038 43.873)" fill="#77492a"/>
    <path id="Tracé_552" data-name="Tracé 552" d="M121.058,40.477h-.982a5.528,5.528,0,0,1-.919-.752c-.334-.418-.648-1.024,0-1.379.585-.334.961.167,1.212.668.251.48.48.961.731,1.441Z" transform="translate(120.12 37.37)" fill="#77492a"/>
    <path id="Tracé_553" data-name="Tracé 553" d="M115.885,209.763c1.4-2.653,2.653-5.432,5.891-6.413,3.572,2.068,4.742,5.6,5.16,9.275.292,2.59.857,4.68,3.2,6.017a7.253,7.253,0,0,1,.961.836c1.3,1.065,1.9,3.468,3.51,3.426a10.957,10.957,0,0,0,5.933-1.985,13.77,13.77,0,0,1,6.56,1.525,6.4,6.4,0,0,1,3.3,3.2,3.326,3.326,0,0,1-.1,3.635,2.664,2.664,0,0,1-3.113.689c-3.029-.94-5.87.439-8.774.836-2.841.4-4.763-.063-6.33-2.778-2.34-4.074-4.2-5.557-8.189-7.667-.627,2.987-1.233,5.87-1.943,9.255a5.719,5.719,0,0,1-1.692-4.157,16.325,16.325,0,0,0-2.486-7.165,12.269,12.269,0,0,1-1.859-8.482Z" transform="translate(116.832 217.187)" fill="#5b5766"/>
    <path id="Tracé_554" data-name="Tracé 554" d="M99.637,72.45c.836.669.648,1.609.648,2.486A1.875,1.875,0,0,1,99.637,72.45Z" transform="translate(99.049 74.629)" fill="#f7f4f0"/>
    <path id="Tracé_555" data-name="Tracé 555" d="M103.022,213.732a2.3,2.3,0,0,1-1.462-1.817c1.024-1.065.689-3.092,2.925-3.635-.46,1.9.063,3.886-1.462,5.452Z" transform="translate(101.367 222.556)" fill="#77492a"/>
    <path id="Tracé_556" data-name="Tracé 556" d="M122.067,206.387c-1.274-1.609-1.3-3.217-.063-5.1C123.466,203.087,122.84,204.737,122.067,206.387Z" transform="translate(122.642 214.944)" fill="#77492a"/>
    <path id="Tracé_557" data-name="Tracé 557" d="M146.473,63.47c2.987,6.518-.857,12.91-9.359,16.629-.376,1.609,1.086,2.131,1.9,2.966a6.787,6.787,0,0,1,2.194,4.45,24.015,24.015,0,0,1-2.9,13.1,6.347,6.347,0,0,1,.23-5.2c1.149-2.465.794-5.014.648-7.542-.125-2.089-1.525-3.531-3.154-4.826-2.423-1.9-2.361-2.11-.188-4.011,4.638-4.053,4.8-4.387,6.309-12.388a9.36,9.36,0,0,1,.877,6.142c2.507-2.152,2.653-2.528,3.468-9.317Z" transform="translate(136.925 64.849)" fill="#77492a"/>
    <path id="Tracé_558" data-name="Tracé 558" d="M119.826,71.248c-.5,3.154.731,5.975,2.34,9.255-3.071-.773-3.927-2.632-4.032-4.7-.146-2.82-.063-5.264-3.05-7.186-1.776-1.128-2.758-3.865-1.755-6.706,3.092.668,5.661,2.3,8.252,3.886a1.935,1.935,0,0,0-1.817,2.214C119.806,69.076,119.806,70.162,119.826,71.248Z" transform="translate(113.747 63.15)" fill="#77492a"/>
    <path id="Tracé_559" data-name="Tracé 559" d="M132.719,82.868l-.209-.836c1.546-2.486.4-5.473,1.233-8.273,2.862,2.737,2.716,5.2-.334,9.944h0a4.554,4.554,0,0,1-.71-.836Z" transform="translate(135.074 76.055)" fill="#77492a"/>
    <path id="Tracé_560" data-name="Tracé 560" d="M126.414,44.226c-.272-.272-.522-.564-.794-.836C125.892,43.662,126.142,43.954,126.414,44.226Z" transform="translate(127.57 42.98)" fill="#77492a"/>
    <path id="Tracé_561" data-name="Tracé 561" d="M126.825,44.677l-.815-.877Z" transform="translate(127.995 43.427)" fill="#77492a"/>
    <path id="Tracé_562" data-name="Tracé 562" d="M127.257,45.087c-.292-.292-.585-.585-.857-.877Z" transform="translate(128.419 43.873)" fill="#77492a"/>
    <path id="Tracé_563" data-name="Tracé 563" d="M131.841,142.019c-1.9-5.327-4.951-10.069-7.625-15a11.368,11.368,0,0,0-4.366-4.471c1.546-6.1.773-12.388,1.567-18.593a288.105,288.105,0,0,0,1.817-34.762c0-1.609-.146-3.363,2.4-2.737.063.5.146.982.23,1.483a1.807,1.807,0,0,0-.773,1.88c2.987,8.983,3.28,18.321,3.677,27.659a7.316,7.316,0,0,0,.439,1.9c-1.671-6.058,0-12.117-1.588-17.945-.919-3.384-.731-7.04-2.235-10.341a2.637,2.637,0,0,1,.46-3.154c3.865,5.515,6.079,11.8,8.21,18.112,2.4,7.145,4.262,14.394,3.739,22.061,1.776,3.426-.1,6.706-.752,9.881a105,105,0,0,0-2.256,18.906c-.021,1.567-.084,3.134-1.274,4.366l-1.671.773Z" transform="translate(121.286 67.961)" fill="#fff"/>
    <path id="Tracé_564" data-name="Tracé 564" d="M126.453,119.473c-.418-5.912.334-11.782,1-17.611.522-4.408,1.9-8.732,2.862-13.078.188-.815.272-1.65.418-2.465,1.985,1.253,2.716,3.468,4.011,5.264,2.131,2.946,4.157,5.933,6.267,8.879,1.17,1.629,2.131,3.3,1.609,5.411h0c-3.259,2.047-4.638,5.536-6.643,8.565-.23.334-.251.815-.46,1.191-2.82,5.327-3.468,5.6-9.108,3.865Z" transform="translate(128.346 89.734)" fill="#cefaf7"/>
    <path id="Tracé_565" data-name="Tracé 565" d="M134.14,98.427c.961-.5,1.128-1.609,1.734-2.361a7.835,7.835,0,0,1,11.594-.689c.146.146.063.522.084.815-1.065.94-1.838-.1-2.653-.418-3.99-1.546-5.766-1.086-8.377,2.277-.418.543-.877,1.233-1.462,1.441-.689.251-.752-.564-.877-1.086h0Z" transform="translate(136.849 97.16)" fill="#77492a"/>
    <path id="Tracé_566" data-name="Tracé 566" d="M132.611,78.12c.23.272.46.564.71.836A.747.747,0,0,1,132.611,78.12Z" transform="translate(135.182 80.804)" fill="#e36550"/>
    <path id="Tracé_567" data-name="Tracé 567" d="M124.76,48.9a39.477,39.477,0,0,1-1.191,15.417c-.5,1.671-1.337,2.4-3.029,2.11-.731-.125-1.421-.334-1.421-1.253,0-.794.627-.71,1.191-.752,1.755-.146,1.713-1.65,1.943-2.82a41.673,41.673,0,0,0,1.045-8.816C123.3,51.616,122.859,50.216,124.76,48.9Z" transform="translate(120.491 48.981)" fill="#77492a"/>
    <path id="Tracé_568" data-name="Tracé 568" d="M117.15,57.76q3.447,3.7,7.688,1.316c.042,2.486-1.734,4.533-3.844,4.491-2.194-.042-3.781-2.256-3.844-5.808Z" transform="translate(118.345 58.63)" fill="#77492a"/>
    <path id="Tracé_569" data-name="Tracé 569" d="M125.7,50.455c-3.551-.689-6.6-2.34-10.78-1.358C118.785,45.922,122.775,46.611,125.7,50.455Z" transform="translate(115.917 47.008)" fill="#77492a"/>
    <path id="Tracé_570" data-name="Tracé 570" d="M116.15,52.647c.167-1.3.334-2.737,2.068-2.549,1.107.125,1.421,1.233,1.4,2.3-.021,1.4-.648,2.674-2.047,2.758-1.567.084-1.337-1.421-1.421-2.507Z" transform="translate(117.256 50.268)" fill="#77492a"/>
    <path id="Tracé_571" data-name="Tracé 571" d="M124.114,56.364c-1.128-.146-1.421-.9-1.337-1.817a2.764,2.764,0,0,1,2.214-2.778c1.107-.167,1.107,1.024,1.128,1.859.021,1.4-.418,2.507-1.985,2.737Z" transform="translate(124.459 52.088)" fill="#77492a"/>
    <path id="Tracé_572" data-name="Tracé 572" d="M112.809,55.351c-2.444-1.629-2.674-4.45-3.739-6.831C111.89,49.9,112.245,52.677,112.809,55.351Z" transform="translate(109.546 48.567)" fill="#77492a"/>
    <path id="Tracé_573" data-name="Tracé 573" d="M102.767,74.9l-.877-.877Z" transform="translate(101.726 76.338)" fill="#f6f3ef"/>
    <path id="Tracé_574" data-name="Tracé 574" d="M102.347,74.487l-.857-.857Z" transform="translate(101.291 75.914)" fill="#f6f3ef"/>
    <path id="Tracé_575" data-name="Tracé 575" d="M110.44,45.88a1.019,1.019,0,0,1,.9.668A.842.842,0,0,1,110.44,45.88Z" transform="translate(111.038 45.692)" fill="#77492a"/>
    <path id="Tracé_576" data-name="Tracé 576" d="M90.951,78.62c-.146,2.507.585,4.2,2.152,6.413C89.342,82.359,89.259,82.067,90.951,78.62Z" transform="translate(88.662 81.348)" fill="#77492a"/>
    <path id="Tracé_577" data-name="Tracé 577" d="M123.591,67.238c0,3.719,1.755,7.061,2.152,10.738.439,4.178,1.441,8.314,1.337,12.576a29.341,29.341,0,0,0,.669,8.837,4.19,4.19,0,0,1-.46,3.969c-.313-.125-.752-.188-.773-.313-.418-3.907-1.065-7.813-1.128-11.72a68.636,68.636,0,0,0-3.2-21.183,5.361,5.361,0,0,1-.209-2.507c.167-1.128,1.024-.543,1.65-.418h0Z" transform="translate(123.541 68.643)"/>
  </g>
</svg>
