<svg xmlns="http://www.w3.org/2000/svg" width="1051.417" height="486.5" viewBox="0 0 1051.417 486.5">
  <g id="Groupe_497" data-name="Groupe 497" transform="translate(-868.583 -314)">
    <g id="a" transform="translate(840.894 264.074)">
      <path id="Tracé_578" data-name="Tracé 578" d="M533.571,156.342c-26.191-2.757-53.747,0-79.938-6.892,0,45.936-12.721,88.682-30.733,130.114,18.091,3.952,45.962,9.269,61.388,8.389,24.117-1.365,54.784-8.52,54.784-8.52L536.46,261.08l11.08,16.463.039-.026c-21.465-33.95-20.913-80.739-14.008-121.187Z" transform="translate(123.633 31.134)" fill="#f79c0b"/>
      <path id="Tracé_579" data-name="Tracé 579" d="M504.741,100.308c-13.26-4.149-46.763-11.855-64.578,8.835a95.325,95.325,0,0,0-6.853,8.967c25.469.551,50.754-4.516,71.444-17.815Z" transform="translate(126.89 14.228)" fill="#feb01b"/>
      <path id="Tracé_580" data-name="Tracé 580" d="M514.147,101.149c-.354-.026-.709-.053-1.09-.066,0,0-2.114-.853-5.632-1.943-20.69,13.3-45.975,18.366-71.444,17.815A77.851,77.851,0,0,0,424.73,142.1c33.4-3.715,66.1-17.447,89.4-40.934Z" transform="translate(124.206 15.396)" fill="#ffb640"/>
      <path id="Tracé_581" data-name="Tracé 581" d="M547.006,226.373c-.354-18.261,9.636-46.514,13.772-61.335,4.109-14.717,9.295-61.362-41.945-64.368-23.29,23.473-56.005,37.219-89.4,40.934-3.426,13.9-2.77,27.451-2,40.79,1.378,24.012-17.684,108.426-17.684,108.426s7.089,1.785,17.277,4.017c18-41.433,30.733-84.179,30.733-130.114,26.191,6.892,53.76,4.135,79.938,6.892-6.905,40.435-7.457,87.237,14.008,121.187.394-.21,13.3-6.932,19.075-15.413,0,0-23.421-32.729-23.775-51Z" transform="translate(119.519 15.874)" fill="#feb01b"/>
      <path id="Tracé_582" data-name="Tracé 582" d="M518.987,307.759s-49.756-10.476-70.761,0c0,0-4.555,12.511-8.415,28.291,26.348-11.5,54.771-16.975,83.273-20.021A80.754,80.754,0,0,0,518.987,307.759Z" transform="translate(128.923 79.201)" fill="#1e1d35"/>
      <path id="Tracé_583" data-name="Tracé 583" d="M524.346,312.95c-28.488,3.046-56.911,8.52-83.273,20.021-3.138,12.839-5.829,27.832-5.212,40.015,1.352,27.162,9.255,77.89,9.255,77.89l37.114.328s3.847-55.191,1.917-68.044l7.273-2.875s5.054,69.869,5.973,70.6,35.052,0,35.052,0,9.5-46.592,5.37-85.189c-2.665-24.852-9.177-42.969-13.483-52.749Z" transform="translate(127.66 82.281)" fill="#2c2945"/>
      <g id="Groupe_7" data-name="Groupe 7" transform="translate(543.493 227.124)">
        <path id="Tracé_584" data-name="Tracé 584" d="M450.969,204.7a15.635,15.635,0,0,1-7.523,4.411c-.6.131-1.168.276-1.746.42,1.523,9.57,3.361,22.738,2.954,28.357,0,0,26.874,13.785,34.107,14.126s23.775-10.332,26.874-14.467c1.877-2.508-.171-16.332-2.074-26.834-4.857-1.523-7.365-4.293-8.323-11.3-14.165,4.188-29.315,5.632-44.282,5.291Z" transform="translate(-413.978 -180.361)" fill="#fcceb6"/>
        <path id="Tracé_585" data-name="Tracé 585" d="M461.153,184.9s-4.057,16.135-12.393,24.327c14.966.341,30.116-1.1,44.282-5.291a68.123,68.123,0,0,1-.46-9.689Z" transform="translate(-411.77 -184.9)" fill="#fcbfa4"/>
        <path id="Tracé_586" data-name="Tracé 586" d="M445.4,237.145A93.59,93.59,0,0,0,442.9,208.42c-8.717,3.505-13.562,9.807-17.067,22.751-4.372,16.122-5.238,42.142-5.238,42.142s-1.011,34.094,20.008,37.494c.21-14.467,1.641-34.068,2.6-41.288,1.247-9.413,2.192-32.374,2.192-32.374Z" transform="translate(-420.584 -177.542)" fill="#fcbfa4"/>
        <path id="Tracé_587" data-name="Tracé 587" d="M531.161,274.534c-2.56-19.771-14.73-35.63-16.45-41.131-1.129-3.623-3.584-16.056-5.133-24.13a35.2,35.2,0,0,1-4.175-.971c1.9,10.5,3.952,24.327,2.074,26.834-3.1,4.135-19.64,14.822-26.874,14.467S446.5,235.477,446.5,235.477c.42-5.606-1.418-18.773-2.954-28.357a40.281,40.281,0,0,0-5.409,1.72,93.959,93.959,0,0,1,2.508,28.725s-.945,22.961-2.192,32.374c-.958,7.221-2.4,26.821-2.6,41.288.1.013.21.052.315.066,0,0,4.91,23.723,13.312,26.506,0,0,37.678-3.768,49.06-2.389s19.981,4.1,21.714,2.389,5.212-9.19,8.954-26.506c2.875-13.286,2.757-14.467,2.757-14.467s.158.171.42.459a138.317,138.317,0,0,0-1.195-22.725Z" transform="translate(-415.808 -177.949)" fill="#64ad99"/>
        <path id="Tracé_588" data-name="Tracé 588" d="M494.728,209.2c-.958-.144-1.864-.289-2.718-.446,1.549,8.074,3.991,20.506,5.133,24.13,1.72,5.514,13.9,21.36,16.45,41.131a138.24,138.24,0,0,1,1.195,22.725,136,136,0,0,0,12.459,11.619,394.08,394.08,0,0,0-30.024-98.738C496.434,209.459,495.607,209.328,494.728,209.2Z" transform="translate(-398.24 -177.439)" fill="#fcbfa4"/>
        <path id="Tracé_589" data-name="Tracé 589" d="M558.612,290.92s-21.36-24.117-35.486-50.649c-13.1-24.6-17.014-28.908-27.136-30.851a394.623,394.623,0,0,1,30.024,98.738c8.31,6.866,19.916,14.887,32.611,18.944V290.92Z" transform="translate(-396.995 -177.229)" fill="#fcceb6"/>
      </g>
      <path id="Tracé_590" data-name="Tracé 590" d="M454.518,145.909s-20.677-10.857-23.946,7.063,7.575,18.892,15.5,18.143c0,0,2.586,30.09,33.766,41.118s59.261-12.065,62.714-28.081,3.623-22.226,3.623-22.226S527.052,134.015,522.4,118.34c0,0-47.039,29.289-67.886,27.569Z" transform="translate(125.846 21.402)" fill="#fcceb6"/>
      <path id="Tracé_591" data-name="Tracé 591" d="M435.307,144.05c4.254-2.271,7.733-2.284,11.146,1.3,3.138,3.3,1.352,9.781-.315,13.457-.368.814.7,1.864,1.352,1.037,3.256-4.162,3.768-11.724.315-15.833-3.335-3.965-9.465-4.884-13.1-.748a.5.5,0,0,0,.6.788Z" transform="translate(127.282 28.355)"/>
      <path id="Tracé_592" data-name="Tracé 592" d="M439.765,148.406c2.573.079,5.028.945,6.131,3.453.433.985,1.759.223,1.6-.683-.525-3.059-5.369-4.792-7.956-3.584-.407.2-.184.8.223.814h0Z" transform="translate(128.772 30.432)"/>
      <path id="Tracé_593" data-name="Tracé 593" d="M478.867,166.487c-.6,2.061.683,4.319,1.917,5.934,1.1,1.444,3.059,3.348,5,3.072.8-.118.761-1.221.21-1.575a21.453,21.453,0,0,1-3.65-2.691c-1.326-1.339-1.694-3.282-2.547-4.857a.516.516,0,0,0-.932.118Z" transform="translate(141.093 36.349)"/>
      <path id="Tracé_594" data-name="Tracé 594" d="M476.432,159.689c1.4-4.359,3.2-11.75-2.363-13.9-2.993-1.155-6.092.617-7.93,2.875-1.641,2.035-3.781,5.881-3.6,8.586.053.683.945,1.221,1.47.6,2.823-3.282,2.77-10.831,8.94-9.991,4.582.617,2.8,8.7,2.442,11.671-.079.617.866.683,1.037.144h0Z" transform="translate(136.031 29.874)"/>
      <path id="Tracé_595" data-name="Tracé 595" d="M501.721,164.86c1.484-2.98,3.755-7.877,7.9-7.194,3.938.643.893,9.229.6,11.435-.118.945,1.392,1.326,1.8.486,1.589-3.348,3.768-11.973-1.195-13.877-5.54-2.127-9.374,4.359-9.991,8.914-.066.473.683.643.88.236Z" transform="translate(148.014 32.962)"/>
      <path id="Tracé_596" data-name="Tracé 596" d="M489.949,173.828c4.28-1.129,11.868-7.352,5.33-10.831a3.653,3.653,0,0,0-2.573-.223c-4.91,1.667-3.387-4.057-2.718-7.26a53.564,53.564,0,0,1,8.809-19.6c.643-.893-.84-2.035-1.523-1.182a51.633,51.633,0,0,0-10.148,24.576c-.171,1.3-1.024,6.026,1.024,6.656a2.657,2.657,0,0,0,2.508-.092q2.639-1.26,3.085,4.4a11.323,11.323,0,0,1-4.2,2.613c-.551.249-.158,1.1.407.958h0Z" transform="translate(143.625 26.436)"/>
      <path id="Tracé_597" data-name="Tracé 597" d="M464.131,145.512c4.949-4.647,11.8-5.685,18.222-6.709.958-.158.617-1.51-.21-1.589-6.354-.591-14.454,2.941-18.747,7.562a.52.52,0,0,0,.735.735h0Z" transform="translate(136.255 27.286)"/>
      <path id="Tracé_598" data-name="Tracé 598" d="M509.511,144.4a57.21,57.21,0,0,1,4.254,6.118c1.457,2.757,2.521,5.7,3.86,8.507.381.814,1.457.315,1.536-.42.276-2.731-2.009-5.842-3.138-8.231a15.6,15.6,0,0,0-5.816-6.682c-.42-.249-1.011.276-.7.7h0Z" transform="translate(150.7 29.314)"/>
      <path id="Tracé_599" data-name="Tracé 599" d="M436.45,153.564c-3.676.354-5.186,4.49-5.776,7.693a11.652,11.652,0,0,0,2.783,9.676c2.77,3.3,15.636,7.207,15.78.079a.622.622,0,0,0-1.05-.433c-3.742,3.3-8.822,2.678-12.616-.394-4.162-3.361-4.739-13.43,1-15.728.446-.171.433-.958-.118-.906h0Z" transform="translate(126.008 32.416)"/>
      <path id="Tracé_600" data-name="Tracé 600" d="M461.7,279.105c5.054,1.326,11.369-.7,16.345-1.746,7.929-1.667,15.019-4.923,22.646-7.286a1.077,1.077,0,0,0-.578-2.074c-6.118,1.5-12,4.582-18.143,6.328-5.776,1.654-14.126,4.726-20.165,3.912-.5-.066-.578.735-.118.853h0Z" transform="translate(135.67 68.208)"/>
      <path id="Tracé_601" data-name="Tracé 601" d="M464.617,283.892c11.815.8,23.723.354,34.895-3.833a.79.79,0,0,0-.42-1.523c-11.605,2.455-22.515,4.4-34.475,4.437a.46.46,0,0,0,0,.919h0Z" transform="translate(136.543 71.508)"/>
      <path id="Tracé_602" data-name="Tracé 602" d="M458.006,374.579c10.174.039,20.966-3.518,30.379-7.155,4.254-1.641,8.218-4.477,11.973-7,2.468-1.654,5.383-3.138,6.945-5.737.656-1.09-.932-1.917-1.667-.971-2,2.6-5.566,4.293-8.245,6.092a60.5,60.5,0,0,1-14.008,7.142,147.608,147.608,0,0,1-25.548,6.407c-.7.105-.512,1.195.158,1.195h0Z" transform="translate(134.424 94.906)"/>
      <path id="Tracé_603" data-name="Tracé 603" d="M447.75,313.274a.178.178,0,0,0,0-.354.178.178,0,0,0,0,.354Z" transform="translate(131.355 82.272)"/>
      <path id="Tracé_604" data-name="Tracé 604" d="M447.829,313.785a3,3,0,0,0-.341.026c.079.565.158,1.116.223,1.68,10.056-3.676,22.646-3.479,33.241-4.148,12.157-.775,23.237-.867,35.263,1.392a1.138,1.138,0,0,0,.6-2.192c-11.8-3.584-23.775-2.442-35.866-1.733-10.384.6-24.392.381-33.9,5.12-.919.459-.236,1.733.656,1.562l.341-.066c.932-.171.709-1.707-.223-1.641h0Z" transform="translate(131.053 80.751)"/>
      <path id="Tracé_605" data-name="Tracé 605" d="M472.885,304.233c.249,4.017-.551,8.389-.525,12.459.039,6.538.263,13.076.565,19.614.538,11.54,3.938,22.436,5.159,33.858a.965.965,0,0,0,1.93,0c.21-5.212-1.077-10.109-2.258-15.163a117.522,117.522,0,0,1-2.665-21.2c-.328-6.512-.551-13.05-.748-19.561-.092-3.164.735-7.286-.67-10.227a.425.425,0,0,0-.788.21h0Z" transform="translate(139.105 79.42)"/>
      <path id="Tracé_606" data-name="Tracé 606" d="M477.133,358.966c7.037-1.129,5.238-11.317,4.792-16.424-.932-10.66-3.072-21.4-4.766-31.967-.158-1.011-1.9-.775-1.8.249.63,5.987,1.431,11.986,2.521,17.907.985,5.369,6.617,25.823-1.076,29.04a.62.62,0,0,0,.328,1.195Z" transform="translate(140.043 81.335)"/>
      <path id="Tracé_607" data-name="Tracé 607" d="M515.1,343.516c-1.352.315-4.188-2.665-5.186-3.426-3.6-2.744-6.236-7.037-8.468-10.9-2.3-3.991-4.779-7.772-6.315-12.157-.893-2.573-1.352-5.619-3.111-7.759-.735-.893-2.009.249-1.536,1.182,2.087,4.1,2.914,8.77,5.068,12.905a71.525,71.525,0,0,0,7.47,12.052c1.641,2.009,8.73,10.831,12.446,8.953.5-.249.144-.985-.368-.866h0Z" transform="translate(144.743 81.031)"/>
      <path id="Tracé_608" data-name="Tracé 608" d="M439.222,350.754c13.417-5.251,17.973-24.865,16.161-37.56-.21-1.5-2.494-.866-2.271.63,1.838,12.183-2.6,29.736-14.284,36-.5.276-.158,1.155.394.932Z" transform="translate(128.54 82.09)"/>
      <path id="Tracé_609" data-name="Tracé 609" d="M478.814,170.663c-1.378,3.413-7.339,4.227-13.312,1.812s-9.7-7.129-8.323-10.542,7.339-4.227,13.312-1.812,9.7,7.129,8.336,10.542Z" transform="translate(134.267 34.037)" fill="#fcbfa4"/>
      <path id="Tracé_610" data-name="Tracé 610" d="M515.639,176.561c.079,3.676-5.081,6.774-11.527,6.905s-11.724-2.744-11.8-6.42,5.081-6.774,11.527-6.905S515.56,172.885,515.639,176.561Z" transform="translate(145.346 37.605)" fill="#fcbfa4"/>
      <path id="Tracé_611" data-name="Tracé 611" d="M334.273,120.207s4.91-21.635-2.678-33.871S316.6,72.381,316.6,72.381s-3.965-16.371-22.909-21.36-32.046,8.953-46.172,5.343-24.471-.866-20.336,6.722c0,0-11.894-2.928-8.953,6.38,0,0-12.577-5-16.883,5.343s10.673,25.784,24.366,22.738,95.548,28.081,95.548,28.081l13.01-5.409Z" transform="translate(54.09 0)"/>
      <path id="Tracé_612" data-name="Tracé 612" d="M299.377,167.59c-1.838,22.9,9.886,67.3,9.886,67.3,6.84,3.072,21.53,5.094,38.492,6.446a220.981,220.981,0,0,1-38.991-68.648C302.829,169.559,299.377,167.59,299.377,167.59Z" transform="translate(84.93 36.809)" fill="#6b4e45"/>
      <path id="Tracé_613" data-name="Tracé 613" d="M430.792,242.717l-5.054-29.407c-41.577-2.888-97.359-30.287-119.257-41.84a221.13,221.13,0,0,0,38.991,68.648C382.677,243.072,430.792,242.717,430.792,242.717Z" transform="translate(87.214 38.023)" fill="#826459"/>
      <path id="Tracé_614" data-name="Tracé 614" d="M144.639,242.08l-3.059,19.246s40.842-3.833,70.184-8.73c12.538-22.161,21.832-46.33,24.471-71.956-17.487,13.43-65.484,49.507-91.609,61.44Z" transform="translate(35.628 40.891)" fill="#826459"/>
      <path id="Tracé_615" data-name="Tracé 615" d="M226.122,176.74s-2.442,1.917-6.59,5.107c-2.652,25.626-11.934,49.782-24.471,71.956,13.85-2.311,25.141-4.871,28.37-7.365,0,0,18.235-61.769,2.7-69.7Z" transform="translate(52.358 39.671)" fill="#6b4e45"/>
      <path id="Tracé_616" data-name="Tracé 616" d="M335.809,320.922c-.092-.473-.2-.945-.289-1.392-60.64,1.378-112.8,17.579-112.8,17.579s-.354,17.671-.512,39.2c36.142-21.373,74.661-38.426,114.269-51.988-.223-1.182-.446-2.324-.67-3.4Z" transform="translate(60.852 84.34)" fill="#1e1d35"/>
      <path id="Tracé_617" data-name="Tracé 617" d="M222.23,375.161c-.223,29.3-.118,65.746,1.667,74.621H287.99s-5.514-48.01-6.2-51.8l9.649-2.416,3.44,54.207h58.578S343.68,360.759,336.5,323.16c-39.608,13.562-78.126,30.615-114.269,51.988Z" transform="translate(60.831 85.475)" fill="#2c2945"/>
      <path id="Tracé_618" data-name="Tracé 618" d="M244,168.951s-16.949,5.133-24.143,12.026c0,0,1.772,49.074-4.779,82.944,0,0,2.061,42.824,2.061,55.585s.459,54.784,7.811,66.508c0,0,41.459-8.153,56.281-8.389s49.625-2.639,56.517-9.19,1.037-37.56,0-63.751-.341-60.233-.341-60.233S324.32,188.3,325.7,168.964l-21.714-5.724L244,168.964Z" transform="translate(58.621 35.448)" fill="#64ad99"/>
      <path id="Tracé_619" data-name="Tracé 619" d="M237.165,171.291s-4.464,40.278,25.863,40.96,34.107-46.684,34.107-46.684-7.431.84-11.684-9.807c-13.863,5.855-29.762,12.472-43.678,12.721A14.246,14.246,0,0,1,237.165,171.291Z" transform="translate(65.458 33.108)" fill="#826459"/>
      <path id="Tracé_620" data-name="Tracé 620" d="M248.668,151.019s-.46,13.745-8.048,20.546c13.929-.249,29.827-6.866,43.678-12.721a43.97,43.97,0,0,1-2.691-12.984l-32.952,5.159Z" transform="translate(66.611 30.011)" fill="#6b4e45"/>
      <path id="Tracé_621" data-name="Tracé 621" d="M219.825,85.193s1.037,27.793,0,41.984,5.514,35.893,26.191,42.444,58.237-1.378,70.289-30.326c0,0,19.981,6.892,21.36-17.579-4.135-18.6-22.738-8.953-22.738-8.953S303.9,101.393,301.141,82.094c0,0-12.065-3.44-36.864,0A319.765,319.765,0,0,1,219.825,85.193Z" transform="translate(60.073 9.585)" fill="#826459"/>
      <path id="Tracé_622" data-name="Tracé 622" d="M251.078,129.835c1.536,1.378,4.871.486,6.472-.341,2.534-1.313,3.965-4.582,4.647-7.194.223-.866-1.1-1.5-1.5-.63-.853,1.877-1.352,3.794-2.744,5.369-1.628,1.864-4.227,2.074-6.551,1.956a.485.485,0,0,0-.341.827h0Z" transform="translate(69.833 22.314)"/>
      <path id="Tracé_623" data-name="Tracé 623" d="M250.574,129.995c-.512-.223-1.024-.459-1.536-.683q-5.179-1.615-.84-5.973a9.008,9.008,0,0,0,3.374,1.221c2.3,0,2.914-1.93,3.479-3.768,2.626-8.494-1.484-20.808-3.374-29.119-.289-1.273-2.232-.735-1.943.538a175.973,175.973,0,0,1,3.807,21.662c.407,4.07.026,9.951-5.829,7.273a4.966,4.966,0,0,0-3.2-.131c-2.219.341-1.864,3.387-1.444,4.726.906,2.928,4.516,4.5,7.181,5.028.446.092.8-.578.328-.788h0Z" transform="translate(67.278 12.832)"/>
      <path id="Tracé_624" data-name="Tracé 624" d="M294.908,125.783c-1.628-3.033-.958-8.4.748-11.225,1.221-2.009,3.794-3.545,5.908-4.424,2.6-1.09,4.621-.079,6.735,1.392.945.656,1.851-.735,1.168-1.51-4.267-4.818-10.476-1.68-14.323,1.956-3.505,3.321-3.82,10.45-1.09,14.3a.5.5,0,0,0,.853-.5h0Z" transform="translate(82.756 18.029)"/>
      <path id="Tracé_625" data-name="Tracé 625" d="M293.558,117.99c1.011-4.726,7.483-3.02,10.45-2.022.735.249,1.418-.84.788-1.352-2.271-1.8-5.606-1.93-8.323-1.221-1.917.5-4.254,2.429-3.925,4.595.079.525.919.486,1.024,0h0Z" transform="translate(82.845 19.73)"/>
      <path id="Tracé_626" data-name="Tracé 626" d="M234.846,333.813c8.218.053,16.043.368,24.248-.67,8.271-1.037,16.489-2.665,24.681-4.214,13.772-2.6,28.751-7,39.332-16.66.656-.6-.223-1.785-.958-1.247-11.934,8.52-24.511,13.312-38.807,16.345-7.247,1.536-14.612,2.77-21.937,3.912-8.914,1.378-17.644,1-26.545,1.759a.388.388,0,0,0,0,.775h0Z" transform="translate(64.692 81.636)"/>
      <path id="Tracé_627" data-name="Tracé 627" d="M258.369,319.4c9.531-2.6,18.156-11.343,25.1-17.986a59.308,59.308,0,0,0,9.6-12.721c2.809-4.713,6.42-9.1,8.428-14.2.315-.8-.919-1.247-1.339-.565-2.061,3.348-4.569,6.328-6.59,9.7-3.151,5.264-5.855,10.332-10,14.953-6.564,7.339-16.069,16.581-25.469,19.85a.5.5,0,0,0,.263.971h0Z" transform="translate(71.968 69.967)"/>
      <path id="Tracé_628" data-name="Tracé 628" d="M253.494,322.555c9.531-5.33,16.41-17.277,21.347-26.624a146.744,146.744,0,0,0,7.641-17.566c1.851-5.041,4.1-11.5,4.122-16.883a.966.966,0,0,0-1.93,0c-1.037,11.474-6.682,23.224-11.619,33.411-4.556,9.4-11.277,20.808-20.06,26.808a.494.494,0,0,0,.5.853h0Z" transform="translate(70.41 65.89)"/>
      <path id="Tracé_629" data-name="Tracé 629" d="M255.49,392.075c9.978-2.494,19.469-6.393,28.856-10.542,7.969-3.518,18.55-9.19,23.158-16.975a.749.749,0,0,0-1.168-.906C293,377.91,273.279,384.894,255.215,391.077a.505.505,0,0,0,.276.971h0Z" transform="translate(71.065 98.074)"/>
      <path id="Tracé_630" data-name="Tracé 630" d="M273.348,380.3c2.206,1.549,7.378-.84,9.7-1.221,5.107-.84,10.555-1.615,15.006-4.424.656-.407.236-1.615-.551-1.3a71.236,71.236,0,0,1-11.815,3.571c-2.035.407-4.083.775-6.118,1.208-1.812.381-3.952,1.746-5.881,1.313a.477.477,0,0,0-.368.866h0Z" transform="translate(76.773 101.161)"/>
      <path id="Tracé_631" data-name="Tracé 631" d="M271.628,112.295c0,2.192-1.182,3.965-2.639,3.965s-2.639-1.772-2.639-3.965,1.182-3.965,2.639-3.965S271.628,110.1,271.628,112.295Z" transform="translate(74.66 18.271)"/>
      <path id="Tracé_632" data-name="Tracé 632" d="M236.9,112.295c0,2.192-1.182,3.965-2.639,3.965s-2.639-1.772-2.639-3.965,1.182-3.965,2.639-3.965S236.9,110.1,236.9,112.295Z" transform="translate(63.795 18.271)"/>
      <path id="Tracé_633" data-name="Tracé 633" d="M283.771,98.936S273.9,87.212,270.446,87.33c-3.755.131-2.061,2.875-2.061,2.875s-5.054,1.5-2.875,4.135,11.028,4.254,14.362,6.092,5.173,2.757,5.173,2.757l-1.26-4.254Z" transform="translate(74.226 11.701)"/>
      <path id="Tracé_634" data-name="Tracé 634" d="M225.23,99.286S235.1,87.562,238.555,87.68c3.755.131,2.074,2.875,2.074,2.875s5.054,1.5,2.875,4.135-11.028,4.254-14.362,6.092-5.173,2.757-5.173,2.757Z" transform="translate(61.402 11.81)"/>
      <path id="Tracé_635" data-name="Tracé 635" d="M309.473,126.712c.171,12.6,14.179,16.056,14.179,16.056s18.471,14.533,39.831,28.37c20.047-20.493,35.67-45.923,42.93-73.138-30.077,16.844-63.318,22.134-96.952,28.712Z" transform="translate(88.146 15.039)" fill="#bf674f"/>
      <path id="Tracé_636" data-name="Tracé 636" d="M437.773,128.464c-5.855-29.985-26.243-31.836-27.228-32.506-27.228-18.721-78.914-7.811-95.443,18.209-4.175,6.577-5.7,11.868-5.632,16.135,33.635-6.577,66.862-11.868,96.952-28.712-7.26,27.215-22.883,52.644-42.93,73.138,20.651,13.378,44.006,26.1,56.045,24.445,24.471-3.387,24.1-40.724,18.248-70.7Z" transform="translate(88.149 11.462)" fill="#cd7659"/>
      <path id="Tracé_637" data-name="Tracé 637" d="M452.159,361.154c-.42-1.05-.84-2.022-1.287-2.928-10.332-21.018-13.1-19.3-13.1-19.3l-98.239,13.443s-.21,15.006-.341,32.886c37.179-8.3,75.474-24.957,112.982-24.1Z" transform="translate(97.446 90.398)" fill="#2c8599"/>
      <path id="Tracé_638" data-name="Tracé 638" d="M339.222,379.948c-.184,23.171-.263,51.161.341,57.515H464.492s-2.967-58.2-12.288-81.605c-37.508-.866-75.8,15.806-112.982,24.1Z" transform="translate(97.415 95.694)" fill="#3793b5"/>
      <path id="Tracé_639" data-name="Tracé 639" d="M365.244,205.24s-14.375,2.206-16.739,10.122-19.587,17.579-22.7,27.228-12.341,56.859-14.612,72.363,1.168,46.513,8.415,63.055,22.646,29.631,28.9,33.425V398.344s43.468,7.575,83.089-4.818c0,0,11.028,19.981,24.812,31.009,0,0,26.532-39.621,30.668-60.653s0-51.87-6.551-75.041-16.883-50.386-25.154-63.488-35.5-17.92-35.5-17.92-6.2-9.978-18.261-8.612-36.365,6.407-36.365,6.407Z" transform="translate(88.472 46.538)" fill="#e95f33"/>
      <path id="Tracé_640" data-name="Tracé 640" d="M394.009,198.41c-13.417.643-26.729,1.5-39.713,3.833-.827,3.256-2.4,6.38-5.356,8.048,0,0,29.972,7.234,50.308-4.818a34.446,34.446,0,0,1-5.238-7.05Z" transform="translate(100.496 46.45)" fill="#f9b28f"/>
      <path id="Tracé_641" data-name="Tracé 641" d="M388.8,186.963l-35.158,7.444a34.979,34.979,0,0,1-.63,11.408c13-2.337,26.309-3.177,39.713-3.833a28.141,28.141,0,0,1-3.938-15.032Z" transform="translate(101.77 42.865)" fill="#f2a381"/>
      <path id="Tracé_642" data-name="Tracé 642" d="M320.292,137.471s1.589,18.432.079,31.35,6.315,47.367,54.049,48.115c47.708-6.144,43.835-39.91,43.665-39.91s17.579,4.437,18.065-12.275-17.605-12.538-17.605-12.538-17.29-23.447-20.6-37.284c0,0-48.023,18.668-77.641,22.528Z" transform="translate(91.505 20.335)" fill="#f9b28f"/>
      <path id="Tracé_643" data-name="Tracé 643" d="M361.433,401.226c14.008,3.86,31.062,5.606,45.306,2.258a.625.625,0,0,0-.171-1.221c-15.137,1.3-29.906,1.155-44.912-1.851a.422.422,0,0,0-.223.814Z" transform="translate(104.309 109.639)"/>
      <path id="Tracé_644" data-name="Tracé 644" d="M377.8,422.975c.328-3.2-.144-6.433-.276-9.649s0-6.433-.328-9.649a.676.676,0,0,0-1.352,0c-.512,6.341.328,13.115,1.247,19.39.066.446.683.276.722-.092h0Z" transform="translate(108.865 110.458)"/>
      <path id="Tracé_645" data-name="Tracé 645" d="M376.149,411.241c.026-10.91-.945-21.911-1.536-32.808-.446-8.1-.315-17.448-2.337-25.338a.974.974,0,0,0-1.877.512c.013.066.039.144.053.21a.916.916,0,0,0,1.759,0c.013-.066.039-.144.053-.21a.974.974,0,0,0-1.877-.512c-.643,2.508.512,5.973.788,8.533.617,5.553.919,11.225,1.339,16.8.814,10.962,1.549,21.885,2.731,32.808.066.551.893.591.893,0h0Z" transform="translate(107.145 94.623)"/>
      <path id="Tracé_646" data-name="Tracé 646" d="M374.474,400.35c7.785-1.483,9.229-6.459,9.137-13.588-.158-11.4-2.376-23.6-4.634-34.724-.223-1.09-2.048-.853-1.943.263.013.158.026.3.039.459a.953.953,0,0,0,1.9,0c0-.158.026-.3.039-.459-.643.092-1.3.171-1.943.263,1.234,6.774,2,13.693,3.111,20.506a96.118,96.118,0,0,1,1.444,13.693c.118,6.21-1.5,10.161-7.4,12.59a.518.518,0,0,0,.276,1h0Z" transform="translate(108.295 94.288)"/>
      <path id="Tracé_647" data-name="Tracé 647" d="M340.157,362.212c4.884,2.731,11.3,2.521,16.752,2.849,9.177.551,18.419.473,27.622.3a129.173,129.173,0,0,0,24.34-2.245c4.989-1.05,13.391-2.954,16.844-7.116a.817.817,0,0,0-1.155-1.155c-4.661,4.122-12.616,5.619-18.537,6.853-7.851,1.641-16.017,1.6-24,1.772-6.7.144-13.391.066-20.086-.079-6.932-.158-14.809.171-21.452-1.93a.42.42,0,0,0-.328.761h0Z" transform="translate(97.687 95.313)"/>
      <path id="Tracé_648" data-name="Tracé 648" d="M339.649,384.7c3.584-1.26,6.656-7.312,8.586-10.161,4.175-6.157,8.284-14.572,9.387-22.016.171-1.155-1.6-1.654-1.759-.486-.919,6.288-4.1,12.446-6.905,18.091-1.838,3.689-5.829,11.632-9.689,13.653a.5.5,0,0,0,.381.919h0Z" transform="translate(97.395 94.301)"/>
      <path id="Tracé_649" data-name="Tracé 649" d="M401.417,347.857c2.416,3.6,5.4,6.735,7.759,10.4,1.969,3.059,3.728,6.446,6.17,9.15a100.03,100.03,0,0,0,21.648,17.474c.8.486,1.746-.7,1.011-1.313-6.5-5.422-13.68-9.951-19.732-15.9-6.183-6.092-9.794-14.231-16.148-20.349-.354-.341-1,.105-.709.551h0Z" transform="translate(116.89 92.995)"/>
      <path id="Tracé_650" data-name="Tracé 650" d="M342.035,376.653c1.129-7.326-4.674-15.465-7.273-22-4.017-10.083-5.79-20.966-6.8-31.718-1.969-20.926.053-41.577,1.838-62.412.053-.67-1.077-.827-1.182-.158-2.967,19.089-3.413,38.623-2.389,57.9a143.933,143.933,0,0,0,4.175,27.884,79.108,79.108,0,0,0,3.768,11.29c2.56,6.026,6.722,12.354,6.971,19.089.013.473.788.63.866.118h0Z" transform="translate(93.236 65.696)"/>
      <path id="Tracé_651" data-name="Tracé 651" d="M403.57,356.234c8.94-11.343,17.552-26.611,19.929-41.039.158-.985-1.247-1.418-1.523-.42a135.68,135.68,0,0,1-19.207,40.842c-.328.473.433,1.063.8.617Z" transform="translate(117.311 82.675)"/>
      <path id="Tracé_652" data-name="Tracé 652" d="M421.765,323.973c.118-10.174-3.177-20.7-6.183-30.313a239.928,239.928,0,0,0-11.7-30.392c-.565-1.208-2.363-.158-1.8,1.05,8.586,18.248,17.119,39.4,18.878,59.655a.4.4,0,0,0,.8,0Z" transform="translate(117.088 66.572)"/>
      <path id="Tracé_653" data-name="Tracé 653" d="M342.36,216.846c5.146,1.615,10.043,3.912,15.229,5.409,5.369,1.549,11.3,1.365,16.817,1.378a53.8,53.8,0,0,0,15.583-2.573c3.623-1.063,7.68-1.917,10.437-4.608a.748.748,0,0,0-.906-1.168c-8.048,4.556-18.445,6.262-27.53,6.262-10.555,0-19.325-3.177-29.394-5.606a.464.464,0,0,0-.249.893h0Z" transform="translate(98.333 51.697)"/>
      <path id="Tracé_654" data-name="Tracé 654" d="M349.783,218.223a1.171,1.171,0,0,0,.236.5c.328.381.866.053.906-.368.105-1.4.276-2.8.46-4.188a6.245,6.245,0,0,0-.039-3.44.572.572,0,0,0-.985,0,9.143,9.143,0,0,0-.394,3.44,40.549,40.549,0,0,0-.1,4.188c.3-.118.6-.249.906-.368a1.347,1.347,0,0,0-.5-.236.4.4,0,0,0-.486.486h0Z" transform="translate(100.756 50.215)"/>
      <path id="Tracé_655" data-name="Tracé 655" d="M359.394,219.575c.866-.131.919-2.324,1.011-2.9a34.333,34.333,0,0,0,.5-5.186.716.716,0,0,0-.354-.617c-1.392-.775-1.116,2.127-1.142,2.718-.053,1.077-.131,2.153-.21,3.23-.026.354,0,1.89-.223,2.061-.368.289.053.748.407.7h0Z" transform="translate(103.591 50.307)"/>
      <path id="Tracé_656" data-name="Tracé 656" d="M367.752,219.253a.992.992,0,0,0-.144.46l1.024-.276c-.433-.761-.092-2.1-.052-2.941.079-1.746.131-3.531.118-5.278a.768.768,0,0,0-1.536,0c-.026,1.838.118,3.689.118,5.527,0,1.024-.236,2.363.407,3.256.289.407,1.063.315,1.024-.276a1.11,1.11,0,0,0-.144-.46.467.467,0,0,0-.8,0h0Z" transform="translate(106.195 50.223)"/>
      <path id="Tracé_657" data-name="Tracé 657" d="M376.991,218.705c.249-2.9-.354-5.855-.709-8.73-.105-.84-1.4-.893-1.352,0,.184,2.941,1.182,5.75,1.129,8.73,0,.617.893.591.945,0h0Z" transform="translate(108.626 49.865)"/>
      <path id="Tracé_658" data-name="Tracé 658" d="M385.38,215.506c-.118-1.142-.315-2.258-.538-3.387a15.445,15.445,0,0,1-.6-3.046.552.552,0,0,0-.827-.473c-.985.7-.394,1.51-.131,2.494a45.087,45.087,0,0,1,1.037,4.569c.092.6,1.129.46,1.063-.144h0Z" transform="translate(111.108 49.611)"/>
      <path id="Tracé_659" data-name="Tracé 659" d="M387.82,205.924a32.894,32.894,0,0,1,1.877,3.4c.617,1.326.6,2.954,1.352,4.175a.631.631,0,0,0,1.142-.144c.971-2.652-1.851-6.262-3.361-8.205-.446-.578-1.378.171-1.011.775h0Z" transform="translate(112.633 48.493)"/>
      <path id="Tracé_660" data-name="Tracé 660" d="M345.023,218.24s.092-.039.131-.052a.494.494,0,0,0,.223-.538,17.519,17.519,0,0,1-.2-5.173c.158-2.258,1.05-3.453,2.442-5.094a.578.578,0,0,0-.565-.958c-2.035.512-2.809,2.914-3.1,4.766a20.68,20.68,0,0,0-.158,3.492c0,.263.276,3.348.67,2.875a.446.446,0,0,0,.538.7h0Z" transform="translate(98.887 48.951)"/>
      <path id="Tracé_661" data-name="Tracé 661" d="M397.21,162.47c-.6-3.348-1.523-6.761-.6-10.135a7.391,7.391,0,0,1,5.461-4.8c1.956-.223,3.256,1.628,4.647,2.665.683.5,1.47-.446,1.1-1.1-2.665-4.752-7.575-4.227-10.949-.656-3.833,4.057-1.943,9.623-.512,14.27a.443.443,0,0,0,.853-.236Z" transform="translate(114.782 29.943)"/>
      <path id="Tracé_662" data-name="Tracé 662" d="M395.128,156.342l.1.066a.379.379,0,0,0,.512-.131c.853-1.6.591-3.3,2.626-4.057a4.842,4.842,0,0,1,2.56-.158c1.037.21,1.457,1.09,2.324,1.536a.614.614,0,0,0,.919-.525c-.013-2.534-3.65-2.967-5.488-2.573a4.553,4.553,0,0,0-2.7,1.589c-.21.315-1.326,3.768-.775,3.65a.332.332,0,0,0-.079.6h0Z" transform="translate(114.895 31.423)"/>
      <path id="Tracé_663" data-name="Tracé 663" d="M351.8,170.748c1.326-.039,2.494.6,3.82.328a8.252,8.252,0,0,0,3.571-1.562,10.776,10.776,0,0,0,4.03-7.444c.092-.88-1.208-1.142-1.615-.433a11.6,11.6,0,0,0-.932,2.547,8.441,8.441,0,0,1-2.376,3.61,6.555,6.555,0,0,1-3.151,1.628c-1.129.289-2.363-.158-3.532.079a.638.638,0,0,0,.171,1.247h0Z" transform="translate(101.192 34.819)"/>
      <path id="Tracé_664" data-name="Tracé 664" d="M348.167,167.984a10.488,10.488,0,0,1-3.492-3.623c1.825-3.413,3.794-4.227,5.908-2.416a7.8,7.8,0,0,0,3.321,1.195c1.8,0,2.416-1.116,2.8-2.665.893-3.689-.7-8.73-1.1-12.419a96.332,96.332,0,0,0-2.98-16.489,1.047,1.047,0,0,0-2.048.276v.236a1.038,1.038,0,0,0,2.074,0v-.236l-2.048.276c2.048,7.417,2.8,14.927,3.7,22.554.368,3.138.473,7.431-4.24,4.8A8.519,8.519,0,0,0,345.2,158.2c-6.958.223-.079,9.321,2.508,10.542a.447.447,0,0,0,.446-.775h0Z" transform="translate(98.381 25.309)"/>
      <path id="Tracé_665" data-name="Tracé 665" d="M374.958,152.01c0,2.455-1.182,4.451-2.639,4.451s-2.639-2-2.639-4.451,1.182-4.45,2.639-4.45S374.958,149.556,374.958,152.01Z" transform="translate(106.984 30.543)"/>
      <path id="Tracé_666" data-name="Tracé 666" d="M337.418,153.47c0,2.455-1.182,4.45-2.639,4.45s-2.639-2-2.639-4.45,1.182-4.45,2.639-4.45S337.418,151.016,337.418,153.47Z" transform="translate(95.241 31)"/>
      <path id="Tracé_667" data-name="Tracé 667" d="M388.768,140.577s-9.242-11.487-14.3-11.947-9.872,2.757-7.811,4.818-3.715,3.847,2.074,4.818c13.509,2.3,25.088,7.877,20.047,2.3Z" transform="translate(105.856 24.607)" fill="#bf674f"/>
      <path id="Tracé_668" data-name="Tracé 668" d="M323.428,148.215s6.341-13.312,11.146-14.927,10.253.394,8.717,2.888,4.5,2.875-.893,5.173C329.8,146.705,319.818,154.819,323.428,148.215Z" transform="translate(92.282 25.897)" fill="#bf674f"/>
      <path id="Tracé_669" data-name="Tracé 669" d="M424.249,206.333s-19.64-.814-22.016,9.9-.236,18.458,1.313,19.049,5-15.911,5-15.911-3.453,15.911,0,16.739,5.593-16.423,5.593-16.423-1.891,16.791,1.077,17.5,5.12-17.5,5.12-17.5-1.667,17.618.709,18.091,5.107-17.618,5.107-17.618,2.035,12.5,4.411,13.338,5.606-10.555,4.109-16.581S430.682,206.557,424.249,206.333Z" transform="translate(116.836 48.924)" fill="#fcceb6"/>
      <path id="Tracé_670" data-name="Tracé 670" d="M683.867,259.468c6.892-22.056-12.406-35.84-28.948-48.246-5.514-2.757-1.378-12.406,0-17.92,2.757-9.649,2.757-19.3,0-27.569-2.757-5.514-6.892-12.406-13.785-15.163-15.163-2.757-23.434,12.406-33.083,16.542-12.406,6.892-30.326,0-44.111-8.271-9.649-5.514-22.055,1.378-23.434,11.028-2.757,15.163,13.785,26.191,5.514,41.354-4.135,8.271-12.406,19.3-6.892,26.191,19.3,19.3,15.163,46.868,1.378,67.532a17.689,17.689,0,0,0-2.927,10.266,90.361,90.361,0,0,0,25.324,4.2c36.523,1.378,89.391-2,104.134-8.586,6.38-2.836,11.3-4.976,11.3-4.976L677.3,286.408l6.551,19.443s1.72-.223,4.372-.6c-3.82-7.221-8.126-14.257-11.264-20.992-4.135-8.271,4.135-16.542,6.892-24.812Z" transform="translate(159.418 31.38)" fill="#683c0c"/>
      <path id="Tracé_671" data-name="Tracé 671" d="M617.593,124.608c9.557-4.779,19.942-8.73,29.959-10.214-6.814-.6-13.575,1.5-19.272-4.949-7.929-8.953-20.073-20.677-41.735-16.2A90.808,90.808,0,0,0,568.48,99.31c10.069,5.015,19.561,13.64,27.071,21.15,5.514,5.514,15.163,8.271,22.055,4.135Z" transform="translate(169.175 13.243)" fill="#8c520d"/>
      <path id="Tracé_672" data-name="Tracé 672" d="M592.079,136.71c22.2,27.136,49.914,5.711,74.254-9.951-1.484-4.976-3.558-7.916-8.8-11.408a16.405,16.405,0,0,0-7.956-2.639c-10.017,1.483-20.388,5.435-29.959,10.214-6.892,4.135-16.542,1.378-22.055-4.135-7.509-7.509-17-16.135-27.07-21.15-2.993,1.339-5.868,2.757-8.547,4.175,12.564,6.459,20.69,24.524,30.116,34.895Z" transform="translate(167.132 14.926)" fill="#895612"/>
      <path id="Tracé_673" data-name="Tracé 673" d="M696.294,215.2c4.818-12.984,5.855-22.279-3.44-39.516s-5.514-16.2-9.308-33.425c-1.654-7.536-2.455-12.629-3.61-16.5-24.353,15.675-52.067,37.087-74.254,9.951-9.413-10.358-17.553-28.436-30.116-34.895a164.637,164.637,0,0,0-18.13,11.12s-28.948,2.757-31.7,25.154,5.173,33.254,3.623,44.531-11.54,20.362-10.857,33.569,16.542,18.892,15.163,28.974-9.308,21.793-7.234,32.821,3.794,32.046-3.1,40.317c0,0,4.516,8.14,20.165,13.365a17.691,17.691,0,0,1,2.928-10.266c13.785-20.677,17.92-48.246-1.378-67.532-5.514-6.892,2.757-17.92,6.892-26.191,8.271-15.163-8.271-26.191-5.514-41.354,1.378-9.649,13.785-16.542,23.434-11.028,13.785,8.271,31.7,15.163,44.111,8.271,9.649-4.135,17.92-19.3,33.083-16.542,6.892,2.757,11.028,9.649,13.785,15.163,2.757,8.271,2.757,17.92,0,27.569-1.378,5.514-5.514,15.163,0,17.92,16.542,12.406,35.84,26.191,28.948,48.246-2.757,8.271-11.028,16.542-6.892,24.812,3.138,6.735,7.457,13.758,11.264,20.992,5.947-.866,16.634-2.547,23.539-4.451,0,0-3.1-12.065,0-19.3s1.549-17.08-5.514-32.729S691.5,228.181,696.333,215.2Z" transform="translate(153.528 15.918)" fill="#895016"/>
      <path id="Tracé_674" data-name="Tracé 674" d="M632.32,187.94s16.542,7.575,27.11,18.38,12.17,21.9,12.17,21.9a44.131,44.131,0,0,1-21.819-11.3c-9.649-9.439-17.461-28.974-17.461-28.974Z" transform="translate(189.146 43.175)" fill="#2c2945"/>
      <path id="Tracé_675" data-name="Tracé 675" d="M636.13,197.534c10.069,26.073,28.909,30.392,28.909,30.392,7.536-11.317,14.008-21.859,19.614-31.626a206.239,206.239,0,0,1-38.085-13.68c-6,8.7-10.437,14.927-10.437,14.927Z" transform="translate(190.337 41.511)" fill="#f2a381"/>
      <path id="Tracé_676" data-name="Tracé 676" d="M723.05,131.437c6.433-4.595,26.414-27.793,23.434-30.09s-16.765,11.71-16.765,11.71,13.089-20.441,9.872-21.819-16.082,17.224-16.082,17.224,10.109-21.6,7.116-22.738-14.7,20.218-14.7,20.218,10.568-21.6,5.278-22.279-13.325,24.117-13.325,24.117-1.378-18.143-4.595-16.305-4.135,30.09-4.135,30.09-17,30.09-28.252,50.308c-6.6,11.868-18.3,29.315-26.821,41.7a206.243,206.243,0,0,0,38.085,13.68c34.908-60.928,35.341-91.859,40.881-95.81Z" transform="translate(192.821 10.55)" fill="#f9b28f"/>
      <path id="Tracé_677" data-name="Tracé 677" d="M550.691,287.867c-.289,5.173-.578,10.9-.8,16.712,27.884,2.508,76.065,2.6,115.279-19.115.223-5.343.407-10.555.459-15.084C625.811,291.254,577.578,290.506,550.691,287.867Z" transform="translate(163.359 68.964)" fill="#feb01b"/>
      <path id="Tracé_678" data-name="Tracé 678" d="M550.5,295.381c26.887,2.639,75.12,3.387,114.938-17.487.013-1.129.026-2.206.026-3.243,0-7.431,3.348-17.907,7.982-28.291-39.871,30.615-95.18,35.039-122.093,35.2-.249,3.689-.551,8.468-.853,13.837Z" transform="translate(163.55 61.45)" fill="#fad8b4"/>
      <path id="Tracé_679" data-name="Tracé 679" d="M549.974,300.985c-.171,4.451-.315,8.94-.394,13.3,26.375,2.7,74.713,3.794,114.872-16.739.289-5.015.578-10.4.8-15.675C626.039,303.584,577.858,303.492,549.974,300.985Z" transform="translate(163.262 72.559)" fill="#fad8b4"/>
      <path id="Tracé_680" data-name="Tracé 680" d="M549.6,310.549c-.092,4.792-.118,9.413-.039,13.575,0,0,94.182-4.135,113.481-8.271,0,0,.735-9.859,1.431-22.042C624.314,314.329,575.975,313.253,549.6,310.549Z" transform="translate(163.242 76.294)" fill="#feb01b"/>
      <path id="Tracé_681" data-name="Tracé 681" d="M671.677,202.276c-5.973-9.767-8.967-14.336-8.967-14.336s-8.6,9.767-17.959,18.577c-24.839,30.746-76.315,35-104.265,34.856-1.313,4.516-3.256,10.122-5.356,15.78,27.714,1.5,106.733.564,136.534-54.889Z" transform="translate(158.742 43.175)" fill="#feb01b"/>
      <path id="Tracé_682" data-name="Tracé 682" d="M643.482,202.1c-7.26,6.84-14.979,13.1-19.482,13.811-10.332,1.615-61.677,3.794-61.677,3.794s-19.3-1.037-21.7,11.71c-.289,1.536-.775,3.426-1.392,5.54,27.95.144,79.426-4.1,104.265-34.856Z" transform="translate(160.024 47.604)" fill="#fad8b4"/>
      <path id="Tracé_683" data-name="Tracé 683" d="M704.625,220.744a52.429,52.429,0,0,1-17.04-8.914c-42.142,66.39-127.449,61.926-157.671,57.975-1.877,4.621-3.164,7.654-3.164,7.654s21.885,8.271,32.558,7.063c0,0-.223,2.993-.551,7.811,26.913-.158,82.236-4.569,122.093-35.2,7.4-16.594,18.1-32.978,23.749-36.418Z" transform="translate(156.12 50.648)" fill="#feb01b"/>
      <path id="Tracé_684" data-name="Tracé 684" d="M686.828,215.9a38.943,38.943,0,0,1-9.15-10.227c-1.51-2.508-2.888-4.752-4.135-6.8-29.8,55.441-108.82,56.373-136.534,54.889-2.718,7.352-5.671,14.782-7.838,20.126,30.221,3.952,115.529,8.415,157.671-57.975Z" transform="translate(156.877 46.594)" fill="#fad8b4"/>
      <path id="Tracé_685" data-name="Tracé 685" d="M573.818,202.615s2.508,11.343-10.778,16.988c17.014,3.479,32.164-1.208,45.555-10a44.876,44.876,0,0,1-2.678-10.91L573.831,202.6Z" transform="translate(167.473 46.538)" fill="#f2a381"/>
      <path id="Tracé_686" data-name="Tracé 686" d="M564.986,217a35.675,35.675,0,0,1-8.166,2.3,25.96,25.96,0,0,0,3.335,2.416c19.522,6.341,43.533,5.855,58.342-5.514,0,0-4.621-.919-7.956-9.2C597.15,215.783,582.013,220.47,564.986,217Z" transform="translate(165.527 49.137)" fill="#f9b28f"/>
      <path id="Tracé_687" data-name="Tracé 687" d="M536.791,173.169a234.864,234.864,0,0,1,7.115,26.178c2.757,13.548,25.955,31.7,55.139,28.029s39.976-31.7,41.577-50.189c0,0,19.981-1.037,14.7-21.478s-21.36-2.98-21.36-2.98-20.218,3.216-30.09-9.413-2.521-20.218-20.218-21.137-22.056,6.669-22.056,6.669-1.378,14.008-10.791,22.055-14.7,14.244-14.008,22.292Z" transform="translate(159.247 22.579)" fill="#f9b28f"/>
      <path id="Tracé_688" data-name="Tracé 688" d="M503.61,325.5s6.459,16.332,8.533,25.928c0,0,31.692-24.484,47.117-52.841a217.765,217.765,0,0,0-27.976-22.2c-6.59,15.649-17.041,37.731-27.674,49.113Z" transform="translate(148.882 70.844)" fill="#f9b28f"/>
      <path id="Tracé_689" data-name="Tracé 689" d="M559.966,268.539s-16.384-1.05-28.344-5.58c0,0-2.652,7.457-6.932,17.618a218.906,218.906,0,0,1,27.976,22.2,74.165,74.165,0,0,0,6.472-15.557l.84-18.695Z" transform="translate(155.476 66.643)" fill="#f2a381"/>
      <path id="Tracé_690" data-name="Tracé 690" d="M556.917,217.076s-4.936,46.408-2.757,67.768-5.855,38.6-9.072,48.47-2.3,132.136,3.44,149.833h51.227l-2.993-37.035a45.816,45.816,0,0,0,12.183-2.061s.919,26.519,1.838,39.109h65.93s4.359-48.522,3.216-61.388S664.765,340.915,665,341.834s-17.684-6.892-25.955-26.191-11.487-60.416-11.487-60.416l.565-44.387-7,1.891.7,55.821s-59.5,2.98-59.5,3.9l.473-55.559-5.868.184Z" transform="translate(161.282 50.339)" fill="#3793b5"/>
      <path id="Tracé_691" data-name="Tracé 691" d="M542.785,166.018c1.339-4.254,5.146-7.956,8-11.264,2.783-3.23,5.908-6,8.98-8.94.84-.8-.394-1.982-1.26-1.26a71.942,71.942,0,0,0-9.951,10.24c-2.573,3.2-5.737,6.905-6.853,10.91a.559.559,0,0,0,1.077.3h0Z" transform="translate(160.788 29.532)"/>
      <path id="Tracé_692" data-name="Tracé 692" d="M579.238,140.367c9.584.617,19.049,6.367,27.517,10.5a.768.768,0,0,0,.775-1.326,67.778,67.778,0,0,0-13.824-6.669c-4.582-1.667-9.518-3.873-14.48-3.505a.5.5,0,0,0,0,1h0Z" transform="translate(172.385 27.968)"/>
      <path id="Tracé_693" data-name="Tracé 693" d="M618.43,162.6a20.069,20.069,0,0,1-2.35-8.678c-.249-4.831,3.545-9.728,8.638-7.483.893.394,1.891-.656,1.1-1.431-3.742-3.715-8.547-.341-10.857,3.269-2.823,4.437-.709,11.487,2.573,15.006a.568.568,0,0,0,.893-.683h0Z" transform="translate(183.304 29.238)"/>
      <path id="Tracé_694" data-name="Tracé 694" d="M615.059,156h.066a.364.364,0,0,0,.368-.276,5.451,5.451,0,0,0,.105-1.037,3.384,3.384,0,0,1,1.234-2.061,6.174,6.174,0,0,1,2.087-1.26c.827-.328,1.733-.105,2.573-.407a.833.833,0,0,0-.223-1.628,6.616,6.616,0,0,0-5.566,2.153,4.592,4.592,0,0,0-.945,4.267.311.311,0,0,0,.3.223h0Z" transform="translate(183.603 31.093)"/>
      <path id="Tracé_695" data-name="Tracé 695" d="M575.142,180.159c-.866-1.68-1.72-3.361-2.586-5.041a11.353,11.353,0,0,0,2.114-.105,7.156,7.156,0,0,0,2.14-.827c1.4-1.4,1.589-3.7,1.287-5.54-1.4-8.428-6.354-16.423-11.461-23.132-.709-.932-2.324-.039-1.6.932a101.645,101.645,0,0,1,7.811,12.774c1.024,1.982,7.129,13.732-.289,14.113a7.594,7.594,0,0,0-3.886.827c-4.923,2.888,4.319,6.971,6.472,6.879a.447.447,0,0,0,0-.893h0Z" transform="translate(168.04 29.78)"/>
      <path id="Tracé_696" data-name="Tracé 696" d="M548.142,324.935c7.667,2.744,15.518,2.98,23.565,3.426,9.977.551,19.968.591,29.959.473,18.445-.223,37.875-1.431,54.049-11.251a.624.624,0,0,0-.63-1.077c-17.027,8.179-34.764,10.109-53.419,10.424q-13.745.236-27.491-.2c-8.547-.263-17.6.053-25.863-2.416-.394-.118-.551.486-.171.617h0Z" transform="translate(162.744 83.372)"/>
      <path id="Tracé_697" data-name="Tracé 697" d="M562.187,397.178c9.662.473,19.666-3.387,29.119-5.133,11.789-2.179,22.817-3.361,34.186-7.6,1.116-.42.67-2.179-.5-1.812a192.819,192.819,0,0,1-29.552,6.8c-11.028,1.667-22.147,6.2-33.254,6.656a.545.545,0,0,0,0,1.09Z" transform="translate(167.04 104.064)"/>
      <path id="Tracé_698" data-name="Tracé 698" d="M585.354,392.373c1.168-22.069-3.269-43.862-3.256-65.812a.92.92,0,0,0-1.838,0c0,21.951,4.529,43.783,4.319,65.812a.387.387,0,0,0,.775,0Z" transform="translate(172.86 86.262)"/>
      <path id="Tracé_699" data-name="Tracé 699" d="M616.827,323.708c1.615,5.632,6.577,11.356,10.24,15.806,5.514,6.7,12.157,13.824,20.165,17.448.722.328,1.615-.591.906-1.182-11.225-9.466-23.526-18.97-30.431-32.453-.249-.5-1.037-.144-.893.381h0Z" transform="translate(184.289 85.453)"/>
      <path id="Tracé_700" data-name="Tracé 700" d="M545.577,367.652c4.976-5.79,9.36-11.238,12.367-18.34,2.849-6.735,3.847-14.1,6.8-20.8.591-1.326-1.365-2.494-1.969-1.155-2.481,5.448-3.689,11.4-5.448,17.106-2.7,8.822-8.126,14.743-12.708,22.436-.341.591.5,1.273.958.735h0Z" transform="translate(161.685 86.604)"/>
      <path id="Tracé_701" data-name="Tracé 701" d="M641.725,435.422c3.243-12.853,3.321-27.07,3.978-40.264a161.179,161.179,0,0,0-.866-21.793c-.473-5.54-.63-11.671-2.7-16.87-.42-1.05-2.074-.643-1.72.473,3.44,10.87,3.387,24.274,3.374,35.6,0,6.892-.84,13.8-1.352,20.677-.551,7.365-.328,14.612-1.6,21.937-.105.578.735.827.893.249h0Z" transform="translate(191.662 95.713)"/>
      <path id="Tracé_702" data-name="Tracé 702" d="M584.338,384.292c.105.131.2.263.3.394a.569.569,0,0,0,.761.2c6.866-3.807,4.674-16.174,4.726-22.541.105-11.527.092-24.576-2.993-35.775a1.05,1.05,0,0,0-2.022.565c2.521,8.888,2.468,18.8,2.98,27.976.263,4.569.263,9.137.263,13.706,0,1.654-.761,16.62-3.374,14.822-.381-.263-.919.263-.643.643h0Z" transform="translate(174.112 86.309)"/>
      <path id="Tracé_703" data-name="Tracé 703" d="M558.224,266.185c10.2.158,20.4.985,30.6.538a88.06,88.06,0,0,0,12.012-1.628c4.582-.814,9.255-.131,13.706-1.575.591-.2.512-1.208-.158-1.129-3.912.473-7.811.276-11.71.67-4.647.473-9.164,1.589-13.85,1.956-10.174.788-20.4-.249-30.6.263a.453.453,0,0,0,0,.906h0Z" transform="translate(165.829 66.464)"/>
      <path id="Tracé_704" data-name="Tracé 704" d="M576.55,186.369a9.8,9.8,0,0,0,8.717-.709c4.687-2.586,4.963-7.01,4.293-10.45a22.3,22.3,0,0,0-13,11.159Z" transform="translate(171.699 39.193)" fill="#e95f33"/>
      <path id="Tracé_705" data-name="Tracé 705" d="M572.3,183.214a13.893,13.893,0,0,0,5.58,4.319,22.3,22.3,0,0,1,13-11.159,18.718,18.718,0,0,0-1.707-4.884c-7.4,1.72-16.883,11.71-16.883,11.71Z" transform="translate(170.367 38.029)"/>
      <path id="Tracé_706" data-name="Tracé 706" d="M591.356,158.424c.578,1.943.052,3.82-1.168,4.188s-2.7-.906-3.282-2.849-.052-3.82,1.168-4.188S590.779,156.481,591.356,158.424Z" transform="translate(174.865 33.03)"/>
      <path id="Tracé_707" data-name="Tracé 707" d="M557.81,165.452c.512,1.969-.092,3.82-1.339,4.135s-2.665-1.011-3.177-2.98.092-3.82,1.326-4.135,2.665,1.011,3.177,2.98Z" transform="translate(164.367 35.192)"/>
      <path id="Tracé_708" data-name="Tracé 708" d="M613.842,168.906c1.523,4.674-2.074,10.056-8.034,12s-12.052-.263-13.575-4.936,2.074-10.056,8.034-12S612.319,164.232,613.842,168.906Z" transform="translate(176.496 35.454)" fill="#f2a381"/>
      <path id="Tracé_709" data-name="Tracé 709" d="M570.891,182.375c.013,4.923-5.054,8.927-11.343,8.954s-11.382-3.952-11.408-8.875,5.054-8.927,11.343-8.954S570.865,177.452,570.891,182.375Z" transform="translate(162.812 38.658)" fill="#f2a381"/>
      <path id="Tracé_710" data-name="Tracé 710" d="M132.485,101.515a24.747,24.747,0,0,0-12.564-.184c-13.837,3.335-26.677,9.728-28.5,26.217A95.87,95.87,0,0,0,132.485,101.515Z" transform="translate(19.937 15.856)" fill="#cd7659"/>
      <path id="Tracé_711" data-name="Tracé 711" d="M132.543,101.3a96.072,96.072,0,0,1-41.065,26.033c-.066.525-.144,1.037-.171,1.575-1.142,17.684,11.947,21.36,11.947,21.36,27.569.46,41.577-17.92,43.192-30.55,1.116-8.757-5.173-15.964-13.89-18.419Z" transform="translate(19.879 16.071)" fill="#bf674f"/>
      <path id="Tracé_712" data-name="Tracé 712" d="M85.74,174.611c-.053,17.395,7.89,20.467,9.584,25.023,33.018-14.113,73.991-28.331,83.036-62.989a41.605,41.605,0,0,1-2.862-7.824,370.371,370.371,0,0,1-89.745,45.791Z" transform="translate(18.16 24.68)" fill="#bf674f"/>
      <path id="Tracé_713" data-name="Tracé 713" d="M157.028,127.243c-.972.7-1.956,1.392-2.928,2.074a41.607,41.607,0,0,0,2.862,7.824,56.353,56.353,0,0,0,1.536-8.953c-.486-.315-.971-.63-1.47-.958Z" transform="translate(39.545 24.183)" fill="#bf674f"/>
      <path id="Tracé_714" data-name="Tracé 714" d="M157.994,126.35c-.551.394-1.1.775-1.654,1.168.486.315.971.63,1.47.958.066-.709.144-1.4.2-2.127Z" transform="translate(40.246 23.908)" fill="#cd7659"/>
      <path id="Tracé_715" data-name="Tracé 715" d="M157.816,127.97a56.613,56.613,0,0,1-1.536,8.953c7.536,15.636,24.34,26.677,42.509,29.867a94.2,94.2,0,0,0-4.385-21.1c-13.168-3.466-25.233-10.345-36.589-17.71Z" transform="translate(40.227 24.415)" fill="#bf674f"/>
      <path id="Tracé_716" data-name="Tracé 716" d="M178.416,130.734c.551-.394,1.1-.775,1.654-1.168-.039.722-.131,1.418-.2,2.127,11.356,7.365,23.421,14.231,36.589,17.71-.263-.788-.512-1.575-.788-2.376-7.352-20.677-26.414-36.759-68.228-28.948,0,0-51,2.061-59.5,42.273A89.92,89.92,0,0,0,85.73,178.6a370.371,370.371,0,0,0,89.745-45.791,44.283,44.283,0,0,1-.932-4.621c1.273.853,2.56,1.707,3.86,2.547Z" transform="translate(18.157 20.692)" fill="#cd7659"/>
      <path id="Tracé_717" data-name="Tracé 717" d="M153.4,125.3a38.39,38.39,0,0,0,.932,4.621c.985-.683,1.956-1.378,2.928-2.074C155.973,127.007,154.673,126.153,153.4,125.3Z" transform="translate(39.326 23.579)" fill="#cd7659"/>
      <path id="Tracé_718" data-name="Tracé 718" d="M128.043,172.38c-10.489,4.949-21.373,9.295-31.521,13.627a5.263,5.263,0,0,1,0,3.6c-2.98,9.19-17.92,20.9-14.008,37.442s8.271,22.974,8.271,22.974,8.73,3.912,16.305,4.372L111,233.715l1.825,20.677s5.606-.512,14.2-1.352c5.986-26.677,8.94-54.811,1.011-80.647Z" transform="translate(16.948 38.307)" fill="#cd7659"/>
      <path id="Tracé_719" data-name="Tracé 719" d="M168.8,134.78c-6.262,24.012-27.858,38.2-51.515,49.362,7.929,25.836,4.976,53.97-1.011,80.647,23.854-2.35,70.722-7.339,84.572-11.448V240.41l4.359,11.71,7.3-2.1c-16.082-27.307-22.226-61.637-22.751-93.316-9.072-5.343-16.581-12.853-20.953-21.924Z" transform="translate(27.711 26.545)" fill="#bf674f"/>
      <path id="Tracé_720" data-name="Tracé 720" d="M198.037,217.722c-5.054-17.684-4.831-25.036-4.359-35.144.263-5.855.985-13.64.118-23.158a64.862,64.862,0,0,1-21.557-7.929c.525,31.679,6.669,66.009,22.751,93.316l6.262-1.8s1.838-7.575-3.216-25.272Z" transform="translate(45.22 31.772)" fill="#cd7659"/>
      <path id="Tracé_721" data-name="Tracé 721" d="M210.57,321.8l-68.215,6.21s-6.052,16.515-11.4,33.556c27.477-12.3,58.093-18.892,88.17-22.371-4.779-10.266-8.56-17.395-8.56-17.395Z" transform="translate(32.306 85.05)" fill="#db4d28"/>
      <path id="Tracé_722" data-name="Tracé 722" d="M221.085,335.04c-30.064,3.479-60.692,10.083-88.17,22.371-2.941,9.387-5.671,18.918-7.063,25.941-3.9,19.758,3.44,62.714,3.44,62.714H240.475s3.216-27.569,0-54.666c-1.956-16.529-11.921-40.3-19.39-56.36Z" transform="translate(30.351 89.192)" fill="#e95f33"/>
      <path id="Tracé_723" data-name="Tracé 723" d="M214.132,255.39,199.52,281.4s3.046,7.129,7.588,15.885c6.472-9.859,9.872-21.15,11.592-32.847l-4.569-9.045Z" transform="translate(53.754 64.275)" fill="#f2a381"/>
      <path id="Tracé_724" data-name="Tracé 724" d="M247.652,271.187c-.971-16.791-1.378-17.92-1.378-17.92s3.216-11.947-4.595-16.305c0,0,5.054-16.542.46-20.218s-4.818,18.6-4.818,18.6-3.44-19.653-6.656-19.023,2.061,21.544,2.061,21.544-5.514.223-5.054,10.568-1.378,46.868-1.378,46.868l-9.4-18.642c-1.707,11.7-5.12,22.988-11.592,32.847,7.155,13.758,18.025,31.547,26.742,31.967,14.244.683,17.461-36.523,15.623-70.289Z" transform="translate(55.562 52.049)" fill="#f9b28f"/>
      <path id="Tracé_725" data-name="Tracé 725" d="M147.563,240.972s-26.191,5.514-34.685,22.056S99.33,305.983,99.33,305.983s10.109,12.866,34.462,17.684c0,0,7.116,14.467,7.352,20.9s1.838,14.7,6.433,17.224,11.028-2.061,24.812-2.757,37.9-5.514,44.794-5.973,13.089-13.325,15.386-25.5-1.378-33.766-2.3-35.381,10.332-8.494,16.082-30.549c0,0-9.413-21.819-19.3-28.948s-16.765-8.73-28.948-5.737-50.544,14.008-50.544,14.008Z" transform="translate(22.411 54.931)" fill="#feb01b"/>
      <path id="Tracé_726" data-name="Tracé 726" d="M136.07,243.384s5.737,5.054,25.5,0S186.6,229.376,186.6,229.376s-7.68.079-11.369-11.566a116.738,116.738,0,0,1-27.832,9.452c-1.667,6.052-4.949,12.367-11.33,16.135Z" transform="translate(33.905 52.519)" fill="#f9b28f"/>
      <path id="Tracé_727" data-name="Tracé 727" d="M146.249,213.11a50.04,50.04,0,0,1-1.549,16.213,115.964,115.964,0,0,0,27.832-9.452,42.243,42.243,0,0,1-1.667-8.691l-24.629,1.93Z" transform="translate(36.604 50.445)" fill="#f2a381"/>
      <path id="Tracé_728" data-name="Tracé 728" d="M118.291,181.491s-16.305-2.074-14.008,16.305,18.143,10.109,18.143,10.109,8.98,30.943,46.172,29.631c32.624-1.155,48.246-24.353,44.794-47.551s-7.352-34.225-7.352-34.225-20.218-10.791-31.009-21.36c0,0-35.6,38.361-56.74,47.091Z" transform="translate(23.891 26.426)" fill="#f9b28f"/>
      <path id="Tracé_729" data-name="Tracé 729" d="M156.75,194.22c0,4.017-5.448,7.26-12.17,7.26s-12.17-3.256-12.17-7.26,5.448-7.26,12.17-7.26S156.75,190.216,156.75,194.22Z" transform="translate(32.76 42.868)" fill="#f2a381"/>
      <path id="Tracé_730" data-name="Tracé 730" d="M189.146,186.648c1.077,3.387-2.652,7.6-8.323,9.413s-11.159.538-12.249-2.862,2.652-7.6,8.323-9.413S188.056,183.261,189.146,186.648Z" transform="translate(44.015 41.618)" fill="#f2a381"/>
      <path id="Tracé_731" data-name="Tracé 731" d="M51,368.053l.039-.053Z" transform="translate(7.292 99.503)" fill="#f9b28f"/>
      <path id="Tracé_732" data-name="Tracé 732" d="M113.471,331.426c-6.892,5.973-51.686,32.847-51.686,32.847s-22.056-4.359-26.414,0S45.7,372.781,45.7,372.781s-19.522,14.008-17.92,16.305,18.839-10.109,18.839-10.109-12.866,13.089-11.947,16.305,16.765-12.629,16.765-12.629-8.953,16.082-7.116,18.143c1.772,2,13.22-12.984,13.968-13.955l.039-.053-.039.053c-.42.551-8.126,10.739-4.319,14.139,3.9,3.492,20.441-17.408,20.441-17.408S126.94,356,139.845,345.211c9.124-7.628,12.472-16.66,14.389-29.394a104.885,104.885,0,0,1-32.086-7.877c-2.363,10.279-5.448,20.69-8.678,23.487Z" transform="translate(0 80.714)" fill="#f9b28f"/>
      <path id="Tracé_733" data-name="Tracé 733" d="M104.077,290.33s-1.759,11.474-4.437,23.119a104.6,104.6,0,0,0,32.086,7.877c.8-5.278,1.352-11.185,1.956-17.92,0,0-17.408-4.083-29.6-13.063Z" transform="translate(22.508 75.205)" fill="#f2a381"/>
      <path id="Tracé_734" data-name="Tracé 734" d="M222.6,238.239s2.875,12.236,5.855,11.842-1.93-17.211-1.93-17.211S224.1,233.211,222.6,238.239Z" transform="translate(60.974 57.23)" fill="#f2a381"/>
      <path id="Tracé_735" data-name="Tracé 735" d="M234.131,232.043S227.475,246.51,230,247.889s6.656-10.791,6.656-10.791-5.632,13.785-3.61,15.386,7.417-4.674,6.328-10.227-.866-8.612-5.238-10.227Z" transform="translate(63.109 56.967)" fill="#f2a381"/>
      <path id="Tracé_736" data-name="Tracé 736" d="M108.651,178.505c2.324-2.993,8.323-3.86,10.778-.6,2.875,3.82.748,9.15-.5,13.05a.651.651,0,0,0,1.077.63c3.387-4.017,3.689-12-.289-15.754-3.1-2.914-9.846-1.418-11.737,2.166-.223.42.368.932.683.525h0Z" transform="translate(25.102 38.903)"/>
      <path id="Tracé_737" data-name="Tracé 737" d="M112.29,181.09c1.51,0,2.836-.578,4.372-.158a3.754,3.754,0,0,1,2.284,2.022.485.485,0,0,0,.827,0c.748-1.195-.919-2.324-1.825-2.8-1.93-1.011-3.689-.2-5.658.053-.538.066-.578.88,0,.88h0Z" transform="translate(26.335 40.586)"/>
      <path id="Tracé_738" data-name="Tracé 738" d="M133.01,175.907c1.772-2.809,3.125-5.881,4.989-8.678a22.2,22.2,0,0,1,9.912-7.877c.788-.315.775-1.68-.223-1.6-3.807.3-7.352,3.952-9.781,6.577-2.954,3.19-4.4,7.194-5.908,11.146-.236.6.7.932,1.011.42h0Z" transform="translate(32.619 33.73)"/>
      <path id="Tracé_739" data-name="Tracé 739" d="M172.554,156.579c2.3,1.352,4.739,2.494,7.1,3.7,2.639,1.339,3.886,4.49,6.262,6.183,1.037.748,2.022-.971,1-1.707-2.389-1.733-3.637-4.687-6.367-6.026a38.3,38.3,0,0,0-7.614-3.1.518.518,0,0,0-.394.945h0Z" transform="translate(45.234 33.064)"/>
      <path id="Tracé_740" data-name="Tracé 740" d="M157.618,187.39h-.092a.548.548,0,0,0-.525.407c-.354,1.129,1.352,2.678,2.009,3.361a7.3,7.3,0,0,0,5.5,2.389c1.273-.118,1.3-2.074,0-2.009a6.3,6.3,0,0,1-4.254-1.615,9.17,9.17,0,0,1-2.245-2.258v.551l.052-.066a.5.5,0,0,0-.433-.748h0Z" transform="translate(40.438 43.003)"/>
      <path id="Tracé_741" data-name="Tracé 741" d="M165.427,194.56c3.374-2.153,6.039-4.372,6.971-8.389.486-2.114-.788-4.49-3.125-4.49-1.287,0-2.468,1.155-3.361,1.877-4.962,4.057-4.923-4.477-5.12-7.024-.591-7.352.131-14.717-.105-22.069a.769.769,0,0,0-1.536,0c.066,5.842-.249,11.684-.158,17.539.066,3.873-.3,9.61,1.4,13.286.866,1.891,1.431,2.481,3.387,2.127.735-.131,1.956-1.523,2.442-2,1.51-2,2.718-.853,3.61,3.387-.88,1.825-3.374,3.715-4.8,5.225-.249.263.079.709.394.512h0Z" transform="translate(41.071 32.472)"/>
      <path id="Tracé_742" data-name="Tracé 742" d="M151.734,182.921c-.433-3.44-1.155-11.015-6.013-11.041a6.935,6.935,0,0,0-6.38,4.135c-1.759,3.453-1.011,7.365-.8,11.054a.992.992,0,0,0,1.982,0c.013-2.823-.578-5.553.026-8.35.551-2.534,3.02-5.908,6.039-4.621s2.928,6.538,4.569,8.993c.158.223.617.171.578-.158h0Z" transform="translate(34.572 38.151)"/>
      <path id="Tracé_743" data-name="Tracé 743" d="M172.531,179.253c.578-3.033,1.589-12.708,6.866-10.083,3.3,1.641,3.046,7.654,3.111,10.7.026,1.037,1.68,1.352,1.877.249.775-4.175-.381-11.435-4.923-13.1-2.481-.906-5.173.906-6.433,2.928-1.759,2.836-1.116,6.131-1.05,9.229,0,.3.473.381.538.079h0Z" transform="translate(45.086 36.555)"/>
      <path id="Tracé_744" data-name="Tracé 744" d="M126.75,303.506a.571.571,0,0,0,.906.184c.446-.446,0-1.077-.236-1.51a70.617,70.617,0,0,0-5.79-9.5c-.407-.525-1.365-.249-1.142.486.775,2.508,2.7,4.713,4.1,6.905.446.7.88,1.4,1.339,2.087.21.315.42.63.617.945.328.525.131.591.223.2.171-.092.341-.2.512-.289l-.131-.039a.377.377,0,0,0-.42.538h0Z" transform="translate(29.02 75.854)"/>
      <path id="Tracé_745" data-name="Tracé 745" d="M126.493,303.725c.013-1.667-.2-3.321-.092-5a38.647,38.647,0,0,0,.328-6.026c-.053-.525-.853-.722-.971-.131a41.782,41.782,0,0,0-.236,11.159.479.479,0,0,0,.958,0h0Z" transform="translate(30.525 75.792)"/>
      <path id="Tracé_746" data-name="Tracé 746" d="M200.222,281s.039.105.052.144a.512.512,0,1,0,.866-.5c-.63-.748-.748-3.413-1.037-4.385-.5-1.667-1.1-3.308-1.707-4.949a52.745,52.745,0,0,0-3.715-8.625.548.548,0,0,0-1,.42c.853,3.807,2.783,7.431,4.188,11.054.63,1.615,1.168,3.269,1.694,4.923.236.722.21,1.746.84,2.284a.512.512,0,1,0,.5-.866l-.144-.053a.44.44,0,0,0-.538.538h0Z" transform="translate(51.923 66.473)"/>
      <path id="Tracé_747" data-name="Tracé 747" d="M198.563,279.933c-.026.066-.039.144-.066.21.354.053.709.092,1.063.144.105-5.356,1.654-11.028.289-16.332-.144-.578-.932-.407-.985.131-.223,2.534.131,5.133.079,7.693-.066,2.849-.578,5.645-.459,8.494.026.814,1.3.591,1.063-.144a1.288,1.288,0,0,1-.066-.21.474.474,0,0,0-.906,0h0Z" transform="translate(53.424 66.842)"/>
      <path id="Tracé_748" data-name="Tracé 748" d="M138.546,343.852c11.435-6.144,26.335-6.905,38.991-8.323,5.212-.591,10.529-.84,15.715-1.641,5.383-.827,11.632-.565,16.725-2.245.932-.3.827-1.838-.236-1.772-12.446.735-24.917,2.652-37.311,4.2-11.12,1.378-24.97,2.219-34.383,8.888a.518.518,0,0,0,.525.893h0Z" transform="translate(34.449 87.574)"/>
      <path id="Tracé_749" data-name="Tracé 749" d="M169.883,326.628c1.825,20.113,2.389,40.3,4.372,60.416,1.9,19.338,2.127,39.162,5.619,58.263.105.6,1.116.473,1.077-.144-1.05-19.325-2.731-38.833-4.726-58.119-1.05-10.083-1.851-20.2-2.468-30.326-.617-10.069-.525-20.362-3.059-30.208-.118-.446-.866-.368-.827.118h0Z" transform="translate(44.478 86.431)"/>
      <path id="Tracé_750" data-name="Tracé 750" d="M179.091,329.169a2.523,2.523,0,1,1-2.521-2.639A2.582,2.582,0,0,1,179.091,329.169Z" transform="translate(45.786 86.53)"/>
      <path id="Tracé_751" data-name="Tracé 751" d="M179.974,342.819a2.53,2.53,0,1,1-2.534-2.639A2.585,2.585,0,0,1,179.974,342.819Z" transform="translate(46.058 90.8)"/>
      <path id="Tracé_752" data-name="Tracé 752" d="M181.891,372.3a2.523,2.523,0,1,1-2.521-2.639A2.582,2.582,0,0,1,181.891,372.3Z" transform="translate(46.662 100.022)"/>
      <path id="Tracé_753" data-name="Tracé 753" d="M185.741,407.3a2.523,2.523,0,1,1-2.521-2.639A2.582,2.582,0,0,1,185.741,407.3Z" transform="translate(47.866 110.971)"/>
      <g id="Groupe_8" data-name="Groupe 8" transform="translate(153.381 195.13)">
        <path id="Tracé_754" data-name="Tracé 754" d="M144.711,203.092a21.281,21.281,0,1,1,21.281-21.281,21.3,21.3,0,0,1-21.281,21.281Zm0-41.183a19.9,19.9,0,1,0,19.9,19.9A19.924,19.924,0,0,0,144.711,161.908Z" transform="translate(-123.43 -160.53)" fill="#2c2945"/>
        <path id="Tracé_755" data-name="Tracé 755" d="M188.121,203.092A21.281,21.281,0,1,1,209.4,181.811a21.3,21.3,0,0,1-21.281,21.281Zm0-41.183a19.9,19.9,0,1,0,19.9,19.9A19.924,19.924,0,0,0,188.121,161.908Z" transform="translate(-109.85 -160.53)" fill="#2c2945"/>
        <path id="Tracé_756" data-name="Tracé 756" d="M155.779,176.2l-.919-1.037c.184-.171,4.818-4.122,16.935-1.812l-.263,1.352c-11.461-2.192-15.728,1.457-15.767,1.5Z" transform="translate(-113.598 -156.745)" fill="#2c2945"/>
      </g>
      <path id="Tracé_757" data-name="Tracé 757" d="M158.956,227.44S118,237.9,110.421,244.284s-22.909,21.662-8.953,32.558c14.126,11.041,20.677,10.49,21.53,8.271,1.694-4.385-14.467-13.443-14.467-13.443s15.846,9.9,19.811,8.179-12.065-14.73-12.065-14.73,12.065,11.028,16.542,7.93-11.881-13.955-11.881-13.955,14.467,7.4,17.224,5.685-12.577-14.3-12.577-14.3,13.26-8.665,23.093-10.109c0,0,8.665-7.273,10.293-12.931Z" transform="translate(21.311 55.532)" fill="#826459"/>
    </g>
    <path id="Ligne_5" data-name="Ligne 5" d="M960,1.5H0v-3H960Z" transform="translate(960 799)" fill="#707070"/>
  </g>
</svg>
