<svg xmlns="http://www.w3.org/2000/svg" width="225.715" height="367.364" viewBox="0 0 225.715 367.364">
  <g id="b" transform="translate(-33.84 -10.672)">
    <g id="Groupe_2" data-name="Groupe 2" transform="translate(33.84 10.672)">
      <g id="Groupe_1" data-name="Groupe 1">
        <path id="Tracé_1" data-name="Tracé 1" d="M152.325,301.627c-.642,0-1.267-.035-1.909-.052-7.447.833-14.858.174-22.287-.156-1.267-.052-2.569-.451-3.836.1l-7.655-.382c-1.2-.677-2.534-.451-3.8-.469-6.37-.1-12.654-1.111-18.955-1.909l-3.211-.208c-5.19-.764-10.415-1.18-15.587-2.048-.833-.052-1.684-.122-2.517-.174-3.038-.555-6.11-.937-9.113-1.684l-1.875-.156c-2.916-1.319-6.527-.486-9.061-2.951a1.462,1.462,0,0,0-.608-.122c-.642-.486-1.337-.868-1.927-1.406h0a3.354,3.354,0,0,1-1.232-1.371h0a3.125,3.125,0,0,1-.434-3.593c.1-.226.226-.451.347-.66a2.458,2.458,0,0,1,.139-.312.849.849,0,0,0-.434-.816c-.642-.4-1.3-.764-1.909-1.215l-.278-.069h-.3c-1.51-.538-3.072-.92-4.565-1.51l-.26-.069h-.278a8.4,8.4,0,0,1-2.638-1.406h0c-.59-.5-1.3-.868-1.892-1.406h0a3.354,3.354,0,0,1-1.232-1.371h0c-.712-.746-.764-1.788-1.18-2.673.052-.833.087-1.666.139-2.482a9.833,9.833,0,0,1,5.537-6.284H39.5c.92-.573,1.736-1.319,2.725-1.823h-.017a2.19,2.19,0,0,1,.816-.608,1.031,1.031,0,0,0,.521-.069c.226-.174.469-.365.694-.538H44.22a3,3,0,0,1,.712-.608l-.035.035c.347-.434.955-.3,1.354-.608h-.035c.347-.417.955-.26,1.337-.608h-.017c.365-.382.972-.243,1.371-.573h-.035c.347-.4.955-.243,1.337-.608h0c.382-.365.972-.243,1.371-.573h-.017c.347-.4.972-.243,1.354-.59H52.9c.4-.382,1.007-.26,1.458-.555a1.135,1.135,0,0,0,.538-.035,3.726,3.726,0,0,1,.8-.573,1.389,1.389,0,0,0,.538-.035c.4-.347.989-.208,1.406-.521a1.291,1.291,0,0,0,.573-.052,4.663,4.663,0,0,1,.764-.538,1.283,1.283,0,0,0,.573-.035c.417-.33.989-.208,1.423-.5a1.2,1.2,0,0,0,.555-.017c.365-.365.972-.191,1.337-.573h0c.573-.538,1.441,0,2.014-.521h-.035c.538-.608,1.441,0,1.979-.573h0a.7.7,0,0,1,.972.278c.833,1.753.434,3.61.365,5.433a99.688,99.688,0,0,0-.1,13.279c.191,1.979.191,3.663,2.9,3.645,2.621-.017,3.645-1.232,3.749-3.749.208-5.4.5-10.8.8-16.195.087-1.6-.017-3.263.868-4.721a3.726,3.726,0,0,1,4.2-.833c.885.8.833,1.927.972,2.968.3,2.447,1.909,3.107,4.079,3.159,2.378.069,2.725-1.614,3.055-3.367.312-1.649-.069-3.472,1.18-4.912,1.805-1.2,3.923-1.18,5.919-1.51,10.449-1.684,20.881-3.628,31.539-3.385a5.772,5.772,0,0,1,2.552.278c1.458.972,1.371,2.586,1.718,4.044,1.909,8.054-.677,15.431-3.437,22.791-.4,1.232-.868,2.447-1.319,3.663-1.215,3.333-.33,5.416,2.986,6.665,5.207,1.961,10.241.92,15.188-1.059,1.545-.625,1.927-1.961,1.892-3.472a30.047,30.047,0,0,0-.92-6.093c-1.51-5.4-4.253-10.4-4.635-16.143-.174-2.69-.26-5.4-.538-8.071a2.879,2.879,0,0,1,1.25-3.124,13.584,13.584,0,0,1,5.121-.625c11.109.174,22.235.243,33.24,2.152a3.8,3.8,0,0,1,1.215.451c1.232.937.746,2.135.347,3.211a77.043,77.043,0,0,0-4.964,20.864,14.967,14.967,0,0,1-3.906,5.9c-.972.92-1.753,2.031-1.284,3.454.5,1.527,1.892,1.6,3.211,1.7a26.033,26.033,0,0,0,7.429-.33c5.78-1.18,7.429-2.517,8.228-8.384a19.709,19.709,0,0,1,4.044-9.72c2.777-3.61,2.951-7.516.937-11.6-.451-.92-1.718-1.927-.208-3.055q5.693-.052,5.988-5.919c.191-3.645.278-7.29.608-10.935.122-1.25-.208-2.951,1.823-3.194,1.076,1.441.729,3.107.66,4.7-.4,8.731-.868,17.479-1.284,26.21-.052,1.18-.278,2.465.4,3.489.9,1.337,2.4,1.319,3.819,1.146,1.458-.191,1.371-1.423,1.51-2.482.4-3.072-.347-6.284,1.215-9.217a5.173,5.173,0,0,1,6.544,1.892,13.588,13.588,0,0,1,.26,5.155c-.469,9.738-.972,19.475-1.441,29.213-.1,2-.139,3.958,2.239,4.843,1.788.677,2.968.347,3.246-1.753.174-1.285.208-2.586.26-3.888q4.14-82.615,8.262-165.247c.1-2.031-.087-4.131.833-6.075a1.108,1.108,0,0,1,1.059-.573c0,1.406.017,2.812-.052,4.218q-3.333,65.977-6.683,131.937c-.069,1.406-.052,2.812-.069,4.218.26.451.9.312,1.18.746h-.017c.521.59,1.406.121,1.927.694a1.32,1.32,0,0,0,.573.087c.382.347,1.007.278,1.354.712h0c.5.59,1.406.122,1.927.694a1.5,1.5,0,0,0,.555.1c.4.347,1.024.26,1.371.729h-.017c.521.573,1.458.087,1.944.746h-.017c.347.365.972.278,1.284.712H236.7c.347.365.937.278,1.284.642a1.148,1.148,0,0,0,.538.1,3.748,3.748,0,0,1,.746.642h0c.469.677,1.423.139,1.892.8h-.017c.208.174.434.382.642.59a1.008,1.008,0,0,0,.555.122c.4.33,1.024.26,1.371.712H243.7c.712.712,1.753.885,2.552,1.458l-.035-.035a5.915,5.915,0,0,1,.66.66c.33.417.937.33,1.267.712h0c.312.417.955.312,1.25.764h-.017c.365.347.989.26,1.284.729l-.035-.035a2.71,2.71,0,0,1,.642.694h-.017a12.548,12.548,0,0,1,1.892,1.423v-.035a2.986,2.986,0,0,1,.625.694h-.017a2.994,2.994,0,0,1,.642.677h-.017a4.626,4.626,0,0,1,.642.66h0c.208.208.417.451.625.677h0l.625.677h0c.208.226.417.451.625.694h0a5.973,5.973,0,0,1,.608.712h-.017a2.672,2.672,0,0,1,.625.694l-.035-.035c.417.347.278.955.608,1.354v-.035c.417.382.278.989.573,1.441a1.13,1.13,0,0,0,.017.538,3.74,3.74,0,0,1-.174,3.246,1.085,1.085,0,0,0-.069.521c-.33.417-.26,1.024-.712,1.371h0c-.365.33-.312.937-.694,1.284h0c-.417.312-.312.955-.781,1.25v-.035c-.868,2.118-2.69,3.055-4.721,3.7h.035c-.347.4-.955.26-1.354.59h.017c-.365.382-.972.243-1.337.59h0c-.382.365-.972.243-1.371.573h.035c-.382.417-.989.278-1.423.573h-.555c-1.094.486-2.274.66-3.367,1.128h-.608c-2.725,2.4-6.249,1.25-9.321,2.1H231.65c-1.944.521-3.975.573-5.954.955h-1.267c-1.875,1.024-4.01.4-5.971.937h-1.25c-2.847.434-5.711.5-8.557.833-.417,0-.833,0-1.25-.017-3.715.469-7.447.417-11.178.712l-1.909-.035c-3.055.4-6.127.434-9.182.8l-.312-.035-.312.035c-3.055.4-6.145.486-9.217.816h-1.267c-2.413.4-4.878.451-7.29.868h-1.215c-4.339.8-8.766.243-13.123.608Z" transform="translate(-33.84 65.385)" fill="#ffb3a5"/>
        <path id="Tracé_2" data-name="Tracé 2" d="M156.179,63.749a.3.3,0,0,0-.156.417c-.243.486-.208,1.128-.729,1.493l.052-.052a2.209,2.209,0,0,1-.694.694h.017c-.4.312-.26,1.024-.885,1.18l.052-.087c-.3.937-1.146,1.076-1.892,1.371h0a1.506,1.506,0,0,1-.816.555l.087-.069c-.312.59-.989.417-1.441.677l-.26-.052-.243.122c-1.354.608-1.128,1.7-.868,2.812-.035.712-.069,1.423-.087,2.135-.486.625-.087,1.545-.729,2.135a.224.224,0,0,0-.069.365c-.434.66-.069,1.6-.746,2.17v-.035c-.33.365-.226,1.041-.8,1.267l.052-.069a7.119,7.119,0,0,1-3.4,3.142l.052-.035c-.694.833-1.788.816-2.656,1.25h.017a4.567,4.567,0,0,1-3.038.712c-2.638-.139-3.871-1.979-4.947-4.044a30.7,30.7,0,0,1-.989-3.263,21.624,21.624,0,0,1-.677-3.784,24.075,24.075,0,0,1,.365-2.5c2.656-4.878,2.968-10.311,3.7-15.622.781-.989,1.25-.417,1.58.382a4.043,4.043,0,0,1-.26,2.812,3.544,3.544,0,0,0-.069.955c.052-.33.035-.677.1-1.024,1.2-.434,1.458-1.771,2.43-2.43,1.736-.608,3.593.312,4.912-.33a8.617,8.617,0,0,1-9.46-9.495c.208-2.361-1.232.417-1.111-.59-.555-.642-.955-1.6-1.909-1.632a13.378,13.378,0,0,1-8.071-2.829c-.5-.4-10.1,2.812-10.449,3.4a8.889,8.889,0,0,0-.8,4.079,13.7,13.7,0,0,1-.5,3.836c-1.284,1.146-2.378,3.541-4.27.642a27.64,27.64,0,0,0,.8-8.349c-.017-2.43.694-3.4,3.333-3.541,3.767-.191,7.585-.833,10.519-3.576-2.881,2.708-6.665,3.367-10.345,3.541-3.038.139-3.558,1.3-3.541,3.958,0,2.847.434,5.85-1.753,8.349-1.788,2.066-3.819,3.576-6.631,3.558-1.788,0-2.656.434-2.222,2.413a6.153,6.153,0,0,1-1.25,4.964c1.718-1.493,1.041-3.923,1.77-5.9a2.666,2.666,0,0,1,3.142-.694c1.024.469,1.111,1.441,1.25,2.378.174,1.163.642,2,1.961,2.031,1.718.868,1.493,3.246,3.211,4.114,3,4.478,6.839,7.62,12.515,7.88a2.164,2.164,0,0,1,1.684.816c-.555,1.909-1.927.66-2.916.746,1.3.677,3.142,0,4.131,1.545-.347,1.284-1.441.972-2.291.972-1.458,0-1.389.885-1.232,1.892a6.2,6.2,0,0,1,.035,1.389c-.26,3.715-2.656,5.693-5.8,7.047-.555.26-1.128.486-1.7.694a7.226,7.226,0,0,1-.868.278,22.586,22.586,0,0,0-2.986,1.059,9.4,9.4,0,0,1-4.322.555,5.17,5.17,0,0,1-3.107-1.545l-.174-.156h-.226A2,2,0,0,1,98.1,89.508h0c-1.076-.816-2.066-.365-3.263-.1-3.263.694-6.631,1.7-9.772-.521h.017a4.717,4.717,0,0,1-2.413-3.472.471.471,0,0,0-.035-.538c.521-3.42-2.795-2.864-4.3-4.183h.035A6.9,6.9,0,0,0,75,79.649a2.5,2.5,0,0,1-2.361-1.857v.035c-3.055-3.263-2.586-6.787-.729-10.4l-.035.069a6.261,6.261,0,0,1,2.69-2.552h0a1.731,1.731,0,0,1,.816-.538l-.069.069a1.144,1.144,0,0,1,.729-.712l-.069.069c1.875-1.614,1.076-2.916-.486-4.114h.035c-.66-.4-1.3-.868-1.961-1.3h-.035a3.4,3.4,0,0,1-2.43-2.777h0A7.573,7.573,0,0,1,71.3,50.47a.423.423,0,0,0,.122-.5c.312-.434.226-1.094.781-1.389l-.035.052c.312-.4.226-1.041.781-1.319l-.052.069c.191-.66.764-.972,1.25-1.371v-.035A12.775,12.775,0,0,1,75.5,44.76l.035-.035c.469-.4.816-.972,1.51-1.076l-.069.035c2.378-1.18,2.152-2.881.92-4.773l.035.069a6.149,6.149,0,0,1-1.857-3.489.333.333,0,0,0-.052-.469,7.405,7.405,0,0,1,.208-4.548c.052-.365.087-.712.139-1.076a17.878,17.878,0,0,1,1.406-4.062.353.353,0,0,0,.122-.451,5.306,5.306,0,0,1,1.441-2.048l-.069.052a2.209,2.209,0,0,1,.694-.694l-.035.035a2.149,2.149,0,0,1,.746-.625l-.052.052A1.669,1.669,0,0,1,81.35,21l-.052.052a11.7,11.7,0,0,1,2.031-1.267h-.035c.382-.4.972-.278,1.406-.538l-.052.035c.365-.486.955-.382,1.441-.573L86,18.758a10.156,10.156,0,0,1,6.457.208h-.035c.521.555,1.475.069,1.944.764h-.052a.446.446,0,0,0,.677-.052h.017a13.978,13.978,0,0,0,1.337-1.857.461.461,0,0,0,.139-.538c.573-.538.017-1.562.868-1.979l-.052.069c.816-2.291,2.17-4.027,4.773-4.357l-.069.035a11.637,11.637,0,0,1,6.492.208.236.236,0,0,0,.382.1c.625.486,1.649-.017,2.118.868l-.1-.087a1.107,1.107,0,0,1,.746.694l-.052-.035a5.478,5.478,0,0,1,1.892,1.493l-.069-.087a1.158,1.158,0,0,1,.694.729l-.069-.069a1.193,1.193,0,0,1,.66.781l-.069-.087c.555.3.4.937.677,1.354l-.035-.052c.469.347.33.955.625,1.389v-.035c1.562.937,3.853-.382,5.068,1.649l-.035-.087c.555.226.33.937.764,1.232v.035c.191.243.382.469.59.694h0a.465.465,0,0,0,.694.069h-.035a4.351,4.351,0,0,1,3.871.26l-.069-.035c1.094.833,2.187,1.215,3.315.087h0a3.546,3.546,0,0,1,.781-.555l-.052.052a1.33,1.33,0,0,1,.781-.625l-.087.069c.469-.8,1.441-.139,2-.66h-.052a7.681,7.681,0,0,1,5.173.278l-.052-.035c.5.59,1.527.017,1.927.851l-.087-.087a1.358,1.358,0,0,1,.712.712l-.052-.035a4.067,4.067,0,0,1,1.927,2.031h0c.885.677.746,1.805,1.146,2.69V26.76c.746,1.649.035,3.35.1,5.016.052,1.041-.3,2.17.851,2.881h-.017c2.5,1.059,5.311-.156,7.776,1.111l-.069-.035c.417.312,1.007.26,1.337.712l-.035-.035a4.058,4.058,0,0,1,.66.677h0a9.742,9.742,0,0,1,3.055,3.454l-.035-.052c.451.434.382,1.059.555,1.58-.122.139-.1.26.052.382a3.422,3.422,0,0,1-.191,3.246v-.035c-.729.694.156,1.979-.9,2.552v-.069c-.347,1.58-1.875,2.951-.8,4.756l-.035-.069c.538.382.417,1.024.625,1.527a.285.285,0,0,0,.052.417,19.048,19.048,0,0,1-.417,7.794h0c-.382.33-.3.9-.642,1.267Z" transform="translate(-6.919 -10.672)" fill="#a2574d"/>
        <path id="Tracé_3" data-name="Tracé 3" d="M74.337,259.928c-.469,2.43-.1,4.964-.885,7.394-.382,1.146-.885,1.632-2.014,1.562-.764-.052-1.51-.052-2.274-.122-3.281-.26-3.923-.955-3.975-4.218,0-.868-.035-1.718-.035-2.586-1.389-1.718-.885-3.732-.8-5.624.92-20,3.419-39.923,3.541-59.954.139-23.936,2.17-47.786,3.038-71.688.069-1.927-.017-3.923.972-5.693,1.77-2.083,3.263-.26,4.843.365.851.33,1.6,1.319,2.638.677.608-.382.521-1.146.417-1.788-.191-1.215-1.25-1.319-2.17-1.6a8.652,8.652,0,0,0-4.461-.226c-1.666.208-3.385-.243-5,.5a1.913,1.913,0,0,1-.937.052c-2.2-1.128-4.687-.642-6.978-1.215a5.063,5.063,0,0,1-.833-.5c-1.18-.608-2.465-.382-3.7-.417-1.041-.937-.781-2.17-.642-3.281.469-3.628-.469-7.429,1.284-10.9l-.1.069c1.649-.885,3.4.052,5.068-.278q.495-.156.989-.26a4.9,4.9,0,0,1,1.007-.052,9.424,9.424,0,0,1,.989.035c1.111.069,2.222.139,3.35.174a8,8,0,0,1,.92.035,7.571,7.571,0,0,1,.885.052c1.736.451,2.881-.451,3.871-1.718,1.2.122,1.128,1.18,1.475,1.944,2.638,1.458,5.537.746,8.314.955a3.924,3.924,0,0,1,.9,0,10.09,10.09,0,0,0,5.034-.069,10.512,10.512,0,0,1,2.951.156,9.406,9.406,0,0,0,5.78.312,15.032,15.032,0,0,1,2.5-.052c.486,0,.989.035,1.475.069.8.035,1.6.1,2.4.191.469.052.92.121,1.389.208,1.371.191,2.76-.087,4.149.017.486,0,.955.017,1.441.052.972.052,1.961.1,2.933.139.486,0,.989.035,1.475.069.989.035,1.961.1,2.933.156.486,0,.955.052,1.441.087a21.34,21.34,0,0,0,2.361.052,8.624,8.624,0,0,1,1.892-.035,30.82,30.82,0,0,0,4.739.417c.486,0,.955.052,1.441.069.486,0,.972.052,1.458.069.486,0,.972.035,1.475.069,1.146.069,2.291.122,3.437.174.486,0,.989.052,1.475.069l1.961.1c.486,0,.989.035,1.475.069,1.146.052,2.291.122,3.437.174a9.122,9.122,0,0,1,.972.052c.8.035,1.58.1,2.378.139.451,0,.9.052,1.337.087a5.419,5.419,0,0,0,2.048-.087.755.755,0,0,0,.052-1.267,5.388,5.388,0,0,0-1.961-.3q-.651,0-1.3-.052c-.764-.035-1.51-.087-2.274-.1a8.464,8.464,0,0,1-.937-.035c-.312,0-.625-.017-.937-.035-.937-.069-1.892-.1-2.829-.139-.486,0-.955-.035-1.441-.069-.642-.035-1.284-.069-1.944-.087-.486,0-.972-.035-1.475-.069-1.146-.069-2.291-.121-3.454-.174-.5,0-.989-.052-1.493-.069-.5,0-1.007-.052-1.493-.069-.5,0-1.007-.035-1.51-.052-1.527-.052-3.072-.122-4.6-.226-.5-.017-1.024-.052-1.527-.087-.833-.035-1.684-.087-2.517-.139-.5,0-.989-.035-1.493-.069-.972-.035-1.944-.1-2.916-.156-.469,0-.92-.052-1.371-.087a5.51,5.51,0,0,0-3.367.469c-.8.139-1.337-.538-2.066-.642-1.094-.243-2.222-.156-3.315-.4a1.783,1.783,0,0,1-1.267-.955,1.43,1.43,0,0,1,.729-.885,6.959,6.959,0,0,1,3.211-.278q25.438,1.25,50.893,2.534a8.585,8.585,0,0,1,3.176.5,1.314,1.314,0,0,1,.59,1.857c-.469,1.25.1,1.788,1.319,1.857.451.017.9.035,1.354.069.8.035,1.58.069,2.361.122.486,0,.972.035,1.458.069.816.035,1.614.087,2.43.122.486,0,.972.035,1.458.069.816.035,1.614.087,2.43.122.486,0,.972.035,1.458.069.642.017,1.3.069,1.944.1.642,0,1.284.052,1.944.087.8.035,1.6.087,2.4.122.469,0,.937.052,1.406.087a20.21,20.21,0,0,0,2.291.069,9.289,9.289,0,0,1,1.84-.035,19.755,19.755,0,0,0,3.211.347c.486,0,.955.035,1.441.052.989.035,1.979.087,2.968.139.5,0,1.007.035,1.51.069,1.18.052,2.378.122,3.558.174.5,0,1.007.052,1.51.069,1.163.052,2.326.139,3.472.191.33,0,.642.035.972.052.625.035,1.25.087,1.892.121.451,0,.885.052,1.319.087a4.4,4.4,0,0,0,2.014-.139.686.686,0,0,0,.035-1.2,4.672,4.672,0,0,0-1.944-.312c-.451,0-.885-.017-1.319-.035-.625-.017-1.25-.052-1.875-.069-.486,0-.972-.035-1.458-.052-.989-.052-2-.087-2.986-.139-.5,0-1.007-.035-1.51-.069-1.2-.052-2.378-.1-3.576-.174-.5,0-1.024-.052-1.527-.069-1.024-.035-2.031-.1-3.055-.156-.5,0-1.007-.052-1.51-.069-1.007-.035-2.014-.1-3-.156-.5,0-.989-.052-1.493-.069-.833-.035-1.649-.087-2.465-.139-.486,0-.989-.035-1.475-.069-.816-.035-1.632-.087-2.447-.122-.66-.017-1.3-.052-1.961-.1-.642-.017-1.3-.069-1.944-.1-.486,0-.972-.035-1.458-.069-.816-.035-1.614-.087-2.43-.122-.486,0-.972-.035-1.458-.069-.816-.035-1.614-.087-2.43-.122-.5,0-.989-.035-1.493-.069a18.9,18.9,0,0,1-2.6-.26,1.849,1.849,0,0,1-1.319-.972,1.484,1.484,0,0,1,.764-.885c3.472-.833,6.891.191,10.328.365q17.7.859,35.393,1.77a20.583,20.583,0,0,1,3.871.347c.937.4.781,1.232.764,2,.156.764-.625,1.892.833,2.17,1.718.312,3.576-.278,5.207.712l-.1-.1a44.028,44.028,0,0,1-.538,12.984h0a2.524,2.524,0,0,1-1.51,1.18l-3.107-.1a1.676,1.676,0,0,1-.989.312c-2.274-.3-4.565-.208-6.822-.625-3.819-1.857-7.967-1.25-11.908-1.684.868.486,2.291-.59,2.951.9-1.649,1.718-3.715.868-5.624.92-7.967-.243-15.917-.66-23.867-1.18-22.513-.955-45.009-2.118-67.5-3.333-4.982-.156-9.946-.451-14.928-.677-4.669-.208-4.843-.052-5.1,4.756-.174,3.142-.312,6.266-.469,9.408Q78.824,193,75.743,254.182c-.1,2.014.191,4.166-1.337,5.884Z" transform="translate(-18.306 53.847)" fill="#5a5665"/>
        <path id="Tracé_4" data-name="Tracé 4" d="M62.7,254.963c-.4,7.151-.764,14.3-1.232,21.437-.26,3.8.712,4.287-4.808,4.27-.33,0-.642-.035-.972-.052-2.847-.174-2.708-.191-2.777-2.986-.191-6.839.59-13.643.59-20.482a.416.416,0,0,1-.191-.469c.069-.156.139-.226.208-.226.451-7.637.92-15.275,1.319-22.93a60.857,60.857,0,0,0,.312-8.714c.885-5.676.8-11.421,1.094-17.132.243-4.843.851-9.686.486-14.563.1-.851.26-1.7.312-2.569q1.562-31.3,3.124-62.61c.035-.851-.017-1.718-.035-2.586.868-5.121.625-10.311,1.041-15.448.451-2.482,1.927-.746,2.933-.642,1.684.191,3.3,1.961,5.034.122.139-.087.26-.156.4-.243,1.614.816,1.389,2.361,1.3,3.715-.816,12.532-.972,25.082-2.257,37.6a204.921,204.921,0,0,0-1.25,30.793c.069,1.406,0,2.812-.052,4.218q-1.588,31.947-3.211,63.912c-.1,1.909.156,3.958-1.319,5.555Z" transform="translate(-19.829 61.364)" fill="#5a5665"/>
        <path id="Tracé_5" data-name="Tracé 5" d="M99.777,57.67c1.527.156,2.951-.486,4.444-.59.1.139.208.3.312.434-.3,3.975-2.2,7.585-2.76,11.508a35.883,35.883,0,0,0-.555,5.086,67.774,67.774,0,0,0,.555,8.384c.139,1.51.365,3.02-.642,4.357a3.573,3.573,0,0,0-2.656,2.465c-1.753,4.062-3.836,7.967-5.4,12.133a4.33,4.33,0,0,1-2.031,2.795,3.285,3.285,0,0,1-1.892-.347,6.717,6.717,0,0,0-7.412.052c2.777-2.2,6.2-.92,9.582.989,1.215,2.4,2.066,4.843.9,7.533-2.621,2.552-5.294,4.86-9.373,4.617-1.875-.122-3.35,1.857-5.4,1.666-3.35-2.569-2.239-6.11-1.875-9.408a8.636,8.636,0,0,1,.833-2.725c.052-.4.1-.781.174-1.18.469-1.545.937-3.09,1.441-4.617a.784.784,0,0,0,.087-.59c.521-1.493.608-3.142,1.441-4.53.052-.382.122-.764.174-1.146.5-.59.069-1.545.764-2.066l-.035.035c.538-.555.122-1.423.677-1.979a.731.731,0,0,0,.087-.573,20.878,20.878,0,0,1,1.458-3.923.467.467,0,0,0,.1-.469,30.1,30.1,0,0,1,1.423-3.367.347.347,0,0,0,.087-.417,8.446,8.446,0,0,1,1.284-2.743.83.83,0,0,0,.122-.608c.608-.5.087-1.493.816-1.961l-.035.052c.312-.382.26-.955.608-1.319a.744.744,0,0,0,.122-.573c.538-1.059.868-2.222,1.423-3.281a.545.545,0,0,0,.1-.486c.3-.451.243-1.076.729-1.423l-.035.035c.347-.382.26-.972.66-1.319a.408.408,0,0,0,.122-.434,11.263,11.263,0,0,1,1.267-2.1.513.513,0,0,0,.156-.486,10.091,10.091,0,0,1,1.354-2.066h0c.4-.312.3-.972.816-1.215l-.069.052a1.5,1.5,0,0,1,.712-.677l-.052.035a2.344,2.344,0,0,1,.712-.66l-.035.035a1.855,1.855,0,0,1,.746-.625l-.052.052a11.366,11.366,0,0,1,3.975-2.447Z" transform="translate(-3.475 23.475)" fill="#e49765"/>
        <path id="Tracé_6" data-name="Tracé 6" d="M130.687,68.448a.627.627,0,0,0,.052.555c.33.417.208,1.007.5,1.441a.723.723,0,0,0,.052.538c.555.868-.087,1.927.417,2.812l.052,1.128c.451.625,0,1.458.451,2.1a.609.609,0,0,0,.017.521c.729,1.527-.312,3.194.365,4.739,0,.382.017.764.035,1.163.555.868-.087,1.927.417,2.795,0,.382.017.746.035,1.128.677,1.527-.33,3.176.347,4.7a.553.553,0,0,0,0,.521c.642.833-.1,1.909.486,2.76a.647.647,0,0,0,.035.538c.66,1.076-.191,2.343.417,3.437a.485.485,0,0,0,.017.486c.573.59,0,1.475.521,2.066a.729.729,0,0,0,.035.573c.625,1.041-.243,2.274.417,3.315v-.035c.59.608.087,1.493.521,2.152l.087,1.146a9.344,9.344,0,0,1,.434,1.51.365.365,0,0,0,.035.434c.573.59.017,1.475.538,2.083a.729.729,0,0,0,0,.573,14.4,14.4,0,0,1-.33,6.492.621.621,0,0,0-.087.521.7.7,0,0,1-.764.33,4.76,4.76,0,0,1-1.284-.59,57.928,57.928,0,0,1-12.2-8.332c-1.267-5.4-2.43-10.814-3.558-16.23a17.936,17.936,0,0,1,1.128-6.179,7.1,7.1,0,0,0,.573-2.465c0-.347.035-.694.052-1.024.122-2.257.226-4.5.312-6.752a18.137,18.137,0,0,0-.3-6.631c-.069-.278-.139-.573-.191-.851-.1-.538-.191-1.076-.347-1.614a5.5,5.5,0,0,1-.208-.764c-.121-.5-.226-.989-.382-1.493a5.3,5.3,0,0,1-.226-.746,11.483,11.483,0,0,0-.92-2.586,7.159,7.159,0,0,1-.3-.781,21.372,21.372,0,0,0-2.4-5.52c-.312-1.2-2.014-2.881,1.024-2.881,1.284-.069,2.586.417,3.871-.1l2.378.1c.555.573,1.493.1,2,.764h-.035c.365.347.972.278,1.3.694h0c.226.191.417.434.642.642h0c.191.26.417.486.59.729H127.3a2.257,2.257,0,0,1,.625.712l-.035-.052c.451.33.3.955.642,1.337h0a1.572,1.572,0,0,1,.573.868.4.4,0,0,0,.069.434c.5.608,0,1.458.486,2.083a.694.694,0,0,0,.069.555,2.156,2.156,0,0,1,.486.868.4.4,0,0,0,.052.434c.625.833-.122,1.892.469,2.743Z" transform="translate(25.725 22.261)" fill="#e49765"/>
        <path id="Tracé_7" data-name="Tracé 7" d="M211.9,105.354q-23.537-1.172-47.057-2.326c-1.232-.052-2.6-.608-3.7.538a.9.9,0,0,1-1.215-.191c-.625-.8-1.545-.677-2.378-.712q-26.74-1.354-53.462-2.673c-.937-.052-1.961-.33-2.725.573a8.55,8.55,0,0,0-2.638,3.038c-.486-.035-.972-.052-1.458-.087-.538-.5-.434-1.406-1.111-1.84-.764.33-.694,1.267-1.267,1.7a6.5,6.5,0,0,1-6.075-.278c-.729-.555-.312-2.152-1.58-2.083-.9.052-.8,1.389-1.475,1.909a5.228,5.228,0,0,1-5.45-.33c-.712-.694-.573-2.326-2.4-2.083.156,1.632,1.857,1.18,2.413,2.048-.052.087-.087.243-.174.26-1.875.642-7.533.26-9.46-.608a3.879,3.879,0,0,1,.764-.5c.677-.4,2.031.1,2.014-1.041-.017-1.076-1.354-.66-2.048-1.024a2.635,2.635,0,0,0-1.267-.312c-1.718.243-3.176.851-3.853,2.6h-.8c-.729-.573-.486-1.753-1.371-2.257a3.12,3.12,0,0,0-2.274-.069c-.868.451-.764,1.649-1.6,2.118h-.278l-.278-.035a2.8,2.8,0,0,1-.555-1.024c0-1.163-.243-2.4.955-3.194,5.173-.486,10.311.365,15.466.434a37.588,37.588,0,0,0,4.843.087,3.373,3.373,0,0,1,1.18-.1c3.3-.035,6.613.816,9.911-.087,2.586.122,5.173.26,7.742.4a9.8,9.8,0,0,1,1.007.069c.486.035.972.069,1.458.087.955-.052,1.909,0,2.864-.139a12.611,12.611,0,0,1,2.135-.278c18.191.608,36.365,1.614,54.521,2.656,2.847.5,5.936-.521,8.523,1.458,5.485.625,10.988.59,16.49.885,8.3.451,16.611.8,24.909,1.18.538.26,1.25.417.746,1.267Z" transform="translate(-15.233 53.086)" fill="#625f6b"/>
        <path id="Tracé_8" data-name="Tracé 8" d="M94.726,59.518a9.063,9.063,0,0,1,1.562-1.041c2.6-1.007,3.645-3.09,4.062-5.624,4.773-.694,9.495-1.927,14.39-1.337,1.284,1.406,2.031,3.489,4.357,3.663.781.555,1.892.417,2.534,1.25a1.136,1.136,0,0,0,.538.087c.4.347,1.024.26,1.389.694a.773.773,0,0,0,.521.069c.417.243.92.417,1.059.972-.469,3-2.6,3.176-4.843,2.586a2.776,2.776,0,0,0-3.315.972c-1.632,1.909-3.7,2.69-6.023,1.215-1.267-.816-2.152-.243-3.229.312-2.5,1.267-5,1.389-7.221-.555-.955-.851-1.84-.642-2.951-.555-1.753.156-3.732.156-2.829-2.673Z" transform="translate(10.793 19.267)" fill="#fcf17d"/>
        <path id="Tracé_9" data-name="Tracé 9" d="M134.613,95.726l.694.851a1.64,1.64,0,0,1-.139,1.77l-.156,1.146c-.8,1.232.121,2.829-.868,4.027l.052-.052c-.191.226-.4.451-.608.677a.388.388,0,0,0-.156.417c-.4,1.77-1.84,2.239-3.3,2.69h0a2.207,2.207,0,0,1-1.979.087c-.694-3.107.989-5.572,1.944-8-1.753,2.222-1.337,5.641-3.263,8.054a2.8,2.8,0,0,1-2.413-.052c-1.875-2.326.347-4.444.365-6.683,0-.642.608-1.25.625-1.823-1.111,2.5-1.2,5.433-2.291,8.089-2.517.243-3.367-1.25-3.558-3.419,1.441-3.055,1.319-6.631,2.76-8.939a27.536,27.536,0,0,0-2.1,7.447c-.972.92-1.857.191-2.76-.139a4.678,4.678,0,0,1-1.7-3.419,3.494,3.494,0,0,1,.069-.955c.156-.625.312-1.232.417-1.875.851-2.795,1.389-5.8,4.669-6.978,2.031-.4,3.61.087,4.392,2.2a1.548,1.548,0,0,0,.8.989c3,.972,5.52,2.951,8.523,3.923Z" transform="translate(26.433 46.605)" fill="#e39765"/>
        <path id="Tracé_10" data-name="Tracé 10" d="M94.972,104.719c-.677.017-1.337.052-2.014.069a1.676,1.676,0,0,1-.92-1.527c.069-2.239.4-4.461-.069-6.179.035,1.788.052,4.1-.035,6.405,0,.486,0,.955-.486,1.215a2.629,2.629,0,0,1-.642.122c-1.805-.174-3.524-.434-3.02-2.951.069-1.059.069-2.135.174-3.194-.382,1.823.278,3.8-.746,5.537q-3.246.035-3.263-4.878c.139.833-.226,2.309-.052,3.784.139,1.163-.729,1.111-1.406,1.319a84.917,84.917,0,0,1-10.276-.538l-.486-.174.469-.226a47.526,47.526,0,0,0,8.314.278.481.481,0,0,0,.208-.434c-.017-.174-.052-.243-.1-.243v.052c-.833-.746-.885-1.84-1.18-2.812l-.052-1.128a1.646,1.646,0,0,1,.139-1.944.5.5,0,0,0,.1-.486c.33-.538.035-1.371.8-1.684,2.257-1.146,4.426-2.361,7.186-2.118a5.336,5.336,0,0,0,4.235-1.944c.816-.868,1.6-1.718,2.916-1.7a3.239,3.239,0,0,1,1.77,1.319c2,2.725.937,11.786-1.614,14.06Z" transform="translate(-5.961 47.211)" fill="#e39665"/>
        <path id="Tracé_11" data-name="Tracé 11" d="M139.01,73.815l.191.069.139-.156c.538-.434,1.146-.243,1.718-.208a1.075,1.075,0,0,1,.608,1.076,7.04,7.04,0,0,1-.59,1.493,1.022,1.022,0,0,0,.174.59,2.924,2.924,0,0,0,.781.521,6.461,6.461,0,0,1,.59.33c.312.174.625.347.937.5.226.1.451.243.677.365a3.073,3.073,0,0,1,1.371,1.406.829.829,0,0,1-.486.989,1.426,1.426,0,0,1-.764,0,5.455,5.455,0,0,0-.9-.66,3.247,3.247,0,0,1-.694-.226c-.208-.087-.434-.191-.642-.3-.191-.122-.382-.26-.573-.4a1.382,1.382,0,0,0-.833-.555,3.012,3.012,0,0,1-.66-.243c-.347-.121-.694-.26-1.024-.382-.885-.33-1.441.156-1.944.781h.017a3.34,3.34,0,0,0-.729,2.326c1.25.33,2.69-.469,3.836.555l-.087-.069a1.251,1.251,0,0,1,.677.746l-.052-.087a2.56,2.56,0,0,1-.226,3.142l.087-.087a.98.98,0,0,1-.729.712l.069-.069a1.2,1.2,0,0,1-.694.729l.052-.052a5.138,5.138,0,0,1-2.222,1.2l-.226-.087-.191.156a1.521,1.521,0,0,1-1.927-.139h.035c-.66-.434-1.666-.417-1.875-1.441l.035.052c-1.753-2.447-.833-4.791.278-7.134l.174-.122-.052-.191a5.786,5.786,0,0,1,2.17-2.725l-.087.069a.886.886,0,0,1,.764-.694l-.069.069a.817.817,0,0,1,.781-.677l-.1.069c.243-.608.92-.417,1.319-.729h-.052a1.216,1.216,0,0,1,.989-.555Z" transform="translate(38.352 35.519)" fill="#2d2a35"/>
        <path id="Tracé_12" data-name="Tracé 12" d="M61.764,74.8a.325.325,0,0,0,.5-.1c.382-.3.955-.122,1.3-.521h0c.59-.521,1.441,0,2.014-.521h-.017c.243-.226.451-.538.868-.469l-.1.087c2.968-.8,3.159-.486,2.361,3.767a2.316,2.316,0,0,0-.208,1.632c-.521,1.562-.833,2.951,1.684,2.743A2.174,2.174,0,0,1,72.2,82.676a.265.265,0,0,0,.069.417.945.945,0,0,1-.052,1.3.475.475,0,0,0-.087.573c-.608.5-.017,1.545-.885,1.927l.052-.069c-1.163,1.7-2.6,2.222-4.426,1.007l.1.1a.785.785,0,0,1-.694-.764l.087.1c-.66-.26-.469-.972-.729-1.441a.3.3,0,0,0-.052-.451,19.347,19.347,0,0,1,.035-6.926c.208-1.441-.087-2.378-1.84-1.736l-.208-.052-.139.174c-1.562.66-3.142,1.475-4.426-.469l.121.121c-.937-.816-.365-1.25.451-1.441.694-.156,1.475.156,2.17-.226Z" transform="translate(-15.592 35.129)" fill="#2e2b36"/>
        <path id="Tracé_13" data-name="Tracé 13" d="M145.047,89.526l-.174-.1-.139.139a2.279,2.279,0,0,1-2.586-.156h.035c-.625-.469-1.493-.642-1.875-1.441l.035.052c-1.7-2.239-1.076-4.322.4-6.37l-.052.069c.33-.781.573-1.6.868-2.378a2.239,2.239,0,0,1,1.389-.92,5.154,5.154,0,0,0,1.545-.694,1.974,1.974,0,0,1,1.736-.156c.868.087,1.493.451,1.58,1.406h0c-.069.816-.729,1.146-1.232,1.6h-.035c-.9,1.007-1.805,2-2.656,3a1.167,1.167,0,0,1,.1.208s.139-.208.156-.226c.781-.469,1.684.087,2.447-.347h.208c.469.312,1.2.174,1.371.9l-.1-.139a2.2,2.2,0,0,1-.1,3.055l.087-.087a.989.989,0,0,1-.677.746l.052-.069a2.347,2.347,0,0,1-.642.729h0a2.14,2.14,0,0,1-.8.555l.087-.069a1.086,1.086,0,0,1-.955.66Z" transform="translate(43.771 38.451)" fill="#2d2a35"/>
        <path id="Tracé_14" data-name="Tracé 14" d="M117.682,56.074c-.8.1-1.094.486-.712,1.267.226.469.434.937.642,1.423.243.625-.156.816-.642.937-1.875-.573-2.17-2.864-3.906-3.61a1.092,1.092,0,0,1,.035-.9,1.279,1.279,0,0,1,1.337.1l3.159.3c.26.087.347.191.278.312-.069.139-.156.208-.226.191Z" transform="translate(24.392 21.981)" fill="#f8e176"/>
        <path id="Tracé_15" data-name="Tracé 15" d="M147.705,112.48c.208,0,.417.017.625.035-.087.885-.174,1.77-.26,2.673h-.191l-.191.035-.4-.347a1.852,1.852,0,0,1,.417-2.4Z" transform="translate(49.445 64.237)" fill="#5a5665"/>
        <path id="Tracé_16" data-name="Tracé 16" d="M147.236,102.96c.156.139.312.278.451.417a1.062,1.062,0,0,0,.087,1.128.721.721,0,0,0,.035.625C146.837,104.626,147.114,103.776,147.236,102.96Z" transform="translate(49.498 57.233)" fill="#625f6b"/>
        <path id="Tracé_17" data-name="Tracé 17" d="M138.451,77.67c-.069-.174-.139-.365-.191-.538a1.271,1.271,0,0,1,1.337.642l-.66.087-.191-.191h-.278Z" transform="translate(42.991 38.225)" fill="#383540"/>
        <path id="Tracé_18" data-name="Tracé 18" d="M138.119,76.95c-.226.035-.434.052-.66.087l-.191-.191h-.278a5.214,5.214,0,0,1-.191-.555,1.286,1.286,0,0,1,1.3.66Z" transform="translate(41.916 37.609)" fill="#383540"/>
        <path id="Tracé_19" data-name="Tracé 19" d="M94.342,234.892a1.507,1.507,0,0,0,.017-.486c-.191-.451-.069-.989-.365-1.406-1.371-5.919-3.975-11.4-6.162-17.028a62.468,62.468,0,0,1-3.749-17.983,74.631,74.631,0,0,1-.347-12.307,82.714,82.714,0,0,1,2.378-13.348c1.232-4.912,1.77-9.911.5-15.049a191.5,191.5,0,0,1-4.444-25.464,34.764,34.764,0,0,1-.035-3.558,1.922,1.922,0,0,1,.26-2.17,1.394,1.394,0,0,1,.92.052,4.023,4.023,0,0,1,.764.538c6.631,7.811,14.563,14.181,22.791,20.187a6.833,6.833,0,0,1,2.864,3.419,4.912,4.912,0,0,1,.191,1.007c.052.92.382,1.771.486,2.69a85.412,85.412,0,0,1-.9,14.268c-2.326,15.049-2.621,30.22-2.673,45.408-.017,6.075.434,12.133-.035,18.208a5.026,5.026,0,0,1-.608,2.5c.278,6.336.33,12.706,2.447,18.781.955,2.725,2.413,5.294,2.656,8.245-.989.521-1.875.017-2.743-.347-4.392-1.909-8.731-1.58-13.07.208-1.146.469-2.291,1.284-3.61.434,1.111-3.558,2.118-7.169,3.35-10.675a13.5,13.5,0,0,0,.608-4.739,38.085,38.085,0,0,0-1.493-11.352Z" transform="translate(1.542 74.214)" fill="#e49765"/>
        <path id="Tracé_20" data-name="Tracé 20" d="M130.5,223.149c1.25-1.215.66-2.534.312-3.923-1.753-7.082-5.242-13.487-8-20.17-4.617-11.2-10.189-21.958-15.032-33.049-3.055-7-4.01-14.285-4.027-21.8,1.2-.729,2.1.035,2.916.677a49.21,49.21,0,0,0,19.111,9.13,3.567,3.567,0,0,1,2.2,1.25c2.118,2.864,4.166,5.78,6.37,8.557,3.576,4.5,4.825,9.807,5.45,15.31a141.092,141.092,0,0,1,.226,23.919,88.733,88.733,0,0,0,.5,15.483,10.225,10.225,0,0,0,2.083,5.676,48.99,48.99,0,0,0-5.207,20.812c-.052,2.222-1.128,3.419-3.558,2.9a18.5,18.5,0,0,0-6.11-.174,3.434,3.434,0,0,1-3.038-.677c-.069-5.555,1.475-10.8,2.916-16.091.729-2.708,2.048-5.173,2.829-7.846Z" transform="translate(17.599 87.362)" fill="#e49765"/>
        <path id="Tracé_21" data-name="Tracé 21" d="M139.432,112.119l-3.142-.156c4.183-.851,8.384-1.892,12.324.66.851,1.146.5,2.465.434,3.732,2.187.5,4.114-1.527,6.249-.382l.312.312q-1.172,23.225-2.326,46.45-3.2,64-6.422,127.979c-.052.972-.156,1.944-.156,2.916,0,1.423-.729,1.909-2.066,1.771a9.487,9.487,0,0,1-3.176-.555c-2.274-1.041-2.552-1.389-2.43-3.94q.807-16.559,1.632-33.136c.052-1.18.035-2.378.052-3.576-1.2-2.014-.8-4.2-.694-6.353q3.124-63.139,6.3-126.261c.052-1.076.035-2.17.174-3.246.347-2.708-.5-4.444-3.489-4.565a9.388,9.388,0,0,1-1.666-.555,3.346,3.346,0,0,1-1.892-1.128Z" transform="translate(41.541 63.158)" fill="#5a5665"/>
        <path id="Tracé_22" data-name="Tracé 22" d="M132.235,227.325c.087-1.3.208-2.586.278-3.888q2.6-52.412,5.207-104.807c.052-1.076.191-2.152.278-3.229,2.361-1.649,4.878-2.656,7.828-1.892a2.842,2.842,0,0,1,.764.937,14.847,14.847,0,0,1,.694,6.405c-1.7,34.386-3.263,68.789-5.277,103.175-.451,7.863-1.25,15.744-1.736,23.624a4.643,4.643,0,0,1-1.111,3.315,68.385,68.385,0,0,0-.555,11.3c.069,1.389-.451,1.718-1.6,1.718-.208,0-.434-.017-.642-.017-5.433-.017-5.867-.486-5.589-5.884.469-9.061.972-18.139,1.441-27.2.069-1.18.017-2.378.035-3.558Z" transform="translate(37.438 64.804)" fill="#5a5665"/>
        <path id="Tracé_23" data-name="Tracé 23" d="M118.28,213.048c3.437-.174,6.874-.955,10.311.174.937.312,1.406-.278,1.458-1.2.087-1.406.174-2.812.226-4.218a40.593,40.593,0,0,1,3.4-14.424c.538-1.25.955-2.69,2.5-3.211l.989.885c1.614,2.326,2.916,4.687,2.777,7.724a11.188,11.188,0,0,1-2.378,6.874c-2.239,2.725-3.958,5.659-3.888,9.339a2.1,2.1,0,0,1-.122.642c-1.875,6.075-1.146,7-8.731,8.644a24.407,24.407,0,0,1-8.7.33c-1.389-.191-3.02-.226-3.419-1.909a3.945,3.945,0,0,1,1.146-4.166,25.994,25.994,0,0,0,4.426-5.5Z" transform="translate(24.072 121.4)" fill="#5a5665"/>
        <path id="Tracé_24" data-name="Tracé 24" d="M88.561,205.393a13.367,13.367,0,0,0,1.84-.59c5.919-2.986,11.786-3.177,17.6.312a16.435,16.435,0,0,1,.972,7.325,2.983,2.983,0,0,1-1.892,2.777c-5.034,2.031-10.189,2.9-15.535,1.441a7.428,7.428,0,0,1-3.61-2.066c-1.458-1.58-2.048-3.246-.972-5.311.642-1.232,1.094-2.569,1.632-3.871Z" transform="translate(4.842 130.496)" fill="#5a5665"/>
        <path id="Tracé_25" data-name="Tracé 25" d="M43.138,212.579c-.174-.434-.365-.885-.538-1.319C43.433,211.434,44.18,211.642,43.138,212.579Z" transform="translate(-27.395 136.918)" fill="#ffddd7"/>
        <path id="Tracé_26" data-name="Tracé 26" d="M42.55,212.68c.208-.226.417-.434.642-.66C42.984,212.246,42.776,212.454,42.55,212.68Z" transform="translate(-27.431 137.477)" fill="#ffddd7"/>
        <path id="Tracé_27" data-name="Tracé 27" d="M106.765,63.655c-2.413-.4-4.825-.174-7.221-1.354a15.4,15.4,0,0,1-7.412-7.273c-.174-.226-.365-.451-.538-.677a2.775,2.775,0,0,1-.59-1.2,5.77,5.77,0,0,0-.469-1.18Q88.088,46.818,93,44.093c1.58-1.111,3.055-2.465,5.1-2.378-.625-.156-1.458-.035-1.927-.8.122-2.048.174-4.114.382-6.162.3-2.864.642-3.315,3.454-3.732,2.6-.382,5.121-.8,7.117-2.708.608-.573,1.2-.365,1.684.191a8.977,8.977,0,0,0,7.5,3.055c2.187-.052,2.187.122,2.447,2.673.937,2.066.191,3.107-1.979,3.107a9.485,9.485,0,0,0-3.263.8c2.152-.764,4.548-1.614,6.336.156,1.215,1.2,2.569,3.072,1.059,5.155-.1,1.493-.33,3-.3,4.5a18.632,18.632,0,0,1-2.864,10.623,5.307,5.307,0,0,0-.382,1.545,12.364,12.364,0,0,1-4.27,3.107c-2.083.4-4.079,2.014-6.3.451Z" transform="translate(7.276 2.059)" fill="#e49765"/>
        <path id="Tracé_28" data-name="Tracé 28" d="M128.293,55.233a1.389,1.389,0,0,1,.538.052v.521c2.239,2.465,3.281,5.589,4.7,8.488a2.619,2.619,0,0,1,.017,2.795c-.66.5-1.58.521-2.083,1.406a3.526,3.526,0,0,1-4.53,1.545,3.228,3.228,0,0,0-3.992,1.094c-.33.417-.955,1.007-1.319.868-4.218-1.684-8.089,2.795-12.307.642-.382-.191.052-.26-.278-.121-3.437,1.423-6.787-.191-10.085-.122-3.246.069-5.416-.573-7.169-3.107a12.427,12.427,0,0,1,1.562-8.019c1.163-.069.955.92,1.2,1.562,1.076,2.829,2.743,3.715,5.45,2.6a3.017,3.017,0,0,1,3.263.486c1.875,1.354,3.906,1.823,6.041.555,1.128-.677,2.083-.417,3.315-.035,2.361.729,4.912,1.146,6.96-.989a3.439,3.439,0,0,1,3.558-.833c1.961.4,3.906.365,5.485-1.927-1.094,1.076-1.944,2.309-3.072,1.979-3.159-.937-5.416.937-8.123,1.788-3.7,1.163-7.915-.8-11.942.347-.764.208-1.84-.555-2.552-1.25a2.037,2.037,0,0,0-2.326-.521c-3.8,1.3-4.86.764-6.162-2.916a2.762,2.762,0,0,0-.677-1.094c-.746-1.545-.017-2.621,1.094-3.593a1.114,1.114,0,0,1,.625-.069c1.18,1.493,2.743,1.788,4.548,2.291,4.027,1.128,7.811,2.465,11.821.278,3.107,1.718,5.728.885,8.123-1.441a1.671,1.671,0,0,1,1.545-.3c3.09.885,5.138-.538,6.787-2.933Z" transform="translate(8.713 22.111)" fill="#fcf17d"/>
        <path id="Tracé_29" data-name="Tracé 29" d="M88.006,49.523a22.48,22.48,0,0,1-.191,3.246,4.792,4.792,0,0,1-4.166,4.183c-.486-.92.226-1.041.59-1.337A5.228,5.228,0,0,0,86.323,49.9a6.256,6.256,0,0,1-.174-1.6c.052-1.094.347-1.7,1.788-1.58,5.329.434,8.835-2.743,9.113-8.019.069-1.3.087-2.6.174-3.888.174-2.76.781-3.4,3.506-3.541a27.787,27.787,0,0,0,4.773-.851c2.968-.694,5.8-1.58,7.1-5.259.851,1.371.712,2.187.017,2.968a9.5,9.5,0,0,1-3.61,2.673,24.059,24.059,0,0,1-7.863,1.753c-2.743.139-2.69.1-2.69,3.02,0,2.048-.156,4.114-.26,6.162a2.03,2.03,0,0,1-.729,1.718c-.729.59-.069,1.527-.538,2.187-1.84,2.309-4.044,3.663-7.186,3-.573-.122-1.805-.694-1.753.851Z" transform="translate(2.688 -0.004)" fill="#78362d"/>
        <path id="Tracé_30" data-name="Tracé 30" d="M116.783,53.679A19.084,19.084,0,0,1,111.35,56.2c.851-1.614.851-1.6,2.083-2.309,2.812-1.614,4.617-3.8,4.409-7.308a5.538,5.538,0,0,0-1.215-3.61c-1.406-1.51-1.354-3.055-.521-4.791a16.539,16.539,0,0,0,1.128-5.364c.26-2.083-.972-3.628-1.684-5.555,2.586.937,3.541,2.257,3.61,4.791a15.694,15.694,0,0,1-1.527,7.551,1.969,1.969,0,0,0,.226,2.6c2.239,2.343,2.343,5.589,2.777,8.453.434,2.847-1.545,5.155-4.2,6.717-.538-1.3.746-1.562.92-2.343.59-.764.365-1.927.989-2.413.486-.486-.312-.486.087-.312.087.035,0,.1-.1.3a2.607,2.607,0,0,1-1.562,1.076Z" transform="translate(23.191 1.534)" fill="#79362e"/>
        <path id="Tracé_31" data-name="Tracé 31" d="M80.816,56.176c-5.485-3.7-5.971-9.946-1.354-14.407a13.246,13.246,0,0,1,5.85-3.35c2.413-.642,3.749-1.7,4.374-4.426,1.128-4.895,3.715-6.683,8.7-7.342,1.232-.156,1.371-.017,2.933,1.684-1.3.069-2.378-.59-3.593-.3a7.793,7.793,0,0,0-6.284,6.6c-.538,2.847-1.84,4.6-4.895,5.19a11.326,11.326,0,0,0-5.988,3C77,46.317,76.7,50.049,79.948,53.954a12.088,12.088,0,0,1,.972,1.3c.087.139-.035.382-.1.92Z" transform="translate(-2.584 1.05)" fill="#7b382f"/>
        <path id="Tracé_32" data-name="Tracé 32" d="M95.647,60.341a24.246,24.246,0,0,0-1.666,8.436,2.067,2.067,0,0,1,.312,1.458c-.312,2.014-.66,4.01-1.128,5.988a36.016,36.016,0,0,1-.955,7.707,14.615,14.615,0,0,0-.243,1.927c-.33,1.51.226,3.038-.156,4.53a1.277,1.277,0,0,1-.694.5,1.558,1.558,0,0,1-1.059-.642,3.644,3.644,0,0,1-.4-1.128,7.842,7.842,0,0,1-.208-1.111.758.758,0,0,1,.33-.625c1.076-1.423.642-2.968.521-4.548-.208-2.829-.885-5.659-.521-8.523,1.319-5.572,2.465-11.178,4.114-16.664l-.208-.139A4.819,4.819,0,0,1,96.5,56.471c-.3,1.267-.972,2.465-.833,3.836h0Z" transform="translate(7.077 23.025)" fill="#eeb750"/>
        <path id="Tracé_33" data-name="Tracé 33" d="M126.684,55.311c-1.041,3.159-3.09,4.6-6.006,3.836a2.67,2.67,0,0,0-2.9.642c-2,1.857-4.253,2.482-6.8,1.163a2.682,2.682,0,0,0-3.02.347,5.6,5.6,0,0,1-6.926-.174,4.79,4.79,0,0,0-3.558-.885,2.943,2.943,0,0,1-3.61-2.829,1.91,1.91,0,0,1,1.337-.66c.955,2.43,1.3,2.708,3.385,1.649a1.744,1.744,0,0,1,2.465.434c2.447,2.4,4.6,2.534,7.464.521.92-.66,1.493-1.215,2.76-.3,2.69,1.927,4.287,1.562,6.127-1.25.955-1.475,1.458-1.961,3.159-.642,1.736,1.354,3.489.382,4.756-2.048l1.371.174Z" transform="translate(10.322 22.033)" fill="#fef9c8"/>
        <path id="Tracé_34" data-name="Tracé 34" d="M111.936,41.518c.3-1.614-.781-2.829-1.232-4.235a1.356,1.356,0,0,0-1.441-1.007,7.9,7.9,0,0,0-3.8.382,32.77,32.77,0,0,1-3.281,1.059c-.66-.868-.139-1.319.434-1.6,1.441-.712,2.968-1.493,4.6-1.267,2.17.3,2.638-.781,2.569-2.552.3-.417.608-.851,1.215-1.7a13.639,13.639,0,0,0,1.475,6.37c1.614,3.871,3.715,5.867,8.939,4.478.382-.1.764-.486,1.319.087-2.343,1.805-4.982,1.666-7.637,1.423-1.3-.1-1.284,1.267-2.014,1.823-.573,1.25,1.024,2.9-.746,4.131-.573-2.569.694-5.051-.4-7.377Z" transform="translate(16.217 3.991)" fill="#823f33"/>
        <path id="Tracé_35" data-name="Tracé 35" d="M112.27,52.895c-4.756.885-9.477,2.135-14.39,1.337V52.86c2.274-1.337,4.895-1.25,7.377-1.753,1.875-.382,3.8-.486,5.468-1.562a.849.849,0,0,1,.92.122c.156,1.076.781,2.066.642,3.211Z" transform="translate(13.28 17.87)" fill="#eeb750"/>
        <path id="Tracé_36" data-name="Tracé 36" d="M111.286,49.9c-.052,1.111-.92,1.475-1.753,1.6-3.819.573-7.568,1.666-11.491,1.614a3.156,3.156,0,0,1-.087-2.933c1.354,0,2.708.989,4.166.555a4.288,4.288,0,0,1,3.055-.868c2.031.174,4.1-1.771,6.127.017Z" transform="translate(13.101 17.619)" fill="#f9e678"/>
        <path id="Tracé_37" data-name="Tracé 37" d="M104.215,25.965c.382,1.041,0,1.632-.989,1.007a11.22,11.22,0,0,0-5.572-1.406,12.8,12.8,0,0,0-4.183.781c1.441-2.43,4.183-2.795,9.72-1.354-.608-1.753-2.239-2.569-3.437-4.253,2.864.243,3.732,2,4.5,3.888a.939.939,0,0,1-.052,1.337Z" transform="translate(10.035 -3.263)" fill="#7f3b32"/>
        <path id="Tracé_38" data-name="Tracé 38" d="M86.226,40.959c-.243-.226-.434-.555-.243-.833a.977.977,0,0,1,.8-.4c3.35.781,5.8-.937,8.158-2.916a2.02,2.02,0,0,1,1.128,1.337,2.026,2.026,0,0,1-1.25.955c-3,1.059-3.211,1.3-1.736,4.409.555,1.163.955,2.378,1.441,3.576a1.655,1.655,0,0,0,.451.816,1.523,1.523,0,0,1-.035.625A1.761,1.761,0,0,1,93.186,47a4.445,4.445,0,0,0-1.2-2.517c-1.979-.642-1.354-2.864-2.465-4.044-1.094.1-2.326-.521-3.281.5Z" transform="translate(4.469 8.561)" fill="#8b4838"/>
        <path id="Tracé_39" data-name="Tracé 39" d="M105.265,51.688a7.889,7.889,0,0,1-3.124,0c-1.25-1.215-3.159-.955-4.53-1.979,1.059-.608,2.413.347,3.35-.677,2.257.26,4.235-1.007,6.405-1.146.608-.208.868.139,1.076.608-.069,2.031-1.77,2.447-3.176,3.176Z" transform="translate(13.081 16.665)" fill="#813e32"/>
        <path id="Tracé_40" data-name="Tracé 40" d="M92.239,39.162a1.112,1.112,0,0,1-1.128-1.337c.052-.712-.035-1.493.764-1.892.017.555.1,1.111.868.816a4.875,4.875,0,0,0,2.413-1.319c1.6.122,3.3-.26,5.311.781-1.753,1.128-3.315.4-4.652.9a35.888,35.888,0,0,0-3.558,2.066Z" transform="translate(8.297 7.545)" fill="#844135"/>
        <path id="Tracé_41" data-name="Tracé 41" d="M102.02,51.894l2.933-2.9a2.017,2.017,0,0,1,2.6-1.337c.955.972.434,2.378,1.041,3.437-.174-.035-.347-.035-.521-.052-2.135-.555-3.958,1.024-6.041.833Z" transform="translate(16.326 16.459)" fill="#df9664"/>
        <path id="Tracé_42" data-name="Tracé 42" d="M75.86,44.73c2.1,1.146,3.975,2.187,6.179,3.385C78.412,48.427,76.8,47.542,75.86,44.73Z" transform="translate(-2.922 14.388)" fill="#803c33"/>
        <path id="Tracé_43" data-name="Tracé 43" d="M82.264,45.7c-2.933,1.649-4.808.781-6.474-3.4C77.908,44.435,79.678,45.858,82.264,45.7Z" transform="translate(-2.974 12.6)" fill="#7b382f"/>
        <path id="Tracé_44" data-name="Tracé 44" d="M99.66,25.84c0-.451.035-.885.052-1.337a1.958,1.958,0,0,0,1.875-.989c.816-1.371,2.222-1.84,3.663-2.6A8.132,8.132,0,0,1,99.66,25.84Z" transform="translate(14.589 -3.138)" fill="#7f3b32"/>
        <path id="Tracé_45" data-name="Tracé 45" d="M110.99,50.182c.191-1.146,1.337-1.2,1.771-1.909.382-.625.764-1.25,1.267-2.083,1.215,1.423.382,2.5-.3,3.489A1.812,1.812,0,0,1,110.99,50.182Z" transform="translate(22.926 15.462)" fill="#7f3b32"/>
        <path id="Tracé_46" data-name="Tracé 46" d="M88.027,38.9a1.4,1.4,0,0,1,1.284,1.146c.312.989.781,1.927,1.18,2.9-.174.573-.278,1.545-1.146.729a4.933,4.933,0,0,1-1.3-4.773Z" transform="translate(5.948 10.098)" fill="#d88c5f"/>
        <path id="Tracé_47" data-name="Tracé 47" d="M110.78,38.74c1.423.521,2.621,1.406,4.652,1.337C112.88,41.743,111.874,41.378,110.78,38.74Z" transform="translate(22.771 9.981)" fill="#7d3a31"/>
        <path id="Tracé_48" data-name="Tracé 48" d="M108.34,39.975c.017-.521,0-1.041.069-1.562.052-.486-.122-1.163.555-1.284.729-.139,1.041.521,1.389,1.024-.208.555-.4,1.111-.625,1.666-.365.885-.868.538-1.389.156Z" transform="translate(20.976 8.781)" fill="#da9066"/>
        <path id="Tracé_49" data-name="Tracé 49" d="M106.659,48.434c-.868.451-1.736.885-2.6,1.337-.278-.3-.555-.59-.816-.885a9.489,9.489,0,0,1,4.166-2.4,3.533,3.533,0,0,1-.729,1.961Z" transform="translate(17.223 15.683)" fill="#8c4838"/>
        <path id="Tracé_50" data-name="Tracé 50" d="M114.48,44.033c.816-1.094,1.614-2.187,2.708-3.663a6.524,6.524,0,0,1-2.1,5.016,1.422,1.422,0,0,0-.59-1.354Z" transform="translate(25.494 11.18)" fill="#954c42"/>
        <path id="Tracé_51" data-name="Tracé 51" d="M93.95,14.36c1.6,1.111,1.753,2.1,2.135,3.628-1.666-1.007-1.406-2.152-2.135-3.628Z" transform="translate(10.388 -7.958)"/>
        <path id="Tracé_52" data-name="Tracé 52" d="M111.177,52.744a3.375,3.375,0,0,1-1.076.5c-.365.035-1.059-.1-1.094-.278-.122-.625.4-.833.937-.92.3.417,1.007.122,1.215.694Z" transform="translate(21.454 19.774)" fill="#bf8b84"/>
        <path id="Tracé_53" data-name="Tracé 53" d="M110.217,52.368c.243-.174.486-.451.746-.486.486-.087,1.215-.955,1.423-.035.139.555-.816.729-1.458.694-.33.312-.555.26-.729-.156Z" transform="translate(22.344 19.317)" fill="#bf8b84"/>
        <path id="Tracé_54" data-name="Tracé 54" d="M110.7,51.97l.729.156c-.226.226-.434.451-.66.677-.469-.122-1.024-.087-1.215-.694.382-.052.764-.1,1.146-.139Z" transform="translate(21.866 19.715)" fill="#e6cecb"/>
        <path id="Tracé_55" data-name="Tracé 55" d="M144.481,180.793a46.56,46.56,0,0,1-18.92-7.551c-1.77-1.163-3.211-2.847-5.329-3.506-3.558-2.239-6.822-4.93-10.5-6.96-1.649-2.708-4.53-3.958-6.891-5.815-6.041-4.773-12.012-9.582-17.08-15.414-.642-.729-1.215-1.51-1.823-2.274a2.952,2.952,0,0,0-.59-.642h-.017a6,6,0,0,1-1.3-1.423c-.764-3.263-.573-6.631-.66-9.911-.122-4.947.4-9.929.642-14.876a9.736,9.736,0,0,1,.712-3.142c.746,0,1.51-.069,2.257-.035Q116.9,110.806,148.8,112.4c.538.035,1.076.122,1.6.191-.243,4.878-.191,9.79-.8,14.615-.937,7.516-1.111,15.153-2.482,22.565-1.25,6.717-1.406,13.539-2.69,20.239a65.986,65.986,0,0,0-.59,8.106c-3.02-1.024-4.392-3.906-6.6-5.867-7.117-8.3-12.654-17.757-19.215-26.471-1.51-2.014-3.055-4.01-4.461-6.11q9.139,12.55,17.913,25.36a3.4,3.4,0,0,1,.972,2,1.215,1.215,0,0,1-.851,1.007c-1.562.1-2.517-.972-3.576-1.84-.555-.486-1.18-.92-1.753-1.406-.243-.191-.451-.4-.677-.608-10.953-9.825-21.541-20.014-31.609-30.758-1.84-1.961-3.767-4.079-6.839-4.461a190.538,190.538,0,0,0,30.411,30.585,5.12,5.12,0,0,1,.677.538c.208.174.417.382.608.573l.3.3c.208.191.4.382.608.555.122.087.226.174.33.243.243.139.486.3.746.451,3.819,2.656,7.29,5.728,11.04,8.471a127.367,127.367,0,0,0,12.116,8.037c.677.573.486,1.337.451,2.066Z" transform="translate(1.117 61.849)" fill="#fcf17d"/>
        <path id="Tracé_56" data-name="Tracé 56" d="M217.794,114.259a.554.554,0,0,1-.625.625Q137.263,110.9,57.339,106.9c-.278,0-.642-.139-.608-.5a.558.558,0,0,1,.642-.625q79.907,3.958,159.831,7.967c.278,0,.642.156.59.538Z" transform="translate(-16.999 59.3)" fill="#2f2b38"/>
        <path id="Tracé_57" data-name="Tracé 57" d="M65.29,111.19v-2.569c2.4-1.337,4.635.312,6.943.382.781.035.955.781.9,1.475a13.754,13.754,0,0,1-.434,4.027c-2.933-.069-4.773-2.638-7.412-3.315Z" transform="translate(-10.7 61.015)" fill="#282530"/>
        <path id="Tracé_58" data-name="Tracé 58" d="M150.183,115.29c-2.222.382-4.235,1.736-6.822,1.232a14.615,14.615,0,0,1,.139-4.582c2.326.365,4.825-.521,7.013.937C150.409,113.676,150.287,114.492,150.183,115.29Z" transform="translate(46.637 63.84)" fill="#2f2c37"/>
        <path id="Tracé_59" data-name="Tracé 59" d="M142.131,114.958c-2.5.139-4.721,1.51-7.221,1.614.069-1.51.139-3.038.208-4.548,1.771-.208,3.61.712,5.329-.365.608.035,1.232.052,1.84.087a3.092,3.092,0,0,1-.156,3.229Z" transform="translate(40.526 63.634)" fill="#292631"/>
        <path id="Tracé_60" data-name="Tracé 60" d="M57.852,109.3c0-.434-.035-.851-.052-1.284,1.736.069,3.454.191,5.19.174a2.3,2.3,0,0,1,2.482,1.614c-.035.729.191,1.51-.555,2.239-2.309-.92-4.878-1.3-7.065-2.76Z" transform="translate(-16.211 60.956)" fill="#2b2833"/>
        <path id="Tracé_61" data-name="Tracé 61" d="M95.209,99.77c1.58.087,3.159.156,4.739.243,1.128,1.094,1.128,2.1-.174,3.038-1.632-.312-3.419.33-4.93-.781-.642-.955-.694-1.805.382-2.5Z" transform="translate(10.708 54.886)" fill="#f2f0de"/>
        <path id="Tracé_62" data-name="Tracé 62" d="M84.838,99.26c1.146.035,2.309.087,3.454.122a2.2,2.2,0,0,1-.087,3.159l-3.558-.191c-1.163-1.111-1.146-2.135.191-3.09Z" transform="translate(2.923 54.51)" fill="#fff"/>
        <path id="Tracé_63" data-name="Tracé 63" d="M138.028,101.91c1.146.035,2.309.087,3.454.122a2,2,0,0,1-.087,3.159c-1.18-.087-2.361-.156-3.558-.243C136.692,103.854,136.674,102.847,138.028,101.91Z" transform="translate(42.059 56.46)" fill="#fffffe"/>
        <path id="Tracé_64" data-name="Tracé 64" d="M60.576,98.02l3.628.208a2.685,2.685,0,0,1-.069,3.142l-3.819-.156a3.073,3.073,0,0,1,.26-3.194Z" transform="translate(-14.595 53.598)" fill="#f5f4f5"/>
        <path id="Tracé_65" data-name="Tracé 65" d="M63.259,101.288c-.139-3.61.365-3.211,3.7-2.881.5,0,.555.191.191.521q-.417,2.621-3.888,2.343Z" transform="translate(-12.209 53.732)" fill="#fffefe"/>
        <path id="Tracé_66" data-name="Tracé 66" d="M105.364,100.29c.989.035,1.961.052,2.951.087a2.1,2.1,0,0,1,1.128.989c.156.868.33,1.753-.816,2.118l-3.472-.156c-1.024-1.076-1.024-2.1.191-3.038Z" transform="translate(18.085 55.268)" fill="#fcfcfc"/>
        <path id="Tracé_67" data-name="Tracé 67" d="M144.19,105.254l-3.367-.156c-1.094-1.094-1.128-2.118.208-3.038.955.017,1.909.052,2.847.069,1.371.9,1.961,1.892.312,3.124Z" transform="translate(44.281 56.571)" fill="#fefefe"/>
        <path id="Tracé_68" data-name="Tracé 68" d="M132.628,101.637l2.951.156a1.981,1.981,0,0,1-.139,3.09c-1.094-.122-2.309.365-3.176-.729a1.638,1.638,0,0,1,.382-2.534Z" transform="translate(38.26 56.247)" fill="#e1e0e2"/>
        <path id="Tracé_69" data-name="Tracé 69" d="M138.1,105.036l-3.02-.208a1.908,1.908,0,0,1,.174-3.038c.989.035,1.979.052,2.968.087A2.114,2.114,0,0,1,138.1,105.036Z" transform="translate(40.161 56.372)" fill="#edecee"/>
        <path id="Tracé_70" data-name="Tracé 70" d="M90.3,99.5c.955.069,1.909.122,2.864.191,1.215,1.059,1.076,2.083-.087,3.072l-2.986-.1A2.024,2.024,0,0,1,90.3,99.5Z" transform="translate(7.062 54.687)" fill="#fff"/>
        <path id="Tracé_71" data-name="Tracé 71" d="M114.729,100.75l2.1.052a2.343,2.343,0,0,1-.122,3.142c-.8-.174-1.77.139-2.361-.712-.625-.937-.8-1.823.382-2.482Z" transform="translate(25.036 55.607)" fill="#f9f9f9"/>
        <path id="Tracé_72" data-name="Tracé 72" d="M110.122,103.691l-2.43-.208a2.292,2.292,0,0,1,.191-3.072h2.4a2.376,2.376,0,0,1-.139,3.281Z" transform="translate(20.131 55.356)" fill="#bcbbc0"/>
        <path id="Tracé_73" data-name="Tracé 73" d="M117.767,100.807c.4.069.816.139,1.215.191h-.035c.9,1.111,1.007,2.135-.26,3.02-.746-.191-1.892.365-2.135-.816-.208-1.007-.33-2.2,1.215-2.413Z" transform="translate(26.928 55.636)" fill="#f8f9f9"/>
        <path id="Tracé_74" data-name="Tracé 74" d="M119.155,100.96c.746.035,1.475.087,2.222.121,1.128,1.076,1.094,2.1-.156,3.055-.712-.052-1.406-.1-2.118-.139C117.923,102.956,118.114,101.949,119.155,100.96Z" transform="translate(28.3 55.761)" fill="#f9f9f9"/>
        <path id="Tracé_75" data-name="Tracé 75" d="M121.373,101.05l2.222.156c1.146,1.076,1.111,2.1-.156,3.055l-2.2-.069a1.985,1.985,0,0,1,.139-3.124Z" transform="translate(29.952 55.827)" fill="#fbfbfa"/>
        <path id="Tracé_76" data-name="Tracé 76" d="M125.636,104.371c-.729,0-1.458-.035-2.2-.052a2.1,2.1,0,0,1,.156-3.159l2.239.156c1.128,1.094,1.163,2.118-.208,3.038Z" transform="translate(31.609 55.908)" fill="#fcfcfc"/>
        <path id="Tracé_77" data-name="Tracé 77" d="M92.893,99.63l2.361.1a2.11,2.11,0,0,1-.174,3.142c-.8-.035-1.6-.069-2.4-.087a2.131,2.131,0,0,1,.208-3.159Z" transform="translate(9.015 54.783)" fill="#efeee9"/>
        <path id="Tracé_78" data-name="Tracé 78" d="M81.943,102.218Q81.8,99.18,84.581,99.18h0a2.214,2.214,0,0,1-.156,3.159c-.816-.035-1.649-.087-2.465-.122Z" transform="translate(1.548 54.451)" fill="#f1f1f2"/>
        <path id="Tracé_79" data-name="Tracé 79" d="M128.08,101.38c.746.069,1.475.122,2.222.191,1.25,1.059,1.128,2.066-.1,3.055l-2.274-.052a2.109,2.109,0,0,1,.156-3.176Z" transform="translate(34.91 56.07)" fill="#fffefe"/>
        <path id="Tracé_80" data-name="Tracé 80" d="M132.564,104.781l-2.413-.122a2.117,2.117,0,0,1,.191-3.159l2.343.1a2.19,2.19,0,0,1-.139,3.176Z" transform="translate(36.571 56.158)" fill="#edeced"/>
        <path id="Tracé_81" data-name="Tracé 81" d="M145.332,102.25l2.361.1a2.712,2.712,0,0,1-.139,3.194c-.8-.035-1.614-.087-2.413-.122a2.076,2.076,0,0,1,.208-3.176Z" transform="translate(47.583 56.71)" fill="#efedee"/>
        <path id="Tracé_82" data-name="Tracé 82" d="M114.265,103.866c-1.961.243-2.465-.833-2.291-2.517a1.6,1.6,0,0,1,.746-.729c.555.035,1.128.069,1.684.122,1.007,1.094.8,2.135-.139,3.142Z" transform="translate(23.626 55.511)" fill="#fefefd"/>
        <path id="Tracé_83" data-name="Tracé 83" d="M103.926,103.335l-3.663-.191a1.928,1.928,0,0,1,.174-3.124l3.576.174a1.225,1.225,0,0,1,.382,1.666c-.486.764-1.094,0-1.649.122.451.208.9.417,1.337.625a.5.5,0,0,1-.174.746Z" transform="translate(14.507 55.07)" fill="#d8d7da"/>
        <path id="Tracé_84" data-name="Tracé 84" d="M74.47,101.877c0-.642,0-1.284.035-1.927.052-.955.642-1.25,1.527-1.2.92.035,1.753.174,1.7,1.371-.035.642-.122,1.267-.191,1.909l-3.055-.156Z" transform="translate(-3.945 54.133)"/>
        <path id="Tracé_85" data-name="Tracé 85" d="M87.277,100.576c.59-1.944,2.1-.955,3.281-1.041a2.07,2.07,0,0,1-.122,3.142l-3-.156A1.333,1.333,0,0,1,87.277,100.576Z" transform="translate(5.223 54.583)" fill="#cdccd0"/>
        <path id="Tracé_86" data-name="Tracé 86" d="M128.937,101.409a4.652,4.652,0,0,0-.156,3.176l-2.187-.156a2.481,2.481,0,0,1,.122-3.09l2.239.052Z" transform="translate(34.053 56.041)" fill="#625f6b"/>
        <path id="Tracé_87" data-name="Tracé 87" d="M127.485,101.409a6.214,6.214,0,0,1-.122,3.09l-1.684-.052a2.148,2.148,0,0,1,.139-3.176C126.374,101.322,126.929,101.357,127.485,101.409Z" transform="translate(33.266 55.989)" fill="#fffefe"/>
        <path id="Tracé_88" data-name="Tracé 88" d="M79.748,102.084c.208-1.18-.868-3.281,1.527-3,2,.226.746,2.014.851,3.142-.8-.052-1.58-.087-2.378-.139Z" transform="translate(-0.11 54.36)" fill="#d1d0d4"/>
        <path id="Tracé_89" data-name="Tracé 89" d="M143.412,102.17c.555.017,1.111.035,1.649.069a2.1,2.1,0,0,1-.122,3.159c-.59-.035-1.163-.052-1.753-.087a2.584,2.584,0,0,1,.226-3.124Z" transform="translate(46.309 56.651)" fill="#bdbbc1"/>
        <path id="Tracé_90" data-name="Tracé 90" d="M110.115,100.49l2.43.087a.546.546,0,0,1,.243.451c0,.174-.035.278-.069.26a1.025,1.025,0,0,0-.087,1.805.6.6,0,0,1-.191.712l-2.5-.156a2.117,2.117,0,0,1,.191-3.159Z" transform="translate(21.7 55.415)" fill="#d6d5d8"/>
        <path id="Tracé_91" data-name="Tracé 91" d="M144.02,105.359a8.787,8.787,0,0,0,.122-3.159c.5.017,1.024.052,1.545.069a4.875,4.875,0,0,0-.208,3.176c-.486-.035-.972-.052-1.458-.087Z" transform="translate(47.229 56.674)" fill="#625f6b"/>
        <path id="Tracé_92" data-name="Tracé 92" d="M110.442,100.542a7.209,7.209,0,0,0-.191,3.159c-.451,0-.92,0-1.371-.017a8.27,8.27,0,0,0,.139-3.263C109.488,100.455,109.956,100.507,110.442,100.542Z" transform="translate(21.373 55.364)" fill="#625f6b"/>
        <path id="Tracé_93" data-name="Tracé 93" d="M99.817,103.159c-.365-.017-.746-.052-1.111-.069a2.129,2.129,0,0,1,.156-3.159l1.094.052a2.175,2.175,0,0,1-.139,3.176Z" transform="translate(13.426 55.003)" fill="#edecea"/>
        <path id="Tracé_94" data-name="Tracé 94" d="M119.57,100.989a6.9,6.9,0,0,0-.052,3.038c-.59-.035-1.2-.052-1.788-.087a8.061,8.061,0,0,0,.26-3.02l1.58.052Z" transform="translate(27.885 55.732)"/>
        <path id="Tracé_95" data-name="Tracé 95" d="M121.8,101.079a7.051,7.051,0,0,0-.139,3.124l-1.7-.122a7.952,7.952,0,0,0,.156-3.072c.555,0,1.111.035,1.666.052Z" transform="translate(29.526 55.798)" fill="#625f6b"/>
        <path id="Tracé_96" data-name="Tracé 96" d="M99.3,99.927a5.312,5.312,0,0,0-.156,3.159l-1.666-.139a6.918,6.918,0,0,0,.174-3.038c.555,0,1.094.017,1.649.035Z" transform="translate(12.985 54.989)" fill="#625f6b"/>
        <path id="Tracé_97" data-name="Tracé 97" d="M83.36,102.356a6.569,6.569,0,0,0,.156-3.176c.555.052,1.094.1,1.649.139a7.438,7.438,0,0,0-.191,3.09l-1.614-.052Z" transform="translate(2.596 54.451)" fill="#625f6b"/>
        <path id="Tracé_98" data-name="Tracé 98" d="M99.08,103.136a5.36,5.36,0,0,0,.139-3.176l1.562.1a7.889,7.889,0,0,0-.174,3.124c-.5,0-1.007-.035-1.51-.052Z" transform="translate(14.163 55.025)" fill="#625f6b"/>
        <path id="Tracé_99" data-name="Tracé 99" d="M105.932,100.334a6.429,6.429,0,0,0-.191,3.038l-1.6-.069a2.349,2.349,0,0,1,.139-3.072Z" transform="translate(17.517 55.224)" fill="#75727e"/>
        <path id="Tracé_100" data-name="Tracé 100" d="M124.025,101.175a5.919,5.919,0,0,0-.156,3.159c-.555-.052-1.111-.087-1.649-.139a7.559,7.559,0,0,0,.156-3.055c.555,0,1.111.017,1.666.035Z" transform="translate(31.189 55.894)" fill="#625f6b"/>
        <path id="Tracé_101" data-name="Tracé 101" d="M126.28,101.277a4.978,4.978,0,0,0-.139,3.176l-1.7-.156c.069-1.007.139-2.031.208-3.038.538,0,1.094,0,1.632.017Z" transform="translate(32.822 55.982)" fill="#625f6b"/>
        <path id="Tracé_102" data-name="Tracé 102" d="M141.37,102.119a6.433,6.433,0,0,0-.208,3.038H139.53a4.042,4.042,0,0,0,.087-3.176Z" transform="translate(43.925 56.512)" fill="#625f6b"/>
        <path id="Tracé_103" data-name="Tracé 103" d="M102.206,102c0-.625.017-1.25.035-1.892l1.527.052a3.655,3.655,0,0,1,.417.764,2.228,2.228,0,0,1-.642,2.43l-1.423-.1a1.016,1.016,0,0,0,0-.642.373.373,0,0,1-.1-.434c.069-.122.122-.191.191-.191Z" transform="translate(16.296 55.136)" fill="#625f6b"/>
        <path id="Tracé_104" data-name="Tracé 104" d="M88.967,102.6a8.335,8.335,0,0,0,.121-3.142c.521.017,1.041.052,1.562.069a5.049,5.049,0,0,0-.208,3.159c-.5-.035-.989-.052-1.493-.087Z" transform="translate(6.709 54.657)" fill="#625f6b"/>
        <path id="Tracé_105" data-name="Tracé 105" d="M136.54,105a5.754,5.754,0,0,0,.122-3.159c.573.052,1.146.1,1.718.139a7.176,7.176,0,0,0-.191,3.038H136.54Z" transform="translate(41.725 56.409)" fill="#625f6b"/>
        <path id="Tracé_106" data-name="Tracé 106" d="M93.3,99.645a5.773,5.773,0,0,0-.208,3.159c-.521-.035-1.041-.087-1.562-.122a7.065,7.065,0,0,0,.087-3.072Z" transform="translate(8.607 54.768)" fill="#625f6b"/>
        <path id="Tracé_107" data-name="Tracé 107" d="M130.783,101.515a5.592,5.592,0,0,0-.191,3.159c-.538-.052-1.094-.087-1.632-.139a7.253,7.253,0,0,0,.1-3.055l1.718.035Z" transform="translate(36.148 56.144)" fill="#625f6b"/>
        <path id="Tracé_108" data-name="Tracé 108" d="M135.628,101.824a6.655,6.655,0,0,0-.174,3.038l-1.545-.052a5.672,5.672,0,0,0,.139-3.09c.521.035,1.041.069,1.58.122Z" transform="translate(39.79 56.32)" fill="#827e8a"/>
        <path id="Tracé_109" data-name="Tracé 109" d="M93.81,102.842a4.878,4.878,0,0,0,.174-3.142c.555.052,1.094.087,1.649.139-.122.833-.243,1.666-.382,2.5l-1.441.521Z" transform="translate(10.285 54.834)" fill="#625f6b"/>
        <path id="Tracé_110" data-name="Tracé 110" d="M131.287,104.736a5.812,5.812,0,0,0,.139-3.176l1.6.1c-.122.851-.243,1.684-.382,2.534-.451.174-.92.365-1.371.538Z" transform="translate(37.847 56.203)" fill="#625f6b"/>
        <path id="Tracé_111" data-name="Tracé 111" d="M113.28,103.822a5.392,5.392,0,0,0,.139-3.142l1.736.122c-.122.833-.26,1.649-.382,2.482C114.269,103.457,113.783,103.631,113.28,103.822Z" transform="translate(24.611 55.555)" fill="#625f6b"/>
        <path id="Tracé_112" data-name="Tracé 112" d="M102.887,103.351c.017-.226.035-.434.052-.66a1.225,1.225,0,0,0,.156-1.892v-.66l1.718.156a8.336,8.336,0,0,1-.139,3.072H102.87Z" transform="translate(16.951 55.158)" fill="#d0cfd2"/>
        <path id="Tracé_113" data-name="Tracé 113" d="M87.719,100.6c.052.642.1,1.3.156,1.944l-1.545-.052a5.169,5.169,0,0,0,.087-3.159c.746.122.781.937,1.3,1.284Z" transform="translate(4.781 54.562)" fill="#625f6b"/>
        <path id="Tracé_114" data-name="Tracé 114" d="M143.81,102.222a7.6,7.6,0,0,0-.226,3.124c-.347-.035-.694-.087-1.041-.122.26-1.076.521-2.152-.312-3.124l1.58.1Z" transform="translate(45.912 56.6)" fill="#625f6b"/>
        <path id="Tracé_115" data-name="Tracé 115" d="M65.575,98.851a.543.543,0,0,1-.191-.521h1.58a3.634,3.634,0,0,1,.434.764,3.11,3.11,0,0,1-.087,1.736,2.909,2.909,0,0,1-.521.694h-.677c-.1-.9.382-1.909-.521-2.638Z" transform="translate(-10.637 53.826)" fill="#817e89"/>
        <path id="Tracé_116" data-name="Tracé 116" d="M115.5,103.922a5.858,5.858,0,0,0,.122-3.142C116.906,101.874,116.819,102.915,115.5,103.922Z" transform="translate(26.244 55.629)" fill="#625f6b"/>
        <path id="Tracé_117" data-name="Tracé 117" d="M62.38,101.282a9.092,9.092,0,0,0,.069-3.142c1.354.851.5,2.135.642,3.211Z" transform="translate(-12.841 53.686)" fill="#817e89"/>
        <path id="Tracé_118" data-name="Tracé 118" d="M60.742,98.02a6.433,6.433,0,0,0-.26,3.194H59.77c.278-1.076-.469-2.465.989-3.194Z" transform="translate(-14.761 53.598)" fill="#817e89"/>
        <path id="Tracé_119" data-name="Tracé 119" d="M108.124,100.476a9.125,9.125,0,0,0-.191,3.072c-.365-.035-.729-.052-1.094-.087.1-.8.226-1.58.33-2.378a.526.526,0,0,1,.139-.764c.278.052.555.1.816.156Z" transform="translate(19.872 55.29)" fill="#625f6b"/>
        <path id="Tracé_120" data-name="Tracé 120" d="M146.26,105.494a4.915,4.915,0,0,0,.139-3.194C147.544,103.411,147.458,104.47,146.26,105.494Z" transform="translate(48.877 56.747)" fill="#625f6b"/>
        <path id="Tracé_121" data-name="Tracé 121" d="M111.33,101.2c0-.226,0-.434.017-.66a2.06,2.06,0,0,1-.122,3.229l.035-.66a1.456,1.456,0,0,1,.069-1.927Z" transform="translate(22.881 55.452)" fill="#625f6b"/>
        <path id="Tracé_122" data-name="Tracé 122" d="M59.02,100.1c.208-.243.434-.486.642-.729.035.278.069.538.1.816C59.523,100.151,59.263,100.134,59.02,100.1Z" transform="translate(-15.313 54.591)" fill="#817e89"/>
        <path id="Tracé_123" data-name="Tracé 123" d="M112.706,100.61c-.243.243-.5.486-.746.729A.865.865,0,0,1,112.706,100.61Z" transform="translate(23.639 55.504)" fill="#625f6b"/>
        <path id="Tracé_124" data-name="Tracé 124" d="M107.441,100.32c-.035.26-.087.5-.122.764-.226-.243-.434-.486-.66-.729C106.92,100.355,107.181,100.337,107.441,100.32Z" transform="translate(19.74 55.29)" fill="#75727e"/>
        <path id="Tracé_125" data-name="Tracé 125" d="M90.588,89.08l.191.642c-2.413,2.881-5.346,4.513-9.234,4.166-1.788-.156-2.933,1.788-4.756,1.7-.069-.208-.139-.434-.208-.642,2.309-1.337,4.548-2.708,7.429-2.4,1.458.156,2.6-.764,3.68-1.684C88.557,90.122,89.234,89.046,90.588,89.08Z" transform="translate(-2.393 47.02)" fill="#a86a47"/>
        <path id="Tracé_126" data-name="Tracé 126" d="M93.754,57.16c.694,2.118-.746,3.853-1.094,5.78-.521,2.951-1.684,5.78-1.684,8.852a2.036,2.036,0,0,1-1.337,2.031A48.087,48.087,0,0,1,93.754,57.16Z" transform="translate(7.217 23.534)" fill="#f7db70"/>
        <path id="Tracé_127" data-name="Tracé 127" d="M89.231,84.849l-.1.642a5.873,5.873,0,0,1-2.2-.382c-3.072-2.1-5.5-.66-7.9,1.232-.486.4-.851,1.007-1.614.972.729-2.482,2.743-3.94,5.641-4.079A11.073,11.073,0,0,1,89.231,84.849Z" transform="translate(-1.782 42.711)" fill="#ae6d49"/>
        <path id="Tracé_128" data-name="Tracé 128" d="M85.84,116.43c2.361-4.773,6.093-8.592,9.043-12.949A31.1,31.1,0,0,0,99.015,94.4c1.007-3.576-.1-6.822-1.961-9.877C95.838,82.5,94.276,80.673,93.46,78.4a1.081,1.081,0,0,0,.434-1.337,6.645,6.645,0,0,1-.087-3.35c2.326,1.024,4.635,2.43,7.082.243a.919.919,0,0,1,.937-.122c3.038,1.892,6.6-.26,9.738,1.337,1.614.816,3.367.122,4.843-.972,1.111-.816,2.291-1.371,3.454-.069,2.309,2.586,5.259,2.482,8.071,1.51,2.2-.764,4.235-1.475,6.561-.781a2.086,2.086,0,0,0,1.875-.312c1.632-1.25,3.263-.746,4.912-.087a1.419,1.419,0,0,1,.608,1.718c-.365,2.135-.712,4.27-1.076,6.405-2.083,3.09-2.586,6.735-3.4,10.224a25.61,25.61,0,0,0,.469,13.678c.3.937-.121,1.927.4,2.812.4,1.146.781,2.274,1.18,3.419.8,2.17,1.58,4.357,2.378,6.527-6.579-.278-13.157-.538-19.736-.851-11-.521-22.027-1.094-33.032-1.649-1.076-.052-2.152-.174-3.229-.278Z" transform="translate(4.421 35.448)" fill="#fcf17d"/>
        <path id="Tracé_129" data-name="Tracé 129" d="M138.45,80.418c-.208-.486-.417-.955-.625-1.441a2.906,2.906,0,0,0-4.3-.764c-.8.66-1.718,1.58-2.517.989-2.482-1.857-4.444-.122-6.613.573-2.933.937-5.78,1.094-7.95-1.684-.92-1.18-1.718-1.337-2.916-.226-2.222,2.083-4.721,2.517-7.377.712-.365-.243-.8-.642-1.163-.382a4.592,4.592,0,0,1-6.2-.243c-.5-.4-.989,0-1.475.26-3.749,2.014-4.635,1.736-6.822-2.048a66.914,66.914,0,0,0,1.094-8.523.829.829,0,0,1,.885.122c1.753,2.847,4.149,4.01,7.429,2.795a2.535,2.535,0,0,1,2.708.573c.486.417,1.041,1.18,1.545,1.128,4.808-.573,9.79,2.309,14.355-.243,2.447-1.371,4.131.417,6.2.365,2.17-.052,3.038-3.472,5.745-1.944,1.232.694,2.534.069,3.68-.642.989-.642,1.909-1.458,3.229-1.354,2.361,2.517,1.215,5.693,1.58,8.575a3.2,3.2,0,0,0,.122,1.458c.069.729.156,1.493-.608,1.961Z" transform="translate(7.842 31.19)" fill="#fcf17d"/>
        <path id="Tracé_130" data-name="Tracé 130" d="M121.975,86.6a25.853,25.853,0,0,0-1.475-9.182,1.961,1.961,0,0,1-.555-.746c-.174-3.263-1.875-6.162-2.257-9.391.035-.156.052-.312.087-.451-.5-2.933-2.17-5.381-3.437-8-.521-1.076-1.267-2.014-1.267-3.281a2.4,2.4,0,0,1,2.569,1.545,4.187,4.187,0,0,0,1.163,1.927c1.875,1.3,2,3.576,3.02,5.346h0c.521,1.059.347,2.361,1.146,3.315h0c.538.555-.035,1.441.573,1.979h0c.538.555-.035,1.423.555,1.979h0c.486,2.378.434,4.843.937,7.221-.156,2.621-.3,5.242-.451,7.846a.4.4,0,0,1-.573-.122Z" transform="translate(24.456 22.348)" fill="#efb64f"/>
        <path id="Tracé_131" data-name="Tracé 131" d="M118.87,89.459a1.773,1.773,0,0,1,.712-1.319c1.892.069,3.61.33,4.2,2.621.3,1.128,1.354,1.527,2.43,1.857a18.188,18.188,0,0,1,6.127,3.4c-.017.417-.035.833-.087,1.805a14.416,14.416,0,0,0-5.78-4.062c-.5-.174-.989-.59-1.475-.59a2.653,2.653,0,0,1-2.812-2.118c-.521-1.7-1.788-1.927-3.3-1.562Z" transform="translate(28.724 46.328)" fill="#ac6c48"/>
        <path id="Tracé_132" data-name="Tracé 132" d="M119.75,89.343c1.753-3.992,6.214-3.836,9.79-.156C126.155,88.162,123.187,86.513,119.75,89.343Z" transform="translate(29.371 45.039)" fill="#a76845"/>
        <path id="Tracé_133" data-name="Tracé 133" d="M118.24,63.178c-1.58-1.458-2.014-3.576-3.02-5.346.243-.208.486-.434.712-.642a11.275,11.275,0,0,1,2.291,6.006Z" transform="translate(26.038 23.556)" fill="#f2cb6a"/>
        <path id="Tracé_134" data-name="Tracé 134" d="M119.233,72.068c-1.267-2.291-1.094-4.756-.937-7.238C119.563,67.121,119.424,69.586,119.233,72.068Z" transform="translate(28.222 29.177)" fill="#f1c663"/>
        <path id="Tracé_135" data-name="Tracé 135" d="M118.134,63.963c-1.493-.729-1.215-2.066-1.146-3.333A3.744,3.744,0,0,1,118.134,63.963Z" transform="translate(27.29 26.087)" fill="#f2cb6a"/>
        <path id="Tracé_136" data-name="Tracé 136" d="M118.5,65.686c-.746-.521-.59-1.267-.555-2C118.71,64.193,118.5,64.974,118.5,65.686Z" transform="translate(28.016 28.338)" fill="#f2cb6a"/>
        <path id="Tracé_137" data-name="Tracé 137" d="M118.192,64.536c-.764-.5-.573-1.284-.573-2C118.348,63.061,118.192,63.824,118.192,64.536Z" transform="translate(27.788 27.492)" fill="#f2cb6a"/>
        <path id="Tracé_138" data-name="Tracé 138" d="M118.2,73.44c.191.052.382.087.573.122a1.519,1.519,0,0,1-.122.555C118.5,73.891,118.356,73.666,118.2,73.44Z" transform="translate(28.231 35.512)" fill="#fcf17d"/>
        <path id="Tracé_139" data-name="Tracé 139" d="M77.94,101.275c.365-.469,1.059-.642.885-1.527-.33-1.857.26-3.749-.642-6.127,1.961,1.684,1.892,3.3,1.823,4.912-.087,1.753.66,2.638,2.482,2.465.92-.573-.382-2.4,1.389-2.5-.486,2.014.764,2.743,2.4,3.194a47.5,47.5,0,0,1-8.314-.382Z" transform="translate(-1.392 50.361)" fill="#976046"/>
        <path id="Tracé_140" data-name="Tracé 140" d="M59.613,97.854a2,2,0,0,1,.035-.555c4.964-.226,9.911.486,14.876.521a24.07,24.07,0,0,1,5.8.347c-.885.972-2.014.538-3.038.5-5.884-.243-11.786-.538-17.67-.816Z" transform="translate(-14.882 53.035)" fill="#817e89"/>
        <path id="Tracé_141" data-name="Tracé 141" d="M73,101.7c-.642,0-1.284.035-1.927.035-1.18.017-2.135-.139-1.979-1.718.1-1.007.434-1.632,1.562-1.51,1.076.122,2.552-.347,2.447,1.6-.035.538-.069,1.059-.122,1.6H73Z" transform="translate(-7.911 53.945)" fill="#eceaec"/>
        <path id="Tracé_142" data-name="Tracé 142" d="M78.556,102.04c-1.25.087-1.632-.555-1.562-1.77.087-1.423,1.007-1.354,2.031-1.337,1.25.017,1.7.573,1.614,1.805-.1,1.423-1.024,1.406-2.083,1.3Z" transform="translate(-2.094 54.265)" fill="#f3f2f3"/>
        <path id="Tracé_143" data-name="Tracé 143" d="M75.056,100.364c0,1.059-.469,1.51-1.58,1.458-1.163-.052-1.406-.677-1.354-1.684.052-1.041.469-1.545,1.58-1.475,1.146.069,1.475.677,1.354,1.684Z" transform="translate(-5.677 54.066)" fill="#f3f2f3"/>
        <path id="Tracé_144" data-name="Tracé 144" d="M66.364,98.952V98.31c.625.017,1.267.052,1.892.069,1.146.035,1.337.764,1.284,1.718s-.33,1.649-1.475,1.562L66.19,101.5l.069-.66c.972-.573,1.059-1.2.1-1.892Z" transform="translate(-10.037 53.811)" fill="#dddbde"/>
        <path id="Tracé_145" data-name="Tracé 145" d="M83.1,98.689c.052-.312.087-.608.139-.92a.429.429,0,0,1,.694-.139,1.454,1.454,0,0,1,.677,1.128A2.374,2.374,0,0,1,83.1,98.689Z" transform="translate(2.405 53.224)" fill="#dec2b3"/>
        <path id="Tracé_146" data-name="Tracé 146" d="M121.16,103.723l-1.25-.1A24.91,24.91,0,0,1,123,92.77c.9,1.215.469,2.031.156,2.916a32.2,32.2,0,0,0-2,8.054Z" transform="translate(29.489 49.735)" fill="#a86946"/>
        <path id="Tracé_147" data-name="Tracé 147" d="M123.459,103.154H122.14a38.615,38.615,0,0,1,2.795-8.852c.052-.139.347-.174.972-.451-.365,3.4-1.84,6.266-2.465,9.3Z" transform="translate(31.13 50.53)" fill="#a66845"/>
        <path id="Tracé_148" data-name="Tracé 148" d="M118.3,101.483l-.174-1.2a15.656,15.656,0,0,1,2.812-9.165c.069,3.68-1.441,7-2.638,10.363Z" transform="translate(28.17 48.521)" fill="#a66744"/>
        <path id="Tracé_149" data-name="Tracé 149" d="M116.193,94.068a.956.956,0,0,1,.347-1.128A.956.956,0,0,1,116.193,94.068Z" transform="translate(26.714 49.86)" fill="#fcf17d"/>
        <path id="Tracé_150" data-name="Tracé 150" d="M84.076,101.825c-.226.035-.451.087-.677.122-1.041-3.281-.087-6.561-.226-10.137C85.013,93.7,85.326,98.6,84.076,101.825Z" transform="translate(2.262 49.029)" fill="#a56745"/>
        <path id="Tracé_151" data-name="Tracé 151" d="M82.05,98.841c-1.059.5-.33,2.014-1.389,2.5.035-.955.087-1.927.1-2.881,0-.851,0-1.718-.052-2.552-.069-.885-.8-1.805.347-2.777,1.441,1.77,1.128,3.767,1.007,5.711Z" transform="translate(0.434 50)" fill="#a36543"/>
        <path id="Tracé_152" data-name="Tracé 152" d="M144.271,78a.727.727,0,0,0,.746.538,6.388,6.388,0,0,0,2.482,1.493c.052.174.122.365.191.538-.573.087-1.163.1-1.527.677-.555.312-1.041-.1-1.562-.174a4.153,4.153,0,0,1-.746-.347A12.763,12.763,0,0,0,142,79.877c-.139-.035-.26-.069-.4-.1-.608-.434-1.2-.885-1.805-1.319.26-.59-.347-.469-.555-.677a11.352,11.352,0,0,0-.9-.694,3.462,3.462,0,0,1-1.059-1.128.9.9,0,0,1,0-.764l.156-1.406A3.175,3.175,0,0,1,138,73.75a.727.727,0,0,0,.712.59c.208.573.712.66,1.215.764a.693.693,0,0,0,.677.625,1.405,1.405,0,0,0,1.232.746.888.888,0,0,0,.677.625,2.936,2.936,0,0,0,1.788.885Z" transform="translate(42.204 35.74)" fill="#3e3a45"/>
        <path id="Tracé_153" data-name="Tracé 153" d="M140.108,79.118c-.3-.4-.573-.8-.868-1.2.278-.208.555-.434.833-.642l.139-.1c1.076-.208,1.7.642,2.517,1.076a2.228,2.228,0,0,1,.746.33.537.537,0,0,1-.1.712A1.428,1.428,0,0,0,142,79.9c-.625-.26-1.25-.521-1.892-.781Z" transform="translate(43.712 38.236)" fill="#383540"/>
        <path id="Tracé_154" data-name="Tracé 154" d="M137.72,74.589a.728.728,0,0,0,.035.469.464.464,0,0,1,.156.521c-.069.174-.139.243-.191.243-.469.087-.937.139-1.18-.434A.947.947,0,0,1,137.72,74.589Z" transform="translate(41.725 36.342)" fill="#e7e4e6"/>
        <path id="Tracé_155" data-name="Tracé 155" d="M138.389,75.99c.3.208,1.545-.312.625.816a.549.549,0,0,0-.417-.26c-.121-.069-.226-.122-.347-.191l.156-.365Z" transform="translate(42.983 37.389)" fill="#9e9ba1"/>
        <path id="Tracé_156" data-name="Tracé 156" d="M138.5,75.654c.312.139.573.312.451.729l.052-.052a.476.476,0,0,1-.677.1,1.267,1.267,0,0,0-.608-.156.487.487,0,0,1-.226-.486c.052-.174.1-.278.156-.26a.767.767,0,0,1,.851.122Z" transform="translate(42.42 36.995)" fill="#9b999f"/>
        <path id="Tracé_157" data-name="Tracé 157" d="M136.557,75.047c.382.139.781.3,1.163.434l.26.3-.33.226c-.538-.139-1.007-.347-1.111-.972Z" transform="translate(41.725 36.682)" fill="#383540"/>
        <path id="Tracé_158" data-name="Tracé 158" d="M137.711,75.79c.069.156.139.33.226.486-.243-.191-.5-.382-.746-.573l.069-.087c.278-.26.417-.191.451.174Z" transform="translate(42.203 36.999)" fill="#383540"/>
        <path id="Tracé_159" data-name="Tracé 159" d="M137.144,76.57c-.434,0-.642-.278-.764-.66A.936.936,0,0,1,137.144,76.57Z" transform="translate(41.607 37.33)" fill="#383540"/>
        <path id="Tracé_160" data-name="Tracé 160" d="M137.97,76.074l.677-.1c.052.191.1.4.139.59A.908.908,0,0,1,137.97,76.074Z" transform="translate(42.777 37.374)" fill="#3e3a45"/>
        <path id="Tracé_161" data-name="Tracé 161" d="M138.623,77.41a.838.838,0,0,1-.833-.66A.93.93,0,0,1,138.623,77.41Z" transform="translate(42.645 37.948)" fill="#383540"/>
        <path id="Tracé_162" data-name="Tracé 162" d="M141.737,78.9a.931.931,0,0,1-.035-.486c-.191-.174-.26-.33-.191-.486s.139-.243.208-.243c.573-.052.868.417,1.3.66-.226.642-.781.538-1.284.555Z" transform="translate(45.363 38.63)" fill="#a5a2a7"/>
        <path id="Tracé_163" data-name="Tracé 163" d="M141.675,81.387c.278.052.555.1.851.156-.243.555-.625,1.215-1.215.885-.538-.3-.156-.833.365-1.059Z" transform="translate(45.043 41.347)" fill="#b5b1b7"/>
        <path id="Tracé_164" data-name="Tracé 164" d="M81.772,125.347a1.932,1.932,0,0,1,1.3,1.423c-.8.451-.608,1.284-.781,1.979-.764-1.041-.555-2.239-.521-3.419Z" transform="translate(1.389 73.692)" fill="#eaaf6f"/>
        <path id="Tracé_165" data-name="Tracé 165" d="M88.907,187.66a1.213,1.213,0,0,1,.365,1.406A1.3,1.3,0,0,1,88.907,187.66Z" transform="translate(6.63 119.554)" fill="#ffb3a5"/>
        <path id="Tracé_166" data-name="Tracé 166" d="M112.717,144.255c1.041.712,2.083,1.441,3.124,2.152.538.33,1.215.382,1.718.816a4.08,4.08,0,0,1,.573.521,8.662,8.662,0,0,0,1.423,1.337,6.314,6.314,0,0,0,2.656,1.493q3.046,3.1,6.075,6.2a3.655,3.655,0,0,1,.156.625c-1.111.677-1.805-.312-2.569-.729-6.839-3.749-12.758-8.818-18.868-13.574-.851-.66-1.736-1.284-2.6-1.909a6.8,6.8,0,0,1-.59-.642h0a7.715,7.715,0,0,0-.642-.66h0a2.9,2.9,0,0,0-.625-.677h0c-.156-.59.208-.833.694-.972a3.126,3.126,0,0,1,2.135.816,13.352,13.352,0,0,0,5.52,3.784h0c.243.972,1.215.972,1.857,1.441Z" transform="translate(16.685 83.182)" fill="#eeb64f"/>
        <path id="Tracé_167" data-name="Tracé 167" d="M89.86,148.55c2.482,1.909.868,4.617,2.552,6.231Q90.12,154.1,89.86,148.55Z" transform="translate(7.379 90.777)" fill="#a06342"/>
        <path id="Tracé_168" data-name="Tracé 168" d="M97.735,140.46a1.609,1.609,0,0,1,.191,1.771A1.714,1.714,0,0,1,97.735,140.46Z" transform="translate(13.06 84.825)" fill="#fcf17d"/>
        <path id="Tracé_169" data-name="Tracé 169" d="M82.51,126.16c.191.208.382.434.59.642C82.909,126.594,82.718,126.368,82.51,126.16Z" transform="translate(1.971 74.303)" fill="#eaaf6f"/>
        <path id="Tracé_170" data-name="Tracé 170" d="M112.082,155.9c-.833-1.475-.4-2.638-.278-3.767.052-.5.347-1.076,1.059-.937a.99.99,0,0,1,.729.972,3.835,3.835,0,0,1-1.51,3.732Z" transform="translate(23.362 92.711)" fill="#a56643"/>
        <path id="Tracé_171" data-name="Tracé 171" d="M139.07,114.929l.156-3.229c.278.312.538.625.816.955a3.176,3.176,0,0,1-.191,2.326Z" transform="translate(43.587 63.663)" fill="#5a5665"/>
        <path id="Tracé_172" data-name="Tracé 172" d="M119.756,205.207c-.1.122-.208.312-.33.312a2.68,2.68,0,0,1-.92-.1c-.3-.122-.26-.347.052-.417a1.186,1.186,0,0,1,1.18.208Z" transform="translate(28.307 132.262)" fill="#7d6766"/>
        <path id="Tracé_173" data-name="Tracé 173" d="M98.1,44.433a2.72,2.72,0,0,1-3.02,2.239c-1.284-.26-2.795-1.875-2.708-2.9.1-1.18,2.135-2.777,3.3-2.586a2.825,2.825,0,0,1,2.447,3.246Z" transform="translate(9.224 11.769)" fill="#fd7f51"/>
        <path id="Tracé_174" data-name="Tracé 174" d="M106.18,43.431a2.591,2.591,0,1,1,.608-5.138c1.6.087,2.291.92,2.118,2.552A2.7,2.7,0,0,1,106.18,43.431Z" transform="translate(17.599 9.647)" fill="#fd7f51"/>
        <path id="Tracé_175" data-name="Tracé 175" d="M97.98,45.528a2.5,2.5,0,0,1,2.413-.365,5.18,5.18,0,0,0,5.19-1.823c.434-.486,1.024-1.51,1.77-.677.712.781-.382,1.3-.816,1.805-2.708,3.211-5.381,3.558-8.557,1.059Z" transform="translate(13.353 12.635)" fill="#8a4637"/>
        <path id="Tracé_176" data-name="Tracé 176" d="M98.18,35.88a9.973,9.973,0,0,1,3.159,7.047c.226,2.743.3,2.951,1.736,4.392-1.406.555-2.152-.26-2.378-1.406-.677-3.367-1.718-6.613-2.5-10.033Z" transform="translate(13.5 7.876)" fill="#8e4a39"/>
        <path id="Tracé_177" data-name="Tracé 177" d="M93.16,39.925c1.753-.486,3.3.035,4.357-1.163a.533.533,0,0,1,.8.26,1.48,1.48,0,0,1,.069.9,2.621,2.621,0,0,1-1.857,1.632c-1.284.347-2.222-.26-3.35-1.649Z" transform="translate(9.807 9.924)" fill="#904b3a"/>
        <path id="Tracé_178" data-name="Tracé 178" d="M103.18,37.537c.694-1.128,1.718-.347,2.413-.816.451-.312,1.041-.451,1.3.191a1.229,1.229,0,0,1-.642,1.6c-1.441.816-2.257-.035-3.072-.972Z" transform="translate(17.179 8.302)" fill="#8a4636"/>
        <path id="Tracé_179" data-name="Tracé 179" d="M91.321,43.546c-.156-.278-.3-.538-.451-.816C91.026,43.008,91.165,43.268,91.321,43.546Z" transform="translate(8.122 12.916)" fill="#a2574d"/>
        <path id="Tracé_180" data-name="Tracé 180" d="M92,66.084c.035-.4.069-.816.1-1.215a1.794,1.794,0,0,1,1.441.59c1.475,1.649,3.142,2.274,5.1.8.781-.59,1.354-.156,2.031.26,3.61,2.187,4.079,2.118,7.36-.608.816-.017.937.816,1.441,1.163,1.562,1.111,3.506.92,5.294-.486.816-.642,1.371-1.545,2.76-.712,2.621,1.562,3.628,1.389,5.468-.972.9-1.146,1.527-1.684,2.829-.764a4.589,4.589,0,0,0,3.142.5c1.215-.087,1.406-1.163,1.84-2.031.625-1.267,1.58-.764,2.482-.365l.035.035c-1.041,3.61-2.6,4.808-6.214,4.756-.642,0-1.458-.347-1.909.017-3.333,2.777-7.551,2.517-11.352,2.847-4.565.4-9.339,1.961-13.9-.312-1.215-.608-2.552-.4-3.836-.5-1.944-.174-3.628-.746-4.1-2.968Z" transform="translate(8.953 26.951)" fill="#fefacd"/>
        <path id="Tracé_181" data-name="Tracé 181" d="M93.03,58.941c.746.365.92,1.094,1.284,1.771,1.3,2.413,2.881,2.847,5.207,1.284,1.076-.729,1.649-.521,2.482.278,2.014,1.909,4.253,2.552,6.7.8a2.133,2.133,0,0,1,2.638-.087c2.812,1.6,5.121,1.3,7.308-.937,1.128-1.146,1.718-2.239,3.576-.66,1.475,1.267,3.472.33,4.582-1.527a11.745,11.745,0,0,1,.573-1.146,1.117,1.117,0,0,1,.816-.365c.555.035.608.538.608.972a4.351,4.351,0,0,1-3.871,3.767,4.576,4.576,0,0,1-1.614-.017,5.684,5.684,0,0,0-5.5,1.493c-1.84,1.562-4.392.92-6.492.156-1.024-.365-1.632-.59-2.586,0a5.456,5.456,0,0,1-7.1-.677,2.021,2.021,0,0,0-2.326-.486c-4.114,1.545-6.214-.035-6.284-4.6h0Z" transform="translate(9.711 24.409)" fill="#fef9c9"/>
        <path id="Tracé_182" data-name="Tracé 182" d="M92.633,65.874c1.632,1.805,3.628,2.743,6.058,2.048a2.547,2.547,0,0,1,2.343.642,5.605,5.605,0,0,0,6.37.451,2.439,2.439,0,0,1,2.187-.174c.4.139.8.33,1.2.486,2.569,1.094,4.548-1.961,6.683-1.25,2.586.833,4.426.087,6.3-1.284.972-.712,1.857-1.51,3.194-1.041,2.517.885,4.409.087,5.763-2.17a11.261,11.261,0,0,1,1.232-1.493c1.423,3.194,2.968,6.353,2.6,10-.816.226-1.7.122-2.326.937-1.51,2-3.281,2.413-5.225.59-.92-.851-1.493-.486-2.014.417-1.475,2.517-3.419,3.263-5.884,1.337-1.007-.781-1.666-.434-2.534.278-2.187,1.823-4.582,2.43-7.151.729a2.21,2.21,0,0,0-2.656-.035,4.746,4.746,0,0,1-6.2-.8c-1.007-1.007-1.718-1.441-3.3-.694-2.864,1.337-4.86.312-7.568-3.107-.191,0-.382-.035-.573-.052.885-1.84.156-4.1,1.493-5.815Z" transform="translate(8.32 27.161)" fill="#fcf17d"/>
        <path id="Tracé_183" data-name="Tracé 183" d="M90.547,72.676a4.95,4.95,0,0,1,.8.538c2.916,2.951,2.933,2.968,6.231.365.5-.4.955-.573,1.389-.122,1.84,1.857,3.68,2.552,5.78.312.538-.573,1.146-.052,1.7.347,2.69,1.875,4.183,1.823,6.561-.226a16.391,16.391,0,0,1,1.423-1.284,1.043,1.043,0,0,1,1.632.278c1.024,1.337,1.892,2.829,3.888,3.124a10.669,10.669,0,0,0,6.8-1.6c1.389-.746,2.43-1.614,3.732.347.694,1.059,1.944.538,2.569-.66.59-1.128,1.337-1.84,2.482-.729,1.111,1.076,1.3-.712,2.309-.538.417.8.035,1.736.017,2.638-1.7.243-3.558-.8-5.1.92-.5.573-1.77.382-2.5,0-1.7-.868-2.986-.156-4.548.486a9.569,9.569,0,0,1-6.891.538,6.455,6.455,0,0,1-3.506-2.847c-1.51.4-2.083,1.666-3.211,2.048a7.27,7.27,0,0,1-5.954-.365,1.985,1.985,0,0,0-2.309-.156,3.919,3.919,0,0,1-3.767-.017c-1.423-.868-2.326-.677-3.645.156-2.4,1.51-3.454,1.076-5.971-1.77.035-.608.069-1.2.1-1.805Z" transform="translate(7.82 34.697)" fill="#feface"/>
        <path id="Tracé_184" data-name="Tracé 184" d="M90.041,75.394a.665.665,0,0,1-.4-.694A.614.614,0,0,1,90.041,75.394Z" transform="translate(7.215 36.439)" fill="#fcf17d"/>
        <path id="Tracé_185" data-name="Tracé 185" d="M90.386,76.524A.6.6,0,0,1,90,75.83.665.665,0,0,1,90.386,76.524Z" transform="translate(7.477 37.271)" fill="#fcf17d"/>
        <path id="Tracé_186" data-name="Tracé 186" d="M124.526,156.392c-.486.139-1.2.555-1.441.365-1.527-1.146-3.61-1.736-4.253-3.836-2.951-2.743-6.162-5.155-9.043-7.967-7.846-6.926-15.015-14.546-22.235-22.114,7.256,7.481,14.164,15.344,22.149,22.1,2.066,1.979,4.253,3.836,6.474,5.641.486.4,1.076.746.764,1.545-.243.226-.5.451-.746.66-2.5-.937-4.218-2.986-6.127-4.652-5.1-4.478-10.206-9.026-14.876-13.956-3.263-3.454-6.44-7-9.6-10.536-.781-.868-2.343-2.1-1.267-3.281,1.111-1.232,2.552-.174,3.715.729a42.858,42.858,0,0,1,5.346,4.7c7.394,8.037,15.31,15.535,23.207,23.069,2.638,2.517,5.711,4.6,7.95,7.551Z" transform="translate(3.037 69.622)" fill="#f0bd55"/>
        <path id="Tracé_187" data-name="Tracé 187" d="M124.944,159.711c-1.718,1.007-2.517-.069-3.211-1.406-.4-.469-.816-.955-1.25-1.389h0a4.619,4.619,0,0,1-1.18-2.031c-6.474-9.738-13.4-19.2-20.482-28.988,1.458-.3,1.909.174,2.343.816,4.964,7.169,9.894,14.355,14.962,21.454,2.812,3.94,5.867,7.707,8.818,11.56Z" transform="translate(13.971 74.044)" fill="#f1c157"/>
        <path id="Tracé_188" data-name="Tracé 188" d="M107.848,120.96a42.6,42.6,0,0,1,4.617,17.393c-1.284-2.013-4.93-15.466-4.617-17.393Z" transform="translate(20.6 70.477)" fill="#f0bd54"/>
        <path id="Tracé_189" data-name="Tracé 189" d="M111.409,133.69c1.284,1.423.972,2.638.486,4.235C110.628,136.5,110.906,135.287,111.409,133.69Z" transform="translate(22.923 79.843)"/>
        <path id="Tracé_190" data-name="Tracé 190" d="M110.936,142.56a1.96,1.96,0,0,1,1.18,2.031,2.081,2.081,0,0,1-1.927-1.371c.243-.226.486-.451.729-.66Z" transform="translate(22.337 86.37)" fill="#f8df6f"/>
        <path id="Tracé_191" data-name="Tracé 191" d="M109.178,142.3c-.937-.052-1.892-.087-1.857-1.423C107.98,141.3,108.778,141.54,109.178,142.3Z" transform="translate(20.225 85.134)" fill="#f0bd55"/>
        <path id="Tracé_192" data-name="Tracé 192" d="M103.26,139.56c.191.208.4.417.59.642C103.659,139.994,103.451,139.786,103.26,139.56Z" transform="translate(17.238 84.162)" fill="#f0bd55"/>
        <path id="Tracé_193" data-name="Tracé 193" d="M102.88,139.18c.208.226.434.434.642.66C103.314,139.614,103.088,139.406,102.88,139.18Z" transform="translate(16.958 83.883)" fill="#f0bd55"/>
        <path id="Tracé_194" data-name="Tracé 194" d="M102.52,138.79c.208.226.417.451.625.694C102.937,139.259,102.728,139.033,102.52,138.79Z" transform="translate(16.694 83.596)" fill="#f0bd55"/>
        <path id="Tracé_195" data-name="Tracé 195" d="M103.383,101.786a.717.717,0,0,1-.069.625c-.417,0-.851,0-1.267-.035-.729-.069-1.58.017-1.666-1.024a.992.992,0,0,1,.434-.764,1.492,1.492,0,0,1,1.979.451c.191.26.4.5.59.746Z" transform="translate(15.119 55.352)" fill="#ededee"/>
        <path id="Tracé_196" data-name="Tracé 196" d="M76.627,100.169c.035.434-.312.781-.92.764a.779.779,0,0,1-.816-.764.829.829,0,0,1,.9-.989c.417,0,.781.243.833.972Z" transform="translate(-3.637 54.451)" fill="#fffffe"/>
        <path id="Tracé_197" data-name="Tracé 197" d="M89.392,100.734c-.122.608-.451.92-1.094.816a.772.772,0,0,1-.677-.9.808.808,0,0,1,1.059-.8c.521.087.625.469.694.885Z" transform="translate(5.729 54.928)" fill="#fffffe"/>
        <path id="Tracé_198" data-name="Tracé 198" d="M80.883,99.55a.818.818,0,0,1,.278,1.111.509.509,0,0,1-.781.208.694.694,0,0,1-.191-.868c.1-.312.312-.555.694-.451Z" transform="translate(0.213 54.706)" fill="#fff"/>
        <path id="Tracé_199" data-name="Tracé 199" d="M143.7,103.841c-.087-.139-.26-.26-.278-.4-.035-.278,0-.573.347-.642a.409.409,0,0,1,.174.226.708.708,0,0,1-.243.816Z" transform="translate(46.783 57.115)" fill="#fbfbfa"/>
        <path id="Tracé_200" data-name="Tracé 200" d="M111.934,100.921a3.47,3.47,0,0,1-.069,1.927c-.764-.139-1.927.139-1.736-1.18.139-1.007,1.111-.694,1.805-.729Z" transform="translate(22.277 55.731)" fill="#feffff"/>
        <path id="Tracé_201" data-name="Tracé 201" d="M103.076,100.527c.521.1,1.076.174,1.094.868.017.868-.555,1.007-1.25,1.007l.156-1.892Z" transform="translate(16.988 55.43)" fill="#fafafa"/>
        <path id="Tracé_202" data-name="Tracé 202" d="M66.342,98.68c.208,0,.417,0,.625.017.677.087,1.632-.1,1.684.9.052,1.3-1.024.989-1.805,1.024-.208,0-.417-.035-.625-.052l.1-1.892Z" transform="translate(-10.015 54.084)" fill="#fefdfd"/>
        <path id="Tracé_203" data-name="Tracé 203" d="M120.543,81.467c-2.048,0-3.923-.764-5.884-1.094a12.079,12.079,0,0,1-2.76-.851,11.881,11.881,0,0,0-9.373,0,7.713,7.713,0,0,1-5.676.122c3.7-.989,7.464-1.614,11.022-2.986a1.726,1.726,0,0,1,1.25.052c3.281,1.666,6.874,2.4,10.328,3.576.521.174,1.024.347,1.094,1.2Z" transform="translate(12.522 37.813)" fill="#f0bd54"/>
        <path id="Tracé_204" data-name="Tracé 204" d="M91.485,67.8a2.3,2.3,0,0,1,1.614.937c1.979,2.152,3.715,2.638,6.284,1.371a2.28,2.28,0,0,1,3.09.573c2.361,2.309,3.871,2.43,6.405.573a1.577,1.577,0,0,1,2.014-.087c3.992,2.222,4.86,2.083,8.019-1.18a2.524,2.524,0,0,1,.573-.382c1.024-.1,1.319.937,2,1.389,2.048,1.371,3.176,1.111,4.513-1.007.521-.816.451-1.927,1.389-2.534.989-.191,1.18.694,1.632,1.232,1.736,2.152,3.055,2.083,4.478-.191q1.041-1.666,2.847-.347c.035.191.052.382.087.555-1.024.764-2.014,1.6-3.09,2.291a4.175,4.175,0,0,1-5.1-.243c-1.406,1.059-2.291,2.725-4.548,2.69-1.632-.035-2.743-1.6-4.166-1.232-1.284.33-2.222,1.77-3.68,1.892a8.1,8.1,0,0,1-5.051-.729,1.907,1.907,0,0,0-2.066-.191A5.951,5.951,0,0,1,101.6,72.1c-.937-.9-1.545-.851-2.743-.434-3.645,1.319-6.318-.208-7.412-3.871Z" transform="translate(8.549 31.086)" fill="#fefacc"/>
        <path id="Tracé_205" data-name="Tracé 205" d="M142.344,78.771c-.851-.469-1.7-.937-2.534-1.406,1.284-1.163,1.805.174,2.534.781.174.139.226.278.174.417S142.4,78.771,142.344,78.771Z" transform="translate(44.131 38.062)" fill="#8d8a91"/>
        <path id="Tracé_206" data-name="Tracé 206" d="M137.712,76.246a1.432,1.432,0,0,1-.451-.174.391.391,0,0,1,0-.451c0-.26.017-.521.035-.781.521.365,1.232.521,1.423,1.25-.33.052-.66.1-1.007.139Z" transform="translate(42.202 36.542)" fill="#b6b3b8"/>
        <path id="Tracé_207" data-name="Tracé 207" d="M141.27,78.247v-.625a.943.943,0,0,1,.608.122v.729a1.679,1.679,0,0,1-.608-.208Z" transform="translate(45.205 38.586)" fill="#dad7d9"/>
        <path id="Tracé_208" data-name="Tracé 208" d="M99.329,134.1c2.829,2.847,6.388,4.93,8.714,8.3-.625-.26-1.267-.538-1.892-.8-1.788-2.152-4.2-3.61-6.249-5.45a4.512,4.512,0,0,1-1.3-1.389.775.775,0,0,1,.712-.642Z" transform="translate(13.809 80.145)" fill="#f7de6f"/>
        <path id="Tracé_209" data-name="Tracé 209" d="M111.3,143.72a1.191,1.191,0,0,1,1.25,1.389A1.268,1.268,0,0,1,111.3,143.72Z" transform="translate(23.154 87.223)" fill="#f8df6f"/>
        <path id="Tracé_210" data-name="Tracé 210" d="M109.4,143.985c-.243.208-.486.434-.712.642a108.24,108.24,0,0,1-10.137-8.974c-4.235-4.131-7.794-8.939-12.307-12.845a3.329,3.329,0,0,1-1.337-1.788c.625-.694,1.146-.226,1.614.156a40.305,40.305,0,0,1,5.121,4.912c5.485,6.37,11.96,11.8,17.74,17.879Z" transform="translate(3.736 70.26)" fill="#fbec79"/>
      </g>
    </g>
  </g>
</svg>
